#N canvas 223 346 1678 966 12;
#X obj 251 653 line;
#X floatatom 297 706 5 0 0 0 - - -, f 5;
#X obj 312 940 outlet;
#X floatatom 328 592 5 0 0 0 - - -, f 5;
#X floatatom 149 516 5 0 0 0 - - -, f 5;
#X obj 251 624 pack \$1 \$2;
#X obj 108 286 outlet;
#X obj 882 -12 inlet;
#X obj 924 -12 inlet;
#X obj 970 -12 inlet;
#X obj 1050 -12 inlet;
#X obj 1091 -12 inlet;
#X obj 1135 -12 inlet;
#X obj 1190 -12 inlet;
#X obj 1332 -12 inlet;
#X obj 1375 -12 inlet;
#X obj 1417 -12 inlet;
#X obj 1460 -12 inlet;
#X obj 1537 -12 inlet;
#X obj 1586 -12 inlet;
#X obj 1628 -12 inlet;
#X obj 1681 -12 inlet;
#X obj 838 -12 inlet;
#X obj 149 577 * 1;
#X obj 725 57 f;
#X obj 714 156 nbx 5 14 -1e+37 1e+37 0 0 empty empty empty 0 -8 0 10
-262144 -1 -1 84.252 256;
#X obj 783 57 f;
#X obj 785 156 nbx 5 14 -1e+37 1e+37 0 0 empty empty empty 0 -8 0 10
-262144 -1 -1 0 256;
#X obj 840 57 f;
#X obj 842 156 nbx 5 14 -1e+37 1e+37 0 0 empty empty empty 0 -8 0 10
-262144 -1 -1 0 256;
#X obj 898 57 f;
#X obj 901 155 nbx 5 14 -1e+37 1e+37 0 0 empty empty empty 0 -8 0 10
-262144 -1 -1 0 256;
#X obj 994 57 f;
#X obj 996 156 nbx 5 14 -1e+37 1e+37 0 0 empty empty empty 0 -8 0 10
-262144 -1 -1 0 256;
#X obj 1042 57 f;
#X obj 1044 156 nbx 5 14 -1e+37 1e+37 0 0 empty empty empty 0 -8 0
10 -262144 -1 -1 0 256;
#X obj 1099 57 f;
#X obj 1101 156 nbx 5 14 -1e+37 1e+37 0 0 empty empty empty 0 -8 0
10 -262144 -1 -1 0 256;
#X obj 1157 57 f;
#X obj 1159 156 nbx 5 14 -1e+37 1e+37 0 0 empty empty empty 0 -8 0
10 -262144 -1 -1 0 256;
#X obj 1234 57 f;
#X obj 1236 156 nbx 5 14 -1e+37 1e+37 0 0 empty empty empty 0 -8 0
10 -262144 -1 -1 0 256;
#X obj 1292 57 f;
#X obj 1294 156 nbx 5 14 -1e+37 1e+37 0 0 empty empty empty 0 -8 0
10 -262144 -1 -1 0 256;
#X obj 1349 57 f;
#X obj 1351 156 nbx 5 14 -1e+37 1e+37 0 0 empty empty empty 0 -8 0
10 -262144 -1 -1 0 256;
#X obj 1407 57 f;
#X obj 1409 156 nbx 5 14 -1e+37 1e+37 0 0 empty empty empty 0 -8 0
10 -262144 -1 -1 0 256;
#X obj 1491 57 f;
#X obj 1493 156 nbx 5 14 -1e+37 1e+37 0 0 empty empty empty 0 -8 0
10 -262144 -1 -1 0 256;
#X obj 1534 57 f;
#X obj 1551 156 nbx 5 14 -1e+37 1e+37 0 0 empty empty empty 0 -8 0
10 -262144 -1 -1 0 256;
#X obj 1598 57 f;
#X obj 1608 156 nbx 5 14 -1e+37 1e+37 0 0 empty empty empty 0 -8 0
10 -262144 -1 -1 0 256;
#X obj 1667 57 f;
#X obj 1666 156 nbx 5 14 -1e+37 1e+37 0 0 empty empty empty 0 -8 0
10 -262144 -1 -1 0 256;
#X obj 614 168 * 1;
#X obj 732 29 nbx 5 14 -1e+37 1e+37 0 0 empty empty empty 0 -8 0 10
-262144 -1 -1 84.252 256;
#X obj 790 29 nbx 5 14 -1e+37 1e+37 0 0 empty empty empty 0 -8 0 10
-262144 -1 -1 0 256;
#X obj 847 29 nbx 5 14 -1e+37 1e+37 0 0 empty empty empty 0 -8 0 10
-262144 -1 -1 0 256;
#X obj 905 29 nbx 5 14 -1e+37 1e+37 0 0 empty empty empty 0 -8 0 10
-262144 -1 -1 0 256;
#X obj 991 29 nbx 5 14 -1e+37 1e+37 0 0 empty empty empty 0 -8 0 10
-262144 -1 -1 0 256;
#X obj 1061 29 nbx 5 14 -1e+37 1e+37 0 0 empty empty empty 0 -8 0 10
-262144 -1 -1 0 256;
#X obj 1119 29 nbx 5 14 -1e+37 1e+37 0 0 empty empty empty 0 -8 0 10
-262144 -1 -1 0 256;
#X obj 1176 29 nbx 5 14 -1e+37 1e+37 0 0 empty empty empty 0 -8 0 10
-262144 -1 -1 0 256;
#X obj 1244 29 nbx 5 14 -1e+37 1e+37 0 0 empty empty empty 0 -8 0 10
-262144 -1 -1 0 256;
#X obj 1300 29 nbx 5 14 -1e+37 1e+37 0 0 empty empty empty 0 -8 0 10
-262144 -1 -1 0 256;
#X obj 1359 29 nbx 5 14 -1e+37 1e+37 0 0 empty empty empty 0 -8 0 10
-262144 -1 -1 0 256;
#X obj 1415 29 nbx 5 14 -1e+37 1e+37 0 0 empty empty empty 0 -8 0 10
-262144 -1 -1 0 256;
#X obj 1522 29 nbx 5 14 -1e+37 1e+37 0 0 empty empty empty 0 -8 0 10
-262144 -1 -1 0 256;
#X obj 1580 29 nbx 5 14 -1e+37 1e+37 0 0 empty empty empty 0 -8 0 10
-262144 -1 -1 0 256;
#X obj 1636 29 nbx 5 14 -1e+37 1e+37 0 0 empty empty empty 0 -8 0 10
-262144 -1 -1 0 256;
#X obj 1692 29 nbx 5 14 -1e+37 1e+37 0 0 empty empty empty 0 -8 0 10
-262144 -1 -1 0 256;
#X floatatom 840 97 5 0 0 0 - - -, f 5;
#X floatatom 898 97 5 0 0 0 - - -, f 5;
#X floatatom 997 97 5 0 0 0 - - -, f 5;
#X floatatom 1045 97 5 0 0 0 - - -, f 5;
#X floatatom 1101 97 5 0 0 0 - - -, f 5;
#X floatatom 1159 97 5 0 0 0 - - -, f 5;
#X floatatom 1236 97 5 0 0 0 - - -, f 5;
#X floatatom 1294 97 5 0 0 0 - - -, f 5;
#X floatatom 1350 97 5 0 0 0 - - -, f 5;
#X floatatom 1408 97 5 0 0 0 - - -, f 5;
#X floatatom 1495 97 5 0 0 0 - - -, f 5;
#X floatatom 1553 97 5 0 0 0 - - -, f 5;
#X floatatom 1609 97 5 0 0 0 - - -, f 5;
#X floatatom 1667 97 5 0 0 0 - - -, f 5;
#X msg 1764 75 1;
#X obj 1761 41 r lo;
#X floatatom 1833 77 5 0 0 0 - - -, f 5;
#X floatatom 597 106 5 0 0 0 - - -, f 5;
#X obj 597 78 * 1;
#X obj 307 38 select 0 1 2 3 4 5 6 7 8 9 10 11 12 13 14 15;
#X obj 891 -90 nbx 5 14 -1e+37 1e+37 0 0 empty empty empty 0 -8 0 10
-262144 -1 -1 2 256;
#X obj 949 -89 nbx 5 14 -1e+37 1e+37 0 0 empty empty empty 0 -8 0 10
-262144 -1 -1 7.25 256;
#X obj 1003 -90 nbx 5 14 -1e+37 1e+37 0 0 empty empty empty 0 -8 0
10 -262144 -1 -1 13.5 256;
#X obj 1065 -90 nbx 5 14 -1e+37 1e+37 0 0 empty empty empty 0 -8 0
10 -262144 -1 -1 19.75 256;
#X obj 1120 -89 nbx 5 14 -1e+37 1e+37 0 0 empty empty empty 0 -8 0
10 -262144 -1 -1 0 256;
#X obj 1176 -197 f;
#X obj 1178 -89 nbx 5 14 -1e+37 1e+37 0 0 empty empty empty 0 -8 0
10 -262144 -1 -1 0 256;
#X obj 1233 -197 f;
#X obj 1235 -89 nbx 5 14 -1e+37 1e+37 0 0 empty empty empty 0 -8 0
10 -262144 -1 -1 0 256;
#X obj 1291 -197 f;
#X obj 1293 -89 nbx 5 14 -1e+37 1e+37 0 0 empty empty empty 0 -8 0
10 -262144 -1 -1 0 256;
#X obj 1348 -197 f;
#X obj 1350 -89 nbx 5 14 -1e+37 1e+37 0 0 empty empty empty 0 -8 0
10 -262144 -1 -1 0 256;
#X obj 1406 -197 f;
#X obj 1408 -89 nbx 5 14 -1e+37 1e+37 0 0 empty empty empty 0 -8 0
10 -262144 -1 -1 0 256;
#X obj 1463 -197 f;
#X obj 1465 -89 nbx 5 14 -1e+37 1e+37 0 0 empty empty empty 0 -8 0
10 -262144 -1 -1 0 256;
#X obj 1521 -197 f;
#X obj 1523 -89 nbx 5 14 -1e+37 1e+37 0 0 empty empty empty 0 -8 0
10 -262144 -1 -1 0 256;
#X obj 1577 -197 f;
#X obj 1579 -89 nbx 5 14 -1e+37 1e+37 0 0 empty empty empty 0 -8 0
10 -262144 -1 -1 76 256;
#X obj 1620 -198 f;
#X obj 1637 -89 nbx 5 14 -1e+37 1e+37 0 0 empty empty empty 0 -8 0
10 -262144 -1 -1 82.25 256;
#X obj 1684 -193 f;
#X obj 1694 -89 nbx 5 14 -1e+37 1e+37 0 0 empty empty empty 0 -8 0
10 -262144 -1 -1 88.5 256;
#X obj 1753 -196 f;
#X obj 1752 -89 nbx 5 14 -1e+37 1e+37 0 0 empty empty empty 0 -8 0
10 -262144 -1 -1 94.75 256;
#X obj 835 -77 * 1;
#X obj 957 -227 nbx 5 14 -1e+37 1e+37 0 0 empty empty empty 0 -8 0
10 -262144 -1 -1 1 256;
#X obj 1024 -225 nbx 5 14 -1e+37 1e+37 0 0 empty empty empty 0 -8 0
10 -262144 -1 -1 6.25 256;
#X obj 1081 -225 nbx 5 14 -1e+37 1e+37 0 0 empty empty empty 0 -8 0
10 -262144 -1 -1 12.5 256;
#X obj 1139 -225 nbx 5 14 -1e+37 1e+37 0 0 empty empty empty 0 -8 0
10 -262144 -1 -1 18.75 256;
#X obj 1195 -225 nbx 5 14 -1e+37 1e+37 0 0 empty empty empty 0 -8 0
10 -262144 -1 -1 25 256;
#X obj 1255 -224 nbx 5 14 -1e+37 1e+37 0 0 empty empty empty 0 -8 0
10 -262144 -1 -1 31.25 256;
#X obj 1313 -224 nbx 5 14 -1e+37 1e+37 0 0 empty empty empty 0 -8 0
10 -262144 -1 -1 37.5 256;
#X obj 1370 -224 nbx 5 14 -1e+37 1e+37 0 0 empty empty empty 0 -8 0
10 -262144 -1 -1 43.75 256;
#X obj 1428 -224 nbx 5 14 -1e+37 1e+37 0 0 empty empty empty 0 -8 0
10 -262144 -1 -1 50 256;
#X obj 1484 -224 nbx 5 14 -1e+37 1e+37 0 0 empty empty empty 0 -8 0
10 -262144 -1 -1 56.25 256;
#X obj 1543 -227 nbx 5 14 -1e+37 1e+37 0 0 empty empty empty 0 -8 0
10 -262144 -1 -1 62.5 256;
#X obj 1601 -227 nbx 5 14 -1e+37 1e+37 0 0 empty empty empty 0 -8 0
10 -262144 -1 -1 68.75 256;
#X obj 1658 -227 nbx 5 14 -1e+37 1e+37 0 0 empty empty empty 0 -8 0
10 -262144 -1 -1 75 256;
#X obj 1716 -227 nbx 5 14 -1e+37 1e+37 0 0 empty empty empty 0 -8 0
10 -262144 -1 -1 81.25 256;
#X obj 1772 -227 nbx 5 14 -1e+37 1e+37 0 0 empty empty empty 0 -8 0
10 -262144 -1 -1 87.5 256;
#X obj 1832 -226 nbx 5 14 -1e+37 1e+37 0 0 empty empty empty 0 -8 0
10 -262144 -1 -1 93.75 256;
#X floatatom 890 -159 5 0 0 0 - - -, f 5;
#X floatatom 948 -159 5 0 0 0 - - -, f 5;
#X floatatom 1004 -159 5 0 0 0 - - -, f 5;
#X floatatom 1063 -159 5 0 0 0 - - -, f 5;
#X floatatom 1121 -159 5 0 0 0 - - -, f 5;
#X floatatom 1179 -159 5 0 0 0 - - -, f 5;
#X floatatom 1235 -159 5 0 0 0 - - -, f 5;
#X floatatom 1293 -159 5 0 0 0 - - -, f 5;
#X floatatom 1350 -159 5 0 0 0 - - -, f 5;
#X floatatom 1408 -159 5 0 0 0 - - -, f 5;
#X floatatom 1464 -159 5 0 0 0 - - -, f 5;
#X floatatom 1522 -159 5 0 0 0 - - -, f 5;
#X floatatom 1581 -159 5 0 0 0 - - -, f 5;
#X floatatom 1639 -159 5 0 0 0 - - -, f 5;
#X floatatom 1696 -159 5 0 0 0 - - -, f 5;
#X floatatom 1754 -159 5 0 0 0 - - -, f 5;
#X floatatom 744 -175 5 0 0 0 - - -, f 5;
#X floatatom 827 -517 5 0 0 0 - - -, f 5;
#X obj 1008 -468 bng 15 250 50 0 empty empty empty 17 7 0 10 -262144
-1 -1;
#X obj 1076 -468 bng 15 250 50 0 empty empty empty 17 7 0 10 -262144
-1 -1;
#X obj 1149 -468 bng 15 250 50 0 empty empty empty 17 7 0 10 -262144
-1 -1;
#X obj 1222 -468 bng 15 250 50 0 empty empty empty 17 7 0 10 -262144
-1 -1;
#X obj 1293 -468 bng 15 250 50 0 empty empty empty 17 7 0 10 -262144
-1 -1;
#X obj 1364 -468 bng 15 250 50 0 empty empty empty 17 7 0 10 -262144
-1 -1;
#X obj 1437 -468 bng 15 250 50 0 empty empty empty 17 7 0 10 -262144
-1 -1;
#X obj 1509 -468 bng 15 250 50 0 empty empty empty 17 7 0 10 -262144
-1 -1;
#X obj 1580 -468 bng 15 250 50 0 empty empty empty 17 7 0 10 -262144
-1 -1;
#X obj 1653 -468 bng 15 250 50 0 empty empty empty 17 7 0 10 -262144
-1 -1;
#X obj 1726 -468 bng 15 250 50 0 empty empty empty 17 7 0 10 -262144
-1 -1;
#X obj 1799 -468 bng 15 250 50 0 empty empty empty 17 7 0 10 -262144
-1 -1;
#X obj 1870 -468 bng 15 250 50 0 empty empty empty 17 7 0 10 -262144
-1 -1;
#X obj 1944 -468 bng 15 250 50 0 empty empty empty 17 7 0 10 -262144
-1 -1;
#X obj 748 -244 r lo;
#X obj 846 -177 * 1;
#X obj 957 -300 r lo;
#X obj 466 -295 spigot-toggle_red;
#X msg 840 -54 1;
#X floatatom 243 -333 5 0 0 0 - - -, f 5;
#X obj 297 682 spigot-toggle_red;
#X floatatom 439 -65 5 0 0 0 - - -, f 5;
#X obj 61 664 r lo;
#X msg 1048 -280 6.25;
#X msg 1091 -280 12.5;
#X msg 1135 -280 18.75;
#X msg 1192 -280 25;
#X msg 1234 -280 31.25;
#X msg 1284 -280 37.5;
#X msg 1335 -280 43.75;
#X msg 1383 -280 50;
#X msg 1420 -280 56.25;
#X msg 1466 -280 62.5;
#X msg 1507 -280 68.75;
#X msg 1560 -280 75;
#X msg 1598 -280 81.25;
#X msg 1651 -280 87.5;
#X msg 1693 -281 93.75;
#X obj 1755 -114 +;
#X obj 1697 -114 +;
#X obj 1641 -115 +;
#X obj 1583 -115 +;
#X obj 1524 -117 +;
#X obj 1466 -118 +;
#X obj 1410 -118 +;
#X obj 1352 -118 +;
#X obj 1295 -118 +;
#X obj 1237 -118 +;
#X obj 1181 -119 +;
#X obj 1123 -119 +;
#X obj 1064 -121 +;
#X obj 1006 -121 +;
#X obj 950 -122 +;
#X obj 892 -121 +;
#X obj 498 -60 spigot-toggle_red;
#X obj 889 -197 f;
#X obj 947 -197 f;
#X obj 1004 -197 f;
#X obj 1062 -197 f;
#X obj 1118 -197 f;
#X obj 429 661 pack \$1 \$2;
#X obj 429 690 line;
#X msg 999 -280 1;
#X obj 2011 -468 bng 15 250 50 0 empty empty empty 17 7 0 10 -262144
-1 -1;
#X floatatom 770 511 5 0 0 0 - - -, f 5;
#X floatatom 838 513 5 0 0 0 - - -, f 5;
#X floatatom 902 509 5 0 0 0 - - -, f 5;
#X floatatom 966 511 5 0 0 0 - - -, f 5;
#X floatatom 716 533 5 0 0 0 - - -, f 5;
#X floatatom 1028 509 5 0 0 0 - - -, f 5;
#X floatatom 1083 510 5 0 0 0 - - -, f 5;
#X floatatom 1143 511 5 0 0 0 - - -, f 5;
#X floatatom 1199 511 5 0 0 0 - - -, f 5;
#X floatatom 1252 512 5 0 0 0 - - -, f 5;
#X floatatom 1303 510 5 0 0 0 - - -, f 5;
#X floatatom 1359 511 5 0 0 0 - - -, f 5;
#X obj 735 435 f;
#X obj 1789 297 r lo;
#X obj 808 435 f;
#X obj 862 435 f;
#X obj 931 435 f;
#X obj 315 413 select 0 1 2 3 4 5 6 7 8 9 10 11 12 13 14 15;
#X obj 985 435 f;
#X obj 1043 435 f;
#X obj 1097 435 f;
#X obj 1160 435 f;
#X obj 1216 435 f;
#X obj 1271 435 f;
#X obj 1329 435 f;
#X obj 1396 435 f;
#X obj 1452 435 f;
#X obj 1513 435 f;
#X obj 1562 435 f;
#X obj 1626 435 f;
#X floatatom 1418 513 5 0 0 0 - - -, f 5;
#X floatatom 1474 513 5 0 0 0 - - -, f 5;
#X floatatom 1527 514 5 0 0 0 - - -, f 5;
#X floatatom 1585 512 5 0 0 0 - - -, f 5;
#X floatatom 1641 513 5 0 0 0 - - -, f 5;
#X obj 712 226 *;
#X obj 785 226 *;
#X obj 839 226 *;
#X obj 898 226 *;
#X obj 989 226 *;
#X obj 1045 226 *;
#X obj 1100 226 *;
#X obj 1155 226 *;
#X obj 1240 226 *;
#X obj 1297 226 *;
#X obj 1355 226 *;
#X obj 1416 226 *;
#X obj 1488 226 *;
#X obj 1535 226 *;
#X obj 1600 226 *;
#X obj 1663 226 *;
#X msg 738 -218 1;
#X floatatom 501 611 5 0 0 0 - - -, f 5;
#X msg 1782 491 1;
#X obj 903 386 * 1;
#X obj 990 386 * 1;
#X obj 1048 386 * 1;
#X obj 1105 386 * 1;
#X obj 1163 386 * 1;
#X obj 1240 386 * 1;
#X obj 1298 386 * 1;
#X obj 1355 386 * 1;
#X obj 1419 386 * 1;
#X obj 1475 386 * 1;
#X obj 1540 386 * 1;
#X obj 1587 386 * 1;
#X obj 1653 386 * 1;
#X obj 846 386 * 1;
#X obj 789 386 * 1;
#X obj 734 319 tgl 15 0 empty empty empty 17 7 0 10 -262144 -1 -1 1
1;
#X obj 786 319 tgl 15 0 empty empty empty 17 7 0 10 -262144 -1 -1 1
1;
#X obj 831 319 tgl 15 0 empty empty empty 17 7 0 10 -262144 -1 -1 1
1;
#X obj 880 319 tgl 15 0 empty empty empty 17 7 0 10 -262144 -1 -1 1
1;
#X obj 997 319 tgl 15 0 empty empty empty 17 7 0 10 -262144 -1 -1 1
1;
#X obj 1022 319 tgl 15 0 empty empty empty 17 7 0 10 -262144 -1 -1
1 1;
#X obj 1107 319 tgl 15 0 empty empty empty 17 7 0 10 -262144 -1 -1
1 1;
#X obj 1149 319 tgl 15 0 empty empty empty 17 7 0 10 -262144 -1 -1
1 1;
#X obj 1242 319 tgl 15 0 empty empty empty 17 7 0 10 -262144 -1 -1
1 1;
#X obj 1309 319 tgl 15 0 empty empty empty 17 7 0 10 -262144 -1 -1
1 1;
#X obj 1361 319 tgl 15 0 empty empty empty 17 7 0 10 -262144 -1 -1
1 1;
#X obj 1406 319 tgl 15 0 empty empty empty 17 7 0 10 -262144 -1 -1
1 1;
#X obj 1487 319 tgl 15 0 empty empty empty 17 7 0 10 -262144 -1 -1
1 1;
#X obj 1539 319 tgl 15 0 empty empty empty 17 7 0 10 -262144 -1 -1
1 1;
#X obj 1584 319 tgl 15 0 empty empty empty 17 7 0 10 -262144 -1 -1
1 1;
#X obj 1632 319 tgl 15 0 empty empty empty 17 7 0 10 -262144 -1 -1
1 1;
#X obj 933 -463 bng 15 250 50 0 empty empty empty 17 7 0 10 -262144
-1 -1;
#X obj 773 -435 notein;
#X floatatom 309 -507 5 0 0 0 - - -, f 5;
#X obj 201 -534 float;
#X obj 249 -538 + 1;
#X obj 279 -574 nbx 5 14 -1e+37 1e+37 0 0 empty empty empty 0 -8 0
10 -262144 -1 -1 0 256;
#X obj 203 -497 mod;
#X floatatom 774 -407 5 0 0 0 - - -, f 5;
#X obj 933 -501 select 32;
#X obj 1008 -501 select 33;
#X obj 1086 -501 select 34;
#X obj 1169 -502 select 35;
#X obj 1250 -501 select 36;
#X obj 1333 -501 select 37;
#X obj 1414 -501 select 38;
#X obj 1497 -501 select 39;
#X obj 1579 -501 select 40;
#X obj 1662 -501 select 41;
#X obj 1743 -501 select 42;
#X obj 1827 -501 select 43;
#X obj 1907 -501 select 44;
#X obj 1990 -501 select 45;
#X obj 2074 -501 select 46;
#X obj 2162 -500 select 47;
#X obj 1040 -42 out2;
#X obj 1086 -42 out3;
#X obj 1147 -42 out4;
#X obj 1203 -42 out5;
#X obj 1258 -42 out6;
#X obj 1313 -42 out7;
#X obj 1378 -42 out8;
#X obj 1446 -42 out9;
#X obj 1493 -42 out10;
#X obj 1554 -42 out11;
#X obj 1606 -42 out12;
#X obj 1653 -42 out13;
#X obj 1718 -42 out14;
#X obj 1781 -42 out15;
#X obj 924 -42 out0;
#X floatatom 329 916 5 0 0 0 - - -, f 5;
#X obj 202 -445 nbx 5 14 -1e+37 1e+37 0 0 empty empty empty 0 -8 0
10 -262144 -1 -1 0 256;
#X obj 265 -502 + 0;
#X obj 112 -559 inlet;
#X obj 205 -424 sel;
#X obj 205 -398 bng 15 250 50 0 empty empty empty 17 7 0 10 -262144
-1 -1;
#X obj 207 -363 float;
#X obj 254 -364 + 1;
#X obj 262 -472 * 1;
#X obj 207 -333 mod;
#X obj 386 832 inlet;
#X obj 307 -535 r lnr*T;
#X obj 211 -268 r nbrsteps_lnr;
#X obj 465 -265 r steps_lnr;
#X obj -75 194 s mod11;
#X obj 107 691 r freestepsouts;
#X obj 692 558 s trgrA;
#X obj 149 610 s R$;
#X obj 781 546 s sof16;
#X obj 850 546 s sof17;
#X obj 920 546 s sof18;
#X obj 989 546 s sof19;
#X obj 1059 546 s sof20;
#X obj 1133 546 s sof21;
#X obj 1201 546 s sof22;
#X obj 1267 546 s sof23;
#X obj 1334 546 s sof24;
#X obj 1400 545 s sof25;
#X obj 1464 546 s sof26;
#X obj 1523 546 s sof27;
#X obj 1585 546 s sof28;
#X obj 1648 546 s sof29;
#X obj 1717 545 s sof30;
#X obj 1787 546 s sof31;
#X obj 1691 344 onoff31;
#X obj 1627 344 onoff30;
#X obj 1567 344 onoff29;
#X obj 1503 344 onoff28;
#X obj 1404 344 onoff27;
#X obj 677 344 onoff16;
#X obj 739 344 onoff17;
#X obj 799 344 onoff18;
#X obj 859 344 onoff19;
#X obj 949 344 onoff20;
#X obj 1011 344 onoff21;
#X obj 1072 343 onoff22;
#X obj 1137 344 onoff23;
#X obj 1219 344 onoff24;
#X obj 1282 342 onoff25;
#X obj 1343 343 onoff26;
#X obj 703 291 r of16;
#X obj 753 291 r of17;
#X obj 804 291 r of18;
#X obj 856 291 r of19;
#X obj 983 287 r of20;
#X obj 1041 291 r of21;
#X obj 1093 291 r of22;
#X obj 1147 291 r of23;
#X obj 1233 291 r of24;
#X obj 1304 291 r of25;
#X obj 1356 291 r of26;
#X obj 1409 291 r of27;
#X obj 1501 291 r of28;
#X obj 1555 291 r of29;
#X obj 1605 291 r of30;
#X obj 1655 291 r of31;
#X obj 711 259 out16;
#X obj 779 258 out17;
#X obj 839 258 out18;
#X obj 898 258 out19;
#X obj 989 258 out20;
#X obj 1045 258 out21;
#X obj 1100 257 out22;
#X obj 1155 258 out23;
#X obj 1240 258 out24;
#X obj 1295 258 out25;
#X obj 1355 258 out26;
#X obj 1417 258 out27;
#X obj 1488 258 out28;
#X obj 1535 258 out29;
#X obj 1600 258 out30;
#X obj 1663 258 out31;
#X obj 2804 -179 r _166;
#X obj 2746 -179 r _155;
#X obj 2674 -179 r _144;
#X obj 2615 -179 r _133;
#X obj 2553 -179 r _122;
#X obj 2495 -179 r _111;
#X obj 2443 -179 r _100;
#X obj 2390 -179 r _99;
#X obj 2348 -179 r _88;
#X obj 2301 -179 r _77;
#X obj 2239 -179 r _66;
#X obj 2188 -179 r _55;
#X obj 2137 -179 r _44;
#X obj 2092 -179 r _33;
#X obj 2049 -179 r _22;
#X obj 2006 -179 r _11;
#X floatatom 329 782 5 0 0 0 - - -, f 5;
#X floatatom 209 -305 5 0 0 0 - - -, f 5;
#X obj 820 -332 spigot-toggle_red;
#X obj 843 -372 < 16;
#X obj 428 717 * 0.812;
#X floatatom 765 -281 5 0 0 0 - - -, f 5;
#X obj 110 579 r T$;
#X msg 531 2443 75;
#X floatatom 111 -530 5 0 0 0 - - -, f 5;
#X obj 150 85 inlet;
#X floatatom 27 66 5 0 0 0 - - -, f 5;
#X floatatom -69 42 5 0 0 0 - - -, f 5;
#X obj 24 39 inlet;
#X floatatom -75 158 5 0 0 0 - - -, f 5;
#X floatatom -69 123 5 0 0 0 - - -, f 5;
#X obj 466 -318 + 0;
#X obj 344 -22 spigot-toggle_red;
#X obj 203 -555 bng 15 250 50 0 empty empty empty 17 7 0 10 -262144
-1 -1;
#X obj 333 -269 r directtuchpad;
#X floatatom 742 -56 5 0 0 0 - - -, f 5;
#X obj 985 -42 out1;
#X obj 761 -533 + 32;
#X floatatom 875 -464 5 0 0 0 - - -, f 5;
#X obj 892 -390 s directstopad;
#X obj 777 -307 spigot-toggle_red;
#X obj 827 -411 / 64;
#X obj 774 -362 spigot-toggle_red;
#X obj 205 -598 r BB;
#X obj 645 -433 + 32;
#X obj 646 -404 - 32;
#X obj 478 10 + 1;
#X obj 790 -60 * 1;
#X msg 750 -133 100;
#X obj 560 -264 r LNR+TUCH;
#X obj 106 765 r steps_lnr;
#X obj 297 762 spigot-toggle_red;
#X obj 225 792 - 1;
#X obj 225 822 * -1;
#X obj 351 737 r lo;
#X floatatom 690 -298 5 0 0 0 - - -, f 5;
#X floatatom 644 -298 5 0 0 0 - - -, f 5;
#X obj 565 -433 - 1;
#X obj 565 -407 * -1;
#X obj 683 -358 spigot-toggle_red;
#X obj 645 -358 spigot-toggle_red;
#X obj 644 -331 spigot-toggle_red;
#X obj 421 -64 spigot-toggle_red;
#X obj 694 -397 r lo;
#X obj 329 837 + 0;
#X obj 842 124 +;
#X obj 900 124 +;
#X obj 999 125 +;
#X obj 1047 126 +;
#X obj 1103 127 +;
#X obj 1161 127 +;
#X obj 1239 127 +;
#X obj 1296 127 +;
#X obj 1352 128 +;
#X obj 1410 128 +;
#X obj 1497 129 +;
#X obj 1555 130 +;
#X obj 1611 131 +;
#X obj 1669 131 +;
#X obj 1805 709 * 1;
#X obj -24 130 s chmtstp;
#X obj 896 -435 spigot-toggle_red;
#X obj -2 -86 t b f;
#X obj -57 -261 notein;
#X obj -36 -224 / 64;
#X obj -91 -175 spigot-toggle_red;
#X obj -2 -173 r LNR+TUCH;
#X obj -2 -144 - 1;
#X obj -2 -115 * -1;
#X floatatom -84 -200 5 0 0 0 - - -, f 5;
#X obj -83 -224 < 16;
#X floatatom -36 -201 5 0 0 0 - - -, f 5;
#X floatatom -89 -150 5 0 0 0 - - -, f 5;
#X obj -89 -126 - 1;
#X obj -89 -99 * -1;
#X obj -89 -72 * 100;
#X obj -30 -154 spigot-toggle_red;
#X obj -68 -14 spigot-toggle_red;
#X obj 35 -61 r lo;
#X obj 786 123 + 0;
#X obj 728 123 + 0;
#X floatatom 730 97 5 0 0 0 - - -, f 5;
#X floatatom 788 97 5 0 0 0 - - -, f 5;
#X obj 329 808 t b f;
#X obj 731 386 * 1;
#X obj 145 -369 s BLNR;
#X obj 156 980 s drcttuch;
#X obj 158 949 spigot-toggle_red;
#X obj 160 917 r directtuchpad;
#X obj 340 8 * 1;
#X obj 353 -228 - 1;
#X obj 351 -199 * -1;
#X floatatom 225 64 5 0 0 0 - - -, f 5;
#X obj 230 39 spigot-toggle_red;
#X obj 1660 189 t b f;
#X obj 690 188 t b f;
#X obj 764 188 t b f;
#X obj 820 188 t b f;
#X obj 870 188 t b f;
#X obj 980 188 t b f;
#X obj 1030 188 t b f;
#X obj 1100 188 t b f;
#X obj 1150 188 t b f;
#X obj 1230 188 t b f;
#X obj 1280 188 t b f;
#X obj 1341 188 t b f;
#X obj 1391 188 t b f;
#X obj 1471 188 t b f;
#X obj 1521 188 t b f;
#X obj 1581 188 t b f;
#X obj 149 544 t b f;
#X obj 663 -204 * 1;
#X obj 668 -76 s modL;
#X obj 669 -112 spigot-toggle_red;
#X obj -69 95 mod;
#X obj -69 67 + 0;
#X obj -2 -57 * 1;
#X obj 677 -152 r modLok;
#X obj 329 890 + 1;
#X obj 218 720 sel;
#X msg 235 756 1;
#X obj 76 719 r modLok;
#X connect 0 0 175 0;
#X connect 1 0 476 0;
#X connect 3 0 5 1;
#X connect 3 0 271 0;
#X connect 4 0 555 0;
#X connect 5 0 0 0;
#X connect 7 0 58 0;
#X connect 8 0 59 0;
#X connect 9 0 60 0;
#X connect 10 0 61 0;
#X connect 11 0 62 0;
#X connect 12 0 63 0;
#X connect 13 0 64 0;
#X connect 14 0 65 0;
#X connect 15 0 66 0;
#X connect 16 0 67 0;
#X connect 17 0 68 0;
#X connect 18 0 69 0;
#X connect 19 0 70 0;
#X connect 20 0 71 0;
#X connect 21 0 72 0;
#X connect 22 0 57 0;
#X connect 23 0 3 0;
#X connect 23 0 360 0;
#X connect 24 0 91 0;
#X connect 24 0 525 0;
#X connect 25 0 56 0;
#X connect 25 0 254 0;
#X connect 26 0 91 0;
#X connect 26 0 524 0;
#X connect 27 0 56 0;
#X connect 27 0 255 0;
#X connect 28 0 91 0;
#X connect 28 0 490 0;
#X connect 29 0 56 0;
#X connect 29 0 256 0;
#X connect 30 0 91 0;
#X connect 30 0 491 0;
#X connect 31 0 56 0;
#X connect 31 0 257 0;
#X connect 32 0 91 0;
#X connect 32 0 492 0;
#X connect 33 0 56 0;
#X connect 33 0 258 0;
#X connect 34 0 91 0;
#X connect 34 0 493 0;
#X connect 35 0 56 0;
#X connect 35 0 259 0;
#X connect 36 0 91 0;
#X connect 36 0 494 0;
#X connect 37 0 56 0;
#X connect 37 0 260 0;
#X connect 38 0 91 0;
#X connect 38 0 495 0;
#X connect 39 0 56 0;
#X connect 39 0 261 0;
#X connect 40 0 91 0;
#X connect 40 0 496 0;
#X connect 41 0 56 0;
#X connect 41 0 262 0;
#X connect 42 0 91 0;
#X connect 42 0 497 0;
#X connect 43 0 56 0;
#X connect 43 0 263 0;
#X connect 44 0 91 0;
#X connect 44 0 498 0;
#X connect 45 0 56 0;
#X connect 45 0 264 0;
#X connect 46 0 91 0;
#X connect 46 0 499 0;
#X connect 47 0 56 0;
#X connect 47 0 265 0;
#X connect 48 0 91 0;
#X connect 48 0 500 0;
#X connect 49 0 56 0;
#X connect 49 0 266 0;
#X connect 50 0 91 0;
#X connect 50 0 501 0;
#X connect 51 0 56 0;
#X connect 51 0 267 0;
#X connect 52 0 91 0;
#X connect 52 0 502 0;
#X connect 53 0 56 0;
#X connect 53 0 268 0;
#X connect 54 0 91 0;
#X connect 54 0 503 0;
#X connect 55 0 56 0;
#X connect 55 0 269 0;
#X connect 57 0 24 1;
#X connect 58 0 26 1;
#X connect 59 0 28 1;
#X connect 60 0 30 1;
#X connect 61 0 32 1;
#X connect 62 0 34 1;
#X connect 63 0 36 1;
#X connect 64 0 38 1;
#X connect 65 0 40 1;
#X connect 66 0 42 1;
#X connect 67 0 44 1;
#X connect 68 0 46 1;
#X connect 69 0 48 1;
#X connect 70 0 50 1;
#X connect 71 0 52 1;
#X connect 72 0 54 1;
#X connect 73 0 490 1;
#X connect 74 0 491 1;
#X connect 75 0 492 1;
#X connect 76 0 493 1;
#X connect 77 0 494 1;
#X connect 78 0 495 1;
#X connect 79 0 496 1;
#X connect 80 0 497 1;
#X connect 81 0 498 1;
#X connect 82 0 499 1;
#X connect 83 0 500 1;
#X connect 84 0 501 1;
#X connect 85 0 502 1;
#X connect 86 0 503 1;
#X connect 87 0 73 0;
#X connect 87 0 74 0;
#X connect 87 0 75 0;
#X connect 87 0 76 0;
#X connect 87 0 77 0;
#X connect 87 0 78 0;
#X connect 87 0 79 0;
#X connect 87 0 80 0;
#X connect 87 0 81 0;
#X connect 87 0 82 0;
#X connect 87 0 83 0;
#X connect 87 0 84 0;
#X connect 87 0 85 0;
#X connect 87 0 86 0;
#X connect 88 0 87 0;
#X connect 89 0 73 0;
#X connect 89 0 75 0;
#X connect 89 0 77 0;
#X connect 89 0 79 0;
#X connect 89 0 80 0;
#X connect 89 0 81 0;
#X connect 89 0 82 0;
#X connect 89 0 83 0;
#X connect 89 0 84 0;
#X connect 89 0 85 0;
#X connect 89 0 86 0;
#X connect 89 0 527 0;
#X connect 89 0 526 0;
#X connect 89 0 78 0;
#X connect 89 0 76 0;
#X connect 89 0 74 0;
#X connect 90 0 209 0;
#X connect 90 0 5 0;
#X connect 91 0 90 0;
#X connect 92 0 24 0;
#X connect 92 1 26 0;
#X connect 92 2 28 0;
#X connect 92 3 30 0;
#X connect 92 4 32 0;
#X connect 92 5 34 0;
#X connect 92 6 36 0;
#X connect 92 7 38 0;
#X connect 92 8 40 0;
#X connect 92 9 42 0;
#X connect 92 10 44 0;
#X connect 92 11 46 0;
#X connect 92 12 48 0;
#X connect 92 13 50 0;
#X connect 92 14 52 0;
#X connect 92 15 54 0;
#X connect 93 0 120 0;
#X connect 94 0 120 0;
#X connect 95 0 120 0;
#X connect 96 0 120 0;
#X connect 97 0 120 0;
#X connect 98 0 170 0;
#X connect 98 0 203 0;
#X connect 99 0 120 0;
#X connect 100 0 170 0;
#X connect 100 0 202 0;
#X connect 101 0 120 0;
#X connect 102 0 170 0;
#X connect 102 0 201 0;
#X connect 103 0 120 0;
#X connect 104 0 170 0;
#X connect 104 0 200 0;
#X connect 105 0 120 0;
#X connect 106 0 170 0;
#X connect 106 0 199 0;
#X connect 107 0 120 0;
#X connect 108 0 170 0;
#X connect 108 0 198 0;
#X connect 109 0 120 0;
#X connect 110 0 170 0;
#X connect 110 0 197 0;
#X connect 111 0 120 0;
#X connect 112 0 170 0;
#X connect 112 0 196 0;
#X connect 113 0 120 0;
#X connect 114 0 170 0;
#X connect 114 0 195 0;
#X connect 115 0 120 0;
#X connect 116 0 170 0;
#X connect 116 0 194 0;
#X connect 117 0 120 0;
#X connect 118 0 170 0;
#X connect 118 0 193 0;
#X connect 119 0 120 0;
#X connect 120 0 176 0;
#X connect 121 0 210 1;
#X connect 122 0 211 1;
#X connect 123 0 212 1;
#X connect 124 0 213 1;
#X connect 125 0 214 1;
#X connect 126 0 98 1;
#X connect 127 0 100 1;
#X connect 128 0 102 1;
#X connect 129 0 104 1;
#X connect 130 0 106 1;
#X connect 131 0 108 1;
#X connect 132 0 110 1;
#X connect 133 0 112 1;
#X connect 134 0 114 1;
#X connect 135 0 116 1;
#X connect 136 0 118 1;
#X connect 137 0 208 1;
#X connect 138 0 207 1;
#X connect 139 0 206 1;
#X connect 140 0 205 1;
#X connect 141 0 204 1;
#X connect 142 0 203 1;
#X connect 143 0 202 1;
#X connect 144 0 201 1;
#X connect 145 0 200 1;
#X connect 146 0 199 1;
#X connect 147 0 198 1;
#X connect 148 0 197 1;
#X connect 149 0 196 1;
#X connect 150 0 195 1;
#X connect 151 0 194 1;
#X connect 152 0 193 1;
#X connect 153 0 137 0;
#X connect 153 0 138 0;
#X connect 153 0 139 0;
#X connect 153 0 141 0;
#X connect 153 0 143 0;
#X connect 153 0 145 0;
#X connect 153 0 146 0;
#X connect 153 0 147 0;
#X connect 153 0 148 0;
#X connect 153 0 149 0;
#X connect 153 0 150 0;
#X connect 153 0 151 0;
#X connect 153 0 152 0;
#X connect 153 0 144 0;
#X connect 153 0 140 0;
#X connect 153 0 142 0;
#X connect 154 0 312 0;
#X connect 154 0 313 0;
#X connect 154 0 314 0;
#X connect 154 0 315 0;
#X connect 154 0 316 0;
#X connect 154 0 317 0;
#X connect 154 0 318 0;
#X connect 154 0 319 0;
#X connect 154 0 320 0;
#X connect 154 0 321 0;
#X connect 154 0 322 0;
#X connect 154 0 323 0;
#X connect 154 0 324 0;
#X connect 154 0 325 0;
#X connect 154 0 326 0;
#X connect 154 0 327 0;
#X connect 155 0 211 0;
#X connect 156 0 212 0;
#X connect 157 0 213 0;
#X connect 158 0 214 0;
#X connect 159 0 98 0;
#X connect 160 0 100 0;
#X connect 161 0 102 0;
#X connect 162 0 104 0;
#X connect 163 0 106 0;
#X connect 164 0 108 0;
#X connect 165 0 110 0;
#X connect 166 0 112 0;
#X connect 167 0 114 0;
#X connect 168 0 116 0;
#X connect 169 0 270 0;
#X connect 169 0 473 0;
#X connect 171 0 217 0;
#X connect 171 0 178 0;
#X connect 171 0 179 0;
#X connect 171 0 180 0;
#X connect 171 0 181 0;
#X connect 171 0 182 0;
#X connect 171 0 183 0;
#X connect 171 0 184 0;
#X connect 171 0 185 0;
#X connect 171 0 186 0;
#X connect 171 0 187 0;
#X connect 171 0 188 0;
#X connect 171 0 189 0;
#X connect 171 0 190 0;
#X connect 171 0 191 0;
#X connect 171 0 192 0;
#X connect 172 0 469 0;
#X connect 173 0 120 1;
#X connect 174 0 352 1;
#X connect 175 0 1 0;
#X connect 176 0 487 0;
#X connect 176 0 457 0;
#X connect 177 0 175 1;
#X connect 178 0 122 0;
#X connect 179 0 123 0;
#X connect 180 0 124 0;
#X connect 181 0 125 0;
#X connect 182 0 126 0;
#X connect 183 0 127 0;
#X connect 184 0 128 0;
#X connect 185 0 129 0;
#X connect 186 0 130 0;
#X connect 187 0 131 0;
#X connect 188 0 132 0;
#X connect 189 0 133 0;
#X connect 190 0 134 0;
#X connect 191 0 135 0;
#X connect 192 0 136 0;
#X connect 193 0 119 0;
#X connect 194 0 117 0;
#X connect 195 0 115 0;
#X connect 196 0 113 0;
#X connect 197 0 111 0;
#X connect 198 0 109 0;
#X connect 199 0 107 0;
#X connect 200 0 105 0;
#X connect 201 0 103 0;
#X connect 202 0 101 0;
#X connect 203 0 99 0;
#X connect 204 0 97 0;
#X connect 205 0 96 0;
#X connect 206 0 95 0;
#X connect 207 0 94 0;
#X connect 208 0 93 0;
#X connect 209 0 460 0;
#X connect 209 0 471 1;
#X connect 210 0 208 0;
#X connect 211 0 170 0;
#X connect 211 0 207 0;
#X connect 212 0 170 0;
#X connect 212 0 206 0;
#X connect 213 0 170 0;
#X connect 213 0 205 0;
#X connect 214 0 170 0;
#X connect 214 0 204 0;
#X connect 215 0 216 0;
#X connect 216 0 445 0;
#X connect 217 0 121 0;
#X connect 218 0 118 0;
#X connect 219 0 223 0;
#X connect 219 0 361 0;
#X connect 220 0 223 0;
#X connect 220 0 362 0;
#X connect 221 0 223 0;
#X connect 221 0 363 0;
#X connect 222 0 223 0;
#X connect 222 0 364 0;
#X connect 223 0 359 0;
#X connect 223 0 538 1;
#X connect 224 0 223 0;
#X connect 224 0 365 0;
#X connect 225 0 223 0;
#X connect 225 0 366 0;
#X connect 226 0 223 0;
#X connect 226 0 367 0;
#X connect 227 0 223 0;
#X connect 227 0 368 0;
#X connect 228 0 223 0;
#X connect 228 0 369 0;
#X connect 229 0 223 0;
#X connect 229 0 370 0;
#X connect 230 0 223 0;
#X connect 230 0 371 0;
#X connect 231 0 219 0;
#X connect 232 0 272 0;
#X connect 232 0 303 0;
#X connect 232 0 302 0;
#X connect 232 0 301 0;
#X connect 232 0 300 0;
#X connect 232 0 299 0;
#X connect 232 0 298 0;
#X connect 232 0 297 0;
#X connect 232 0 296 0;
#X connect 232 0 295 0;
#X connect 232 0 294 0;
#X connect 232 0 293 0;
#X connect 232 0 292 0;
#X connect 232 0 291 0;
#X connect 232 0 290 0;
#X connect 232 0 289 0;
#X connect 232 0 288 0;
#X connect 233 0 220 0;
#X connect 234 0 221 0;
#X connect 234 0 542 0;
#X connect 235 0 222 0;
#X connect 235 0 543 0;
#X connect 236 0 231 0;
#X connect 236 1 233 0;
#X connect 236 2 234 0;
#X connect 236 3 235 0;
#X connect 236 4 237 0;
#X connect 236 5 238 0;
#X connect 236 6 239 0;
#X connect 236 7 240 0;
#X connect 236 8 241 0;
#X connect 236 9 242 0;
#X connect 236 10 243 0;
#X connect 236 11 244 0;
#X connect 236 12 245 0;
#X connect 236 13 246 0;
#X connect 236 14 247 0;
#X connect 236 15 248 0;
#X connect 237 0 224 0;
#X connect 238 0 225 0;
#X connect 239 0 226 0;
#X connect 240 0 227 0;
#X connect 241 0 228 0;
#X connect 242 0 229 0;
#X connect 243 0 230 0;
#X connect 244 0 249 0;
#X connect 245 0 250 0;
#X connect 246 0 251 0;
#X connect 247 0 252 0;
#X connect 248 0 253 0;
#X connect 249 0 223 0;
#X connect 249 0 372 0;
#X connect 250 0 223 0;
#X connect 250 0 373 0;
#X connect 251 0 223 0;
#X connect 251 0 374 0;
#X connect 252 0 223 0;
#X connect 252 0 375 0;
#X connect 253 0 223 0;
#X connect 253 0 376 0;
#X connect 254 0 409 0;
#X connect 255 0 410 0;
#X connect 256 0 411 0;
#X connect 257 0 412 0;
#X connect 258 0 413 0;
#X connect 259 0 414 0;
#X connect 260 0 415 0;
#X connect 261 0 416 0;
#X connect 262 0 417 0;
#X connect 263 0 418 0;
#X connect 264 0 419 0;
#X connect 265 0 420 0;
#X connect 266 0 421 0;
#X connect 267 0 422 0;
#X connect 268 0 423 0;
#X connect 269 0 424 0;
#X connect 270 0 153 0;
#X connect 271 0 215 1;
#X connect 272 0 219 0;
#X connect 272 0 220 0;
#X connect 272 0 221 0;
#X connect 272 0 224 0;
#X connect 272 0 225 0;
#X connect 272 0 222 0;
#X connect 272 0 226 0;
#X connect 272 0 227 0;
#X connect 272 0 228 0;
#X connect 272 0 229 0;
#X connect 272 0 230 0;
#X connect 272 0 249 0;
#X connect 272 0 250 0;
#X connect 272 0 251 0;
#X connect 272 0 252 0;
#X connect 272 0 253 0;
#X connect 273 0 235 1;
#X connect 274 0 237 1;
#X connect 274 0 544 0;
#X connect 275 0 238 1;
#X connect 275 0 545 0;
#X connect 276 0 239 1;
#X connect 276 0 546 0;
#X connect 277 0 240 1;
#X connect 277 0 547 0;
#X connect 278 0 241 1;
#X connect 278 0 548 0;
#X connect 279 0 242 1;
#X connect 279 0 549 0;
#X connect 280 0 243 1;
#X connect 280 0 550 0;
#X connect 281 0 244 1;
#X connect 281 0 551 0;
#X connect 282 0 245 1;
#X connect 282 0 552 0;
#X connect 283 0 246 1;
#X connect 283 0 553 0;
#X connect 284 0 247 1;
#X connect 284 0 554 0;
#X connect 285 0 248 1;
#X connect 285 0 539 0;
#X connect 286 0 234 1;
#X connect 287 0 233 1;
#X connect 287 0 541 0;
#X connect 288 0 529 0;
#X connect 289 0 287 0;
#X connect 290 0 286 0;
#X connect 291 0 273 0;
#X connect 292 0 274 0;
#X connect 293 0 275 0;
#X connect 294 0 276 0;
#X connect 295 0 277 0;
#X connect 296 0 278 0;
#X connect 297 0 279 0;
#X connect 298 0 280 0;
#X connect 299 0 281 0;
#X connect 300 0 282 0;
#X connect 301 0 283 0;
#X connect 302 0 284 0;
#X connect 303 0 285 0;
#X connect 304 0 210 0;
#X connect 305 0 311 0;
#X connect 305 1 466 0;
#X connect 306 0 345 0;
#X connect 307 0 308 0;
#X connect 307 0 310 0;
#X connect 308 0 307 1;
#X connect 309 0 308 1;
#X connect 310 0 344 0;
#X connect 311 0 444 0;
#X connect 311 0 467 0;
#X connect 312 0 304 0;
#X connect 313 0 155 0;
#X connect 314 0 156 0;
#X connect 315 0 157 0;
#X connect 316 0 158 0;
#X connect 317 0 159 0;
#X connect 318 0 160 0;
#X connect 319 0 161 0;
#X connect 320 0 162 0;
#X connect 321 0 163 0;
#X connect 322 0 164 0;
#X connect 323 0 165 0;
#X connect 324 0 166 0;
#X connect 325 0 167 0;
#X connect 326 0 168 0;
#X connect 327 0 218 0;
#X connect 343 0 2 0;
#X connect 343 0 532 0;
#X connect 344 0 347 0;
#X connect 345 0 351 0;
#X connect 346 0 449 0;
#X connect 347 0 348 0;
#X connect 348 0 349 0;
#X connect 348 0 530 0;
#X connect 349 0 350 0;
#X connect 349 0 352 0;
#X connect 350 0 349 1;
#X connect 351 0 310 1;
#X connect 352 0 442 0;
#X connect 353 0 504 0;
#X connect 353 0 563 1;
#X connect 354 0 306 0;
#X connect 355 0 174 0;
#X connect 356 0 209 1;
#X connect 356 0 172 1;
#X connect 356 0 487 1;
#X connect 358 0 175 1;
#X connect 377 0 303 0;
#X connect 378 0 302 0;
#X connect 379 0 301 0;
#X connect 380 0 300 0;
#X connect 381 0 299 0;
#X connect 382 0 288 0;
#X connect 383 0 289 0;
#X connect 384 0 290 0;
#X connect 385 0 291 0;
#X connect 386 0 292 0;
#X connect 387 0 293 0;
#X connect 388 0 294 0;
#X connect 389 0 295 0;
#X connect 390 0 296 0;
#X connect 391 0 297 0;
#X connect 392 0 298 0;
#X connect 393 0 288 0;
#X connect 394 0 289 0;
#X connect 395 0 290 0;
#X connect 396 0 291 0;
#X connect 397 0 292 0;
#X connect 398 0 293 0;
#X connect 399 0 294 0;
#X connect 400 0 295 0;
#X connect 401 0 296 0;
#X connect 402 0 297 0;
#X connect 403 0 298 0;
#X connect 404 0 299 0;
#X connect 405 0 300 0;
#X connect 406 0 301 0;
#X connect 407 0 302 0;
#X connect 408 0 303 0;
#X connect 425 0 152 0;
#X connect 426 0 151 0;
#X connect 427 0 150 0;
#X connect 428 0 149 0;
#X connect 429 0 148 0;
#X connect 430 0 147 0;
#X connect 431 0 146 0;
#X connect 432 0 145 0;
#X connect 433 0 144 0;
#X connect 434 0 143 0;
#X connect 435 0 142 0;
#X connect 436 0 141 0;
#X connect 437 0 140 0;
#X connect 438 0 139 0;
#X connect 439 0 138 0;
#X connect 440 0 137 0;
#X connect 441 0 528 0;
#X connect 442 0 456 0;
#X connect 443 0 456 1;
#X connect 444 0 467 1;
#X connect 444 0 506 1;
#X connect 445 0 441 0;
#X connect 446 0 462 0;
#X connect 446 0 556 0;
#X connect 447 0 23 0;
#X connect 449 0 4 0;
#X connect 450 0 452 0;
#X connect 451 0 559 1;
#X connect 452 0 560 0;
#X connect 453 0 451 0;
#X connect 454 0 236 0;
#X connect 454 0 6 0;
#X connect 454 0 92 0;
#X connect 454 0 357 0;
#X connect 455 0 454 0;
#X connect 455 0 505 0;
#X connect 456 0 172 0;
#X connect 457 0 534 0;
#X connect 458 0 307 0;
#X connect 459 0 465 1;
#X connect 459 0 457 1;
#X connect 459 0 535 0;
#X connect 460 0 472 0;
#X connect 462 0 154 0;
#X connect 463 0 506 0;
#X connect 465 0 446 0;
#X connect 466 0 443 1;
#X connect 466 0 486 1;
#X connect 466 0 463 0;
#X connect 466 0 465 1;
#X connect 467 0 443 0;
#X connect 467 0 465 0;
#X connect 469 0 154 0;
#X connect 469 0 470 0;
#X connect 470 0 484 0;
#X connect 470 0 485 0;
#X connect 471 0 215 0;
#X connect 472 0 328 0;
#X connect 472 0 329 0;
#X connect 472 0 342 0;
#X connect 472 0 330 0;
#X connect 472 0 331 0;
#X connect 472 0 332 0;
#X connect 472 0 333 0;
#X connect 472 0 334 0;
#X connect 472 0 335 0;
#X connect 472 0 336 0;
#X connect 472 0 337 0;
#X connect 472 0 338 0;
#X connect 472 0 339 0;
#X connect 472 0 340 0;
#X connect 472 0 341 0;
#X connect 472 0 461 0;
#X connect 473 0 460 0;
#X connect 474 0 482 0;
#X connect 474 0 485 1;
#X connect 475 0 477 0;
#X connect 476 0 489 0;
#X connect 477 0 478 0;
#X connect 478 0 476 1;
#X connect 479 0 476 1;
#X connect 480 0 556 0;
#X connect 481 0 556 0;
#X connect 482 0 483 0;
#X connect 483 0 484 1;
#X connect 484 0 480 0;
#X connect 485 0 486 0;
#X connect 486 0 481 0;
#X connect 487 0 471 0;
#X connect 488 0 484 1;
#X connect 489 0 563 0;
#X connect 490 0 29 0;
#X connect 491 0 31 0;
#X connect 492 0 33 0;
#X connect 493 0 35 0;
#X connect 494 0 37 0;
#X connect 495 0 39 0;
#X connect 496 0 41 0;
#X connect 497 0 43 0;
#X connect 498 0 45 0;
#X connect 499 0 47 0;
#X connect 500 0 49 0;
#X connect 501 0 51 0;
#X connect 502 0 53 0;
#X connect 503 0 55 0;
#X connect 504 0 89 0;
#X connect 507 0 561 0;
#X connect 507 1 561 1;
#X connect 508 0 515 0;
#X connect 508 1 509 0;
#X connect 509 0 516 0;
#X connect 510 0 517 0;
#X connect 511 0 512 0;
#X connect 511 0 521 1;
#X connect 511 0 522 1;
#X connect 512 0 513 0;
#X connect 513 0 507 0;
#X connect 514 0 510 1;
#X connect 515 0 514 0;
#X connect 516 0 510 0;
#X connect 517 0 518 0;
#X connect 517 0 521 0;
#X connect 518 0 519 0;
#X connect 519 0 520 0;
#X connect 520 0 522 0;
#X connect 521 0 561 0;
#X connect 522 0 452 0;
#X connect 523 0 561 0;
#X connect 524 0 27 0;
#X connect 525 0 25 0;
#X connect 526 0 525 1;
#X connect 527 0 524 1;
#X connect 528 0 489 0;
#X connect 528 1 489 1;
#X connect 529 0 231 1;
#X connect 529 0 540 0;
#X connect 532 0 531 0;
#X connect 533 0 532 1;
#X connect 534 0 215 0;
#X connect 535 0 536 0;
#X connect 536 0 487 1;
#X connect 536 0 209 1;
#X connect 537 0 559 0;
#X connect 538 0 537 0;
#X connect 539 0 269 0;
#X connect 539 1 269 1;
#X connect 540 0 254 0;
#X connect 540 1 254 1;
#X connect 541 0 255 0;
#X connect 541 1 255 1;
#X connect 542 0 256 0;
#X connect 542 1 256 1;
#X connect 543 0 257 0;
#X connect 543 1 257 1;
#X connect 544 0 258 0;
#X connect 544 1 258 1;
#X connect 545 0 259 0;
#X connect 545 1 259 1;
#X connect 546 0 260 0;
#X connect 546 1 260 1;
#X connect 547 0 261 0;
#X connect 547 1 261 1;
#X connect 548 0 262 0;
#X connect 548 1 262 1;
#X connect 549 0 263 0;
#X connect 549 1 263 1;
#X connect 550 0 264 0;
#X connect 550 1 264 1;
#X connect 551 0 265 0;
#X connect 551 1 265 1;
#X connect 552 0 266 0;
#X connect 552 1 266 1;
#X connect 553 0 267 0;
#X connect 553 1 267 1;
#X connect 554 0 268 0;
#X connect 554 1 268 1;
#X connect 555 0 23 0;
#X connect 555 1 23 1;
#X connect 556 0 558 0;
#X connect 558 0 557 0;
#X connect 559 0 455 0;
#X connect 560 0 559 0;
#X connect 562 0 558 1;
#X connect 563 0 343 0;
#X connect 564 0 565 0;
#X connect 565 0 441 0;
#X connect 566 0 564 0;
