#N canvas 240 22 1440 922 12;
#X obj 45 321 nbx 5 14 -1e+37 1e+37 0 0 empty empty empty 0 -8 0 10
-262144 -1 -1 3 256;
#X obj 45 259 nbx 5 14 -1e+37 1e+37 0 0 empty empty empty 0 -8 0 10
-262144 -1 -1 819 256;
#X obj 42 207 inlet;
#X obj 281 683 line;
#X obj 320 887 outlet;
#X floatatom 346 631 5 0 0 0 - - -, f 5;
#X obj 281 654 pack \$1 \$2;
#X obj 158 401 outlet;
#X obj 903 17 inlet;
#X obj 954 18 inlet;
#X obj 1010 19 inlet;
#X obj 1100 19 inlet;
#X obj 1146 18 inlet;
#X obj 1192 18 inlet;
#X obj 1239 17 inlet;
#X obj 1363 21 inlet;
#X obj 1411 21 inlet;
#X obj 1467 21 inlet;
#X obj 1512 22 inlet;
#X obj 1630 27 inlet;
#X obj 1683 26 inlet;
#X obj 1729 27 inlet;
#X obj 1778 28 inlet;
#X obj 841 18 inlet;
#X obj 82 444 inlet;
#X floatatom 98 412 5 0 0 0 - - -, f 5;
#X floatatom 4885 739 5 0 0 0 - - -, f 5;
#X floatatom 4883 709 5 0 0 0 - - -, f 5;
#X obj 805 87 f;
#X obj 774 216 nbx 5 14 -1e+37 1e+37 0 0 empty empty empty 0 -8 0 10
-262144 -1 -1 0 256;
#X obj 863 87 f;
#X obj 845 216 nbx 5 14 -1e+37 1e+37 0 0 empty empty empty 0 -8 0 10
-262144 -1 -1 0 256;
#X obj 920 87 f;
#X obj 902 216 nbx 5 14 -1e+37 1e+37 0 0 empty empty empty 0 -8 0 10
-262144 -1 -1 0 256;
#X obj 978 87 f;
#X obj 961 215 nbx 5 14 -1e+37 1e+37 0 0 empty empty empty 0 -8 0 10
-262144 -1 -1 0 256;
#X obj 1054 88 f;
#X obj 1036 216 nbx 5 14 -1e+37 1e+37 0 0 empty empty empty 0 -8 0
10 -262144 -1 -1 0 256;
#X obj 1092 87 f;
#X obj 1094 216 nbx 5 14 -1e+37 1e+37 0 0 empty empty empty 0 -8 0
10 -262144 -1 -1 0 256;
#X obj 1149 87 f;
#X obj 1151 216 nbx 5 14 -1e+37 1e+37 0 0 empty empty empty 0 -8 0
10 -262144 -1 -1 0 256;
#X obj 1207 87 f;
#X obj 1209 216 nbx 5 14 -1e+37 1e+37 0 0 empty empty empty 0 -8 0
10 -262144 -1 -1 0 256;
#X obj 1320 87 f;
#X obj 1302 216 nbx 5 14 -1e+37 1e+37 0 0 empty empty empty 0 -8 0
10 -262144 -1 -1 0 256;
#X obj 1378 87 f;
#X obj 1360 216 nbx 5 14 -1e+37 1e+37 0 0 empty empty empty 0 -8 0
10 -262144 -1 -1 0 256;
#X obj 1435 87 f;
#X obj 1417 216 nbx 5 14 -1e+37 1e+37 0 0 empty empty empty 0 -8 0
10 -262144 -1 -1 0 256;
#X obj 1493 87 f;
#X obj 1475 216 nbx 5 14 -1e+37 1e+37 0 0 empty empty empty 0 -8 0
10 -262144 -1 -1 0 256;
#X obj 1603 87 f;
#X obj 1575 216 nbx 5 14 -1e+37 1e+37 0 0 empty empty empty 0 -8 0
10 -262144 -1 -1 0 256;
#X obj 1646 87 f;
#X obj 1633 216 nbx 5 14 -1e+37 1e+37 0 0 empty empty empty 0 -8 0
10 -262144 -1 -1 0 256;
#X obj 1710 87 f;
#X obj 1690 216 nbx 5 14 -1e+37 1e+37 0 0 empty empty empty 0 -8 0
10 -262144 -1 -1 0 256;
#X obj 1779 87 f;
#X obj 1748 216 nbx 5 14 -1e+37 1e+37 0 0 empty empty empty 0 -8 0
10 -262144 -1 -1 0 256;
#X obj 802 59 nbx 5 14 -1e+37 1e+37 0 0 empty empty empty 0 -8 0 10
-262144 -1 -1 0 256;
#X obj 860 59 nbx 5 14 -1e+37 1e+37 0 0 empty empty empty 0 -8 0 10
-262144 -1 -1 0 256;
#X obj 917 59 nbx 5 14 -1e+37 1e+37 0 0 empty empty empty 0 -8 0 10
-262144 -1 -1 0 256;
#X obj 975 59 nbx 5 14 -1e+37 1e+37 0 0 empty empty empty 0 -8 0 10
-262144 -1 -1 0 256;
#X obj 1071 59 nbx 5 14 -1e+37 1e+37 0 0 empty empty empty 0 -8 0 10
-262144 -1 -1 0 256;
#X obj 1131 59 nbx 5 14 -1e+37 1e+37 0 0 empty empty empty 0 -8 0 10
-262144 -1 -1 0 256;
#X obj 1189 59 nbx 5 14 -1e+37 1e+37 0 0 empty empty empty 0 -8 0 10
-262144 -1 -1 0 256;
#X obj 1246 59 nbx 5 14 -1e+37 1e+37 0 0 empty empty empty 0 -8 0 10
-262144 -1 -1 0 256;
#X obj 1334 59 nbx 5 14 -1e+37 1e+37 0 0 empty empty empty 0 -8 0 10
-262144 -1 -1 0 256;
#X obj 1390 59 nbx 5 14 -1e+37 1e+37 0 0 empty empty empty 0 -8 0 10
-262144 -1 -1 0 256;
#X obj 1449 59 nbx 5 14 -1e+37 1e+37 0 0 empty empty empty 0 -8 0 10
-262144 -1 -1 0 256;
#X obj 1507 59 nbx 5 14 -1e+37 1e+37 0 0 empty empty empty 0 -8 0 10
-262144 -1 -1 0 256;
#X obj 1611 59 nbx 5 14 -1e+37 1e+37 0 0 empty empty empty 0 -8 0 10
-262144 -1 -1 0 256;
#X obj 1672 59 nbx 5 14 -1e+37 1e+37 0 0 empty empty empty 0 -8 0 10
-262144 -1 -1 0 256;
#X obj 1728 59 nbx 5 14 -1e+37 1e+37 0 0 empty empty empty 0 -8 0 10
-262144 -1 -1 0 256;
#X obj 1788 59 nbx 5 14 -1e+37 1e+37 0 0 empty empty empty 0 -8 0 10
-262144 -1 -1 0 256;
#X floatatom 806 146 5 0 0 0 - - -, f 5;
#X floatatom 864 146 5 0 0 0 - - -, f 5;
#X floatatom 920 147 5 0 0 0 - - -, f 5;
#X floatatom 978 147 5 0 0 0 - - -, f 5;
#X floatatom 1037 149 5 0 0 0 - - -, f 5;
#X floatatom 1095 149 5 0 0 0 - - -, f 5;
#X floatatom 1151 150 5 0 0 0 - - -, f 5;
#X floatatom 1209 150 5 0 0 0 - - -, f 5;
#X floatatom 1302 150 5 0 0 0 - - -, f 5;
#X floatatom 1360 150 5 0 0 0 - - -, f 5;
#X floatatom 1416 151 5 0 0 0 - - -, f 5;
#X floatatom 1474 151 5 0 0 0 - - -, f 5;
#X floatatom 1577 153 5 0 0 0 - - -, f 5;
#X floatatom 1635 153 5 0 0 0 - - -, f 5;
#X floatatom 1691 154 5 0 0 0 - - -, f 5;
#X floatatom 1749 154 5 0 0 0 - - -, f 5;
#X msg 1874 133 1;
#X obj 1871 101 r lo;
#X floatatom 1833 134 5 0 0 0 - - -, f 5;
#X floatatom 730 136 5 0 0 0 - - -, f 5;
#X obj 728 108 * 1;
#X floatatom 760 591 5 0 0 0 - - -, f 5;
#X floatatom 828 593 5 0 0 0 - - -, f 5;
#X floatatom 892 589 5 0 0 0 - - -, f 5;
#X floatatom 956 591 5 0 0 0 - - -, f 5;
#X floatatom 706 605 5 0 0 0 - - -, f 5;
#X floatatom 1038 589 5 0 0 0 - - -, f 5;
#X floatatom 1093 590 5 0 0 0 - - -, f 5;
#X floatatom 1153 591 5 0 0 0 - - -, f 5;
#X floatatom 1209 591 5 0 0 0 - - -, f 5;
#X floatatom 1312 592 5 0 0 0 - - -, f 5;
#X floatatom 1363 590 5 0 0 0 - - -, f 5;
#X floatatom 1419 591 5 0 0 0 - - -, f 5;
#X obj 745 515 f;
#X obj 1839 377 r lo;
#X obj 818 515 f;
#X obj 872 515 f;
#X obj 941 515 f;
#X obj 1005 515 f;
#X obj 1063 515 f;
#X obj 1117 515 f;
#X obj 1180 515 f;
#X obj 1306 515 f;
#X obj 1359 515 f;
#X obj 1429 515 f;
#X obj 1496 515 f;
#X obj 1562 515 f;
#X obj 1603 515 f;
#X obj 1652 515 f;
#X obj 1716 515 f;
#X floatatom 1478 593 5 0 0 0 - - -, f 5;
#X floatatom 1584 593 5 0 0 0 - - -, f 5;
#X floatatom 1637 594 5 0 0 0 - - -, f 5;
#X floatatom 1695 592 5 0 0 0 - - -, f 5;
#X floatatom 1750 594 5 0 0 0 - - -, f 5;
#X obj 760 312 *;
#X obj 826 308 *;
#X obj 889 306 *;
#X obj 948 306 *;
#X obj 1039 306 *;
#X obj 1095 306 *;
#X obj 1150 306 *;
#X obj 1205 306 *;
#X obj 1277 306 *;
#X obj 1343 306 *;
#X obj 1401 306 *;
#X obj 1462 306 *;
#X obj 1584 304 *;
#X obj 1631 304 *;
#X obj 1696 302 *;
#X obj 1752 302 *;
#X obj 141 461 r lo;
#X msg 1812 571 1;
#X obj 948 465 * 1;
#X obj 1030 466 * 1;
#X obj 1088 466 * 1;
#X obj 1159 466 * 1;
#X obj 1216 465 * 1;
#X obj 1296 466 * 1;
#X obj 1344 466 * 1;
#X obj 1421 466 * 1;
#X obj 1477 467 * 1;
#X obj 1570 466 * 1;
#X obj 1630 466 * 1;
#X obj 1677 466 * 1;
#X obj 1723 471 * 1;
#X obj 906 466 * 1;
#X obj 849 466 * 1;
#X obj 791 466 * 1;
#X obj 756 399 tgl 15 0 empty empty empty 17 7 0 10 -262144 -1 -1 1
1;
#X obj 808 399 tgl 15 0 empty empty empty 17 7 0 10 -262144 -1 -1 1
1;
#X obj 863 399 tgl 15 0 empty empty empty 17 7 0 10 -262144 -1 -1 1
1;
#X obj 922 399 tgl 15 0 empty empty empty 17 7 0 10 -262144 -1 -1 1
1;
#X obj 1029 399 tgl 15 0 empty empty empty 17 7 0 10 -262144 -1 -1
1 1;
#X obj 1085 399 tgl 15 0 empty empty empty 17 7 0 10 -262144 -1 -1
1 1;
#X obj 1151 399 tgl 15 0 empty empty empty 17 7 0 10 -262144 -1 -1
1 1;
#X obj 1210 398 tgl 15 0 empty empty empty 17 7 0 10 -262144 -1 -1
1 1;
#X obj 1282 399 tgl 15 0 empty empty empty 17 7 0 10 -262144 -1 -1
1 1;
#X obj 1353 398 tgl 15 0 empty empty empty 17 7 0 10 -262144 -1 -1
1 1;
#X obj 1425 397 tgl 15 0 empty empty empty 17 7 0 10 -262144 -1 -1
1 1;
#X obj 1480 395 tgl 15 0 empty empty empty 17 7 0 10 -262144 -1 -1
1 1;
#X obj 1567 398 tgl 15 0 empty empty empty 17 7 0 10 -262144 -1 -1
1 1;
#X obj 1627 399 tgl 15 0 empty empty empty 17 7 0 10 -262144 -1 -1
1 1;
#X obj 1683 397 tgl 15 0 empty empty empty 17 7 0 10 -262144 -1 -1
1 1;
#X obj 1741 395 tgl 15 0 empty empty empty 17 7 0 10 -262144 -1 -1
1 1;
#X text 481 -527 moins vite que son maitre;
#X floatatom 174 -48 5 0 0 0 - - -, f 5;
#X obj 300 -94 inlet;
#X obj 385 753 inlet;
#X floatatom 332 781 5 0 0 0 - - -, f 5;
#X obj 282 796 + 0;
#X floatatom 281 852 5 0 0 0 - - -, f 5;
#X obj 746 666 s sof32;
#X obj 810 666 s sof33;
#X obj 872 666 s sof34;
#X obj 941 666 s sof35;
#X obj 1031 668 s sof36;
#X obj 1099 668 s sof37;
#X obj 1167 668 s sof38;
#X obj 1233 668 s sof39;
#X obj 1321 671 s sof40;
#X obj 1387 671 s sof41;
#X obj 1451 671 s sof42;
#X obj 1518 671 s sof43;
#X obj 1617 667 s sof44;
#X obj 1688 667 s sof45;
#X obj 1757 667 s sof46;
#X obj 1827 667 s sof47;
#X obj 682 630 s trgrB;
#X obj 754 424 onoff32;
#X obj 817 424 onoff33;
#X obj 877 424 onoff34;
#X obj 937 424 onoff35;
#X obj 1007 424 onoff36;
#X obj 1069 424 onoff37;
#X obj 1130 423 onoff38;
#X obj 1193 424 onoff39;
#X obj 1283 421 onoff40;
#X obj 1349 421 onoff41;
#X obj 1411 420 onoff42;
#X obj 1475 419 onoff43;
#X obj 1549 424 onoff44;
#X obj 1615 424 onoff45;
#X obj 1689 424 onoff46;
#X obj 1752 424 onoff47;
#X obj 1839 377 r lo;
#X obj 757 371 r of32;
#X obj 812 371 r of33;
#X obj 862 371 r of34;
#X obj 921 371 r of35;
#X obj 1026 371 r of36;
#X obj 1081 371 r of37;
#X obj 1139 371 r of38;
#X obj 1195 370 r of39;
#X obj 1280 370 r of40;
#X obj 1347 370 r of41;
#X obj 1411 369 r of42;
#X obj 1476 371 r of43;
#X obj 1565 370 r of44;
#X obj 1629 368 r of45;
#X obj 1687 366 r of46;
#X obj 1748 366 r of47;
#X obj 1039 338 out36;
#X obj 1095 338 out37;
#X obj 1150 337 out38;
#X obj 1205 338 out39;
#X obj 1279 338 out40;
#X obj 1401 338 out42;
#X obj 1341 338 out41;
#X obj 1462 338 out43;
#X obj 1584 336 out44;
#X obj 1631 336 out45;
#X obj 1696 334 out46;
#X obj 1752 334 out47;
#X obj 889 338 out34;
#X obj 829 338 out33;
#X obj 948 338 out35;
#X obj 190 -25 s float111;
#X obj 141 580 r T1;
#X obj 192 650 s R1;
#X obj 756 338 out32;
#X obj 330 808 * 1;
#X obj 788 183 +;
#X obj 846 183 +;
#X obj 903 184 +;
#X obj 960 184 +;
#X obj 1039 186 +;
#X obj 1097 186 +;
#X obj 1153 187 +;
#X obj 1211 187 +;
#X obj 1304 187 +;
#X obj 1362 187 +;
#X obj 1418 188 +;
#X obj 1476 188 +;
#X obj 1579 190 +;
#X obj 1638 190 +;
#X obj 1693 191 +;
#X obj 1751 191 +;
#X obj 282 821 + 0;
#X obj 767 271 t b f;
#X obj 817 271 t b f;
#X obj 877 271 t b f;
#X obj 937 271 t b f;
#X obj 1017 271 t b f;
#X obj 1076 271 t b f;
#X obj 1128 271 t b f;
#X obj 1190 271 t b f;
#X obj 1293 270 t b f;
#X obj 1352 270 t b f;
#X obj 1412 271 t b f;
#X obj 1472 270 t b f;
#X obj 1567 266 t b f;
#X obj 1617 266 t b f;
#X obj 1670 267 t b f;
#X obj 1743 267 t b f;
#X obj 180 609 * 1;
#X obj 261 550 * 1;
#X msg 385 546 0;
#X obj 301 544 r odoffB;
#X obj 179 580 t b f;
#X obj 302 65 select 0 1 2 3 4 5 6 7 8 9 10 11 12 13 14 15;
#X obj 346 490 select 0 1 2 3 4 5 6 7 8 9 10 11 12 13 14 15;
#X obj 45 287 mod 16;
#X floatatom -917 -573 5 0 0 0 - - -, f 5;
#X floatatom -907 -573 5 0 0 0 - - -, f 5;
#X obj 201 317 s mod111;
#X obj -10 241 + 1;
#X obj 145 321 nbx 5 14 -1e+37 1e+37 0 0 empty empty empty 0 -8 0 10
-262144 -1 -1 3 256;
#X obj 145 259 nbx 5 14 -1e+37 1e+37 0 0 empty empty empty 0 -8 0 10
-262144 -1 -1 819 256;
#X obj 145 287 mod 12;
#X connect 0 0 7 0;
#X connect 0 0 297 0;
#X connect 0 0 296 0;
#X connect 1 0 298 0;
#X connect 2 0 304 0;
#X connect 2 0 1 0;
#X connect 3 0 186 0;
#X connect 5 0 6 1;
#X connect 6 0 3 0;
#X connect 8 0 61 0;
#X connect 9 0 62 0;
#X connect 10 0 63 0;
#X connect 11 0 64 0;
#X connect 12 0 65 0;
#X connect 13 0 66 0;
#X connect 14 0 67 0;
#X connect 15 0 68 0;
#X connect 16 0 69 0;
#X connect 17 0 70 0;
#X connect 18 0 71 0;
#X connect 19 0 72 0;
#X connect 20 0 73 0;
#X connect 21 0 74 0;
#X connect 22 0 75 0;
#X connect 23 0 60 0;
#X connect 24 0 25 0;
#X connect 25 0 298 1;
#X connect 25 0 305 1;
#X connect 28 0 96 0;
#X connect 28 0 258 0;
#X connect 29 0 131 0;
#X connect 30 0 96 0;
#X connect 30 0 259 0;
#X connect 31 0 132 0;
#X connect 32 0 96 0;
#X connect 32 0 260 0;
#X connect 33 0 133 0;
#X connect 34 0 96 0;
#X connect 34 0 261 0;
#X connect 35 0 134 0;
#X connect 36 0 96 0;
#X connect 36 0 262 0;
#X connect 37 0 135 0;
#X connect 38 0 96 0;
#X connect 38 0 263 0;
#X connect 39 0 136 0;
#X connect 40 0 96 0;
#X connect 40 0 264 0;
#X connect 41 0 137 0;
#X connect 42 0 96 0;
#X connect 42 0 265 0;
#X connect 43 0 138 0;
#X connect 44 0 96 0;
#X connect 44 0 266 0;
#X connect 45 0 139 0;
#X connect 46 0 96 0;
#X connect 46 0 267 0;
#X connect 47 0 140 0;
#X connect 48 0 96 0;
#X connect 48 0 268 0;
#X connect 49 0 141 0;
#X connect 50 0 96 0;
#X connect 50 0 269 0;
#X connect 51 0 142 0;
#X connect 52 0 96 0;
#X connect 52 0 270 0;
#X connect 53 0 143 0;
#X connect 54 0 96 0;
#X connect 54 0 271 0;
#X connect 55 0 144 0;
#X connect 56 0 96 0;
#X connect 56 0 272 0;
#X connect 57 0 145 0;
#X connect 58 0 96 0;
#X connect 58 0 273 0;
#X connect 59 0 146 0;
#X connect 60 0 28 1;
#X connect 61 0 30 1;
#X connect 62 0 32 1;
#X connect 63 0 34 1;
#X connect 64 0 36 1;
#X connect 65 0 38 1;
#X connect 66 0 40 1;
#X connect 67 0 42 1;
#X connect 68 0 44 1;
#X connect 69 0 46 1;
#X connect 70 0 48 1;
#X connect 71 0 50 1;
#X connect 72 0 52 1;
#X connect 73 0 54 1;
#X connect 74 0 56 1;
#X connect 75 0 58 1;
#X connect 76 0 258 1;
#X connect 77 0 259 1;
#X connect 78 0 260 1;
#X connect 79 0 261 1;
#X connect 80 0 262 1;
#X connect 81 0 263 1;
#X connect 82 0 264 1;
#X connect 83 0 265 1;
#X connect 84 0 266 1;
#X connect 85 0 267 1;
#X connect 86 0 268 1;
#X connect 87 0 269 1;
#X connect 88 0 270 1;
#X connect 89 0 271 1;
#X connect 90 0 272 1;
#X connect 91 0 273 1;
#X connect 92 0 76 0;
#X connect 92 0 77 0;
#X connect 92 0 78 0;
#X connect 92 0 79 0;
#X connect 92 0 80 0;
#X connect 92 0 81 0;
#X connect 92 0 82 0;
#X connect 92 0 83 0;
#X connect 92 0 84 0;
#X connect 92 0 85 0;
#X connect 92 0 86 0;
#X connect 92 0 87 0;
#X connect 92 0 88 0;
#X connect 92 0 89 0;
#X connect 92 0 90 0;
#X connect 92 0 91 0;
#X connect 93 0 92 0;
#X connect 94 0 76 0;
#X connect 94 0 77 0;
#X connect 94 0 78 0;
#X connect 94 0 80 0;
#X connect 94 0 82 0;
#X connect 94 0 84 0;
#X connect 94 0 85 0;
#X connect 94 0 86 0;
#X connect 94 0 87 0;
#X connect 94 0 88 0;
#X connect 94 0 89 0;
#X connect 94 0 90 0;
#X connect 94 0 91 0;
#X connect 94 0 83 0;
#X connect 94 0 81 0;
#X connect 94 0 79 0;
#X connect 95 0 292 0;
#X connect 96 0 95 0;
#X connect 97 0 101 0;
#X connect 97 0 188 0;
#X connect 98 0 101 0;
#X connect 98 0 189 0;
#X connect 99 0 101 0;
#X connect 99 0 190 0;
#X connect 100 0 101 0;
#X connect 100 0 191 0;
#X connect 101 0 204 0;
#X connect 102 0 101 0;
#X connect 102 0 192 0;
#X connect 103 0 101 0;
#X connect 103 0 193 0;
#X connect 104 0 101 0;
#X connect 104 0 194 0;
#X connect 105 0 101 0;
#X connect 105 0 195 0;
#X connect 106 0 101 0;
#X connect 106 0 196 0;
#X connect 107 0 101 0;
#X connect 107 0 197 0;
#X connect 108 0 101 0;
#X connect 108 0 198 0;
#X connect 109 0 97 0;
#X connect 110 0 148 0;
#X connect 110 0 179 0;
#X connect 110 0 178 0;
#X connect 110 0 177 0;
#X connect 110 0 176 0;
#X connect 110 0 175 0;
#X connect 110 0 174 0;
#X connect 110 0 173 0;
#X connect 110 0 172 0;
#X connect 110 0 171 0;
#X connect 110 0 170 0;
#X connect 110 0 169 0;
#X connect 110 0 168 0;
#X connect 110 0 167 0;
#X connect 110 0 166 0;
#X connect 110 0 165 0;
#X connect 110 0 180 0;
#X connect 111 0 98 0;
#X connect 112 0 99 0;
#X connect 113 0 100 0;
#X connect 114 0 102 0;
#X connect 115 0 103 0;
#X connect 116 0 104 0;
#X connect 117 0 105 0;
#X connect 118 0 106 0;
#X connect 119 0 107 0;
#X connect 120 0 108 0;
#X connect 121 0 126 0;
#X connect 122 0 127 0;
#X connect 123 0 128 0;
#X connect 124 0 129 0;
#X connect 125 0 130 0;
#X connect 126 0 101 0;
#X connect 126 0 199 0;
#X connect 127 0 101 0;
#X connect 127 0 200 0;
#X connect 128 0 101 0;
#X connect 128 0 201 0;
#X connect 129 0 101 0;
#X connect 129 0 202 0;
#X connect 130 0 101 0;
#X connect 130 0 203 0;
#X connect 131 0 256 0;
#X connect 132 0 251 0;
#X connect 133 0 250 0;
#X connect 134 0 252 0;
#X connect 135 0 238 0;
#X connect 136 0 239 0;
#X connect 137 0 240 0;
#X connect 138 0 241 0;
#X connect 139 0 242 0;
#X connect 140 0 244 0;
#X connect 141 0 243 0;
#X connect 142 0 245 0;
#X connect 143 0 246 0;
#X connect 144 0 247 0;
#X connect 145 0 248 0;
#X connect 146 0 249 0;
#X connect 147 0 25 0;
#X connect 148 0 97 0;
#X connect 148 0 98 0;
#X connect 148 0 99 0;
#X connect 148 0 102 0;
#X connect 148 0 103 0;
#X connect 148 0 100 0;
#X connect 148 0 104 0;
#X connect 148 0 105 0;
#X connect 148 0 106 0;
#X connect 148 0 107 0;
#X connect 148 0 108 0;
#X connect 148 0 126 0;
#X connect 148 0 127 0;
#X connect 148 0 128 0;
#X connect 148 0 129 0;
#X connect 148 0 130 0;
#X connect 149 0 113 1;
#X connect 149 0 134 1;
#X connect 149 0 278 0;
#X connect 150 0 114 1;
#X connect 150 0 279 0;
#X connect 151 0 115 1;
#X connect 151 0 280 0;
#X connect 152 0 116 1;
#X connect 152 0 281 0;
#X connect 153 0 117 1;
#X connect 153 0 282 0;
#X connect 154 0 118 1;
#X connect 154 0 283 0;
#X connect 155 0 119 1;
#X connect 155 0 284 0;
#X connect 156 0 120 1;
#X connect 156 0 285 0;
#X connect 157 0 121 1;
#X connect 157 0 286 0;
#X connect 158 0 122 1;
#X connect 158 0 287 0;
#X connect 159 0 123 1;
#X connect 159 0 288 0;
#X connect 160 0 124 1;
#X connect 160 0 289 0;
#X connect 161 0 125 1;
#X connect 161 0 290 0;
#X connect 162 0 112 1;
#X connect 162 0 277 0;
#X connect 163 0 111 1;
#X connect 163 0 276 0;
#X connect 164 0 109 1;
#X connect 164 0 275 0;
#X connect 165 0 164 0;
#X connect 166 0 163 0;
#X connect 167 0 162 0;
#X connect 168 0 149 0;
#X connect 169 0 150 0;
#X connect 170 0 151 0;
#X connect 171 0 152 0;
#X connect 172 0 153 0;
#X connect 173 0 154 0;
#X connect 174 0 155 0;
#X connect 175 0 156 0;
#X connect 176 0 157 0;
#X connect 177 0 158 0;
#X connect 178 0 159 0;
#X connect 179 0 160 0;
#X connect 180 0 161 0;
#X connect 182 0 253 0;
#X connect 182 0 295 0;
#X connect 183 0 182 0;
#X connect 184 0 185 0;
#X connect 185 0 257 0;
#X connect 185 0 274 1;
#X connect 186 0 274 0;
#X connect 187 0 4 0;
#X connect 205 0 165 0;
#X connect 206 0 166 0;
#X connect 207 0 167 0;
#X connect 208 0 168 0;
#X connect 209 0 169 0;
#X connect 210 0 170 0;
#X connect 211 0 171 0;
#X connect 212 0 172 0;
#X connect 213 0 173 0;
#X connect 214 0 174 0;
#X connect 215 0 175 0;
#X connect 216 0 176 0;
#X connect 217 0 177 0;
#X connect 218 0 178 0;
#X connect 219 0 179 0;
#X connect 220 0 180 0;
#X connect 222 0 165 0;
#X connect 223 0 166 0;
#X connect 224 0 167 0;
#X connect 225 0 168 0;
#X connect 226 0 169 0;
#X connect 227 0 170 0;
#X connect 228 0 171 0;
#X connect 229 0 172 0;
#X connect 230 0 173 0;
#X connect 231 0 174 0;
#X connect 232 0 175 0;
#X connect 233 0 176 0;
#X connect 234 0 177 0;
#X connect 235 0 178 0;
#X connect 236 0 179 0;
#X connect 237 0 180 0;
#X connect 254 0 291 0;
#X connect 257 0 94 0;
#X connect 258 0 29 0;
#X connect 259 0 31 0;
#X connect 260 0 33 0;
#X connect 261 0 35 0;
#X connect 262 0 37 0;
#X connect 263 0 39 0;
#X connect 264 0 41 0;
#X connect 265 0 43 0;
#X connect 266 0 45 0;
#X connect 267 0 47 0;
#X connect 268 0 49 0;
#X connect 269 0 51 0;
#X connect 270 0 53 0;
#X connect 271 0 55 0;
#X connect 272 0 57 0;
#X connect 273 0 59 0;
#X connect 274 0 187 0;
#X connect 275 0 131 0;
#X connect 275 1 131 1;
#X connect 276 0 132 0;
#X connect 276 1 132 1;
#X connect 277 0 133 0;
#X connect 277 1 133 1;
#X connect 278 0 134 0;
#X connect 278 1 134 1;
#X connect 279 0 135 0;
#X connect 279 1 135 1;
#X connect 280 0 136 0;
#X connect 280 1 136 1;
#X connect 281 0 137 0;
#X connect 281 1 137 1;
#X connect 282 0 138 0;
#X connect 282 1 138 1;
#X connect 283 0 139 0;
#X connect 283 1 139 1;
#X connect 284 0 140 0;
#X connect 284 1 140 1;
#X connect 285 0 141 0;
#X connect 285 1 141 1;
#X connect 286 0 142 0;
#X connect 286 1 142 1;
#X connect 287 0 143 0;
#X connect 287 1 143 1;
#X connect 288 0 144 0;
#X connect 288 1 144 1;
#X connect 289 0 145 0;
#X connect 289 1 145 1;
#X connect 290 0 146 0;
#X connect 290 1 146 1;
#X connect 291 0 255 0;
#X connect 291 0 5 0;
#X connect 292 0 6 0;
#X connect 293 0 5 0;
#X connect 293 0 6 0;
#X connect 294 0 292 1;
#X connect 294 0 293 0;
#X connect 295 0 291 0;
#X connect 295 1 291 1;
#X connect 296 0 28 0;
#X connect 296 1 30 0;
#X connect 296 2 32 0;
#X connect 296 3 34 0;
#X connect 296 4 36 0;
#X connect 296 5 38 0;
#X connect 296 6 40 0;
#X connect 296 7 42 0;
#X connect 296 8 44 0;
#X connect 296 9 46 0;
#X connect 296 10 48 0;
#X connect 296 11 50 0;
#X connect 296 12 52 0;
#X connect 296 13 54 0;
#X connect 296 14 56 0;
#X connect 296 15 58 0;
#X connect 297 0 109 0;
#X connect 297 1 111 0;
#X connect 297 2 112 0;
#X connect 297 3 113 0;
#X connect 297 4 114 0;
#X connect 297 5 115 0;
#X connect 297 6 116 0;
#X connect 297 7 117 0;
#X connect 297 8 118 0;
#X connect 297 9 119 0;
#X connect 297 10 120 0;
#X connect 297 11 121 0;
#X connect 297 12 122 0;
#X connect 297 13 123 0;
#X connect 297 14 124 0;
#X connect 297 15 125 0;
#X connect 298 0 0 0;
#X connect 302 0 1 0;
#X connect 303 0 301 0;
#X connect 304 0 305 0;
#X connect 305 0 303 0;
