#N canvas 554 22 560 396 10;
#X obj 41 116 bng 15 250 50 0 empty empty Random 0 -7 0 10 -262144
-1 -1;
#X msg 235 197 *-help.pd;
#X msg 252 222 ../*.*;
#X floatatom 174 301 5 0 0 3 number_of_files - -, f 5;
#X text 37 28 folder \; ------ \; Select a file from a folder with
a pattern \; Argument: \$1: folder and pattern (symbol);
#X text 320 225 All files in the parent folder;
#X text 221 143 Folder and pattern;
#X obj 41 301 print FILE;
#X floatatom 51 150 5 0 100 2 Select - -, f 5;
#X msg 224 167 data/*.wav;
#X text 318 198 All help files;
#X text 318 167 All soundfiles WAVE;
#X text 58 173 Pattern and random;
#X text 36 352 Dependency : [hcs/folder_list];
#X obj 41 239 folder data/*.aiff;
#X msg 61 192 data/*.aiff;
#X connect 0 0 14 0;
#X connect 1 0 14 1;
#X connect 2 0 14 1;
#X connect 8 0 14 0;
#X connect 9 0 14 1;
#X connect 14 0 7 0;
#X connect 14 1 3 0;
#X connect 15 0 14 0;
