#N canvas 256 222 1424 763 12;
#X obj -16821 -492 f;
#X obj -16763 -492 f;
#X obj -16706 -492 f;
#X obj -16648 -492 f;
#X obj -16522 -494 f;
#X obj -16413 -493 f;
#X obj -16355 -493 f;
#X obj -16186 -489 f;
#X obj -16128 -489 f;
#X obj -16071 -489 f;
#X obj -16013 -489 f;
#X obj -15899 -493 f;
#X obj -15856 -494 f;
#X obj -15792 -489 f;
#X obj -15693 -492 f;
#X obj -16780 -516 nbx 5 14 -1e+37 1e+37 0 0 empty empty empty 0 -8
0 10 -262144 -1 -1 1 256;
#X obj -16722 -516 nbx 5 14 -1e+37 1e+37 0 0 empty empty empty 0 -8
0 10 -262144 -1 -1 1 256;
#X obj -16665 -516 nbx 5 14 -1e+37 1e+37 0 0 empty empty empty 0 -8
0 10 -262144 -1 -1 1 256;
#X obj -16607 -516 nbx 5 14 -1e+37 1e+37 0 0 empty empty empty 0 -8
0 10 -262144 -1 -1 1 256;
#X obj -16513 -519 nbx 5 14 -1e+37 1e+37 0 0 empty empty empty 0 -8
0 10 -262144 -1 -1 1 256;
#X obj -16335 -519 nbx 5 14 -1e+37 1e+37 0 0 empty empty empty 0 -8
0 10 -262144 -1 -1 1 256;
#X obj -16172 -516 nbx 5 14 -1e+37 1e+37 0 0 empty empty empty 0 -8
0 10 -262144 -1 -1 1 256;
#X obj -16102 -516 nbx 5 14 -1e+37 1e+37 0 0 empty empty empty 0 -8
0 10 -262144 -1 -1 1 256;
#X obj -16033 -510 nbx 5 14 -1e+37 1e+37 0 0 empty empty empty 0 -8
0 10 -262144 -1 -1 1 256;
#X obj -15973 -513 nbx 5 14 -1e+37 1e+37 0 0 empty empty empty 0 -8
0 10 -262144 -1 -1 1 256;
#X obj -15619 -522 nbx 5 14 -1e+37 1e+37 0 0 empty empty empty 0 -8
0 10 -262144 -1 -1 1 256;
#X obj -15784 -522 nbx 5 14 -1e+37 1e+37 0 0 empty empty empty 0 -8
0 10 -262144 -1 -1 1 256;
#X obj -15718 -523 nbx 5 14 -1e+37 1e+37 0 0 empty empty empty 0 -8
0 10 -262144 -1 -1 1 256;
#X obj -15855 -523 nbx 5 14 -1e+37 1e+37 0 0 empty empty empty 0 -8
0 10 -262144 -1 -1 1 256;
#X floatatom -16931 -472 5 0 0 0 - - -, f 5;
#X obj -16797 -558 inlet;
#X obj -16726 -558 inlet;
#X obj -16499 -558 inlet;
#X obj -16453 -558 inlet;
#X obj -16404 -558 inlet;
#X obj -16342 -558 inlet;
#X obj -16187 -554 inlet;
#X obj -16137 -555 inlet;
#X obj -16076 -554 inlet;
#X obj -15733 -561 inlet;
#X obj -15860 -558 inlet;
#X obj -16413 -493 f;
#X obj -16398 -522 nbx 5 14 -1e+37 1e+37 0 0 empty empty empty 0 -8
0 10 -262144 -1 -1 1 256;
#X obj -16604 -558 inlet;
#X obj -16472 -492 f;
#X obj -16456 -520 nbx 5 14 -1e+37 1e+37 0 0 empty empty empty 0 -8
0 10 -262144 -1 -1 1 256;
#X obj -16655 -558 inlet;
#X obj -16503 -1106 tgl 15 0 empty empty empty 17 7 0 10 -262144 -1
-1 0 1;
#X obj -16504 -1046 bng 15 250 50 0 empty empty empty 17 7 0 10 -262144
-1 -1;
#X floatatom -16426 -1101 5 0 0 0 - - -, f 5;
#X obj -16497 -1080 metro 300;
#X obj -16498 -644 mod;
#X floatatom -16574 -660 5 0 0 0 - - -, f 5;
#X floatatom -16503 -609 5 0 0 0 - - -, f 5;
#X obj -15791 -558 inlet;
#X obj -15621 -558 inlet;
#X obj -16024 -552 inlet;
#X floatatom -16495 -680 5 0 0 0 - - -, f 5;
#X floatatom -16371 -922 5 0 0 0 - - -, f 5;
#X obj -16476 -794 sel 0 1;
#X obj -16496 -756 bng 15 250 50 0 empty empty empty 17 7 0 10 -262144
-1 -1;
#X obj -16198 -942 counter;
#X msg -16175 -1061 min \$1;
#X msg -16117 -1061 max \$1;
#X floatatom -16175 -1082 5 0 0 0 - - -, f 5;
#X floatatom -16117 -1083 5 0 0 0 - - -, f 5;
#X floatatom -16200 -890 5 0 0 0 - - -, f 5;
#X obj -16379 -664 f;
#X floatatom -16380 -639 5 0 0 0 - - -, f 5;
#X obj -16173 -1108 r lo;
#X obj -16852 -1103 inlet;
#X obj -16855 -1075 inlet;
#X obj -16953 -1055 inlet;
#X obj -16277 -644 outlet;
#X obj -16267 -601 outlet;
#X msg -16117 -1107 0;
#X obj -16200 -863 == 0;
#X floatatom -16371 -842 5 0 0 0 - - -, f 5;
#X obj -16460 -584 outlet;
#X obj -16462 -738 + 1;
#X obj -16371 -898 - 1;
#X obj -16445 -343 select 0 1 2 3 4 5 6 7 8 9 10 11 12 13 14 15;
#X obj -16498 -737 f;
#X connect 0 0 29 0;
#X connect 1 0 29 0;
#X connect 2 0 29 0;
#X connect 3 0 29 0;
#X connect 4 0 29 0;
#X connect 5 0 29 0;
#X connect 6 0 29 0;
#X connect 7 0 29 0;
#X connect 8 0 29 0;
#X connect 9 0 29 0;
#X connect 10 0 29 0;
#X connect 11 0 29 0;
#X connect 12 0 29 0;
#X connect 13 0 29 0;
#X connect 14 0 29 0;
#X connect 15 0 0 1;
#X connect 16 0 1 1;
#X connect 17 0 2 1;
#X connect 18 0 3 1;
#X connect 19 0 4 1;
#X connect 20 0 6 1;
#X connect 21 0 7 1;
#X connect 22 0 8 1;
#X connect 23 0 9 1;
#X connect 24 0 10 1;
#X connect 25 0 14 1;
#X connect 26 0 12 1;
#X connect 27 0 13 1;
#X connect 28 0 11 1;
#X connect 29 0 58 0;
#X connect 29 0 74 0;
#X connect 30 0 15 0;
#X connect 31 0 16 0;
#X connect 32 0 19 0;
#X connect 33 0 45 0;
#X connect 34 0 42 0;
#X connect 35 0 20 0;
#X connect 36 0 21 0;
#X connect 37 0 22 0;
#X connect 38 0 23 0;
#X connect 39 0 27 0;
#X connect 40 0 28 0;
#X connect 42 0 5 1;
#X connect 43 0 18 0;
#X connect 44 0 29 0;
#X connect 45 0 44 1;
#X connect 46 0 17 0;
#X connect 47 0 50 0;
#X connect 48 0 61 0;
#X connect 48 0 67 0;
#X connect 49 0 50 1;
#X connect 50 0 48 0;
#X connect 51 0 53 0;
#X connect 52 0 51 1;
#X connect 53 0 78 0;
#X connect 53 0 81 0;
#X connect 54 0 26 0;
#X connect 55 0 25 0;
#X connect 56 0 24 0;
#X connect 57 0 51 0;
#X connect 57 0 67 1;
#X connect 58 0 80 0;
#X connect 59 1 60 0;
#X connect 60 0 82 0;
#X connect 61 0 66 0;
#X connect 62 0 61 0;
#X connect 63 0 61 0;
#X connect 64 0 62 0;
#X connect 65 0 63 0;
#X connect 66 0 76 0;
#X connect 67 0 68 0;
#X connect 68 0 73 0;
#X connect 69 0 75 0;
#X connect 70 0 47 0;
#X connect 71 0 48 0;
#X connect 72 0 52 0;
#X connect 75 0 65 0;
#X connect 76 0 77 0;
#X connect 77 0 59 0;
#X connect 79 0 82 1;
#X connect 80 0 65 0;
#X connect 81 0 0 0;
#X connect 81 1 1 0;
#X connect 81 2 2 0;
#X connect 81 3 3 0;
#X connect 81 4 4 0;
#X connect 81 5 44 0;
#X connect 81 6 5 0;
#X connect 81 7 6 0;
#X connect 81 8 7 0;
#X connect 81 9 8 0;
#X connect 81 10 9 0;
#X connect 81 11 10 0;
#X connect 81 12 11 0;
#X connect 81 13 12 0;
#X connect 81 14 13 0;
#X connect 81 15 14 0;
#X connect 82 0 57 0;
#X connect 82 0 79 0;
