#N canvas 184 429 879 573 10;
#X obj 35 425 s \$0canvas;
#X text 313 269 label-color;
#X msg 150 269 16;
#X floatatom 149 240 5 0 0 0 - - -, f 5;
#X msg 201 268 15;
#X msg 246 268 14;
#X msg 285 268 13;
#X msg 150 365 color \$1 \$2;
#X obj 150 201 moses 50;
#X obj 201 223 moses 70;
#X obj 246 245 moses 100;
#X obj 150 310 t f f;
#X obj 150 339 pack f f;
#X text 198 -67 vertical;
#X obj 85 233 * -1;
#X obj 73 158 t f f f;
#X obj 63 269 + 130;
#X floatatom 22 109 5 0 0 0 - - -, f 5;
#X floatatom 388 109 5 0 0 0 - - -, f 5;
#X msg 35 205 vis_size 10 \$1;
#X msg 57 304 pos 100 \$1;
#X obj 1 1 cnv 13 684 15 empty tsteu empty 20 12 0 14 -241291 -4034
0;
#X text 653 238 label-color;
#X msg 559 355 color \$1 \$2;
#X obj 562 300 t f f;
#X obj 559 329 pack f f;
#X obj 412 148 t f f f;
#X obj 374 415 s tsteu;
#X msg 374 195 vis_size \$1 10;
#X msg 396 294 pos 1 \$1;
#X floatatom 388 219 5 0 0 0 - - -, f 5;
#X floatatom 448 219 5 0 0 0 - - -, f 5;
#X msg 456 294 pos \$1 1;
#X floatatom 518 230 5 0 0 0 - - -, f 5;
#X obj 398 62 inlet;
#X floatatom 348 99 5 0 0 0 - - -, f 5;
#X obj 434 93 * 42.8;
#X connect 2 0 11 0;
#X connect 3 0 2 0;
#X connect 4 0 11 0;
#X connect 5 0 11 0;
#X connect 6 0 11 0;
#X connect 7 0 0 0;
#X connect 8 0 3 0;
#X connect 8 1 9 0;
#X connect 9 0 4 0;
#X connect 9 1 10 0;
#X connect 10 0 5 0;
#X connect 10 1 6 0;
#X connect 11 0 12 0;
#X connect 11 1 12 1;
#X connect 12 0 7 0;
#X connect 14 0 16 0;
#X connect 15 0 19 0;
#X connect 15 1 14 0;
#X connect 15 2 8 0;
#X connect 16 0 20 0;
#X connect 17 0 15 0;
#X connect 18 0 26 0;
#X connect 19 0 0 0;
#X connect 20 0 0 0;
#X connect 23 0 27 0;
#X connect 24 0 25 0;
#X connect 24 1 25 1;
#X connect 25 0 23 0;
#X connect 26 0 28 0;
#X connect 28 0 27 0;
#X connect 29 0 27 0;
#X connect 30 0 29 0;
#X connect 31 0 32 0;
#X connect 32 0 27 0;
#X connect 33 0 24 0;
#X connect 34 0 36 0;
#X connect 35 0 36 0;
#X connect 36 0 18 0;
#X coords 0 0 1 1 686 15 2 0 0;
