#N canvas 0 264 942 764 10;
#X floatatom 235 119 5 0 0 0 - - -, f 5;
#X obj 235 177 bng 15 250 50 0 empty empty empty 17 7 0 10 -262144
-1 -1;
#X obj 241 45 notein;
#X obj 316 438 outlet;
#X floatatom 303 176 5 0 0 0 - - -, f 5;
#X obj 514 122 r lo;
#X obj 307 382 spigot-toggle_orange;
#X obj 368 191 spigot-toggle_orange;
#X obj 524 339 tgl 15 0 empty empty empty 17 7 0 10 -262144 -1 -1 0
1;
#X obj 506 390 inlet;
#X obj 565 477 noteout;
#X floatatom 620 442 5 0 0 0 - - -, f 5;
#X obj 559 370 r lo;
#X obj 582 439 * 80;
#X obj 632 303 sel;
#X obj 275 198 float;
#X obj 321 210 + 1;
#X floatatom 258 341 5 0 0 0 - - -, f 5;
#X obj 278 283 sel 0;
#X obj 276 248 mod 2;
#X msg 253 314 1;
#X msg 290 313 0;
#X obj 369 224 float;
#X obj 415 236 + 1;
#X floatatom 376 354 5 0 0 0 - - -, f 5;
#X obj 371 285 sel 1 2 3;
#X obj 369 250 mod 4;
#X obj 505 446 - 1;
#X obj 507 476 * -1;
#X obj 369 384 spigot-toggle_orange;
#X msg 516 146 15;
#X obj 234 152 select 15;
#X msg 561 405 15;
#X obj 632 279 == 15;
#X msg 346 316 0;
#X msg 383 315 1;
#X msg 413 315 0;
#X msg 450 314 1;
#X connect 0 0 31 0;
#X connect 0 0 33 0;
#X connect 1 0 15 0;
#X connect 2 0 0 0;
#X connect 5 0 30 0;
#X connect 5 0 6 1;
#X connect 6 0 3 0;
#X connect 6 0 13 0;
#X connect 7 0 22 0;
#X connect 8 0 27 0;
#X connect 8 0 7 1;
#X connect 8 0 29 1;
#X connect 9 0 8 0;
#X connect 11 0 10 2;
#X connect 12 0 32 0;
#X connect 13 0 10 1;
#X connect 14 1 32 0;
#X connect 15 0 16 0;
#X connect 15 0 19 0;
#X connect 16 0 15 1;
#X connect 17 0 6 0;
#X connect 18 0 20 0;
#X connect 18 0 7 0;
#X connect 18 1 21 0;
#X connect 19 0 18 0;
#X connect 20 0 17 0;
#X connect 21 0 17 0;
#X connect 22 0 23 0;
#X connect 22 0 26 0;
#X connect 23 0 22 1;
#X connect 24 0 13 0;
#X connect 24 0 29 0;
#X connect 25 0 34 0;
#X connect 25 1 35 0;
#X connect 25 2 36 0;
#X connect 25 3 37 0;
#X connect 26 0 25 0;
#X connect 27 0 28 0;
#X connect 28 0 6 1;
#X connect 29 0 3 0;
#X connect 30 0 31 1;
#X connect 31 0 1 0;
#X connect 31 1 4 0;
#X connect 32 0 10 0;
#X connect 33 0 14 0;
#X connect 34 0 24 0;
#X connect 35 0 24 0;
#X connect 36 0 24 0;
#X connect 37 0 24 0;
