#N canvas 850 154 747 624 10;
#X floatatom 234 119 5 0 0 0 - - -, f 5;
#X obj 237 229 float;
#X obj 283 241 + 1;
#X obj 234 177 bng 15 250 50 0 empty empty empty 17 7 0 10 -262144
-1 -1;
#X obj 240 45 notein;
#X obj 211 391 outlet;
#X floatatom 302 176 5 0 0 0 - - -, f 5;
#X obj 326 127 r lo;
#X floatatom 216 344 5 0 0 0 - - -, f 5;
#X obj 234 251 mod 4;
#X obj 236 286 sel 0 1 2;
#X obj 578 532 noteout;
#X floatatom 701 490 5 0 0 0 - - -, f 5;
#X obj 511 457 r lo;
#X obj 215 77 spigot-toggle_red;
#X obj 15 59 r freestepsouts;
#X msg 210 317 1;
#X msg 321 316 0;
#X obj 603 457 * 300;
#X obj 671 414 * 300;
#X obj 147 219 float;
#X obj 193 231 + 1;
#X obj 144 241 mod 4;
#X msg 248 316 1;
#X msg 284 316 0;
#X msg 315 71 12;
#X msg 512 490 12;
#X obj 233 152 select 12;
#X obj 310 494 bng 15 250 50 0 empty empty empty 17 7 0 10 -262144
-1 -1;
#X obj 310 444 bng 15 250 50 0 empty empty empty 17 7 0 10 -262144
-1 -1;
#X connect 0 0 27 0;
#X connect 1 0 2 0;
#X connect 1 0 9 0;
#X connect 2 0 1 1;
#X connect 3 0 20 0;
#X connect 3 0 1 0;
#X connect 4 0 14 0;
#X connect 7 0 25 0;
#X connect 8 0 5 0;
#X connect 8 0 18 0;
#X connect 8 0 26 0;
#X connect 8 0 28 0;
#X connect 9 0 10 0;
#X connect 10 0 16 0;
#X connect 10 1 23 0;
#X connect 10 2 24 0;
#X connect 10 3 17 0;
#X connect 12 0 11 2;
#X connect 13 0 26 0;
#X connect 14 0 0 0;
#X connect 15 0 14 1;
#X connect 16 0 8 0;
#X connect 17 0 8 0;
#X connect 18 0 11 1;
#X connect 19 0 18 0;
#X connect 20 0 21 0;
#X connect 20 0 22 0;
#X connect 21 0 20 1;
#X connect 23 0 8 0;
#X connect 24 0 8 0;
#X connect 25 0 27 1;
#X connect 26 0 11 0;
#X connect 27 0 3 0;
#X connect 27 1 6 0;
#X connect 28 0 26 0;
