#N canvas 621 419 742 609 10;
#X obj 194 370 noteout;
#X floatatom 249 335 5 0 0 0 - - -, f 5;
#X obj 224 -27 inlet;
#X obj 136 31 r lo;
#X floatatom 223 -3 5 0 0 0 - - -, f 5;
#X floatatom 208 61 5 0 0 0 - - -, f 5;
#X floatatom 99 -45 5 0 0 0 - - -, f 5;
#X obj 107 -4 == 0;
#X msg 138 66 0;
#X obj -26 -52 r modL;
#X floatatom 80 144 5 0 0 0 - - -, f 5;
#X floatatom 232 198 5 0 0 0 - - -, f 5;
#X obj 229 104 * 1;
#X obj 216 30 * 1;
#X connect 1 0 0 2;
#X connect 2 0 4 0;
#X connect 3 0 8 0;
#X connect 4 0 13 1;
#X connect 5 0 12 0;
#X connect 5 0 0 1;
#X connect 6 0 7 0;
#X connect 7 0 8 0;
#X connect 7 0 10 0;
#X connect 7 0 13 0;
#X connect 8 0 0 0;
#X connect 9 0 6 0;
#X connect 12 0 11 0;
#X connect 13 0 5 0;
