#N canvas 469 22 742 609 10;
#X floatatom 249 335 5 0 0 0 - - -, f 5;
#X obj 198 -27 inlet;
#X obj 151 252 r lo;
#X floatatom 202 9 5 0 0 0 - - -, f 5;
#X floatatom 175 182 5 0 0 0 - - -, f 5;
#X floatatom 99 -45 5 0 0 0 - - -, f 5;
#X obj -26 -52 r modL;
#X floatatom 228 317 5 0 0 0 - - -, f 5;
#X obj 195 370 noteout;
#X obj 98 -3 == 1;
#X obj 175 128 * 1;
#X msg 107 213 1;
#X floatatom 25 145 5 0 0 0 - - -, f 5;
#X obj 30 4 == 0;
#X floatatom -22 28 5 0 0 0 - - -, f 5;
#X obj 63 150 bng 15 250 50 0 empty empty empty 17 7 0 10 -262144 -1
-1;
#X connect 0 0 8 2;
#X connect 1 0 3 0;
#X connect 2 0 11 0;
#X connect 3 0 10 1;
#X connect 4 0 8 1;
#X connect 5 0 9 0;
#X connect 5 0 13 0;
#X connect 6 0 5 0;
#X connect 7 0 8 1;
#X connect 9 0 10 0;
#X connect 9 0 11 0;
#X connect 9 0 12 0;
#X connect 10 0 4 0;
#X connect 11 0 8 0;
#X connect 13 0 14 0;
