#N canvas 314 115 742 609 10;
#X obj 479 1003 noteout;
#X floatatom 534 968 5 0 0 0 - - -;
#X obj 483 606 inlet;
#X obj 383 911 r lo;
#X floatatom 487 642 5 0 0 0 - - -;
#X floatatom 460 815 5 0 0 0 - - -;
#X obj 67 67;
#X floatatom 384 588 5 0 0 0 - - -;
#X obj 468 781 *;
#X obj 476 667 *;
#X msg 429 917 18;
#X obj 389 625 == 2;
#X obj 260 582 r mod11;
#X connect 1 0 0 2;
#X connect 2 0 4 0;
#X connect 3 0 10 0;
#X connect 4 0 9 1;
#X connect 5 0 0 1;
#X connect 7 0 11 0;
#X connect 8 0 5 0;
#X connect 9 0 5 0;
#X connect 10 0 0 0;
#X connect 11 0 10 0;
#X connect 11 0 9 0;
#X connect 12 0 7 0;
