#N canvas 784 244 742 609 10;
#X obj 344 520 noteout;
#X floatatom 399 485 5 0 0 0 - - -, f 5;
#X obj 348 123 inlet;
#X obj 248 428 r lo;
#X floatatom 352 159 5 0 0 0 - - -, f 5;
#X floatatom 249 105 5 0 0 0 - - -, f 5;
#X floatatom 195 232 5 0 0 0 - - -, f 5;
#X obj 124 98 r modL;
#X obj 131 128 r modL1;
#X obj 253 142 == 15;
#X msg 294 436 15;
#X obj 373 257 t b f;
#X obj 376 287 * 1;
#X floatatom 360 324 5 0 0 0 - - -, f 5;
#X connect 1 0 0 2;
#X connect 2 0 4 0;
#X connect 3 0 10 0;
#X connect 4 0 11 0;
#X connect 5 0 9 0;
#X connect 6 0 12 0;
#X connect 7 0 5 0;
#X connect 8 0 5 0;
#X connect 9 0 6 0;
#X connect 9 0 10 0;
#X connect 10 0 0 0;
#X connect 11 0 12 0;
#X connect 11 1 12 1;
#X connect 12 0 13 0;
#X connect 13 0 0 1;
