#N canvas 314 115 742 609 10;
#X obj 589 1113 noteout;
#X floatatom 644 1078 5 0 0 0 - - -;
#X obj 593 716 inlet;
#X obj 493 1021 r lo;
#X floatatom 597 752 5 0 0 0 - - -;
#X floatatom 570 925 5 0 0 0 - - -;
#X floatatom 494 698 5 0 0 0 - - -;
#X obj 586 777 *;
#X msg 539 1027 29;
#X obj 499 735 == 13;
#X obj 369 691 r mod11;
#X connect 1 0 0 2;
#X connect 2 0 4 0;
#X connect 3 0 8 0;
#X connect 4 0 7 1;
#X connect 5 0 0 1;
#X connect 6 0 9 0;
#X connect 7 0 5 0;
#X connect 8 0 0 0;
#X connect 9 0 8 0;
#X connect 9 0 7 0;
#X connect 10 0 6 0;
