#N canvas 314 115 742 609 10;
#X obj 306 407 noteout;
#X floatatom 361 372 5 0 0 0 - - -;
#X obj 310 10 inlet;
#X obj 210 315 r lo;
#X floatatom 314 46 5 0 0 0 - - -;
#X floatatom 287 219 5 0 0 0 - - -;
#X floatatom 211 -8 5 0 0 0 - - -;
#X obj 303 71 *;
#X msg 256 321 21;
#X obj 216 29 == 5;
#X obj 86 -15 r mod11;
#X connect 1 0 0 2;
#X connect 2 0 4 0;
#X connect 3 0 8 0;
#X connect 4 0 7 1;
#X connect 5 0 0 1;
#X connect 6 0 9 0;
#X connect 7 0 5 0;
#X connect 8 0 0 0;
#X connect 9 0 8 0;
#X connect 9 0 7 0;
#X connect 10 0 6 0;
