#N canvas 277 84 742 609 10;
#X obj 449 973 noteout;
#X floatatom 504 938 5 0 0 0 - - -;
#X obj 453 576 inlet;
#X obj 353 881 r lo;
#X floatatom 457 612 5 0 0 0 - - -;
#X floatatom 642 701 5 0 0 0 - - -;
#X floatatom 430 785 5 0 0 0 - - -;
#X obj 37 37;
#X floatatom 354 558 5 0 0 0 - - -;
#X floatatom 300 685 5 0 0 0 - - -;
#X obj 438 751 *;
#X obj 446 637 *;
#X msg 399 885 35;
#X obj 359 595 == 35;
#X obj 249 581 r modL1;
#X connect 1 0 0 2;
#X connect 2 0 4 0;
#X connect 3 0 12 0;
#X connect 4 0 11 1;
#X connect 5 0 10 1;
#X connect 6 0 0 1;
#X connect 8 0 13 0;
#X connect 9 0 11 0;
#X connect 10 0 6 0;
#X connect 11 0 6 0;
#X connect 12 0 0 0;
#X connect 13 0 9 0;
#X connect 13 0 12 0;
#X connect 14 0 8 0;
