#N canvas 76 404 742 609 10;
#X obj 194 370 noteout;
#X floatatom 270 366 5 0 0 0 - - -, f 5;
#X obj 198 -27 inlet;
#X obj 98 278 r lo;
#X floatatom 202 9 5 0 0 0 - - -, f 5;
#X floatatom 99 -45 5 0 0 0 - - -, f 5;
#X floatatom 45 82 5 0 0 0 - - -, f 5;
#X msg 144 286 3;
#X obj -26 -52 r modL;
#X obj -19 -22 r modL1;
#X obj 104 -8 == 3;
#X obj 361 62 t b f;
#X obj 364 92 * 1;
#X floatatom 348 129 5 0 0 0 - - -, f 5;
#X connect 1 0 0 2;
#X connect 2 0 4 0;
#X connect 3 0 7 0;
#X connect 4 0 11 0;
#X connect 5 0 10 0;
#X connect 6 0 12 0;
#X connect 7 0 0 0;
#X connect 8 0 5 0;
#X connect 9 0 5 0;
#X connect 10 0 6 0;
#X connect 10 0 7 0;
#X connect 11 0 12 0;
#X connect 11 1 12 1;
#X connect 12 0 13 0;
#X connect 13 0 0 1;
