#N canvas 190 64 742 609 10;
#X obj 449 973 noteout;
#X floatatom 504 938 5 0 0 0 - - -;
#X obj 453 576 inlet;
#X obj 353 881 r lo;
#X floatatom 457 612 5 0 0 0 - - -;
#X floatatom 378 481 5 0 0 0 - - -;
#X obj 419 481 * 0.133858;
#X obj 314 458 ctlin 22;
#X obj 496 483 + 1;
#X obj 554 477 == 1;
#X floatatom 545 517 5 0 0 0 - - -;
#X obj 591 652 *;
#X floatatom 642 701 5 0 0 0 - - -;
#X floatatom 430 785 5 0 0 0 - - -;
#X obj 37 37;
#X floatatom 354 558 5 0 0 0 - - -;
#X floatatom 300 685 5 0 0 0 - - -;
#X obj 499 761 *;
#X obj 446 637 *;
#X obj 359 595 == 4;
#X msg 399 887 36;
#X obj 229 551 r mod00;
#X connect 1 0 0 2;
#X connect 2 0 4 0;
#X connect 2 0 11 0;
#X connect 3 0 20 0;
#X connect 4 0 18 1;
#X connect 5 0 6 0;
#X connect 6 0 8 0;
#X connect 7 0 5 0;
#X connect 8 0 9 0;
#X connect 9 0 10 0;
#X connect 10 0 11 1;
#X connect 11 0 12 0;
#X connect 12 0 17 1;
#X connect 13 0 0 1;
#X connect 15 0 19 0;
#X connect 16 0 18 0;
#X connect 17 0 13 0;
#X connect 18 0 13 0;
#X connect 19 0 16 0;
#X connect 19 0 20 0;
#X connect 20 0 0 0;
#X connect 21 0 15 0;
