#N canvas 564 64 934 878 10;
#X obj 100 11 cnv 15 310 407 empty empty PUREWAVE-SYNTH 12 8 0 14 -191407
-262144 0;
#X floatatom 582 -644 0 0 0 0 - - -;
#X obj 583 -665 *;
#X obj 582 -700 t b f;
#X floatatom 793 -555 0 0 0 0 - - -;
#X obj 772 -648 t b f;
#X obj 840 -418 sig~;
#X obj 842 -289 *~ -1;
#X floatatom 319 116 5 0 0 0 - - -, f 5;
#X obj 662 -246 tgl 15 0 empty empty B 4 7 0 10 -262144 -1 -1 0 1;
#X obj 1054 64 *~;
#X obj 793 -612 *;
#X obj 1047 147 *~ 1;
#X obj 797 -417 osc~;
#X obj -2653 228 r lo;
#X msg -2628 254 0;
#X msg -2596 254 0.5;
#X obj 646 -655 bng 15 250 50 0 empty empty empty 17 7 0 10 -262144
-1 -1;
#X obj 739 -549 delay;
#X obj 744 -505 pack f f;
#X obj 482 -515 pack f f;
#X obj 744 -669 * 1;
#X obj 732 -702 t b f;
#X obj 1033 210 dac~;
#X obj 481 -566 delay;
#X floatatom 512 -643 0 0 0 0 - - -;
#X obj 513 -664 *;
#X obj 512 -699 t b f;
#X obj 647 -622 f;
#X obj 649 -571 sel;
#X obj 795 -373 *~;
#X msg 547 6 1, f 2;
#X obj 499 107 /;
#X floatatom 506 173 0 0 0 0 F - -;
#X floatatom 639 -795 0 0 0 1 - - -;
#X floatatom 573 174 0 0 0 0 T - -;
#X obj 566 121 /;
#X obj 563 151 * 1000;
#X obj 388 149 tgl 17 0 empty empty ^ 3 14 0 20 -1 -262144 -262144
0 1;
#X obj 388 110 tgl 17 0 empty empty v 3 7 0 16 -1 -262144 -262144 1
1;
#X obj 541 57 spigot-toggle_vert;
#X obj 772 -701 - 1;
#X obj 772 -673 * -1;
#X obj 844 -266 *~;
#X floatatom 743 -648 0 0 0 0 - - -;
#X msg 485 -463 1;
#X obj 650 -547 bng 15 250 50 0 empty empty empty 17 7 0 10 -262144
-1 -1;
#X obj 504 150 * 1000;
#X obj 643 -705 metro 44;
#X obj -2630 182 r fll1;
#X text -2573 135 "a;
#X obj -2717 181 r fll0;
#X obj -2718 141 r fll0;
#X obj -2631 142 r fll1;
#X floatatom 318 96 0 0 0 1 xt - -;
#X obj 131 43 tgl 15 0 empty empty B 5 7 0 10 -262144 -1 -1 0 1;
#X obj 113 43 tgl 15 0 empty empty A 5 7 0 10 -262144 -1 -1 0 1;
#X obj 113 60 hsl 70 20 0 1 0 0 empty empty cut 12 12 0 10 -262144
-1 -1 900 1;
#X obj -11 -32 spigot-toggle_orange;
#X obj 204 43 tgl 15 0 empty empty B 3 7 0 10 -262144 -1 -1 0 1;
#X obj -11 -55 spigot-toggle_vert;
#X obj -11 -79 spigot-toggle_red;
#X obj 187 43 tgl 15 0 empty empty A 3 7 0 10 -262144 -1 -1 0 1;
#X obj -11 22 * 1;
#X obj 189 60 hsl 70 20 0 1 0 0 empty empty empty -2 -8 0 10 -262144
-1 -1 5700 1;
#X obj 114 101 hsl 70 20 0 1 0 0 empty empty fade 12 12 0 10 -262144
-1 -1 0 1;
#X obj -45 -31 spigot-toggle_orange;
#X obj -45 -55 spigot-toggle_vert;
#X obj -46 -79 spigot-toggle_red;
#X obj -45 22 * 1;
#X obj 190 101 hsl 70 20 0 1 0 0 empty empty empty 45 11 1 20 -262144
-1 -1 6900 1;
#X obj 424 73 t b f;
#X obj -207 -337 spigot-toggle_orange;
#X obj -207 -361 spigot-toggle_vert;
#X obj -207 -385 spigot-toggle_red;
#X obj 479 -541 f;
#X floatatom 447 -518 0 0 0 0 - - -;
#X obj 488 -486 r lo;
#X obj -174 -336 spigot-toggle_orange;
#X obj -174 -360 spigot-toggle_vert;
#X obj -174 -384 spigot-toggle_red;
#X obj -177 -284 * 1;
#X floatatom 633 -212 0 0 0 0 = - -;
#X floatatom 633 -246 0 0 0 2 phase - -;
#X obj 426 108 * 1;
#X floatatom 317 79 5 0 0 2 Time - -, f 5;
#X floatatom 316 194 5 0 0 0 - - -, f 5;
#X floatatom 316 175 0 0 0 1 xf - -;
#X obj 417 152 t b f;
#X obj 419 184 * 1;
#X floatatom 316 159 5 0 0 2 Freq - -, f 5;
#X floatatom 633 -229 0 0 0 0 x - -;
#X obj 53 178 * 1;
#X obj 191 -45 r lo;
#X obj 540 78 spigot-toggle_vert;
#X obj 841 -381 *~ 0.01;
#X obj 1072 172 dj-eq;
#X obj 708 -3 r T$;
#X obj 705 32 spigot-toggle_red;
#X obj 774 32 spigot-toggle_red;
#X obj 798 -3 r T1;
#X obj -208 -284 * 1;
#X obj -51 120 spigot-toggle_orange;
#X obj -51 96 spigot-toggle_vert;
#X obj -51 72 spigot-toggle_red;
#X obj -55 173 * 1;
#X obj -16 120 spigot-toggle_orange;
#X obj -16 96 spigot-toggle_vert;
#X obj -16 72 spigot-toggle_red;
#X obj -19 173 * 1;
#X obj -240 -337 spigot-toggle_orange;
#X obj -240 -361 spigot-toggle_vert;
#X obj -240 -385 spigot-toggle_red;
#X obj -243 -284 * 1;
#X obj 1054 97 *~ 1;
#X obj 848 -341 *~;
#X obj 1042 -64 spigot-toggle_red;
#X obj 1043 -100 spigot-toggle_red;
#X obj -199 -127 spigot-toggle_red;
#X obj -198 -163 spigot-toggle_red;
#X obj -239 -153 r A;
#X obj -238 -129 r B;
#X obj -209 -51 s BT;
#X obj -209 -72 s AT;
#X obj -3 -307 r AT;
#X obj -3 -283 r BT;
#X obj -177 -164 r trgrA;
#X obj -177 -124 r trgrB;
#X floatatom -213 15 5 0 0 0 AT - AT, f 5;
#X floatatom -213 35 5 0 0 0 BT - BT, f 5;
#X msg -164 116 0.5;
#X obj 167 43 tgl 15 0 empty empty b' 3 7 0 10 -262144 -1 -1 0 1;
#X obj 149 43 tgl 15 0 empty empty a' 3 7 0 10 -262144 -1 -1 0 1;
#X obj 241 43 tgl 15 0 empty empty b' 3 7 0 10 -262144 -1 -1 0 1;
#X obj 223 43 tgl 15 0 empty empty a' 3 7 0 10 -262144 -1 -1 0 1;
#X obj -174 -314 spigot-toggle_orange;
#X obj -208 -315 spigot-toggle_orange;
#X obj -2 -238 r fll1;
#X obj -4 -264 r fll0;
#X obj -51 142 spigot-toggle_orange;
#X obj -11 -8 spigot-toggle_orange;
#X obj -239 -315 spigot-toggle_orange;
#X obj -16 142 spigot-toggle_orange;
#X obj -44 -9 spigot-toggle_orange;
#X obj 1066 -94 r trgrA;
#X obj 1066 -54 r trgrB;
#X obj 131 83 tgl 15 0 empty empty B 5 7 0 10 -262144 -1 -1 0 1;
#X obj 113 83 tgl 15 0 empty empty A 5 7 0 10 -262144 -1 -1 0 1;
#X obj 204 83 tgl 15 0 empty empty B 3 7 0 10 -262144 -1 -1 0 1;
#X obj 187 83 tgl 15 0 empty empty A 3 7 0 10 -262144 -1 -1 0 1;
#X obj 167 83 tgl 15 0 empty empty b' 3 7 0 10 -262144 -1 -1 0 1;
#X obj 149 83 tgl 15 0 empty empty a' 3 7 0 10 -262144 -1 -1 0 1;
#X obj 241 83 tgl 15 0 empty empty b' 3 7 0 10 -262144 -1 -1 0 1;
#X obj 223 83 tgl 15 0 empty empty a' 3 7 0 10 -262144 -1 -1 0 1;
#X obj -188 174 r lo;
#X obj -141 -334 spigot-toggle_orange;
#X obj -141 -358 spigot-toggle_vert;
#X obj -141 -382 spigot-toggle_red;
#X obj -144 -281 * 1;
#X obj -140 -312 spigot-toggle_orange;
#X obj 289 -235 spigot-toggle_orange;
#X obj 289 -259 spigot-toggle_vert;
#X obj 289 -283 spigot-toggle_red;
#X obj 365 -234 spigot-toggle_orange;
#X obj 365 -258 spigot-toggle_vert;
#X obj 365 -282 spigot-toggle_red;
#X obj 178 -235 spigot-toggle_orange;
#X obj 178 -259 spigot-toggle_vert;
#X obj 178 -283 spigot-toggle_red;
#X obj 175 -182 * 1;
#X obj 93 -298 r AT;
#X obj 93 -274 r BT;
#X obj 365 -212 spigot-toggle_orange;
#X obj 288 -213 spigot-toggle_orange;
#X obj 94 -229 r fll1;
#X obj 92 -255 r fll0;
#X obj 179 -213 spigot-toggle_orange;
#X obj 181 -135 tgl 15 0 empty empty B 5 7 0 10 -262144 -1 -1 0 1;
#X obj 181 -152 tgl 15 0 empty empty A 5 7 0 10 -262144 -1 -1 0 1;
#X obj 181 -101 tgl 15 0 empty empty b' 3 7 0 10 -262144 -1 -1 0 1
;
#X obj 181 -118 tgl 15 0 empty empty a' 3 7 0 10 -262144 -1 -1 0 1
;
#X obj 290 161 tgl 15 0 empty empty B 5 7 0 10 -262144 -1 -1 0 1;
#X obj 290 144 tgl 15 0 empty empty A 5 7 0 10 -262144 -1 -1 0 1;
#X obj 290 192 tgl 15 0 empty empty b' 3 7 0 10 -262144 -1 -1 0 1;
#X obj 290 176 tgl 15 0 empty empty a' 3 7 0 10 -262144 -1 -1 0 1;
#X obj 371 160 tgl 15 0 empty empty B 5 7 0 10 -262144 -1 -1 0 1;
#X obj 371 143 tgl 15 0 empty empty A 5 7 0 10 -262144 -1 -1 0 1;
#X obj 371 192 tgl 15 0 empty empty b' 3 7 0 10 -262144 -1 -1 0 1;
#X obj 371 176 tgl 15 0 empty empty a' 3 7 0 10 -262144 -1 -1 0 1;
#X obj 287 -85 spigot-toggle_orange;
#X obj 287 -109 spigot-toggle_vert;
#X obj 287 -133 spigot-toggle_red;
#X obj 286 -63 spigot-toggle_orange;
#X obj 291 85 tgl 15 0 empty empty B 5 7 0 10 -262144 -1 -1 1 1;
#X obj 291 69 tgl 15 0 empty empty A 5 7 0 10 -262144 -1 -1 0 1;
#X obj 291 116 tgl 15 0 empty empty b' 3 7 0 10 -262144 -1 -1 0 1;
#X obj 291 100 tgl 15 0 empty empty a' 3 7 0 10 -262144 -1 -1 0 1;
#X obj 365 -85 spigot-toggle_orange;
#X obj 365 -109 spigot-toggle_vert;
#X obj 366 -133 spigot-toggle_red;
#X obj 364 -32 * 1;
#X obj 364 -63 spigot-toggle_orange;
#X obj 371 85 tgl 15 0 empty empty B 5 7 0 10 -262144 -1 -1 0 1;
#X obj 371 69 tgl 15 0 empty empty A 5 7 0 10 -262144 -1 -1 0 1;
#X obj 371 116 tgl 15 0 empty empty b' 3 7 0 10 -262144 -1 -1 1 1;
#X obj 371 100 tgl 15 0 empty empty a' 3 7 0 10 -262144 -1 -1 0 1;
#X obj 277 41 cnv 15 108 17 empty empty empty 9 12 0 10 -1 -66577 0
;
#X obj 278 42 tgl 15 0 empty empty C_____alone/rcv -10 7 0 10 -128992
-262144 -262144 0 1;
#X obj 363 49 tgl 15 0 empty empty A 4 8 0 12 -258113 -1 -1 0 1;
#X obj 379 49 tgl 15 0 empty empty B 4 8 0 12 -4034 -1 -1 0 1;
#X obj 112 140 cnv 15 84 70 empty empty empty 5 12 0 10 -228856 -66577
0;
#X obj 173 145 vsl 20 60 0 2 0 0 empty empty VL 3 6 0 10 -191407 -1
-1 1100 1;
#X obj 140 145 vsl 10 60 0 1 0 0 empty empty empty 12 12 0 10 -191407
-1 -1 1750 1;
#X obj 162 145 vsl 10 60 0 1 0 0 empty empty empty 12 12 0 10 -191407
-1 -1 3050 1;
#X obj 151 145 vsl 10 60 0 1 0 0 empty empty empty 12 12 0 10 -191407
-1 -1 2350 1;
#X obj 114 149 tgl 20 0 empty empty osc 2 9 0 10 -262144 -1 -1 1 1
;
#X obj 114 179 tgl 20 0 empty empty sig 2 10 0 10 -262144 -1 -1 0 1
;
#X obj 51 142 t b f;
#X obj 316 -181 * 1000;
#X obj 313 -28 * 1000;
#X obj 1082 197 s~ C;
#X obj 388 128 cnv 15 17 20 empty empty C 1 10 0 22 -1 -262144 0;
#X obj 301 -434 tgl 17 0 empty empty ø 5 7 2 15 -262144 -1 -1 1 1
;
#X obj 1141 -94 - 1;
#X obj 1142 -70 * -1;
#X obj 1112 -149 sel;
#X obj 1113 -125 bng 15 250 50 0 empty empty empty 17 7 0 10 -262144
-1 -1;
#X msg 743 -528 0;
#X obj 363 33 tgl 15 0 empty empty ø 2 6 0 22 -258113 -1 -1 0 1;
#X obj 379 33 tgl 15 0 empty empty ø 2 6 0 22 -4034 -1 -1 0 1;
#X obj 353 -455 mod 1;
#X obj 323 -457 sel;
#X msg 324 -434 1;
#X obj 296 -577 mod 1;
#X obj 296 -549 sel;
#X msg 297 -528 1;
#X obj 362 -182 * 100;
#X obj 897 -213 vline~;
#X obj 1141 -45 + 0;
#X obj 1116 -177 mod 2;
#X obj 676 -621 + 1;
#X obj 647 -596 mod 1;
#X obj 1042 -64 spigot-toggle_red;
#X obj 645 -682 spigot-toggle_red;
#X floatatom 605 948 0 0 0 0 - - -;
#X obj 606 927 *;
#X obj 605 892 t b f;
#X floatatom 816 1037 0 0 0 0 - - -;
#X obj 795 944 t b f;
#X obj 779 432 sig~;
#X obj 781 561 *~ -1;
#X floatatom 319 300 5 0 0 0 - - -, f 5;
#X obj 671 666 tgl 15 0 empty empty B 4 7 0 10 -262144 -1 -1 0 1;
#X obj 802 634 *~;
#X obj 816 980 *;
#X obj 801 695 *~ 1;
#X obj 736 433 osc~;
#X obj -2653 1228 r lo;
#X msg -2628 1254 0;
#X msg -2596 1254 0.5;
#X obj 657 874 bng 15 250 50 0 empty empty empty 17 7 0 10 -262144
-1 -1;
#X obj 762 1043 delay;
#X obj 767 1087 pack f f;
#X obj 505 1077 pack f f;
#X obj 767 923 * 1;
#X obj 755 890 t b f;
#X obj 881 765 dac~;
#X obj 504 1026 delay;
#X floatatom 535 949 0 0 0 0 - - -;
#X obj 536 928 *;
#X obj 535 893 t b f;
#X obj 658 907 f;
#X obj 660 958 sel;
#X obj 734 477 *~;
#X msg 569 279 1, f 2;
#X obj 503 450 /;
#X floatatom 506 357 0 0 0 0 F - -;
#X floatatom 549 849 0 0 0 1 - - -;
#X floatatom 573 358 0 0 0 0 T - -;
#X obj 566 305 /;
#X obj 563 335 * 1000;
#X obj 388 333 tgl 17 0 empty empty ^ 3 14 0 20 -1 -262144 -262144
0 1;
#X obj 388 294 tgl 17 0 empty empty v 3 7 0 16 -1 -262144 -262144 1
1;
#X obj 541 241 spigot-toggle_vert;
#X obj 795 891 - 1;
#X obj 795 919 * -1;
#X obj 783 584 *~;
#X floatatom 766 944 0 0 0 0 - - -;
#X msg 508 1129 1;
#X obj 661 982 bng 15 250 50 0 empty empty empty 17 7 0 10 -262144
-1 -1;
#X obj 504 334 * 1000;
#X obj 654 824 metro 44;
#X obj -2630 1182 r fll1;
#X text -2573 1135 "a;
#X obj -2717 1181 r fll0;
#X obj -2718 1141 r fll0;
#X obj -2631 1142 r fll1;
#X floatatom 318 280 0 0 0 1 xt - -;
#X obj 131 227 tgl 15 0 empty empty B 5 7 0 10 -262144 -1 -1 0 1;
#X obj 113 227 tgl 15 0 empty empty A 5 7 0 10 -262144 -1 -1 0 1;
#X obj 113 244 hsl 70 20 0 1 0 0 empty empty cut 12 12 0 10 -262144
-1 -1 3400 1;
#X obj -11 292 spigot-toggle_orange;
#X obj 204 227 tgl 15 0 empty empty B 3 7 0 10 -262144 -1 -1 0 1;
#X obj -11 269 spigot-toggle_vert;
#X obj -11 245 spigot-toggle_red;
#X obj 187 227 tgl 15 0 empty empty A 3 7 0 10 -262144 -1 -1 0 1;
#X obj -11 346 * 1;
#X obj 189 244 hsl 70 20 0 1 0 0 empty empty empty -2 -8 0 10 -262144
-1 -1 6000 1;
#X obj 114 285 hsl 70 20 0 1 0 0 empty empty fade 12 12 0 10 -262144
-1 -1 800 1;
#X obj -45 293 spigot-toggle_orange;
#X obj -45 269 spigot-toggle_vert;
#X obj -46 245 spigot-toggle_red;
#X obj -45 346 * 1;
#X obj 190 285 hsl 70 20 0 1 0 0 empty empty empty 45 11 1 20 -262144
-1 -1 5200 1;
#X obj 424 257 t b f;
#X obj 502 1051 f;
#X floatatom 470 1074 0 0 0 0 - - -;
#X obj 511 1106 r lo;
#X floatatom 642 700 0 0 0 0 = - -;
#X floatatom 642 666 0 0 0 2 phase - -;
#X obj 426 292 * 1;
#X floatatom 317 263 5 0 0 2 Time - -, f 5;
#X floatatom 316 378 5 0 0 0 - - -, f 5;
#X floatatom 316 359 0 0 0 1 xf - -;
#X obj 417 336 t b f;
#X obj 419 368 * 1;
#X floatatom 316 343 5 0 0 2 Freq - -, f 5;
#X floatatom 642 683 0 0 0 0 x - -;
#X obj 53 362 * 1;
#X obj 188 767 r lo;
#X obj 540 262 spigot-toggle_vert;
#X obj 780 469 *~ 0.01;
#X obj 848 695 dj-eq;
#X obj 727 241 r T$;
#X obj 705 236 spigot-toggle_red;
#X obj 774 236 spigot-toggle_red;
#X obj 817 241 r T1;
#X obj -51 444 spigot-toggle_orange;
#X obj -51 420 spigot-toggle_vert;
#X obj -51 396 spigot-toggle_red;
#X obj -55 497 * 1;
#X obj -16 444 spigot-toggle_orange;
#X obj -16 420 spigot-toggle_vert;
#X obj -16 396 spigot-toggle_red;
#X obj -19 497 * 1;
#X obj 802 667 *~ 1;
#X obj 787 509 *~;
#X obj 1048 266 spigot-toggle_red;
#X obj 1049 230 spigot-toggle_red;
#X obj -16 567 r AT;
#X obj -16 591 r BT;
#X msg -192 319 0.5;
#X obj 167 227 tgl 15 0 empty empty b' 3 7 0 10 -262144 -1 -1 0 1;
#X obj 149 227 tgl 15 0 empty empty a' 3 7 0 10 -262144 -1 -1 0 1;
#X obj 241 227 tgl 15 0 empty empty b' 3 7 0 10 -262144 -1 -1 0 1;
#X obj 223 227 tgl 15 0 empty empty a' 3 7 0 10 -262144 -1 -1 0 1;
#X obj -15 636 r fll1;
#X obj -17 610 r fll0;
#X obj -51 466 spigot-toggle_orange;
#X obj -11 316 spigot-toggle_orange;
#X obj -16 466 spigot-toggle_orange;
#X obj -44 315 spigot-toggle_orange;
#X obj 1072 236 r trgrA;
#X obj 1072 276 r trgrB;
#X obj 131 267 tgl 15 0 empty empty B 5 7 0 10 -262144 -1 -1 0 1;
#X obj 113 267 tgl 15 0 empty empty A 5 7 0 10 -262144 -1 -1 0 1;
#X obj 204 267 tgl 15 0 empty empty B 3 7 0 10 -262144 -1 -1 0 1;
#X obj 187 267 tgl 15 0 empty empty A 3 7 0 10 -262144 -1 -1 0 1;
#X obj 167 267 tgl 15 0 empty empty b' 3 7 0 10 -262144 -1 -1 0 1;
#X obj 149 267 tgl 15 0 empty empty a' 3 7 0 10 -262144 -1 -1 0 1;
#X obj 241 267 tgl 15 0 empty empty b' 3 7 0 10 -262144 -1 -1 0 1;
#X obj 223 267 tgl 15 0 empty empty a' 3 7 0 10 -262144 -1 -1 0 1;
#X obj -188 498 r lo;
#X obj 286 577 spigot-toggle_orange;
#X obj 286 553 spigot-toggle_vert;
#X obj 286 529 spigot-toggle_red;
#X obj 362 578 spigot-toggle_orange;
#X obj 362 554 spigot-toggle_vert;
#X obj 362 530 spigot-toggle_red;
#X obj 175 577 spigot-toggle_orange;
#X obj 175 553 spigot-toggle_vert;
#X obj 175 529 spigot-toggle_red;
#X obj 172 630 * 1;
#X obj 90 514 r AT;
#X obj 90 538 r BT;
#X obj 362 600 spigot-toggle_orange;
#X obj 285 599 spigot-toggle_orange;
#X obj 91 583 r fll1;
#X obj 89 557 r fll0;
#X obj 176 599 spigot-toggle_orange;
#X obj 180 455 tgl 15 0 empty empty B 5 7 0 10 -262144 -1 -1 0 1;
#X obj 180 438 tgl 15 0 empty empty A 5 7 0 10 -262144 -1 -1 0 1;
#X obj 180 489 tgl 15 0 empty empty b' 3 7 0 10 -262144 -1 -1 0 1;
#X obj 180 472 tgl 15 0 empty empty a' 3 7 0 10 -262144 -1 -1 0 1;
#X obj 290 345 tgl 15 0 empty empty B 5 7 0 10 -262144 -1 -1 0 1;
#X obj 290 328 tgl 15 0 empty empty A 5 7 0 10 -262144 -1 -1 0 1;
#X obj 290 376 tgl 15 0 empty empty b' 3 7 0 10 -262144 -1 -1 0 1;
#X obj 290 360 tgl 15 0 empty empty a' 3 7 0 10 -262144 -1 -1 0 1;
#X obj 371 344 tgl 15 0 empty empty B 5 7 0 10 -262144 -1 -1 0 1;
#X obj 371 327 tgl 15 0 empty empty A 5 7 0 10 -262144 -1 -1 0 1;
#X obj 371 376 tgl 15 0 empty empty b' 3 7 0 10 -262144 -1 -1 0 1;
#X obj 371 360 tgl 15 0 empty empty a' 3 7 0 10 -262144 -1 -1 0 1;
#X obj 284 727 spigot-toggle_orange;
#X obj 284 703 spigot-toggle_vert;
#X obj 284 679 spigot-toggle_red;
#X obj 283 749 spigot-toggle_orange;
#X obj 291 269 tgl 15 0 empty empty B 5 7 0 10 -262144 -1 -1 0 1;
#X obj 291 253 tgl 15 0 empty empty A 5 7 0 10 -262144 -1 -1 0 1;
#X obj 291 300 tgl 15 0 empty empty b' 3 7 0 10 -262144 -1 -1 0 1;
#X obj 291 284 tgl 15 0 empty empty a' 3 7 0 10 -262144 -1 -1 0 1;
#X obj 362 727 spigot-toggle_orange;
#X obj 362 703 spigot-toggle_vert;
#X obj 363 679 spigot-toggle_red;
#X obj 361 780 * 1;
#X obj 361 749 spigot-toggle_orange;
#X obj 371 269 tgl 15 0 empty empty B 5 7 0 10 -262144 -1 -1 0 1;
#X obj 371 253 tgl 15 0 empty empty A 5 7 0 10 -262144 -1 -1 0 1;
#X obj 371 300 tgl 15 0 empty empty b' 3 7 0 10 -262144 -1 -1 0 1;
#X obj 371 284 tgl 15 0 empty empty a' 3 7 0 10 -262144 -1 -1 0 1;
#X obj 278 225 cnv 15 108 17 empty empty empty 1 1 0 12 -1 -262144
0;
#X obj 279 226 tgl 15 0 empty empty D_____alone/rcv -10 7 0 10 -128992
-262144 -262144 0 1;
#X obj 363 233 tgl 15 0 empty empty A 4 8 0 12 -258113 -1 -1 1 1;
#X obj 379 233 tgl 15 0 empty empty B 4 8 0 12 -4034 -1 -1 0 1;
#X obj 112 324 cnv 15 84 70 empty empty empty 5 12 0 10 -228856 -66577
0;
#X obj 173 329 vsl 20 60 0 2 0 0 empty empty VL 3 6 0 10 -191407 -1
-1 3193 1;
#X obj 140 329 vsl 10 60 0 1 0 0 empty empty empty 12 12 0 10 -191407
-1 -1 1850 1;
#X obj 162 329 vsl 10 60 0 1 0 0 empty empty empty 12 12 0 10 -191407
-1 -1 2950 1;
#X obj 151 329 vsl 10 60 0 1 0 0 empty empty empty 12 12 0 10 -191407
-1 -1 2650 1;
#X obj 114 333 tgl 20 0 empty empty osc 2 9 0 10 -262144 -1 -1 1 1
;
#X obj 114 363 tgl 20 0 empty empty sig 2 10 0 10 -262144 -1 -1 0 1
;
#X obj 51 326 t b f;
#X obj 313 631 * 1000;
#X obj 310 784 * 1000;
#X obj 388 312 cnv 15 17 20 empty empty C 1 10 0 22 -1 -262144 0;
#X obj 364 1158 tgl 17 0 empty empty ø 5 7 2 15 -262144 -1 -1 1 1
;
#X obj 1147 236 - 1;
#X obj 1148 260 * -1;
#X obj 1144 344 sel;
#X obj 1145 368 bng 15 250 50 0 empty empty empty 17 7 0 10 -262144
-1 -1;
#X msg 766 1064 0;
#X obj 363 217 tgl 15 0 empty empty ø 2 6 0 22 -258113 -1 -1 1 1;
#X obj 379 217 tgl 15 0 empty empty ø 2 6 0 22 -4034 -1 -1 0 1;
#X obj 416 1137 mod 1;
#X obj 386 1135 sel;
#X msg 387 1158 1;
#X obj 359 1015 mod 1;
#X obj 359 1043 sel;
#X msg 360 1064 1;
#X obj 359 630 * 100;
#X obj 830 1133 vline~;
#X obj 1147 285 + 0;
#X obj 1148 316 mod 2;
#X obj 688 908 + 1;
#X obj 658 933 mod 1;
#X obj 1048 266 spigot-toggle_red;
#X obj 656 847 spigot-toggle_red;
#X obj 951 773 s~ C1;
#X obj 1188 15 vfreeverb~;
#X obj 205 143 hsl 70 15 0 1 0 1 empty empty 'roomsize' 3 8 0 10 -262144
-260097 -1 1500 0;
#X obj 205 158 hsl 70 15 0 2 0 1 empty empty damp 3 8 0 10 -262144
-260097 -1 1800 0;
#X obj 205 188 hsl 70 15 0 1 0 1 empty empty wet 3 8 0 10 -262144 -260097
-1 1500 0;
#X obj 205 173 hsl 70 15 0 1 0 1 empty empty dry 3 8 0 10 -262144 -260097
-1 0 0;
#X obj 908 708 vfreeverb~;
#X obj 207 329 hsl 70 15 0 1 0 1 empty empty 'roomsize' 3 8 0 10 -262144
-260097 -1 6900 0;
#X obj 207 344 hsl 70 15 0 2 0 1 empty empty damp 3 8 0 10 -262144
-260097 -1 4900 0;
#X obj 207 374 hsl 70 15 0 1 0 1 empty empty wet 3 8 0 10 -262144 -260097
-1 1000 0;
#X obj 207 359 hsl 70 15 0 1 0 1 empty empty dry 3 8 0 10 -262144 -260097
-1 0 0;
#X connect 1 0 20 1;
#X connect 2 0 1 0;
#X connect 3 0 2 0;
#X connect 3 1 2 1;
#X connect 4 0 19 1;
#X connect 5 0 11 0;
#X connect 5 1 11 1;
#X connect 6 0 95 0;
#X connect 7 0 43 0;
#X connect 8 0 34 0;
#X connect 8 0 32 1;
#X connect 9 0 43 1;
#X connect 10 0 457 0;
#X connect 11 0 4 0;
#X connect 12 0 96 0;
#X connect 13 0 30 0;
#X connect 14 0 15 0;
#X connect 14 0 16 0;
#X connect 17 0 28 0;
#X connect 18 0 227 0;
#X connect 19 0 237 0;
#X connect 20 0 237 0;
#X connect 21 0 44 0;
#X connect 22 0 21 0;
#X connect 22 1 21 1;
#X connect 24 0 75 0;
#X connect 25 0 24 1;
#X connect 26 0 25 0;
#X connect 27 0 26 0;
#X connect 27 1 26 1;
#X connect 28 0 240 0;
#X connect 28 0 241 0;
#X connect 29 0 46 0;
#X connect 30 0 7 0;
#X connect 30 0 10 0;
#X connect 31 0 32 0;
#X connect 31 0 36 0;
#X connect 32 0 47 0;
#X connect 33 0 94 0;
#X connect 34 0 48 1;
#X connect 34 0 11 0;
#X connect 34 0 21 0;
#X connect 34 0 2 0;
#X connect 34 0 26 0;
#X connect 35 0 40 0;
#X connect 36 0 37 0;
#X connect 37 0 35 0;
#X connect 38 0 40 1;
#X connect 39 0 94 1;
#X connect 40 0 85 0;
#X connect 41 0 42 0;
#X connect 42 0 5 0;
#X connect 43 0 10 0;
#X connect 44 0 18 1;
#X connect 45 0 76 0;
#X connect 46 0 18 0;
#X connect 46 0 24 0;
#X connect 46 0 31 0;
#X connect 47 0 33 0;
#X connect 48 0 243 0;
#X connect 54 0 71 0;
#X connect 55 0 67 1;
#X connect 56 0 68 1;
#X connect 57 0 27 0;
#X connect 58 0 63 0;
#X connect 59 0 60 1;
#X connect 60 0 63 0;
#X connect 61 0 63 0;
#X connect 62 0 61 1;
#X connect 63 0 64 0;
#X connect 64 0 22 0;
#X connect 65 0 3 0;
#X connect 66 0 69 0;
#X connect 67 0 69 0;
#X connect 68 0 69 0;
#X connect 69 0 57 0;
#X connect 70 0 41 0;
#X connect 71 0 84 0;
#X connect 71 1 84 1;
#X connect 72 0 101 0;
#X connect 73 0 101 0;
#X connect 74 0 101 0;
#X connect 75 0 20 0;
#X connect 76 0 75 1;
#X connect 77 0 45 0;
#X connect 77 0 227 0;
#X connect 78 0 81 0;
#X connect 79 0 81 0;
#X connect 80 0 81 0;
#X connect 82 0 43 1;
#X connect 83 0 92 0;
#X connect 84 0 8 0;
#X connect 85 0 84 0;
#X connect 86 0 36 1;
#X connect 86 0 13 0;
#X connect 86 0 6 0;
#X connect 87 0 88 0;
#X connect 88 0 89 0;
#X connect 88 1 89 1;
#X connect 89 0 86 0;
#X connect 90 0 89 0;
#X connect 91 0 217 0;
#X connect 92 0 82 0;
#X connect 93 0 64 0;
#X connect 93 0 70 0;
#X connect 93 0 39 0;
#X connect 94 0 90 0;
#X connect 95 0 115 0;
#X connect 96 0 23 0;
#X connect 96 0 23 1;
#X connect 96 0 220 0;
#X connect 97 0 98 0;
#X connect 98 0 85 0;
#X connect 99 0 85 0;
#X connect 100 0 99 0;
#X connect 102 0 105 0;
#X connect 103 0 105 0;
#X connect 104 0 105 0;
#X connect 105 0 65 0;
#X connect 106 0 109 0;
#X connect 107 0 109 0;
#X connect 108 0 109 0;
#X connect 109 0 70 0;
#X connect 110 0 113 0;
#X connect 111 0 113 0;
#X connect 112 0 113 0;
#X connect 114 0 12 0;
#X connect 115 0 7 0;
#X connect 115 0 10 0;
#X connect 116 0 223 0;
#X connect 116 0 243 1;
#X connect 117 0 223 0;
#X connect 117 0 243 1;
#X connect 118 0 122 0;
#X connect 118 0 129 0;
#X connect 119 0 123 0;
#X connect 119 0 128 0;
#X connect 120 0 119 0;
#X connect 121 0 118 0;
#X connect 124 0 74 0;
#X connect 124 0 68 0;
#X connect 124 0 80 0;
#X connect 124 0 61 0;
#X connect 124 0 104 0;
#X connect 124 0 108 0;
#X connect 124 0 112 0;
#X connect 124 0 157 0;
#X connect 125 0 73 0;
#X connect 125 0 67 0;
#X connect 125 0 79 0;
#X connect 125 0 60 0;
#X connect 125 0 103 0;
#X connect 125 0 107 0;
#X connect 125 0 111 0;
#X connect 125 0 156 0;
#X connect 126 0 119 1;
#X connect 127 0 118 1;
#X connect 130 0 212 0;
#X connect 130 0 214 0;
#X connect 130 0 213 0;
#X connect 131 0 143 1;
#X connect 132 0 66 1;
#X connect 133 0 140 1;
#X connect 134 0 58 1;
#X connect 135 0 81 0;
#X connect 136 0 101 0;
#X connect 137 0 136 0;
#X connect 137 0 143 0;
#X connect 137 0 135 0;
#X connect 137 0 140 0;
#X connect 137 0 139 0;
#X connect 137 0 142 0;
#X connect 137 0 141 0;
#X connect 137 0 159 0;
#X connect 138 0 72 0;
#X connect 138 0 66 0;
#X connect 138 0 78 0;
#X connect 138 0 58 0;
#X connect 138 0 102 0;
#X connect 138 0 106 0;
#X connect 138 0 110 0;
#X connect 138 0 155 0;
#X connect 139 0 105 0;
#X connect 140 0 63 0;
#X connect 141 0 113 0;
#X connect 142 0 109 0;
#X connect 143 0 69 0;
#X connect 144 0 117 0;
#X connect 145 0 116 0;
#X connect 146 0 103 1;
#X connect 147 0 104 1;
#X connect 148 0 107 1;
#X connect 149 0 108 1;
#X connect 150 0 139 1;
#X connect 151 0 102 1;
#X connect 152 0 142 1;
#X connect 153 0 106 1;
#X connect 154 0 130 0;
#X connect 155 0 158 0;
#X connect 156 0 158 0;
#X connect 157 0 158 0;
#X connect 159 0 158 0;
#X connect 160 0 218 0;
#X connect 161 0 218 0;
#X connect 162 0 218 0;
#X connect 163 0 236 0;
#X connect 164 0 236 0;
#X connect 165 0 236 0;
#X connect 166 0 169 0;
#X connect 167 0 169 0;
#X connect 168 0 169 0;
#X connect 169 0 83 0;
#X connect 170 0 162 0;
#X connect 170 0 165 0;
#X connect 170 0 168 0;
#X connect 170 0 199 0;
#X connect 170 0 191 0;
#X connect 171 0 161 0;
#X connect 171 0 164 0;
#X connect 171 0 167 0;
#X connect 171 0 198 0;
#X connect 171 0 190 0;
#X connect 172 0 236 0;
#X connect 173 0 218 0;
#X connect 174 0 173 0;
#X connect 174 0 172 0;
#X connect 174 0 176 0;
#X connect 174 0 201 0;
#X connect 174 0 192 0;
#X connect 175 0 160 0;
#X connect 175 0 163 0;
#X connect 175 0 166 0;
#X connect 175 0 197 0;
#X connect 175 0 189 0;
#X connect 176 0 169 0;
#X connect 177 0 167 1;
#X connect 178 0 168 1;
#X connect 179 0 176 1;
#X connect 180 0 166 1;
#X connect 181 0 161 1;
#X connect 182 0 162 1;
#X connect 183 0 173 1;
#X connect 184 0 160 1;
#X connect 185 0 164 1;
#X connect 186 0 165 1;
#X connect 187 0 172 1;
#X connect 188 0 163 1;
#X connect 189 0 219 0;
#X connect 190 0 219 0;
#X connect 191 0 219 0;
#X connect 192 0 219 0;
#X connect 193 0 190 1;
#X connect 193 0 116 1;
#X connect 194 0 191 1;
#X connect 194 0 117 1;
#X connect 195 0 192 1;
#X connect 196 0 189 1;
#X connect 197 0 200 0;
#X connect 198 0 200 0;
#X connect 199 0 200 0;
#X connect 200 0 54 0;
#X connect 201 0 200 0;
#X connect 202 0 198 1;
#X connect 203 0 199 1;
#X connect 204 0 201 1;
#X connect 205 0 197 1;
#X connect 207 0 48 0;
#X connect 208 0 98 1;
#X connect 208 0 117 1;
#X connect 208 0 228 0;
#X connect 208 0 222 0;
#X connect 209 0 99 1;
#X connect 209 0 116 1;
#X connect 209 0 229 0;
#X connect 211 0 12 1;
#X connect 212 0 96 1;
#X connect 213 0 96 3;
#X connect 214 0 96 2;
#X connect 215 0 30 1;
#X connect 216 0 115 1;
#X connect 217 0 92 0;
#X connect 217 1 92 1;
#X connect 218 0 90 0;
#X connect 219 0 85 0;
#X connect 222 0 233 0;
#X connect 223 0 224 0;
#X connect 224 0 238 0;
#X connect 225 0 226 0;
#X connect 226 0 46 0;
#X connect 227 0 19 0;
#X connect 228 0 230 0;
#X connect 228 0 117 1;
#X connect 229 0 230 0;
#X connect 230 0 231 0;
#X connect 231 0 232 0;
#X connect 232 0 222 0;
#X connect 233 0 234 0;
#X connect 234 0 235 0;
#X connect 235 0 20 0;
#X connect 235 0 243 1;
#X connect 236 0 87 0;
#X connect 237 0 10 1;
#X connect 238 0 239 0;
#X connect 239 0 225 0;
#X connect 240 0 28 1;
#X connect 241 0 29 0;
#X connect 243 0 17 0;
#X connect 244 0 263 1;
#X connect 245 0 244 0;
#X connect 246 0 245 0;
#X connect 246 1 245 1;
#X connect 247 0 262 1;
#X connect 248 0 254 0;
#X connect 248 1 254 1;
#X connect 249 0 331 0;
#X connect 250 0 286 0;
#X connect 251 0 277 0;
#X connect 251 0 275 1;
#X connect 252 0 286 1;
#X connect 253 0 345 0;
#X connect 254 0 247 0;
#X connect 255 0 332 0;
#X connect 256 0 273 0;
#X connect 257 0 258 0;
#X connect 257 0 259 0;
#X connect 260 0 271 0;
#X connect 261 0 439 0;
#X connect 262 0 449 0;
#X connect 263 0 449 0;
#X connect 264 0 287 0;
#X connect 265 0 264 0;
#X connect 265 1 264 1;
#X connect 267 0 315 0;
#X connect 268 0 267 1;
#X connect 269 0 268 0;
#X connect 270 0 269 0;
#X connect 270 1 269 1;
#X connect 271 0 452 0;
#X connect 271 0 453 0;
#X connect 272 0 289 0;
#X connect 273 0 250 0;
#X connect 273 0 253 0;
#X connect 274 0 275 0;
#X connect 274 0 279 0;
#X connect 275 0 290 0;
#X connect 276 0 330 0;
#X connect 277 0 291 1;
#X connect 277 0 254 0;
#X connect 277 0 264 0;
#X connect 277 0 245 0;
#X connect 277 0 269 0;
#X connect 278 0 283 0;
#X connect 279 0 280 0;
#X connect 280 0 278 0;
#X connect 281 0 283 1;
#X connect 282 0 330 1;
#X connect 283 0 321 0;
#X connect 284 0 285 0;
#X connect 285 0 248 0;
#X connect 286 0 253 0;
#X connect 287 0 261 1;
#X connect 288 0 316 0;
#X connect 289 0 261 0;
#X connect 289 0 267 0;
#X connect 289 0 274 0;
#X connect 290 0 276 0;
#X connect 291 0 455 0;
#X connect 297 0 314 0;
#X connect 298 0 310 1;
#X connect 299 0 311 1;
#X connect 300 0 270 0;
#X connect 301 0 306 0;
#X connect 302 0 303 1;
#X connect 303 0 306 0;
#X connect 304 0 306 0;
#X connect 305 0 304 1;
#X connect 306 0 307 0;
#X connect 307 0 265 0;
#X connect 308 0 246 0;
#X connect 309 0 312 0;
#X connect 310 0 312 0;
#X connect 311 0 312 0;
#X connect 312 0 300 0;
#X connect 313 0 284 0;
#X connect 314 0 320 0;
#X connect 314 1 320 1;
#X connect 315 0 263 0;
#X connect 316 0 315 1;
#X connect 317 0 288 0;
#X connect 317 0 439 0;
#X connect 318 0 286 1;
#X connect 319 0 328 0;
#X connect 320 0 251 0;
#X connect 321 0 320 0;
#X connect 322 0 279 1;
#X connect 322 0 256 0;
#X connect 322 0 249 0;
#X connect 323 0 324 0;
#X connect 324 0 325 0;
#X connect 324 1 325 1;
#X connect 325 0 322 0;
#X connect 326 0 325 0;
#X connect 327 0 430 0;
#X connect 328 0 318 0;
#X connect 329 0 307 0;
#X connect 329 0 313 0;
#X connect 329 0 282 0;
#X connect 330 0 326 0;
#X connect 331 0 346 0;
#X connect 332 0 462 0;
#X connect 333 0 334 0;
#X connect 334 0 321 0;
#X connect 335 0 321 0;
#X connect 336 0 335 0;
#X connect 337 0 340 0;
#X connect 338 0 340 0;
#X connect 339 0 340 0;
#X connect 340 0 308 0;
#X connect 341 0 344 0;
#X connect 342 0 344 0;
#X connect 343 0 344 0;
#X connect 344 0 313 0;
#X connect 345 0 255 0;
#X connect 346 0 250 0;
#X connect 346 0 253 0;
#X connect 347 0 435 0;
#X connect 347 0 455 1;
#X connect 348 0 435 0;
#X connect 348 0 455 1;
#X connect 349 0 311 0;
#X connect 349 0 304 0;
#X connect 349 0 339 0;
#X connect 349 0 343 0;
#X connect 350 0 310 0;
#X connect 350 0 303 0;
#X connect 350 0 338 0;
#X connect 350 0 342 0;
#X connect 351 0 425 0;
#X connect 351 0 427 0;
#X connect 351 0 426 0;
#X connect 352 0 361 1;
#X connect 353 0 309 1;
#X connect 354 0 359 1;
#X connect 355 0 301 1;
#X connect 356 0 361 0;
#X connect 356 0 359 0;
#X connect 356 0 358 0;
#X connect 356 0 360 0;
#X connect 357 0 309 0;
#X connect 357 0 301 0;
#X connect 357 0 337 0;
#X connect 357 0 341 0;
#X connect 358 0 340 0;
#X connect 359 0 306 0;
#X connect 360 0 344 0;
#X connect 361 0 312 0;
#X connect 362 0 348 0;
#X connect 363 0 347 0;
#X connect 364 0 338 1;
#X connect 365 0 339 1;
#X connect 366 0 342 1;
#X connect 367 0 343 1;
#X connect 368 0 358 1;
#X connect 369 0 337 1;
#X connect 370 0 360 1;
#X connect 371 0 341 1;
#X connect 372 0 351 0;
#X connect 373 0 431 0;
#X connect 374 0 431 0;
#X connect 375 0 431 0;
#X connect 376 0 448 0;
#X connect 377 0 448 0;
#X connect 378 0 448 0;
#X connect 379 0 382 0;
#X connect 380 0 382 0;
#X connect 381 0 382 0;
#X connect 382 0 319 0;
#X connect 383 0 375 0;
#X connect 383 0 378 0;
#X connect 383 0 381 0;
#X connect 383 0 412 0;
#X connect 383 0 404 0;
#X connect 384 0 374 0;
#X connect 384 0 377 0;
#X connect 384 0 380 0;
#X connect 384 0 411 0;
#X connect 384 0 403 0;
#X connect 385 0 448 0;
#X connect 386 0 431 0;
#X connect 387 0 386 0;
#X connect 387 0 385 0;
#X connect 387 0 389 0;
#X connect 387 0 414 0;
#X connect 387 0 405 0;
#X connect 388 0 373 0;
#X connect 388 0 376 0;
#X connect 388 0 379 0;
#X connect 388 0 410 0;
#X connect 388 0 402 0;
#X connect 389 0 382 0;
#X connect 390 0 380 1;
#X connect 391 0 381 1;
#X connect 392 0 389 1;
#X connect 393 0 379 1;
#X connect 394 0 374 1;
#X connect 395 0 375 1;
#X connect 396 0 386 1;
#X connect 397 0 373 1;
#X connect 398 0 377 1;
#X connect 399 0 378 1;
#X connect 400 0 385 1;
#X connect 401 0 376 1;
#X connect 402 0 432 0;
#X connect 403 0 432 0;
#X connect 404 0 432 0;
#X connect 405 0 432 0;
#X connect 406 0 403 1;
#X connect 406 0 347 1;
#X connect 407 0 404 1;
#X connect 407 0 348 1;
#X connect 408 0 405 1;
#X connect 409 0 402 1;
#X connect 410 0 413 0;
#X connect 411 0 413 0;
#X connect 412 0 413 0;
#X connect 413 0 297 0;
#X connect 414 0 413 0;
#X connect 415 0 411 1;
#X connect 416 0 412 1;
#X connect 417 0 414 1;
#X connect 418 0 410 1;
#X connect 420 0 291 0;
#X connect 421 0 334 1;
#X connect 421 0 348 1;
#X connect 421 0 440 0;
#X connect 421 0 434 0;
#X connect 422 0 335 1;
#X connect 422 0 347 1;
#X connect 422 0 441 0;
#X connect 424 0 255 1;
#X connect 425 0 332 1;
#X connect 426 0 332 3;
#X connect 427 0 332 2;
#X connect 428 0 273 1;
#X connect 429 0 346 1;
#X connect 430 0 328 0;
#X connect 430 1 328 1;
#X connect 431 0 326 0;
#X connect 432 0 321 0;
#X connect 434 0 445 0;
#X connect 435 0 436 0;
#X connect 436 0 450 0;
#X connect 437 0 438 0;
#X connect 438 0 289 0;
#X connect 439 0 262 0;
#X connect 440 0 348 1;
#X connect 440 0 442 0;
#X connect 441 0 442 0;
#X connect 441 0 347 1;
#X connect 442 0 443 0;
#X connect 443 0 444 0;
#X connect 444 0 434 0;
#X connect 444 0 455 1;
#X connect 445 0 446 0;
#X connect 446 0 447 0;
#X connect 447 0 263 0;
#X connect 448 0 323 0;
#X connect 449 0 253 1;
#X connect 450 0 451 0;
#X connect 451 0 437 0;
#X connect 452 0 271 1;
#X connect 453 0 272 0;
#X connect 455 0 260 0;
#X connect 457 0 114 0;
#X connect 458 0 457 1;
#X connect 459 0 457 2;
#X connect 460 0 457 4;
#X connect 461 0 457 3;
#X connect 462 0 456 0;
#X connect 462 0 266 1;
#X connect 462 0 266 0;
#X connect 463 0 462 1;
#X connect 464 0 462 2;
#X connect 465 0 462 4;
#X connect 466 0 462 3;
#X coords 0 -1 1 1 310 408 2 100 10;
