#N canvas 1196 67 852 715 10;
#X obj 37 -47 r lo;
#X obj -109 821 s env0;
#X obj -105 747 env~;
#X obj 30 101 cnv 15 129 524 empty empty AUDIO_ANALYSE 25 18 0 10 -1
-262144 0;
#X obj 12 670 s fll0;
#X obj 34 126 cnv 10 123 245 empty empty empty -1 148 0 15 -262144
-1 0;
#X floatatom 124 163 3 0 0 0 ><_snslbt - -, f 3;
#X floatatom 124 242 3 0 0 0 stp_snslbt - -, f 3;
#X floatatom 36 301 3 0 0 2 - - -, f 3;
#X floatatom 80 349 3 0 0 2 send_"a - -, f 3;
#X floatatom 124 181 3 0 0 0 ><_progre - -, f 3;
#X obj 57 132 tgl 22 0 empty empty C 7 11 2 12 -228856 -1 -1 0 1;
#X msg 71 -23 0;
#X floatatom 124 259 3 0 0 0 progr - -, f 3;
#X obj 9 643 * 0.01;
#X msg 101 -23 1;
#X floatatom 60 301 3 0 0 2 - - -, f 3;
#X floatatom 124 276 3 0 0 0 steps - -, f 3;
#X floatatom 83 301 3 0 0 3 50=0 - -, f 3;
#X floatatom 104 301 3 0 0 1 - - -, f 3;
#X floatatom 127 301 3 0 0 1 - - -, f 3;
#X floatatom -47 689 3 0 0 0 - - -, f 3;
#X obj 36 132 tgl 22 0 empty empty A 7 11 2 12 -228856 -1 -1 0 1;
#X obj -62 634 *~;
#X obj 60 348 tgl 16 0 empty empty bck 1 8 0 8 -1 -262144 -262144 0
1;
#X obj 82 670 sel;
#X msg 82 692 75;
#X floatatom -108 769 5 0 0 0 - - -, f 5;
#X obj -108 788 spigot-toggle_jaune;
#X obj -62 604 *~;
#X obj -67 574 r~ C;
#X obj 124 218 tgl 22 0 empty empty stp 1 11 0 11 -228856 -1 -1 0 1
;
#X obj -871 -745 inlet;
#X obj 124 138 tgl 22 0 empty empty >< 4 11 0 12 -228856 -1 -1 0 1
;
#X msg 40 -23 1;
#X obj 152 -47 r lo;
#X obj 34 375 cnv 10 123 245 empty empty empty -1 148 0 15 -262144
-1 0;
#X floatatom 125 417 3 0 0 0 ><_snslbt - -, f 3;
#X floatatom 125 498 3 0 0 0 stp_snslbt - -, f 3;
#X floatatom 37 555 3 0 0 2 - - -, f 3;
#X floatatom 81 602 3 0 0 2 send_"a - -, f 3;
#X floatatom 125 437 3 0 0 0 ><_progre - -, f 3;
#X obj 58 380 tgl 22 0 empty empty D 7 11 2 12 -228856 -1 -1 0 1;
#X msg 186 -23 0;
#X floatatom 125 515 3 0 0 0 progr - -, f 3;
#X obj 581 437 * 0.01;
#X msg 216 -23 1;
#X floatatom 61 555 3 0 0 2 - - -, f 3;
#X floatatom 125 532 3 0 0 0 steps - -, f 3;
#X floatatom 84 555 3 0 0 3 50=0 - -, f 3;
#X floatatom 105 555 3 0 0 1 - - -, f 3;
#X floatatom 127 555 3 0 0 1 - - -, f 3;
#X floatatom 508 522 3 0 0 0 - - -, f 3;
#X obj 36 380 tgl 22 0 empty empty B 7 11 2 12 -228856 -1 -1 0 1;
#X obj 486 493 *~;
#X obj 61 600 tgl 16 0 empty empty bck 1 8 0 8 -1 -262144 -262144 0
1;
#X obj 350 363 sel;
#X msg 350 385 75;
#X obj 486 463 *~;
#X obj 125 472 tgl 22 0 empty empty stp 1 11 0 11 -228856 -1 -1 0 1
;
#X obj 125 391 tgl 22 0 empty empty >< 4 11 0 12 -228856 -1 -1 0 1
;
#X msg 155 -23 1;
#X obj 584 464 s fll1;
#X obj 481 433 r~ C1;
#X obj 438 460 r~ A1;
#X obj -52 822 s env1;
#X obj -56 754 env~;
#X floatatom -55 777 5 0 0 0 - - -, f 5;
#X obj -51 796 spigot-toggle_jaune;
#X msg 250 261 75;
#X msg 250 281 25;
#X msg 250 241 5;
#X obj 250 219 r lo;
#X msg -102 508 75;
#X msg -102 528 25;
#X msg -102 488 5;
#X obj -102 467 r lo;
#X obj -163 695 *~;
#X obj -123 695 *~;
#X obj 336 579 fiddlebonk;
#X obj 68 746 fiddlebonk;
#X obj -110 601 r~ A0;
#X connect 0 0 12 0;
#X connect 0 0 34 0;
#X connect 0 0 15 0;
#X connect 2 0 27 0;
#X connect 6 0 80 5;
#X connect 7 0 80 8;
#X connect 8 0 80 7;
#X connect 9 0 14 0;
#X connect 10 0 80 3;
#X connect 11 0 29 1;
#X connect 11 0 77 1;
#X connect 13 0 80 6;
#X connect 14 0 4 0;
#X connect 15 0 7 0;
#X connect 16 0 80 9;
#X connect 17 0 80 4;
#X connect 18 0 80 10;
#X connect 19 0 80 11;
#X connect 20 0 80 12;
#X connect 21 0 80 1;
#X connect 22 0 23 1;
#X connect 22 0 77 1;
#X connect 23 0 80 0;
#X connect 24 0 25 0;
#X connect 25 1 26 0;
#X connect 26 0 9 0;
#X connect 27 0 28 0;
#X connect 28 0 1 0;
#X connect 29 0 80 0;
#X connect 30 0 29 0;
#X connect 31 0 80 2;
#X connect 33 0 21 0;
#X connect 34 0 6 0;
#X connect 35 0 43 0;
#X connect 35 0 61 0;
#X connect 35 0 46 0;
#X connect 37 0 79 5;
#X connect 38 0 79 8;
#X connect 39 0 79 7;
#X connect 40 0 45 0;
#X connect 41 0 79 3;
#X connect 42 0 58 1;
#X connect 42 0 78 1;
#X connect 44 0 79 6;
#X connect 45 0 62 0;
#X connect 46 0 38 0;
#X connect 47 0 79 9;
#X connect 48 0 79 4;
#X connect 49 0 79 10;
#X connect 50 0 79 11;
#X connect 51 0 79 12;
#X connect 52 0 79 1;
#X connect 53 0 54 1;
#X connect 53 0 78 1;
#X connect 54 0 79 0;
#X connect 55 0 56 0;
#X connect 56 1 57 0;
#X connect 57 0 40 0;
#X connect 58 0 79 0;
#X connect 59 0 79 2;
#X connect 60 0 52 0;
#X connect 61 0 37 0;
#X connect 63 0 58 0;
#X connect 64 0 54 0;
#X connect 64 0 78 0;
#X connect 66 0 67 0;
#X connect 67 0 68 0;
#X connect 68 0 65 0;
#X connect 69 0 8 0;
#X connect 69 0 18 0;
#X connect 69 0 20 0;
#X connect 69 0 70 0;
#X connect 70 0 16 0;
#X connect 70 0 19 0;
#X connect 71 0 17 0;
#X connect 71 0 69 0;
#X connect 72 0 71 0;
#X connect 73 0 74 0;
#X connect 73 0 39 0;
#X connect 73 0 49 0;
#X connect 73 0 51 0;
#X connect 74 0 47 0;
#X connect 74 0 50 0;
#X connect 75 0 73 0;
#X connect 75 0 48 0;
#X connect 76 0 75 0;
#X connect 79 0 40 0;
#X connect 80 0 9 0;
#X connect 81 0 23 0;
#X connect 81 0 77 0;
#X coords 0 -1 1 1 130 525 1 30 100;
