#N canvas 763 185 423 422 10;
#X obj 134 117 t f f;
#X obj 137 68 hsl 128 15 0 127 0 0 empty empty empty -2 -8 0 10 -262144
-1 -1 0 1;
#X obj 136 83 cnv 10 159 20 empty \$0canvas1 empty 20 12 0 14 -24198
-258699 0;
#X text 324 222 label-color;
#X msg 161 222 16;
#X floatatom 161 179 5 0 0 0 - - -, f 5;
#X msg 212 221 15;
#X msg 257 221 14;
#X msg 296 221 13;
#X msg 161 318 color \$1 \$2;
#X obj 161 263 t f f;
#X obj 161 292 pack f f;
#X obj 37 37 inlet;
#X obj 144 392 s \$0canvas1;
#X obj 54 87 * 2;
#X msg 46 158 vis_size \$1 20;
#X obj 257 196 moses 190;
#X obj 161 154 moses 160;
#X obj 212 176 moses 170;
#X connect 0 0 15 0;
#X connect 0 1 17 0;
#X connect 1 0 0 0;
#X connect 4 0 10 0;
#X connect 5 0 4 0;
#X connect 6 0 10 0;
#X connect 7 0 10 0;
#X connect 8 0 10 0;
#X connect 9 0 13 0;
#X connect 10 0 11 0;
#X connect 10 1 11 1;
#X connect 11 0 9 0;
#X connect 12 0 14 0;
#X connect 14 0 0 0;
#X connect 15 0 13 0;
#X connect 16 0 7 0;
#X connect 16 1 8 0;
#X connect 17 0 5 0;
#X connect 17 1 18 0;
#X connect 18 0 6 0;
#X connect 18 1 16 0;
#X coords 0 -1 1 1 200 20 2 135 82;
