#N canvas 15 22 1037 332 10;
#N canvas 922 592 462 312 rh_scalelog 0;
#X obj 20 155 exp;
#X obj 98 87 log;
#X obj 194 84 log;
#X obj 123 123 t b f;
#X obj 123 145 -;
#X obj 20 183 outlet;
#X obj 20 19 inlet;
#X obj 98 23 inlet;
#X obj 194 24 inlet;
#X obj 20 107 *;
#X obj 20 130 -;
#X connect 0 0 5 0;
#X connect 1 0 3 0;
#X connect 1 0 10 1;
#X connect 2 0 4 0;
#X connect 3 0 4 0;
#X connect 3 1 4 1;
#X connect 4 0 9 1;
#X connect 6 0 9 0;
#X connect 7 0 1 0;
#X connect 8 0 2 0;
#X connect 9 0 10 0;
#X connect 10 0 0 0;
#X restore 151 225 pd rh_scalelog;
#X floatatom 111 225 5 0 0 0 - - -, f 5;
#X floatatom 258 226 12 0 0 0 - - -, f 12;
#X obj 249 250 hsl 300 50 0 9000 0 0 empty empty empty -2 -8 0 10 -262144
-1 -1 664 1;
#X floatatom 18 225 5 0 0 0 - - -, f 5;
#X obj 97 120 inlet;
#X obj 147 120 outlet;
#X obj 59 223 * 0.01;
#X msg 198 202 1;
#X obj 86 186 r lo;
#X msg 244 202 100;
#X connect 0 0 2 0;
#X connect 1 0 0 0;
#X connect 2 0 3 0;
#X connect 3 0 6 0;
#X connect 4 0 7 0;
#X connect 5 0 4 0;
#X connect 7 0 1 0;
#X connect 8 0 0 1;
#X connect 9 0 8 0;
#X connect 9 0 10 0;
#X connect 10 0 0 2;
