#N canvas 358 162 1322 866 10;
#X floatatom 752 -603 5 0 0 0 - - -, f 5;
#X obj 628 -675 inlet;
#X obj 625 -730 inlet;
#X floatatom 853 -674 5 0 0 0 - - -, f 5;
#X obj 840 -724 inlet;
#X obj 820 -433 *;
#X obj 817 -459 t b f;
#X obj 1084 -252 delay;
#X floatatom 818 -410 5 0 0 0 - - -, f 5;
#X obj 811 -249 delay;
#X obj 902 -272 t b f;
#X floatatom 930 -316 5 0 0 0 - - -, f 5;
#X floatatom 904 -226 12 0 0 0 - - -, f 12;
#X obj 774 -540 * 1;
#X obj 903 -247 * 1;
#X obj 1002 -727 inlet;
#X obj 868 -541 r lo;
#X obj 862 -102 outlet~;
#X obj 864 -135 vline~;
#X obj 1082 -204 pack f f;
#X obj 812 -186 pack f f;
#X obj 643 -628 bng 15 250 50 0 empty empty empty 17 7 0 10 -262144
-1 -1;
#X obj 875 -435 *;
#X floatatom 873 -412 5 0 0 0 - - -, f 5;
#X obj 922 -461 - 1;
#X obj 921 -436 * -1;
#X floatatom 919 -412 5 0 0 0 - - -, f 5;
#X obj 875 -461 t b f;
#X msg 863 -494 0;
#X obj 1085 -274 bng 15 250 50 0 empty empty empty 17 7 0 10 -262144
-1 -1;
#X obj 813 -273 bng 15 250 50 0 empty empty empty 17 7 0 10 -262144
-1 -1;
#X obj 643 -574 spigot-toggle_jaunenoir;
#X obj 654 -609 r lo;
#X obj 1136 -466 t b f;
#X floatatom 1138 -424 12 0 0 0 - - -, f 12;
#X text 1391 -497 crop;
#X obj 1309 -468 t b f;
#X floatatom 1307 -416 12 0 0 0 - - -, f 12;
#X text 1204 -445 T*Bang/inv/T*ramp;
#X obj 2609 -260 t b f;
#X floatatom 1381 -697 12 0 0 0 - - -, f 12;
#X obj 2609 -226 *;
#X floatatom 1082 -663 5 0 0 0 - - -, f 5;
#X obj 1139 -444 * 1;
#X obj 1309 -442 * 1;
#X obj 744 66 > 0;
#X floatatom 744 87 5 0 0 0 - - -, f 5;
#X obj 821 -21 line;
#X floatatom 822 1 12 0 0 0 - - -, f 12;
#X obj 658 -544 bng 15 250 50 0 empty empty empty 17 7 0 10 -262144
-1 -1;
#X obj 774 -560 f;
#X obj 716 -665 t b b b;
#X obj 856 -272 r lo;
#X obj 1086 -226 f;
#X obj 809 -210 f;
#X msg 855 -244 1;
#X obj 744 109 outlet;
#X obj 597 -173 spigot-toggle_jaunenoir;
#X obj 597 -273 spigot-toggle_jaunenoir;
#X obj 604 -330 - 1;
#X obj 604 -305 * -1;
#X obj 683 -403 spigot-toggle_jaunenoir;
#X obj 702 -417 r lo;
#X obj 696 -294 - 1;
#X obj 692 -271 * -1;
#X obj 402 -194 - 1;
#X obj 402 -171 * -1;
#X obj 645 -268 sel;
#X obj 647 -293 spigot-toggle_jaunenoir;
#X obj 659 -325 r lo;
#X obj 609 -448 r slctdisplayonoff1;
#X obj 596 -481 delay;
#X obj 402 -217 r ø>1;
#X obj 597 -141 s b@B;
#X obj 692 -185 r @B;
#X obj 1138 -267 - 1;
#X obj 1138 -242 * -1;
#X floatatom 1123 -149 5 0 0 0 - - -, f 5;
#X obj 811 -229 bng 15 250 50 0 empty empty empty 17 7 0 10 -262144
-1 -1;
#X obj 1196 -238 r ø@S1;
#X obj 1202 -210 sel;
#X msg 1200 -172 0;
#X obj 441 -586 r øSbangB;
#X obj 905 45 hsl 128 15 -2 2 0 0 empty empty empty -2 -8 0 10 -262144
-1 -1 9525 1;
#X obj 1390 -452 inlet;
#X obj 931 -346 inlet;
#X floatatom 1376 -617 12 0 0 0 - - -, f 12;
#X obj 1373 -676 - 1;
#X obj 1373 -651 * -1;
#X floatatom 1175 -628 5 0 0 0 - - -, f 5;
#X obj 1088 -444 *;
#X obj 1085 -470 t b f;
#X floatatom 1086 -421 5 0 0 0 - - -, f 5;
#X obj 1136 -552 r lo;
#X obj 1315 -521 *;
#X floatatom 1313 -498 5 0 0 0 - - -, f 5;
#X floatatom 1359 -498 5 0 0 0 - - -, f 5;
#X obj 1315 -547 t b f;
#X msg 1131 -505 0;
#X obj 1398 -401 inlet;
#X obj 1181 -399 inlet;
#X obj 1128 -391 t b f;
#X floatatom 1130 -349 12 0 0 0 - - -, f 12;
#X obj 1131 -369 * 1;
#X floatatom 1170 -369 12 0 0 0 - - -, f 12;
#X obj 1298 -399 t b f;
#X floatatom 1300 -357 12 0 0 0 - - -, f 12;
#X obj 1301 -377 * 1;
#X floatatom 1340 -377 12 0 0 0 - - -, f 12;
#X connect 0 0 50 1;
#X connect 0 0 71 1;
#X connect 1 0 21 0;
#X connect 2 0 0 0;
#X connect 3 0 6 0;
#X connect 3 0 24 0;
#X connect 4 0 3 0;
#X connect 5 0 8 0;
#X connect 6 0 5 0;
#X connect 6 1 5 1;
#X connect 7 0 53 0;
#X connect 8 0 9 1;
#X connect 9 0 78 0;
#X connect 10 0 14 0;
#X connect 10 1 14 1;
#X connect 11 0 14 0;
#X connect 12 0 20 1;
#X connect 13 0 5 0;
#X connect 13 0 22 0;
#X connect 13 0 90 0;
#X connect 13 0 94 0;
#X connect 14 0 12 0;
#X connect 15 0 42 0;
#X connect 16 0 28 0;
#X connect 18 0 17 0;
#X connect 19 0 47 0;
#X connect 19 0 18 0;
#X connect 20 0 47 0;
#X connect 20 0 18 0;
#X connect 21 0 31 0;
#X connect 22 0 23 0;
#X connect 23 0 10 0;
#X connect 24 0 25 0;
#X connect 25 0 26 0;
#X connect 26 0 27 0;
#X connect 27 0 22 0;
#X connect 27 1 22 1;
#X connect 28 0 24 0;
#X connect 28 0 6 0;
#X connect 29 0 7 0;
#X connect 30 0 9 0;
#X connect 30 0 29 0;
#X connect 31 0 49 0;
#X connect 32 0 31 1;
#X connect 33 0 43 0;
#X connect 33 1 43 1;
#X connect 34 0 101 0;
#X connect 36 0 44 0;
#X connect 36 1 44 1;
#X connect 37 0 105 0;
#X connect 39 0 41 0;
#X connect 39 1 41 1;
#X connect 40 0 87 0;
#X connect 42 0 33 0;
#X connect 42 0 89 0;
#X connect 43 0 34 0;
#X connect 44 0 37 0;
#X connect 45 0 46 0;
#X connect 46 0 56 0;
#X connect 47 0 48 0;
#X connect 48 0 45 0;
#X connect 48 0 83 0;
#X connect 49 0 51 0;
#X connect 49 0 71 0;
#X connect 49 0 30 0;
#X connect 50 0 13 0;
#X connect 51 2 50 0;
#X connect 52 0 55 0;
#X connect 53 0 19 0;
#X connect 54 0 20 0;
#X connect 55 0 54 1;
#X connect 57 0 73 0;
#X connect 57 0 9 0;
#X connect 58 0 57 0;
#X connect 59 0 60 0;
#X connect 60 0 58 1;
#X connect 61 0 75 0;
#X connect 62 0 61 1;
#X connect 63 0 64 0;
#X connect 64 0 61 1;
#X connect 64 0 77 0;
#X connect 65 0 66 0;
#X connect 66 0 61 1;
#X connect 66 0 68 1;
#X connect 66 0 77 0;
#X connect 67 0 78 0;
#X connect 68 0 67 0;
#X connect 69 0 68 1;
#X connect 70 0 59 0;
#X connect 70 0 61 0;
#X connect 70 0 68 0;
#X connect 71 0 58 0;
#X connect 72 0 65 0;
#X connect 74 0 57 1;
#X connect 74 0 63 0;
#X connect 75 0 76 0;
#X connect 76 0 77 0;
#X connect 77 0 53 1;
#X connect 78 0 54 0;
#X connect 79 0 80 0;
#X connect 80 1 81 0;
#X connect 81 0 77 0;
#X connect 82 0 49 0;
#X connect 84 0 44 0;
#X connect 84 0 40 0;
#X connect 85 0 11 0;
#X connect 86 0 43 0;
#X connect 87 0 88 0;
#X connect 88 0 86 0;
#X connect 89 0 91 0;
#X connect 89 0 96 0;
#X connect 90 0 92 0;
#X connect 91 0 90 0;
#X connect 91 1 90 1;
#X connect 92 0 33 0;
#X connect 93 0 98 0;
#X connect 94 0 95 0;
#X connect 95 0 36 0;
#X connect 96 0 97 0;
#X connect 97 0 94 0;
#X connect 97 1 94 1;
#X connect 99 0 108 0;
#X connect 100 0 104 0;
#X connect 101 0 103 0;
#X connect 101 1 103 1;
#X connect 102 0 7 1;
#X connect 103 0 102 0;
#X connect 104 0 103 0;
#X connect 105 0 107 0;
#X connect 105 1 107 1;
#X connect 106 0 19 1;
#X connect 107 0 106 0;
#X connect 108 0 107 0;
