#N canvas 0 150 1275 878 10;
#X floatatom -380 -631 5 0 0 0 - - -, f 5;
#X obj -771 -648 inlet;
#X obj -590 -578 bng 15 250 50 0 empty empty empty 17 7 0 10 -262144
-1 -1;
#X obj -745 -734 inlet;
#X floatatom -517 -678 5 0 0 0 - - -, f 5;
#X obj -530 -728 inlet;
#X obj -366 -473 *;
#X obj -369 -499 t b f;
#X floatatom -366 -451 5 0 0 0 - - -, f 5;
#X obj -306 -284 t b f;
#X obj -260 -141 inlet;
#X obj 242 -528 inlet;
#X floatatom -259 -243 5 0 0 0 - - -, f 5;
#X floatatom -312 -178 5 0 0 0 - - -, f 5;
#X obj -305 -262 * 1;
#X obj -1200 -580 nbx 5 14 -1e+37 1e+37 0 0 empty empty empty 0 -8
0 10 -262144 -1 -1 0 256;
#X obj -368 -731 inlet;
#X obj -1200 -559 spigot-toggle_jaunenoir;
#X obj -213 -553 r lo;
#X obj -389 73 outlet~;
#X obj -330 -19 vline~;
#X obj -1202 -643 r directtuchpad;
#X obj -1153 -706 - 1;
#X obj -1155 -682 * -1;
#X floatatom -1015 -813 5 0 0 0 - - -, f 5;
#X obj -1092 -643 r LNR+TUCH;
#X obj -930 -644 r freestepsouts;
#X obj -1013 -645 r steps_lnr;
#X obj -311 -475 *;
#X floatatom -311 -453 5 0 0 0 - - -, f 5;
#X obj -264 -501 - 1;
#X obj -265 -476 * -1;
#X floatatom -265 -453 5 0 0 0 - - -, f 5;
#X obj -311 -501 t b f;
#X msg -216 -532 0;
#X obj -1096 -560 spigot-toggle_jaunenoir;
#X obj -930 -478 spigot-toggle_jaunenoir;
#X obj -903 -477 r lo;
#X text 351 -697 T*Bang/inv/T*ramp;
#X obj -1176 -405 - 1;
#X obj -1176 -375 * -1;
#X obj -1202 -605 r directstopad;
#X obj -977 -719 - 1;
#X obj -978 -696 * -1;
#X obj -1100 -793 r offmetro;
#X obj -1023 -777 - 1;
#X obj -1024 -754 * -1;
#X obj -697 -406 sel;
#X obj -516 15 > 0;
#X floatatom -514 45 5 0 0 0 - - -, f 5;
#X obj -530 73 s ramptooff;
#X obj 417 -893 r directtuchpad;
#X obj 393 -783 t b f;
#X obj 422 -842 - 1;
#X obj 397 -813 * -1;
#X obj -518 -33 line;
#X floatatom -514 -5 5 0 0 0 - - -, f 5;
#X obj -1110 -519 r BLNR;
#X obj -1108 -482 spigot-toggle_jaunenoir;
#X obj -1006 -132 t b f;
#X obj -1006 -105 * 1;
#X obj -445 -532 * 1;
#X obj -1024 -477 spigot-toggle_jaunenoir;
#X msg -654 -701 1 0;
#X obj -929 -508 bng 15 250 50 0 empty empty empty 17 7 0 10 -262144
-1 -1;
#X obj -611 -809 ctlin 1;
#X obj -611 -789 * 10;
#X obj -608 -759 spigot-toggle_jaunenoir;
#X obj -447 -558 f;
#X obj -527 -588 t b b b;
#X obj 420 -868 spigot-toggle_red;
#X obj 430 -959 r freestepsouts;
#X obj 394 -758 * 1;
#X obj -161 -291 delay;
#X obj -394 -285 delay;
#X obj -152 -214 pack f f;
#X obj -397 -160 pack f f;
#X obj -155 -341 bng 15 250 50 0 empty empty empty 17 7 0 10 -262144
-1 -1;
#X obj -393 -361 bng 15 250 50 0 empty empty empty 17 7 0 10 -262144
-1 -1;
#X obj -112 -274 * -1;
#X obj -353 -286 r lo;
#X obj -152 -241 f;
#X floatatom -112 -252 5 0 0 0 - - -, f 5;
#X obj -394 -185 f;
#X obj -153 -259 bng 15 250 50 0 empty empty empty 17 7 0 10 -262144
-1 -1;
#X obj -393 -265 bng 15 250 50 0 empty empty empty 17 7 0 10 -262144
-1 -1;
#X obj -594 -86 s b@A;
#X obj -582 -393 r slctdisplayonoff;
#X obj -499 -130 r @A;
#X obj -594 -118 spigot-toggle_jaunenoir;
#X obj -594 -218 spigot-toggle_jaunenoir;
#X obj -587 -275 - 1;
#X obj -587 -250 * -1;
#X obj -508 -348 spigot-toggle_jaunenoir;
#X obj -110 -301 - 1;
#X obj -489 -362 r lo;
#X obj -599 -450 delay;
#X obj -495 -239 - 1;
#X obj -499 -216 * -1;
#X obj -789 -162 r ø>;
#X obj -789 -139 - 1;
#X obj -789 -116 * -1;
#X obj -546 -213 sel;
#X obj -544 -238 spigot-toggle_jaunenoir;
#X obj -532 -270 r lo;
#X obj -86 -31 sel;
#X msg -88 7 0;
#X obj -92 -59 r ø@S;
#X obj -722 -298 r øAtiTS1;
#X obj -722 -278 r øSbangA;
#X obj -48 -533 t b f;
#X floatatom -46 -491 12 0 0 0 - - -, f 12;
#X text 207 -564 crop;
#X obj 125 -535 t b f;
#X floatatom 123 -483 12 0 0 0 - - -, f 12;
#X text 20 -512 T*Bang/inv/T*ramp;
#X obj -45 -511 * 1;
#X floatatom 192 -684 12 0 0 0 - - -, f 12;
#X obj 189 -718 * -1;
#X floatatom -9 -695 5 0 0 0 - - -, f 5;
#X obj -96 -511 *;
#X obj -99 -537 t b f;
#X floatatom -98 -488 5 0 0 0 - - -, f 5;
#X obj -48 -619 r lo;
#X obj 131 -588 *;
#X floatatom 129 -565 5 0 0 0 - - -, f 5;
#X floatatom 135 -657 5 0 0 0 - - -, f 5;
#X obj 131 -614 t b f;
#X msg -49 -566 0;
#X obj -3 -466 inlet;
#X obj -56 -458 t b f;
#X floatatom -54 -416 12 0 0 0 - - -, f 12;
#X obj -53 -436 * 1;
#X floatatom -14 -436 12 0 0 0 - - -, f 12;
#X obj 114 -466 t b f;
#X floatatom 116 -424 12 0 0 0 - - -, f 12;
#X obj 117 -444 * 1;
#X floatatom 156 -444 12 0 0 0 - - -, f 12;
#X obj 200 -745 - 1;
#X obj 125 -509 * 1;
#X obj 242 -478 inlet;
#X msg -353 -261 1;
#X connect 0 0 68 1;
#X connect 0 0 96 1;
#X connect 0 0 120 0;
#X connect 1 0 0 0;
#X connect 2 0 69 0;
#X connect 2 0 96 0;
#X connect 2 0 78 0;
#X connect 3 0 64 0;
#X connect 4 0 7 0;
#X connect 4 0 30 0;
#X connect 5 0 4 0;
#X connect 6 0 8 0;
#X connect 7 0 6 0;
#X connect 7 1 6 1;
#X connect 8 0 74 1;
#X connect 9 0 14 0;
#X connect 9 1 14 1;
#X connect 10 0 12 0;
#X connect 11 0 139 0;
#X connect 11 0 138 0;
#X connect 12 0 14 0;
#X connect 13 0 76 1;
#X connect 14 0 13 0;
#X connect 15 0 17 0;
#X connect 15 0 35 0;
#X connect 16 0 119 0;
#X connect 17 0 39 0;
#X connect 18 0 34 0;
#X connect 20 0 19 0;
#X connect 21 0 17 1;
#X connect 21 0 22 0;
#X connect 21 0 63 0;
#X connect 22 0 23 0;
#X connect 23 0 35 1;
#X connect 23 0 82 0;
#X connect 24 0 45 0;
#X connect 25 0 35 1;
#X connect 25 0 42 0;
#X connect 26 0 36 1;
#X connect 27 0 42 0;
#X connect 27 0 62 1;
#X connect 28 0 29 0;
#X connect 29 0 9 0;
#X connect 30 0 31 0;
#X connect 31 0 32 0;
#X connect 32 0 33 0;
#X connect 33 0 28 0;
#X connect 33 1 28 1;
#X connect 34 0 30 0;
#X connect 34 0 7 0;
#X connect 35 0 58 1;
#X connect 35 0 59 0;
#X connect 36 0 2 0;
#X connect 37 0 36 1;
#X connect 39 0 40 0;
#X connect 40 0 47 0;
#X connect 41 0 15 0;
#X connect 41 0 67 1;
#X connect 42 0 43 0;
#X connect 43 0 36 1;
#X connect 44 0 24 0;
#X connect 45 0 46 0;
#X connect 47 0 74 0;
#X connect 47 1 73 0;
#X connect 48 0 49 0;
#X connect 49 0 50 0;
#X connect 51 0 70 0;
#X connect 52 0 72 0;
#X connect 52 1 72 1;
#X connect 53 0 54 0;
#X connect 54 0 52 0;
#X connect 55 0 56 0;
#X connect 56 0 48 0;
#X connect 57 0 58 0;
#X connect 57 0 62 0;
#X connect 58 0 2 0;
#X connect 59 0 60 0;
#X connect 59 1 60 1;
#X connect 60 0 55 0;
#X connect 60 0 20 0;
#X connect 61 0 6 0;
#X connect 61 0 28 0;
#X connect 61 0 124 0;
#X connect 62 0 2 0;
#X connect 63 0 0 0;
#X connect 64 0 36 0;
#X connect 65 0 66 0;
#X connect 66 0 67 0;
#X connect 67 0 0 0;
#X connect 68 0 61 0;
#X connect 69 2 68 0;
#X connect 70 0 53 0;
#X connect 71 0 70 1;
#X connect 73 0 84 0;
#X connect 74 0 85 0;
#X connect 75 0 55 0;
#X connect 75 0 20 0;
#X connect 76 0 55 0;
#X connect 76 0 20 0;
#X connect 77 0 73 0;
#X connect 78 0 77 0;
#X connect 78 0 74 0;
#X connect 79 0 82 0;
#X connect 80 0 141 0;
#X connect 81 0 75 0;
#X connect 82 0 81 1;
#X connect 83 0 76 0;
#X connect 84 0 81 0;
#X connect 85 0 83 0;
#X connect 87 0 91 0;
#X connect 87 0 93 0;
#X connect 87 0 103 0;
#X connect 88 0 89 1;
#X connect 88 0 97 0;
#X connect 89 0 86 0;
#X connect 89 0 74 0;
#X connect 90 0 89 0;
#X connect 91 0 92 0;
#X connect 92 0 90 1;
#X connect 93 0 94 0;
#X connect 94 0 79 0;
#X connect 95 0 93 1;
#X connect 96 0 90 0;
#X connect 97 0 98 0;
#X connect 98 0 93 1;
#X connect 98 0 82 0;
#X connect 99 0 100 0;
#X connect 100 0 101 0;
#X connect 101 0 93 1;
#X connect 101 0 103 1;
#X connect 101 0 82 0;
#X connect 102 0 85 0;
#X connect 103 0 102 0;
#X connect 104 0 103 1;
#X connect 105 1 106 0;
#X connect 106 0 82 0;
#X connect 107 0 105 0;
#X connect 110 0 116 0;
#X connect 110 1 116 1;
#X connect 111 0 130 0;
#X connect 113 0 139 0;
#X connect 113 1 139 1;
#X connect 114 0 134 0;
#X connect 116 0 111 0;
#X connect 117 0 116 0;
#X connect 118 0 117 0;
#X connect 119 0 121 0;
#X connect 119 0 126 0;
#X connect 120 0 122 0;
#X connect 121 0 120 0;
#X connect 121 1 120 1;
#X connect 122 0 110 0;
#X connect 123 0 128 0;
#X connect 124 0 125 0;
#X connect 125 0 113 0;
#X connect 126 0 127 0;
#X connect 127 0 124 0;
#X connect 127 1 124 1;
#X connect 129 0 133 0;
#X connect 130 0 132 0;
#X connect 130 1 132 1;
#X connect 131 0 73 1;
#X connect 132 0 131 0;
#X connect 133 0 132 0;
#X connect 134 0 136 0;
#X connect 134 1 136 1;
#X connect 135 0 75 1;
#X connect 136 0 135 0;
#X connect 137 0 136 0;
#X connect 138 0 118 0;
#X connect 139 0 114 0;
#X connect 140 0 137 0;
#X connect 141 0 83 1;
