#N canvas 78 176 970 852 10;
#X obj -755 4 pack 0 0;
#X obj -755 25 line;
#X floatatom -756 46 5 0 0 0 - - -, f 5;
#X floatatom -522 -432 5 0 0 0 - - -, f 5;
#X obj -760 175 outlet;
#X obj -1129 -762 inlet~;
#X obj -531 -606 inlet;
#X obj -596 -753 inlet;
#X obj -1037 -269 f;
#X obj -1005 -271 + 1;
#X floatatom -1036 -227 0 0 0 0 - - -;
#X floatatom -905 -610 0 0 0 0 sensibilité_>2_=_>_< - -;
#X obj -866 -639 inlet;
#X obj -476 -690 inlet;
#X floatatom -563 -552 0 0 0 0 tout_les_combien_ça_change_le_variant/note_A/R
- -;
#X floatatom -529 -352 5 0 0 0 25_norm - -, f 5;
#X obj -532 -401 r lo;
#X floatatom -1037 -112 5 0 0 0 - - -, f 5;
#X obj -1037 -177 bng 15 250 50 0 empty empty empty 17 7 0 10 -262144
-1 -1;
#X obj -624 -240 f;
#X obj -626 -209 pack 0 0;
#X obj -626 -188 line;
#X floatatom 13 -301 5 0 0 0 - - -, f 5;
#X obj -621 -442 f;
#X obj -588 -442 + 1;
#X obj -621 -442 f;
#X obj -628 -269 bng 15 250 50 0 empty empty empty 17 7 0 10 -262144
-1 -1;
#X obj -1036 -200 sel 0 1;
#X floatatom -851 -96 5 0 0 0 - - -, f 5;
#X obj -300 -880 loadbang;
#X obj -900 -684 bng 15 250 50 0 empty empty empty 17 7 0 10 -262144
-1 -1;
#X obj -1036 -248 mod 2;
#X obj -480 -418 inlet;
#X floatatom -590 -725 5 0 0 0 - - -, f 5;
#X floatatom -756 146 5 0 0 0 - - -, f 5;
#X floatatom -1038 -28 5 0 0 0 - - -, f 5;
#X obj -1037 -51 -;
#X floatatom -988 -112 5 0 0 0 - - -, f 5;
#X obj -988 -177 bng 15 250 50 0 empty empty empty 17 7 0 10 -262144
-1 -1;
#X floatatom -989 -28 5 0 0 0 - - -, f 5;
#X obj -988 -51 +;
#X msg -1036 -155 100;
#X msg -987 -155 0;
#X msg -528 -380 25;
#X floatatom -431 -353 5 0 0 0 25_norm - -, f 5;
#X obj -434 -402 r lo;
#X msg -430 -381 25;
#X obj -585 -241 f;
#X obj -589 -270 bng 15 250 50 0 empty empty empty 17 7 0 10 -262144
-1 -1;
#X obj -695 -91 inlet;
#X obj -621 -512 f;
#X obj -588 -512 + 1;
#X obj -621 -512 f;
#X obj -620 -490 mod 2;
#X obj -619 -463 sel 0 1;
#X obj -620 -420 mod 2;
#X obj -1037 -269 f;
#X obj -1005 -271 + 1;
#X obj -1036 -248 mod 2;
#X obj -1035 -357 f;
#X obj -1003 -359 + 1;
#X floatatom -1036 -314 0 0 0 0 - - -;
#X obj -1034 -336 mod 2;
#X obj -1038 -291 sel;
#X obj -619 -463 sel;
#X obj -953 -269 > 1;
#X floatatom -953 -246 5 0 0 0 - - -, f 5;
#X obj -954 -227 + 1;
#X obj -669 -522 > 1;
#X floatatom -669 -499 5 0 0 0 - - -, f 5;
#X obj -670 -480 + 1;
#X obj -894 -765 bonk~;
#X obj -412 -471 * 1;
#X obj -402 -497 inlet;
#X floatatom -414 -436 5 0 0 0 - - -, f 5;
#X obj 15 -339 inlet;
#X floatatom -351 -353 5 0 0 0 25_norm - -, f 5;
#X obj -354 -402 r lo;
#X msg -350 -381 25;
#X obj -332 -471 * 1;
#X obj -322 -497 inlet;
#X floatatom -334 -436 5 0 0 0 - - -, f 5;
#X floatatom -241 -353 5 0 0 0 25_norm - -, f 5;
#X obj -244 -402 r lo;
#X msg -240 -381 25;
#X obj -222 -471 * 1;
#X obj -212 -497 inlet;
#X floatatom -224 -436 5 0 0 0 - - -, f 5;
#X obj -542 -240 f;
#X obj -546 -269 bng 15 250 50 0 empty empty empty 17 7 0 10 -262144
-1 -1;
#X obj -508 -241 f;
#X obj -512 -270 bng 15 250 50 0 empty empty empty 17 7 0 10 -262144
-1 -1;
#X floatatom -131 -353 5 0 0 0 25_norm - -, f 5;
#X obj -134 -402 r lo;
#X msg -130 -381 25;
#X obj -112 -471 * 1;
#X obj -102 -497 inlet;
#X floatatom -114 -436 5 0 0 0 - - -, f 5;
#X obj -467 -240 f;
#X obj -471 -269 bng 15 250 50 0 empty empty empty 17 7 0 10 -262144
-1 -1;
#X obj -619 -393 sel 0 1 2 4;
#X floatatom -477 -587 5 0 0 0 - - -, f 5;
#X floatatom -696 -71 5 0 0 0 - - -, f 5;
#X floatatom -646 -71 5 0 0 0 - - -, f 5;
#X connect 0 0 1 0;
#X connect 1 0 2 0;
#X connect 2 0 34 0;
#X connect 3 0 15 0;
#X connect 5 0 71 0;
#X connect 6 0 101 0;
#X connect 7 0 33 0;
#X connect 8 0 9 0;
#X connect 8 0 31 0;
#X connect 9 0 8 1;
#X connect 10 0 27 0;
#X connect 12 0 11 0;
#X connect 13 0 3 0;
#X connect 14 0 53 1;
#X connect 14 0 68 0;
#X connect 15 0 19 1;
#X connect 16 0 43 0;
#X connect 17 0 36 0;
#X connect 18 0 41 0;
#X connect 19 0 20 0;
#X connect 20 0 21 0;
#X connect 21 0 28 0;
#X connect 22 0 20 1;
#X connect 23 0 24 0;
#X connect 23 0 55 0;
#X connect 24 0 23 1;
#X connect 26 0 19 0;
#X connect 27 0 18 0;
#X connect 27 1 38 0;
#X connect 28 0 36 1;
#X connect 28 0 40 1;
#X connect 30 0 50 0;
#X connect 30 0 59 0;
#X connect 31 0 10 0;
#X connect 32 0 103 0;
#X connect 33 0 55 1;
#X connect 34 0 4 0;
#X connect 35 0 0 0;
#X connect 36 0 35 0;
#X connect 37 0 40 0;
#X connect 38 0 42 0;
#X connect 39 0 0 0;
#X connect 40 0 39 0;
#X connect 41 0 17 0;
#X connect 42 0 37 0;
#X connect 43 0 15 0;
#X connect 44 0 47 1;
#X connect 45 0 46 0;
#X connect 46 0 44 0;
#X connect 47 0 20 0;
#X connect 48 0 47 0;
#X connect 49 0 102 0;
#X connect 50 0 51 0;
#X connect 50 0 53 0;
#X connect 51 0 50 1;
#X connect 53 0 64 0;
#X connect 55 0 100 0;
#X connect 56 0 57 0;
#X connect 56 0 58 0;
#X connect 57 0 56 1;
#X connect 59 0 60 0;
#X connect 59 0 62 0;
#X connect 60 0 59 1;
#X connect 61 0 63 0;
#X connect 62 0 61 0;
#X connect 63 0 8 0;
#X connect 64 0 23 0;
#X connect 65 0 66 0;
#X connect 66 0 67 0;
#X connect 67 0 31 1;
#X connect 68 0 69 0;
#X connect 69 0 70 0;
#X connect 70 0 55 1;
#X connect 71 1 30 0;
#X connect 72 0 74 0;
#X connect 73 0 72 0;
#X connect 74 0 44 0;
#X connect 75 0 22 0;
#X connect 76 0 88 1;
#X connect 77 0 78 0;
#X connect 78 0 76 0;
#X connect 79 0 81 0;
#X connect 80 0 79 0;
#X connect 81 0 76 0;
#X connect 82 0 90 1;
#X connect 83 0 84 0;
#X connect 84 0 82 0;
#X connect 85 0 87 0;
#X connect 86 0 85 0;
#X connect 87 0 82 0;
#X connect 88 0 20 0;
#X connect 89 0 88 0;
#X connect 90 0 20 0;
#X connect 91 0 90 0;
#X connect 92 0 98 1;
#X connect 93 0 94 0;
#X connect 94 0 92 0;
#X connect 95 0 97 0;
#X connect 96 0 95 0;
#X connect 97 0 92 0;
#X connect 98 0 20 0;
#X connect 99 0 98 0;
#X connect 100 0 26 0;
#X connect 100 1 48 0;
#X connect 100 2 89 0;
#X connect 100 3 91 0;
#X connect 100 4 99 0;
#X connect 101 0 14 0;
#X connect 102 0 65 0;
#X connect 102 0 62 1;
#X connect 103 0 0 1;
