#N canvas 397 305 734 568 10;
#X obj 172 263 list;
#X obj 217 263 list;
#X obj 292 229 bng 15 250 50 0 empty empty empty 17 7 1 9 -187776 -33289
-33289;
#X floatatom 74 349 5 0 0 0 - - -, f 5;
#X obj 74 396 list;
#X obj 74 370 t b f;
#X obj 48 309 random;
#N canvas 2 79 450 300 list-idx 0;
#X obj 131 88 inlet;
#X obj 168 224 outlet;
#X obj 206 87 inlet;
#X obj 168 190 list split 1;
#N canvas 2 79 450 300 list-splat 0;
#X obj 94 39 inlet;
#X obj 172 39 inlet;
#X obj 94 236 outlet;
#X obj 181 237 outlet;
#X obj 277 238 outlet;
#N canvas 308 114 692 535 negatives 0;
#X obj 213 50 inlet;
#X obj 289 121 inlet;
#X obj 213 447 outlet;
#X obj 245 407 outlet;
#X obj 278 376 outlet;
#X obj 213 325 list split;
#X obj 243 95 list-len;
#X text 80 20 This will only get called \, if the index is negative.
;
#X obj 213 74 t a a;
#X obj 273 148 +;
#X obj 273 171 moses;
#X obj 243 121 t f f;
#X msg 273 193 1;
#X obj 227 257 +;
#X text 66 258 this is a hack: ==>;
#X connect 0 0 8 0;
#X connect 1 0 9 1;
#X connect 5 0 2 0;
#X connect 5 1 3 0;
#X connect 5 2 4 0;
#X connect 6 0 11 0;
#X connect 8 0 5 0;
#X connect 8 1 6 0;
#X connect 9 0 10 0;
#X connect 10 0 12 0;
#X connect 10 1 5 1;
#X connect 11 0 13 1;
#X connect 11 1 9 0;
#X connect 12 0 13 0;
#X connect 13 0 5 1;
#X restore 198 179 pd negatives;
#X obj 145 123 < 0;
#N canvas 235 272 450 300 route 0;
#X obj 76 76 inlet;
#X obj 155 74 inlet;
#X obj 76 123 list prepend;
#X obj 76 158 route 0 1;
#X obj 76 231 outlet;
#X obj 105 192 outlet;
#X connect 0 0 2 0;
#X connect 1 0 2 1;
#X connect 2 0 3 0;
#X connect 3 0 4 0;
#X connect 3 1 5 0;
#X restore 94 147 pd route;
#X obj 172 95 t f f f;
#X obj 94 178 list split;
#X text 274 21 copy of list-abs/list-splat;
#X connect 0 0 7 0;
#X connect 1 0 8 0;
#X connect 5 0 2 0;
#X connect 5 1 3 0;
#X connect 5 2 4 0;
#X connect 6 0 7 1;
#X connect 7 0 9 0;
#X connect 7 1 5 0;
#X connect 8 0 6 0;
#X connect 8 1 9 1;
#X connect 8 2 5 1;
#X connect 9 0 2 0;
#X connect 9 1 3 0;
#X connect 9 2 4 0;
#X restore 131 149 pd list-splat;
#X text 267 10 copy of list-abs/list-idx;
#X text 205 67 float index;
#X text 130 68 list;
#X text 169 248 symbol;
#X connect 0 0 4 0;
#X connect 2 0 4 1;
#X connect 3 0 1 0;
#X connect 4 1 3 0;
#X restore 74 449 pd list-idx;
#X obj 172 204 t a b;
#X obj 174 182 symbol;
#X text 257 263 <- fill list of filenames;
#X obj 406 105 symbol;
#X obj 326 104 symbol \$1;
#X obj 326 127 sel symbol;
#X obj 25 78 inlet;
#X obj 91 234 min 1;
#X obj 92 200 max 0;
#X obj 45 127 route bang float;
#X obj 181 94 inlet folder;
#X obj 74 475 outlet file;
#X text 162 452 // from list-abs/list-idx;
#X obj 240 417 outlet nb;
#X msg 509 168 add \$1;
#X obj 402 194 b;
#X text 306 4 Argument \; \$1 : symbol folder/pattern;
#X msg 597 235 label \$1;
#X obj 478 196 pmenu;
#X msg 478 89 clear;
#X obj 338 395 splitfilename /;
#X obj 338 351 list;
#X obj 338 373 list-iter;
#X obj 305 59 t b b b b;
#X obj 237 380 list length;
#X obj 172 229 folder_list;
#X obj 305 34 loadbang, f 9;
#X obj 505 445 pack s s;
#X msg 504 475 symbol \$2/\$1;
#X msg 607 177 symbol Select...;
#X obj 513 318 splitfilename /;
#X obj 134 156 t b b a;
#X obj 203 141 t b a;
#X text 313 228 <-reset;
#X floatatom 2 403 5 0 0 0 - - -, f 5;
#X obj 14 231 r \$0-bang;
#X obj 3 438 outlet;
#X obj 402 173 r \$3-bang;
#X obj 597 257 s \$3-cnv;
#X obj 567 57 bng 15 250 50 0 empty empty empty 17 7 0 10 -262144 -1
-1;
#X obj 587 33 inlet;
#X msg 150 361 vide/*.wav;
#X obj 98 96 inlet;
#X obj 224 350 bng 15 250 50 0 empty empty empty 17 7 0 10 -262144
-1 -1;
#X obj 126 295 bng 15 250 50 0 empty empty empty 17 7 0 10 -262144
-1 -1;
#X obj 59 100 int;
#X obj 57 57 hradio 10 1 0 9 \$3-bang empty empty 0 -3 0 10 -191407
-1 -1 0;
#X obj 51 52 cnv 15 300 20 empty \$3-cnv Select... 20 12 0 14 -233017
-66577 0;
#X connect 0 0 1 0;
#X connect 0 0 4 1;
#X connect 0 0 29 1;
#X connect 1 0 0 1;
#X connect 2 0 1 1;
#X connect 2 0 0 1;
#X connect 3 0 5 0;
#X connect 4 0 7 0;
#X connect 5 0 4 0;
#X connect 5 1 7 1;
#X connect 6 0 3 0;
#X connect 7 0 19 0;
#X connect 7 0 38 0;
#X connect 8 0 33 0;
#X connect 8 1 2 0;
#X connect 9 0 8 0;
#X connect 11 0 13 1;
#X connect 12 0 13 0;
#X connect 13 1 9 0;
#X connect 14 0 17 0;
#X connect 14 0 3 0;
#X connect 16 0 15 0;
#X connect 17 0 6 0;
#X connect 17 1 16 0;
#X connect 17 2 39 0;
#X connect 18 0 40 0;
#X connect 22 0 26 0;
#X connect 23 0 26 0;
#X connect 25 0 46 0;
#X connect 26 0 42 0;
#X connect 26 1 25 0;
#X connect 26 1 35 0;
#X connect 27 0 26 0;
#X connect 28 0 35 1;
#X connect 28 1 22 0;
#X connect 29 0 30 0;
#X connect 29 0 32 0;
#X connect 30 0 28 0;
#X connect 31 0 29 0;
#X connect 31 1 12 0;
#X connect 31 2 11 0;
#X connect 31 3 27 0;
#X connect 31 3 37 0;
#X connect 32 0 21 0;
#X connect 32 0 6 1;
#X connect 32 0 15 1;
#X connect 33 0 0 0;
#X connect 34 0 31 0;
#X connect 35 0 36 0;
#X connect 36 0 19 0;
#X connect 37 0 25 0;
#X connect 38 1 25 0;
#X connect 39 0 6 0;
#X connect 39 1 29 0;
#X connect 39 2 9 0;
#X connect 40 0 29 0;
#X connect 40 1 9 0;
#X connect 42 0 44 0;
#X connect 45 0 23 0;
#X connect 47 0 27 0;
#X connect 47 0 49 0;
#X connect 48 0 47 0;
#X connect 49 0 4 1;
#X connect 50 0 52 0;
#X connect 53 0 3 0;
#X coords 0 -1 1 1 300 20 1 50 50;
