#N canvas 412 334 1424 763 12;
#X obj -16650 -412 select 0 1 2 3 4 5 6 7 8 9 10 11 12 13 14 15;
#X obj -16741 -492 f;
#X obj -16683 -492 f;
#X obj -16626 -492 f;
#X obj -16568 -492 f;
#X obj -16472 -494 f;
#X obj -16363 -493 f;
#X obj -16305 -493 f;
#X obj -16218 -493 f;
#X obj -16160 -493 f;
#X obj -16103 -493 f;
#X obj -16045 -493 f;
#X obj -15989 -493 f;
#X obj -15946 -494 f;
#X obj -15882 -489 f;
#X obj -15813 -492 f;
#X obj -16727 -516 nbx 5 14 -1e+37 1e+37 0 0 empty empty empty 0 -8
0 10 -262144 -1 -1 1 256;
#X obj -16669 -516 nbx 5 14 -1e+37 1e+37 0 0 empty empty empty 0 -8
0 10 -262144 -1 -1 1 256;
#X obj -16612 -516 nbx 5 14 -1e+37 1e+37 0 0 empty empty empty 0 -8
0 10 -262144 -1 -1 1 256;
#X obj -16554 -516 nbx 5 14 -1e+37 1e+37 0 0 empty empty empty 0 -8
0 10 -262144 -1 -1 1 256;
#X obj -16463 -519 nbx 5 14 -1e+37 1e+37 0 0 empty empty empty 0 -8
0 10 -262144 -1 -1 1 256;
#X obj -16285 -519 nbx 5 14 -1e+37 1e+37 0 0 empty empty empty 0 -8
0 10 -262144 -1 -1 1 256;
#X obj -16204 -520 nbx 5 14 -1e+37 1e+37 0 0 empty empty empty 0 -8
0 10 -262144 -1 -1 1 256;
#X obj -16134 -520 nbx 5 14 -1e+37 1e+37 0 0 empty empty empty 0 -8
0 10 -262144 -1 -1 1 256;
#X obj -16065 -514 nbx 5 14 -1e+37 1e+37 0 0 empty empty empty 0 -8
0 10 -262144 -1 -1 1 256;
#X obj -16005 -517 nbx 5 14 -1e+37 1e+37 0 0 empty empty empty 0 -8
0 10 -262144 -1 -1 1 256;
#X obj -15739 -522 nbx 5 14 -1e+37 1e+37 0 0 empty empty empty 0 -8
0 10 -262144 -1 -1 1 256;
#X obj -15874 -522 nbx 5 14 -1e+37 1e+37 0 0 empty empty empty 0 -8
0 10 -262144 -1 -1 1 256;
#X obj -15808 -523 nbx 5 14 -1e+37 1e+37 0 0 empty empty empty 0 -8
0 10 -262144 -1 -1 1 256;
#X obj -15945 -523 nbx 5 14 -1e+37 1e+37 0 0 empty empty empty 0 -8
0 10 -262144 -1 -1 1 256;
#X floatatom -16816 -472 5 0 0 0 - - -, f 5;
#X obj -16721 -558 inlet;
#X obj -16650 -558 inlet;
#X obj -16449 -558 inlet;
#X obj -16403 -558 inlet;
#X obj -16354 -558 inlet;
#X obj -16292 -558 inlet;
#X obj -16186 -559 inlet;
#X obj -16136 -560 inlet;
#X obj -16075 -559 inlet;
#X obj -15816 -558 inlet;
#X obj -15934 -558 inlet;
#X obj -16363 -493 f;
#X obj -16352 -518 nbx 5 14 -1e+37 1e+37 0 0 empty empty empty 0 -8
0 10 -262144 -1 -1 1 256;
#X obj -16528 -558 inlet;
#X obj -16422 -492 f;
#X obj -16406 -520 nbx 5 14 -1e+37 1e+37 0 0 empty empty empty 0 -8
0 10 -262144 -1 -1 1 256;
#X obj -16579 -558 inlet;
#X obj -16503 -1106 tgl 15 0 empty empty empty 17 7 0 10 -262144 -1
-1 0 1;
#X obj -16504 -1046 bng 15 250 50 0 empty empty empty 17 7 0 10 -262144
-1 -1;
#X floatatom -16426 -1101 5 0 0 0 - - -, f 5;
#X obj -16497 -1080 metro 300;
#X obj -16498 -644 mod;
#X floatatom -16717 -714 5 0 0 0 - - -, f 5;
#X floatatom -16503 -609 5 0 0 0 - - -, f 5;
#X obj -15864 -558 inlet;
#X obj -15741 -558 inlet;
#X obj -16023 -557 inlet;
#X floatatom -16495 -680 5 0 0 0 - - -, f 5;
#X floatatom -16371 -922 5 0 0 0 - - -, f 5;
#X obj -16476 -794 sel 0 1;
#X obj -16496 -756 bng 15 250 50 0 empty empty empty 17 7 0 10 -262144
-1 -1;
#X obj -16198 -942 counter;
#X msg -16175 -1061 min \$1;
#X msg -16101 -1062 max \$1;
#X floatatom -16175 -1082 5 0 0 0 - - -, f 5;
#X floatatom -16101 -1083 5 0 0 0 - - -, f 5;
#X floatatom -16220 -890 5 0 0 0 - - -, f 5;
#X floatatom -16054 -820 5 0 0 0 - - -, f 5;
#X obj -16028 -920 - 1;
#X obj -16052 -852 == 0;
#X obj -16058 -790 sel 0 1;
#X obj -16036 -743 bng 15 250 50 0 empty empty empty 17 7 0 10 -262144
-1 -1;
#X obj -16379 -664 f;
#X floatatom -16380 -639 5 0 0 0 - - -, f 5;
#X obj -16032 -1077 r lo;
#X obj -16852 -1103 inlet;
#X obj -16855 -1075 inlet;
#X obj -16953 -1055 inlet;
#X obj -16277 -644 outlet;
#X obj -16267 -601 outlet;
#X msg -16032 -1044 0;
#X obj -16224 -863 == 0;
#X floatatom -16226 -836 5 0 0 0 - - -, f 5;
#X obj -16460 -584 outlet;
#X obj -16462 -738 + 1;
#X obj -16288 -702 s itF;
#X obj -16772 -663 t b f;
#X obj -16784 -629 * 1;
#X floatatom -16784 -604 5 0 0 0 - - -, f 5;
#X obj -16853 -839 notein;
#X obj -16832 -802 / 64;
#X obj -16887 -753 spigot-toggle_red;
#X obj -16798 -751 r LNR+TUCH;
#X obj -16788 -720 - 1;
#X obj -16790 -691 * -1;
#X floatatom -16880 -778 5 0 0 0 - - -, f 5;
#X obj -16879 -802 < 16;
#X floatatom -16832 -779 5 0 0 0 - - -, f 5;
#X floatatom -16885 -728 5 0 0 0 - - -, f 5;
#X obj -16881 -698 - 1;
#X obj -16883 -669 * -1;
#X obj -16879 -627 * 100;
#X obj -16835 -721 spigot-toggle_red;
#X obj -16835 -691 spigot-toggle_red;
#X obj -16833 -564 r lo;
#X obj 37 37;
#X obj -16298 -727 s itAA;
#X obj -16371 -903 - 1;
#X obj -16498 -737 f;
#X connect 0 0 1 0;
#X connect 0 1 2 0;
#X connect 0 2 3 0;
#X connect 0 3 4 0;
#X connect 0 4 5 0;
#X connect 0 5 45 0;
#X connect 0 6 6 0;
#X connect 0 7 7 0;
#X connect 0 8 8 0;
#X connect 0 9 9 0;
#X connect 0 10 10 0;
#X connect 0 11 11 0;
#X connect 0 12 12 0;
#X connect 0 13 13 0;
#X connect 0 14 14 0;
#X connect 0 15 15 0;
#X connect 1 0 30 0;
#X connect 2 0 30 0;
#X connect 3 0 30 0;
#X connect 4 0 30 0;
#X connect 5 0 30 0;
#X connect 6 0 30 0;
#X connect 7 0 30 0;
#X connect 8 0 30 0;
#X connect 9 0 30 0;
#X connect 10 0 30 0;
#X connect 11 0 30 0;
#X connect 12 0 30 0;
#X connect 13 0 30 0;
#X connect 14 0 30 0;
#X connect 15 0 30 0;
#X connect 16 0 1 1;
#X connect 17 0 2 1;
#X connect 18 0 3 1;
#X connect 19 0 4 1;
#X connect 20 0 5 1;
#X connect 21 0 7 1;
#X connect 22 0 8 1;
#X connect 23 0 9 1;
#X connect 24 0 10 1;
#X connect 25 0 11 1;
#X connect 26 0 15 1;
#X connect 27 0 13 1;
#X connect 28 0 14 1;
#X connect 29 0 12 1;
#X connect 30 0 59 0;
#X connect 30 0 80 0;
#X connect 31 0 16 0;
#X connect 32 0 17 0;
#X connect 33 0 20 0;
#X connect 34 0 46 0;
#X connect 35 0 43 0;
#X connect 36 0 21 0;
#X connect 37 0 22 0;
#X connect 38 0 23 0;
#X connect 39 0 24 0;
#X connect 40 0 28 0;
#X connect 41 0 29 0;
#X connect 43 0 6 1;
#X connect 44 0 19 0;
#X connect 45 0 30 0;
#X connect 46 0 45 1;
#X connect 47 0 18 0;
#X connect 48 0 51 0;
#X connect 49 0 62 0;
#X connect 49 0 73 0;
#X connect 50 0 51 1;
#X connect 51 0 49 0;
#X connect 52 0 54 0;
#X connect 53 0 87 0;
#X connect 54 0 0 0;
#X connect 54 0 84 0;
#X connect 55 0 27 0;
#X connect 56 0 26 0;
#X connect 57 0 25 0;
#X connect 58 0 73 1;
#X connect 58 0 52 0;
#X connect 59 0 108 0;
#X connect 60 1 61 0;
#X connect 61 0 109 0;
#X connect 62 0 67 0;
#X connect 63 0 62 0;
#X connect 64 0 62 0;
#X connect 65 0 63 0;
#X connect 66 0 64 0;
#X connect 66 0 69 0;
#X connect 67 0 70 0;
#X connect 67 0 82 0;
#X connect 68 0 71 0;
#X connect 69 0 70 1;
#X connect 70 0 68 0;
#X connect 71 1 72 0;
#X connect 73 0 74 0;
#X connect 74 0 79 0;
#X connect 75 0 81 0;
#X connect 76 0 48 0;
#X connect 77 0 49 0;
#X connect 78 0 53 0;
#X connect 81 0 66 0;
#X connect 82 0 83 0;
#X connect 83 0 60 0;
#X connect 85 0 109 1;
#X connect 87 0 88 0;
#X connect 87 1 88 1;
#X connect 88 0 89 0;
#X connect 89 0 52 1;
#X connect 90 0 97 0;
#X connect 90 1 91 0;
#X connect 91 0 98 0;
#X connect 92 0 99 0;
#X connect 93 0 94 0;
#X connect 93 0 103 1;
#X connect 93 0 104 1;
#X connect 94 0 95 0;
#X connect 95 0 88 0;
#X connect 96 0 92 1;
#X connect 97 0 96 0;
#X connect 98 0 92 0;
#X connect 99 0 100 0;
#X connect 99 0 103 0;
#X connect 100 0 101 0;
#X connect 101 0 102 0;
#X connect 102 0 104 0;
#X connect 103 0 88 0;
#X connect 104 0 58 0;
#X connect 105 0 88 0;
#X connect 108 0 66 0;
#X connect 109 0 58 0;
#X connect 109 0 85 0;
