#N canvas 718 266 906 623 10;
#X obj 183 121 hsl 70 20 0 1 0 0 empty empty cut_out 3 7 0 10 -1 -262144
-260097 6900 1;
#X obj 183 100 hsl 70 20 0 1 0 0 empty empty cut_in 3 7 0 10 -1 -262144
-262144 0 1;
#X obj 103 105 vsl 15 110 0.02 2 1 0 empty empty empty 12 12 0 10 -1
-262144 -1 8254 1;
#X obj 137 105 vsl 15 110 0.02 2 1 0 empty empty empty 12 12 0 10 -1
-262144 -1 8254 1;
#X obj 120 105 vsl 15 110 0.02 2 1 0 empty empty empty 12 12 0 10 -1
-262144 -1 7899 1;
#X obj 183 161 hsl 70 20 0 1 0 0 empty empty fade_in 3 7 0 10 -228856
-1 -1 500 1;
#X obj 183 182 hsl 70 20 1 0 0 0 empty empty fadeNcut_out -1 7 0 10
-228856 -1 -260097 6200 1;
#X obj 157 104 vsl 20 110 0.02 2 1 0 empty empty VL 3 6 0 10 -1 -262144
-1 8607 1;
#X obj -43 258 vfreeverb~;
#X obj 105 225 hsl 70 20 0 1 0 1 empty empty 'roomsize' 3 8 0 10 -262144
-260097 -1 0 0;
#X obj 105 247 hsl 70 20 0 2 0 1 empty empty damp 3 8 0 10 -262144
-260097 -1 0 0;
#X obj 184 247 hsl 70 20 0 1 0 1 empty empty wet 3 8 0 10 -262144 -260097
-1 0 0;
#X obj 184 225 hsl 70 20 0 1 0 1 empty empty dry 3 8 0 10 -262144 -260097
-1 5400 0;
#X obj 86 65 inlet;
#X obj 126 65 inlet;
#X obj 176 65 inlet;
#X obj 46 65 inlet;
#X obj -43 285 dj-eq;
#X obj -43 229 *~;
#X obj -18 317 dac~;
#X floatatom -325 -500 4 0 100 0 - - -, f 4;
#X floatatom -327 -577 0 0 200 0 - - -;
#X obj -625 -123 +~;
#X obj -626 -191 samphold~;
#X obj -625 -157 *~;
#X floatatom -327 -610 0 0 0 0 - - -;
#X text -681 -916 chunk size;
#X text -684 -902 in seconds;
#X obj -630 -842 t b f;
#X obj -415 -60 -~ 0.5;
#X obj -415 -26 *~ 0.5;
#X obj -415 7 cos~;
#X obj -642 -762 phasor~;
#X obj -560 -727 +~ 0.5;
#X obj -559 -702 wrap~;
#X obj -588 63 +~;
#X obj -330 -409 * 0.001;
#X obj -605 -496 phasor~;
#X obj -625 -89 *~ 44100;
#X obj -626 -53 +~ 1;
#X floatatom -560 -778 5 0 0 0 - - -, f 5;
#X obj -517 -843 t b f;
#X obj -606 -615 * 0.01;
#X obj -319 -85 +~;
#X obj -310 -143 samphold~;
#X obj -319 -119 *~;
#X obj -141 1 -~ 0.5;
#X obj -141 35 *~ 0.5;
#X obj -141 67 cos~;
#X obj -309 -41 *~ 44100;
#X obj -320 -5 +~ 1;
#X msg -325 -642 25;
#X floatatom -326 -838 12 0 900 0 - - -, f 12;
#X obj -326 -808 * 0.001;
#X text -285 -502 <-- chunk size (msec);
#X obj -642 -810 expr (pow(2 \, $f1/120)-$f3)/$f2;
#X obj -326 -758 t b f;
#X text -201 -945 (msec);
#X obj -603 -531 /;
#X floatatom -326 -1002 12 0 0 0 - - -, f 12;
#X floatatom -326 -1072 12 0 0 0 - - -, f 12;
#X msg -326 -870 900;
#X obj -213 -890 loadbang;
#X floatatom -325 -944 12 0 0 0 - - -, f 12;
#X obj -325 -1039 / 44103;
#X obj -325 -969 * 1000;
#X floatatom -324 -469 4 0 900 0 - - -, f 4;
#X text -273 -967 <-- loop length;
#X text -291 -578 <-- speed \, percent;
#X text -285 -470 <-- position \, 0-1;
#X obj -602 -467 *~ 1;
#X floatatom -324 -534 0 0 0 0 - - -;
#X obj -604 -583 t b f;
#X obj -604 -556 * 1;
#X text -287 -615 <-- pitch \, 0= norm \, >0= aigues;
#X floatatom -257 -207 0 0 0 0 - - -;
#X floatatom -312 -207 0 0 0 0 - - -;
#X obj -398 -237 loadbang;
#X obj -287 -703 loadbang;
#X msg -326 -678 0.5;
#X msg -325 -702 100;
#X obj -626 -226 r chunk-size;
#X text -288 -443 <-- trgr on/off;
#X obj -323 -1247 loadbang;
#X obj -322 -1179 soundfiler;
#X text -230 -1240 v-- re-read original table;
#X msg -323 -1210 read ../sound/voice.wav table23;
#X obj 353 -1270 snapshot~;
#X floatatom 353 -1243 12 0 0 0 - - -, f 12;
#X floatatom 354 -1197 12 0 0 0 - - -, f 12;
#X obj 391 -1316 tgl 15 0 empty empty empty 17 7 0 10 -262144 -1 -1
1 1;
#X obj 367 -1297 metro 44;
#X floatatom -323 -1139 12 0 0 0 - - -, f 12;
#X obj 355 -1152 /;
#X text -286 -547 <-- pitch & speed \, norm= 1;
#X obj 392 -1375 loadbang;
#X obj 402 -1172 outlet;
#X obj -299 -240 * 44100;
#X obj -588 31 *~;
#X obj -319 63 *~;
#X obj 354 -1221 * 44100;
#X obj -540 -495 - 0;
#X msg -398 -210 44100;
#X floatatom 353 -1091 5 0 0 2 pos1 - -, f 5;
#X msg -286 -870 47191;
#X msg -216 -870 0;
#X obj -599 -436 *~ 1;
#X floatatom 555 -1324 4 0 0 0 f.r - -, f 4;
#X obj -396 346 *~;
#X floatatom -449 278 5 0 4 0 - - -, f 5;
#X floatatom -374 264 5 0 0 0 - - -, f 5;
#X floatatom -331 264 5 0 0 0 - - -, f 5;
#X floatatom 101 279 5 0 0 0 - - -, f 5;
#X floatatom 178 278 5 0 0 0 - - -, f 5;
#X obj 332 65 inlet;
#X obj 292 65 inlet;
#X obj 434 -1297 + 2;
#X obj -71 -562 * 100;
#X obj 186 35 r lo;
#X obj 319 152 - 1;
#X obj 318 173 * -1;
#X obj -155 -640 * 0.01;
#X obj 64 -569 r pitchB;
#X obj 64 -539 r speedB;
#X obj 64 -509 r pitchNspeedB;
#X obj 65 -479 r posB;
#X obj -627 -364 s~ sample.pos11;
#X obj -333 -384 s chunk-size1;
#X obj -559 -677 s~ phase21;
#X obj -647 -720 s~ phase1;
#X obj -630 -867 r chunk-size1;
#X obj -517 -868 r precession1;
#X obj -548 -613 s precession1;
#X obj -106 -933 s looplenghtB;
#X obj -599 -397 s~ read-pt1;
#X msg -42 -1208 read -resize \$1 table24;
#X obj 389 -1121 s posvisu1;
#X obj 353 -1339 receive~ sample.pos11;
#X obj 556 -1349 r frB;
#X obj -171 -33 r~ phase21;
#X obj -222 -142 r~ phase21;
#X obj -274 -118 r~ phase21;
#X obj -271 -85 r~ read-pt1;
#X obj -310 -168 r chunk-size1;
#X obj -319 29 tabread4~ table24;
#X obj -415 -94 r~ phase1;
#X obj -625 -19 tabread4~ table24;
#X obj -587 -123 r~ read-pt1;
#X obj -590 -156 r~ phase1;
#X obj -530 -194 r~ phase1;
#X obj -453 257 r T$mod1;
#X obj -414 170 r BangAtoenv1;
#X obj 61 310 s~ A1;
#X obj -419 306 env_inout1;
#X obj 79 -426 r direct in B;
#X obj 546 -1370 r øAtiTS2;
#X obj 466 -1370 r øAtiTS1>ø;
#X obj -52 -1312 r audiofileB;
#X obj -298 -272 r øAtiTS2;
#X obj 315 270 s opa1;
#X obj -46 177 s V1B;
#X obj -483 113 r IT≠T1;
#X obj -412 201 spigot-toggle_red;
#X floatatom 495 426 12 0 0 0 - - -, f 12;
#X obj 502 259 ctlin 23;
#X obj 472 113 * 1;
#X obj 473 79 * 0.00787402;
#X floatatom 473 143 5 0 0 0 - - -, f 5;
#X obj 474 41 ctlin 19;
#X floatatom 502 332 12 0 0 0 - - -, f 12;
#X obj 504 295 - 127;
#X floatatom 498 379 12 0 0 0 - - -, f 12;
#X floatatom 523 181 12 0 0 0 - - -, f 12;
#X obj 498 356 * 0.00787402;
#X obj 499 400 * -1;
#X obj 183 203 hsl 70 18 0 1 0 0 empty empty fade_out_granu -1 8 0
9 -260097 -262144 -262144 6900 1;
#X obj 183 142 hsl 70 18 0 1 0 0 empty empty %_out_granu 2 8 0 9 -260097
-262144 -262144 6900 1;
#X floatatom 260 460 5 0 0 0 - - -, f 5;
#X floatatom 178 469 5 0 0 0 - - -, f 5;
#X obj -374 216 r lo;
#X obj -157 -670 r directinB;
#X msg 182 80 0;
#X connect 0 0 111 0;
#X connect 1 0 110 0;
#X connect 2 0 17 1;
#X connect 3 0 17 3;
#X connect 4 0 17 2;
#X connect 5 0 112 0;
#X connect 6 0 113 0;
#X connect 7 0 18 1;
#X connect 7 0 159 0;
#X connect 7 0 160 0;
#X connect 8 0 17 0;
#X connect 9 0 8 1;
#X connect 10 0 8 2;
#X connect 11 0 8 4;
#X connect 12 0 8 3;
#X connect 13 0 4 0;
#X connect 14 0 3 0;
#X connect 15 0 7 0;
#X connect 16 0 2 0;
#X connect 17 0 19 0;
#X connect 17 0 19 1;
#X connect 17 0 152 0;
#X connect 18 0 8 0;
#X connect 20 0 36 0;
#X connect 21 0 42 0;
#X connect 22 0 38 0;
#X connect 23 0 24 0;
#X connect 24 0 22 0;
#X connect 25 0 55 0;
#X connect 28 0 55 0;
#X connect 28 1 55 1;
#X connect 29 0 30 0;
#X connect 30 0 31 0;
#X connect 31 0 98 1;
#X connect 32 0 33 0;
#X connect 32 0 129 0;
#X connect 33 0 34 0;
#X connect 34 0 128 0;
#X connect 35 0 108 0;
#X connect 36 0 127 0;
#X connect 37 0 70 0;
#X connect 38 0 39 0;
#X connect 39 0 146 0;
#X connect 41 0 55 0;
#X connect 41 1 55 2;
#X connect 42 0 73 0;
#X connect 42 0 132 0;
#X connect 43 0 49 0;
#X connect 44 0 45 0;
#X connect 45 0 43 0;
#X connect 46 0 47 0;
#X connect 47 0 48 0;
#X connect 48 0 99 1;
#X connect 49 0 50 0;
#X connect 50 0 144 0;
#X connect 51 0 20 0;
#X connect 52 0 53 0;
#X connect 53 0 56 0;
#X connect 53 0 70 1;
#X connect 55 0 32 0;
#X connect 55 0 40 0;
#X connect 56 0 58 0;
#X connect 56 1 58 1;
#X connect 58 0 37 0;
#X connect 59 0 65 0;
#X connect 60 0 64 0;
#X connect 62 0 61 0;
#X connect 63 0 52 0;
#X connect 63 0 133 0;
#X connect 64 0 59 0;
#X connect 65 0 63 0;
#X connect 66 0 101 0;
#X connect 70 0 106 0;
#X connect 71 0 72 0;
#X connect 72 0 73 0;
#X connect 72 1 73 1;
#X connect 73 0 58 0;
#X connect 75 0 49 1;
#X connect 76 0 38 1;
#X connect 77 0 102 0;
#X connect 78 0 79 0;
#X connect 78 0 80 0;
#X connect 78 0 51 0;
#X connect 79 0 71 0;
#X connect 80 0 21 0;
#X connect 81 0 23 0;
#X connect 83 0 86 0;
#X connect 84 0 92 0;
#X connect 86 0 84 0;
#X connect 87 0 88 0;
#X connect 88 0 100 0;
#X connect 89 0 93 0;
#X connect 90 0 91 0;
#X connect 91 0 87 0;
#X connect 92 0 93 1;
#X connect 92 0 60 0;
#X connect 93 0 96 0;
#X connect 93 0 103 0;
#X connect 93 0 136 0;
#X connect 95 0 90 0;
#X connect 97 0 75 0;
#X connect 97 0 76 0;
#X connect 98 0 35 0;
#X connect 99 0 35 1;
#X connect 100 0 89 0;
#X connect 101 0 37 1;
#X connect 102 0 75 0;
#X connect 102 0 76 0;
#X connect 104 0 52 0;
#X connect 105 0 52 0;
#X connect 106 0 126 0;
#X connect 106 0 134 0;
#X connect 107 0 116 0;
#X connect 108 0 18 0;
#X connect 109 0 153 0;
#X connect 110 0 153 2;
#X connect 111 0 153 4;
#X connect 112 0 153 3;
#X connect 113 0 153 6;
#X connect 114 0 119 0;
#X connect 115 0 5 0;
#X connect 116 0 91 1;
#X connect 117 0 21 0;
#X connect 118 0 181 0;
#X connect 118 0 0 0;
#X connect 118 0 119 0;
#X connect 118 0 176 0;
#X connect 118 0 175 0;
#X connect 119 0 120 0;
#X connect 120 0 6 0;
#X connect 121 0 66 0;
#X connect 122 0 25 0;
#X connect 123 0 117 0;
#X connect 124 0 71 0;
#X connect 125 0 66 0;
#X connect 130 0 28 0;
#X connect 131 0 41 0;
#X connect 135 0 84 0;
#X connect 137 0 87 0;
#X connect 138 0 107 0;
#X connect 139 0 46 0;
#X connect 140 0 44 1;
#X connect 141 0 45 1;
#X connect 142 0 43 1;
#X connect 143 0 44 0;
#X connect 144 0 99 0;
#X connect 145 0 29 0;
#X connect 146 0 98 0;
#X connect 147 0 22 1;
#X connect 148 0 24 1;
#X connect 149 0 23 1;
#X connect 150 0 109 0;
#X connect 151 0 162 0;
#X connect 153 1 108 1;
#X connect 154 0 66 0;
#X connect 155 0 90 0;
#X connect 156 0 90 0;
#X connect 157 0 135 0;
#X connect 158 0 97 0;
#X connect 162 0 153 1;
#X connect 163 0 6 0;
#X connect 164 0 170 0;
#X connect 165 0 167 0;
#X connect 166 0 165 0;
#X connect 167 0 5 0;
#X connect 168 0 166 0;
#X connect 169 0 173 0;
#X connect 170 0 169 0;
#X connect 171 0 174 0;
#X connect 172 0 170 0;
#X connect 173 0 171 0;
#X connect 174 0 163 0;
#X connect 175 0 177 0;
#X connect 176 0 178 0;
#X connect 177 0 153 7;
#X connect 178 0 153 5;
#X connect 179 0 162 1;
#X connect 180 0 121 0;
#X connect 181 0 9 0;
#X connect 181 0 11 0;
#X connect 181 0 7 0;
#X connect 181 0 3 0;
#X connect 181 0 4 0;
#X connect 181 0 2 0;
#X coords 0 -1 1 1 158 170 1 100 100;
