#N canvas 172 137 906 623 10;
#X obj 185 124 hsl 70 20 0 1 0 0 empty empty cut_out 3 7 0 10 -1 -262144
-260097 6100 1;
#X obj 185 103 hsl 70 20 0 1 0 0 empty empty cut_in 3 7 0 10 -1 -262144
-262144 800 1;
#X obj 103 106 vsl 15 110 0.02 2 1 0 empty empty empty 12 12 0 10 -1
-262144 -1 6800 1;
#X obj 137 106 vsl 15 110 0.02 2 1 0 empty empty empty 12 12 0 10 -1
-262144 -1 6300 1;
#X obj 120 106 vsl 15 110 0.02 2 1 0 empty empty empty 12 12 0 10 -1
-262144 -1 6400 1;
#X obj 184 164 hsl 70 20 0 1 0 0 empty empty fade_in 3 7 0 10 -228856
-1 -262144 1800 1;
#X obj 184 185 hsl 70 20 1 0 0 0 empty empty fadeNcut_out -1 7 0 10
-228856 -1 -260097 5300 1;
#X obj 157 106 vsl 20 110 0.02 2 1 0 empty empty VL 3 6 0 10 -1 -262144
-1 9400 1;
#X obj -43 258 vfreeverb~;
#X obj 105 224 hsl 70 20 0 1 0 1 empty empty 'roomsize' 3 8 0 10 -262144
-260097 -1 0 0;
#X obj 105 246 hsl 70 20 0 2 0 1 empty empty damp 3 8 0 10 -262144
-260097 -1 2500 0;
#X obj 184 246 hsl 70 20 0 1 0 1 empty empty wet 3 8 0 10 -262144 -260097
-1 0 0;
#X obj 184 224 hsl 70 20 0 1 0 1 empty empty dry 3 8 0 10 -262144 -260097
-1 3800 0;
#X obj 86 65 inlet;
#X obj 126 65 inlet;
#X obj 176 65 inlet;
#X obj 46 65 inlet;
#X obj -43 285 dj-eq;
#X obj -43 229 *~;
#X obj -18 317 dac~;
#X obj -46 177 s V1A;
#X floatatom -325 -500 4 0 100 0 - - -, f 4;
#X floatatom -327 -577 0 0 200 0 - - -;
#X obj -625 -123 +~;
#X obj -626 -191 samphold~;
#X obj -625 -157 *~;
#X obj -415 -94 r~ phase;
#X obj -647 -720 s~ phase;
#X obj -530 -194 r~ phase;
#X obj -590 -156 r~ phase;
#X obj -333 -384 s chunk-size;
#X floatatom -327 -610 0 0 0 0 - - -;
#X text -681 -916 chunk size;
#X text -684 -902 in seconds;
#X obj -630 -867 r chunk-size;
#X obj -630 -842 t b f;
#X obj -415 -60 -~ 0.5;
#X obj -415 -26 *~ 0.5;
#X obj -415 7 cos~;
#X obj -642 -762 phasor~;
#X obj -599 -397 s~ read-pt;
#X obj -587 -123 r~ read-pt;
#X obj -560 -727 +~ 0.5;
#X obj -559 -702 wrap~;
#X obj -559 -677 s~ phase2;
#X obj -588 63 +~;
#X obj -330 -409 * 0.001;
#X obj -605 -496 phasor~;
#X obj -625 -89 *~ 44100;
#X obj -625 -19 tabread4~ table23;
#X obj -626 -53 +~ 1;
#X floatatom -560 -778 5 0 0 0 - - -, f 5;
#X obj -548 -613 s precession;
#X obj -517 -843 t b f;
#X obj -517 -868 r precession;
#X obj -606 -615 * 0.01;
#X obj -319 -85 +~;
#X obj -310 -143 samphold~;
#X obj -319 -119 *~;
#X obj -141 1 -~ 0.5;
#X obj -141 35 *~ 0.5;
#X obj -141 67 cos~;
#X obj -271 -85 r~ read-pt;
#X obj -309 -41 *~ 44100;
#X obj -319 29 tabread4~ table23;
#X obj -310 -168 r chunk-size;
#X obj -320 -5 +~ 1;
#X obj -222 -142 r~ phase2;
#X obj -274 -118 r~ phase2;
#X obj -171 -33 r~ phase2;
#X msg -325 -642 25;
#X floatatom -326 -838 12 0 900 0 - - -, f 12;
#X obj -326 -808 * 0.001;
#X text -285 -502 <-- chunk size (msec);
#X obj -642 -810 expr (pow(2 \, $f1/120)-$f3)/$f2;
#X obj -326 -758 t b f;
#X text -201 -945 (msec);
#X obj -603 -531 /;
#X floatatom -326 -1002 12 0 0 0 - - -, f 12;
#X floatatom -326 -1072 12 0 0 0 - - -, f 12;
#X msg -326 -870 900;
#X obj -213 -890 loadbang;
#X floatatom -325 -944 12 0 0 0 - - -, f 12;
#X obj -325 -1039 / 44103;
#X obj -325 -969 * 1000;
#X floatatom -324 -469 4 0 900 0 - - -, f 4;
#X text -273 -967 <-- loop length;
#X text -291 -578 <-- speed \, percent;
#X obj -627 -364 s~ sample.pos1;
#X text -285 -470 <-- position \, 0-1;
#X obj -602 -467 *~ 1;
#X floatatom -324 -534 0 0 0 0 - - -;
#X obj -604 -583 t b f;
#X obj -604 -556 * 1;
#X text -287 -615 <-- pitch \, 0= norm \, >0= aigues;
#X floatatom -257 -207 0 0 0 0 - - -;
#X floatatom -312 -207 0 0 0 0 - - -;
#X obj -398 -237 loadbang;
#X obj -287 -703 loadbang;
#X msg -326 -678 0.5;
#X msg -325 -702 100;
#X obj -626 -226 r chunk-size;
#X text -288 -443 <-- trgr on/off;
#X obj -323 -1247 loadbang;
#X obj -322 -1179 soundfiler;
#X text -230 -1240 v-- re-read original table;
#X msg -323 -1210 read ../sound/voice.wav table23;
#X msg -42 -1208 read -resize \$1 table23;
#X obj 353 -1270 snapshot~;
#X obj 353 -1339 receive~ sample.pos1;
#X floatatom 353 -1243 12 0 0 0 - - -, f 12;
#X floatatom 354 -1197 12 0 0 0 - - -, f 12;
#X obj 391 -1316 tgl 15 0 empty empty empty 17 7 0 10 -262144 -1 -1
1 1;
#X obj 367 -1297 metro 44;
#X floatatom -323 -1139 12 0 0 0 - - -, f 12;
#X obj 355 -1152 /;
#X text -286 -547 <-- pitch & speed \, norm= 1;
#X obj 392 -1375 loadbang;
#X obj 402 -1172 outlet;
#X obj -299 -240 * 44100;
#X obj -588 31 *~;
#X obj -319 63 *~;
#X obj 354 -1221 * 44100;
#X obj -540 -495 - 0;
#X obj 389 -1121 s posvisu;
#X msg -398 -210 44100;
#X floatatom 353 -1091 5 0 0 2 pos - -, f 5;
#X msg -286 -870 47191;
#X msg -216 -870 0;
#X obj -599 -436 *~ 1;
#X floatatom 555 -1324 4 0 0 0 f.r - -, f 4;
#X obj 56 -1318 r soundfileAsize;
#X obj 556 -1349 r frA;
#X obj -52 -1312 r soundfileA;
#X obj 64 -569 r pitchA;
#X obj 64 -539 r speedA;
#X obj 64 -509 r pitchNspeedA;
#X obj 65 -479 r posA;
#X obj -333 102 r BangAtoenv;
#X obj -378 167 *~;
#X floatatom -413 134 5 0 4 0 - - -, f 5;
#X floatatom -368 133 5 0 0 0 - - -, f 5;
#X floatatom -325 133 5 0 0 0 - - -, f 5;
#X obj -274 374 env_inout0Z;
#X floatatom -283 133 5 0 0 0 - - -, f 5;
#X floatatom -240 133 5 0 0 0 - - -, f 5;
#X obj 332 65 inlet;
#X obj 292 65 inlet;
#X obj 466 -1370 r øAtiTS1;
#X obj 434 -1297 + 2;
#X obj -401 102 r T$mod;
#X obj -106 -933 s looplenghtA;
#X obj -298 -272 r øAtiTS1;
#X obj -71 -562 * 100;
#X obj 546 -1370 r øAtiTS1>ø;
#X obj 186 35 r lo;
#X obj 319 152 - 1;
#X obj 318 173 * -1;
#X obj 61 310 s~ A0;
#X obj -155 -640 * 0.01;
#X obj -478 175 * -1;
#X obj -479 154 - 1;
#X obj -406 70 spigot-toggle_red;
#X obj -483 201 r IT≠T;
#X obj 113 -187 ctlin 3;
#X obj 111 -115 * 1;
#X obj 112 -149 * 0.00787402;
#X floatatom 112 -85 5 0 0 0 - - -, f 5;
#X obj 261 -115 * 1;
#X obj 262 -149 * 0.00787402;
#X floatatom 262 -85 5 0 0 0 - - -, f 5;
#X obj 262 -187 ctlin 7;
#X obj 369 152 - 1;
#X obj 368 173 * -1;
#X obj 184 205 hsl 70 18 0 1 0 0 empty empty fade_out_granu -1 8 0
9 -260097 -1 -262144 6900 1;
#X obj 185 145 hsl 70 18 0 1 0 0 empty empty %_out_granu 2 8 0 9 -260097
-262144 -262144 6900 1;
#X obj 290 373 r lo;
#X obj -395 35 r lo;
#X obj -157 -670 r directinA;
#X msg 156 12 0;
#X connect 0 0 142 0;
#X connect 1 0 141 0;
#X connect 2 0 17 1;
#X connect 3 0 17 3;
#X connect 4 0 17 2;
#X connect 5 0 144 0;
#X connect 6 0 145 0;
#X connect 7 0 18 1;
#X connect 7 0 20 0;
#X connect 8 0 17 0;
#X connect 9 0 8 1;
#X connect 10 0 8 2;
#X connect 11 0 8 4;
#X connect 12 0 8 3;
#X connect 13 0 4 0;
#X connect 14 0 3 0;
#X connect 15 0 7 0;
#X connect 16 0 2 0;
#X connect 17 0 19 0;
#X connect 17 0 19 1;
#X connect 17 0 158 0;
#X connect 18 0 8 0;
#X connect 21 0 46 0;
#X connect 22 0 55 0;
#X connect 23 0 48 0;
#X connect 24 0 25 0;
#X connect 25 0 23 0;
#X connect 26 0 36 0;
#X connect 28 0 24 1;
#X connect 29 0 25 1;
#X connect 31 0 74 0;
#X connect 34 0 35 0;
#X connect 35 0 74 0;
#X connect 35 1 74 1;
#X connect 36 0 37 0;
#X connect 37 0 38 0;
#X connect 38 0 120 1;
#X connect 39 0 27 0;
#X connect 39 0 42 0;
#X connect 41 0 23 1;
#X connect 42 0 43 0;
#X connect 43 0 44 0;
#X connect 45 0 139 0;
#X connect 46 0 30 0;
#X connect 47 0 90 0;
#X connect 48 0 50 0;
#X connect 49 0 120 0;
#X connect 50 0 49 0;
#X connect 53 0 74 0;
#X connect 53 1 74 2;
#X connect 54 0 53 0;
#X connect 55 0 52 0;
#X connect 55 0 93 0;
#X connect 56 0 63 0;
#X connect 57 0 58 0;
#X connect 58 0 56 0;
#X connect 59 0 60 0;
#X connect 60 0 61 0;
#X connect 61 0 121 1;
#X connect 62 0 56 1;
#X connect 63 0 66 0;
#X connect 64 0 121 0;
#X connect 65 0 57 0;
#X connect 66 0 64 0;
#X connect 67 0 57 1;
#X connect 68 0 58 1;
#X connect 69 0 59 0;
#X connect 70 0 21 0;
#X connect 71 0 72 0;
#X connect 72 0 75 0;
#X connect 72 0 90 1;
#X connect 74 0 39 0;
#X connect 74 0 51 0;
#X connect 75 0 77 0;
#X connect 75 1 77 1;
#X connect 77 0 47 0;
#X connect 78 0 84 0;
#X connect 79 0 83 0;
#X connect 81 0 80 0;
#X connect 82 0 71 0;
#X connect 82 0 151 0;
#X connect 83 0 78 0;
#X connect 84 0 82 0;
#X connect 85 0 123 0;
#X connect 90 0 129 0;
#X connect 91 0 92 0;
#X connect 92 0 93 0;
#X connect 92 1 93 1;
#X connect 93 0 77 0;
#X connect 95 0 63 1;
#X connect 96 0 48 1;
#X connect 97 0 125 0;
#X connect 98 0 99 0;
#X connect 98 0 100 0;
#X connect 98 0 70 0;
#X connect 99 0 91 0;
#X connect 100 0 22 0;
#X connect 101 0 24 0;
#X connect 103 0 106 0;
#X connect 104 0 114 0;
#X connect 106 0 104 0;
#X connect 107 0 104 0;
#X connect 108 0 110 0;
#X connect 109 0 108 0;
#X connect 110 0 122 0;
#X connect 111 0 115 0;
#X connect 112 0 113 0;
#X connect 113 0 108 0;
#X connect 114 0 115 1;
#X connect 114 0 79 0;
#X connect 115 0 118 0;
#X connect 115 0 124 0;
#X connect 115 0 126 0;
#X connect 117 0 112 0;
#X connect 119 0 95 0;
#X connect 119 0 96 0;
#X connect 120 0 45 0;
#X connect 121 0 45 1;
#X connect 122 0 111 0;
#X connect 123 0 47 1;
#X connect 125 0 95 0;
#X connect 125 0 96 0;
#X connect 127 0 71 0;
#X connect 128 0 71 0;
#X connect 129 0 40 0;
#X connect 129 0 88 0;
#X connect 130 0 149 0;
#X connect 132 0 130 0;
#X connect 133 0 107 0;
#X connect 134 0 31 0;
#X connect 135 0 153 0;
#X connect 136 0 91 0;
#X connect 137 0 85 0;
#X connect 138 0 162 0;
#X connect 139 0 18 0;
#X connect 140 0 143 0;
#X connect 141 0 143 2;
#X connect 142 0 143 3;
#X connect 143 0 139 1;
#X connect 144 0 143 4;
#X connect 145 0 143 7;
#X connect 146 0 156 0;
#X connect 147 0 5 0;
#X connect 148 0 112 0;
#X connect 149 0 113 1;
#X connect 150 0 140 0;
#X connect 152 0 119 0;
#X connect 153 0 22 0;
#X connect 154 0 112 0;
#X connect 155 0 0 0;
#X connect 155 0 156 0;
#X connect 155 0 179 0;
#X connect 156 0 157 0;
#X connect 157 0 6 0;
#X connect 159 0 85 0;
#X connect 161 0 160 0;
#X connect 162 0 143 1;
#X connect 163 0 161 0;
#X connect 164 0 166 0;
#X connect 165 0 167 0;
#X connect 166 0 165 0;
#X connect 167 0 5 0;
#X connect 168 0 170 0;
#X connect 169 0 168 0;
#X connect 170 0 172 0;
#X connect 171 0 169 0;
#X connect 172 0 173 0;
#X connect 173 0 6 0;
#X connect 174 0 143 6;
#X connect 175 0 143 5;
#X connect 176 0 175 0;
#X connect 176 0 174 0;
#X connect 177 0 162 1;
#X connect 178 0 159 0;
#X connect 179 0 9 0;
#X connect 179 0 11 0;
#X connect 179 0 7 0;
#X connect 179 0 3 0;
#X connect 179 0 4 0;
#X connect 179 0 2 0;
#X coords 0 -1 1 1 158 170 2 100 100;
