#N canvas 198 22 942 698 10;
#X obj 741 484 outlet;
#X floatatom 682 120 5 0 0 0 - - -, f 5;
#X obj 682 178 bng 15 250 50 0 empty empty empty 17 7 0 10 -262144
-1 -1;
#X floatatom 750 177 5 0 0 0 - - -, f 5;
#X obj 961 123 r lo;
#X obj 754 383 spigot-toggle_orange;
#X obj 815 192 spigot-toggle_orange;
#X obj 971 340 tgl 15 0 empty empty empty 17 7 0 10 -262144 -1 -1 0
1;
#X obj 953 391 inlet;
#X obj 1012 478 noteout;
#X floatatom 1067 443 5 0 0 0 - - -, f 5;
#X obj 1006 371 r lo;
#X obj 1079 304 sel;
#X obj 722 199 float;
#X obj 768 211 + 1;
#X floatatom 705 342 5 0 0 0 - - -, f 5;
#X obj 725 284 sel 0;
#X obj 723 249 mod 2;
#X msg 700 315 1;
#X msg 737 314 0;
#X obj 816 225 float;
#X obj 862 237 + 1;
#X floatatom 823 355 5 0 0 0 - - -, f 5;
#X obj 818 286 sel 1 2 3;
#X obj 816 251 mod 4;
#X obj 952 447 - 1;
#X obj 954 477 * -1;
#X obj 816 385 spigot-toggle_orange;
#X msg 963 147 4;
#X obj 681 153 select 4;
#X obj 1079 280 == 4;
#X msg 1008 406 4;
#X obj 1029 440 * 45;
#X msg 793 317 0;
#X msg 830 316 1;
#X msg 860 316 0;
#X msg 897 315 1;
#X obj 688 46 notein 1;
#X connect 1 0 29 0;
#X connect 1 0 30 0;
#X connect 2 0 13 0;
#X connect 4 0 28 0;
#X connect 4 0 5 1;
#X connect 5 0 0 0;
#X connect 5 0 32 0;
#X connect 6 0 20 0;
#X connect 7 0 25 0;
#X connect 7 0 6 1;
#X connect 7 0 27 1;
#X connect 8 0 7 0;
#X connect 10 0 9 2;
#X connect 11 0 31 0;
#X connect 12 1 31 0;
#X connect 13 0 14 0;
#X connect 13 0 17 0;
#X connect 14 0 13 1;
#X connect 15 0 5 0;
#X connect 16 0 18 0;
#X connect 16 0 6 0;
#X connect 16 1 19 0;
#X connect 17 0 16 0;
#X connect 18 0 15 0;
#X connect 19 0 15 0;
#X connect 20 0 21 0;
#X connect 20 0 24 0;
#X connect 21 0 20 1;
#X connect 22 0 27 0;
#X connect 22 0 32 0;
#X connect 23 0 33 0;
#X connect 23 1 34 0;
#X connect 23 2 35 0;
#X connect 23 3 36 0;
#X connect 24 0 23 0;
#X connect 25 0 26 0;
#X connect 26 0 5 1;
#X connect 27 0 0 0;
#X connect 28 0 29 1;
#X connect 29 0 2 0;
#X connect 29 1 3 0;
#X connect 30 0 12 0;
#X connect 31 0 9 0;
#X connect 32 0 9 1;
#X connect 33 0 22 0;
#X connect 34 0 22 0;
#X connect 35 0 22 0;
#X connect 36 0 22 0;
#X connect 37 0 1 0;
