#N canvas 392 101 507 613 10;
#X floatatom 234 119 5 0 0 0 - - -, f 5;
#X floatatom 231 373 5 0 0 0 - - -, f 5;
#X obj 233 198 float;
#X obj 275 199 + 1;
#X obj 234 177 bng 15 250 50 0 empty empty empty 17 7 0 10 -262144
-1 -1;
#X msg 187 329 0;
#X obj 227 268 sel 0 1 2;
#X msg 304 326 1;
#X obj 232 223 mod 4;
#X msg 224 328 0;
#X msg 267 327 1;
#X obj 226 412 outlet;
#X obj 233 152 select 16;
#X floatatom 304 154 5 0 0 0 - - -, f 5;
#X obj 293 103 r lo;
#X msg 295 127 16;
#X floatatom 381 373 5 0 0 0 - - -, f 5;
#X obj 377 268 sel 0 1 2;
#X msg 337 329 1;
#X msg 374 328 1;
#X msg 417 327 0;
#X msg 454 325 0;
#X obj 382 182 tgl 15 0 empty empty empty 17 7 0 10 -262144 -1 -1 0
1;
#X obj 359 210 - 1;
#X obj 388 210 * -1;
#X obj 234 247 spigot-toggle_red;
#X obj 300 411 spigot-toggle_red;
#X obj 379 125 r invertonof;
#X msg 325 127 16;
#X obj 240 45 notein 1;
#X connect 0 0 12 0;
#X connect 1 0 11 0;
#X connect 2 0 3 0;
#X connect 2 0 8 0;
#X connect 3 0 2 1;
#X connect 4 0 2 0;
#X connect 5 0 1 0;
#X connect 6 0 5 0;
#X connect 6 1 9 0;
#X connect 6 2 10 0;
#X connect 6 3 7 0;
#X connect 7 0 1 0;
#X connect 8 0 25 0;
#X connect 8 0 17 0;
#X connect 9 0 1 0;
#X connect 10 0 1 0;
#X connect 12 0 4 0;
#X connect 12 1 13 0;
#X connect 14 0 15 0;
#X connect 14 0 25 1;
#X connect 14 0 28 0;
#X connect 15 0 12 1;
#X connect 15 0 1 0;
#X connect 16 0 26 0;
#X connect 17 0 18 0;
#X connect 17 1 19 0;
#X connect 17 2 20 0;
#X connect 17 3 21 0;
#X connect 18 0 16 0;
#X connect 19 0 16 0;
#X connect 20 0 16 0;
#X connect 21 0 16 0;
#X connect 22 0 23 0;
#X connect 22 0 25 1;
#X connect 23 0 24 0;
#X connect 24 0 26 1;
#X connect 25 0 6 0;
#X connect 26 0 1 0;
#X connect 27 0 22 0;
#X connect 29 0 0 0;
