#N canvas 542 115 507 613 10;
#X floatatom 234 119 5 0 0 0 - - -;
#X floatatom 344 372 5 0 0 0 - - -;
#X obj 233 201 float;
#X obj 279 213 + 1;
#X obj 234 177 bng 15 250 50 0 empty empty empty 17 7 0 10 -262144
-1 -1;
#X msg 187 329 0;
#X obj 240 45 notein;
#X obj 227 268 sel 0 1 2;
#X msg 304 323 1;
#X obj 246 234 mod 4;
#X msg 224 328 0;
#X msg 267 324 1;
#X obj 416 506 outlet;
#X obj 233 152 select 16;
#X floatatom 302 176 5 0 0 0 - - -;
#X obj 326 127 r lo;
#X obj 152 537;
#X msg 329 151 7;
#X connect 0 0 13 0;
#X connect 1 0 12 0;
#X connect 2 0 3 0;
#X connect 2 0 9 0;
#X connect 3 0 2 1;
#X connect 4 0 2 0;
#X connect 5 0 1 0;
#X connect 6 0 0 0;
#X connect 7 0 5 0;
#X connect 7 1 10 0;
#X connect 7 2 11 0;
#X connect 7 3 8 0;
#X connect 8 0 1 0;
#X connect 9 0 7 0;
#X connect 10 0 1 0;
#X connect 11 0 1 0;
#X connect 13 0 4 0;
#X connect 13 1 14 0;
#X connect 15 0 17 0;
#X connect 17 0 13 1;
