#N canvas 816 23 507 613 10;
#X floatatom 234 119 5 0 0 0 - - -;
#X floatatom 344 372 5 0 0 0 - - -;
#X obj 233 201 float;
#X obj 279 213 + 1;
#X obj 234 177 bng 15 250 50 0 empty empty empty 17 7 0 10 -262144
-1 -1;
#X obj 433 179 makenote;
#X obj 432 338 - 1;
#X obj 432 365 * -1;
#X floatatom 431 392 5 0 0 0 - - -;
#X msg 187 329 0;
#X obj 233 152 select 6;
#X floatatom 288 124 5 0 0 0 - - -;
#X obj 431 420 * 64;
#X obj 240 45 notein;
#X obj 227 268 sel 0 1 2;
#X msg 304 323 1;
#X obj 246 234 mod 4;
#X msg 224 328 0;
#X msg 267 324 1;
#X obj 416 506 outlet;
#X obj 445 475 bng 15 250 50 0 empty empty empty 17 7 0 10 -262144
-1 -1;
#X connect 0 0 10 0;
#X connect 1 0 12 0;
#X connect 1 0 20 0;
#X connect 2 0 3 0;
#X connect 2 0 16 0;
#X connect 3 0 2 1;
#X connect 4 0 2 0;
#X connect 6 0 7 0;
#X connect 7 0 8 0;
#X connect 8 0 12 0;
#X connect 9 0 1 0;
#X connect 10 0 4 0;
#X connect 11 0 10 1;
#X connect 13 0 0 0;
#X connect 14 0 9 0;
#X connect 14 1 17 0;
#X connect 14 2 18 0;
#X connect 14 3 15 0;
#X connect 15 0 1 0;
#X connect 16 0 14 0;
#X connect 17 0 1 0;
#X connect 18 0 1 0;
#X connect 20 0 19 0;
