#N canvas 140 256 942 764 10;
#X floatatom 234 119 5 0 0 0 - - -, f 5;
#X obj 233 201 float;
#X obj 279 213 + 1;
#X obj 234 177 bng 15 250 50 0 empty empty empty 17 7 0 10 -262144
-1 -1;
#X obj 240 45 notein;
#X obj 315 438 outlet;
#X floatatom 302 176 5 0 0 0 - - -, f 5;
#X obj 513 122 r lo;
#X floatatom 216 344 5 0 0 0 - - -, f 5;
#X obj 236 286 sel 0;
#X obj 234 251 mod 2;
#X msg 211 317 0;
#X msg 248 316 1;
#X obj 306 382 spigot-toggle_orange;
#X obj 336 382 spigot-toggle_orange;
#X floatatom 334 357 5 0 0 0 - - -, f 5;
#X msg 341 318 0;
#X obj 327 253 mod 4;
#X obj 329 288 sel 0 1 2;
#X msg 304 319 0;
#X msg 377 319 1;
#X msg 414 318 1;
#X obj 503 424 tgl 15 0 empty empty empty 17 7 0 10 -262144 -1 -1 0
1;
#X obj 504 446 - 1;
#X obj 504 468 * -1;
#X obj 505 390 inlet;
#X obj 234 152 select 16;
#X msg 515 146 16;
#X connect 0 0 26 0;
#X connect 1 0 2 0;
#X connect 1 0 10 0;
#X connect 1 0 17 0;
#X connect 2 0 1 1;
#X connect 3 0 1 0;
#X connect 4 0 0 0;
#X connect 7 0 27 0;
#X connect 8 0 13 0;
#X connect 9 0 11 0;
#X connect 9 1 12 0;
#X connect 10 0 9 0;
#X connect 11 0 8 0;
#X connect 12 0 8 0;
#X connect 13 0 5 0;
#X connect 14 0 5 0;
#X connect 15 0 14 0;
#X connect 16 0 15 0;
#X connect 17 0 18 0;
#X connect 18 0 19 0;
#X connect 18 1 16 0;
#X connect 18 2 20 0;
#X connect 18 3 21 0;
#X connect 19 0 15 0;
#X connect 20 0 15 0;
#X connect 21 0 15 0;
#X connect 22 0 23 0;
#X connect 22 0 13 1;
#X connect 23 0 24 0;
#X connect 24 0 14 1;
#X connect 25 0 22 0;
#X connect 26 0 3 0;
#X connect 26 1 6 0;
#X connect 27 0 22 0;
#X connect 27 0 26 1;
