#N canvas 96 34 891 832 10;
#X obj 208 343 spigot-toggle_jaunenoir;
#X obj 229 343 spigot-toggle_jaunenoir;
#X obj 249 343 spigot-toggle_jaunenoir;
#X obj 189 343 spigot-toggle_red;
#X obj 169 343 spigot-toggle_vert;
#X obj 211 323 r fll0;
#X obj 251 323 r fll1;
#X obj 291 323 r fl2;
#X obj 166 323 r A;
#X obj 188 323 r B;
#X floatatom 166 281 5 0 0 0 - - -, f 5;
#X floatatom 199 281 5 0 0 0 - - -, f 5;
#X floatatom 233 282 5 0 0 0 - - -, f 5;
#X floatatom 266 282 5 0 0 0 - - -, f 5;
#X floatatom 303 284 5 0 0 0 - - -, f 5;
#X obj 166 259 == 0;
#X obj 199 259 == 1;
#X obj 234 259 == 2;
#X obj 267 258 == 3;
#X obj 301 259 == 4;
#X floatatom 167 240 5 0 0 0 - - -, f 5;
#X obj 167 217 hradio 15 1 0 4 empty empty empty 0 -8 0 10 -261682
-1 -1 0;
#X floatatom 165 507 5 0 0 0 - - -, f 5;
#X obj 159 183 inlet;
#X obj 169 534 outlet;
#X msg 282 490 1;
#X obj 171 445 spigot-toggle_jaunenoir;
#X obj 344 430 bng 15 250 50 0 empty empty empty 17 7 0 10 -262144
-1 -1;
#X obj 299 164 r lo;
#X obj 337 402 inlet;
#X msg 215 173 0;
#X obj 432 414;
#X connect 0 0 26 0;
#X connect 1 0 26 0;
#X connect 2 0 26 0;
#X connect 3 0 26 0;
#X connect 4 0 26 0;
#X connect 5 0 0 0;
#X connect 6 0 1 0;
#X connect 7 0 2 0;
#X connect 8 0 4 0;
#X connect 9 0 3 0;
#X connect 10 0 4 1;
#X connect 11 0 3 1;
#X connect 12 0 0 1;
#X connect 13 0 1 1;
#X connect 14 0 2 1;
#X connect 15 0 10 0;
#X connect 16 0 11 0;
#X connect 17 0 12 0;
#X connect 18 0 13 0;
#X connect 19 0 14 0;
#X connect 20 0 15 0;
#X connect 20 0 16 0;
#X connect 20 0 17 0;
#X connect 20 0 18 0;
#X connect 20 0 19 0;
#X connect 21 0 20 0;
#X connect 22 0 24 0;
#X connect 23 0 21 0;
#X connect 25 0 22 0;
#X connect 26 0 22 0;
#X connect 27 0 25 0;
#X connect 27 0 26 1;
#X connect 28 0 25 0;
#X connect 28 0 30 0;
#X connect 29 0 27 0;
#X connect 30 0 21 0;
