#N canvas 210 61 742 609 10;
#X obj 459 983 noteout;
#X floatatom 514 948 5 0 0 0 - - -;
#X obj 463 586 inlet;
#X obj 363 891 r lo;
#X floatatom 467 622 5 0 0 0 - - -;
#X floatatom 458 709 5 0 0 0 - - -;
#X obj 456 647 *;
#X msg 409 897 16;
#X obj 239 561 r mod11;
#X floatatom 249 740 5 0 0 0 - - -;
#X obj 294 649 == 0;
#X floatatom 160 673 5 0 0 0 - - -;
#X connect 1 0 0 2;
#X connect 2 0 4 0;
#X connect 3 0 7 0;
#X connect 4 0 6 1;
#X connect 5 0 0 1;
#X connect 6 0 5 0;
#X connect 7 0 0 0;
#X connect 8 0 10 0;
#X connect 8 0 11 0;
#X connect 10 0 7 0;
#X connect 10 0 6 0;
#X connect 10 0 9 0;
