#N canvas 314 115 742 609 10;
#X obj 489 1013 noteout;
#X floatatom 544 978 5 0 0 0 - - -;
#X obj 493 616 inlet;
#X obj 393 921 r lo;
#X floatatom 497 652 5 0 0 0 - - -;
#X floatatom 470 825 5 0 0 0 - - -;
#X floatatom 394 598 5 0 0 0 - - -;
#X obj 486 677 *;
#X msg 439 927 19;
#X obj 399 635 == 3;
#X obj 269 591 r mod11;
#X connect 1 0 0 2;
#X connect 2 0 4 0;
#X connect 3 0 8 0;
#X connect 4 0 7 1;
#X connect 5 0 0 1;
#X connect 6 0 9 0;
#X connect 7 0 5 0;
#X connect 8 0 0 0;
#X connect 9 0 8 0;
#X connect 9 0 7 0;
#X connect 10 0 6 0;
