#N canvas 480 598 742 609 10;
#X obj 324 500 noteout;
#X floatatom 379 465 5 0 0 0 - - -, f 5;
#X obj 328 103 inlet;
#X obj 228 408 r lo;
#X floatatom 332 139 5 0 0 0 - - -, f 5;
#X floatatom 229 85 5 0 0 0 - - -, f 5;
#X floatatom 175 212 5 0 0 0 - - -, f 5;
#X obj 104 78 r modL;
#X obj 111 108 r modL1;
#X msg 274 416 13;
#X obj 234 122 == 13;
#X obj 377 245 t b f;
#X obj 380 275 * 1;
#X floatatom 364 312 5 0 0 0 - - -, f 5;
#X connect 1 0 0 2;
#X connect 2 0 4 0;
#X connect 3 0 9 0;
#X connect 4 0 11 0;
#X connect 5 0 10 0;
#X connect 6 0 12 0;
#X connect 7 0 5 0;
#X connect 8 0 5 0;
#X connect 9 0 0 0;
#X connect 10 0 6 0;
#X connect 10 0 9 0;
#X connect 11 0 12 0;
#X connect 11 1 12 1;
#X connect 12 0 13 0;
#X connect 13 0 0 1;
