#N canvas 725 41 742 609 10;
#X obj 470 993 noteout;
#X floatatom 525 958 5 0 0 0 - - -;
#X obj 474 596 inlet;
#X obj 374 901 r lo;
#X floatatom 478 621 5 0 0 0 - - -;
#X floatatom 451 805 5 0 0 0 - - -;
#X obj 58 57;
#X floatatom 375 578 5 0 0 0 - - -;
#X obj 459 771 *;
#X obj 467 657 *;
#X msg 420 907 17;
#X obj 249 571 r mod11;
#X obj 380 615 == 1;
#X connect 1 0 0 2;
#X connect 2 0 4 0;
#X connect 3 0 10 0;
#X connect 4 0 9 1;
#X connect 5 0 0 1;
#X connect 7 0 12 0;
#X connect 8 0 5 0;
#X connect 9 0 5 0;
#X connect 10 0 0 0;
#X connect 11 0 7 0;
#X connect 12 0 10 0;
#X connect 12 0 9 0;
