#N canvas 314 115 742 609 10;
#X obj 569 1093 noteout;
#X floatatom 624 1058 5 0 0 0 - - -;
#X obj 573 696 inlet;
#X obj 473 1001 r lo;
#X floatatom 577 732 5 0 0 0 - - -;
#X floatatom 550 905 5 0 0 0 - - -;
#X floatatom 474 678 5 0 0 0 - - -;
#X obj 566 757 *;
#X msg 519 1007 27;
#X obj 479 715 == 11;
#X obj 349 671 r mod11;
#X connect 1 0 0 2;
#X connect 2 0 4 0;
#X connect 3 0 8 0;
#X connect 4 0 7 1;
#X connect 5 0 0 1;
#X connect 6 0 9 0;
#X connect 7 0 5 0;
#X connect 8 0 0 0;
#X connect 9 0 8 0;
#X connect 9 0 7 0;
#X connect 10 0 6 0;
