#N canvas 314 115 742 609 10;
#X obj 579 1103 noteout;
#X floatatom 634 1068 5 0 0 0 - - -;
#X obj 583 706 inlet;
#X obj 483 1011 r lo;
#X floatatom 587 742 5 0 0 0 - - -;
#X floatatom 560 915 5 0 0 0 - - -;
#X floatatom 484 688 5 0 0 0 - - -;
#X obj 576 767 *;
#X msg 529 1017 28;
#X obj 491 725 == 12;
#X obj 359 681 r mod11;
#X connect 1 0 0 2;
#X connect 2 0 4 0;
#X connect 3 0 8 0;
#X connect 4 0 7 1;
#X connect 5 0 0 1;
#X connect 6 0 9 0;
#X connect 7 0 5 0;
#X connect 8 0 0 0;
#X connect 9 0 8 0;
#X connect 9 0 7 0;
#X connect 10 0 6 0;
