#N canvas 314 115 742 609 10;
#X obj 549 1073 noteout;
#X floatatom 604 1038 5 0 0 0 - - -;
#X obj 553 676 inlet;
#X obj 453 981 r lo;
#X floatatom 557 712 5 0 0 0 - - -;
#X floatatom 530 885 5 0 0 0 - - -;
#X floatatom 454 658 5 0 0 0 - - -;
#X obj 546 737 *;
#X msg 499 987 25;
#X obj 459 695 == 9;
#X obj 329 651 r mod11;
#X connect 1 0 0 2;
#X connect 2 0 4 0;
#X connect 3 0 8 0;
#X connect 4 0 7 1;
#X connect 5 0 0 1;
#X connect 6 0 9 0;
#X connect 7 0 5 0;
#X connect 8 0 0 0;
#X connect 9 0 8 0;
#X connect 9 0 7 0;
#X connect 10 0 6 0;
