#N canvas 314 115 742 609 10;
#X obj 559 1083 noteout;
#X floatatom 614 1048 5 0 0 0 - - -;
#X obj 563 686 inlet;
#X obj 463 991 r lo;
#X floatatom 567 722 5 0 0 0 - - -;
#X floatatom 540 895 5 0 0 0 - - -;
#X floatatom 464 668 5 0 0 0 - - -;
#X obj 556 747 *;
#X msg 509 997 26;
#X obj 470 705 == 10;
#X obj 339 661 r mod11;
#X connect 1 0 0 2;
#X connect 2 0 4 0;
#X connect 3 0 8 0;
#X connect 4 0 7 1;
#X connect 5 0 0 1;
#X connect 6 0 9 0;
#X connect 7 0 5 0;
#X connect 8 0 0 0;
#X connect 9 0 8 0;
#X connect 9 0 7 0;
#X connect 10 0 6 0;
