#N canvas 34 394 742 609 10;
#X obj 194 370 noteout;
#X floatatom 249 335 5 0 0 0 - - -, f 5;
#X obj 198 -27 inlet;
#X obj 98 278 r lo;
#X floatatom 202 9 5 0 0 0 - - -, f 5;
#X floatatom 175 182 5 0 0 0 - - -, f 5;
#X floatatom 99 -45 5 0 0 0 - - -, f 5;
#X floatatom 45 82 5 0 0 0 - - -, f 5;
#X obj 104 -8 == 2;
#X obj -26 -52 r modL;
#X floatatom 218 71 5 0 0 0 - - -, f 5;
#X msg 144 286 2;
#X obj 304 49 t b f;
#X obj 307 79 * 1;
#X connect 1 0 0 2;
#X connect 2 0 4 0;
#X connect 3 0 11 0;
#X connect 4 0 12 0;
#X connect 5 0 0 1;
#X connect 6 0 8 0;
#X connect 7 0 13 0;
#X connect 8 0 7 0;
#X connect 8 0 11 0;
#X connect 9 0 6 0;
#X connect 10 0 0 1;
#X connect 11 0 0 0;
#X connect 12 0 13 0;
#X connect 12 1 13 1;
#X connect 13 0 10 0;
