#N canvas 314 115 742 609 10;
#X obj 252 420 noteout;
#X floatatom 307 385 5 0 0 0 - - -;
#X obj 256 23 inlet;
#X obj 156 328 r lo;
#X floatatom 260 59 5 0 0 0 - - -;
#X floatatom 233 232 5 0 0 0 - - -;
#X floatatom 157 5 5 0 0 0 - - -;
#X obj 249 84 *;
#X msg 202 336 22;
#X obj 162 42 == 6;
#X obj 32 -2 r mod11;
#X connect 1 0 0 2;
#X connect 2 0 4 0;
#X connect 3 0 8 0;
#X connect 4 0 7 1;
#X connect 5 0 0 1;
#X connect 6 0 9 0;
#X connect 7 0 5 0;
#X connect 8 0 0 0;
#X connect 9 0 8 0;
#X connect 9 0 7 0;
#X connect 10 0 6 0;
