#N canvas 314 115 742 609 10;
#X obj 529 1053 noteout;
#X floatatom 584 1018 5 0 0 0 - - -;
#X obj 533 656 inlet;
#X obj 433 961 r lo;
#X floatatom 537 692 5 0 0 0 - - -;
#X floatatom 510 865 5 0 0 0 - - -;
#X floatatom 434 638 5 0 0 0 - - -;
#X obj 526 717 *;
#X msg 479 967 23;
#X obj 439 675 == 7;
#X obj 309 631 r mod11;
#X connect 1 0 0 2;
#X connect 2 0 4 0;
#X connect 3 0 8 0;
#X connect 4 0 7 1;
#X connect 5 0 0 1;
#X connect 6 0 9 0;
#X connect 7 0 5 0;
#X connect 8 0 0 0;
#X connect 9 0 8 0;
#X connect 9 0 7 0;
#X connect 10 0 6 0;
