#N canvas 314 115 742 609 10;
#X obj 539 1063 noteout;
#X floatatom 594 1028 5 0 0 0 - - -;
#X obj 543 666 inlet;
#X obj 443 971 r lo;
#X floatatom 547 702 5 0 0 0 - - -;
#X floatatom 520 875 5 0 0 0 - - -;
#X floatatom 444 648 5 0 0 0 - - -;
#X obj 536 727 *;
#X msg 489 977 24;
#X obj 449 685 == 8;
#X obj 319 641 r mod11;
#X connect 1 0 0 2;
#X connect 2 0 4 0;
#X connect 3 0 8 0;
#X connect 4 0 7 1;
#X connect 5 0 0 1;
#X connect 6 0 9 0;
#X connect 7 0 5 0;
#X connect 8 0 0 0;
#X connect 9 0 8 0;
#X connect 9 0 7 0;
#X connect 10 0 6 0;
