#N canvas 0 254 742 609 10;
#X obj 241 245 noteout;
#X floatatom 296 210 5 0 0 0 - - -;
#X obj 245 -152 inlet;
#X obj 145 153 r lo;
#X floatatom 249 -116 5 0 0 0 - - -;
#X floatatom 222 57 5 0 0 0 - - -;
#X floatatom 146 -170 5 0 0 0 - - -;
#X obj 238 -91 *;
#X msg 191 159 20;
#X obj 151 -133 == 4;
#X obj 21 -177 r mod11;
#X connect 1 0 0 2;
#X connect 2 0 4 0;
#X connect 3 0 8 0;
#X connect 4 0 7 1;
#X connect 5 0 0 1;
#X connect 6 0 9 0;
#X connect 7 0 5 0;
#X connect 8 0 0 0;
#X connect 9 0 8 0;
#X connect 9 0 7 0;
#X connect 10 0 6 0;
