#N canvas 43 42 742 609 10;
#X obj 599 1123 noteout;
#X floatatom 654 1088 5 0 0 0 - - -;
#X obj 603 726 inlet;
#X obj 503 1031 r lo;
#X floatatom 607 762 5 0 0 0 - - -;
#X floatatom 580 935 5 0 0 0 - - -;
#X floatatom 504 708 5 0 0 0 - - -;
#X obj 596 787 *;
#X obj 509 745 == 14;
#X msg 549 1037 30;
#X obj 379 701 r mod11;
#X connect 1 0 0 2;
#X connect 2 0 4 0;
#X connect 3 0 9 0;
#X connect 4 0 7 1;
#X connect 5 0 0 1;
#X connect 6 0 8 0;
#X connect 7 0 5 0;
#X connect 8 0 9 0;
#X connect 8 0 7 0;
#X connect 9 0 0 0;
#X connect 10 0 6 0;
