#N canvas 276 22 742 607 10;
#X obj 449 973 noteout;
#X floatatom 504 938 5 0 0 0 - - -, f 5;
#X obj 453 576 inlet;
#X obj 353 881 r lo;
#X floatatom 457 612 5 0 0 0 - - -, f 5;
#X floatatom 430 785 5 0 0 0 - - -, f 5;
#X obj 37 37;
#X floatatom 388 631 5 0 0 0 - - -, f 5;
#X obj 446 637 *;
#X floatatom 353 537 5 0 0 0 - - -, f 5;
#X obj 348 481 r mod111;
#X obj 359 595 == 0;
#X obj 358 567 + 0;
#X msg 399 887 32;
#X connect 1 0 0 2;
#X connect 2 0 4 0;
#X connect 3 0 13 0;
#X connect 4 0 8 1;
#X connect 5 0 0 1;
#X connect 7 0 8 0;
#X connect 8 0 5 0;
#X connect 9 0 12 0;
#X connect 10 0 9 0;
#X connect 11 0 7 0;
#X connect 11 0 13 0;
#X connect 12 0 11 0;
#X connect 13 0 0 0;
