#N canvas 159 243 742 609 10;
#X obj 449 973 noteout;
#X floatatom 504 938 5 0 0 0 - - -, f 5;
#X obj 453 576 inlet;
#X obj 353 881 r lo;
#X floatatom 457 612 5 0 0 0 - - -, f 5;
#X floatatom 430 785 5 0 0 0 - - -, f 5;
#X obj 37 37;
#X floatatom 353 535 5 0 0 0 - - -, f 5;
#X floatatom 300 685 5 0 0 0 - - -, f 5;
#X msg 399 887 33;
#X obj 262 601 r mod111;
#X obj 446 637 *;
#X obj 359 595 == 1;
#X connect 1 0 0 2;
#X connect 2 0 4 0;
#X connect 3 0 9 0;
#X connect 4 0 11 1;
#X connect 5 0 0 1;
#X connect 7 0 12 0;
#X connect 8 0 11 0;
#X connect 9 0 0 0;
#X connect 10 0 7 0;
#X connect 11 0 5 0;
#X connect 12 0 8 0;
#X connect 12 0 9 0;
