#N canvas 398 22 742 609 10;
#X obj 449 973 noteout;
#X floatatom 504 938 5 0 0 0 - - -;
#X obj 453 576 inlet;
#X obj 353 881 r lo;
#X floatatom 457 612 5 0 0 0 - - -;
#X floatatom 430 785 5 0 0 0 - - -;
#X floatatom 354 558 5 0 0 0 - - -;
#X floatatom 300 685 5 0 0 0 - - -;
#X obj 438 751 *;
#X obj 446 637 *;
#X msg 399 887 34;
#X obj 359 595 == 34;
#X obj 239 571 r modL1;
#X connect 1 0 0 2;
#X connect 2 0 4 0;
#X connect 3 0 10 0;
#X connect 4 0 9 1;
#X connect 5 0 0 1;
#X connect 6 0 11 0;
#X connect 7 0 9 0;
#X connect 8 0 5 0;
#X connect 9 0 5 0;
#X connect 10 0 0 0;
#X connect 11 0 7 0;
#X connect 11 0 10 0;
#X connect 12 0 6 0;
