#N canvas 633 42 742 609 10;
#X obj 609 1133 noteout;
#X floatatom 664 1098 5 0 0 0 - - -;
#X obj 613 736 inlet;
#X obj 513 1041 r lo;
#X floatatom 617 772 5 0 0 0 - - -;
#X floatatom 590 945 5 0 0 0 - - -;
#X floatatom 514 718 5 0 0 0 - - -;
#X obj 606 797 *;
#X msg 559 1047 31;
#X obj 519 755 == 15;
#X obj 389 709 r mod11;
#X connect 1 0 0 2;
#X connect 2 0 4 0;
#X connect 3 0 8 0;
#X connect 4 0 7 1;
#X connect 5 0 0 1;
#X connect 6 0 9 0;
#X connect 7 0 5 0;
#X connect 8 0 0 0;
#X connect 9 0 8 0;
#X connect 9 0 7 0;
#X connect 10 0 6 0;
