#N canvas 865 355 742 609 10;
#X obj -858 -385 noteout;
#X floatatom -803 -420 5 0 0 0 - - -, f 5;
#X obj -854 -782 inlet;
#X obj -954 -477 r lo;
#X floatatom -850 -746 5 0 0 0 - - -, f 5;
#X floatatom -762 -841 5 0 0 0 - - -, f 5;
#X floatatom -665 -657 5 0 0 0 - - -, f 5;
#X floatatom -878 -581 5 0 0 0 - - -, f 5;
#X obj -1270 -1321;
#X floatatom -953 -800 5 0 0 0 - - -, f 5;
#X floatatom -1007 -673 5 0 0 0 - - -, f 5;
#X obj -869 -607 *;
#X obj -861 -721 *;
#X msg -908 -471 37;
#X obj -1002 -879 r mod111;
#X obj -948 -763 == 5;
#X obj -943 -878 + 0;
#X connect 1 0 0 2;
#X connect 2 0 4 0;
#X connect 3 0 13 0;
#X connect 4 0 12 1;
#X connect 6 0 11 1;
#X connect 7 0 0 1;
#X connect 9 0 15 0;
#X connect 10 0 12 0;
#X connect 11 0 7 0;
#X connect 12 0 7 0;
#X connect 13 0 0 0;
#X connect 14 0 16 0;
#X connect 15 0 10 0;
#X connect 15 0 13 0;
#X connect 16 0 9 0;
