#N canvas 395 158 742 609 10;
#X obj -858 -385 noteout;
#X floatatom -803 -420 5 0 0 0 - - -, f 5;
#X obj -854 -782 inlet;
#X obj -954 -477 r lo;
#X floatatom -850 -746 5 0 0 0 - - -, f 5;
#X floatatom -897 -573 5 0 0 0 - - -, f 5;
#X obj -1270 -1321;
#X floatatom -953 -800 5 0 0 0 - - -, f 5;
#X obj -861 -721 *;
#X msg -908 -473 43;
#X obj -1028 -843 r mod111;
#X obj -948 -763 == 11;
#X obj -969 -842 + 0;
#X floatatom -937 -573 5 0 0 0 - - -, f 5;
#X connect 1 0 0 2;
#X connect 2 0 4 0;
#X connect 3 0 9 0;
#X connect 4 0 8 1;
#X connect 5 0 0 1;
#X connect 7 0 11 0;
#X connect 8 0 5 0;
#X connect 9 0 0 0;
#X connect 10 0 12 0;
#X connect 11 0 8 0;
#X connect 11 0 13 0;
#X connect 12 0 7 0;
#X connect 13 0 9 0;
