#N canvas 104 430 742 609 10;
#X obj 204 380 noteout;
#X floatatom 260 349 5 0 0 0 - - -, f 5;
#X obj 208 -17 inlet;
#X obj 108 288 r lo;
#X floatatom 212 19 5 0 0 0 - - -, f 5;
#X floatatom 109 -35 5 0 0 0 - - -, f 5;
#X floatatom 55 92 5 0 0 0 - - -, f 5;
#X obj -16 -42 r modL;
#X obj -9 -12 r modL1;
#X obj 410 254 r steponof;
#X floatatom 455 336 5 0 0 0 - - -, f 5;
#X obj 455 308 * 1.3;
#X msg 155 297 4;
#X obj 114 2 == 4;
#X obj 361 62 t b f;
#X obj 364 92 * 1;
#X floatatom 348 129 5 0 0 0 - - -, f 5;
#X connect 1 0 0 2;
#X connect 2 0 4 0;
#X connect 3 0 12 0;
#X connect 4 0 14 0;
#X connect 5 0 13 0;
#X connect 6 0 15 0;
#X connect 7 0 5 0;
#X connect 8 0 5 0;
#X connect 9 0 11 0;
#X connect 11 0 10 0;
#X connect 12 0 0 0;
#X connect 13 0 6 0;
#X connect 13 0 12 0;
#X connect 14 0 15 0;
#X connect 14 1 15 1;
#X connect 15 0 16 0;
#X connect 16 0 0 1;
