#N canvas 314 115 742 609 10;
#X obj 449 973 noteout;
#X floatatom 504 938 5 0 0 0 - - -;
#X obj 343 706 bng 15 250 50 0 empty empty empty 17 7 0 10 -262144
-1 -1;
#X obj 507 650 inlet;
#X obj 365 831 r lo;
#X obj 273 603 r T_0;
#X obj 242 654 delay;
#X floatatom 268 626 5 0 0 0 - - -;
#X obj 420 705 bng 15 250 50 0 empty empty empty 17 7 0 10 -262144
-1 -1;
#X floatatom 480 891 5 0 0 0 - - -;
#X obj 453 843 *;
#X obj 341 597 inlet;
#X msg 371 752 0;
#X msg 421 748 1;
#X msg 365 854 48;
#X connect 1 0 0 2;
#X connect 2 0 14 0;
#X connect 2 0 12 0;
#X connect 3 0 10 1;
#X connect 4 0 14 0;
#X connect 5 0 7 0;
#X connect 6 0 2 0;
#X connect 7 0 6 1;
#X connect 8 0 14 0;
#X connect 8 0 13 0;
#X connect 10 0 0 1;
#X connect 10 0 9 0;
#X connect 11 0 6 0;
#X connect 11 0 8 0;
#X connect 12 0 0 1;
#X connect 13 0 10 0;
#X connect 14 0 0 0;
