#N canvas 337 52 865 826 10;
#X obj 101 101 cnv 15 253 138 empty empty time_stretching_until_drone
3 12 0 12 -228856 -1 0;
#X obj 222 510 f;
#X obj 226 317 f;
#X obj 241 718 bng 15 250 50 0 empty empty empty 17 7 0 10 -262144
-1 -1;
#X obj 275 55 t b b;
#X obj 230 289 bng 15 250 50 0 empty empty empty 17 7 0 10 -262144
-1 -1;
#X obj 220 466 bng 15 250 50 0 empty empty empty 17 7 0 10 -262144
-1 -1;
#X obj 181 513 f;
#X obj 175 460 bng 15 250 50 0 empty empty empty 17 7 0 10 -262144
-1 -1;
#X obj 530 176 loadbang;
#X msg 645 78 1000;
#X obj 243 605 hsl 300 8 0 1000 0 0 empty empty empty -2 -8 0 10 -1
-258113 -1 0 1;
#X obj 236 620 select 1000;
#X obj 235 653 delay 10;
#X obj 239 685 delay 10;
#X msg 299 276 1e+12;
#X floatatom 776 333 5 0 0 0 - - -, f 5;
#X floatatom 828 465 12 0 0 0 - - -, f 12;
#X obj 830 493 * 1;
#X floatatom 830 545 12 0 0 0 - - -, f 12;
#X obj 239 553 line;
#X obj 277 34 delay 2;
#X obj 283 4 bng 15 250 50 0 empty empty empty 17 7 0 10 -262144 -1
-1;
#X msg 691 191 200;
#X msg 731 191 9999;
#X msg 778 191 2300;
#X msg 824 191 450;
#X floatatom 830 307 5 0 0 0 - - -, f 5;
#X floatatom 829 350 5 0 0 0 - - -, f 5;
#X obj 178 599 * 0.001;
#X obj -15 242 t b f;
#X obj -12 282 * 1;
#X obj 112 669 f;
#X obj 771 563 f;
#X text 157 770 changer L IN et L OUT sans changer la vitesse changer
la vitesse à la volée vitesse +/- vitesse normal de lecture \,;
#X obj 828 283 - 0;
#X obj 636 505 f;
#X obj 593 491 bng 15 250 50 0 empty empty empty 17 7 0 10 -262144
-1 -1;
#X obj 531 218 delay 100;
#X obj 365 -115 r B;
#X obj 355 -48 spigot-toggle_violet;
#X obj -13 214 spigot-toggle_violet;
#X floatatom 880 307 5 0 0 0 - - -, f 5;
#X obj 238 530 pack f f;
#X obj 823 259 t b f;
#X floatatom 835 689 12 0 0 0 - - -, f 12;
#X obj 830 325 * 0.001;
#X obj 828 377 * 1;
#X obj 357 -73 * 100;
#X text 519 45 >>>>>>>>>>>>>rcv only lenght sample A;
#X obj 399 -44 spigot-toggle_violet;
#X obj 398 -71 * 100;
#X obj 406 -113 r A;
#X obj 496 69 delay 300;
#X obj -2 507 f;
#X obj 1 476 bng 15 250 50 0 empty empty empty 17 7 0 10 -262144 -1
-1;
#X obj 39 171 spigot-toggle_violet;
#X obj 841 728 + 1;
#X obj 398 -19 + 1;
#X obj 353 -22 + 1;
#X obj 621 606 inlet;
#X floatatom 720 734 12 0 0 0 - - -, f 12;
#X obj 595 643 bng 15 250 50 0 empty empty empty 17 7 0 10 -262144
-1 -1;
#X obj 635 643 sel;
#X msg 643 692 1e+11;
#X obj 420 176 r lo;
#X obj 636 422 t b b b b;
#X obj 19 387 * 0.5;
#X obj 679 470 delay 100;
#X floatatom 112 122 5 0 0 1 IN - -, f 5;
#X floatatom 300 121 5 0 0 0 OUT - -, f 5;
#X floatatom 111 174 12 0 0 2 free_lenght - -, f 12;
#X obj 177 196 bng 20 250 50 0 empty empty resume 23 10 0 12 -1 -260097
-1;
#X floatatom 292 198 5 0 0 1 /X - -, f 5;
#X obj 271 198 tgl 15 0 empty empty B 4 9 0 12 -1 -260097 -260097 0
1;
#X floatatom 246 174 10 0 0 2 layerA.lenght - -, f 10;
#X obj 112 196 bng 20 250 50 0 empty empty pause 23 10 0 12 -1 -260097
-1;
#X floatatom 194 122 7 0 0 0 - - -, f 7;
#X obj 215 174 tgl 15 0 empty empty << 2 7 0 10 -262144 -1 -1 1 1;
#X obj 115 136 hsl 220 10 0 1000 0 0 empty empty empty -2 -8 0 10 -262144
-1 -1 0 1;
#X obj 115 147 hsl 220 10 0 1000 0 0 empty empty empty -2 -8 0 10 -262144
-1 -1 21900 1;
#X obj 249 198 tgl 15 0 empty empty A 4 9 0 12 -1 -260097 -260097 0
1;
#X obj 93 578 s line_pause1;
#X obj -21 148 r nbrdebit1;
#X obj 97 28 inlet;
#X obj 102 53 sel;
#X obj 14 124 r lo;
#X msg 191 38 0;
#X obj 362 477 outlet;
#X obj 379 38 inlet;
#X obj 372 63 spigot-toggle_violet;
#X msg 415 130 1000;
#X floatatom 304 -29 5 0 0 0 reposetoiX#B - reposetoiX#B, f 5;
#X floatatom 304 -45 5 0 0 0 reçoit_de_send_reposetoiX#B send_reposetoiX#B
-, f 5;
#X obj 177 485 spigot-toggle_violet;
#X obj 217 489 spigot-toggle_violet;
#X obj 126 471 tgl 15 0 empty empty empty 17 7 0 10 -262144 -1 -1 0
1;
#X obj 241 579 spigot-toggle_violet;
#X obj 2 -21 r send_reposetoinoffA;
#X connect 1 0 43 0;
#X connect 2 0 43 1;
#X connect 3 0 4 0;
#X connect 4 0 6 0;
#X connect 4 1 5 0;
#X connect 5 0 2 0;
#X connect 6 0 95 0;
#X connect 7 0 20 0;
#X connect 8 0 94 0;
#X connect 9 0 10 0;
#X connect 9 0 38 0;
#X connect 9 0 24 0;
#X connect 9 0 53 0;
#X connect 10 0 70 0;
#X connect 10 0 71 0;
#X connect 11 0 12 0;
#X connect 11 0 16 0;
#X connect 11 0 29 0;
#X connect 12 0 13 0;
#X connect 13 0 8 0;
#X connect 13 0 14 0;
#X connect 13 0 32 0;
#X connect 13 0 37 0;
#X connect 14 0 3 0;
#X connect 15 0 2 1;
#X connect 15 0 4 0;
#X connect 16 0 44 0;
#X connect 17 0 18 1;
#X connect 18 0 19 0;
#X connect 19 0 22 0;
#X connect 19 0 33 1;
#X connect 19 0 45 0;
#X connect 20 0 97 0;
#X connect 21 0 4 0;
#X connect 22 0 21 0;
#X connect 23 0 71 0;
#X connect 24 0 71 0;
#X connect 25 0 71 0;
#X connect 26 0 71 0;
#X connect 27 0 46 0;
#X connect 28 0 47 0;
#X connect 29 0 77 0;
#X connect 30 0 31 0;
#X connect 30 1 31 1;
#X connect 31 0 75 0;
#X connect 33 0 19 0;
#X connect 35 0 27 0;
#X connect 36 0 18 0;
#X connect 37 0 36 0;
#X connect 38 0 15 0;
#X connect 38 0 55 0;
#X connect 38 0 10 0;
#X connect 39 0 48 0;
#X connect 40 0 59 0;
#X connect 41 0 30 0;
#X connect 43 0 20 0;
#X connect 44 0 35 0;
#X connect 44 1 35 1;
#X connect 45 0 57 0;
#X connect 46 0 28 0;
#X connect 47 0 18 1;
#X connect 48 0 40 0;
#X connect 50 0 58 0;
#X connect 51 0 50 0;
#X connect 52 0 51 0;
#X connect 53 0 55 0;
#X connect 53 0 76 0;
#X connect 54 0 71 0;
#X connect 55 0 54 0;
#X connect 56 0 71 0;
#X connect 57 0 2 1;
#X connect 58 0 73 0;
#X connect 59 0 73 0;
#X connect 60 0 62 0;
#X connect 60 0 63 0;
#X connect 60 0 78 0;
#X connect 63 0 64 0;
#X connect 64 0 61 0;
#X connect 64 0 71 0;
#X connect 65 0 73 0;
#X connect 65 0 91 0;
#X connect 66 0 37 0;
#X connect 66 1 37 0;
#X connect 66 2 37 0;
#X connect 66 3 37 0;
#X connect 66 3 68 0;
#X connect 67 0 31 0;
#X connect 68 0 37 0;
#X connect 69 0 7 1;
#X connect 69 0 37 0;
#X connect 70 0 1 1;
#X connect 70 0 12 1;
#X connect 70 0 4 0;
#X connect 70 0 35 0;
#X connect 70 0 37 0;
#X connect 71 0 32 1;
#X connect 71 0 36 1;
#X connect 72 0 33 0;
#X connect 73 0 37 0;
#X connect 73 0 66 0;
#X connect 73 0 67 0;
#X connect 73 0 88 0;
#X connect 73 0 92 0;
#X connect 74 0 40 1;
#X connect 75 0 56 0;
#X connect 75 0 54 1;
#X connect 76 0 15 0;
#X connect 77 0 82 0;
#X connect 78 0 41 1;
#X connect 78 0 56 1;
#X connect 79 0 69 0;
#X connect 80 0 70 0;
#X connect 81 0 50 1;
#X connect 83 0 41 0;
#X connect 84 0 85 0;
#X connect 84 0 96 0;
#X connect 85 0 76 0;
#X connect 85 1 72 0;
#X connect 85 1 87 0;
#X connect 86 0 56 1;
#X connect 86 0 41 1;
#X connect 87 0 20 0;
#X connect 89 0 90 0;
#X connect 90 0 73 0;
#X connect 91 0 80 0;
#X connect 93 0 73 0;
#X connect 94 0 7 0;
#X connect 94 0 14 0;
#X connect 95 0 1 0;
#X connect 96 0 95 1;
#X connect 96 0 94 1;
#X connect 96 0 97 1;
#X connect 97 0 11 0;
#X connect 98 0 85 0;
#X coords 0 -1 1 1 255 140 1 100 100;
