#N canvas 400 22 1280 698 10;
#X obj -181 713 spigot-toggle_jaunenoir;
#X obj -223 713 spigot-toggle_red;
#X obj -254 714 spigot-toggle_vert;
#X obj -151 689 r fll0;
#X obj -95 689 r fll1;
#X obj 18 715 spigot-toggle_jaunenoir;
#X obj 49 715 spigot-toggle_jaunenoir;
#X obj -37 718 spigot-toggle_red;
#X obj -67 718 spigot-toggle_vert;
#X obj 58 738 r lo;
#X floatatom 7 733 5 0 0 0 - - -, f 5;
#X obj 170 718 spigot-toggle_jaunenoir;
#X obj 131 718 spigot-toggle_red;
#X obj 96 718 spigot-toggle_vert;
#X obj 210 687 r fll0;
#X obj 280 689 r fll1;
#X obj 317 718 spigot-toggle_jaunenoir;
#X obj 348 718 spigot-toggle_jaunenoir;
#X obj 284 718 spigot-toggle_red;
#X obj 252 718 spigot-toggle_vert;
#X floatatom 294 738 5 0 0 0 - - -, f 5;
#X obj 158 755 * 1;
#X obj 448 718 spigot-toggle_jaunenoir;
#X obj 418 718 spigot-toggle_red;
#X obj 471 695 r fll0;
#X obj 573 695 r fll1;
#X obj 581 718 spigot-toggle_jaunenoir;
#X obj 612 718 spigot-toggle_jaunenoir;
#X obj 551 718 spigot-toggle_red;
#X obj 520 718 spigot-toggle_vert;
#X obj 572 750 r lo;
#X floatatom 509 757 5 0 0 0 - - -, f 5;
#X msg 570 771 1;
#X obj -60 841 - 2;
#X obj -73 801 * 4;
#X obj -64 880 * 4;
#X obj 7 861 t b f;
#X msg 1280 139 0.75;
#X floatatom 1323 139 5 0 0 0 - - -, f 5;
#X msg 1338 139 0;
#X floatatom 423 789 5 0 0 0 - - -, f 5;
#X obj 389 718 spigot-toggle_vert;
#X obj 433 756 * 1;
#X obj -94 759 * 1;
#X floatatom 442 944 5 0 0 0 - - -, f 5;
#X obj 442 919 * 4;
#X obj 492 895 t b f;
#X floatatom 444 993 5 0 0 0 - - -, f 5;
#X obj 163 840 - 2;
#X obj 164 801 * 4;
#X obj 236 889 * 4;
#X obj 290 861 t b f;
#X msg 1523 138 0.75;
#X obj 1545 118 r lo;
#X obj 427 815 * 4;
#X floatatom 441 877 5 0 0 0 - - -, f 5;
#X obj 442 964 - 0;
#X obj 436 851 - 2;
#X msg 1466 138 0.5;
#X floatatom 605 867 5 0 0 0 - - -, f 5;
#X obj 6 795 * 4;
#X obj 606 898 + 1;
#X msg 1373 138 0.75;
#X obj 291 801 * 4;
#X obj 291 830 - 2;
#X msg 923 139 0.75;
#X obj 6 823 - 1;
#X obj 446 1018 * 10;
#X obj 601 791 * 4;
#X obj 608 763 * 10;
#X obj 601 817 - 20;
#X msg 1593 138 0.5;
#X msg 55 715 0.75;
#X msg 235 744 0.75;
#X obj -151 713 spigot-toggle_jaunenoir;
#X obj 209 719 spigot-toggle_jaunenoir;
#X obj 478 720 spigot-toggle_jaunenoir;
#X obj 1093 127 r lo;
#X msg 1593 138 0.5;
#X msg 1574 119 0.5;
#X obj -353 691 spigot-toggle_red;
#X obj -388 691 spigot-toggle_vert;
#X obj -455 668 r trgrA;
#X obj -390 668 r trgrB;
#X obj -390 641 r A;
#X obj -345 641 r B;
#X msg 47 768 4;
#X msg 92 764 2;
#X obj -513 822 spigot-toggle_orange;
#X obj -513 845 spigot-toggle_orange;
#X obj -513 872 spigot-toggle_orange;
#X obj -514 898 spigot-toggle_orange;
#X obj -301 990 tgl 15 0 empty empty empty 17 7 0 10 -262144 -1 -1
1 1;
#X obj -476 933 spigot-toggle_red;
#X obj -476 956 spigot-toggle_red;
#X obj -502 1015 r lo;
#X obj -299 1032 - 1;
#X obj -298 1058 * -1;
#X obj -243 931 tgl 15 0 empty empty empty 17 7 0 10 -262144 -1 -1
-0 1;
#X obj -510 934 spigot-toggle_vert;
#X obj -510 959 spigot-toggle_vert;
#X obj 983 124 - 0.02;
#X obj 127 307 sel;
#X obj 103 332 spigot-toggle_orange;
#X obj 124 408 line;
#X obj 126 382 pack f f;
#X obj 171 357 f;
#X obj 269 306 sel;
#X obj 233 332 spigot-toggle_orange;
#X obj 278 416 line;
#X obj 276 383 pack f f;
#X obj 321 357 f;
#X obj 390 306 sel;
#X obj 363 332 spigot-toggle_orange;
#X obj 399 416 line;
#X obj 397 383 pack f f;
#X obj 442 357 f;
#X msg 276 358 1;
#X msg 775 143 0.75;
#X msg 397 358 1;
#X msg 48 380 1;
#X obj 47 404 + 1;
#X obj 90 382 - 1;
#X obj 80 406 * -1;
#X obj 126 129 cnv 15 60 130 empty empty empty 20 12 0 14 -262144 -66577
0;
#X obj 132 154 tgl 25 0 empty empty A 8 14 0 16 -1 -262144 -260097
0 1;
#X obj 161 155 tgl 22 1 empty empty empty 17 7 0 10 -1 -262144 -260097
0 1;
#X obj 362 128 bng 25 250 50 0 empty empty empty 17 7 0 10 -262144
-1 -1;
#X obj 234 128 bng 25 250 50 0 empty empty empty 17 7 0 10 -262144
-1 -1;
#X obj 261 127 cnv 12 60 130 empty empty empty 20 12 0 14 -262144 -66577
0;
#X floatatom 268 132 5 0 0 0 - - -, f 5;
#X obj 388 127 cnv 12 60 130 empty empty empty 20 12 0 14 -262144 -66577
0;
#X floatatom 395 132 5 0 0 0 - - -, f 5;
#X obj 264 180 tgl 25 0 empty empty B 8 14 0 16 -1 -262144 -260097
0 1;
#X obj 293 182 tgl 22 0 empty empty empty 17 7 0 10 -1 -262144 -1 0
1;
#X obj 264 206 tgl 25 0 empty empty ''a 8 14 1 16 -1 -262144 -260097
0 1;
#X obj 293 208 tgl 22 0 empty empty empty 17 7 0 10 -1 -262144 -1 0
1;
#X obj 264 232 tgl 25 0 empty empty ''b 8 14 1 16 -1 -262144 -260097
0 1;
#X obj 293 234 tgl 22 0 empty empty empty 17 7 0 10 -1 -262144 -1 0
1;
#X obj 320 156 vsl 25 100 0 1 0 0 empty empty empty 1 17 0 10 -1 -262144
-1 7425 1;
#X obj 234 156 vsl 25 100 0 1 0 0 empty empty ____ 1 15 0 10 -1 -262144
-1 7425 1;
#X obj 264 154 tgl 25 0 empty empty A 8 14 0 16 -1 -262144 -260097
0 1;
#X obj 293 156 tgl 22 0 empty empty empty 17 7 0 10 -1 -262144 -260097
0 1;
#X obj 392 180 tgl 25 0 empty empty B 8 14 0 16 -1 -262144 -260097
0 1;
#X obj 422 182 tgl 22 0 empty empty empty 17 7 0 10 -1 -262144 -1 0
1;
#X obj 392 206 tgl 25 0 empty empty ''a 8 14 1 16 -1 -262144 -260097
0 1;
#X obj 422 208 tgl 22 0 empty empty empty 17 7 0 10 -1 -262144 -1 0
1;
#X obj 392 232 tgl 25 0 empty empty ''b 8 14 1 16 -1 -262144 -260097
0 1;
#X obj 422 234 tgl 22 0 empty empty empty 17 7 0 10 -1 -262144 -1 0
1;
#X obj 449 156 vsl 25 100 0 1 0 0 empty empty empty 1 17 0 10 -1 -262144
-1 4950 1;
#X obj 363 156 vsl 25 100 0 1 0 0 empty empty ____ 1 15 0 10 -1 -262144
-1 4950 1;
#X obj 392 154 tgl 25 0 empty empty A 8 14 0 16 -1 -262144 -260097
0 1;
#X obj 422 156 tgl 22 1 empty empty empty 17 7 0 10 -1 -262144 -260097
0 1;
#X obj 132 180 tgl 25 0 empty empty B 8 14 0 16 -1 -262144 -260097
0 1;
#X obj 161 181 tgl 22 0 empty empty empty 17 7 0 10 -1 -262144 -1 0
1;
#X obj 132 206 tgl 25 0 empty empty ''a 8 14 1 16 -1 -262144 -260097
0 1;
#X obj 161 207 tgl 22 0 empty empty empty 17 7 0 10 -1 -262144 -1 0
1;
#X obj 132 232 tgl 25 0 empty empty ''b 8 14 1 16 -1 -262144 -260097
0 1;
#X obj 161 233 tgl 22 0 empty empty empty 17 7 0 10 -1 -262144 -1 0
1;
#X obj 189 156 vsl 25 100 0 1 0 0 empty empty empty 1 17 0 10 -1 -262144
-1 7425 1;
#X obj 102 156 vsl 25 100 0 1 0 0 empty empty ____ 1 15 0 10 -1 -262144
-1 7425 1;
#X obj 320 128 bng 25 250 50 0 empty empty empty 17 7 0 10 -262144
-1 -1;
#X obj 449 128 bng 25 250 50 0 empty empty empty 17 7 0 10 -262144
-1 -1;
#X obj 102 102 cnv 20 112 25 empty empty s&p 43 12 0 14 -1 -262144
0;
#X obj 362 102 cnv 20 112 25 empty empty pitch 32 12 0 14 -1 -262144
0;
#X obj 233 102 cnv 20 112 25 empty empty speed 35 12 0 14 -1 -262144
0;
#X obj 451 105 tgl 20 0 empty empty pad 3 9 0 9 -262144 -1 -1 0 1;
#X obj 321 105 tgl 20 0 empty empty pad 3 10 0 9 -262144 -1 -1 1 1
;
#X obj 236 105 tgl 20 0 empty empty bck 3 10 0 8 -262144 -1 -1 1 1
;
#X obj 365 105 tgl 20 0 empty empty bck 3 9 0 8 -262144 -1 -1 1 1;
#X obj 105 105 tgl 20 0 empty empty bck 3 10 0 8 -262144 -1 -1 1 1
;
#X obj 191 105 tgl 20 0 empty empty 44 4 10 0 10 -262144 -1 -1 0 1
;
#X floatatom 135 132 5 0 0 0 - - -, f 5;
#X obj 102 128 bng 25 250 50 0 empty empty empty 3 7 0 8 -262144 -1
-1;
#X obj 189 128 bng 25 250 50 0 empty empty empty 17 7 0 10 -262144
-1 -1;
#X floatatom -46 762 5 0 0 0 - - -, f 5;
#X obj 670 61 inlet;
#X obj 771 100 spigot-toggle_orange;
#X obj 673 87 r lo;
#X floatatom 662 183 6 0 0 0 - - -, f 6;
#X obj 665 220 * 1.3;
#X obj 690 -47 tgl 25 0 empty empty A=V 4 12 0 10 -1 -262144 -262144
1 1;
#X msg 688 129 0;
#X obj -554 864 tgl 15 0 empty empty loc 2 7 0 10 -262144 -1 -1 0 1
;
#X obj -593 773 * -1;
#X obj -592 714 r freestepsouts1;
#X obj -593 746 - 1;
#X obj -389 147 s pitchNspeedB;
#X obj -273 147 s speedB;
#X obj -201 147 s pitchB;
#X obj 141 330 r T$mod1;
#X obj 292 330 r T$mod1;
#X obj 412 330 r T$mod1;
#X obj -635 843 r locB;
#X obj -329 906 r padspeedB;
#X obj -219 906 r padpitchB;
#X obj 819 172 s s&pAb;
#X obj 819 199 s s&pBb;
#X obj 820 229 s speedAb;
#X obj 819 260 s speedBb;
#X obj 820 315 s pitchAb;
#X obj 821 343 s pitchBb;
#X obj 662 162 r V1B;
#X obj 713 -74 r A=V2;
#X obj 978 162 s opa1;
#X obj 1126 131 s padspeedB;
#X obj 1236 125 s padpitchB;
#X obj -506 481 notein;
#X floatatom -530 543 5 0 0 0 - - -, f 5;
#X floatatom -490 543 5 0 0 0 - - -, f 5;
#X obj -489 823 onoff8x;
#X obj -487 873 onoff10x;
#X obj -486 898 onoff11x;
#X obj -489 846 onoff9x;
#X connect 0 0 43 0;
#X connect 1 0 43 0;
#X connect 2 0 43 0;
#X connect 3 0 0 0;
#X connect 3 0 5 0;
#X connect 4 0 6 0;
#X connect 4 0 74 0;
#X connect 5 0 10 0;
#X connect 6 0 10 0;
#X connect 7 0 10 0;
#X connect 8 0 10 0;
#X connect 9 0 72 0;
#X connect 10 0 60 0;
#X connect 11 0 21 0;
#X connect 12 0 21 0;
#X connect 13 0 21 0;
#X connect 14 0 11 0;
#X connect 14 0 16 0;
#X connect 15 0 17 0;
#X connect 15 0 75 0;
#X connect 16 0 20 0;
#X connect 17 0 20 0;
#X connect 18 0 20 0;
#X connect 19 0 20 0;
#X connect 20 0 63 0;
#X connect 21 0 49 0;
#X connect 22 0 42 0;
#X connect 23 0 42 0;
#X connect 24 0 22 0;
#X connect 24 0 26 0;
#X connect 25 0 27 0;
#X connect 25 0 76 0;
#X connect 26 0 31 0;
#X connect 27 0 31 0;
#X connect 28 0 31 0;
#X connect 29 0 31 0;
#X connect 30 0 32 0;
#X connect 31 0 69 0;
#X connect 32 0 31 0;
#X connect 33 0 35 0;
#X connect 34 0 33 0;
#X connect 35 0 172 0;
#X connect 36 0 35 0;
#X connect 36 1 35 1;
#X connect 37 0 160 0;
#X connect 40 0 54 0;
#X connect 41 0 42 0;
#X connect 42 0 40 0;
#X connect 43 0 34 0;
#X connect 44 0 56 0;
#X connect 45 0 44 0;
#X connect 46 0 45 0;
#X connect 46 1 45 1;
#X connect 47 0 67 0;
#X connect 48 0 50 0;
#X connect 49 0 48 0;
#X connect 50 0 130 0;
#X connect 51 0 50 0;
#X connect 51 1 50 1;
#X connect 53 0 39 0;
#X connect 53 0 52 0;
#X connect 53 0 71 0;
#X connect 53 0 58 0;
#X connect 53 0 37 0;
#X connect 53 0 62 0;
#X connect 53 0 65 0;
#X connect 53 0 161 0;
#X connect 53 0 173 0;
#X connect 53 0 174 0;
#X connect 54 0 57 0;
#X connect 55 0 45 0;
#X connect 56 0 47 0;
#X connect 57 0 55 0;
#X connect 58 0 150 0;
#X connect 59 0 61 0;
#X connect 60 0 66 0;
#X connect 61 0 46 0;
#X connect 62 0 159 0;
#X connect 63 0 64 0;
#X connect 64 0 51 0;
#X connect 65 0 140 0;
#X connect 65 0 139 0;
#X connect 66 0 36 0;
#X connect 67 0 132 0;
#X connect 68 0 70 0;
#X connect 69 0 68 0;
#X connect 70 0 59 0;
#X connect 71 0 149 0;
#X connect 71 0 150 0;
#X connect 72 0 10 0;
#X connect 72 0 73 0;
#X connect 73 0 20 0;
#X connect 74 0 43 0;
#X connect 75 0 21 0;
#X connect 76 0 42 0;
#X connect 77 0 167 0;
#X connect 77 0 177 1;
#X connect 79 0 159 0;
#X connect 80 0 1 0;
#X connect 80 0 7 0;
#X connect 80 0 12 0;
#X connect 80 0 18 0;
#X connect 80 0 23 0;
#X connect 80 0 28 0;
#X connect 81 0 2 0;
#X connect 81 0 8 0;
#X connect 81 0 13 0;
#X connect 81 0 19 0;
#X connect 81 0 41 0;
#X connect 81 0 29 0;
#X connect 82 0 81 1;
#X connect 83 0 80 1;
#X connect 84 0 81 0;
#X connect 85 0 80 0;
#X connect 86 0 63 1;
#X connect 86 0 49 1;
#X connect 86 0 60 1;
#X connect 86 0 34 1;
#X connect 87 0 63 1;
#X connect 87 0 49 1;
#X connect 87 0 60 1;
#X connect 87 0 34 1;
#X connect 88 0 125 0;
#X connect 89 0 153 0;
#X connect 90 0 99 0;
#X connect 90 0 93 0;
#X connect 91 0 100 0;
#X connect 91 0 94 0;
#X connect 92 0 96 0;
#X connect 92 0 99 1;
#X connect 92 0 100 1;
#X connect 93 0 151 0;
#X connect 94 0 143 0;
#X connect 95 0 92 0;
#X connect 95 0 88 1;
#X connect 95 0 89 1;
#X connect 95 0 90 1;
#X connect 95 0 91 1;
#X connect 96 0 97 0;
#X connect 97 0 98 0;
#X connect 98 0 93 1;
#X connect 98 0 94 1;
#X connect 99 0 141 0;
#X connect 100 0 133 0;
#X connect 101 0 204 0;
#X connect 102 0 103 0;
#X connect 103 0 106 0;
#X connect 103 0 120 0;
#X connect 104 0 172 0;
#X connect 105 0 104 0;
#X connect 106 0 105 1;
#X connect 107 0 108 0;
#X connect 108 0 117 0;
#X connect 108 0 111 0;
#X connect 109 0 130 0;
#X connect 110 0 109 0;
#X connect 111 0 110 1;
#X connect 112 0 113 0;
#X connect 113 0 119 0;
#X connect 113 0 116 0;
#X connect 114 0 132 0;
#X connect 115 0 114 0;
#X connect 116 0 115 1;
#X connect 117 0 110 0;
#X connect 118 0 140 0;
#X connect 119 0 115 0;
#X connect 120 0 121 0;
#X connect 121 0 105 0;
#X connect 122 0 123 0;
#X connect 123 0 121 1;
#X connect 125 0 2 1;
#X connect 125 0 102 0;
#X connect 125 0 196 0;
#X connect 126 0 8 1;
#X connect 127 0 58 0;
#X connect 128 0 52 0;
#X connect 128 0 118 0;
#X connect 130 0 188 0;
#X connect 132 0 189 0;
#X connect 133 0 12 1;
#X connect 133 0 107 0;
#X connect 133 0 199 0;
#X connect 134 0 18 1;
#X connect 135 0 11 1;
#X connect 135 0 107 0;
#X connect 136 0 16 1;
#X connect 137 0 75 1;
#X connect 137 0 107 0;
#X connect 138 0 17 1;
#X connect 139 0 20 0;
#X connect 140 0 21 0;
#X connect 141 0 13 1;
#X connect 141 0 107 0;
#X connect 141 0 198 0;
#X connect 142 0 19 1;
#X connect 143 0 23 1;
#X connect 143 0 112 0;
#X connect 143 0 201 0;
#X connect 144 0 28 1;
#X connect 145 0 22 1;
#X connect 145 0 112 0;
#X connect 146 0 26 1;
#X connect 147 0 76 1;
#X connect 148 0 27 1;
#X connect 149 0 31 0;
#X connect 150 0 42 0;
#X connect 151 0 41 1;
#X connect 151 0 112 0;
#X connect 151 0 200 0;
#X connect 152 0 29 1;
#X connect 153 0 1 1;
#X connect 153 0 102 0;
#X connect 153 0 197 0;
#X connect 154 0 7 1;
#X connect 155 0 0 1;
#X connect 155 0 102 0;
#X connect 156 0 5 1;
#X connect 157 0 74 1;
#X connect 157 0 102 0;
#X connect 158 0 6 1;
#X connect 159 0 10 0;
#X connect 160 0 34 0;
#X connect 161 0 65 0;
#X connect 162 0 71 0;
#X connect 166 0 206 0;
#X connect 167 0 205 0;
#X connect 168 0 108 1;
#X connect 169 0 113 1;
#X connect 170 0 103 1;
#X connect 171 0 122 0;
#X connect 171 0 120 0;
#X connect 172 0 187 0;
#X connect 173 0 37 0;
#X connect 174 0 62 0;
#X connect 175 0 43 0;
#X connect 176 0 38 0;
#X connect 177 0 101 0;
#X connect 178 0 170 0;
#X connect 178 0 168 0;
#X connect 178 0 169 0;
#X connect 178 0 181 0;
#X connect 178 0 182 0;
#X connect 179 0 180 0;
#X connect 180 0 177 0;
#X connect 181 0 177 1;
#X connect 183 0 212 0;
#X connect 183 0 211 0;
#X connect 183 0 210 0;
#X connect 183 0 213 0;
#X connect 184 0 88 1;
#X connect 184 0 89 1;
#X connect 184 0 90 1;
#X connect 184 0 91 1;
#X connect 185 0 186 0;
#X connect 186 0 184 0;
#X connect 190 0 106 1;
#X connect 191 0 111 1;
#X connect 192 0 116 1;
#X connect 193 0 183 0;
#X connect 194 0 92 0;
#X connect 195 0 98 0;
#X connect 202 0 179 0;
#X connect 203 0 181 0;
#X connect 207 0 208 0;
#X connect 207 1 209 0;
#X connect 210 0 88 0;
#X connect 211 0 90 0;
#X connect 212 0 91 0;
#X connect 213 0 89 0;
#X coords 0 -1 1 1 376 160 1 100 100;
