#N canvas 377 26 1280 1002 10;
#X floatatom 1102 -133 5 0 0 0 receive_#1B #1B -, f 5;
#X obj 101 102 hradio 15 1 0 4 empty empty empty -45 8 0 10 -262144
-1 -1 1;
#X obj 1096 -81 f;
#X obj 1073 -102 bng 15 250 50 0 empty empty write -35 7 0 10 -262144
-1 -1;
#X obj 1079 -12 f;
#X obj 1078 -34 bng 15 250 50 0 empty empty send -30 7 0 10 -262144
-1 -1;
#X floatatom 1097 -53 5 0 0 0 - - -, f 5;
#X floatatom 1079 11 5 0 0 0 send_#1B - send_#1B, f 5;
#X floatatom 1159 -34 5 0 0 0 - - -, f 5;
#X obj 1159 -54 tgl 15 0 empty empty empty 17 7 0 10 -262144 -1 -1
1 1;
#X obj 1146 -11 f;
#X obj 1130 54 f;
#X obj 1128 36 bng 15 250 50 0 empty empty send -30 7 0 10 -262144
-1 -1;
#X floatatom 1147 18 5 0 0 0 - - -, f 5;
#X obj 289 64 sel 0 1 2;
#X obj 180 102 hradio 15 1 0 4 empty empty empty -30 8 0 10 -262144
-1 -1 0;
#X obj 289 134 sel 0 1 2;
#X floatatom 1312 -133 5 0 0 0 receive_#2B #2B -, f 5;
#X obj 1306 -81 f;
#X obj 1283 -102 bng 15 250 50 0 empty empty write -35 7 0 10 -262144
-1 -1;
#X obj 1289 -12 f;
#X obj 1288 -34 bng 15 250 50 0 empty empty send -30 7 0 10 -262144
-1 -1;
#X floatatom 1307 -53 5 0 0 0 - - -, f 5;
#X floatatom 1289 11 5 0 0 0 send_#2B - send_#2B, f 5;
#X floatatom 1369 -34 5 0 0 0 - - -, f 5;
#X obj 1369 -54 tgl 15 0 empty empty empty 17 7 0 10 -262144 -1 -1
0 1;
#X obj 1356 -11 f;
#X obj 1340 54 f;
#X obj 1338 36 bng 15 250 50 0 empty empty send -30 7 0 10 -262144
-1 -1;
#X floatatom 1357 18 5 0 0 0 - - -, f 5;
#X floatatom 1522 -133 3 0 0 0 receive_#3B #3B -, f 3;
#X obj 1516 -81 f;
#X obj 1493 -102 bng 15 250 50 0 empty empty write -35 7 0 10 -262144
-1 -1;
#X obj 1499 -12 f;
#X obj 1498 -34 bng 15 250 50 0 empty empty send -30 7 0 10 -262144
-1 -1;
#X floatatom 1517 -53 5 0 0 0 - - -, f 5;
#X floatatom 1499 11 5 0 0 0 send_#3B - send_#3B, f 5;
#X floatatom 1579 -34 5 0 0 0 - - -, f 5;
#X obj 1579 -54 tgl 15 0 empty empty empty 17 7 0 10 -262144 -1 -1
0 1;
#X obj 1566 -11 f;
#X obj 1550 54 f;
#X obj 1548 36 bng 15 250 50 0 empty empty send -30 7 0 10 -262144
-1 -1;
#X floatatom 1567 18 5 0 0 0 - - -, f 5;
#X floatatom 1732 -133 5 0 0 0 receive_#4B #4B -, f 5;
#X obj 1726 -81 f;
#X obj 1703 -102 bng 15 250 50 0 empty empty write -35 7 0 10 -262144
-1 -1;
#X obj 1709 -12 f;
#X obj 1708 -34 bng 15 250 50 0 empty empty send -30 7 0 10 -262144
-1 -1;
#X floatatom 1727 -53 5 0 0 0 - - -, f 5;
#X floatatom 1709 11 5 0 0 0 send_#4B - send_#4B, f 5;
#X floatatom 1789 -34 5 0 0 0 - - -, f 5;
#X obj 1789 -54 tgl 15 0 empty empty empty 17 7 0 10 -262144 -1 -1
0 1;
#X obj 1776 -11 f;
#X obj 1760 54 f;
#X obj 1758 36 bng 15 250 50 0 empty empty send -30 7 0 10 -262144
-1 -1;
#X floatatom 1777 18 5 0 0 0 - - -, f 5;
#X floatatom 1932 -133 5 0 0 0 receive_#5B #5B -, f 5;
#X obj 1926 -81 f;
#X obj 1903 -102 bng 15 250 50 0 empty empty write -35 7 0 10 -262144
-1 -1;
#X obj 1909 -12 f;
#X obj 1908 -34 bng 15 250 50 0 empty empty send -30 7 0 10 -262144
-1 -1;
#X floatatom 1927 -53 5 0 0 0 - - -, f 5;
#X floatatom 1909 11 5 0 0 0 send_#5B - send_#5B, f 5;
#X floatatom 1989 -34 5 0 0 0 - - -, f 5;
#X obj 1989 -54 tgl 15 0 empty empty empty 17 7 0 10 -262144 -1 -1
1 1;
#X obj 1976 -11 f;
#X obj 1960 54 f;
#X obj 1958 36 bng 15 250 50 0 empty empty send -30 7 0 10 -262144
-1 -1;
#X floatatom 1977 18 5 0 0 0 - - -, f 5;
#X floatatom 2142 -133 5 0 0 0 receive_#6B #6B -, f 5;
#X obj 2136 -81 f;
#X obj 2113 -102 bng 15 250 50 0 empty empty write -35 7 0 10 -262144
-1 -1;
#X obj 2119 -12 f;
#X obj 2118 -34 bng 15 250 50 0 empty empty send -30 7 0 10 -262144
-1 -1;
#X floatatom 2137 -53 5 0 0 0 - - -, f 5;
#X floatatom 2119 11 5 0 0 0 send_#6B - send_#6B, f 5;
#X floatatom 2199 -34 5 0 0 0 - - -, f 5;
#X obj 2199 -54 tgl 15 0 empty empty empty 17 7 0 10 -262144 -1 -1
0 1;
#X obj 2186 -11 f;
#X obj 2170 54 f;
#X obj 2168 36 bng 15 250 50 0 empty empty send -30 7 0 10 -262144
-1 -1;
#X floatatom 2187 18 5 0 0 0 - - -, f 5;
#X floatatom 2352 -133 5 0 0 0 receive_#7B #7B -, f 5;
#X obj 2346 -81 f;
#X obj 2323 -102 bng 15 250 50 0 empty empty write -35 7 0 10 -262144
-1 -1;
#X obj 2329 -12 f;
#X obj 2328 -34 bng 15 250 50 0 empty empty send -30 7 0 10 -262144
-1 -1;
#X floatatom 2347 -53 5 0 0 0 - - -, f 5;
#X floatatom 2329 11 5 0 0 0 send_#7B - send_#7B, f 5;
#X floatatom 2409 -34 5 0 0 0 - - -, f 5;
#X obj 2409 -54 tgl 15 0 empty empty empty 17 7 0 10 -262144 -1 -1
0 1;
#X obj 2396 -11 f;
#X obj 2380 54 f;
#X obj 2378 36 bng 15 250 50 0 empty empty send -30 7 0 10 -262144
-1 -1;
#X floatatom 2397 18 5 0 0 0 - - -, f 5;
#X floatatom 2575 -132 5 0 0 0 receive_#8B #8B -, f 5;
#X obj 2569 -80 f;
#X obj 2546 -101 bng 15 250 50 0 empty empty write -35 7 0 10 -262144
-1 -1;
#X obj 2552 -11 f;
#X obj 2551 -33 bng 15 250 50 0 empty empty send -30 7 0 10 -262144
-1 -1;
#X floatatom 2570 -52 5 0 0 0 - - -, f 5;
#X floatatom 2552 12 5 0 0 0 send_#8B - send_#8B, f 5;
#X floatatom 2632 -33 5 0 0 0 - - -, f 5;
#X obj 2632 -53 tgl 15 0 empty empty empty 17 7 0 10 -262144 -1 -1
0 1;
#X obj 2619 -10 f;
#X obj 2603 55 f;
#X obj 2601 37 bng 15 250 50 0 empty empty send -30 7 0 10 -262144
-1 -1;
#X floatatom 2620 19 5 0 0 0 - - -, f 5;
#X floatatom 2785 -132 5 0 0 0 receive_#9B #9B -, f 5;
#X obj 2779 -80 f;
#X obj 2756 -101 bng 15 250 50 0 empty empty write -35 7 0 10 -262144
-1 -1;
#X obj 2762 -11 f;
#X obj 2761 -33 bng 15 250 50 0 empty empty send -30 7 0 10 -262144
-1 -1;
#X floatatom 2780 -52 5 0 0 0 - - -, f 5;
#X floatatom 2762 12 5 0 0 0 send_#9B - send_#9B, f 5;
#X floatatom 2842 -33 5 0 0 0 - - -, f 5;
#X obj 2842 -53 tgl 15 0 empty empty empty 17 7 0 10 -262144 -1 -1
1 1;
#X obj 2829 -10 f;
#X obj 2813 55 f;
#X obj 2811 37 bng 15 250 50 0 empty empty send -30 7 0 10 -262144
-1 -1;
#X floatatom 2830 19 5 0 0 0 - - -, f 5;
#X floatatom 2995 -132 5 0 0 0 receive_#10B #10B -, f 5;
#X obj 2989 -80 f;
#X obj 2966 -101 bng 15 250 50 0 empty empty write -35 7 0 10 -262144
-1 -1;
#X obj 2972 -11 f;
#X obj 2971 -33 bng 15 250 50 0 empty empty send -30 7 0 10 -262144
-1 -1;
#X floatatom 2990 -52 5 0 0 0 - - -, f 5;
#X floatatom 2972 12 5 0 0 0 send_#10B - send_#10B, f 5;
#X floatatom 3052 -33 5 0 0 0 - - -, f 5;
#X obj 3052 -53 tgl 15 0 empty empty empty 17 7 0 10 -262144 -1 -1
0 1;
#X obj 3039 -10 f;
#X obj 3023 55 f;
#X obj 3021 37 bng 15 250 50 0 empty empty send -30 7 0 10 -262144
-1 -1;
#X floatatom 3040 19 5 0 0 0 - - -, f 5;
#X floatatom 3417 -132 5 0 0 0 receive_#12B #12B -, f 5;
#X obj 3199 -80 f;
#X obj 3176 -101 bng 15 250 50 0 empty empty write -35 7 0 10 -262144
-1 -1;
#X obj 3182 -11 f;
#X obj 3181 -33 bng 15 250 50 0 empty empty send -30 7 0 10 -262144
-1 -1;
#X floatatom 3200 -52 5 0 0 0 - - -, f 5;
#X floatatom 3182 12 5 0 0 0 send_#11B - send_#11B, f 5;
#X floatatom 3262 -33 5 0 0 0 - - -, f 5;
#X obj 3262 -53 tgl 15 0 empty empty empty 17 7 0 10 -262144 -1 -1
0 1;
#X obj 3249 -10 f;
#X obj 3233 55 f;
#X obj 3231 37 bng 15 250 50 0 empty empty send -30 7 0 10 -262144
-1 -1;
#X floatatom 3250 19 5 0 0 0 - - -, f 5;
#X floatatom 3626 -132 5 0 0 0 receive_#13B #13B -, f 5;
#X obj 3399 -80 f;
#X obj 3376 -101 bng 15 250 50 0 empty empty write -35 7 0 10 -262144
-1 -1;
#X obj 3382 -11 f;
#X obj 3381 -33 bng 15 250 50 0 empty empty send -30 7 0 10 -262144
-1 -1;
#X floatatom 3400 -52 5 0 0 0 - - -, f 5;
#X floatatom 3382 12 5 0 0 0 send_#12B - send_#12B, f 5;
#X floatatom 3462 -33 5 0 0 0 - - -, f 5;
#X obj 3462 -53 tgl 15 0 empty empty empty 17 7 0 10 -262144 -1 -1
0 1;
#X obj 3449 -10 f;
#X obj 3433 55 f;
#X obj 3431 35 bng 15 250 50 0 empty empty send -30 7 0 10 -262144
-1 -1;
#X floatatom 3450 19 5 0 0 0 - - -, f 5;
#X floatatom 3838 -132 5 0 0 0 receive_#14B #14B -, f 5;
#X obj 3609 -80 f;
#X obj 3586 -101 bng 15 250 50 0 empty empty write -35 7 0 10 -262144
-1 -1;
#X obj 3592 -11 f;
#X obj 3591 -33 bng 15 250 50 0 empty empty send -30 7 0 10 -262144
-1 -1;
#X floatatom 3610 -52 5 0 0 0 - - -, f 5;
#X floatatom 3592 12 5 0 0 0 send_#13B - send_#13B, f 5;
#X floatatom 3672 -33 5 0 0 0 - - -, f 5;
#X obj 3672 -53 tgl 15 0 empty empty empty 17 7 0 10 -262144 -1 -1
1 1;
#X obj 3659 -10 f;
#X obj 3643 55 f;
#X obj 3641 37 bng 15 250 50 0 empty empty send -30 7 0 10 -262144
-1 -1;
#X floatatom 3660 19 5 0 0 0 - - -, f 5;
#X obj 3819 -80 f;
#X obj 3796 -101 bng 15 250 50 0 empty empty write -35 7 0 10 -262144
-1 -1;
#X obj 3802 -11 f;
#X obj 3801 -33 bng 15 250 50 0 empty empty send -30 7 0 10 -262144
-1 -1;
#X floatatom 3820 -52 5 0 0 0 - - -, f 5;
#X floatatom 3802 12 5 0 0 0 send_#14B - send_#14B, f 5;
#X floatatom 3882 -33 5 0 0 0 - - -, f 5;
#X obj 3882 -53 tgl 15 0 empty empty empty 17 7 0 10 -262144 -1 -1
0 1;
#X obj 3869 -10 f;
#X obj 3853 55 f;
#X obj 3851 37 bng 15 250 50 0 empty empty send -30 7 0 10 -262144
-1 -1;
#X floatatom 3870 19 5 0 0 0 - - -, f 5;
#X floatatom 4043 -132 5 0 0 0 receive_#15B #15B -, f 5;
#X obj 4029 -80 f;
#X obj 4006 -101 bng 15 250 50 0 empty empty write -35 7 0 10 -262144
-1 -1;
#X obj 4012 -11 f;
#X obj 4011 -33 bng 15 250 50 0 empty empty send -30 7 0 10 -262144
-1 -1;
#X floatatom 4030 -52 5 0 0 0 - - -, f 5;
#X floatatom 4012 12 5 0 0 0 send_#15B - send_#15B, f 5;
#X floatatom 4092 -33 5 0 0 0 - - -, f 5;
#X obj 4092 -53 tgl 15 0 empty empty empty 17 7 0 10 -262144 -1 -1
0 1;
#X obj 4079 -10 f;
#X obj 4063 55 f;
#X obj 4061 37 bng 15 250 50 0 empty empty send -30 7 0 10 -262144
-1 -1;
#X floatatom 4080 19 5 0 0 0 - - -, f 5;
#X floatatom 4248 -132 5 0 0 0 receive_#16B #16B -, f 5;
#X obj 4229 -80 f;
#X obj 4206 -101 bng 15 250 50 0 empty empty write -35 7 0 10 -262144
-1 -1;
#X obj 4212 -11 f;
#X obj 4211 -33 bng 15 250 50 0 empty empty send -30 7 0 10 -262144
-1 -1;
#X floatatom 4230 -52 5 0 0 0 - - -, f 5;
#X floatatom 4212 12 5 0 0 0 send_#16B - send_#16B, f 5;
#X floatatom 4292 -33 5 0 0 0 - - -, f 5;
#X obj 4292 -53 tgl 15 0 empty empty empty 17 7 0 10 -262144 -1 -1
0 1;
#X obj 4279 -10 f;
#X obj 4263 55 f;
#X obj 4261 37 bng 15 250 50 0 empty empty send -30 7 0 10 -262144
-1 -1;
#X floatatom 4280 19 5 0 0 0 - - -, f 5;
#X floatatom 3215 -132 5 0 0 0 receive_#11B #11B -, f 5;
#X floatatom 972 -133 5 0 0 0 receive_stpB stpB -, f 5;
#X obj 966 -81 f;
#X obj 943 -102 bng 15 250 50 0 empty empty write -35 7 0 10 -262144
-1 -1;
#X obj 949 -12 f;
#X obj 948 -34 bng 15 250 50 0 empty empty send -30 7 0 10 -262144
-1 -1;
#X floatatom 967 -53 5 0 0 0 - - -, f 5;
#X floatatom 951 14 5 0 0 0 send_stpB - send_stpB, f 5;
#X obj 100 38 inlet;
#X obj 160 38 inlet;
#X obj 3744 59 r lo;
#X obj 1157 -75 r of32;
#X obj 1367 -75 r of33;
#X obj 1577 -75 r of34;
#X obj 1787 -75 r of35;
#X obj 1987 -75 r of36;
#X obj 2197 -75 r of37;
#X obj 2405 -75 r of38;
#X obj 2630 -74 r of39;
#X obj 2840 -74 r of40;
#X obj 3050 -74 r of41;
#X obj 3260 -74 r of42;
#X obj 3460 -74 r of43;
#X obj 3670 -74 r of44;
#X obj 3880 -74 r of45;
#X obj 4090 -74 r of46;
#X obj 4290 -74 r of47;
#X obj 4264 78 s of47;
#X obj 4064 78 s of46;
#X obj 3854 78 s of45;
#X obj 3644 78 s of44;
#X obj 3434 78 s of43;
#X obj 3234 77 s of42;
#X obj 3024 78 s of41;
#X obj 2814 78 s of40;
#X obj 2604 78 s of39;
#X obj 2381 77 s of38;
#X obj 2171 77 s of37;
#X obj 1960 77 s of36;
#X obj 1761 77 s of35;
#X obj 1551 77 s of34;
#X obj 1341 77 s of33;
#X obj 1131 77 s of32;
#X floatatom 1102 117 5 0 0 0 receive_#1B #1B -, f 5;
#X obj 1096 169 f;
#X obj 1073 148 bng 15 250 50 0 empty empty write -35 7 0 10 -262144
-1 -1;
#X obj 1079 238 f;
#X obj 1078 216 bng 15 250 50 0 empty empty send -30 7 0 10 -262144
-1 -1;
#X floatatom 1097 197 5 0 0 0 - - -, f 5;
#X floatatom 1079 261 5 0 0 0 send_#1B - send_#1B, f 5;
#X floatatom 1159 216 5 0 0 0 - - -, f 5;
#X obj 1159 196 tgl 15 0 empty empty empty 17 7 0 10 -262144 -1 -1
1 1;
#X obj 1146 239 f;
#X obj 1130 304 f;
#X obj 1128 286 bng 15 250 50 0 empty empty send -30 7 0 10 -262144
-1 -1;
#X floatatom 1147 268 5 0 0 0 - - -, f 5;
#X floatatom 1312 117 5 0 0 0 receive_#2B #2B -, f 5;
#X obj 1306 169 f;
#X obj 1283 148 bng 15 250 50 0 empty empty write -35 7 0 10 -262144
-1 -1;
#X obj 1289 238 f;
#X obj 1288 216 bng 15 250 50 0 empty empty send -30 7 0 10 -262144
-1 -1;
#X floatatom 1307 197 5 0 0 0 - - -, f 5;
#X floatatom 1289 261 5 0 0 0 send_#2B - send_#2B, f 5;
#X floatatom 1369 216 5 0 0 0 - - -, f 5;
#X obj 1369 196 tgl 15 0 empty empty empty 17 7 0 10 -262144 -1 -1
0 1;
#X obj 1356 239 f;
#X obj 1340 304 f;
#X obj 1338 286 bng 15 250 50 0 empty empty send -30 7 0 10 -262144
-1 -1;
#X floatatom 1357 268 5 0 0 0 - - -, f 5;
#X floatatom 1522 117 3 0 0 0 receive_#3B #3B -, f 3;
#X obj 1516 169 f;
#X obj 1493 148 bng 15 250 50 0 empty empty write -35 7 0 10 -262144
-1 -1;
#X obj 1499 238 f;
#X obj 1498 216 bng 15 250 50 0 empty empty send -30 7 0 10 -262144
-1 -1;
#X floatatom 1517 197 5 0 0 0 - - -, f 5;
#X floatatom 1499 261 5 0 0 0 send_#3B - send_#3B, f 5;
#X floatatom 1579 216 5 0 0 0 - - -, f 5;
#X obj 1579 196 tgl 15 0 empty empty empty 17 7 0 10 -262144 -1 -1
0 1;
#X obj 1566 239 f;
#X obj 1550 304 f;
#X obj 1548 286 bng 15 250 50 0 empty empty send -30 7 0 10 -262144
-1 -1;
#X floatatom 1567 268 5 0 0 0 - - -, f 5;
#X floatatom 1732 117 5 0 0 0 receive_#4B #4B -, f 5;
#X obj 1726 169 f;
#X obj 1703 148 bng 15 250 50 0 empty empty write -35 7 0 10 -262144
-1 -1;
#X obj 1709 238 f;
#X obj 1708 216 bng 15 250 50 0 empty empty send -30 7 0 10 -262144
-1 -1;
#X floatatom 1727 197 5 0 0 0 - - -, f 5;
#X floatatom 1709 261 5 0 0 0 send_#4B - send_#4B, f 5;
#X floatatom 1789 216 5 0 0 0 - - -, f 5;
#X obj 1789 196 tgl 15 0 empty empty empty 17 7 0 10 -262144 -1 -1
0 1;
#X obj 1776 239 f;
#X obj 1760 304 f;
#X obj 1758 286 bng 15 250 50 0 empty empty send -30 7 0 10 -262144
-1 -1;
#X floatatom 1777 268 5 0 0 0 - - -, f 5;
#X floatatom 1932 117 5 0 0 0 receive_#5B #5B -, f 5;
#X obj 1926 169 f;
#X obj 1903 148 bng 15 250 50 0 empty empty write -35 7 0 10 -262144
-1 -1;
#X obj 1909 238 f;
#X obj 1908 216 bng 15 250 50 0 empty empty send -30 7 0 10 -262144
-1 -1;
#X floatatom 1927 197 5 0 0 0 - - -, f 5;
#X floatatom 1909 261 5 0 0 0 send_#5B - send_#5B, f 5;
#X floatatom 1989 216 5 0 0 0 - - -, f 5;
#X obj 1989 196 tgl 15 0 empty empty empty 17 7 0 10 -262144 -1 -1
1 1;
#X obj 1976 239 f;
#X obj 1960 304 f;
#X obj 1958 286 bng 15 250 50 0 empty empty send -30 7 0 10 -262144
-1 -1;
#X floatatom 1977 268 5 0 0 0 - - -, f 5;
#X floatatom 2142 117 5 0 0 0 receive_#6B #6B -, f 5;
#X obj 2136 169 f;
#X obj 2113 148 bng 15 250 50 0 empty empty write -35 7 0 10 -262144
-1 -1;
#X obj 2119 238 f;
#X obj 2118 216 bng 15 250 50 0 empty empty send -30 7 0 10 -262144
-1 -1;
#X floatatom 2137 197 5 0 0 0 - - -, f 5;
#X floatatom 2119 261 5 0 0 0 send_#6B - send_#6B, f 5;
#X floatatom 2199 216 5 0 0 0 - - -, f 5;
#X obj 2199 196 tgl 15 0 empty empty empty 17 7 0 10 -262144 -1 -1
0 1;
#X obj 2186 239 f;
#X obj 2170 304 f;
#X obj 2168 286 bng 15 250 50 0 empty empty send -30 7 0 10 -262144
-1 -1;
#X floatatom 2187 268 5 0 0 0 - - -, f 5;
#X floatatom 2352 117 5 0 0 0 receive_#7B #7B -, f 5;
#X obj 2346 169 f;
#X obj 2323 148 bng 15 250 50 0 empty empty write -35 7 0 10 -262144
-1 -1;
#X obj 2329 238 f;
#X obj 2328 216 bng 15 250 50 0 empty empty send -30 7 0 10 -262144
-1 -1;
#X floatatom 2347 197 5 0 0 0 - - -, f 5;
#X floatatom 2329 261 5 0 0 0 send_#7B - send_#7B, f 5;
#X floatatom 2409 216 5 0 0 0 - - -, f 5;
#X obj 2409 196 tgl 15 0 empty empty empty 17 7 0 10 -262144 -1 -1
0 1;
#X obj 2396 239 f;
#X obj 2380 304 f;
#X obj 2378 286 bng 15 250 50 0 empty empty send -30 7 0 10 -262144
-1 -1;
#X floatatom 2397 268 5 0 0 0 - - -, f 5;
#X floatatom 2575 118 5 0 0 0 receive_#8B #8B -, f 5;
#X obj 2569 170 f;
#X obj 2546 149 bng 15 250 50 0 empty empty write -35 7 0 10 -262144
-1 -1;
#X obj 2552 239 f;
#X obj 2551 217 bng 15 250 50 0 empty empty send -30 7 0 10 -262144
-1 -1;
#X floatatom 2570 198 5 0 0 0 - - -, f 5;
#X floatatom 2552 262 5 0 0 0 send_#8B - send_#8B, f 5;
#X floatatom 2632 217 5 0 0 0 - - -, f 5;
#X obj 2632 197 tgl 15 0 empty empty empty 17 7 0 10 -262144 -1 -1
0 1;
#X obj 2619 240 f;
#X obj 2603 305 f;
#X obj 2601 287 bng 15 250 50 0 empty empty send -30 7 0 10 -262144
-1 -1;
#X floatatom 2620 269 5 0 0 0 - - -, f 5;
#X floatatom 2785 118 5 0 0 0 receive_#9B #9B -, f 5;
#X obj 2779 170 f;
#X obj 2756 149 bng 15 250 50 0 empty empty write -35 7 0 10 -262144
-1 -1;
#X obj 2762 239 f;
#X obj 2761 217 bng 15 250 50 0 empty empty send -30 7 0 10 -262144
-1 -1;
#X floatatom 2780 198 5 0 0 0 - - -, f 5;
#X floatatom 2762 262 5 0 0 0 send_#9B - send_#9B, f 5;
#X floatatom 2842 217 5 0 0 0 - - -, f 5;
#X obj 2842 197 tgl 15 0 empty empty empty 17 7 0 10 -262144 -1 -1
1 1;
#X obj 2829 240 f;
#X obj 2813 305 f;
#X obj 2811 287 bng 15 250 50 0 empty empty send -30 7 0 10 -262144
-1 -1;
#X floatatom 2830 269 5 0 0 0 - - -, f 5;
#X floatatom 2995 118 5 0 0 0 receive_#10B #10B -, f 5;
#X obj 2989 170 f;
#X obj 2966 149 bng 15 250 50 0 empty empty write -35 7 0 10 -262144
-1 -1;
#X obj 2972 239 f;
#X obj 2971 217 bng 15 250 50 0 empty empty send -30 7 0 10 -262144
-1 -1;
#X floatatom 2990 198 5 0 0 0 - - -, f 5;
#X floatatom 2972 262 5 0 0 0 send_#10B - send_#10B, f 5;
#X floatatom 3052 217 5 0 0 0 - - -, f 5;
#X obj 3052 197 tgl 15 0 empty empty empty 17 7 0 10 -262144 -1 -1
0 1;
#X obj 3039 240 f;
#X obj 3023 305 f;
#X obj 3021 287 bng 15 250 50 0 empty empty send -30 7 0 10 -262144
-1 -1;
#X floatatom 3040 269 5 0 0 0 - - -, f 5;
#X floatatom 3417 118 5 0 0 0 receive_#12B #12B -, f 5;
#X obj 3199 170 f;
#X obj 3176 149 bng 15 250 50 0 empty empty write -35 7 0 10 -262144
-1 -1;
#X obj 3182 239 f;
#X obj 3181 217 bng 15 250 50 0 empty empty send -30 7 0 10 -262144
-1 -1;
#X floatatom 3200 198 5 0 0 0 - - -, f 5;
#X floatatom 3182 262 5 0 0 0 send_#11B - send_#11B, f 5;
#X floatatom 3262 217 5 0 0 0 - - -, f 5;
#X obj 3262 197 tgl 15 0 empty empty empty 17 7 0 10 -262144 -1 -1
0 1;
#X obj 3249 240 f;
#X obj 3233 305 f;
#X obj 3231 287 bng 15 250 50 0 empty empty send -30 7 0 10 -262144
-1 -1;
#X floatatom 3250 269 5 0 0 0 - - -, f 5;
#X floatatom 3626 118 5 0 0 0 receive_#13B #13B -, f 5;
#X obj 3399 170 f;
#X obj 3376 149 bng 15 250 50 0 empty empty write -35 7 0 10 -262144
-1 -1;
#X obj 3382 239 f;
#X obj 3381 217 bng 15 250 50 0 empty empty send -30 7 0 10 -262144
-1 -1;
#X floatatom 3400 198 5 0 0 0 - - -, f 5;
#X floatatom 3382 262 5 0 0 0 send_#12B - send_#12B, f 5;
#X floatatom 3462 217 5 0 0 0 - - -, f 5;
#X obj 3462 197 tgl 15 0 empty empty empty 17 7 0 10 -262144 -1 -1
0 1;
#X obj 3449 240 f;
#X obj 3433 305 f;
#X obj 3431 285 bng 15 250 50 0 empty empty send -30 7 0 10 -262144
-1 -1;
#X floatatom 3450 269 5 0 0 0 - - -, f 5;
#X floatatom 3838 118 5 0 0 0 receive_#14B #14B -, f 5;
#X obj 3609 170 f;
#X obj 3586 149 bng 15 250 50 0 empty empty write -35 7 0 10 -262144
-1 -1;
#X obj 3592 239 f;
#X obj 3591 217 bng 15 250 50 0 empty empty send -30 7 0 10 -262144
-1 -1;
#X floatatom 3610 198 5 0 0 0 - - -, f 5;
#X floatatom 3592 262 5 0 0 0 send_#13B - send_#13B, f 5;
#X floatatom 3672 217 5 0 0 0 - - -, f 5;
#X obj 3672 197 tgl 15 0 empty empty empty 17 7 0 10 -262144 -1 -1
1 1;
#X obj 3659 240 f;
#X obj 3643 305 f;
#X obj 3641 287 bng 15 250 50 0 empty empty send -30 7 0 10 -262144
-1 -1;
#X floatatom 3660 269 5 0 0 0 - - -, f 5;
#X obj 3819 170 f;
#X obj 3796 149 bng 15 250 50 0 empty empty write -35 7 0 10 -262144
-1 -1;
#X obj 3802 239 f;
#X obj 3801 217 bng 15 250 50 0 empty empty send -30 7 0 10 -262144
-1 -1;
#X floatatom 3820 198 5 0 0 0 - - -, f 5;
#X floatatom 3802 262 5 0 0 0 send_#14B - send_#14B, f 5;
#X floatatom 3882 217 5 0 0 0 - - -, f 5;
#X obj 3882 197 tgl 15 0 empty empty empty 17 7 0 10 -262144 -1 -1
0 1;
#X obj 3869 240 f;
#X obj 3853 305 f;
#X obj 3851 287 bng 15 250 50 0 empty empty send -30 7 0 10 -262144
-1 -1;
#X floatatom 3870 269 5 0 0 0 - - -, f 5;
#X floatatom 4043 118 5 0 0 0 receive_#15B #15B -, f 5;
#X obj 4029 170 f;
#X obj 4006 149 bng 15 250 50 0 empty empty write -35 7 0 10 -262144
-1 -1;
#X obj 4012 239 f;
#X obj 4011 217 bng 15 250 50 0 empty empty send -30 7 0 10 -262144
-1 -1;
#X floatatom 4030 198 5 0 0 0 - - -, f 5;
#X floatatom 4012 262 5 0 0 0 send_#15B - send_#15B, f 5;
#X floatatom 4092 217 5 0 0 0 - - -, f 5;
#X obj 4092 197 tgl 15 0 empty empty empty 17 7 0 10 -262144 -1 -1
0 1;
#X obj 4079 240 f;
#X obj 4063 305 f;
#X obj 4061 287 bng 15 250 50 0 empty empty send -30 7 0 10 -262144
-1 -1;
#X floatatom 4080 269 5 0 0 0 - - -, f 5;
#X floatatom 4248 118 5 0 0 0 receive_#16B #16B -, f 5;
#X obj 4229 170 f;
#X obj 4206 149 bng 15 250 50 0 empty empty write -35 7 0 10 -262144
-1 -1;
#X obj 4212 239 f;
#X obj 4211 217 bng 15 250 50 0 empty empty send -30 7 0 10 -262144
-1 -1;
#X floatatom 4230 198 5 0 0 0 - - -, f 5;
#X floatatom 4212 262 5 0 0 0 send_#16B - send_#16B, f 5;
#X floatatom 4292 217 5 0 0 0 - - -, f 5;
#X obj 4292 197 tgl 15 0 empty empty empty 17 7 0 10 -262144 -1 -1
0 1;
#X obj 4279 240 f;
#X obj 4263 305 f;
#X obj 4261 287 bng 15 250 50 0 empty empty send -30 7 0 10 -262144
-1 -1;
#X floatatom 4280 269 5 0 0 0 - - -, f 5;
#X floatatom 3215 118 5 0 0 0 receive_#11B #11B -, f 5;
#X floatatom 972 117 5 0 0 0 receive_stpB stpB -, f 5;
#X obj 966 169 f;
#X obj 943 148 bng 15 250 50 0 empty empty write -35 7 0 10 -262144
-1 -1;
#X obj 949 238 f;
#X obj 948 216 bng 15 250 50 0 empty empty send -30 7 0 10 -262144
-1 -1;
#X floatatom 967 197 5 0 0 0 - - -, f 5;
#X floatatom 951 264 5 0 0 0 send_stpB - send_stpB, f 5;
#X obj 3744 309 r lo;
#X obj 1157 175 r of32;
#X obj 1367 175 r of33;
#X obj 1577 175 r of34;
#X obj 1787 175 r of35;
#X obj 1987 175 r of36;
#X obj 2197 175 r of37;
#X obj 2405 175 r of38;
#X obj 2630 176 r of39;
#X obj 2840 176 r of40;
#X obj 3050 176 r of41;
#X obj 3260 176 r of42;
#X obj 3460 176 r of43;
#X obj 3670 176 r of44;
#X obj 3880 176 r of45;
#X obj 4090 176 r of46;
#X obj 4290 176 r of47;
#X obj 4264 328 s of47;
#X obj 4064 328 s of46;
#X obj 3854 328 s of45;
#X obj 3644 328 s of44;
#X obj 3434 328 s of43;
#X obj 3234 327 s of42;
#X obj 3024 328 s of41;
#X obj 2814 328 s of40;
#X obj 2604 328 s of39;
#X obj 2381 327 s of38;
#X obj 2171 327 s of37;
#X obj 1960 327 s of36;
#X obj 1761 327 s of35;
#X obj 1551 327 s of34;
#X obj 1341 327 s of33;
#X obj 1131 327 s of32;
#X floatatom 1102 737 5 0 0 0 receive_#1B #1B -, f 5;
#X obj 1096 789 f;
#X obj 1073 768 bng 15 250 50 0 empty empty write -35 7 0 10 -262144
-1 -1;
#X obj 1079 858 f;
#X obj 1078 836 bng 15 250 50 0 empty empty send -30 7 0 10 -262144
-1 -1;
#X floatatom 1097 817 5 0 0 0 - - -, f 5;
#X floatatom 1079 881 5 0 0 0 send_#1B - send_#1B, f 5;
#X floatatom 1159 836 5 0 0 0 - - -, f 5;
#X obj 1159 816 tgl 15 0 empty empty empty 17 7 0 10 -262144 -1 -1
1 1;
#X obj 1146 859 f;
#X obj 1130 924 f;
#X obj 1128 906 bng 15 250 50 0 empty empty send -30 7 0 10 -262144
-1 -1;
#X floatatom 1147 888 5 0 0 0 - - -, f 5;
#X floatatom 1312 737 5 0 0 0 receive_#2B #2B -, f 5;
#X obj 1306 789 f;
#X obj 1283 768 bng 15 250 50 0 empty empty write -35 7 0 10 -262144
-1 -1;
#X obj 1289 858 f;
#X obj 1288 836 bng 15 250 50 0 empty empty send -30 7 0 10 -262144
-1 -1;
#X floatatom 1307 817 5 0 0 0 - - -, f 5;
#X floatatom 1289 881 5 0 0 0 send_#2B - send_#2B, f 5;
#X floatatom 1369 836 5 0 0 0 - - -, f 5;
#X obj 1369 816 tgl 15 0 empty empty empty 17 7 0 10 -262144 -1 -1
0 1;
#X obj 1356 859 f;
#X obj 1340 924 f;
#X obj 1338 906 bng 15 250 50 0 empty empty send -30 7 0 10 -262144
-1 -1;
#X floatatom 1357 888 5 0 0 0 - - -, f 5;
#X floatatom 1522 737 3 0 0 0 receive_#3B #3B -, f 3;
#X obj 1516 789 f;
#X obj 1493 768 bng 15 250 50 0 empty empty write -35 7 0 10 -262144
-1 -1;
#X obj 1499 858 f;
#X obj 1498 836 bng 15 250 50 0 empty empty send -30 7 0 10 -262144
-1 -1;
#X floatatom 1517 817 5 0 0 0 - - -, f 5;
#X floatatom 1499 881 5 0 0 0 send_#3B - send_#3B, f 5;
#X floatatom 1579 836 5 0 0 0 - - -, f 5;
#X obj 1579 816 tgl 15 0 empty empty empty 17 7 0 10 -262144 -1 -1
0 1;
#X obj 1566 859 f;
#X obj 1550 924 f;
#X obj 1548 906 bng 15 250 50 0 empty empty send -30 7 0 10 -262144
-1 -1;
#X floatatom 1567 888 5 0 0 0 - - -, f 5;
#X floatatom 1732 737 5 0 0 0 receive_#4B #4B -, f 5;
#X obj 1726 789 f;
#X obj 1703 768 bng 15 250 50 0 empty empty write -35 7 0 10 -262144
-1 -1;
#X obj 1709 858 f;
#X obj 1708 836 bng 15 250 50 0 empty empty send -30 7 0 10 -262144
-1 -1;
#X floatatom 1727 817 5 0 0 0 - - -, f 5;
#X floatatom 1709 881 5 0 0 0 send_#4B - send_#4B, f 5;
#X floatatom 1789 836 5 0 0 0 - - -, f 5;
#X obj 1789 816 tgl 15 0 empty empty empty 17 7 0 10 -262144 -1 -1
0 1;
#X obj 1776 859 f;
#X obj 1760 924 f;
#X obj 1758 906 bng 15 250 50 0 empty empty send -30 7 0 10 -262144
-1 -1;
#X floatatom 1777 888 5 0 0 0 - - -, f 5;
#X floatatom 1932 737 5 0 0 0 receive_#5B #5B -, f 5;
#X obj 1926 789 f;
#X obj 1903 768 bng 15 250 50 0 empty empty write -35 7 0 10 -262144
-1 -1;
#X obj 1909 858 f;
#X obj 1908 836 bng 15 250 50 0 empty empty send -30 7 0 10 -262144
-1 -1;
#X floatatom 1927 817 5 0 0 0 - - -, f 5;
#X floatatom 1909 881 5 0 0 0 send_#5B - send_#5B, f 5;
#X floatatom 1989 836 5 0 0 0 - - -, f 5;
#X obj 1989 816 tgl 15 0 empty empty empty 17 7 0 10 -262144 -1 -1
1 1;
#X obj 1976 859 f;
#X obj 1960 924 f;
#X obj 1958 906 bng 15 250 50 0 empty empty send -30 7 0 10 -262144
-1 -1;
#X floatatom 1977 888 5 0 0 0 - - -, f 5;
#X floatatom 2142 737 5 0 0 0 receive_#6B #6B -, f 5;
#X obj 2136 789 f;
#X obj 2113 768 bng 15 250 50 0 empty empty write -35 7 0 10 -262144
-1 -1;
#X obj 2119 858 f;
#X obj 2118 836 bng 15 250 50 0 empty empty send -30 7 0 10 -262144
-1 -1;
#X floatatom 2137 817 5 0 0 0 - - -, f 5;
#X floatatom 2119 881 5 0 0 0 send_#6B - send_#6B, f 5;
#X floatatom 2199 836 5 0 0 0 - - -, f 5;
#X obj 2199 816 tgl 15 0 empty empty empty 17 7 0 10 -262144 -1 -1
0 1;
#X obj 2186 859 f;
#X obj 2170 924 f;
#X obj 2168 906 bng 15 250 50 0 empty empty send -30 7 0 10 -262144
-1 -1;
#X floatatom 2187 888 5 0 0 0 - - -, f 5;
#X floatatom 2352 737 5 0 0 0 receive_#7B #7B -, f 5;
#X obj 2346 789 f;
#X obj 2323 768 bng 15 250 50 0 empty empty write -35 7 0 10 -262144
-1 -1;
#X obj 2329 858 f;
#X obj 2328 836 bng 15 250 50 0 empty empty send -30 7 0 10 -262144
-1 -1;
#X floatatom 2347 817 5 0 0 0 - - -, f 5;
#X floatatom 2329 881 5 0 0 0 send_#7B - send_#7B, f 5;
#X floatatom 2409 836 5 0 0 0 - - -, f 5;
#X obj 2409 816 tgl 15 0 empty empty empty 17 7 0 10 -262144 -1 -1
0 1;
#X obj 2396 859 f;
#X obj 2380 924 f;
#X obj 2378 906 bng 15 250 50 0 empty empty send -30 7 0 10 -262144
-1 -1;
#X floatatom 2397 888 5 0 0 0 - - -, f 5;
#X floatatom 2575 738 5 0 0 0 receive_#8B #8B -, f 5;
#X obj 2569 790 f;
#X obj 2546 769 bng 15 250 50 0 empty empty write -35 7 0 10 -262144
-1 -1;
#X obj 2552 859 f;
#X obj 2551 837 bng 15 250 50 0 empty empty send -30 7 0 10 -262144
-1 -1;
#X floatatom 2570 818 5 0 0 0 - - -, f 5;
#X floatatom 2552 882 5 0 0 0 send_#8B - send_#8B, f 5;
#X floatatom 2632 837 5 0 0 0 - - -, f 5;
#X obj 2632 817 tgl 15 0 empty empty empty 17 7 0 10 -262144 -1 -1
0 1;
#X obj 2619 860 f;
#X obj 2603 925 f;
#X obj 2601 907 bng 15 250 50 0 empty empty send -30 7 0 10 -262144
-1 -1;
#X floatatom 2620 889 5 0 0 0 - - -, f 5;
#X floatatom 2785 738 5 0 0 0 receive_#9B #9B -, f 5;
#X obj 2779 790 f;
#X obj 2756 769 bng 15 250 50 0 empty empty write -35 7 0 10 -262144
-1 -1;
#X obj 2762 859 f;
#X obj 2761 837 bng 15 250 50 0 empty empty send -30 7 0 10 -262144
-1 -1;
#X floatatom 2780 818 5 0 0 0 - - -, f 5;
#X floatatom 2762 882 5 0 0 0 send_#9B - send_#9B, f 5;
#X floatatom 2842 837 5 0 0 0 - - -, f 5;
#X obj 2842 817 tgl 15 0 empty empty empty 17 7 0 10 -262144 -1 -1
1 1;
#X obj 2829 860 f;
#X obj 2813 925 f;
#X obj 2811 907 bng 15 250 50 0 empty empty send -30 7 0 10 -262144
-1 -1;
#X floatatom 2830 889 5 0 0 0 - - -, f 5;
#X floatatom 2995 738 5 0 0 0 receive_#10B #10B -, f 5;
#X obj 2989 790 f;
#X obj 2966 769 bng 15 250 50 0 empty empty write -35 7 0 10 -262144
-1 -1;
#X obj 2972 859 f;
#X obj 2971 837 bng 15 250 50 0 empty empty send -30 7 0 10 -262144
-1 -1;
#X floatatom 2990 818 5 0 0 0 - - -, f 5;
#X floatatom 2972 882 5 0 0 0 send_#10B - send_#10B, f 5;
#X floatatom 3052 837 5 0 0 0 - - -, f 5;
#X obj 3052 817 tgl 15 0 empty empty empty 17 7 0 10 -262144 -1 -1
0 1;
#X obj 3039 860 f;
#X obj 3023 925 f;
#X obj 3021 907 bng 15 250 50 0 empty empty send -30 7 0 10 -262144
-1 -1;
#X floatatom 3040 889 5 0 0 0 - - -, f 5;
#X floatatom 3417 738 5 0 0 0 receive_#12B #12B -, f 5;
#X obj 3199 790 f;
#X obj 3176 769 bng 15 250 50 0 empty empty write -35 7 0 10 -262144
-1 -1;
#X obj 3182 859 f;
#X obj 3181 837 bng 15 250 50 0 empty empty send -30 7 0 10 -262144
-1 -1;
#X floatatom 3200 818 5 0 0 0 - - -, f 5;
#X floatatom 3182 882 5 0 0 0 send_#11B - send_#11B, f 5;
#X floatatom 3262 837 5 0 0 0 - - -, f 5;
#X obj 3262 817 tgl 15 0 empty empty empty 17 7 0 10 -262144 -1 -1
0 1;
#X obj 3249 860 f;
#X obj 3233 925 f;
#X obj 3231 907 bng 15 250 50 0 empty empty send -30 7 0 10 -262144
-1 -1;
#X floatatom 3250 889 5 0 0 0 - - -, f 5;
#X floatatom 3626 738 5 0 0 0 receive_#13B #13B -, f 5;
#X obj 3399 790 f;
#X obj 3376 769 bng 15 250 50 0 empty empty write -35 7 0 10 -262144
-1 -1;
#X obj 3382 859 f;
#X obj 3381 837 bng 15 250 50 0 empty empty send -30 7 0 10 -262144
-1 -1;
#X floatatom 3400 818 5 0 0 0 - - -, f 5;
#X floatatom 3382 882 5 0 0 0 send_#12B - send_#12B, f 5;
#X floatatom 3462 837 5 0 0 0 - - -, f 5;
#X obj 3462 817 tgl 15 0 empty empty empty 17 7 0 10 -262144 -1 -1
0 1;
#X obj 3449 860 f;
#X obj 3433 925 f;
#X obj 3431 905 bng 15 250 50 0 empty empty send -30 7 0 10 -262144
-1 -1;
#X floatatom 3450 889 5 0 0 0 - - -, f 5;
#X floatatom 3838 738 5 0 0 0 receive_#14B #14B -, f 5;
#X obj 3609 790 f;
#X obj 3586 769 bng 15 250 50 0 empty empty write -35 7 0 10 -262144
-1 -1;
#X obj 3592 859 f;
#X obj 3591 837 bng 15 250 50 0 empty empty send -30 7 0 10 -262144
-1 -1;
#X floatatom 3610 818 5 0 0 0 - - -, f 5;
#X floatatom 3592 882 5 0 0 0 send_#13B - send_#13B, f 5;
#X floatatom 3672 837 5 0 0 0 - - -, f 5;
#X obj 3672 817 tgl 15 0 empty empty empty 17 7 0 10 -262144 -1 -1
1 1;
#X obj 3659 860 f;
#X obj 3643 925 f;
#X obj 3641 907 bng 15 250 50 0 empty empty send -30 7 0 10 -262144
-1 -1;
#X floatatom 3660 889 5 0 0 0 - - -, f 5;
#X obj 3819 790 f;
#X obj 3796 769 bng 15 250 50 0 empty empty write -35 7 0 10 -262144
-1 -1;
#X obj 3802 859 f;
#X obj 3801 837 bng 15 250 50 0 empty empty send -30 7 0 10 -262144
-1 -1;
#X floatatom 3820 818 5 0 0 0 - - -, f 5;
#X floatatom 3802 882 5 0 0 0 send_#14B - send_#14B, f 5;
#X floatatom 3882 837 5 0 0 0 - - -, f 5;
#X obj 3882 817 tgl 15 0 empty empty empty 17 7 0 10 -262144 -1 -1
0 1;
#X obj 3869 860 f;
#X obj 3853 925 f;
#X obj 3851 907 bng 15 250 50 0 empty empty send -30 7 0 10 -262144
-1 -1;
#X floatatom 3870 889 5 0 0 0 - - -, f 5;
#X floatatom 4043 738 5 0 0 0 receive_#15B #15B -, f 5;
#X obj 4029 790 f;
#X obj 4006 769 bng 15 250 50 0 empty empty write -35 7 0 10 -262144
-1 -1;
#X obj 4012 859 f;
#X obj 4011 837 bng 15 250 50 0 empty empty send -30 7 0 10 -262144
-1 -1;
#X floatatom 4030 818 5 0 0 0 - - -, f 5;
#X floatatom 4012 882 5 0 0 0 send_#15B - send_#15B, f 5;
#X floatatom 4092 837 5 0 0 0 - - -, f 5;
#X obj 4092 817 tgl 15 0 empty empty empty 17 7 0 10 -262144 -1 -1
0 1;
#X obj 4079 860 f;
#X obj 4063 925 f;
#X obj 4061 907 bng 15 250 50 0 empty empty send -30 7 0 10 -262144
-1 -1;
#X floatatom 4080 889 5 0 0 0 - - -, f 5;
#X floatatom 4248 738 5 0 0 0 receive_#16B #16B -, f 5;
#X obj 4229 790 f;
#X obj 4206 769 bng 15 250 50 0 empty empty write -35 7 0 10 -262144
-1 -1;
#X obj 4212 859 f;
#X obj 4211 837 bng 15 250 50 0 empty empty send -30 7 0 10 -262144
-1 -1;
#X floatatom 4230 818 5 0 0 0 - - -, f 5;
#X floatatom 4212 882 5 0 0 0 send_#16B - send_#16B, f 5;
#X floatatom 4292 837 5 0 0 0 - - -, f 5;
#X obj 4292 817 tgl 15 0 empty empty empty 17 7 0 10 -262144 -1 -1
0 1;
#X obj 4279 860 f;
#X obj 4263 925 f;
#X obj 4261 907 bng 15 250 50 0 empty empty send -30 7 0 10 -262144
-1 -1;
#X floatatom 4280 889 5 0 0 0 - - -, f 5;
#X floatatom 3215 738 5 0 0 0 receive_#11B #11B -, f 5;
#X floatatom 972 737 5 0 0 0 receive_stpB stpB -, f 5;
#X obj 966 789 f;
#X obj 943 768 bng 15 250 50 0 empty empty write -35 7 0 10 -262144
-1 -1;
#X obj 949 858 f;
#X obj 948 836 bng 15 250 50 0 empty empty send -30 7 0 10 -262144
-1 -1;
#X floatatom 967 817 5 0 0 0 - - -, f 5;
#X floatatom 951 884 5 0 0 0 send_stpB - send_stpB, f 5;
#X obj 3744 929 r lo;
#X obj 1157 795 r of32;
#X obj 1367 795 r of33;
#X obj 1577 795 r of34;
#X obj 1787 795 r of35;
#X obj 1987 795 r of36;
#X obj 2197 795 r of37;
#X obj 2405 795 r of38;
#X obj 2630 796 r of39;
#X obj 2840 796 r of40;
#X obj 3050 796 r of41;
#X obj 3260 796 r of42;
#X obj 3460 796 r of43;
#X obj 3670 796 r of44;
#X obj 3880 796 r of45;
#X obj 4090 796 r of46;
#X obj 4290 796 r of47;
#X obj 4264 948 s of47;
#X obj 4064 948 s of46;
#X obj 3854 948 s of45;
#X obj 3644 948 s of44;
#X obj 3434 948 s of43;
#X obj 3234 947 s of42;
#X obj 3024 948 s of41;
#X obj 2814 948 s of40;
#X obj 2604 948 s of39;
#X obj 2381 947 s of38;
#X obj 2171 947 s of37;
#X obj 1960 947 s of36;
#X obj 1761 947 s of35;
#X obj 1551 947 s of34;
#X obj 1341 947 s of33;
#X obj 1131 947 s of32;
#X floatatom 1102 447 5 0 0 0 receive_#1B #1B -, f 5;
#X obj 1096 499 f;
#X obj 1073 478 bng 15 250 50 0 empty empty write -35 7 0 10 -262144
-1 -1;
#X obj 1079 568 f;
#X obj 1078 546 bng 15 250 50 0 empty empty send -30 7 0 10 -262144
-1 -1;
#X floatatom 1097 527 5 0 0 0 - - -, f 5;
#X floatatom 1079 591 5 0 0 0 send_#1B - send_#1B, f 5;
#X floatatom 1159 546 5 0 0 0 - - -, f 5;
#X obj 1159 526 tgl 15 0 empty empty empty 17 7 0 10 -262144 -1 -1
1 1;
#X obj 1146 569 f;
#X obj 1130 634 f;
#X obj 1128 616 bng 15 250 50 0 empty empty send -30 7 0 10 -262144
-1 -1;
#X floatatom 1147 598 5 0 0 0 - - -, f 5;
#X floatatom 1312 447 5 0 0 0 receive_#2B #2B -, f 5;
#X obj 1306 499 f;
#X obj 1283 478 bng 15 250 50 0 empty empty write -35 7 0 10 -262144
-1 -1;
#X obj 1289 568 f;
#X obj 1288 546 bng 15 250 50 0 empty empty send -30 7 0 10 -262144
-1 -1;
#X floatatom 1307 527 5 0 0 0 - - -, f 5;
#X floatatom 1289 591 5 0 0 0 send_#2B - send_#2B, f 5;
#X floatatom 1369 546 5 0 0 0 - - -, f 5;
#X obj 1369 526 tgl 15 0 empty empty empty 17 7 0 10 -262144 -1 -1
0 1;
#X obj 1356 569 f;
#X obj 1340 634 f;
#X obj 1338 616 bng 15 250 50 0 empty empty send -30 7 0 10 -262144
-1 -1;
#X floatatom 1357 598 5 0 0 0 - - -, f 5;
#X floatatom 1522 447 3 0 0 0 receive_#3B #3B -, f 3;
#X obj 1516 499 f;
#X obj 1493 478 bng 15 250 50 0 empty empty write -35 7 0 10 -262144
-1 -1;
#X obj 1499 568 f;
#X obj 1498 546 bng 15 250 50 0 empty empty send -30 7 0 10 -262144
-1 -1;
#X floatatom 1517 527 5 0 0 0 - - -, f 5;
#X floatatom 1499 591 5 0 0 0 send_#3B - send_#3B, f 5;
#X floatatom 1579 546 5 0 0 0 - - -, f 5;
#X obj 1579 526 tgl 15 0 empty empty empty 17 7 0 10 -262144 -1 -1
0 1;
#X obj 1566 569 f;
#X obj 1550 634 f;
#X obj 1548 616 bng 15 250 50 0 empty empty send -30 7 0 10 -262144
-1 -1;
#X floatatom 1567 598 5 0 0 0 - - -, f 5;
#X floatatom 1732 447 5 0 0 0 receive_#4B #4B -, f 5;
#X obj 1726 499 f;
#X obj 1703 478 bng 15 250 50 0 empty empty write -35 7 0 10 -262144
-1 -1;
#X obj 1709 568 f;
#X obj 1708 546 bng 15 250 50 0 empty empty send -30 7 0 10 -262144
-1 -1;
#X floatatom 1727 527 5 0 0 0 - - -, f 5;
#X floatatom 1709 591 5 0 0 0 send_#4B - send_#4B, f 5;
#X floatatom 1789 546 5 0 0 0 - - -, f 5;
#X obj 1789 526 tgl 15 0 empty empty empty 17 7 0 10 -262144 -1 -1
0 1;
#X obj 1776 569 f;
#X obj 1760 634 f;
#X obj 1758 616 bng 15 250 50 0 empty empty send -30 7 0 10 -262144
-1 -1;
#X floatatom 1777 598 5 0 0 0 - - -, f 5;
#X floatatom 1932 447 5 0 0 0 receive_#5B #5B -, f 5;
#X obj 1926 499 f;
#X obj 1903 478 bng 15 250 50 0 empty empty write -35 7 0 10 -262144
-1 -1;
#X obj 1909 568 f;
#X obj 1908 546 bng 15 250 50 0 empty empty send -30 7 0 10 -262144
-1 -1;
#X floatatom 1927 527 5 0 0 0 - - -, f 5;
#X floatatom 1909 591 5 0 0 0 send_#5B - send_#5B, f 5;
#X floatatom 1989 546 5 0 0 0 - - -, f 5;
#X obj 1989 526 tgl 15 0 empty empty empty 17 7 0 10 -262144 -1 -1
1 1;
#X obj 1976 569 f;
#X obj 1960 634 f;
#X obj 1958 616 bng 15 250 50 0 empty empty send -30 7 0 10 -262144
-1 -1;
#X floatatom 1977 598 5 0 0 0 - - -, f 5;
#X floatatom 2142 447 5 0 0 0 receive_#6B #6B -, f 5;
#X obj 2136 499 f;
#X obj 2113 478 bng 15 250 50 0 empty empty write -35 7 0 10 -262144
-1 -1;
#X obj 2119 568 f;
#X obj 2118 546 bng 15 250 50 0 empty empty send -30 7 0 10 -262144
-1 -1;
#X floatatom 2137 527 5 0 0 0 - - -, f 5;
#X floatatom 2119 591 5 0 0 0 send_#6B - send_#6B, f 5;
#X floatatom 2199 546 5 0 0 0 - - -, f 5;
#X obj 2199 526 tgl 15 0 empty empty empty 17 7 0 10 -262144 -1 -1
0 1;
#X obj 2186 569 f;
#X obj 2170 634 f;
#X obj 2168 616 bng 15 250 50 0 empty empty send -30 7 0 10 -262144
-1 -1;
#X floatatom 2187 598 5 0 0 0 - - -, f 5;
#X floatatom 2352 447 5 0 0 0 receive_#7B #7B -, f 5;
#X obj 2346 499 f;
#X obj 2323 478 bng 15 250 50 0 empty empty write -35 7 0 10 -262144
-1 -1;
#X obj 2329 568 f;
#X obj 2328 546 bng 15 250 50 0 empty empty send -30 7 0 10 -262144
-1 -1;
#X floatatom 2347 527 5 0 0 0 - - -, f 5;
#X floatatom 2329 591 5 0 0 0 send_#7B - send_#7B, f 5;
#X floatatom 2409 546 5 0 0 0 - - -, f 5;
#X obj 2409 526 tgl 15 0 empty empty empty 17 7 0 10 -262144 -1 -1
0 1;
#X obj 2396 569 f;
#X obj 2380 634 f;
#X obj 2378 616 bng 15 250 50 0 empty empty send -30 7 0 10 -262144
-1 -1;
#X floatatom 2397 598 5 0 0 0 - - -, f 5;
#X floatatom 2575 448 5 0 0 0 receive_#8B #8B -, f 5;
#X obj 2569 500 f;
#X obj 2546 479 bng 15 250 50 0 empty empty write -35 7 0 10 -262144
-1 -1;
#X obj 2552 569 f;
#X obj 2551 547 bng 15 250 50 0 empty empty send -30 7 0 10 -262144
-1 -1;
#X floatatom 2570 528 5 0 0 0 - - -, f 5;
#X floatatom 2552 592 5 0 0 0 send_#8B - send_#8B, f 5;
#X floatatom 2632 547 5 0 0 0 - - -, f 5;
#X obj 2632 527 tgl 15 0 empty empty empty 17 7 0 10 -262144 -1 -1
0 1;
#X obj 2619 570 f;
#X obj 2603 635 f;
#X obj 2601 617 bng 15 250 50 0 empty empty send -30 7 0 10 -262144
-1 -1;
#X floatatom 2620 599 5 0 0 0 - - -, f 5;
#X floatatom 2785 448 5 0 0 0 receive_#9B #9B -, f 5;
#X obj 2779 500 f;
#X obj 2756 479 bng 15 250 50 0 empty empty write -35 7 0 10 -262144
-1 -1;
#X obj 2762 569 f;
#X obj 2761 547 bng 15 250 50 0 empty empty send -30 7 0 10 -262144
-1 -1;
#X floatatom 2780 528 5 0 0 0 - - -, f 5;
#X floatatom 2762 592 5 0 0 0 send_#9B - send_#9B, f 5;
#X floatatom 2842 547 5 0 0 0 - - -, f 5;
#X obj 2842 527 tgl 15 0 empty empty empty 17 7 0 10 -262144 -1 -1
1 1;
#X obj 2829 570 f;
#X obj 2813 635 f;
#X obj 2811 617 bng 15 250 50 0 empty empty send -30 7 0 10 -262144
-1 -1;
#X floatatom 2830 599 5 0 0 0 - - -, f 5;
#X floatatom 2995 448 5 0 0 0 receive_#10B #10B -, f 5;
#X obj 2989 500 f;
#X obj 2966 479 bng 15 250 50 0 empty empty write -35 7 0 10 -262144
-1 -1;
#X obj 2972 569 f;
#X obj 2971 547 bng 15 250 50 0 empty empty send -30 7 0 10 -262144
-1 -1;
#X floatatom 2990 528 5 0 0 0 - - -, f 5;
#X floatatom 2972 592 5 0 0 0 send_#10B - send_#10B, f 5;
#X floatatom 3052 547 5 0 0 0 - - -, f 5;
#X obj 3052 527 tgl 15 0 empty empty empty 17 7 0 10 -262144 -1 -1
0 1;
#X obj 3039 570 f;
#X obj 3023 635 f;
#X obj 3021 617 bng 15 250 50 0 empty empty send -30 7 0 10 -262144
-1 -1;
#X floatatom 3040 599 5 0 0 0 - - -, f 5;
#X floatatom 3417 448 5 0 0 0 receive_#12B #12B -, f 5;
#X obj 3199 500 f;
#X obj 3176 479 bng 15 250 50 0 empty empty write -35 7 0 10 -262144
-1 -1;
#X obj 3182 569 f;
#X obj 3181 547 bng 15 250 50 0 empty empty send -30 7 0 10 -262144
-1 -1;
#X floatatom 3200 528 5 0 0 0 - - -, f 5;
#X floatatom 3182 592 5 0 0 0 send_#11B - send_#11B, f 5;
#X floatatom 3262 547 5 0 0 0 - - -, f 5;
#X obj 3262 527 tgl 15 0 empty empty empty 17 7 0 10 -262144 -1 -1
0 1;
#X obj 3249 570 f;
#X obj 3233 635 f;
#X obj 3231 617 bng 15 250 50 0 empty empty send -30 7 0 10 -262144
-1 -1;
#X floatatom 3250 599 5 0 0 0 - - -, f 5;
#X floatatom 3626 448 5 0 0 0 receive_#13B #13B -, f 5;
#X obj 3399 500 f;
#X obj 3376 479 bng 15 250 50 0 empty empty write -35 7 0 10 -262144
-1 -1;
#X obj 3382 569 f;
#X obj 3381 547 bng 15 250 50 0 empty empty send -30 7 0 10 -262144
-1 -1;
#X floatatom 3400 528 5 0 0 0 - - -, f 5;
#X floatatom 3382 592 5 0 0 0 send_#12B - send_#12B, f 5;
#X floatatom 3462 547 5 0 0 0 - - -, f 5;
#X obj 3462 527 tgl 15 0 empty empty empty 17 7 0 10 -262144 -1 -1
0 1;
#X obj 3449 570 f;
#X obj 3433 635 f;
#X obj 3431 615 bng 15 250 50 0 empty empty send -30 7 0 10 -262144
-1 -1;
#X floatatom 3450 599 5 0 0 0 - - -, f 5;
#X floatatom 3838 448 5 0 0 0 receive_#14B #14B -, f 5;
#X obj 3609 500 f;
#X obj 3586 479 bng 15 250 50 0 empty empty write -35 7 0 10 -262144
-1 -1;
#X obj 3592 569 f;
#X obj 3591 547 bng 15 250 50 0 empty empty send -30 7 0 10 -262144
-1 -1;
#X floatatom 3610 528 5 0 0 0 - - -, f 5;
#X floatatom 3592 592 5 0 0 0 send_#13B - send_#13B, f 5;
#X floatatom 3672 547 5 0 0 0 - - -, f 5;
#X obj 3672 527 tgl 15 0 empty empty empty 17 7 0 10 -262144 -1 -1
1 1;
#X obj 3659 570 f;
#X obj 3643 635 f;
#X obj 3641 617 bng 15 250 50 0 empty empty send -30 7 0 10 -262144
-1 -1;
#X floatatom 3660 599 5 0 0 0 - - -, f 5;
#X obj 3819 500 f;
#X obj 3796 479 bng 15 250 50 0 empty empty write -35 7 0 10 -262144
-1 -1;
#X obj 3802 569 f;
#X obj 3801 547 bng 15 250 50 0 empty empty send -30 7 0 10 -262144
-1 -1;
#X floatatom 3820 528 5 0 0 0 - - -, f 5;
#X floatatom 3802 592 5 0 0 0 send_#14B - send_#14B, f 5;
#X floatatom 3882 547 5 0 0 0 - - -, f 5;
#X obj 3882 527 tgl 15 0 empty empty empty 17 7 0 10 -262144 -1 -1
0 1;
#X obj 3869 570 f;
#X obj 3853 635 f;
#X obj 3851 617 bng 15 250 50 0 empty empty send -30 7 0 10 -262144
-1 -1;
#X floatatom 3870 599 5 0 0 0 - - -, f 5;
#X floatatom 4043 448 5 0 0 0 receive_#15B #15B -, f 5;
#X obj 4029 500 f;
#X obj 4006 479 bng 15 250 50 0 empty empty write -35 7 0 10 -262144
-1 -1;
#X obj 4012 569 f;
#X obj 4011 547 bng 15 250 50 0 empty empty send -30 7 0 10 -262144
-1 -1;
#X floatatom 4030 528 5 0 0 0 - - -, f 5;
#X floatatom 4012 592 5 0 0 0 send_#15B - send_#15B, f 5;
#X floatatom 4092 547 5 0 0 0 - - -, f 5;
#X obj 4092 527 tgl 15 0 empty empty empty 17 7 0 10 -262144 -1 -1
0 1;
#X obj 4079 570 f;
#X obj 4063 635 f;
#X obj 4061 617 bng 15 250 50 0 empty empty send -30 7 0 10 -262144
-1 -1;
#X floatatom 4080 599 5 0 0 0 - - -, f 5;
#X floatatom 4248 448 5 0 0 0 receive_#16B #16B -, f 5;
#X obj 4229 500 f;
#X obj 4206 479 bng 15 250 50 0 empty empty write -35 7 0 10 -262144
-1 -1;
#X obj 4212 569 f;
#X obj 4211 547 bng 15 250 50 0 empty empty send -30 7 0 10 -262144
-1 -1;
#X floatatom 4230 528 5 0 0 0 - - -, f 5;
#X floatatom 4212 592 5 0 0 0 send_#16B - send_#16B, f 5;
#X floatatom 4292 547 5 0 0 0 - - -, f 5;
#X obj 4292 527 tgl 15 0 empty empty empty 17 7 0 10 -262144 -1 -1
0 1;
#X obj 4279 570 f;
#X obj 4263 635 f;
#X obj 4261 617 bng 15 250 50 0 empty empty send -30 7 0 10 -262144
-1 -1;
#X floatatom 4280 599 5 0 0 0 - - -, f 5;
#X floatatom 3215 448 5 0 0 0 receive_#11B #11B -, f 5;
#X floatatom 972 447 5 0 0 0 receive_stpB stpB -, f 5;
#X obj 966 499 f;
#X obj 943 478 bng 15 250 50 0 empty empty write -35 7 0 10 -262144
-1 -1;
#X obj 949 568 f;
#X obj 948 546 bng 15 250 50 0 empty empty send -30 7 0 10 -262144
-1 -1;
#X floatatom 967 527 5 0 0 0 - - -, f 5;
#X floatatom 951 594 5 0 0 0 send_stpB - send_stpB, f 5;
#X obj 3744 639 r lo;
#X obj 1157 505 r of32;
#X obj 1367 505 r of33;
#X obj 1577 505 r of34;
#X obj 1787 505 r of35;
#X obj 1987 505 r of36;
#X obj 2197 505 r of37;
#X obj 2405 505 r of38;
#X obj 2630 506 r of39;
#X obj 2840 506 r of40;
#X obj 3050 506 r of41;
#X obj 3260 506 r of42;
#X obj 3460 506 r of43;
#X obj 3670 506 r of44;
#X obj 3880 506 r of45;
#X obj 4090 506 r of46;
#X obj 4290 506 r of47;
#X obj 4264 658 s of47;
#X obj 4064 658 s of46;
#X obj 3854 658 s of45;
#X obj 3644 658 s of44;
#X obj 3434 658 s of43;
#X obj 3234 657 s of42;
#X obj 3024 658 s of41;
#X obj 2814 658 s of40;
#X obj 2604 658 s of39;
#X obj 2381 657 s of38;
#X obj 2171 657 s of37;
#X obj 1960 657 s of36;
#X obj 1761 657 s of35;
#X obj 1551 657 s of34;
#X obj 1341 657 s of33;
#X obj 1131 657 s of32;
#X floatatom 489 -141 5 0 0 0 receive_reposetoiX#B reposetoiX#B -,
f 5;
#X obj 512 -89 f;
#X obj 489 -110 bng 15 250 50 0 empty empty write -35 7 0 10 -262144
-1 -1;
#X obj 495 -20 f;
#X obj 494 -42 bng 15 250 50 0 empty empty send -30 7 0 10 -262144
-1 -1;
#X floatatom 513 -61 5 0 0 0 - - -, f 5;
#X floatatom 497 6 5 0 0 0 send_reposetoiX#B - send_reposetoiX#B,
f 5;
#X floatatom 578 -74 5 0 0 0 - - -, f 5;
#X obj 578 -94 tgl 15 0 empty empty empty 17 7 0 10 -262144 -1 -1 0
1;
#X obj 565 -51 f;
#X obj 549 14 f;
#X floatatom 566 -22 5 0 0 0 - - -, f 5;
#X obj 550 37 s send_reposetoinoffB;
#X obj 574 -120 r reposetoinoffB;
#X floatatom 489 79 5 0 0 0 receive_reposetoiX#B reposetoiX#B -, f
5;
#X obj 512 131 f;
#X obj 489 110 bng 15 250 50 0 empty empty write -35 7 0 10 -262144
-1 -1;
#X obj 495 200 f;
#X obj 494 178 bng 15 250 50 0 empty empty send -30 7 0 10 -262144
-1 -1;
#X floatatom 513 159 5 0 0 0 - - -, f 5;
#X floatatom 497 226 5 0 0 0 send_reposetoiX#B - send_reposetoiX#B
, f 5;
#X floatatom 578 146 5 0 0 0 - - -, f 5;
#X obj 578 126 tgl 15 0 empty empty empty 17 7 0 10 -262144 -1 -1 0
1;
#X obj 565 169 f;
#X obj 549 234 f;
#X floatatom 566 198 5 0 0 0 - - -, f 5;
#X obj 550 257 s send_reposetoinoffB;
#X obj 574 100 r reposetoinoffB;
#X floatatom 489 469 5 0 0 0 receive_reposetoiX#B reposetoiX#B -,
f 5;
#X obj 512 521 f;
#X obj 489 500 bng 15 250 50 0 empty empty write -35 7 0 10 -262144
-1 -1;
#X obj 495 590 f;
#X obj 494 568 bng 15 250 50 0 empty empty send -30 7 0 10 -262144
-1 -1;
#X floatatom 513 549 5 0 0 0 - - -, f 5;
#X floatatom 497 616 5 0 0 0 send_reposetoiX#B - send_reposetoiX#B
, f 5;
#X floatatom 578 536 5 0 0 0 - - -, f 5;
#X obj 578 516 tgl 15 0 empty empty empty 17 7 0 10 -262144 -1 -1 0
1;
#X obj 565 559 f;
#X obj 549 624 f;
#X floatatom 566 588 5 0 0 0 - - -, f 5;
#X obj 550 647 s send_reposetoinoffB;
#X obj 574 490 r reposetoinoffB;
#X floatatom 489 689 5 0 0 0 receive_reposetoiX#B reposetoiX#B -,
f 5;
#X obj 512 741 f;
#X obj 489 720 bng 15 250 50 0 empty empty write -35 7 0 10 -262144
-1 -1;
#X obj 495 810 f;
#X obj 494 788 bng 15 250 50 0 empty empty send -30 7 0 10 -262144
-1 -1;
#X floatatom 513 769 5 0 0 0 - - -, f 5;
#X floatatom 497 836 5 0 0 0 send_reposetoiX#B - send_reposetoiX#B
, f 5;
#X floatatom 578 756 5 0 0 0 - - -, f 5;
#X obj 578 736 tgl 15 0 empty empty empty 17 7 0 10 -262144 -1 -1 0
1;
#X obj 565 779 f;
#X obj 549 844 f;
#X floatatom 566 808 5 0 0 0 - - -, f 5;
#X obj 550 867 s send_reposetoinoffB;
#X obj 574 710 r reposetoinoffB;
#X floatatom 818 -135 5 0 0 0 receives_ITDETonoff1 ITDETonoff1 -,
f 5;
#X obj 812 -83 f;
#X obj 789 -104 bng 15 250 50 0 empty empty write -35 7 0 10 -262144
-1 -1;
#X obj 795 -14 f;
#X obj 794 -36 bng 15 250 50 0 empty empty send -30 7 0 10 -262144
-1 -1;
#X floatatom 813 -55 5 0 0 0 - - -, f 5;
#X floatatom 797 12 5 0 0 0 send__ITDETonoffload1 - ITDETonoffload1
, f 5;
#X floatatom 818 125 5 0 0 0 receives_ITDETonoff1 ITDETonoff1 -, f
5;
#X obj 812 177 f;
#X obj 789 156 bng 15 250 50 0 empty empty write -35 7 0 10 -262144
-1 -1;
#X obj 795 246 f;
#X obj 794 224 bng 15 250 50 0 empty empty send -30 7 0 10 -262144
-1 -1;
#X floatatom 813 205 5 0 0 0 - - -, f 5;
#X floatatom 797 272 5 0 0 0 send__ITDETonoffload1 - ITDETonoffload1
, f 5;
#X floatatom 818 475 5 0 0 0 receives_ITDETonoff1 ITDETonoff1 -, f
5;
#X obj 812 527 f;
#X obj 789 506 bng 15 250 50 0 empty empty write -35 7 0 10 -262144
-1 -1;
#X obj 795 596 f;
#X obj 794 574 bng 15 250 50 0 empty empty send -30 7 0 10 -262144
-1 -1;
#X floatatom 813 555 5 0 0 0 - - -, f 5;
#X floatatom 797 622 5 0 0 0 send__ITDETonoffload1 - ITDETonoffload1
, f 5;
#X floatatom 818 735 5 0 0 0 receives_ITDETonoff1 ITDETonoff1 -, f
5;
#X obj 812 787 f;
#X obj 789 766 bng 15 250 50 0 empty empty write -35 7 0 10 -262144
-1 -1;
#X obj 795 856 f;
#X obj 794 834 bng 15 250 50 0 empty empty send -30 7 0 10 -262144
-1 -1;
#X floatatom 813 815 5 0 0 0 - - -, f 5;
#X floatatom 797 882 5 0 0 0 send__ITDETonoffload1 - ITDETonoffload1
, f 5;
#X obj 2209 -111 onoff37;
#X obj 2209 139 onoff37;
#X obj 2209 759 onoff37;
#X obj 2209 469 onoff37;
#X obj 2390 -112 onoff38;
#X obj 2390 138 onoff38;
#X obj 2390 758 onoff38;
#X obj 2390 468 onoff38;
#X obj 2643 -111 onoff39;
#X obj 2643 139 onoff39;
#X obj 2643 759 onoff39;
#X obj 2643 469 onoff39;
#X obj 2863 -114 onoff40;
#X obj 2863 136 onoff40;
#X obj 2863 756 onoff40;
#X obj 2863 466 onoff40;
#X obj 3079 -114 onoff41;
#X obj 3079 136 onoff41;
#X obj 3079 756 onoff41;
#X obj 3079 466 onoff41;
#X obj 3301 -115 onoff42;
#X obj 3301 135 onoff42;
#X obj 3301 755 onoff42;
#X obj 3301 465 onoff42;
#X obj 3475 -116 onoff43;
#X obj 3475 134 onoff43;
#X obj 3475 754 onoff43;
#X obj 3475 464 onoff43;
#X obj 3669 -111 onoff44;
#X obj 3669 139 onoff44;
#X obj 3669 759 onoff44;
#X obj 3669 469 onoff44;
#X obj 3885 -111 onoff45;
#X obj 3885 139 onoff45;
#X obj 3885 759 onoff45;
#X obj 3885 469 onoff45;
#X obj 4109 -111 onoff46;
#X obj 4109 139 onoff46;
#X obj 4109 759 onoff46;
#X obj 4109 469 onoff46;
#X obj 4303 -117 onoff47;
#X obj 4303 133 onoff47;
#X obj 4303 753 onoff47;
#X obj 4303 463 onoff47;
#X obj 1577 -111 onoff34;
#X obj 1577 139 onoff34;
#X obj 1577 759 onoff34;
#X obj 1577 469 onoff34;
#X obj 1164 -111 onoff32;
#X obj 1164 139 onoff32;
#X obj 1164 759 onoff32;
#X obj 1164 449 onoff32;
#X obj 1357 -111 onoff33;
#X obj 1357 139 onoff33;
#X obj 1357 759 onoff33;
#X obj 1357 469 onoff33;
#X obj 1757 -111 onoff35;
#X obj 1757 139 onoff35;
#X obj 1757 759 onoff35;
#X obj 1757 469 onoff35;
#X obj 1967 -111 onoff36;
#X obj 1967 139 onoff36;
#X obj 1967 759 onoff36;
#X obj 1967 469 onoff36;
#X connect 0 0 2 1;
#X connect 1 0 14 0;
#X connect 2 0 6 0;
#X connect 3 0 2 0;
#X connect 3 0 10 0;
#X connect 3 0 19 0;
#X connect 4 0 7 0;
#X connect 5 0 4 0;
#X connect 5 0 12 0;
#X connect 5 0 21 0;
#X connect 6 0 4 1;
#X connect 8 0 10 1;
#X connect 9 0 8 0;
#X connect 10 0 13 0;
#X connect 11 0 253 0;
#X connect 12 0 11 0;
#X connect 13 0 11 1;
#X connect 14 0 1000 0;
#X connect 14 1 1014 0;
#X connect 14 2 1028 0;
#X connect 14 3 1042 0;
#X connect 15 0 16 0;
#X connect 16 0 1002 0;
#X connect 16 1 1016 0;
#X connect 16 2 1030 0;
#X connect 16 3 1044 0;
#X connect 17 0 18 1;
#X connect 18 0 22 0;
#X connect 19 0 18 0;
#X connect 19 0 26 0;
#X connect 19 0 32 0;
#X connect 20 0 23 0;
#X connect 21 0 20 0;
#X connect 21 0 28 0;
#X connect 21 0 34 0;
#X connect 22 0 20 1;
#X connect 24 0 26 1;
#X connect 25 0 24 0;
#X connect 26 0 29 0;
#X connect 27 0 252 0;
#X connect 28 0 27 0;
#X connect 29 0 27 1;
#X connect 30 0 31 1;
#X connect 31 0 35 0;
#X connect 32 0 31 0;
#X connect 32 0 39 0;
#X connect 32 0 45 0;
#X connect 33 0 36 0;
#X connect 34 0 33 0;
#X connect 34 0 41 0;
#X connect 34 0 47 0;
#X connect 35 0 33 1;
#X connect 37 0 39 1;
#X connect 38 0 37 0;
#X connect 39 0 42 0;
#X connect 40 0 251 0;
#X connect 41 0 40 0;
#X connect 42 0 40 1;
#X connect 43 0 44 1;
#X connect 44 0 48 0;
#X connect 45 0 44 0;
#X connect 45 0 52 0;
#X connect 45 0 58 0;
#X connect 46 0 49 0;
#X connect 47 0 46 0;
#X connect 47 0 54 0;
#X connect 47 0 60 0;
#X connect 48 0 46 1;
#X connect 50 0 52 1;
#X connect 51 0 50 0;
#X connect 52 0 55 0;
#X connect 53 0 250 0;
#X connect 54 0 53 0;
#X connect 55 0 53 1;
#X connect 56 0 57 1;
#X connect 57 0 61 0;
#X connect 58 0 57 0;
#X connect 58 0 65 0;
#X connect 58 0 71 0;
#X connect 59 0 62 0;
#X connect 60 0 59 0;
#X connect 60 0 67 0;
#X connect 60 0 73 0;
#X connect 61 0 59 1;
#X connect 63 0 65 1;
#X connect 64 0 63 0;
#X connect 65 0 68 0;
#X connect 66 0 249 0;
#X connect 67 0 66 0;
#X connect 68 0 66 1;
#X connect 69 0 70 1;
#X connect 70 0 74 0;
#X connect 71 0 70 0;
#X connect 71 0 78 0;
#X connect 71 0 84 0;
#X connect 72 0 75 0;
#X connect 73 0 72 0;
#X connect 73 0 80 0;
#X connect 73 0 86 0;
#X connect 74 0 72 1;
#X connect 76 0 78 1;
#X connect 77 0 76 0;
#X connect 78 0 81 0;
#X connect 79 0 248 0;
#X connect 80 0 79 0;
#X connect 81 0 79 1;
#X connect 82 0 83 1;
#X connect 83 0 87 0;
#X connect 84 0 83 0;
#X connect 84 0 91 0;
#X connect 84 0 97 0;
#X connect 85 0 88 0;
#X connect 86 0 85 0;
#X connect 86 0 93 0;
#X connect 86 0 99 0;
#X connect 87 0 85 1;
#X connect 89 0 91 1;
#X connect 90 0 89 0;
#X connect 91 0 94 0;
#X connect 92 0 247 0;
#X connect 93 0 92 0;
#X connect 94 0 92 1;
#X connect 95 0 96 1;
#X connect 96 0 100 0;
#X connect 97 0 96 0;
#X connect 97 0 104 0;
#X connect 97 0 110 0;
#X connect 98 0 101 0;
#X connect 99 0 98 0;
#X connect 99 0 106 0;
#X connect 99 0 112 0;
#X connect 100 0 98 1;
#X connect 102 0 104 1;
#X connect 103 0 102 0;
#X connect 104 0 107 0;
#X connect 105 0 246 0;
#X connect 106 0 105 0;
#X connect 107 0 105 1;
#X connect 108 0 109 1;
#X connect 109 0 113 0;
#X connect 110 0 109 0;
#X connect 110 0 117 0;
#X connect 110 0 123 0;
#X connect 111 0 114 0;
#X connect 112 0 111 0;
#X connect 112 0 119 0;
#X connect 112 0 125 0;
#X connect 113 0 111 1;
#X connect 115 0 117 1;
#X connect 116 0 115 0;
#X connect 117 0 120 0;
#X connect 118 0 245 0;
#X connect 119 0 118 0;
#X connect 120 0 118 1;
#X connect 121 0 122 1;
#X connect 122 0 126 0;
#X connect 123 0 122 0;
#X connect 123 0 130 0;
#X connect 123 0 136 0;
#X connect 124 0 127 0;
#X connect 125 0 124 0;
#X connect 125 0 132 0;
#X connect 125 0 138 0;
#X connect 126 0 124 1;
#X connect 128 0 130 1;
#X connect 129 0 128 0;
#X connect 130 0 133 0;
#X connect 131 0 244 0;
#X connect 132 0 131 0;
#X connect 133 0 131 1;
#X connect 134 0 148 1;
#X connect 135 0 139 0;
#X connect 136 0 135 0;
#X connect 136 0 143 0;
#X connect 136 0 149 0;
#X connect 137 0 140 0;
#X connect 138 0 137 0;
#X connect 138 0 145 0;
#X connect 138 0 151 0;
#X connect 139 0 137 1;
#X connect 141 0 143 1;
#X connect 142 0 141 0;
#X connect 143 0 146 0;
#X connect 144 0 243 0;
#X connect 145 0 144 0;
#X connect 146 0 144 1;
#X connect 147 0 161 1;
#X connect 148 0 152 0;
#X connect 149 0 148 0;
#X connect 149 0 156 0;
#X connect 149 0 162 0;
#X connect 150 0 153 0;
#X connect 151 0 150 0;
#X connect 151 0 158 0;
#X connect 151 0 164 0;
#X connect 152 0 150 1;
#X connect 154 0 156 1;
#X connect 155 0 154 0;
#X connect 156 0 159 0;
#X connect 157 0 242 0;
#X connect 158 0 157 0;
#X connect 159 0 157 1;
#X connect 160 0 173 1;
#X connect 161 0 165 0;
#X connect 162 0 161 0;
#X connect 162 0 169 0;
#X connect 162 0 174 0;
#X connect 163 0 166 0;
#X connect 164 0 163 0;
#X connect 164 0 171 0;
#X connect 164 0 176 0;
#X connect 165 0 163 1;
#X connect 167 0 169 1;
#X connect 168 0 167 0;
#X connect 169 0 172 0;
#X connect 170 0 241 0;
#X connect 171 0 170 0;
#X connect 172 0 170 1;
#X connect 173 0 177 0;
#X connect 174 0 173 0;
#X connect 174 0 181 0;
#X connect 174 0 187 0;
#X connect 175 0 178 0;
#X connect 176 0 175 0;
#X connect 176 0 183 0;
#X connect 176 0 189 0;
#X connect 177 0 175 1;
#X connect 179 0 181 1;
#X connect 180 0 179 0;
#X connect 181 0 184 0;
#X connect 182 0 240 0;
#X connect 183 0 182 0;
#X connect 184 0 182 1;
#X connect 185 0 186 1;
#X connect 186 0 190 0;
#X connect 187 0 186 0;
#X connect 187 0 194 0;
#X connect 187 0 200 0;
#X connect 188 0 191 0;
#X connect 189 0 188 0;
#X connect 189 0 196 0;
#X connect 189 0 202 0;
#X connect 190 0 188 1;
#X connect 192 0 194 1;
#X connect 193 0 192 0;
#X connect 194 0 197 0;
#X connect 195 0 239 0;
#X connect 196 0 195 0;
#X connect 197 0 195 1;
#X connect 198 0 199 1;
#X connect 199 0 203 0;
#X connect 200 0 199 0;
#X connect 200 0 207 0;
#X connect 201 0 204 0;
#X connect 202 0 201 0;
#X connect 202 0 209 0;
#X connect 203 0 201 1;
#X connect 205 0 207 1;
#X connect 206 0 205 0;
#X connect 207 0 210 0;
#X connect 208 0 238 0;
#X connect 209 0 208 0;
#X connect 210 0 208 1;
#X connect 211 0 135 1;
#X connect 212 0 213 1;
#X connect 213 0 217 0;
#X connect 214 0 213 0;
#X connect 214 0 3 0;
#X connect 215 0 218 0;
#X connect 216 0 215 0;
#X connect 216 0 5 0;
#X connect 217 0 215 1;
#X connect 219 0 1 0;
#X connect 220 0 15 0;
#X connect 221 0 238 0;
#X connect 221 0 239 0;
#X connect 221 0 240 0;
#X connect 221 0 241 0;
#X connect 221 0 242 0;
#X connect 221 0 243 0;
#X connect 221 0 244 0;
#X connect 221 0 245 0;
#X connect 221 0 246 0;
#X connect 221 0 247 0;
#X connect 221 0 248 0;
#X connect 221 0 249 0;
#X connect 221 0 250 0;
#X connect 221 0 251 0;
#X connect 221 0 252 0;
#X connect 221 0 253 0;
#X connect 222 0 9 0;
#X connect 223 0 25 0;
#X connect 224 0 38 0;
#X connect 225 0 51 0;
#X connect 226 0 64 0;
#X connect 227 0 77 0;
#X connect 228 0 90 0;
#X connect 229 0 103 0;
#X connect 230 0 116 0;
#X connect 231 0 129 0;
#X connect 232 0 142 0;
#X connect 233 0 155 0;
#X connect 234 0 168 0;
#X connect 235 0 180 0;
#X connect 236 0 193 0;
#X connect 237 0 206 0;
#X connect 254 0 255 1;
#X connect 255 0 259 0;
#X connect 256 0 255 0;
#X connect 256 0 263 0;
#X connect 256 0 269 0;
#X connect 257 0 260 0;
#X connect 258 0 257 0;
#X connect 258 0 265 0;
#X connect 258 0 271 0;
#X connect 259 0 257 1;
#X connect 261 0 263 1;
#X connect 262 0 261 0;
#X connect 263 0 266 0;
#X connect 264 0 501 0;
#X connect 265 0 264 0;
#X connect 266 0 264 1;
#X connect 267 0 268 1;
#X connect 268 0 272 0;
#X connect 269 0 268 0;
#X connect 269 0 276 0;
#X connect 269 0 282 0;
#X connect 270 0 273 0;
#X connect 271 0 270 0;
#X connect 271 0 278 0;
#X connect 271 0 284 0;
#X connect 272 0 270 1;
#X connect 274 0 276 1;
#X connect 275 0 274 0;
#X connect 276 0 279 0;
#X connect 277 0 500 0;
#X connect 278 0 277 0;
#X connect 279 0 277 1;
#X connect 280 0 281 1;
#X connect 281 0 285 0;
#X connect 282 0 281 0;
#X connect 282 0 289 0;
#X connect 282 0 295 0;
#X connect 283 0 286 0;
#X connect 284 0 283 0;
#X connect 284 0 291 0;
#X connect 284 0 297 0;
#X connect 285 0 283 1;
#X connect 287 0 289 1;
#X connect 288 0 287 0;
#X connect 289 0 292 0;
#X connect 290 0 499 0;
#X connect 291 0 290 0;
#X connect 292 0 290 1;
#X connect 293 0 294 1;
#X connect 294 0 298 0;
#X connect 295 0 294 0;
#X connect 295 0 302 0;
#X connect 295 0 308 0;
#X connect 296 0 299 0;
#X connect 297 0 296 0;
#X connect 297 0 304 0;
#X connect 297 0 310 0;
#X connect 298 0 296 1;
#X connect 300 0 302 1;
#X connect 301 0 300 0;
#X connect 302 0 305 0;
#X connect 303 0 498 0;
#X connect 304 0 303 0;
#X connect 305 0 303 1;
#X connect 306 0 307 1;
#X connect 307 0 311 0;
#X connect 308 0 307 0;
#X connect 308 0 315 0;
#X connect 308 0 321 0;
#X connect 309 0 312 0;
#X connect 310 0 309 0;
#X connect 310 0 317 0;
#X connect 310 0 323 0;
#X connect 311 0 309 1;
#X connect 313 0 315 1;
#X connect 314 0 313 0;
#X connect 315 0 318 0;
#X connect 316 0 497 0;
#X connect 317 0 316 0;
#X connect 318 0 316 1;
#X connect 319 0 320 1;
#X connect 320 0 324 0;
#X connect 321 0 320 0;
#X connect 321 0 328 0;
#X connect 321 0 334 0;
#X connect 322 0 325 0;
#X connect 323 0 322 0;
#X connect 323 0 330 0;
#X connect 323 0 336 0;
#X connect 324 0 322 1;
#X connect 326 0 328 1;
#X connect 327 0 326 0;
#X connect 328 0 331 0;
#X connect 329 0 496 0;
#X connect 330 0 329 0;
#X connect 331 0 329 1;
#X connect 332 0 333 1;
#X connect 333 0 337 0;
#X connect 334 0 333 0;
#X connect 334 0 341 0;
#X connect 334 0 347 0;
#X connect 335 0 338 0;
#X connect 336 0 335 0;
#X connect 336 0 343 0;
#X connect 336 0 349 0;
#X connect 337 0 335 1;
#X connect 339 0 341 1;
#X connect 340 0 339 0;
#X connect 341 0 344 0;
#X connect 342 0 495 0;
#X connect 343 0 342 0;
#X connect 344 0 342 1;
#X connect 345 0 346 1;
#X connect 346 0 350 0;
#X connect 347 0 346 0;
#X connect 347 0 354 0;
#X connect 347 0 360 0;
#X connect 348 0 351 0;
#X connect 349 0 348 0;
#X connect 349 0 356 0;
#X connect 349 0 362 0;
#X connect 350 0 348 1;
#X connect 352 0 354 1;
#X connect 353 0 352 0;
#X connect 354 0 357 0;
#X connect 355 0 494 0;
#X connect 356 0 355 0;
#X connect 357 0 355 1;
#X connect 358 0 359 1;
#X connect 359 0 363 0;
#X connect 360 0 359 0;
#X connect 360 0 367 0;
#X connect 360 0 373 0;
#X connect 361 0 364 0;
#X connect 362 0 361 0;
#X connect 362 0 369 0;
#X connect 362 0 375 0;
#X connect 363 0 361 1;
#X connect 365 0 367 1;
#X connect 366 0 365 0;
#X connect 367 0 370 0;
#X connect 368 0 493 0;
#X connect 369 0 368 0;
#X connect 370 0 368 1;
#X connect 371 0 372 1;
#X connect 372 0 376 0;
#X connect 373 0 372 0;
#X connect 373 0 380 0;
#X connect 373 0 386 0;
#X connect 374 0 377 0;
#X connect 375 0 374 0;
#X connect 375 0 382 0;
#X connect 375 0 388 0;
#X connect 376 0 374 1;
#X connect 378 0 380 1;
#X connect 379 0 378 0;
#X connect 380 0 383 0;
#X connect 381 0 492 0;
#X connect 382 0 381 0;
#X connect 383 0 381 1;
#X connect 384 0 398 1;
#X connect 385 0 389 0;
#X connect 386 0 385 0;
#X connect 386 0 393 0;
#X connect 386 0 399 0;
#X connect 387 0 390 0;
#X connect 388 0 387 0;
#X connect 388 0 395 0;
#X connect 388 0 401 0;
#X connect 389 0 387 1;
#X connect 391 0 393 1;
#X connect 392 0 391 0;
#X connect 393 0 396 0;
#X connect 394 0 491 0;
#X connect 395 0 394 0;
#X connect 396 0 394 1;
#X connect 397 0 411 1;
#X connect 398 0 402 0;
#X connect 399 0 398 0;
#X connect 399 0 406 0;
#X connect 399 0 412 0;
#X connect 400 0 403 0;
#X connect 401 0 400 0;
#X connect 401 0 408 0;
#X connect 401 0 414 0;
#X connect 402 0 400 1;
#X connect 404 0 406 1;
#X connect 405 0 404 0;
#X connect 406 0 409 0;
#X connect 407 0 490 0;
#X connect 408 0 407 0;
#X connect 409 0 407 1;
#X connect 410 0 423 1;
#X connect 411 0 415 0;
#X connect 412 0 411 0;
#X connect 412 0 419 0;
#X connect 412 0 424 0;
#X connect 413 0 416 0;
#X connect 414 0 413 0;
#X connect 414 0 421 0;
#X connect 414 0 426 0;
#X connect 415 0 413 1;
#X connect 417 0 419 1;
#X connect 418 0 417 0;
#X connect 419 0 422 0;
#X connect 420 0 489 0;
#X connect 421 0 420 0;
#X connect 422 0 420 1;
#X connect 423 0 427 0;
#X connect 424 0 423 0;
#X connect 424 0 431 0;
#X connect 424 0 437 0;
#X connect 425 0 428 0;
#X connect 426 0 425 0;
#X connect 426 0 433 0;
#X connect 426 0 439 0;
#X connect 427 0 425 1;
#X connect 429 0 431 1;
#X connect 430 0 429 0;
#X connect 431 0 434 0;
#X connect 432 0 488 0;
#X connect 433 0 432 0;
#X connect 434 0 432 1;
#X connect 435 0 436 1;
#X connect 436 0 440 0;
#X connect 437 0 436 0;
#X connect 437 0 444 0;
#X connect 437 0 450 0;
#X connect 438 0 441 0;
#X connect 439 0 438 0;
#X connect 439 0 446 0;
#X connect 439 0 452 0;
#X connect 440 0 438 1;
#X connect 442 0 444 1;
#X connect 443 0 442 0;
#X connect 444 0 447 0;
#X connect 445 0 487 0;
#X connect 446 0 445 0;
#X connect 447 0 445 1;
#X connect 448 0 449 1;
#X connect 449 0 453 0;
#X connect 450 0 449 0;
#X connect 450 0 457 0;
#X connect 451 0 454 0;
#X connect 452 0 451 0;
#X connect 452 0 459 0;
#X connect 453 0 451 1;
#X connect 455 0 457 1;
#X connect 456 0 455 0;
#X connect 457 0 460 0;
#X connect 458 0 486 0;
#X connect 459 0 458 0;
#X connect 460 0 458 1;
#X connect 461 0 385 1;
#X connect 462 0 463 1;
#X connect 463 0 467 0;
#X connect 464 0 463 0;
#X connect 464 0 256 0;
#X connect 465 0 468 0;
#X connect 466 0 465 0;
#X connect 466 0 258 0;
#X connect 467 0 465 1;
#X connect 469 0 486 0;
#X connect 469 0 487 0;
#X connect 469 0 488 0;
#X connect 469 0 489 0;
#X connect 469 0 490 0;
#X connect 469 0 491 0;
#X connect 469 0 492 0;
#X connect 469 0 493 0;
#X connect 469 0 494 0;
#X connect 469 0 495 0;
#X connect 469 0 496 0;
#X connect 469 0 497 0;
#X connect 469 0 498 0;
#X connect 469 0 499 0;
#X connect 469 0 500 0;
#X connect 469 0 501 0;
#X connect 470 0 262 0;
#X connect 471 0 275 0;
#X connect 472 0 288 0;
#X connect 473 0 301 0;
#X connect 474 0 314 0;
#X connect 475 0 327 0;
#X connect 476 0 340 0;
#X connect 477 0 353 0;
#X connect 478 0 366 0;
#X connect 479 0 379 0;
#X connect 480 0 392 0;
#X connect 481 0 405 0;
#X connect 482 0 418 0;
#X connect 483 0 430 0;
#X connect 484 0 443 0;
#X connect 485 0 456 0;
#X connect 502 0 503 1;
#X connect 503 0 507 0;
#X connect 504 0 503 0;
#X connect 504 0 511 0;
#X connect 504 0 517 0;
#X connect 505 0 508 0;
#X connect 506 0 505 0;
#X connect 506 0 513 0;
#X connect 506 0 519 0;
#X connect 507 0 505 1;
#X connect 509 0 511 1;
#X connect 510 0 509 0;
#X connect 511 0 514 0;
#X connect 512 0 749 0;
#X connect 513 0 512 0;
#X connect 514 0 512 1;
#X connect 515 0 516 1;
#X connect 516 0 520 0;
#X connect 517 0 516 0;
#X connect 517 0 524 0;
#X connect 517 0 530 0;
#X connect 518 0 521 0;
#X connect 519 0 518 0;
#X connect 519 0 526 0;
#X connect 519 0 532 0;
#X connect 520 0 518 1;
#X connect 522 0 524 1;
#X connect 523 0 522 0;
#X connect 524 0 527 0;
#X connect 525 0 748 0;
#X connect 526 0 525 0;
#X connect 527 0 525 1;
#X connect 528 0 529 1;
#X connect 529 0 533 0;
#X connect 530 0 529 0;
#X connect 530 0 537 0;
#X connect 530 0 543 0;
#X connect 531 0 534 0;
#X connect 532 0 531 0;
#X connect 532 0 539 0;
#X connect 532 0 545 0;
#X connect 533 0 531 1;
#X connect 535 0 537 1;
#X connect 536 0 535 0;
#X connect 537 0 540 0;
#X connect 538 0 747 0;
#X connect 539 0 538 0;
#X connect 540 0 538 1;
#X connect 541 0 542 1;
#X connect 542 0 546 0;
#X connect 543 0 542 0;
#X connect 543 0 550 0;
#X connect 543 0 556 0;
#X connect 544 0 547 0;
#X connect 545 0 544 0;
#X connect 545 0 552 0;
#X connect 545 0 558 0;
#X connect 546 0 544 1;
#X connect 548 0 550 1;
#X connect 549 0 548 0;
#X connect 550 0 553 0;
#X connect 551 0 746 0;
#X connect 552 0 551 0;
#X connect 553 0 551 1;
#X connect 554 0 555 1;
#X connect 555 0 559 0;
#X connect 556 0 555 0;
#X connect 556 0 563 0;
#X connect 556 0 569 0;
#X connect 557 0 560 0;
#X connect 558 0 557 0;
#X connect 558 0 565 0;
#X connect 558 0 571 0;
#X connect 559 0 557 1;
#X connect 561 0 563 1;
#X connect 562 0 561 0;
#X connect 563 0 566 0;
#X connect 564 0 745 0;
#X connect 565 0 564 0;
#X connect 566 0 564 1;
#X connect 567 0 568 1;
#X connect 568 0 572 0;
#X connect 569 0 568 0;
#X connect 569 0 576 0;
#X connect 569 0 582 0;
#X connect 570 0 573 0;
#X connect 571 0 570 0;
#X connect 571 0 578 0;
#X connect 571 0 584 0;
#X connect 572 0 570 1;
#X connect 574 0 576 1;
#X connect 575 0 574 0;
#X connect 576 0 579 0;
#X connect 577 0 744 0;
#X connect 578 0 577 0;
#X connect 579 0 577 1;
#X connect 580 0 581 1;
#X connect 581 0 585 0;
#X connect 582 0 581 0;
#X connect 582 0 589 0;
#X connect 582 0 595 0;
#X connect 583 0 586 0;
#X connect 584 0 583 0;
#X connect 584 0 591 0;
#X connect 584 0 597 0;
#X connect 585 0 583 1;
#X connect 587 0 589 1;
#X connect 588 0 587 0;
#X connect 589 0 592 0;
#X connect 590 0 743 0;
#X connect 591 0 590 0;
#X connect 592 0 590 1;
#X connect 593 0 594 1;
#X connect 594 0 598 0;
#X connect 595 0 594 0;
#X connect 595 0 602 0;
#X connect 595 0 608 0;
#X connect 596 0 599 0;
#X connect 597 0 596 0;
#X connect 597 0 604 0;
#X connect 597 0 610 0;
#X connect 598 0 596 1;
#X connect 600 0 602 1;
#X connect 601 0 600 0;
#X connect 602 0 605 0;
#X connect 603 0 742 0;
#X connect 604 0 603 0;
#X connect 605 0 603 1;
#X connect 606 0 607 1;
#X connect 607 0 611 0;
#X connect 608 0 607 0;
#X connect 608 0 615 0;
#X connect 608 0 621 0;
#X connect 609 0 612 0;
#X connect 610 0 609 0;
#X connect 610 0 617 0;
#X connect 610 0 623 0;
#X connect 611 0 609 1;
#X connect 613 0 615 1;
#X connect 614 0 613 0;
#X connect 615 0 618 0;
#X connect 616 0 741 0;
#X connect 617 0 616 0;
#X connect 618 0 616 1;
#X connect 619 0 620 1;
#X connect 620 0 624 0;
#X connect 621 0 620 0;
#X connect 621 0 628 0;
#X connect 621 0 634 0;
#X connect 622 0 625 0;
#X connect 623 0 622 0;
#X connect 623 0 630 0;
#X connect 623 0 636 0;
#X connect 624 0 622 1;
#X connect 626 0 628 1;
#X connect 627 0 626 0;
#X connect 628 0 631 0;
#X connect 629 0 740 0;
#X connect 630 0 629 0;
#X connect 631 0 629 1;
#X connect 632 0 646 1;
#X connect 633 0 637 0;
#X connect 634 0 633 0;
#X connect 634 0 641 0;
#X connect 634 0 647 0;
#X connect 635 0 638 0;
#X connect 636 0 635 0;
#X connect 636 0 643 0;
#X connect 636 0 649 0;
#X connect 637 0 635 1;
#X connect 639 0 641 1;
#X connect 640 0 639 0;
#X connect 641 0 644 0;
#X connect 642 0 739 0;
#X connect 643 0 642 0;
#X connect 644 0 642 1;
#X connect 645 0 659 1;
#X connect 646 0 650 0;
#X connect 647 0 646 0;
#X connect 647 0 654 0;
#X connect 647 0 660 0;
#X connect 648 0 651 0;
#X connect 649 0 648 0;
#X connect 649 0 656 0;
#X connect 649 0 662 0;
#X connect 650 0 648 1;
#X connect 652 0 654 1;
#X connect 653 0 652 0;
#X connect 654 0 657 0;
#X connect 655 0 738 0;
#X connect 656 0 655 0;
#X connect 657 0 655 1;
#X connect 658 0 671 1;
#X connect 659 0 663 0;
#X connect 660 0 659 0;
#X connect 660 0 667 0;
#X connect 660 0 672 0;
#X connect 661 0 664 0;
#X connect 662 0 661 0;
#X connect 662 0 669 0;
#X connect 662 0 674 0;
#X connect 663 0 661 1;
#X connect 665 0 667 1;
#X connect 666 0 665 0;
#X connect 667 0 670 0;
#X connect 668 0 737 0;
#X connect 669 0 668 0;
#X connect 670 0 668 1;
#X connect 671 0 675 0;
#X connect 672 0 671 0;
#X connect 672 0 679 0;
#X connect 672 0 685 0;
#X connect 673 0 676 0;
#X connect 674 0 673 0;
#X connect 674 0 681 0;
#X connect 674 0 687 0;
#X connect 675 0 673 1;
#X connect 677 0 679 1;
#X connect 678 0 677 0;
#X connect 679 0 682 0;
#X connect 680 0 736 0;
#X connect 681 0 680 0;
#X connect 682 0 680 1;
#X connect 683 0 684 1;
#X connect 684 0 688 0;
#X connect 685 0 684 0;
#X connect 685 0 692 0;
#X connect 685 0 698 0;
#X connect 686 0 689 0;
#X connect 687 0 686 0;
#X connect 687 0 694 0;
#X connect 687 0 700 0;
#X connect 688 0 686 1;
#X connect 690 0 692 1;
#X connect 691 0 690 0;
#X connect 692 0 695 0;
#X connect 693 0 735 0;
#X connect 694 0 693 0;
#X connect 695 0 693 1;
#X connect 696 0 697 1;
#X connect 697 0 701 0;
#X connect 698 0 697 0;
#X connect 698 0 705 0;
#X connect 699 0 702 0;
#X connect 700 0 699 0;
#X connect 700 0 707 0;
#X connect 701 0 699 1;
#X connect 703 0 705 1;
#X connect 704 0 703 0;
#X connect 705 0 708 0;
#X connect 706 0 734 0;
#X connect 707 0 706 0;
#X connect 708 0 706 1;
#X connect 709 0 633 1;
#X connect 710 0 711 1;
#X connect 711 0 715 0;
#X connect 712 0 711 0;
#X connect 712 0 504 0;
#X connect 713 0 716 0;
#X connect 714 0 713 0;
#X connect 714 0 506 0;
#X connect 715 0 713 1;
#X connect 717 0 734 0;
#X connect 717 0 735 0;
#X connect 717 0 736 0;
#X connect 717 0 737 0;
#X connect 717 0 738 0;
#X connect 717 0 739 0;
#X connect 717 0 740 0;
#X connect 717 0 741 0;
#X connect 717 0 742 0;
#X connect 717 0 743 0;
#X connect 717 0 744 0;
#X connect 717 0 745 0;
#X connect 717 0 746 0;
#X connect 717 0 747 0;
#X connect 717 0 748 0;
#X connect 717 0 749 0;
#X connect 718 0 510 0;
#X connect 719 0 523 0;
#X connect 720 0 536 0;
#X connect 721 0 549 0;
#X connect 722 0 562 0;
#X connect 723 0 575 0;
#X connect 724 0 588 0;
#X connect 725 0 601 0;
#X connect 726 0 614 0;
#X connect 727 0 627 0;
#X connect 728 0 640 0;
#X connect 729 0 653 0;
#X connect 730 0 666 0;
#X connect 731 0 678 0;
#X connect 732 0 691 0;
#X connect 733 0 704 0;
#X connect 750 0 751 1;
#X connect 751 0 755 0;
#X connect 752 0 751 0;
#X connect 752 0 759 0;
#X connect 752 0 765 0;
#X connect 753 0 756 0;
#X connect 754 0 753 0;
#X connect 754 0 761 0;
#X connect 754 0 767 0;
#X connect 755 0 753 1;
#X connect 757 0 759 1;
#X connect 758 0 757 0;
#X connect 759 0 762 0;
#X connect 760 0 997 0;
#X connect 761 0 760 0;
#X connect 762 0 760 1;
#X connect 763 0 764 1;
#X connect 764 0 768 0;
#X connect 765 0 764 0;
#X connect 765 0 772 0;
#X connect 765 0 778 0;
#X connect 766 0 769 0;
#X connect 767 0 766 0;
#X connect 767 0 774 0;
#X connect 767 0 780 0;
#X connect 768 0 766 1;
#X connect 770 0 772 1;
#X connect 771 0 770 0;
#X connect 772 0 775 0;
#X connect 773 0 996 0;
#X connect 774 0 773 0;
#X connect 775 0 773 1;
#X connect 776 0 777 1;
#X connect 777 0 781 0;
#X connect 778 0 777 0;
#X connect 778 0 785 0;
#X connect 778 0 791 0;
#X connect 779 0 782 0;
#X connect 780 0 779 0;
#X connect 780 0 787 0;
#X connect 780 0 793 0;
#X connect 781 0 779 1;
#X connect 783 0 785 1;
#X connect 784 0 783 0;
#X connect 785 0 788 0;
#X connect 786 0 995 0;
#X connect 787 0 786 0;
#X connect 788 0 786 1;
#X connect 789 0 790 1;
#X connect 790 0 794 0;
#X connect 791 0 790 0;
#X connect 791 0 798 0;
#X connect 791 0 804 0;
#X connect 792 0 795 0;
#X connect 793 0 792 0;
#X connect 793 0 800 0;
#X connect 793 0 806 0;
#X connect 794 0 792 1;
#X connect 796 0 798 1;
#X connect 797 0 796 0;
#X connect 798 0 801 0;
#X connect 799 0 994 0;
#X connect 800 0 799 0;
#X connect 801 0 799 1;
#X connect 802 0 803 1;
#X connect 803 0 807 0;
#X connect 804 0 803 0;
#X connect 804 0 811 0;
#X connect 804 0 817 0;
#X connect 805 0 808 0;
#X connect 806 0 805 0;
#X connect 806 0 813 0;
#X connect 806 0 819 0;
#X connect 807 0 805 1;
#X connect 809 0 811 1;
#X connect 810 0 809 0;
#X connect 811 0 814 0;
#X connect 812 0 993 0;
#X connect 813 0 812 0;
#X connect 814 0 812 1;
#X connect 815 0 816 1;
#X connect 816 0 820 0;
#X connect 817 0 816 0;
#X connect 817 0 824 0;
#X connect 817 0 830 0;
#X connect 818 0 821 0;
#X connect 819 0 818 0;
#X connect 819 0 826 0;
#X connect 819 0 832 0;
#X connect 820 0 818 1;
#X connect 822 0 824 1;
#X connect 823 0 822 0;
#X connect 824 0 827 0;
#X connect 825 0 992 0;
#X connect 826 0 825 0;
#X connect 827 0 825 1;
#X connect 828 0 829 1;
#X connect 829 0 833 0;
#X connect 830 0 829 0;
#X connect 830 0 837 0;
#X connect 830 0 843 0;
#X connect 831 0 834 0;
#X connect 832 0 831 0;
#X connect 832 0 839 0;
#X connect 832 0 845 0;
#X connect 833 0 831 1;
#X connect 835 0 837 1;
#X connect 836 0 835 0;
#X connect 837 0 840 0;
#X connect 838 0 991 0;
#X connect 839 0 838 0;
#X connect 840 0 838 1;
#X connect 841 0 842 1;
#X connect 842 0 846 0;
#X connect 843 0 842 0;
#X connect 843 0 850 0;
#X connect 843 0 856 0;
#X connect 844 0 847 0;
#X connect 845 0 844 0;
#X connect 845 0 852 0;
#X connect 845 0 858 0;
#X connect 846 0 844 1;
#X connect 848 0 850 1;
#X connect 849 0 848 0;
#X connect 850 0 853 0;
#X connect 851 0 990 0;
#X connect 852 0 851 0;
#X connect 853 0 851 1;
#X connect 854 0 855 1;
#X connect 855 0 859 0;
#X connect 856 0 855 0;
#X connect 856 0 863 0;
#X connect 856 0 869 0;
#X connect 857 0 860 0;
#X connect 858 0 857 0;
#X connect 858 0 865 0;
#X connect 858 0 871 0;
#X connect 859 0 857 1;
#X connect 861 0 863 1;
#X connect 862 0 861 0;
#X connect 863 0 866 0;
#X connect 864 0 989 0;
#X connect 865 0 864 0;
#X connect 866 0 864 1;
#X connect 867 0 868 1;
#X connect 868 0 872 0;
#X connect 869 0 868 0;
#X connect 869 0 876 0;
#X connect 869 0 882 0;
#X connect 870 0 873 0;
#X connect 871 0 870 0;
#X connect 871 0 878 0;
#X connect 871 0 884 0;
#X connect 872 0 870 1;
#X connect 874 0 876 1;
#X connect 875 0 874 0;
#X connect 876 0 879 0;
#X connect 877 0 988 0;
#X connect 878 0 877 0;
#X connect 879 0 877 1;
#X connect 880 0 894 1;
#X connect 881 0 885 0;
#X connect 882 0 881 0;
#X connect 882 0 889 0;
#X connect 882 0 895 0;
#X connect 883 0 886 0;
#X connect 884 0 883 0;
#X connect 884 0 891 0;
#X connect 884 0 897 0;
#X connect 885 0 883 1;
#X connect 887 0 889 1;
#X connect 888 0 887 0;
#X connect 889 0 892 0;
#X connect 890 0 987 0;
#X connect 891 0 890 0;
#X connect 892 0 890 1;
#X connect 893 0 907 1;
#X connect 894 0 898 0;
#X connect 895 0 894 0;
#X connect 895 0 902 0;
#X connect 895 0 908 0;
#X connect 896 0 899 0;
#X connect 897 0 896 0;
#X connect 897 0 904 0;
#X connect 897 0 910 0;
#X connect 898 0 896 1;
#X connect 900 0 902 1;
#X connect 901 0 900 0;
#X connect 902 0 905 0;
#X connect 903 0 986 0;
#X connect 904 0 903 0;
#X connect 905 0 903 1;
#X connect 906 0 919 1;
#X connect 907 0 911 0;
#X connect 908 0 907 0;
#X connect 908 0 915 0;
#X connect 908 0 920 0;
#X connect 909 0 912 0;
#X connect 910 0 909 0;
#X connect 910 0 917 0;
#X connect 910 0 922 0;
#X connect 911 0 909 1;
#X connect 913 0 915 1;
#X connect 914 0 913 0;
#X connect 915 0 918 0;
#X connect 916 0 985 0;
#X connect 917 0 916 0;
#X connect 918 0 916 1;
#X connect 919 0 923 0;
#X connect 920 0 919 0;
#X connect 920 0 927 0;
#X connect 920 0 933 0;
#X connect 921 0 924 0;
#X connect 922 0 921 0;
#X connect 922 0 929 0;
#X connect 922 0 935 0;
#X connect 923 0 921 1;
#X connect 925 0 927 1;
#X connect 926 0 925 0;
#X connect 927 0 930 0;
#X connect 928 0 984 0;
#X connect 929 0 928 0;
#X connect 930 0 928 1;
#X connect 931 0 932 1;
#X connect 932 0 936 0;
#X connect 933 0 932 0;
#X connect 933 0 940 0;
#X connect 933 0 946 0;
#X connect 934 0 937 0;
#X connect 935 0 934 0;
#X connect 935 0 942 0;
#X connect 935 0 948 0;
#X connect 936 0 934 1;
#X connect 938 0 940 1;
#X connect 939 0 938 0;
#X connect 940 0 943 0;
#X connect 941 0 983 0;
#X connect 942 0 941 0;
#X connect 943 0 941 1;
#X connect 944 0 945 1;
#X connect 945 0 949 0;
#X connect 946 0 945 0;
#X connect 946 0 953 0;
#X connect 947 0 950 0;
#X connect 948 0 947 0;
#X connect 948 0 955 0;
#X connect 949 0 947 1;
#X connect 951 0 953 1;
#X connect 952 0 951 0;
#X connect 953 0 956 0;
#X connect 954 0 982 0;
#X connect 955 0 954 0;
#X connect 956 0 954 1;
#X connect 957 0 881 1;
#X connect 958 0 959 1;
#X connect 959 0 963 0;
#X connect 960 0 959 0;
#X connect 960 0 752 0;
#X connect 961 0 964 0;
#X connect 962 0 961 0;
#X connect 962 0 754 0;
#X connect 963 0 961 1;
#X connect 965 0 982 0;
#X connect 965 0 983 0;
#X connect 965 0 984 0;
#X connect 965 0 985 0;
#X connect 965 0 986 0;
#X connect 965 0 987 0;
#X connect 965 0 988 0;
#X connect 965 0 989 0;
#X connect 965 0 990 0;
#X connect 965 0 991 0;
#X connect 965 0 992 0;
#X connect 965 0 993 0;
#X connect 965 0 994 0;
#X connect 965 0 995 0;
#X connect 965 0 996 0;
#X connect 965 0 997 0;
#X connect 966 0 758 0;
#X connect 967 0 771 0;
#X connect 968 0 784 0;
#X connect 969 0 797 0;
#X connect 970 0 810 0;
#X connect 971 0 823 0;
#X connect 972 0 836 0;
#X connect 973 0 849 0;
#X connect 974 0 862 0;
#X connect 975 0 875 0;
#X connect 976 0 888 0;
#X connect 977 0 901 0;
#X connect 978 0 914 0;
#X connect 979 0 926 0;
#X connect 980 0 939 0;
#X connect 981 0 952 0;
#X connect 998 0 999 1;
#X connect 999 0 1003 0;
#X connect 1000 0 999 0;
#X connect 1000 0 1007 0;
#X connect 1000 0 1056 0;
#X connect 1001 0 1004 0;
#X connect 1002 0 1001 0;
#X connect 1002 0 1008 0;
#X connect 1002 0 1058 0;
#X connect 1003 0 1001 1;
#X connect 1005 0 1007 1;
#X connect 1006 0 1005 0;
#X connect 1007 0 1009 0;
#X connect 1008 0 1010 0;
#X connect 1009 0 1008 1;
#X connect 1011 0 1006 0;
#X connect 1012 0 1013 1;
#X connect 1013 0 1017 0;
#X connect 1014 0 1013 0;
#X connect 1014 0 1021 0;
#X connect 1014 0 1063 0;
#X connect 1015 0 1018 0;
#X connect 1016 0 1015 0;
#X connect 1016 0 1022 0;
#X connect 1016 0 1065 0;
#X connect 1017 0 1015 1;
#X connect 1019 0 1021 1;
#X connect 1020 0 1019 0;
#X connect 1021 0 1023 0;
#X connect 1022 0 1024 0;
#X connect 1023 0 1022 1;
#X connect 1025 0 1020 0;
#X connect 1026 0 1027 1;
#X connect 1027 0 1031 0;
#X connect 1028 0 1027 0;
#X connect 1028 0 1035 0;
#X connect 1028 0 1070 0;
#X connect 1029 0 1032 0;
#X connect 1030 0 1029 0;
#X connect 1030 0 1036 0;
#X connect 1030 0 1072 0;
#X connect 1031 0 1029 1;
#X connect 1033 0 1035 1;
#X connect 1034 0 1033 0;
#X connect 1035 0 1037 0;
#X connect 1036 0 1038 0;
#X connect 1037 0 1036 1;
#X connect 1039 0 1034 0;
#X connect 1040 0 1041 1;
#X connect 1041 0 1045 0;
#X connect 1042 0 1041 0;
#X connect 1042 0 1049 0;
#X connect 1042 0 1077 0;
#X connect 1043 0 1046 0;
#X connect 1044 0 1043 0;
#X connect 1044 0 1050 0;
#X connect 1044 0 1079 0;
#X connect 1045 0 1043 1;
#X connect 1047 0 1049 1;
#X connect 1048 0 1047 0;
#X connect 1049 0 1051 0;
#X connect 1050 0 1052 0;
#X connect 1051 0 1050 1;
#X connect 1053 0 1048 0;
#X connect 1054 0 1055 1;
#X connect 1055 0 1059 0;
#X connect 1056 0 1055 0;
#X connect 1056 0 214 0;
#X connect 1057 0 1060 0;
#X connect 1058 0 1057 0;
#X connect 1058 0 216 0;
#X connect 1059 0 1057 1;
#X connect 1061 0 1062 1;
#X connect 1062 0 1066 0;
#X connect 1063 0 1062 0;
#X connect 1063 0 464 0;
#X connect 1064 0 1067 0;
#X connect 1065 0 1064 0;
#X connect 1065 0 466 0;
#X connect 1066 0 1064 1;
#X connect 1068 0 1069 1;
#X connect 1069 0 1073 0;
#X connect 1070 0 1069 0;
#X connect 1070 0 960 0;
#X connect 1071 0 1074 0;
#X connect 1072 0 1071 0;
#X connect 1072 0 962 0;
#X connect 1073 0 1071 1;
#X connect 1075 0 1076 1;
#X connect 1076 0 1080 0;
#X connect 1077 0 1076 0;
#X connect 1077 0 712 0;
#X connect 1078 0 1081 0;
#X connect 1079 0 1078 0;
#X connect 1079 0 714 0;
#X connect 1080 0 1078 1;
#X connect 1082 0 77 0;
#X connect 1083 0 327 0;
#X connect 1084 0 575 0;
#X connect 1085 0 823 0;
#X connect 1086 0 90 0;
#X connect 1087 0 340 0;
#X connect 1088 0 588 0;
#X connect 1089 0 836 0;
#X connect 1090 0 103 0;
#X connect 1091 0 353 0;
#X connect 1092 0 601 0;
#X connect 1093 0 849 0;
#X connect 1094 0 116 0;
#X connect 1095 0 366 0;
#X connect 1096 0 614 0;
#X connect 1097 0 862 0;
#X connect 1098 0 129 0;
#X connect 1099 0 379 0;
#X connect 1100 0 627 0;
#X connect 1101 0 875 0;
#X connect 1102 0 142 0;
#X connect 1103 0 392 0;
#X connect 1104 0 640 0;
#X connect 1105 0 888 0;
#X connect 1106 0 155 0;
#X connect 1107 0 405 0;
#X connect 1108 0 653 0;
#X connect 1109 0 901 0;
#X connect 1110 0 168 0;
#X connect 1111 0 418 0;
#X connect 1112 0 666 0;
#X connect 1113 0 914 0;
#X connect 1114 0 180 0;
#X connect 1115 0 430 0;
#X connect 1116 0 678 0;
#X connect 1117 0 926 0;
#X connect 1118 0 193 0;
#X connect 1119 0 443 0;
#X connect 1120 0 691 0;
#X connect 1121 0 939 0;
#X connect 1122 0 206 0;
#X connect 1123 0 456 0;
#X connect 1124 0 704 0;
#X connect 1125 0 952 0;
#X connect 1126 0 38 0;
#X connect 1127 0 288 0;
#X connect 1128 0 536 0;
#X connect 1129 0 784 0;
#X connect 1130 0 9 0;
#X connect 1131 0 262 0;
#X connect 1132 0 510 0;
#X connect 1133 0 758 0;
#X connect 1134 0 25 0;
#X connect 1135 0 275 0;
#X connect 1136 0 523 0;
#X connect 1137 0 771 0;
#X connect 1138 0 51 0;
#X connect 1139 0 301 0;
#X connect 1140 0 549 0;
#X connect 1141 0 797 0;
#X connect 1142 0 64 0;
#X connect 1143 0 314 0;
#X connect 1144 0 562 0;
#X connect 1145 0 810 0;
#X coords 0 -1 1 1 150 19 2 100 100;
