#N canvas 189 97 1280 867 10;
#X obj 102 102 hradio 15 1 0 4 empty empty empty -50 7 0 10 -262144
-1 -1 1;
#X obj 216 75 sel 0 1 2;
#X obj 181 102 hradio 15 1 0 4 empty empty empty -26 7 0 10 -262144
-1 -1 0;
#X obj 218 145 sel 0 1 2;
#X floatatom 963 27 5 0 0 0 receive_+_progr_B +_progr_B -, f 5;
#X obj 957 79 f;
#X obj 924 58 bng 15 250 50 0 empty empty write -35 7 0 10 -262144
-1 -1;
#X obj 940 148 f;
#X obj 929 126 bng 15 250 50 0 empty empty send -30 7 0 10 -262144
-1 -1;
#X floatatom 958 107 5 0 0 0 - - -, f 5;
#X floatatom 942 174 5 0 0 0 send_+_progr_B - send_+_progr_B, f 5
;
#X floatatom 1109 27 5 0 0 0 receive_+stepB +stepB -, f 5;
#X obj 1103 79 f;
#X obj 1080 58 bng 15 250 50 0 empty empty write -35 7 0 10 -262144
-1 -1;
#X obj 1086 148 f;
#X obj 1085 126 bng 15 250 50 0 empty empty send -30 7 0 10 -262144
-1 -1;
#X floatatom 1104 107 5 0 0 0 - - -, f 5;
#X floatatom 1088 174 5 0 0 0 send_+stepB - send_+stepB, f 5;
#X floatatom 1253 27 5 0 0 0 receive_+1B +1B -, f 5;
#X obj 1247 79 f;
#X obj 1224 58 bng 15 250 50 0 empty empty write -35 7 0 10 -262144
-1 -1;
#X obj 1230 148 f;
#X obj 1229 126 bng 15 250 50 0 empty empty send -30 7 0 10 -262144
-1 -1;
#X floatatom 1248 107 5 0 0 0 - - -, f 5;
#X floatatom 1232 174 5 0 0 0 send_+1B - send_+1B, f 5;
#X floatatom 1393 27 5 0 0 0 receive_+2B +2B -, f 5;
#X obj 1387 79 f;
#X obj 1364 58 bng 15 250 50 0 empty empty write -35 7 0 10 -262144
-1 -1;
#X obj 1370 148 f;
#X obj 1369 126 bng 15 250 50 0 empty empty send -30 7 0 10 -262144
-1 -1;
#X floatatom 1388 107 5 0 0 0 - - -, f 5;
#X floatatom 1372 174 5 0 0 0 send_+2B - send_+2B, f 5;
#X floatatom 1533 27 5 0 0 0 receive_+3B +3B -, f 5;
#X obj 1527 79 f;
#X obj 1504 58 bng 15 250 50 0 empty empty write -35 7 0 10 -262144
-1 -1;
#X obj 1510 148 f;
#X obj 1509 126 bng 15 250 50 0 empty empty send -30 7 0 10 -262144
-1 -1;
#X floatatom 1528 107 5 0 0 0 - - -, f 5;
#X floatatom 1512 174 5 0 0 0 send_+3B - send_+3B, f 5;
#X floatatom 1913 27 5 0 0 0 receive_+6B +6B -, f 5;
#X obj 1907 79 f;
#X obj 1884 58 bng 15 250 50 0 empty empty write -35 7 0 10 -262144
-1 -1;
#X obj 1890 148 f;
#X obj 1889 126 bng 15 250 50 0 empty empty send -30 7 0 10 -262144
-1 -1;
#X floatatom 1908 107 5 0 0 0 - - -, f 5;
#X floatatom 1892 174 5 0 0 0 send_+6B - send_+6B, f 5;
#X floatatom 2043 27 5 0 0 0 receive_+7B +7B -, f 5;
#X obj 2037 79 f;
#X obj 2014 58 bng 15 250 50 0 empty empty write -35 7 0 10 -262144
-1 -1;
#X obj 2020 148 f;
#X obj 2019 126 bng 15 250 50 0 empty empty send -30 7 0 10 -262144
-1 -1;
#X floatatom 2038 107 5 0 0 0 - - -, f 5;
#X floatatom 2022 174 5 0 0 0 send_+7B - send_+7B, f 5;
#X floatatom 2183 27 5 0 0 0 receive_+8B +8B -, f 5;
#X obj 2177 79 f;
#X obj 2154 58 bng 15 250 50 0 empty empty write -35 7 0 10 -262144
-1 -1;
#X obj 2160 148 f;
#X obj 2159 126 bng 15 250 50 0 empty empty send -30 7 0 10 -262144
-1 -1;
#X floatatom 2178 107 5 0 0 0 - - -, f 5;
#X floatatom 2162 174 5 0 0 0 send_+8B - send_+8B, f 5;
#X floatatom 2324 27 5 0 0 0 receive_+9B +9B -, f 5;
#X obj 2318 79 f;
#X obj 2295 58 bng 15 250 50 0 empty empty write -35 7 0 10 -262144
-1 -1;
#X obj 2301 148 f;
#X obj 2300 126 bng 15 250 50 0 empty empty send -30 7 0 10 -262144
-1 -1;
#X floatatom 2319 107 5 0 0 0 - - -, f 5;
#X floatatom 2303 174 5 0 0 0 send_+9B - send_+9B, f 5;
#X floatatom 2464 27 5 0 0 0 receive_+10B +10B -, f 5;
#X obj 2458 79 f;
#X obj 2435 58 bng 15 250 50 0 empty empty write -35 7 0 10 -262144
-1 -1;
#X obj 2441 148 f;
#X obj 2440 126 bng 15 250 50 0 empty empty send -30 7 0 10 -262144
-1 -1;
#X floatatom 2459 107 5 0 0 0 - - -, f 5;
#X floatatom 2443 174 5 0 0 0 send_+10B - send_+10B, f 5;
#X floatatom 2594 27 5 0 0 0 receive_+11B +11B -, f 5;
#X obj 2588 79 f;
#X obj 2565 58 bng 15 250 50 0 empty empty write -35 7 0 10 -262144
-1 -1;
#X obj 2571 148 f;
#X obj 2570 126 bng 15 250 50 0 empty empty send -30 7 0 10 -262144
-1 -1;
#X floatatom 2589 107 5 0 0 0 - - -, f 5;
#X floatatom 2573 174 5 0 0 0 send_+11B - send_+11B, f 5;
#X floatatom 2734 27 5 0 0 0 receive_+12B +12B -, f 5;
#X obj 2728 79 f;
#X obj 2705 58 bng 15 250 50 0 empty empty write -35 7 0 10 -262144
-1 -1;
#X obj 2711 148 f;
#X obj 2710 126 bng 15 250 50 0 empty empty send -30 7 0 10 -262144
-1 -1;
#X floatatom 2729 107 5 0 0 0 - - -, f 5;
#X floatatom 2713 174 5 0 0 0 send_+12B - send_+12B, f 5;
#X floatatom 2874 27 5 0 0 0 receive_+13B +13B -, f 5;
#X obj 2868 79 f;
#X obj 2845 58 bng 15 250 50 0 empty empty write -35 7 0 10 -262144
-1 -1;
#X obj 2851 148 f;
#X obj 2850 126 bng 15 250 50 0 empty empty send -30 7 0 10 -262144
-1 -1;
#X floatatom 2869 107 5 0 0 0 - - -, f 5;
#X floatatom 2853 174 5 0 0 0 send_+13B - send_+13B, f 5;
#X floatatom 3014 27 5 0 0 0 receive_+14B +14B -, f 5;
#X obj 3008 79 f;
#X obj 2985 58 bng 15 250 50 0 empty empty write -35 7 0 10 -262144
-1 -1;
#X obj 2991 148 f;
#X obj 2990 126 bng 15 250 50 0 empty empty send -30 7 0 10 -262144
-1 -1;
#X floatatom 3009 107 5 0 0 0 - - -, f 5;
#X floatatom 2993 174 5 0 0 0 send_+14B - send_+14B, f 5;
#X floatatom 3144 27 5 0 0 0 receive_+15B +15B -, f 5;
#X obj 3138 79 f;
#X obj 3115 58 bng 15 250 50 0 empty empty write -35 7 0 10 -262144
-1 -1;
#X obj 3121 148 f;
#X obj 3120 126 bng 15 250 50 0 empty empty send -30 7 0 10 -262144
-1 -1;
#X floatatom 3139 107 5 0 0 0 - - -, f 5;
#X floatatom 3123 174 5 0 0 0 send_+15B - send_+15B, f 5;
#X floatatom 3284 27 5 0 0 0 receive_+16B +16B -, f 5;
#X obj 3278 79 f;
#X obj 3255 58 bng 15 250 50 0 empty empty write -35 7 0 10 -262144
-1 -1;
#X obj 3261 148 f;
#X obj 3260 126 bng 15 250 50 0 empty empty send -30 7 0 10 -262144
-1 -1;
#X floatatom 3279 107 5 0 0 0 - - -, f 5;
#X floatatom 3263 174 5 0 0 0 send_+16B - send_+16B, f 5;
#X floatatom 373 27 5 0 0 0 receive_+XTB +XTB -, f 5;
#X obj 367 79 f;
#X obj 344 58 bng 15 250 50 0 empty empty write -35 7 0 10 -262144
-1 -1;
#X obj 350 148 f;
#X obj 349 126 bng 15 250 50 0 empty empty send -30 7 0 10 -262144
-1 -1;
#X floatatom 368 107 5 0 0 0 - - -, f 5;
#X floatatom 352 174 5 0 0 0 send_+XTB - send_+XTB, f 5;
#X floatatom 563 27 5 0 0 0 receive_Trgr-+B Trgr-+B -, f 5;
#X obj 557 79 f;
#X obj 534 58 bng 15 250 50 0 empty empty write -35 7 0 10 -262144
-1 -1;
#X obj 540 148 f;
#X obj 539 126 bng 15 250 50 0 empty empty send -30 7 0 10 -262144
-1 -1;
#X floatatom 558 107 5 0 0 0 - - -, f 5;
#X floatatom 542 174 5 0 0 0 send_Trgr-+B - send_Trgr-+B, f 5;
#X floatatom 763 27 5 0 0 0 receive_+-tB +-tB -, f 5;
#X obj 757 79 f;
#X obj 734 58 bng 15 250 50 0 empty empty write -35 7 0 10 -262144
-1 -1;
#X obj 740 148 f;
#X obj 739 126 bng 15 250 50 0 empty empty send -30 7 0 10 -262144
-1 -1;
#X floatatom 758 107 5 0 0 0 - - -, f 5;
#X floatatom 742 174 5 0 0 0 send_+-tB - send_+-tB, f 5;
#X obj 108 62 inlet;
#X obj 158 62 inlet;
#X floatatom 1652 27 5 0 0 0 receive_+4B +4B -, f 5;
#X obj 1646 79 f;
#X obj 1623 58 bng 15 250 50 0 empty empty write -35 7 0 10 -262144
-1 -1;
#X obj 1629 148 f;
#X obj 1628 126 bng 15 250 50 0 empty empty send -30 7 0 10 -262144
-1 -1;
#X floatatom 1647 107 5 0 0 0 - - -, f 5;
#X floatatom 1631 174 5 0 0 0 send_+4B - send_+4B, f 5;
#X floatatom 1792 27 5 0 0 0 receive_+5B +5B -, f 5;
#X obj 1786 79 f;
#X obj 1763 58 bng 15 250 50 0 empty empty write -35 7 0 10 -262144
-1 -1;
#X obj 1769 148 f;
#X obj 1768 126 bng 15 250 50 0 empty empty send -30 7 0 10 -262144
-1 -1;
#X floatatom 1787 107 5 0 0 0 - - -, f 5;
#X floatatom 1771 174 5 0 0 0 send_+5B - send_+5B, f 5;
#X floatatom 963 227 5 0 0 0 receive_+_progr_B +_progr_B -, f 5;
#X obj 957 279 f;
#X obj 924 258 bng 15 250 50 0 empty empty write -35 7 0 10 -262144
-1 -1;
#X obj 940 348 f;
#X obj 929 326 bng 15 250 50 0 empty empty send -30 7 0 10 -262144
-1 -1;
#X floatatom 958 307 5 0 0 0 - - -, f 5;
#X floatatom 942 374 5 0 0 0 send_+_progr_B - send_+_progr_B, f 5
;
#X floatatom 1109 227 5 0 0 0 receive_+stepB +stepB -, f 5;
#X obj 1103 279 f;
#X obj 1080 258 bng 15 250 50 0 empty empty write -35 7 0 10 -262144
-1 -1;
#X obj 1086 348 f;
#X obj 1085 326 bng 15 250 50 0 empty empty send -30 7 0 10 -262144
-1 -1;
#X floatatom 1104 307 5 0 0 0 - - -, f 5;
#X floatatom 1088 374 5 0 0 0 send_+stepB - send_+stepB, f 5;
#X floatatom 1253 227 5 0 0 0 receive_+1B +1B -, f 5;
#X obj 1247 279 f;
#X obj 1224 258 bng 15 250 50 0 empty empty write -35 7 0 10 -262144
-1 -1;
#X obj 1230 348 f;
#X obj 1229 326 bng 15 250 50 0 empty empty send -30 7 0 10 -262144
-1 -1;
#X floatatom 1248 307 5 0 0 0 - - -, f 5;
#X floatatom 1232 374 5 0 0 0 send_+1B - send_+1B, f 5;
#X floatatom 1393 227 5 0 0 0 receive_+2B +2B -, f 5;
#X obj 1387 279 f;
#X obj 1364 258 bng 15 250 50 0 empty empty write -35 7 0 10 -262144
-1 -1;
#X obj 1370 348 f;
#X obj 1369 326 bng 15 250 50 0 empty empty send -30 7 0 10 -262144
-1 -1;
#X floatatom 1388 307 5 0 0 0 - - -, f 5;
#X floatatom 1372 374 5 0 0 0 send_+2B - send_+2B, f 5;
#X floatatom 1533 227 5 0 0 0 receive_+3B +3B -, f 5;
#X obj 1527 279 f;
#X obj 1504 258 bng 15 250 50 0 empty empty write -35 7 0 10 -262144
-1 -1;
#X obj 1510 348 f;
#X obj 1509 326 bng 15 250 50 0 empty empty send -30 7 0 10 -262144
-1 -1;
#X floatatom 1528 307 5 0 0 0 - - -, f 5;
#X floatatom 1512 374 5 0 0 0 send_+3B - send_+3B, f 5;
#X floatatom 1913 227 5 0 0 0 receive_+6B +6B -, f 5;
#X obj 1907 279 f;
#X obj 1884 258 bng 15 250 50 0 empty empty write -35 7 0 10 -262144
-1 -1;
#X obj 1890 348 f;
#X obj 1889 326 bng 15 250 50 0 empty empty send -30 7 0 10 -262144
-1 -1;
#X floatatom 1908 307 5 0 0 0 - - -, f 5;
#X floatatom 1892 374 5 0 0 0 send_+6B - send_+6B, f 5;
#X floatatom 2043 227 5 0 0 0 receive_+7B +7B -, f 5;
#X obj 2037 279 f;
#X obj 2014 258 bng 15 250 50 0 empty empty write -35 7 0 10 -262144
-1 -1;
#X obj 2020 348 f;
#X obj 2019 326 bng 15 250 50 0 empty empty send -30 7 0 10 -262144
-1 -1;
#X floatatom 2038 307 5 0 0 0 - - -, f 5;
#X floatatom 2022 374 5 0 0 0 send_+7B - send_+7B, f 5;
#X floatatom 2183 227 5 0 0 0 receive_+8B +8B -, f 5;
#X obj 2177 279 f;
#X obj 2154 258 bng 15 250 50 0 empty empty write -35 7 0 10 -262144
-1 -1;
#X obj 2160 348 f;
#X obj 2159 326 bng 15 250 50 0 empty empty send -30 7 0 10 -262144
-1 -1;
#X floatatom 2178 307 5 0 0 0 - - -, f 5;
#X floatatom 2162 374 5 0 0 0 send_+8B - send_+8B, f 5;
#X floatatom 2324 227 5 0 0 0 receive_+9B +9B -, f 5;
#X obj 2318 279 f;
#X obj 2295 258 bng 15 250 50 0 empty empty write -35 7 0 10 -262144
-1 -1;
#X obj 2301 348 f;
#X obj 2300 326 bng 15 250 50 0 empty empty send -30 7 0 10 -262144
-1 -1;
#X floatatom 2319 307 5 0 0 0 - - -, f 5;
#X floatatom 2303 374 5 0 0 0 send_+9B - send_+9B, f 5;
#X floatatom 2464 227 5 0 0 0 receive_+10B +10B -, f 5;
#X obj 2458 279 f;
#X obj 2435 258 bng 15 250 50 0 empty empty write -35 7 0 10 -262144
-1 -1;
#X obj 2441 348 f;
#X obj 2440 326 bng 15 250 50 0 empty empty send -30 7 0 10 -262144
-1 -1;
#X floatatom 2459 307 5 0 0 0 - - -, f 5;
#X floatatom 2443 374 5 0 0 0 send_+10B - send_+10B, f 5;
#X floatatom 2594 227 5 0 0 0 receive_+11B +11B -, f 5;
#X obj 2588 279 f;
#X obj 2565 258 bng 15 250 50 0 empty empty write -35 7 0 10 -262144
-1 -1;
#X obj 2571 348 f;
#X obj 2570 326 bng 15 250 50 0 empty empty send -30 7 0 10 -262144
-1 -1;
#X floatatom 2589 307 5 0 0 0 - - -, f 5;
#X floatatom 2573 374 5 0 0 0 send_+11B - send_+11B, f 5;
#X floatatom 2734 227 5 0 0 0 receive_+12B +12B -, f 5;
#X obj 2728 279 f;
#X obj 2705 258 bng 15 250 50 0 empty empty write -35 7 0 10 -262144
-1 -1;
#X obj 2711 348 f;
#X obj 2710 326 bng 15 250 50 0 empty empty send -30 7 0 10 -262144
-1 -1;
#X floatatom 2729 307 5 0 0 0 - - -, f 5;
#X floatatom 2713 374 5 0 0 0 send_+12B - send_+12B, f 5;
#X floatatom 2874 227 5 0 0 0 receive_+13B +13B -, f 5;
#X obj 2868 279 f;
#X obj 2845 258 bng 15 250 50 0 empty empty write -35 7 0 10 -262144
-1 -1;
#X obj 2851 348 f;
#X obj 2850 326 bng 15 250 50 0 empty empty send -30 7 0 10 -262144
-1 -1;
#X floatatom 2869 307 5 0 0 0 - - -, f 5;
#X floatatom 2853 374 5 0 0 0 send_+13B - send_+13B, f 5;
#X floatatom 3014 227 5 0 0 0 receive_+14B +14B -, f 5;
#X obj 3008 279 f;
#X obj 2985 258 bng 15 250 50 0 empty empty write -35 7 0 10 -262144
-1 -1;
#X obj 2991 348 f;
#X obj 2990 326 bng 15 250 50 0 empty empty send -30 7 0 10 -262144
-1 -1;
#X floatatom 3009 307 5 0 0 0 - - -, f 5;
#X floatatom 2993 374 5 0 0 0 send_+14B - send_+14B, f 5;
#X floatatom 3144 227 5 0 0 0 receive_+15B +15B -, f 5;
#X obj 3138 279 f;
#X obj 3115 258 bng 15 250 50 0 empty empty write -35 7 0 10 -262144
-1 -1;
#X obj 3121 348 f;
#X obj 3120 326 bng 15 250 50 0 empty empty send -30 7 0 10 -262144
-1 -1;
#X floatatom 3139 307 5 0 0 0 - - -, f 5;
#X floatatom 3123 374 5 0 0 0 send_+15B - send_+15B, f 5;
#X floatatom 3284 227 5 0 0 0 receive_+16B +16B -, f 5;
#X obj 3278 279 f;
#X obj 3255 258 bng 15 250 50 0 empty empty write -35 7 0 10 -262144
-1 -1;
#X obj 3261 348 f;
#X obj 3260 326 bng 15 250 50 0 empty empty send -30 7 0 10 -262144
-1 -1;
#X floatatom 3279 307 5 0 0 0 - - -, f 5;
#X floatatom 3263 374 5 0 0 0 send_+16B - send_+16B, f 5;
#X floatatom 373 227 5 0 0 0 receive_+XTB +XTB -, f 5;
#X obj 367 279 f;
#X obj 344 258 bng 15 250 50 0 empty empty write -35 7 0 10 -262144
-1 -1;
#X obj 350 348 f;
#X obj 349 326 bng 15 250 50 0 empty empty send -30 7 0 10 -262144
-1 -1;
#X floatatom 368 307 5 0 0 0 - - -, f 5;
#X floatatom 352 374 5 0 0 0 send_+XTB - send_+XTB, f 5;
#X floatatom 563 227 5 0 0 0 receive_Trgr-+B Trgr-+B -, f 5;
#X obj 557 279 f;
#X obj 534 258 bng 15 250 50 0 empty empty write -35 7 0 10 -262144
-1 -1;
#X obj 540 348 f;
#X obj 539 326 bng 15 250 50 0 empty empty send -30 7 0 10 -262144
-1 -1;
#X floatatom 558 307 5 0 0 0 - - -, f 5;
#X floatatom 542 374 5 0 0 0 send_Trgr-+B - send_Trgr-+B, f 5;
#X floatatom 763 227 5 0 0 0 receive_+-tB +-tB -, f 5;
#X obj 757 279 f;
#X obj 734 258 bng 15 250 50 0 empty empty write -35 7 0 10 -262144
-1 -1;
#X obj 740 348 f;
#X obj 739 326 bng 15 250 50 0 empty empty send -30 7 0 10 -262144
-1 -1;
#X floatatom 758 307 5 0 0 0 - - -, f 5;
#X floatatom 742 374 5 0 0 0 send_+-tB - send_+-tB, f 5;
#X floatatom 1652 227 5 0 0 0 receive_+4B +4B -, f 5;
#X obj 1646 279 f;
#X obj 1623 258 bng 15 250 50 0 empty empty write -35 7 0 10 -262144
-1 -1;
#X obj 1629 348 f;
#X obj 1628 326 bng 15 250 50 0 empty empty send -30 7 0 10 -262144
-1 -1;
#X floatatom 1647 307 5 0 0 0 - - -, f 5;
#X floatatom 1631 374 5 0 0 0 send_+4B - send_+4B, f 5;
#X floatatom 1792 227 5 0 0 0 receive_+5B +5B -, f 5;
#X obj 1786 279 f;
#X obj 1763 258 bng 15 250 50 0 empty empty write -35 7 0 10 -262144
-1 -1;
#X obj 1769 348 f;
#X obj 1768 326 bng 15 250 50 0 empty empty send -30 7 0 10 -262144
-1 -1;
#X floatatom 1787 307 5 0 0 0 - - -, f 5;
#X floatatom 1771 374 5 0 0 0 send_+5B - send_+5B, f 5;
#X floatatom 963 427 5 0 0 0 receive_+_progr_B +_progr_B -, f 5;
#X obj 957 479 f;
#X obj 924 458 bng 15 250 50 0 empty empty write -35 7 0 10 -262144
-1 -1;
#X obj 940 548 f;
#X obj 929 526 bng 15 250 50 0 empty empty send -30 7 0 10 -262144
-1 -1;
#X floatatom 958 507 5 0 0 0 - - -, f 5;
#X floatatom 942 574 5 0 0 0 send_+_progr_B - send_+_progr_B, f 5
;
#X floatatom 1109 427 5 0 0 0 receive_+stepB +stepB -, f 5;
#X obj 1103 479 f;
#X obj 1080 458 bng 15 250 50 0 empty empty write -35 7 0 10 -262144
-1 -1;
#X obj 1086 548 f;
#X obj 1085 526 bng 15 250 50 0 empty empty send -30 7 0 10 -262144
-1 -1;
#X floatatom 1104 507 5 0 0 0 - - -, f 5;
#X floatatom 1088 574 5 0 0 0 send_+stepB - send_+stepB, f 5;
#X floatatom 1253 427 5 0 0 0 receive_+1B +1B -, f 5;
#X obj 1247 479 f;
#X obj 1224 458 bng 15 250 50 0 empty empty write -35 7 0 10 -262144
-1 -1;
#X obj 1230 548 f;
#X obj 1229 526 bng 15 250 50 0 empty empty send -30 7 0 10 -262144
-1 -1;
#X floatatom 1248 507 5 0 0 0 - - -, f 5;
#X floatatom 1232 574 5 0 0 0 send_+1B - send_+1B, f 5;
#X floatatom 1393 427 5 0 0 0 receive_+2B +2B -, f 5;
#X obj 1387 479 f;
#X obj 1364 458 bng 15 250 50 0 empty empty write -35 7 0 10 -262144
-1 -1;
#X obj 1370 548 f;
#X obj 1369 526 bng 15 250 50 0 empty empty send -30 7 0 10 -262144
-1 -1;
#X floatatom 1388 507 5 0 0 0 - - -, f 5;
#X floatatom 1372 574 5 0 0 0 send_+2B - send_+2B, f 5;
#X floatatom 1533 427 5 0 0 0 receive_+3B +3B -, f 5;
#X obj 1527 479 f;
#X obj 1504 458 bng 15 250 50 0 empty empty write -35 7 0 10 -262144
-1 -1;
#X obj 1510 548 f;
#X obj 1509 526 bng 15 250 50 0 empty empty send -30 7 0 10 -262144
-1 -1;
#X floatatom 1528 507 5 0 0 0 - - -, f 5;
#X floatatom 1512 574 5 0 0 0 send_+3B - send_+3B, f 5;
#X floatatom 1913 427 5 0 0 0 receive_+6B +6B -, f 5;
#X obj 1907 479 f;
#X obj 1884 458 bng 15 250 50 0 empty empty write -35 7 0 10 -262144
-1 -1;
#X obj 1890 548 f;
#X obj 1889 526 bng 15 250 50 0 empty empty send -30 7 0 10 -262144
-1 -1;
#X floatatom 1908 507 5 0 0 0 - - -, f 5;
#X floatatom 1892 574 5 0 0 0 send_+6B - send_+6B, f 5;
#X floatatom 2043 427 5 0 0 0 receive_+7B +7B -, f 5;
#X obj 2037 479 f;
#X obj 2014 458 bng 15 250 50 0 empty empty write -35 7 0 10 -262144
-1 -1;
#X obj 2020 548 f;
#X obj 2019 526 bng 15 250 50 0 empty empty send -30 7 0 10 -262144
-1 -1;
#X floatatom 2038 507 5 0 0 0 - - -, f 5;
#X floatatom 2022 574 5 0 0 0 send_+7B - send_+7B, f 5;
#X floatatom 2183 427 5 0 0 0 receive_+8B +8B -, f 5;
#X obj 2177 479 f;
#X obj 2154 458 bng 15 250 50 0 empty empty write -35 7 0 10 -262144
-1 -1;
#X obj 2160 548 f;
#X obj 2159 526 bng 15 250 50 0 empty empty send -30 7 0 10 -262144
-1 -1;
#X floatatom 2178 507 5 0 0 0 - - -, f 5;
#X floatatom 2162 574 5 0 0 0 send_+8B - send_+8B, f 5;
#X floatatom 2324 427 5 0 0 0 receive_+9B +9B -, f 5;
#X obj 2318 479 f;
#X obj 2295 458 bng 15 250 50 0 empty empty write -35 7 0 10 -262144
-1 -1;
#X obj 2301 548 f;
#X obj 2300 526 bng 15 250 50 0 empty empty send -30 7 0 10 -262144
-1 -1;
#X floatatom 2319 507 5 0 0 0 - - -, f 5;
#X floatatom 2303 574 5 0 0 0 send_+9B - send_+9B, f 5;
#X floatatom 2464 427 5 0 0 0 receive_+10B +10B -, f 5;
#X obj 2458 479 f;
#X obj 2435 458 bng 15 250 50 0 empty empty write -35 7 0 10 -262144
-1 -1;
#X obj 2441 548 f;
#X obj 2440 526 bng 15 250 50 0 empty empty send -30 7 0 10 -262144
-1 -1;
#X floatatom 2459 507 5 0 0 0 - - -, f 5;
#X floatatom 2443 574 5 0 0 0 send_+10B - send_+10B, f 5;
#X floatatom 2594 427 5 0 0 0 receive_+11B +11B -, f 5;
#X obj 2588 479 f;
#X obj 2565 458 bng 15 250 50 0 empty empty write -35 7 0 10 -262144
-1 -1;
#X obj 2571 548 f;
#X obj 2570 526 bng 15 250 50 0 empty empty send -30 7 0 10 -262144
-1 -1;
#X floatatom 2589 507 5 0 0 0 - - -, f 5;
#X floatatom 2573 574 5 0 0 0 send_+11B - send_+11B, f 5;
#X floatatom 2734 427 5 0 0 0 receive_+12B +12B -, f 5;
#X obj 2728 479 f;
#X obj 2705 458 bng 15 250 50 0 empty empty write -35 7 0 10 -262144
-1 -1;
#X obj 2711 548 f;
#X obj 2710 526 bng 15 250 50 0 empty empty send -30 7 0 10 -262144
-1 -1;
#X floatatom 2729 507 5 0 0 0 - - -, f 5;
#X floatatom 2713 574 5 0 0 0 send_+12B - send_+12B, f 5;
#X floatatom 2874 427 5 0 0 0 receive_+13B +13B -, f 5;
#X obj 2868 479 f;
#X obj 2845 458 bng 15 250 50 0 empty empty write -35 7 0 10 -262144
-1 -1;
#X obj 2851 548 f;
#X obj 2850 526 bng 15 250 50 0 empty empty send -30 7 0 10 -262144
-1 -1;
#X floatatom 2869 507 5 0 0 0 - - -, f 5;
#X floatatom 2853 574 5 0 0 0 send_+13B - send_+13B, f 5;
#X floatatom 3014 427 5 0 0 0 receive_+14B +14B -, f 5;
#X obj 3008 479 f;
#X obj 2985 458 bng 15 250 50 0 empty empty write -35 7 0 10 -262144
-1 -1;
#X obj 2991 548 f;
#X obj 2990 526 bng 15 250 50 0 empty empty send -30 7 0 10 -262144
-1 -1;
#X floatatom 3009 507 5 0 0 0 - - -, f 5;
#X floatatom 2993 574 5 0 0 0 send_+14B - send_+14B, f 5;
#X floatatom 3144 427 5 0 0 0 receive_+15B +15B -, f 5;
#X obj 3138 479 f;
#X obj 3115 458 bng 15 250 50 0 empty empty write -35 7 0 10 -262144
-1 -1;
#X obj 3121 548 f;
#X obj 3120 526 bng 15 250 50 0 empty empty send -30 7 0 10 -262144
-1 -1;
#X floatatom 3139 507 5 0 0 0 - - -, f 5;
#X floatatom 3123 574 5 0 0 0 send_+15B - send_+15B, f 5;
#X floatatom 3284 427 5 0 0 0 receive_+16B +16B -, f 5;
#X obj 3278 479 f;
#X obj 3255 458 bng 15 250 50 0 empty empty write -35 7 0 10 -262144
-1 -1;
#X obj 3261 548 f;
#X obj 3260 526 bng 15 250 50 0 empty empty send -30 7 0 10 -262144
-1 -1;
#X floatatom 3279 507 5 0 0 0 - - -, f 5;
#X floatatom 3263 574 5 0 0 0 send_+16B - send_+16B, f 5;
#X floatatom 373 427 5 0 0 0 receive_+XTB +XTB -, f 5;
#X obj 367 479 f;
#X obj 344 458 bng 15 250 50 0 empty empty write -35 7 0 10 -262144
-1 -1;
#X obj 350 548 f;
#X obj 349 526 bng 15 250 50 0 empty empty send -30 7 0 10 -262144
-1 -1;
#X floatatom 368 507 5 0 0 0 - - -, f 5;
#X floatatom 352 574 5 0 0 0 send_+XTB - send_+XTB, f 5;
#X floatatom 563 427 5 0 0 0 receive_Trgr-+B Trgr-+B -, f 5;
#X obj 557 479 f;
#X obj 534 458 bng 15 250 50 0 empty empty write -35 7 0 10 -262144
-1 -1;
#X obj 540 548 f;
#X obj 539 526 bng 15 250 50 0 empty empty send -30 7 0 10 -262144
-1 -1;
#X floatatom 558 507 5 0 0 0 - - -, f 5;
#X floatatom 542 574 5 0 0 0 send_Trgr-+B - send_Trgr-+B, f 5;
#X floatatom 763 427 5 0 0 0 receive_+-tB +-tB -, f 5;
#X obj 757 479 f;
#X obj 734 458 bng 15 250 50 0 empty empty write -35 7 0 10 -262144
-1 -1;
#X obj 740 548 f;
#X obj 739 526 bng 15 250 50 0 empty empty send -30 7 0 10 -262144
-1 -1;
#X floatatom 758 507 5 0 0 0 - - -, f 5;
#X floatatom 742 574 5 0 0 0 send_+-tB - send_+-tB, f 5;
#X floatatom 1652 427 5 0 0 0 receive_+4B +4B -, f 5;
#X obj 1646 479 f;
#X obj 1623 458 bng 15 250 50 0 empty empty write -35 7 0 10 -262144
-1 -1;
#X obj 1629 548 f;
#X obj 1628 526 bng 15 250 50 0 empty empty send -30 7 0 10 -262144
-1 -1;
#X floatatom 1647 507 5 0 0 0 - - -, f 5;
#X floatatom 1631 574 5 0 0 0 send_+4B - send_+4B, f 5;
#X floatatom 1792 427 5 0 0 0 receive_+5B +5B -, f 5;
#X obj 1786 479 f;
#X obj 1763 458 bng 15 250 50 0 empty empty write -35 7 0 10 -262144
-1 -1;
#X obj 1769 548 f;
#X obj 1768 526 bng 15 250 50 0 empty empty send -30 7 0 10 -262144
-1 -1;
#X floatatom 1787 507 5 0 0 0 - - -, f 5;
#X floatatom 1771 574 5 0 0 0 send_+5B - send_+5B, f 5;
#X obj 3328 9 cnv 15 100 60 empty empty empty 20 12 0 14 -233017 -66577
0;
#X obj 3328 9 cnv 15 100 60 empty empty empty 20 12 0 14 -233017 -66577
0;
#X obj 3328 9 vsl 15 128 0 127 0 0 empty empty empty 0 -9 0 10 -262144
-1 -1 0 1;
#X obj 3328 139 vsl 15 128 0 127 0 0 empty empty empty 0 -9 0 10 -262144
-1 -1 0 1;
#X floatatom 963 647 5 0 0 0 receive_+_progr_B +_progr_B -, f 5;
#X obj 957 699 f;
#X obj 924 678 bng 15 250 50 0 empty empty write -35 7 0 10 -262144
-1 -1;
#X obj 940 768 f;
#X obj 929 746 bng 15 250 50 0 empty empty send -30 7 0 10 -262144
-1 -1;
#X floatatom 958 727 5 0 0 0 - - -, f 5;
#X floatatom 942 794 5 0 0 0 send_+_progr_B - send_+_progr_B, f 5
;
#X floatatom 1109 647 5 0 0 0 receive_+stepB +stepB -, f 5;
#X obj 1103 699 f;
#X obj 1080 678 bng 15 250 50 0 empty empty write -35 7 0 10 -262144
-1 -1;
#X obj 1086 768 f;
#X obj 1085 746 bng 15 250 50 0 empty empty send -30 7 0 10 -262144
-1 -1;
#X floatatom 1104 727 5 0 0 0 - - -, f 5;
#X floatatom 1088 794 5 0 0 0 send_+stepB - send_+stepB, f 5;
#X floatatom 1253 647 5 0 0 0 receive_+1B +1B -, f 5;
#X obj 1247 699 f;
#X obj 1224 678 bng 15 250 50 0 empty empty write -35 7 0 10 -262144
-1 -1;
#X obj 1230 768 f;
#X obj 1229 746 bng 15 250 50 0 empty empty send -30 7 0 10 -262144
-1 -1;
#X floatatom 1248 727 5 0 0 0 - - -, f 5;
#X floatatom 1232 794 5 0 0 0 send_+1B - send_+1B, f 5;
#X floatatom 1393 647 5 0 0 0 receive_+2B +2B -, f 5;
#X obj 1387 699 f;
#X obj 1364 678 bng 15 250 50 0 empty empty write -35 7 0 10 -262144
-1 -1;
#X obj 1370 768 f;
#X obj 1369 746 bng 15 250 50 0 empty empty send -30 7 0 10 -262144
-1 -1;
#X floatatom 1388 727 5 0 0 0 - - -, f 5;
#X floatatom 1372 794 5 0 0 0 send_+2B - send_+2B, f 5;
#X floatatom 1533 647 5 0 0 0 receive_+3B +3B -, f 5;
#X obj 1527 699 f;
#X obj 1504 678 bng 15 250 50 0 empty empty write -35 7 0 10 -262144
-1 -1;
#X obj 1510 768 f;
#X obj 1509 746 bng 15 250 50 0 empty empty send -30 7 0 10 -262144
-1 -1;
#X floatatom 1528 727 5 0 0 0 - - -, f 5;
#X floatatom 1512 794 5 0 0 0 send_+3B - send_+3B, f 5;
#X floatatom 1913 647 5 0 0 0 receive_+6B +6B -, f 5;
#X obj 1907 699 f;
#X obj 1884 678 bng 15 250 50 0 empty empty write -35 7 0 10 -262144
-1 -1;
#X obj 1890 768 f;
#X obj 1889 746 bng 15 250 50 0 empty empty send -30 7 0 10 -262144
-1 -1;
#X floatatom 1908 727 5 0 0 0 - - -, f 5;
#X floatatom 1892 794 5 0 0 0 send_+6B - send_+6B, f 5;
#X floatatom 2043 647 5 0 0 0 receive_+7B +7B -, f 5;
#X obj 2037 699 f;
#X obj 2014 678 bng 15 250 50 0 empty empty write -35 7 0 10 -262144
-1 -1;
#X obj 2020 768 f;
#X obj 2019 746 bng 15 250 50 0 empty empty send -30 7 0 10 -262144
-1 -1;
#X floatatom 2038 727 5 0 0 0 - - -, f 5;
#X floatatom 2022 794 5 0 0 0 send_+7B - send_+7B, f 5;
#X floatatom 2183 647 5 0 0 0 receive_+8B +8B -, f 5;
#X obj 2177 699 f;
#X obj 2154 678 bng 15 250 50 0 empty empty write -35 7 0 10 -262144
-1 -1;
#X obj 2160 768 f;
#X obj 2159 746 bng 15 250 50 0 empty empty send -30 7 0 10 -262144
-1 -1;
#X floatatom 2178 727 5 0 0 0 - - -, f 5;
#X floatatom 2162 794 5 0 0 0 send_+8B - send_+8B, f 5;
#X floatatom 2324 647 5 0 0 0 receive_+9B +9B -, f 5;
#X obj 2318 699 f;
#X obj 2295 678 bng 15 250 50 0 empty empty write -35 7 0 10 -262144
-1 -1;
#X obj 2301 768 f;
#X obj 2300 746 bng 15 250 50 0 empty empty send -30 7 0 10 -262144
-1 -1;
#X floatatom 2319 727 5 0 0 0 - - -, f 5;
#X floatatom 2303 794 5 0 0 0 send_+9B - send_+9B, f 5;
#X floatatom 2464 647 5 0 0 0 receive_+10B +10B -, f 5;
#X obj 2458 699 f;
#X obj 2435 678 bng 15 250 50 0 empty empty write -35 7 0 10 -262144
-1 -1;
#X obj 2441 768 f;
#X obj 2440 746 bng 15 250 50 0 empty empty send -30 7 0 10 -262144
-1 -1;
#X floatatom 2459 727 5 0 0 0 - - -, f 5;
#X floatatom 2443 794 5 0 0 0 send_+10B - send_+10B, f 5;
#X floatatom 2594 647 5 0 0 0 receive_+11B +11B -, f 5;
#X obj 2588 699 f;
#X obj 2565 678 bng 15 250 50 0 empty empty write -35 7 0 10 -262144
-1 -1;
#X obj 2571 768 f;
#X obj 2570 746 bng 15 250 50 0 empty empty send -30 7 0 10 -262144
-1 -1;
#X floatatom 2589 727 5 0 0 0 - - -, f 5;
#X floatatom 2573 794 5 0 0 0 send_+11B - send_+11B, f 5;
#X floatatom 2734 647 5 0 0 0 receive_+12B +12B -, f 5;
#X obj 2728 699 f;
#X obj 2705 678 bng 15 250 50 0 empty empty write -35 7 0 10 -262144
-1 -1;
#X obj 2711 768 f;
#X obj 2710 746 bng 15 250 50 0 empty empty send -30 7 0 10 -262144
-1 -1;
#X floatatom 2729 727 5 0 0 0 - - -, f 5;
#X floatatom 2713 794 5 0 0 0 send_+12B - send_+12B, f 5;
#X floatatom 2874 647 5 0 0 0 receive_+13B +13B -, f 5;
#X obj 2868 699 f;
#X obj 2845 678 bng 15 250 50 0 empty empty write -35 7 0 10 -262144
-1 -1;
#X obj 2851 768 f;
#X obj 2850 746 bng 15 250 50 0 empty empty send -30 7 0 10 -262144
-1 -1;
#X floatatom 2869 727 5 0 0 0 - - -, f 5;
#X floatatom 2853 794 5 0 0 0 send_+13B - send_+13B, f 5;
#X floatatom 3014 647 5 0 0 0 receive_+14B +14B -, f 5;
#X obj 3008 699 f;
#X obj 2985 678 bng 15 250 50 0 empty empty write -35 7 0 10 -262144
-1 -1;
#X obj 2991 768 f;
#X obj 2990 746 bng 15 250 50 0 empty empty send -30 7 0 10 -262144
-1 -1;
#X floatatom 3009 727 5 0 0 0 - - -, f 5;
#X floatatom 2993 794 5 0 0 0 send_+14B - send_+14B, f 5;
#X floatatom 3144 647 5 0 0 0 receive_+15B +15B -, f 5;
#X obj 3138 699 f;
#X obj 3115 678 bng 15 250 50 0 empty empty write -35 7 0 10 -262144
-1 -1;
#X obj 3121 768 f;
#X obj 3120 746 bng 15 250 50 0 empty empty send -30 7 0 10 -262144
-1 -1;
#X floatatom 3139 727 5 0 0 0 - - -, f 5;
#X floatatom 3123 794 5 0 0 0 send_+15B - send_+15B, f 5;
#X floatatom 3284 647 5 0 0 0 receive_+16B +16B -, f 5;
#X obj 3278 699 f;
#X obj 3255 678 bng 15 250 50 0 empty empty write -35 7 0 10 -262144
-1 -1;
#X obj 3261 768 f;
#X obj 3260 746 bng 15 250 50 0 empty empty send -30 7 0 10 -262144
-1 -1;
#X floatatom 3279 727 5 0 0 0 - - -, f 5;
#X floatatom 3263 794 5 0 0 0 send_+16B - send_+16B, f 5;
#X floatatom 373 647 5 0 0 0 receive_+XTB +XTB -, f 5;
#X obj 367 699 f;
#X obj 344 678 bng 15 250 50 0 empty empty write -35 7 0 10 -262144
-1 -1;
#X obj 350 768 f;
#X obj 349 746 bng 15 250 50 0 empty empty send -30 7 0 10 -262144
-1 -1;
#X floatatom 368 727 5 0 0 0 - - -, f 5;
#X floatatom 352 794 5 0 0 0 send_+XTB - send_+XTB, f 5;
#X floatatom 563 647 5 0 0 0 receive_Trgr-+B Trgr-+B -, f 5;
#X obj 557 699 f;
#X obj 534 678 bng 15 250 50 0 empty empty write -35 7 0 10 -262144
-1 -1;
#X obj 540 768 f;
#X obj 539 746 bng 15 250 50 0 empty empty send -30 7 0 10 -262144
-1 -1;
#X floatatom 558 727 5 0 0 0 - - -, f 5;
#X floatatom 542 794 5 0 0 0 send_Trgr-+B - send_Trgr-+B, f 5;
#X floatatom 763 647 5 0 0 0 receive_+-tB +-tB -, f 5;
#X obj 757 699 f;
#X obj 734 678 bng 15 250 50 0 empty empty write -35 7 0 10 -262144
-1 -1;
#X obj 740 768 f;
#X obj 739 746 bng 15 250 50 0 empty empty send -30 7 0 10 -262144
-1 -1;
#X floatatom 758 727 5 0 0 0 - - -, f 5;
#X floatatom 742 794 5 0 0 0 send_+-tB - send_+-tB, f 5;
#X floatatom 1652 647 5 0 0 0 receive_+4B +4B -, f 5;
#X obj 1646 699 f;
#X obj 1623 678 bng 15 250 50 0 empty empty write -35 7 0 10 -262144
-1 -1;
#X obj 1629 768 f;
#X obj 1628 746 bng 15 250 50 0 empty empty send -30 7 0 10 -262144
-1 -1;
#X floatatom 1647 727 5 0 0 0 - - -, f 5;
#X floatatom 1631 794 5 0 0 0 send_+4B - send_+4B, f 5;
#X floatatom 1792 647 5 0 0 0 receive_+5B +5B -, f 5;
#X obj 1786 699 f;
#X obj 1763 678 bng 15 250 50 0 empty empty write -35 7 0 10 -262144
-1 -1;
#X obj 1769 768 f;
#X obj 1768 746 bng 15 250 50 0 empty empty send -30 7 0 10 -262144
-1 -1;
#X floatatom 1787 727 5 0 0 0 - - -, f 5;
#X floatatom 1771 794 5 0 0 0 send_+5B - send_+5B, f 5;
#X connect 0 0 1 0;
#X connect 1 0 118 0;
#X connect 1 1 267 0;
#X connect 1 2 414 0;
#X connect 1 3 565 0;
#X connect 2 0 3 0;
#X connect 3 0 120 0;
#X connect 3 1 269 0;
#X connect 3 2 416 0;
#X connect 3 3 567 0;
#X connect 4 0 5 1;
#X connect 5 0 9 0;
#X connect 6 0 5 0;
#X connect 6 0 13 0;
#X connect 7 0 10 0;
#X connect 8 0 7 0;
#X connect 8 0 15 0;
#X connect 9 0 7 1;
#X connect 11 0 12 1;
#X connect 12 0 16 0;
#X connect 13 0 12 0;
#X connect 13 0 20 0;
#X connect 14 0 17 0;
#X connect 15 0 14 0;
#X connect 15 0 22 0;
#X connect 16 0 14 1;
#X connect 18 0 19 1;
#X connect 19 0 23 0;
#X connect 20 0 19 0;
#X connect 20 0 27 0;
#X connect 21 0 24 0;
#X connect 22 0 21 0;
#X connect 22 0 29 0;
#X connect 23 0 21 1;
#X connect 25 0 26 1;
#X connect 26 0 30 0;
#X connect 27 0 26 0;
#X connect 27 0 34 0;
#X connect 28 0 31 0;
#X connect 29 0 28 0;
#X connect 29 0 36 0;
#X connect 30 0 28 1;
#X connect 32 0 33 1;
#X connect 33 0 37 0;
#X connect 34 0 33 0;
#X connect 34 0 141 0;
#X connect 35 0 38 0;
#X connect 36 0 35 0;
#X connect 36 0 143 0;
#X connect 37 0 35 1;
#X connect 39 0 40 1;
#X connect 40 0 44 0;
#X connect 41 0 40 0;
#X connect 41 0 48 0;
#X connect 42 0 45 0;
#X connect 43 0 42 0;
#X connect 43 0 50 0;
#X connect 44 0 42 1;
#X connect 46 0 47 1;
#X connect 47 0 51 0;
#X connect 48 0 47 0;
#X connect 48 0 55 0;
#X connect 49 0 52 0;
#X connect 50 0 49 0;
#X connect 50 0 57 0;
#X connect 51 0 49 1;
#X connect 53 0 54 1;
#X connect 54 0 58 0;
#X connect 55 0 54 0;
#X connect 55 0 62 0;
#X connect 56 0 59 0;
#X connect 57 0 56 0;
#X connect 57 0 64 0;
#X connect 58 0 56 1;
#X connect 60 0 61 1;
#X connect 61 0 65 0;
#X connect 62 0 61 0;
#X connect 62 0 69 0;
#X connect 63 0 66 0;
#X connect 64 0 63 0;
#X connect 64 0 71 0;
#X connect 65 0 63 1;
#X connect 67 0 68 1;
#X connect 68 0 72 0;
#X connect 69 0 68 0;
#X connect 69 0 76 0;
#X connect 70 0 73 0;
#X connect 71 0 70 0;
#X connect 71 0 78 0;
#X connect 72 0 70 1;
#X connect 74 0 75 1;
#X connect 75 0 79 0;
#X connect 76 0 75 0;
#X connect 76 0 83 0;
#X connect 77 0 80 0;
#X connect 78 0 77 0;
#X connect 78 0 85 0;
#X connect 79 0 77 1;
#X connect 81 0 82 1;
#X connect 82 0 86 0;
#X connect 83 0 82 0;
#X connect 83 0 90 0;
#X connect 84 0 87 0;
#X connect 85 0 84 0;
#X connect 85 0 92 0;
#X connect 86 0 84 1;
#X connect 88 0 89 1;
#X connect 89 0 93 0;
#X connect 90 0 89 0;
#X connect 90 0 97 0;
#X connect 91 0 94 0;
#X connect 92 0 91 0;
#X connect 92 0 99 0;
#X connect 93 0 91 1;
#X connect 95 0 96 1;
#X connect 96 0 100 0;
#X connect 97 0 96 0;
#X connect 97 0 104 0;
#X connect 98 0 101 0;
#X connect 99 0 98 0;
#X connect 99 0 106 0;
#X connect 100 0 98 1;
#X connect 102 0 103 1;
#X connect 103 0 107 0;
#X connect 104 0 103 0;
#X connect 104 0 111 0;
#X connect 105 0 108 0;
#X connect 106 0 105 0;
#X connect 106 0 113 0;
#X connect 107 0 105 1;
#X connect 109 0 110 1;
#X connect 110 0 114 0;
#X connect 111 0 110 0;
#X connect 112 0 115 0;
#X connect 113 0 112 0;
#X connect 114 0 112 1;
#X connect 116 0 117 1;
#X connect 117 0 121 0;
#X connect 118 0 117 0;
#X connect 118 0 125 0;
#X connect 119 0 122 0;
#X connect 120 0 119 0;
#X connect 120 0 127 0;
#X connect 121 0 119 1;
#X connect 123 0 124 1;
#X connect 124 0 128 0;
#X connect 125 0 124 0;
#X connect 125 0 132 0;
#X connect 126 0 129 0;
#X connect 127 0 126 0;
#X connect 127 0 134 0;
#X connect 128 0 126 1;
#X connect 130 0 131 1;
#X connect 131 0 135 0;
#X connect 132 0 131 0;
#X connect 132 0 6 0;
#X connect 133 0 136 0;
#X connect 134 0 133 0;
#X connect 134 0 8 0;
#X connect 135 0 133 1;
#X connect 137 0 0 0;
#X connect 138 0 2 0;
#X connect 139 0 140 1;
#X connect 140 0 144 0;
#X connect 141 0 140 0;
#X connect 141 0 148 0;
#X connect 142 0 145 0;
#X connect 143 0 142 0;
#X connect 143 0 150 0;
#X connect 144 0 142 1;
#X connect 146 0 147 1;
#X connect 147 0 151 0;
#X connect 148 0 147 0;
#X connect 148 0 41 0;
#X connect 149 0 152 0;
#X connect 150 0 149 0;
#X connect 150 0 43 0;
#X connect 151 0 149 1;
#X connect 153 0 154 1;
#X connect 154 0 158 0;
#X connect 155 0 154 0;
#X connect 155 0 162 0;
#X connect 156 0 159 0;
#X connect 157 0 156 0;
#X connect 157 0 164 0;
#X connect 158 0 156 1;
#X connect 160 0 161 1;
#X connect 161 0 165 0;
#X connect 162 0 161 0;
#X connect 162 0 169 0;
#X connect 163 0 166 0;
#X connect 164 0 163 0;
#X connect 164 0 171 0;
#X connect 165 0 163 1;
#X connect 167 0 168 1;
#X connect 168 0 172 0;
#X connect 169 0 168 0;
#X connect 169 0 176 0;
#X connect 170 0 173 0;
#X connect 171 0 170 0;
#X connect 171 0 178 0;
#X connect 172 0 170 1;
#X connect 174 0 175 1;
#X connect 175 0 179 0;
#X connect 176 0 175 0;
#X connect 176 0 183 0;
#X connect 177 0 180 0;
#X connect 178 0 177 0;
#X connect 178 0 185 0;
#X connect 179 0 177 1;
#X connect 181 0 182 1;
#X connect 182 0 186 0;
#X connect 183 0 182 0;
#X connect 183 0 288 0;
#X connect 184 0 187 0;
#X connect 185 0 184 0;
#X connect 185 0 290 0;
#X connect 186 0 184 1;
#X connect 188 0 189 1;
#X connect 189 0 193 0;
#X connect 190 0 189 0;
#X connect 190 0 197 0;
#X connect 191 0 194 0;
#X connect 192 0 191 0;
#X connect 192 0 199 0;
#X connect 193 0 191 1;
#X connect 195 0 196 1;
#X connect 196 0 200 0;
#X connect 197 0 196 0;
#X connect 197 0 204 0;
#X connect 198 0 201 0;
#X connect 199 0 198 0;
#X connect 199 0 206 0;
#X connect 200 0 198 1;
#X connect 202 0 203 1;
#X connect 203 0 207 0;
#X connect 204 0 203 0;
#X connect 204 0 211 0;
#X connect 205 0 208 0;
#X connect 206 0 205 0;
#X connect 206 0 213 0;
#X connect 207 0 205 1;
#X connect 209 0 210 1;
#X connect 210 0 214 0;
#X connect 211 0 210 0;
#X connect 211 0 218 0;
#X connect 212 0 215 0;
#X connect 213 0 212 0;
#X connect 213 0 220 0;
#X connect 214 0 212 1;
#X connect 216 0 217 1;
#X connect 217 0 221 0;
#X connect 218 0 217 0;
#X connect 218 0 225 0;
#X connect 219 0 222 0;
#X connect 220 0 219 0;
#X connect 220 0 227 0;
#X connect 221 0 219 1;
#X connect 223 0 224 1;
#X connect 224 0 228 0;
#X connect 225 0 224 0;
#X connect 225 0 232 0;
#X connect 226 0 229 0;
#X connect 227 0 226 0;
#X connect 227 0 234 0;
#X connect 228 0 226 1;
#X connect 230 0 231 1;
#X connect 231 0 235 0;
#X connect 232 0 231 0;
#X connect 232 0 239 0;
#X connect 233 0 236 0;
#X connect 234 0 233 0;
#X connect 234 0 241 0;
#X connect 235 0 233 1;
#X connect 237 0 238 1;
#X connect 238 0 242 0;
#X connect 239 0 238 0;
#X connect 239 0 246 0;
#X connect 240 0 243 0;
#X connect 241 0 240 0;
#X connect 241 0 248 0;
#X connect 242 0 240 1;
#X connect 244 0 245 1;
#X connect 245 0 249 0;
#X connect 246 0 245 0;
#X connect 246 0 253 0;
#X connect 247 0 250 0;
#X connect 248 0 247 0;
#X connect 248 0 255 0;
#X connect 249 0 247 1;
#X connect 251 0 252 1;
#X connect 252 0 256 0;
#X connect 253 0 252 0;
#X connect 253 0 260 0;
#X connect 254 0 257 0;
#X connect 255 0 254 0;
#X connect 255 0 262 0;
#X connect 256 0 254 1;
#X connect 258 0 259 1;
#X connect 259 0 263 0;
#X connect 260 0 259 0;
#X connect 261 0 264 0;
#X connect 262 0 261 0;
#X connect 263 0 261 1;
#X connect 265 0 266 1;
#X connect 266 0 270 0;
#X connect 267 0 266 0;
#X connect 267 0 274 0;
#X connect 268 0 271 0;
#X connect 269 0 268 0;
#X connect 269 0 276 0;
#X connect 270 0 268 1;
#X connect 272 0 273 1;
#X connect 273 0 277 0;
#X connect 274 0 273 0;
#X connect 274 0 281 0;
#X connect 275 0 278 0;
#X connect 276 0 275 0;
#X connect 276 0 283 0;
#X connect 277 0 275 1;
#X connect 279 0 280 1;
#X connect 280 0 284 0;
#X connect 281 0 280 0;
#X connect 281 0 155 0;
#X connect 282 0 285 0;
#X connect 283 0 282 0;
#X connect 283 0 157 0;
#X connect 284 0 282 1;
#X connect 286 0 287 1;
#X connect 287 0 291 0;
#X connect 288 0 287 0;
#X connect 288 0 295 0;
#X connect 289 0 292 0;
#X connect 290 0 289 0;
#X connect 290 0 297 0;
#X connect 291 0 289 1;
#X connect 293 0 294 1;
#X connect 294 0 298 0;
#X connect 295 0 294 0;
#X connect 295 0 190 0;
#X connect 296 0 299 0;
#X connect 297 0 296 0;
#X connect 297 0 192 0;
#X connect 298 0 296 1;
#X connect 300 0 301 1;
#X connect 301 0 305 0;
#X connect 302 0 301 0;
#X connect 302 0 309 0;
#X connect 303 0 306 0;
#X connect 304 0 303 0;
#X connect 304 0 311 0;
#X connect 305 0 303 1;
#X connect 307 0 308 1;
#X connect 308 0 312 0;
#X connect 309 0 308 0;
#X connect 309 0 316 0;
#X connect 310 0 313 0;
#X connect 311 0 310 0;
#X connect 311 0 318 0;
#X connect 312 0 310 1;
#X connect 314 0 315 1;
#X connect 315 0 319 0;
#X connect 316 0 315 0;
#X connect 316 0 323 0;
#X connect 317 0 320 0;
#X connect 318 0 317 0;
#X connect 318 0 325 0;
#X connect 319 0 317 1;
#X connect 321 0 322 1;
#X connect 322 0 326 0;
#X connect 323 0 322 0;
#X connect 323 0 330 0;
#X connect 324 0 327 0;
#X connect 325 0 324 0;
#X connect 325 0 332 0;
#X connect 326 0 324 1;
#X connect 328 0 329 1;
#X connect 329 0 333 0;
#X connect 330 0 329 0;
#X connect 330 0 435 0;
#X connect 331 0 334 0;
#X connect 332 0 331 0;
#X connect 332 0 437 0;
#X connect 333 0 331 1;
#X connect 335 0 336 1;
#X connect 336 0 340 0;
#X connect 337 0 336 0;
#X connect 337 0 344 0;
#X connect 338 0 341 0;
#X connect 339 0 338 0;
#X connect 339 0 346 0;
#X connect 340 0 338 1;
#X connect 342 0 343 1;
#X connect 343 0 347 0;
#X connect 344 0 343 0;
#X connect 344 0 351 0;
#X connect 345 0 348 0;
#X connect 346 0 345 0;
#X connect 346 0 353 0;
#X connect 347 0 345 1;
#X connect 349 0 350 1;
#X connect 350 0 354 0;
#X connect 351 0 350 0;
#X connect 351 0 358 0;
#X connect 352 0 355 0;
#X connect 353 0 352 0;
#X connect 353 0 360 0;
#X connect 354 0 352 1;
#X connect 356 0 357 1;
#X connect 357 0 361 0;
#X connect 358 0 357 0;
#X connect 358 0 365 0;
#X connect 359 0 362 0;
#X connect 360 0 359 0;
#X connect 360 0 367 0;
#X connect 361 0 359 1;
#X connect 363 0 364 1;
#X connect 364 0 368 0;
#X connect 365 0 364 0;
#X connect 365 0 372 0;
#X connect 366 0 369 0;
#X connect 367 0 366 0;
#X connect 367 0 374 0;
#X connect 368 0 366 1;
#X connect 370 0 371 1;
#X connect 371 0 375 0;
#X connect 372 0 371 0;
#X connect 372 0 379 0;
#X connect 373 0 376 0;
#X connect 374 0 373 0;
#X connect 374 0 381 0;
#X connect 375 0 373 1;
#X connect 377 0 378 1;
#X connect 378 0 382 0;
#X connect 379 0 378 0;
#X connect 379 0 386 0;
#X connect 380 0 383 0;
#X connect 381 0 380 0;
#X connect 381 0 388 0;
#X connect 382 0 380 1;
#X connect 384 0 385 1;
#X connect 385 0 389 0;
#X connect 386 0 385 0;
#X connect 386 0 393 0;
#X connect 387 0 390 0;
#X connect 388 0 387 0;
#X connect 388 0 395 0;
#X connect 389 0 387 1;
#X connect 391 0 392 1;
#X connect 392 0 396 0;
#X connect 393 0 392 0;
#X connect 393 0 400 0;
#X connect 394 0 397 0;
#X connect 395 0 394 0;
#X connect 395 0 402 0;
#X connect 396 0 394 1;
#X connect 398 0 399 1;
#X connect 399 0 403 0;
#X connect 400 0 399 0;
#X connect 400 0 407 0;
#X connect 401 0 404 0;
#X connect 402 0 401 0;
#X connect 402 0 409 0;
#X connect 403 0 401 1;
#X connect 405 0 406 1;
#X connect 406 0 410 0;
#X connect 407 0 406 0;
#X connect 408 0 411 0;
#X connect 409 0 408 0;
#X connect 410 0 408 1;
#X connect 412 0 413 1;
#X connect 413 0 417 0;
#X connect 414 0 413 0;
#X connect 414 0 421 0;
#X connect 415 0 418 0;
#X connect 416 0 415 0;
#X connect 416 0 423 0;
#X connect 417 0 415 1;
#X connect 419 0 420 1;
#X connect 420 0 424 0;
#X connect 421 0 420 0;
#X connect 421 0 428 0;
#X connect 422 0 425 0;
#X connect 423 0 422 0;
#X connect 423 0 430 0;
#X connect 424 0 422 1;
#X connect 426 0 427 1;
#X connect 427 0 431 0;
#X connect 428 0 427 0;
#X connect 428 0 302 0;
#X connect 429 0 432 0;
#X connect 430 0 429 0;
#X connect 430 0 304 0;
#X connect 431 0 429 1;
#X connect 433 0 434 1;
#X connect 434 0 438 0;
#X connect 435 0 434 0;
#X connect 435 0 442 0;
#X connect 436 0 439 0;
#X connect 437 0 436 0;
#X connect 437 0 444 0;
#X connect 438 0 436 1;
#X connect 440 0 441 1;
#X connect 441 0 445 0;
#X connect 442 0 441 0;
#X connect 442 0 337 0;
#X connect 443 0 446 0;
#X connect 444 0 443 0;
#X connect 444 0 339 0;
#X connect 445 0 443 1;
#X connect 451 0 452 1;
#X connect 452 0 456 0;
#X connect 453 0 452 0;
#X connect 453 0 460 0;
#X connect 454 0 457 0;
#X connect 455 0 454 0;
#X connect 455 0 462 0;
#X connect 456 0 454 1;
#X connect 458 0 459 1;
#X connect 459 0 463 0;
#X connect 460 0 459 0;
#X connect 460 0 467 0;
#X connect 461 0 464 0;
#X connect 462 0 461 0;
#X connect 462 0 469 0;
#X connect 463 0 461 1;
#X connect 465 0 466 1;
#X connect 466 0 470 0;
#X connect 467 0 466 0;
#X connect 467 0 474 0;
#X connect 468 0 471 0;
#X connect 469 0 468 0;
#X connect 469 0 476 0;
#X connect 470 0 468 1;
#X connect 472 0 473 1;
#X connect 473 0 477 0;
#X connect 474 0 473 0;
#X connect 474 0 481 0;
#X connect 475 0 478 0;
#X connect 476 0 475 0;
#X connect 476 0 483 0;
#X connect 477 0 475 1;
#X connect 479 0 480 1;
#X connect 480 0 484 0;
#X connect 481 0 480 0;
#X connect 481 0 586 0;
#X connect 482 0 485 0;
#X connect 483 0 482 0;
#X connect 483 0 588 0;
#X connect 484 0 482 1;
#X connect 486 0 487 1;
#X connect 487 0 491 0;
#X connect 488 0 487 0;
#X connect 488 0 495 0;
#X connect 489 0 492 0;
#X connect 490 0 489 0;
#X connect 490 0 497 0;
#X connect 491 0 489 1;
#X connect 493 0 494 1;
#X connect 494 0 498 0;
#X connect 495 0 494 0;
#X connect 495 0 502 0;
#X connect 496 0 499 0;
#X connect 497 0 496 0;
#X connect 497 0 504 0;
#X connect 498 0 496 1;
#X connect 500 0 501 1;
#X connect 501 0 505 0;
#X connect 502 0 501 0;
#X connect 502 0 509 0;
#X connect 503 0 506 0;
#X connect 504 0 503 0;
#X connect 504 0 511 0;
#X connect 505 0 503 1;
#X connect 507 0 508 1;
#X connect 508 0 512 0;
#X connect 509 0 508 0;
#X connect 509 0 516 0;
#X connect 510 0 513 0;
#X connect 511 0 510 0;
#X connect 511 0 518 0;
#X connect 512 0 510 1;
#X connect 514 0 515 1;
#X connect 515 0 519 0;
#X connect 516 0 515 0;
#X connect 516 0 523 0;
#X connect 517 0 520 0;
#X connect 518 0 517 0;
#X connect 518 0 525 0;
#X connect 519 0 517 1;
#X connect 521 0 522 1;
#X connect 522 0 526 0;
#X connect 523 0 522 0;
#X connect 523 0 530 0;
#X connect 524 0 527 0;
#X connect 525 0 524 0;
#X connect 525 0 532 0;
#X connect 526 0 524 1;
#X connect 528 0 529 1;
#X connect 529 0 533 0;
#X connect 530 0 529 0;
#X connect 530 0 537 0;
#X connect 531 0 534 0;
#X connect 532 0 531 0;
#X connect 532 0 539 0;
#X connect 533 0 531 1;
#X connect 535 0 536 1;
#X connect 536 0 540 0;
#X connect 537 0 536 0;
#X connect 537 0 544 0;
#X connect 538 0 541 0;
#X connect 539 0 538 0;
#X connect 539 0 546 0;
#X connect 540 0 538 1;
#X connect 542 0 543 1;
#X connect 543 0 547 0;
#X connect 544 0 543 0;
#X connect 544 0 551 0;
#X connect 545 0 548 0;
#X connect 546 0 545 0;
#X connect 546 0 553 0;
#X connect 547 0 545 1;
#X connect 549 0 550 1;
#X connect 550 0 554 0;
#X connect 551 0 550 0;
#X connect 551 0 558 0;
#X connect 552 0 555 0;
#X connect 553 0 552 0;
#X connect 553 0 560 0;
#X connect 554 0 552 1;
#X connect 556 0 557 1;
#X connect 557 0 561 0;
#X connect 558 0 557 0;
#X connect 559 0 562 0;
#X connect 560 0 559 0;
#X connect 561 0 559 1;
#X connect 563 0 564 1;
#X connect 564 0 568 0;
#X connect 565 0 564 0;
#X connect 565 0 572 0;
#X connect 566 0 569 0;
#X connect 567 0 566 0;
#X connect 567 0 574 0;
#X connect 568 0 566 1;
#X connect 570 0 571 1;
#X connect 571 0 575 0;
#X connect 572 0 571 0;
#X connect 572 0 579 0;
#X connect 573 0 576 0;
#X connect 574 0 573 0;
#X connect 574 0 581 0;
#X connect 575 0 573 1;
#X connect 577 0 578 1;
#X connect 578 0 582 0;
#X connect 579 0 578 0;
#X connect 579 0 453 0;
#X connect 580 0 583 0;
#X connect 581 0 580 0;
#X connect 581 0 455 0;
#X connect 582 0 580 1;
#X connect 584 0 585 1;
#X connect 585 0 589 0;
#X connect 586 0 585 0;
#X connect 586 0 593 0;
#X connect 587 0 590 0;
#X connect 588 0 587 0;
#X connect 588 0 595 0;
#X connect 589 0 587 1;
#X connect 591 0 592 1;
#X connect 592 0 596 0;
#X connect 593 0 592 0;
#X connect 593 0 488 0;
#X connect 594 0 597 0;
#X connect 595 0 594 0;
#X connect 595 0 490 0;
#X connect 596 0 594 1;
#X coords 0 -1 1 1 150 19 2 100 100;
