#N canvas 0 161 1680 867 10;
#X obj 101 102 hradio 15 1 0 4 empty empty empty -45 7 0 10 -262144
-1 -1 1;
#X obj 216 75 sel 0 1 2;
#X obj 180 102 hradio 15 1 0 4 empty empty empty -26 7 0 10 -262144
-1 -1 0;
#X obj 216 145 sel 0 1 2;
#X floatatom 803 27 5 0 0 0 receive_TprogB TprogB -, f 5;
#X obj 797 79 f;
#X obj 764 58 bng 15 250 50 0 empty empty write -35 7 0 10 -262144
-1 -1;
#X obj 780 148 f;
#X obj 769 126 bng 15 250 50 0 empty empty send -30 7 0 10 -262144
-1 -1;
#X floatatom 798 107 5 0 0 0 - - -, f 5;
#X floatatom 782 174 5 0 0 0 send_TprogB - send_TprogB, f 5;
#X floatatom 949 27 5 0 0 0 receive_T#stepB T#stepB -, f 5;
#X obj 943 79 f;
#X obj 920 58 bng 15 250 50 0 empty empty write -35 7 0 10 -262144
-1 -1;
#X obj 926 148 f;
#X obj 925 126 bng 15 250 50 0 empty empty send -30 7 0 10 -262144
-1 -1;
#X floatatom 944 107 5 0 0 0 - - -, f 5;
#X floatatom 928 174 5 0 0 0 send_T#stepB - send_T#stepB, f 5;
#X floatatom 1085 27 5 0 0 0 receive_T1B T1B -, f 5;
#X obj 1079 79 f;
#X obj 1056 58 bng 15 250 50 0 empty empty write -35 7 0 10 -262144
-1 -1;
#X obj 1062 148 f;
#X obj 1061 126 bng 15 250 50 0 empty empty send -30 7 0 10 -262144
-1 -1;
#X floatatom 1080 107 5 0 0 0 - - -, f 5;
#X floatatom 1064 174 5 0 0 0 send_T1B - send_T1B, f 5;
#X floatatom 1225 27 5 0 0 0 receive_T2B T2B -, f 5;
#X obj 1219 79 f;
#X obj 1196 58 bng 15 250 50 0 empty empty write -35 7 0 10 -262144
-1 -1;
#X obj 1202 148 f;
#X obj 1201 126 bng 15 250 50 0 empty empty send -30 7 0 10 -262144
-1 -1;
#X floatatom 1220 107 5 0 0 0 - - -, f 5;
#X floatatom 1204 174 5 0 0 0 send_T2B - send_T2B, f 5;
#X floatatom 1365 27 5 0 0 0 receive_T3B T3B -, f 5;
#X obj 1359 79 f;
#X obj 1336 58 bng 15 250 50 0 empty empty write -35 7 0 10 -262144
-1 -1;
#X obj 1342 148 f;
#X obj 1341 126 bng 15 250 50 0 empty empty send -30 7 0 10 -262144
-1 -1;
#X floatatom 1360 107 5 0 0 0 - - -, f 5;
#X floatatom 1344 174 5 0 0 0 send_T3B - send_T3B, f 5;
#X floatatom 1745 27 5 0 0 0 receive_T6B T6B -, f 5;
#X obj 1739 79 f;
#X obj 1716 58 bng 15 250 50 0 empty empty write -35 7 0 10 -262144
-1 -1;
#X obj 1722 148 f;
#X obj 1721 126 bng 15 250 50 0 empty empty send -30 7 0 10 -262144
-1 -1;
#X floatatom 1740 107 5 0 0 0 - - -, f 5;
#X floatatom 1724 174 5 0 0 0 send_T6B - send_T6B, f 5;
#X floatatom 1875 27 5 0 0 0 receive_T7B T7B -, f 5;
#X obj 1869 79 f;
#X obj 1846 58 bng 15 250 50 0 empty empty write -35 7 0 10 -262144
-1 -1;
#X obj 1852 148 f;
#X obj 1851 126 bng 15 250 50 0 empty empty send -30 7 0 10 -262144
-1 -1;
#X floatatom 1870 107 5 0 0 0 - - -, f 5;
#X floatatom 1854 174 5 0 0 0 send_T7B - send_T7B, f 5;
#X floatatom 2015 27 5 0 0 0 receive_T8B T8B -, f 5;
#X obj 2009 79 f;
#X obj 1986 58 bng 15 250 50 0 empty empty write -35 7 0 10 -262144
-1 -1;
#X obj 1992 148 f;
#X obj 1991 126 bng 15 250 50 0 empty empty send -30 7 0 10 -262144
-1 -1;
#X floatatom 2010 107 5 0 0 0 - - -, f 5;
#X floatatom 1994 174 5 0 0 0 send_T8B - send_T8B, f 5;
#X floatatom 2156 27 5 0 0 0 receive_T9B T9B -, f 5;
#X obj 2150 79 f;
#X obj 2127 58 bng 15 250 50 0 empty empty write -35 7 0 10 -262144
-1 -1;
#X obj 2133 148 f;
#X obj 2132 126 bng 15 250 50 0 empty empty send -30 7 0 10 -262144
-1 -1;
#X floatatom 2151 107 5 0 0 0 - - -, f 5;
#X floatatom 2134 174 5 0 0 0 send_T9B - send_T9B, f 5;
#X floatatom 2296 27 5 0 0 0 receive_T10B T10B -, f 5;
#X obj 2290 79 f;
#X obj 2267 58 bng 15 250 50 0 empty empty write -35 7 0 10 -262144
-1 -1;
#X obj 2273 148 f;
#X obj 2272 126 bng 15 250 50 0 empty empty send -30 7 0 10 -262144
-1 -1;
#X floatatom 2291 107 5 0 0 0 - - -, f 5;
#X floatatom 2276 174 5 0 0 0 send_T10B - send_T10B, f 5;
#X floatatom 2426 27 5 0 0 0 receive_T11B T11B -, f 5;
#X obj 2420 79 f;
#X obj 2397 58 bng 15 250 50 0 empty empty write -35 7 0 10 -262144
-1 -1;
#X obj 2403 148 f;
#X obj 2402 126 bng 15 250 50 0 empty empty send -30 7 0 10 -262144
-1 -1;
#X floatatom 2421 107 5 0 0 0 - - -, f 5;
#X floatatom 2405 174 5 0 0 0 send_T11B - send_T11B, f 5;
#X floatatom 2566 27 5 0 0 0 receive_T12B T12B -, f 5;
#X obj 2560 79 f;
#X obj 2537 58 bng 15 250 50 0 empty empty write -35 7 0 10 -262144
-1 -1;
#X obj 2543 148 f;
#X obj 2542 126 bng 15 250 50 0 empty empty send -30 7 0 10 -262144
-1 -1;
#X floatatom 2561 107 5 0 0 0 - - -, f 5;
#X floatatom 2545 174 5 0 0 0 send_T12B - send_T12B, f 5;
#X floatatom 2706 27 5 0 0 0 receive_T13B T13B -, f 5;
#X obj 2700 79 f;
#X obj 2677 58 bng 15 250 50 0 empty empty write -35 7 0 10 -262144
-1 -1;
#X obj 2683 148 f;
#X obj 2682 126 bng 15 250 50 0 empty empty send -30 7 0 10 -262144
-1 -1;
#X floatatom 2701 107 5 0 0 0 - - -, f 5;
#X floatatom 2685 174 5 0 0 0 send_T13B - send_T13B, f 5;
#X floatatom 2846 27 5 0 0 0 receive_T14B T14B -, f 5;
#X obj 2840 79 f;
#X obj 2817 58 bng 15 250 50 0 empty empty write -35 7 0 10 -262144
-1 -1;
#X obj 2823 148 f;
#X obj 2822 126 bng 15 250 50 0 empty empty send -30 7 0 10 -262144
-1 -1;
#X floatatom 2841 107 5 0 0 0 - - -, f 5;
#X floatatom 2824 174 5 0 0 0 send_T14B - send_T14B, f 5;
#X floatatom 2976 27 5 0 0 0 receive_T15B T15B -, f 5;
#X obj 2970 79 f;
#X obj 2947 58 bng 15 250 50 0 empty empty write -35 7 0 10 -262144
-1 -1;
#X obj 2953 148 f;
#X obj 2952 126 bng 15 250 50 0 empty empty send -30 7 0 10 -262144
-1 -1;
#X floatatom 2971 107 5 0 0 0 - - -, f 5;
#X floatatom 2955 174 5 0 0 0 send_T15B - send_T15B, f 5;
#X floatatom 3115 27 5 0 0 0 receive_T16B T16B -, f 5;
#X obj 3110 79 f;
#X obj 3087 58 bng 15 250 50 0 empty empty write -35 7 0 10 -262144
-1 -1;
#X obj 3093 148 f;
#X obj 3092 126 bng 15 250 50 0 empty empty send -30 7 0 10 -262144
-1 -1;
#X floatatom 3111 107 5 0 0 0 - - -, f 5;
#X floatatom 3095 174 5 0 0 0 send_T16B - send_T16B, f 5;
#X floatatom 374 26 5 0 0 0 receive_TXTB TXTB -, f 5;
#X obj 367 79 f;
#X obj 344 58 bng 15 250 50 0 empty empty write -35 7 0 10 -262144
-1 -1;
#X obj 350 148 f;
#X obj 349 126 bng 15 250 50 0 empty empty send -30 7 0 10 -262144
-1 -1;
#X floatatom 368 107 5 0 0 0 - - -, f 5;
#X floatatom 352 174 5 0 0 0 send_T1B - send_TXTB, f 5;
#X floatatom 523 27 5 0 0 0 receive_Trgr-tB Trgr-tB -, f 5;
#X obj 517 79 f;
#X obj 494 58 bng 15 250 50 0 empty empty write -35 7 0 10 -262144
-1 -1;
#X obj 500 148 f;
#X obj 499 126 bng 15 250 50 0 empty empty send -30 7 0 10 -262144
-1 -1;
#X floatatom 518 107 5 0 0 0 - - -, f 5;
#X floatatom 502 174 5 0 0 0 send_Trgr-tB - send_Trgr-tB, f 5;
#X floatatom 663 27 5 0 0 0 receive_tB tB -, f 5;
#X obj 657 79 f;
#X obj 634 58 bng 15 250 50 0 empty empty write -35 7 0 10 -262144
-1 -1;
#X obj 640 148 f;
#X obj 639 126 bng 15 250 50 0 empty empty send -30 7 0 10 -262144
-1 -1;
#X floatatom 658 107 5 0 0 0 - - -, f 5;
#X floatatom 642 174 5 0 0 0 send_tB - send_tB, f 5;
#X obj 108 62 inlet;
#X obj 158 62 inlet;
#X floatatom 1484 27 5 0 0 0 receive_T4B T4B -, f 5;
#X obj 1478 79 f;
#X obj 1455 58 bng 15 250 50 0 empty empty write -35 7 0 10 -262144
-1 -1;
#X obj 1461 148 f;
#X obj 1460 126 bng 15 250 50 0 empty empty send -30 7 0 10 -262144
-1 -1;
#X floatatom 1479 107 5 0 0 0 - - -, f 5;
#X floatatom 1463 174 5 0 0 0 send_T4B - send_T4B, f 5;
#X floatatom 1624 27 5 0 0 0 receive_T5B T5B -, f 5;
#X obj 1618 79 f;
#X obj 1595 58 bng 15 250 50 0 empty empty write -35 7 0 10 -262144
-1 -1;
#X obj 1601 148 f;
#X obj 1600 126 bng 15 250 50 0 empty empty send -30 7 0 10 -262144
-1 -1;
#X floatatom 1619 107 5 0 0 0 - - -, f 5;
#X floatatom 1603 174 5 0 0 0 send_T5B - send_T5B, f 5;
#X floatatom 803 237 5 0 0 0 receive_TprogB TprogB -, f 5;
#X obj 797 289 f;
#X obj 764 268 bng 15 250 50 0 empty empty write -35 7 0 10 -262144
-1 -1;
#X obj 780 358 f;
#X obj 769 336 bng 15 250 50 0 empty empty send -30 7 0 10 -262144
-1 -1;
#X floatatom 798 317 5 0 0 0 - - -, f 5;
#X floatatom 782 384 5 0 0 0 send_TprogB - send_TprogB, f 5;
#X floatatom 949 237 5 0 0 0 receive_T#stepB T#stepB -, f 5;
#X obj 943 289 f;
#X obj 920 268 bng 15 250 50 0 empty empty write -35 7 0 10 -262144
-1 -1;
#X obj 926 358 f;
#X obj 925 336 bng 15 250 50 0 empty empty send -30 7 0 10 -262144
-1 -1;
#X floatatom 944 317 5 0 0 0 - - -, f 5;
#X floatatom 928 384 5 0 0 0 send_T#stepB - send_T#stepB, f 5;
#X floatatom 1085 237 5 0 0 0 receive_T1B T1B -, f 5;
#X obj 1079 289 f;
#X obj 1056 268 bng 15 250 50 0 empty empty write -35 7 0 10 -262144
-1 -1;
#X obj 1062 358 f;
#X obj 1061 336 bng 15 250 50 0 empty empty send -30 7 0 10 -262144
-1 -1;
#X floatatom 1080 317 5 0 0 0 - - -, f 5;
#X floatatom 1064 384 5 0 0 0 send_T1B - send_T1B, f 5;
#X floatatom 1225 237 5 0 0 0 receive_T2B T2B -, f 5;
#X obj 1219 289 f;
#X obj 1196 268 bng 15 250 50 0 empty empty write -35 7 0 10 -262144
-1 -1;
#X obj 1202 358 f;
#X obj 1201 336 bng 15 250 50 0 empty empty send -30 7 0 10 -262144
-1 -1;
#X floatatom 1220 317 5 0 0 0 - - -, f 5;
#X floatatom 1204 384 5 0 0 0 send_T2B - send_T2B, f 5;
#X floatatom 1365 237 5 0 0 0 receive_T3B T3B -, f 5;
#X obj 1359 289 f;
#X obj 1336 268 bng 15 250 50 0 empty empty write -35 7 0 10 -262144
-1 -1;
#X obj 1342 358 f;
#X obj 1341 336 bng 15 250 50 0 empty empty send -30 7 0 10 -262144
-1 -1;
#X floatatom 1360 317 5 0 0 0 - - -, f 5;
#X floatatom 1344 384 5 0 0 0 send_T3B - send_T3B, f 5;
#X floatatom 1745 237 5 0 0 0 receive_T6B T6B -, f 5;
#X obj 1739 289 f;
#X obj 1716 268 bng 15 250 50 0 empty empty write -35 7 0 10 -262144
-1 -1;
#X obj 1722 358 f;
#X obj 1721 336 bng 15 250 50 0 empty empty send -30 7 0 10 -262144
-1 -1;
#X floatatom 1740 317 5 0 0 0 - - -, f 5;
#X floatatom 1724 384 5 0 0 0 send_T6B - send_T6B, f 5;
#X floatatom 1875 237 5 0 0 0 receive_T7B T7B -, f 5;
#X obj 1869 289 f;
#X obj 1846 268 bng 15 250 50 0 empty empty write -35 7 0 10 -262144
-1 -1;
#X obj 1852 358 f;
#X obj 1851 336 bng 15 250 50 0 empty empty send -30 7 0 10 -262144
-1 -1;
#X floatatom 1870 317 5 0 0 0 - - -, f 5;
#X floatatom 1854 384 5 0 0 0 send_T7B - send_T7B, f 5;
#X floatatom 2015 237 5 0 0 0 receive_T8B T8B -, f 5;
#X obj 2009 289 f;
#X obj 1986 268 bng 15 250 50 0 empty empty write -35 7 0 10 -262144
-1 -1;
#X obj 1992 358 f;
#X obj 1991 336 bng 15 250 50 0 empty empty send -30 7 0 10 -262144
-1 -1;
#X floatatom 2010 317 5 0 0 0 - - -, f 5;
#X floatatom 1994 384 5 0 0 0 send_T8B - send_T8B, f 5;
#X floatatom 2156 237 5 0 0 0 receive_T9B T9B -, f 5;
#X obj 2150 289 f;
#X obj 2127 268 bng 15 250 50 0 empty empty write -35 7 0 10 -262144
-1 -1;
#X obj 2133 358 f;
#X obj 2132 336 bng 15 250 50 0 empty empty send -30 7 0 10 -262144
-1 -1;
#X floatatom 2151 317 5 0 0 0 - - -, f 5;
#X floatatom 2134 384 5 0 0 0 send_T9B - send_T9B, f 5;
#X floatatom 2296 237 5 0 0 0 receive_T10B T10B -, f 5;
#X obj 2290 289 f;
#X obj 2267 268 bng 15 250 50 0 empty empty write -35 7 0 10 -262144
-1 -1;
#X obj 2273 358 f;
#X obj 2272 336 bng 15 250 50 0 empty empty send -30 7 0 10 -262144
-1 -1;
#X floatatom 2291 317 5 0 0 0 - - -, f 5;
#X floatatom 2276 384 5 0 0 0 send_T10B - send_T10B, f 5;
#X floatatom 2426 237 5 0 0 0 receive_T11B T11B -, f 5;
#X obj 2420 289 f;
#X obj 2397 268 bng 15 250 50 0 empty empty write -35 7 0 10 -262144
-1 -1;
#X obj 2403 358 f;
#X obj 2402 336 bng 15 250 50 0 empty empty send -30 7 0 10 -262144
-1 -1;
#X floatatom 2421 317 5 0 0 0 - - -, f 5;
#X floatatom 2405 384 5 0 0 0 send_T11B - send_T11B, f 5;
#X floatatom 2566 237 5 0 0 0 receive_T12B T12B -, f 5;
#X obj 2560 289 f;
#X obj 2537 268 bng 15 250 50 0 empty empty write -35 7 0 10 -262144
-1 -1;
#X obj 2543 358 f;
#X obj 2542 336 bng 15 250 50 0 empty empty send -30 7 0 10 -262144
-1 -1;
#X floatatom 2561 317 5 0 0 0 - - -, f 5;
#X floatatom 2545 384 5 0 0 0 send_T12B - send_T12B, f 5;
#X floatatom 2706 237 5 0 0 0 receive_T13B T13B -, f 5;
#X obj 2700 289 f;
#X obj 2677 268 bng 15 250 50 0 empty empty write -35 7 0 10 -262144
-1 -1;
#X obj 2683 358 f;
#X obj 2682 336 bng 15 250 50 0 empty empty send -30 7 0 10 -262144
-1 -1;
#X floatatom 2701 317 5 0 0 0 - - -, f 5;
#X floatatom 2685 384 5 0 0 0 send_T13B - send_T13B, f 5;
#X floatatom 2846 237 5 0 0 0 receive_T14B T14B -, f 5;
#X obj 2840 289 f;
#X obj 2817 268 bng 15 250 50 0 empty empty write -35 7 0 10 -262144
-1 -1;
#X obj 2823 358 f;
#X obj 2822 336 bng 15 250 50 0 empty empty send -30 7 0 10 -262144
-1 -1;
#X floatatom 2841 317 5 0 0 0 - - -, f 5;
#X floatatom 2824 384 5 0 0 0 send_T14B - send_T14B, f 5;
#X floatatom 2976 237 5 0 0 0 receive_T15B T15B -, f 5;
#X obj 2970 289 f;
#X obj 2947 268 bng 15 250 50 0 empty empty write -35 7 0 10 -262144
-1 -1;
#X obj 2953 358 f;
#X obj 2952 336 bng 15 250 50 0 empty empty send -30 7 0 10 -262144
-1 -1;
#X floatatom 2971 317 5 0 0 0 - - -, f 5;
#X floatatom 2955 384 5 0 0 0 send_T15B - send_T15B, f 5;
#X floatatom 3115 237 5 0 0 0 receive_T16B T16B -, f 5;
#X obj 3110 289 f;
#X obj 3087 268 bng 15 250 50 0 empty empty write -35 7 0 10 -262144
-1 -1;
#X obj 3093 358 f;
#X obj 3092 336 bng 15 250 50 0 empty empty send -30 7 0 10 -262144
-1 -1;
#X floatatom 3111 317 5 0 0 0 - - -, f 5;
#X floatatom 3095 384 5 0 0 0 send_T16B - send_T16B, f 5;
#X floatatom 374 236 5 0 0 0 receive_TXTB TXTB -, f 5;
#X obj 367 289 f;
#X obj 344 268 bng 15 250 50 0 empty empty write -35 7 0 10 -262144
-1 -1;
#X obj 350 358 f;
#X obj 349 336 bng 15 250 50 0 empty empty send -30 7 0 10 -262144
-1 -1;
#X floatatom 368 317 5 0 0 0 - - -, f 5;
#X floatatom 352 384 5 0 0 0 send_T1B - send_TXTB, f 5;
#X floatatom 523 237 5 0 0 0 receive_Trgr-tB Trgr-tB -, f 5;
#X obj 517 289 f;
#X obj 494 268 bng 15 250 50 0 empty empty write -35 7 0 10 -262144
-1 -1;
#X obj 500 358 f;
#X obj 499 336 bng 15 250 50 0 empty empty send -30 7 0 10 -262144
-1 -1;
#X floatatom 518 317 5 0 0 0 - - -, f 5;
#X floatatom 502 384 5 0 0 0 send_Trgr-tB - send_Trgr-tB, f 5;
#X floatatom 663 237 5 0 0 0 receive_tB tB -, f 5;
#X obj 657 289 f;
#X obj 634 268 bng 15 250 50 0 empty empty write -35 7 0 10 -262144
-1 -1;
#X obj 640 358 f;
#X obj 639 336 bng 15 250 50 0 empty empty send -30 7 0 10 -262144
-1 -1;
#X floatatom 658 317 5 0 0 0 - - -, f 5;
#X floatatom 642 384 5 0 0 0 send_tB - send_tB, f 5;
#X floatatom 1484 237 5 0 0 0 receive_T4B T4B -, f 5;
#X obj 1478 289 f;
#X obj 1455 268 bng 15 250 50 0 empty empty write -35 7 0 10 -262144
-1 -1;
#X obj 1461 358 f;
#X obj 1460 336 bng 15 250 50 0 empty empty send -30 7 0 10 -262144
-1 -1;
#X floatatom 1479 317 5 0 0 0 - - -, f 5;
#X floatatom 1463 384 5 0 0 0 send_T4B - send_T4B, f 5;
#X floatatom 1624 237 5 0 0 0 receive_T5B T5B -, f 5;
#X obj 1618 289 f;
#X obj 1595 268 bng 15 250 50 0 empty empty write -35 7 0 10 -262144
-1 -1;
#X obj 1601 358 f;
#X obj 1600 336 bng 15 250 50 0 empty empty send -30 7 0 10 -262144
-1 -1;
#X floatatom 1619 317 5 0 0 0 - - -, f 5;
#X floatatom 1603 384 5 0 0 0 send_T5B - send_T5B, f 5;
#X floatatom 803 427 5 0 0 0 receive_TprogB TprogB -, f 5;
#X obj 797 479 f;
#X obj 764 458 bng 15 250 50 0 empty empty write -35 7 0 10 -262144
-1 -1;
#X obj 780 548 f;
#X obj 769 526 bng 15 250 50 0 empty empty send -30 7 0 10 -262144
-1 -1;
#X floatatom 798 507 5 0 0 0 - - -, f 5;
#X floatatom 782 574 5 0 0 0 send_TprogB - send_TprogB, f 5;
#X floatatom 949 427 5 0 0 0 receive_T#stepB T#stepB -, f 5;
#X obj 943 479 f;
#X obj 920 458 bng 15 250 50 0 empty empty write -35 7 0 10 -262144
-1 -1;
#X obj 926 548 f;
#X obj 925 526 bng 15 250 50 0 empty empty send -30 7 0 10 -262144
-1 -1;
#X floatatom 944 507 5 0 0 0 - - -, f 5;
#X floatatom 928 574 5 0 0 0 send_T#stepB - send_T#stepB, f 5;
#X floatatom 1085 427 5 0 0 0 receive_T1B T1B -, f 5;
#X obj 1079 479 f;
#X obj 1056 458 bng 15 250 50 0 empty empty write -35 7 0 10 -262144
-1 -1;
#X obj 1062 548 f;
#X obj 1061 526 bng 15 250 50 0 empty empty send -30 7 0 10 -262144
-1 -1;
#X floatatom 1080 507 5 0 0 0 - - -, f 5;
#X floatatom 1064 574 5 0 0 0 send_T1B - send_T1B, f 5;
#X floatatom 1225 427 5 0 0 0 receive_T2B T2B -, f 5;
#X obj 1219 479 f;
#X obj 1196 458 bng 15 250 50 0 empty empty write -35 7 0 10 -262144
-1 -1;
#X obj 1202 548 f;
#X obj 1201 526 bng 15 250 50 0 empty empty send -30 7 0 10 -262144
-1 -1;
#X floatatom 1220 507 5 0 0 0 - - -, f 5;
#X floatatom 1204 574 5 0 0 0 send_T2B - send_T2B, f 5;
#X floatatom 1365 427 5 0 0 0 receive_T3B T3B -, f 5;
#X obj 1359 479 f;
#X obj 1336 458 bng 15 250 50 0 empty empty write -35 7 0 10 -262144
-1 -1;
#X obj 1342 548 f;
#X obj 1341 526 bng 15 250 50 0 empty empty send -30 7 0 10 -262144
-1 -1;
#X floatatom 1360 507 5 0 0 0 - - -, f 5;
#X floatatom 1344 574 5 0 0 0 send_T3B - send_T3B, f 5;
#X floatatom 1745 427 5 0 0 0 receive_T6B T6B -, f 5;
#X obj 1739 479 f;
#X obj 1716 458 bng 15 250 50 0 empty empty write -35 7 0 10 -262144
-1 -1;
#X obj 1722 548 f;
#X obj 1721 526 bng 15 250 50 0 empty empty send -30 7 0 10 -262144
-1 -1;
#X floatatom 1740 507 5 0 0 0 - - -, f 5;
#X floatatom 1724 574 5 0 0 0 send_T6B - send_T6B, f 5;
#X floatatom 1875 427 5 0 0 0 receive_T7B T7B -, f 5;
#X obj 1869 479 f;
#X obj 1846 458 bng 15 250 50 0 empty empty write -35 7 0 10 -262144
-1 -1;
#X obj 1852 548 f;
#X obj 1851 526 bng 15 250 50 0 empty empty send -30 7 0 10 -262144
-1 -1;
#X floatatom 1870 507 5 0 0 0 - - -, f 5;
#X floatatom 1854 574 5 0 0 0 send_T7B - send_T7B, f 5;
#X floatatom 2015 427 5 0 0 0 receive_T8B T8B -, f 5;
#X obj 2009 479 f;
#X obj 1986 458 bng 15 250 50 0 empty empty write -35 7 0 10 -262144
-1 -1;
#X obj 1992 548 f;
#X obj 1991 526 bng 15 250 50 0 empty empty send -30 7 0 10 -262144
-1 -1;
#X floatatom 2010 507 5 0 0 0 - - -, f 5;
#X floatatom 1994 574 5 0 0 0 send_T8B - send_T8B, f 5;
#X floatatom 2156 427 5 0 0 0 receive_T9B T9B -, f 5;
#X obj 2150 479 f;
#X obj 2127 458 bng 15 250 50 0 empty empty write -35 7 0 10 -262144
-1 -1;
#X obj 2133 548 f;
#X obj 2132 526 bng 15 250 50 0 empty empty send -30 7 0 10 -262144
-1 -1;
#X floatatom 2151 507 5 0 0 0 - - -, f 5;
#X floatatom 2134 574 5 0 0 0 send_T9B - send_T9B, f 5;
#X floatatom 2296 427 5 0 0 0 receive_T10B T10B -, f 5;
#X obj 2290 479 f;
#X obj 2267 458 bng 15 250 50 0 empty empty write -35 7 0 10 -262144
-1 -1;
#X obj 2273 548 f;
#X obj 2272 526 bng 15 250 50 0 empty empty send -30 7 0 10 -262144
-1 -1;
#X floatatom 2291 507 5 0 0 0 - - -, f 5;
#X floatatom 2276 574 5 0 0 0 send_T10B - send_T10B, f 5;
#X floatatom 2426 427 5 0 0 0 receive_T11B T11B -, f 5;
#X obj 2420 479 f;
#X obj 2397 458 bng 15 250 50 0 empty empty write -35 7 0 10 -262144
-1 -1;
#X obj 2403 548 f;
#X obj 2402 526 bng 15 250 50 0 empty empty send -30 7 0 10 -262144
-1 -1;
#X floatatom 2421 507 5 0 0 0 - - -, f 5;
#X floatatom 2405 574 5 0 0 0 send_T11B - send_T11B, f 5;
#X floatatom 2566 427 5 0 0 0 receive_T12B T12B -, f 5;
#X obj 2560 479 f;
#X obj 2537 458 bng 15 250 50 0 empty empty write -35 7 0 10 -262144
-1 -1;
#X obj 2543 548 f;
#X obj 2542 526 bng 15 250 50 0 empty empty send -30 7 0 10 -262144
-1 -1;
#X floatatom 2561 507 5 0 0 0 - - -, f 5;
#X floatatom 2545 574 5 0 0 0 send_T12B - send_T12B, f 5;
#X floatatom 2706 427 5 0 0 0 receive_T13B T13B -, f 5;
#X obj 2700 479 f;
#X obj 2677 458 bng 15 250 50 0 empty empty write -35 7 0 10 -262144
-1 -1;
#X obj 2683 548 f;
#X obj 2682 526 bng 15 250 50 0 empty empty send -30 7 0 10 -262144
-1 -1;
#X floatatom 2701 507 5 0 0 0 - - -, f 5;
#X floatatom 2685 574 5 0 0 0 send_T13B - send_T13B, f 5;
#X floatatom 2846 427 5 0 0 0 receive_T14B T14B -, f 5;
#X obj 2840 479 f;
#X obj 2817 458 bng 15 250 50 0 empty empty write -35 7 0 10 -262144
-1 -1;
#X obj 2823 548 f;
#X obj 2822 526 bng 15 250 50 0 empty empty send -30 7 0 10 -262144
-1 -1;
#X floatatom 2841 507 5 0 0 0 - - -, f 5;
#X floatatom 2824 574 5 0 0 0 send_T14B - send_T14B, f 5;
#X floatatom 2976 427 5 0 0 0 receive_T15B T15B -, f 5;
#X obj 2970 479 f;
#X obj 2947 458 bng 15 250 50 0 empty empty write -35 7 0 10 -262144
-1 -1;
#X obj 2953 548 f;
#X obj 2952 526 bng 15 250 50 0 empty empty send -30 7 0 10 -262144
-1 -1;
#X floatatom 2971 507 5 0 0 0 - - -, f 5;
#X floatatom 2955 574 5 0 0 0 send_T15B - send_T15B, f 5;
#X floatatom 3115 427 5 0 0 0 receive_T16B T16B -, f 5;
#X obj 3110 479 f;
#X obj 3087 458 bng 15 250 50 0 empty empty write -35 7 0 10 -262144
-1 -1;
#X obj 3093 548 f;
#X obj 3092 526 bng 15 250 50 0 empty empty send -30 7 0 10 -262144
-1 -1;
#X floatatom 3111 507 5 0 0 0 - - -, f 5;
#X floatatom 3095 574 5 0 0 0 send_T16B - send_T16B, f 5;
#X floatatom 374 426 5 0 0 0 receive_TXTB TXTB -, f 5;
#X obj 367 479 f;
#X obj 344 458 bng 15 250 50 0 empty empty write -35 7 0 10 -262144
-1 -1;
#X obj 350 548 f;
#X obj 349 526 bng 15 250 50 0 empty empty send -30 7 0 10 -262144
-1 -1;
#X floatatom 368 507 5 0 0 0 - - -, f 5;
#X floatatom 352 574 5 0 0 0 send_T1B - send_TXTB, f 5;
#X floatatom 523 427 5 0 0 0 receive_Trgr-tB Trgr-tB -, f 5;
#X obj 517 479 f;
#X obj 494 458 bng 15 250 50 0 empty empty write -35 7 0 10 -262144
-1 -1;
#X obj 500 548 f;
#X obj 499 526 bng 15 250 50 0 empty empty send -30 7 0 10 -262144
-1 -1;
#X floatatom 518 507 5 0 0 0 - - -, f 5;
#X floatatom 502 574 5 0 0 0 send_Trgr-tB - send_Trgr-tB, f 5;
#X floatatom 663 427 5 0 0 0 receive_tB tB -, f 5;
#X obj 657 479 f;
#X obj 634 458 bng 15 250 50 0 empty empty write -35 7 0 10 -262144
-1 -1;
#X obj 640 548 f;
#X obj 639 526 bng 15 250 50 0 empty empty send -30 7 0 10 -262144
-1 -1;
#X floatatom 658 507 5 0 0 0 - - -, f 5;
#X floatatom 642 574 5 0 0 0 send_tB - send_tB, f 5;
#X floatatom 1484 427 5 0 0 0 receive_T4B T4B -, f 5;
#X obj 1478 479 f;
#X obj 1455 458 bng 15 250 50 0 empty empty write -35 7 0 10 -262144
-1 -1;
#X obj 1461 548 f;
#X obj 1460 526 bng 15 250 50 0 empty empty send -30 7 0 10 -262144
-1 -1;
#X floatatom 1479 507 5 0 0 0 - - -, f 5;
#X floatatom 1463 574 5 0 0 0 send_T4B - send_T4B, f 5;
#X floatatom 1624 427 5 0 0 0 receive_T5B T5B -, f 5;
#X obj 1618 479 f;
#X obj 1595 458 bng 15 250 50 0 empty empty write -35 7 0 10 -262144
-1 -1;
#X obj 1601 548 f;
#X obj 1600 526 bng 15 250 50 0 empty empty send -30 7 0 10 -262144
-1 -1;
#X floatatom 1619 507 5 0 0 0 - - -, f 5;
#X floatatom 1603 574 5 0 0 0 send_T5B - send_T5B, f 5;
#X floatatom 803 637 5 0 0 0 receive_TprogB TprogB -, f 5;
#X obj 797 689 f;
#X obj 764 668 bng 15 250 50 0 empty empty write -35 7 0 10 -262144
-1 -1;
#X obj 780 758 f;
#X obj 769 736 bng 15 250 50 0 empty empty send -30 7 0 10 -262144
-1 -1;
#X floatatom 798 717 5 0 0 0 - - -, f 5;
#X floatatom 782 784 5 0 0 0 send_TprogB - send_TprogB, f 5;
#X floatatom 949 637 5 0 0 0 receive_T#stepB T#stepB -, f 5;
#X obj 943 689 f;
#X obj 920 668 bng 15 250 50 0 empty empty write -35 7 0 10 -262144
-1 -1;
#X obj 926 758 f;
#X obj 925 736 bng 15 250 50 0 empty empty send -30 7 0 10 -262144
-1 -1;
#X floatatom 944 717 5 0 0 0 - - -, f 5;
#X floatatom 928 784 5 0 0 0 send_T#stepB - send_T#stepB, f 5;
#X floatatom 1085 637 5 0 0 0 receive_T1B T1B -, f 5;
#X obj 1079 689 f;
#X obj 1056 668 bng 15 250 50 0 empty empty write -35 7 0 10 -262144
-1 -1;
#X obj 1062 758 f;
#X obj 1061 736 bng 15 250 50 0 empty empty send -30 7 0 10 -262144
-1 -1;
#X floatatom 1080 717 5 0 0 0 - - -, f 5;
#X floatatom 1064 784 5 0 0 0 send_T1B - send_T1B, f 5;
#X floatatom 1225 637 5 0 0 0 receive_T2B T2B -, f 5;
#X obj 1219 689 f;
#X obj 1196 668 bng 15 250 50 0 empty empty write -35 7 0 10 -262144
-1 -1;
#X obj 1202 758 f;
#X obj 1201 736 bng 15 250 50 0 empty empty send -30 7 0 10 -262144
-1 -1;
#X floatatom 1220 717 5 0 0 0 - - -, f 5;
#X floatatom 1204 784 5 0 0 0 send_T2B - send_T2B, f 5;
#X floatatom 1365 637 5 0 0 0 receive_T3B T3B -, f 5;
#X obj 1359 689 f;
#X obj 1336 668 bng 15 250 50 0 empty empty write -35 7 0 10 -262144
-1 -1;
#X obj 1342 758 f;
#X obj 1341 736 bng 15 250 50 0 empty empty send -30 7 0 10 -262144
-1 -1;
#X floatatom 1360 717 5 0 0 0 - - -, f 5;
#X floatatom 1344 784 5 0 0 0 send_T3B - send_T3B, f 5;
#X floatatom 1745 637 5 0 0 0 receive_T6B T6B -, f 5;
#X obj 1739 689 f;
#X obj 1716 668 bng 15 250 50 0 empty empty write -35 7 0 10 -262144
-1 -1;
#X obj 1722 758 f;
#X obj 1721 736 bng 15 250 50 0 empty empty send -30 7 0 10 -262144
-1 -1;
#X floatatom 1740 717 5 0 0 0 - - -, f 5;
#X floatatom 1724 784 5 0 0 0 send_T6B - send_T6B, f 5;
#X floatatom 1875 637 5 0 0 0 receive_T7B T7B -, f 5;
#X obj 1869 689 f;
#X obj 1846 668 bng 15 250 50 0 empty empty write -35 7 0 10 -262144
-1 -1;
#X obj 1852 758 f;
#X obj 1851 736 bng 15 250 50 0 empty empty send -30 7 0 10 -262144
-1 -1;
#X floatatom 1870 717 5 0 0 0 - - -, f 5;
#X floatatom 1854 784 5 0 0 0 send_T7B - send_T7B, f 5;
#X floatatom 2015 637 5 0 0 0 receive_T8B T8B -, f 5;
#X obj 2009 689 f;
#X obj 1986 668 bng 15 250 50 0 empty empty write -35 7 0 10 -262144
-1 -1;
#X obj 1992 758 f;
#X obj 1991 736 bng 15 250 50 0 empty empty send -30 7 0 10 -262144
-1 -1;
#X floatatom 2010 717 5 0 0 0 - - -, f 5;
#X floatatom 1994 784 5 0 0 0 send_T8B - send_T8B, f 5;
#X floatatom 2156 637 5 0 0 0 receive_T9B T9B -, f 5;
#X obj 2150 689 f;
#X obj 2127 668 bng 15 250 50 0 empty empty write -35 7 0 10 -262144
-1 -1;
#X obj 2133 758 f;
#X obj 2132 736 bng 15 250 50 0 empty empty send -30 7 0 10 -262144
-1 -1;
#X floatatom 2151 717 5 0 0 0 - - -, f 5;
#X floatatom 2134 784 5 0 0 0 send_T9B - send_T9B, f 5;
#X floatatom 2296 637 5 0 0 0 receive_T10B T10B -, f 5;
#X obj 2290 689 f;
#X obj 2267 668 bng 15 250 50 0 empty empty write -35 7 0 10 -262144
-1 -1;
#X obj 2273 758 f;
#X obj 2272 736 bng 15 250 50 0 empty empty send -30 7 0 10 -262144
-1 -1;
#X floatatom 2291 717 5 0 0 0 - - -, f 5;
#X floatatom 2276 784 5 0 0 0 send_T10B - send_T10B, f 5;
#X floatatom 2426 637 5 0 0 0 receive_T11B T11B -, f 5;
#X obj 2420 689 f;
#X obj 2397 668 bng 15 250 50 0 empty empty write -35 7 0 10 -262144
-1 -1;
#X obj 2403 758 f;
#X obj 2402 736 bng 15 250 50 0 empty empty send -30 7 0 10 -262144
-1 -1;
#X floatatom 2421 717 5 0 0 0 - - -, f 5;
#X floatatom 2405 784 5 0 0 0 send_T11B - send_T11B, f 5;
#X floatatom 2566 637 5 0 0 0 receive_T12B T12B -, f 5;
#X obj 2560 689 f;
#X obj 2537 668 bng 15 250 50 0 empty empty write -35 7 0 10 -262144
-1 -1;
#X obj 2543 758 f;
#X obj 2542 736 bng 15 250 50 0 empty empty send -30 7 0 10 -262144
-1 -1;
#X floatatom 2561 717 5 0 0 0 - - -, f 5;
#X floatatom 2545 784 5 0 0 0 send_T12B - send_T12B, f 5;
#X floatatom 2706 637 5 0 0 0 receive_T13B T13B -, f 5;
#X obj 2700 689 f;
#X obj 2677 668 bng 15 250 50 0 empty empty write -35 7 0 10 -262144
-1 -1;
#X obj 2683 758 f;
#X obj 2682 736 bng 15 250 50 0 empty empty send -30 7 0 10 -262144
-1 -1;
#X floatatom 2701 717 5 0 0 0 - - -, f 5;
#X floatatom 2685 784 5 0 0 0 send_T13B - send_T13B, f 5;
#X floatatom 2846 637 5 0 0 0 receive_T14B T14B -, f 5;
#X obj 2840 689 f;
#X obj 2817 668 bng 15 250 50 0 empty empty write -35 7 0 10 -262144
-1 -1;
#X obj 2823 758 f;
#X obj 2822 736 bng 15 250 50 0 empty empty send -30 7 0 10 -262144
-1 -1;
#X floatatom 2841 717 5 0 0 0 - - -, f 5;
#X floatatom 2824 784 5 0 0 0 send_T14B - send_T14B, f 5;
#X floatatom 2976 637 5 0 0 0 receive_T15B T15B -, f 5;
#X obj 2970 689 f;
#X obj 2947 668 bng 15 250 50 0 empty empty write -35 7 0 10 -262144
-1 -1;
#X obj 2953 758 f;
#X obj 2952 736 bng 15 250 50 0 empty empty send -30 7 0 10 -262144
-1 -1;
#X floatatom 2971 717 5 0 0 0 - - -, f 5;
#X floatatom 2955 784 5 0 0 0 send_T15B - send_T15B, f 5;
#X floatatom 3115 637 5 0 0 0 receive_T16B T16B -, f 5;
#X obj 3110 689 f;
#X obj 3087 668 bng 15 250 50 0 empty empty write -35 7 0 10 -262144
-1 -1;
#X obj 3093 758 f;
#X obj 3092 736 bng 15 250 50 0 empty empty send -30 7 0 10 -262144
-1 -1;
#X floatatom 3111 717 5 0 0 0 - - -, f 5;
#X floatatom 3095 784 5 0 0 0 send_T16B - send_T16B, f 5;
#X floatatom 374 636 5 0 0 0 receive_TXTB TXTB -, f 5;
#X obj 367 689 f;
#X obj 344 668 bng 15 250 50 0 empty empty write -35 7 0 10 -262144
-1 -1;
#X obj 350 758 f;
#X obj 349 736 bng 15 250 50 0 empty empty send -30 7 0 10 -262144
-1 -1;
#X floatatom 368 717 5 0 0 0 - - -, f 5;
#X floatatom 352 784 5 0 0 0 send_T1B - send_TXTB, f 5;
#X floatatom 523 637 5 0 0 0 receive_Trgr-tB Trgr-tB -, f 5;
#X obj 517 689 f;
#X obj 494 668 bng 15 250 50 0 empty empty write -35 7 0 10 -262144
-1 -1;
#X obj 500 758 f;
#X obj 499 736 bng 15 250 50 0 empty empty send -30 7 0 10 -262144
-1 -1;
#X floatatom 518 717 5 0 0 0 - - -, f 5;
#X floatatom 502 784 5 0 0 0 send_Trgr-tB - send_Trgr-tB, f 5;
#X floatatom 663 637 5 0 0 0 receive_tB tB -, f 5;
#X obj 657 689 f;
#X obj 634 668 bng 15 250 50 0 empty empty write -35 7 0 10 -262144
-1 -1;
#X obj 640 758 f;
#X obj 639 736 bng 15 250 50 0 empty empty send -30 7 0 10 -262144
-1 -1;
#X floatatom 658 717 5 0 0 0 - - -, f 5;
#X floatatom 642 784 5 0 0 0 send_tB - send_tB, f 5;
#X floatatom 1484 637 5 0 0 0 receive_T4B T4B -, f 5;
#X obj 1478 689 f;
#X obj 1455 668 bng 15 250 50 0 empty empty write -35 7 0 10 -262144
-1 -1;
#X obj 1461 758 f;
#X obj 1460 736 bng 15 250 50 0 empty empty send -30 7 0 10 -262144
-1 -1;
#X floatatom 1479 717 5 0 0 0 - - -, f 5;
#X floatatom 1463 784 5 0 0 0 send_T4B - send_T4B, f 5;
#X floatatom 1624 637 5 0 0 0 receive_T5B T5B -, f 5;
#X obj 1618 689 f;
#X obj 1595 668 bng 15 250 50 0 empty empty write -35 7 0 10 -262144
-1 -1;
#X obj 1601 758 f;
#X obj 1600 736 bng 15 250 50 0 empty empty send -30 7 0 10 -262144
-1 -1;
#X floatatom 1619 717 5 0 0 0 - - -, f 5;
#X floatatom 1603 784 5 0 0 0 send_T5B - send_T5B, f 5;
#X connect 0 0 1 0;
#X connect 1 0 118 0;
#X connect 1 1 267 0;
#X connect 1 2 414 0;
#X connect 1 3 561 0;
#X connect 2 0 3 0;
#X connect 3 0 120 0;
#X connect 3 1 269 0;
#X connect 3 2 416 0;
#X connect 3 3 563 0;
#X connect 4 0 5 1;
#X connect 5 0 9 0;
#X connect 6 0 5 0;
#X connect 6 0 13 0;
#X connect 7 0 10 0;
#X connect 8 0 7 0;
#X connect 8 0 15 0;
#X connect 9 0 7 1;
#X connect 11 0 12 1;
#X connect 12 0 16 0;
#X connect 13 0 12 0;
#X connect 13 0 20 0;
#X connect 14 0 17 0;
#X connect 15 0 14 0;
#X connect 15 0 22 0;
#X connect 16 0 14 1;
#X connect 18 0 19 1;
#X connect 19 0 23 0;
#X connect 20 0 19 0;
#X connect 20 0 27 0;
#X connect 21 0 24 0;
#X connect 22 0 21 0;
#X connect 22 0 29 0;
#X connect 23 0 21 1;
#X connect 25 0 26 1;
#X connect 26 0 30 0;
#X connect 27 0 26 0;
#X connect 27 0 34 0;
#X connect 28 0 31 0;
#X connect 29 0 28 0;
#X connect 29 0 36 0;
#X connect 30 0 28 1;
#X connect 32 0 33 1;
#X connect 33 0 37 0;
#X connect 34 0 33 0;
#X connect 34 0 141 0;
#X connect 35 0 38 0;
#X connect 36 0 35 0;
#X connect 36 0 143 0;
#X connect 37 0 35 1;
#X connect 39 0 40 1;
#X connect 40 0 44 0;
#X connect 41 0 40 0;
#X connect 41 0 48 0;
#X connect 42 0 45 0;
#X connect 43 0 42 0;
#X connect 43 0 50 0;
#X connect 44 0 42 1;
#X connect 46 0 47 1;
#X connect 47 0 51 0;
#X connect 48 0 47 0;
#X connect 48 0 55 0;
#X connect 49 0 52 0;
#X connect 50 0 49 0;
#X connect 50 0 57 0;
#X connect 51 0 49 1;
#X connect 53 0 54 1;
#X connect 54 0 58 0;
#X connect 55 0 54 0;
#X connect 55 0 62 0;
#X connect 56 0 59 0;
#X connect 57 0 56 0;
#X connect 57 0 64 0;
#X connect 58 0 56 1;
#X connect 60 0 61 1;
#X connect 61 0 65 0;
#X connect 62 0 61 0;
#X connect 62 0 69 0;
#X connect 63 0 66 0;
#X connect 64 0 63 0;
#X connect 64 0 71 0;
#X connect 65 0 63 1;
#X connect 67 0 68 1;
#X connect 68 0 72 0;
#X connect 69 0 68 0;
#X connect 69 0 76 0;
#X connect 70 0 73 0;
#X connect 71 0 70 0;
#X connect 71 0 78 0;
#X connect 72 0 70 1;
#X connect 74 0 75 1;
#X connect 75 0 79 0;
#X connect 76 0 75 0;
#X connect 76 0 83 0;
#X connect 77 0 80 0;
#X connect 78 0 77 0;
#X connect 78 0 85 0;
#X connect 79 0 77 1;
#X connect 81 0 82 1;
#X connect 82 0 86 0;
#X connect 83 0 82 0;
#X connect 83 0 90 0;
#X connect 84 0 87 0;
#X connect 85 0 84 0;
#X connect 85 0 92 0;
#X connect 86 0 84 1;
#X connect 88 0 89 1;
#X connect 89 0 93 0;
#X connect 90 0 89 0;
#X connect 90 0 97 0;
#X connect 91 0 94 0;
#X connect 92 0 91 0;
#X connect 92 0 99 0;
#X connect 93 0 91 1;
#X connect 95 0 96 1;
#X connect 96 0 100 0;
#X connect 97 0 96 0;
#X connect 97 0 104 0;
#X connect 98 0 101 0;
#X connect 99 0 98 0;
#X connect 99 0 106 0;
#X connect 100 0 98 1;
#X connect 102 0 103 1;
#X connect 103 0 107 0;
#X connect 104 0 103 0;
#X connect 104 0 111 0;
#X connect 105 0 108 0;
#X connect 106 0 105 0;
#X connect 106 0 113 0;
#X connect 107 0 105 1;
#X connect 109 0 110 1;
#X connect 110 0 114 0;
#X connect 111 0 110 0;
#X connect 112 0 115 0;
#X connect 113 0 112 0;
#X connect 114 0 112 1;
#X connect 116 0 117 1;
#X connect 117 0 121 0;
#X connect 118 0 117 0;
#X connect 118 0 125 0;
#X connect 119 0 122 0;
#X connect 120 0 119 0;
#X connect 120 0 127 0;
#X connect 121 0 119 1;
#X connect 123 0 124 1;
#X connect 124 0 128 0;
#X connect 125 0 124 0;
#X connect 125 0 132 0;
#X connect 126 0 129 0;
#X connect 127 0 126 0;
#X connect 127 0 134 0;
#X connect 128 0 126 1;
#X connect 130 0 131 1;
#X connect 131 0 135 0;
#X connect 132 0 131 0;
#X connect 132 0 6 0;
#X connect 133 0 136 0;
#X connect 134 0 133 0;
#X connect 134 0 8 0;
#X connect 135 0 133 1;
#X connect 137 0 0 0;
#X connect 138 0 2 0;
#X connect 139 0 140 1;
#X connect 140 0 144 0;
#X connect 141 0 140 0;
#X connect 141 0 148 0;
#X connect 142 0 145 0;
#X connect 143 0 142 0;
#X connect 143 0 150 0;
#X connect 144 0 142 1;
#X connect 146 0 147 1;
#X connect 147 0 151 0;
#X connect 148 0 147 0;
#X connect 148 0 41 0;
#X connect 149 0 152 0;
#X connect 150 0 149 0;
#X connect 150 0 43 0;
#X connect 151 0 149 1;
#X connect 153 0 154 1;
#X connect 154 0 158 0;
#X connect 155 0 154 0;
#X connect 155 0 162 0;
#X connect 156 0 159 0;
#X connect 157 0 156 0;
#X connect 157 0 164 0;
#X connect 158 0 156 1;
#X connect 160 0 161 1;
#X connect 161 0 165 0;
#X connect 162 0 161 0;
#X connect 162 0 169 0;
#X connect 163 0 166 0;
#X connect 164 0 163 0;
#X connect 164 0 171 0;
#X connect 165 0 163 1;
#X connect 167 0 168 1;
#X connect 168 0 172 0;
#X connect 169 0 168 0;
#X connect 169 0 176 0;
#X connect 170 0 173 0;
#X connect 171 0 170 0;
#X connect 171 0 178 0;
#X connect 172 0 170 1;
#X connect 174 0 175 1;
#X connect 175 0 179 0;
#X connect 176 0 175 0;
#X connect 176 0 183 0;
#X connect 177 0 180 0;
#X connect 178 0 177 0;
#X connect 178 0 185 0;
#X connect 179 0 177 1;
#X connect 181 0 182 1;
#X connect 182 0 186 0;
#X connect 183 0 182 0;
#X connect 183 0 288 0;
#X connect 184 0 187 0;
#X connect 185 0 184 0;
#X connect 185 0 290 0;
#X connect 186 0 184 1;
#X connect 188 0 189 1;
#X connect 189 0 193 0;
#X connect 190 0 189 0;
#X connect 190 0 197 0;
#X connect 191 0 194 0;
#X connect 192 0 191 0;
#X connect 192 0 199 0;
#X connect 193 0 191 1;
#X connect 195 0 196 1;
#X connect 196 0 200 0;
#X connect 197 0 196 0;
#X connect 197 0 204 0;
#X connect 198 0 201 0;
#X connect 199 0 198 0;
#X connect 199 0 206 0;
#X connect 200 0 198 1;
#X connect 202 0 203 1;
#X connect 203 0 207 0;
#X connect 204 0 203 0;
#X connect 204 0 211 0;
#X connect 205 0 208 0;
#X connect 206 0 205 0;
#X connect 206 0 213 0;
#X connect 207 0 205 1;
#X connect 209 0 210 1;
#X connect 210 0 214 0;
#X connect 211 0 210 0;
#X connect 211 0 218 0;
#X connect 212 0 215 0;
#X connect 213 0 212 0;
#X connect 213 0 220 0;
#X connect 214 0 212 1;
#X connect 216 0 217 1;
#X connect 217 0 221 0;
#X connect 218 0 217 0;
#X connect 218 0 225 0;
#X connect 219 0 222 0;
#X connect 220 0 219 0;
#X connect 220 0 227 0;
#X connect 221 0 219 1;
#X connect 223 0 224 1;
#X connect 224 0 228 0;
#X connect 225 0 224 0;
#X connect 225 0 232 0;
#X connect 226 0 229 0;
#X connect 227 0 226 0;
#X connect 227 0 234 0;
#X connect 228 0 226 1;
#X connect 230 0 231 1;
#X connect 231 0 235 0;
#X connect 232 0 231 0;
#X connect 232 0 239 0;
#X connect 233 0 236 0;
#X connect 234 0 233 0;
#X connect 234 0 241 0;
#X connect 235 0 233 1;
#X connect 237 0 238 1;
#X connect 238 0 242 0;
#X connect 239 0 238 0;
#X connect 239 0 246 0;
#X connect 240 0 243 0;
#X connect 241 0 240 0;
#X connect 241 0 248 0;
#X connect 242 0 240 1;
#X connect 244 0 245 1;
#X connect 245 0 249 0;
#X connect 246 0 245 0;
#X connect 246 0 253 0;
#X connect 247 0 250 0;
#X connect 248 0 247 0;
#X connect 248 0 255 0;
#X connect 249 0 247 1;
#X connect 251 0 252 1;
#X connect 252 0 256 0;
#X connect 253 0 252 0;
#X connect 253 0 260 0;
#X connect 254 0 257 0;
#X connect 255 0 254 0;
#X connect 255 0 262 0;
#X connect 256 0 254 1;
#X connect 258 0 259 1;
#X connect 259 0 263 0;
#X connect 260 0 259 0;
#X connect 261 0 264 0;
#X connect 262 0 261 0;
#X connect 263 0 261 1;
#X connect 265 0 266 1;
#X connect 266 0 270 0;
#X connect 267 0 266 0;
#X connect 267 0 274 0;
#X connect 268 0 271 0;
#X connect 269 0 268 0;
#X connect 269 0 276 0;
#X connect 270 0 268 1;
#X connect 272 0 273 1;
#X connect 273 0 277 0;
#X connect 274 0 273 0;
#X connect 274 0 281 0;
#X connect 275 0 278 0;
#X connect 276 0 275 0;
#X connect 276 0 283 0;
#X connect 277 0 275 1;
#X connect 279 0 280 1;
#X connect 280 0 284 0;
#X connect 281 0 280 0;
#X connect 281 0 155 0;
#X connect 282 0 285 0;
#X connect 283 0 282 0;
#X connect 283 0 157 0;
#X connect 284 0 282 1;
#X connect 286 0 287 1;
#X connect 287 0 291 0;
#X connect 288 0 287 0;
#X connect 288 0 295 0;
#X connect 289 0 292 0;
#X connect 290 0 289 0;
#X connect 290 0 297 0;
#X connect 291 0 289 1;
#X connect 293 0 294 1;
#X connect 294 0 298 0;
#X connect 295 0 294 0;
#X connect 295 0 190 0;
#X connect 296 0 299 0;
#X connect 297 0 296 0;
#X connect 297 0 192 0;
#X connect 298 0 296 1;
#X connect 300 0 301 1;
#X connect 301 0 305 0;
#X connect 302 0 301 0;
#X connect 302 0 309 0;
#X connect 303 0 306 0;
#X connect 304 0 303 0;
#X connect 304 0 311 0;
#X connect 305 0 303 1;
#X connect 307 0 308 1;
#X connect 308 0 312 0;
#X connect 309 0 308 0;
#X connect 309 0 316 0;
#X connect 310 0 313 0;
#X connect 311 0 310 0;
#X connect 311 0 318 0;
#X connect 312 0 310 1;
#X connect 314 0 315 1;
#X connect 315 0 319 0;
#X connect 316 0 315 0;
#X connect 316 0 323 0;
#X connect 317 0 320 0;
#X connect 318 0 317 0;
#X connect 318 0 325 0;
#X connect 319 0 317 1;
#X connect 321 0 322 1;
#X connect 322 0 326 0;
#X connect 323 0 322 0;
#X connect 323 0 330 0;
#X connect 324 0 327 0;
#X connect 325 0 324 0;
#X connect 325 0 332 0;
#X connect 326 0 324 1;
#X connect 328 0 329 1;
#X connect 329 0 333 0;
#X connect 330 0 329 0;
#X connect 330 0 435 0;
#X connect 331 0 334 0;
#X connect 332 0 331 0;
#X connect 332 0 437 0;
#X connect 333 0 331 1;
#X connect 335 0 336 1;
#X connect 336 0 340 0;
#X connect 337 0 336 0;
#X connect 337 0 344 0;
#X connect 338 0 341 0;
#X connect 339 0 338 0;
#X connect 339 0 346 0;
#X connect 340 0 338 1;
#X connect 342 0 343 1;
#X connect 343 0 347 0;
#X connect 344 0 343 0;
#X connect 344 0 351 0;
#X connect 345 0 348 0;
#X connect 346 0 345 0;
#X connect 346 0 353 0;
#X connect 347 0 345 1;
#X connect 349 0 350 1;
#X connect 350 0 354 0;
#X connect 351 0 350 0;
#X connect 351 0 358 0;
#X connect 352 0 355 0;
#X connect 353 0 352 0;
#X connect 353 0 360 0;
#X connect 354 0 352 1;
#X connect 356 0 357 1;
#X connect 357 0 361 0;
#X connect 358 0 357 0;
#X connect 358 0 365 0;
#X connect 359 0 362 0;
#X connect 360 0 359 0;
#X connect 360 0 367 0;
#X connect 361 0 359 1;
#X connect 363 0 364 1;
#X connect 364 0 368 0;
#X connect 365 0 364 0;
#X connect 365 0 372 0;
#X connect 366 0 369 0;
#X connect 367 0 366 0;
#X connect 367 0 374 0;
#X connect 368 0 366 1;
#X connect 370 0 371 1;
#X connect 371 0 375 0;
#X connect 372 0 371 0;
#X connect 372 0 379 0;
#X connect 373 0 376 0;
#X connect 374 0 373 0;
#X connect 374 0 381 0;
#X connect 375 0 373 1;
#X connect 377 0 378 1;
#X connect 378 0 382 0;
#X connect 379 0 378 0;
#X connect 379 0 386 0;
#X connect 380 0 383 0;
#X connect 381 0 380 0;
#X connect 381 0 388 0;
#X connect 382 0 380 1;
#X connect 384 0 385 1;
#X connect 385 0 389 0;
#X connect 386 0 385 0;
#X connect 386 0 393 0;
#X connect 387 0 390 0;
#X connect 388 0 387 0;
#X connect 388 0 395 0;
#X connect 389 0 387 1;
#X connect 391 0 392 1;
#X connect 392 0 396 0;
#X connect 393 0 392 0;
#X connect 393 0 400 0;
#X connect 394 0 397 0;
#X connect 395 0 394 0;
#X connect 395 0 402 0;
#X connect 396 0 394 1;
#X connect 398 0 399 1;
#X connect 399 0 403 0;
#X connect 400 0 399 0;
#X connect 400 0 407 0;
#X connect 401 0 404 0;
#X connect 402 0 401 0;
#X connect 402 0 409 0;
#X connect 403 0 401 1;
#X connect 405 0 406 1;
#X connect 406 0 410 0;
#X connect 407 0 406 0;
#X connect 408 0 411 0;
#X connect 409 0 408 0;
#X connect 410 0 408 1;
#X connect 412 0 413 1;
#X connect 413 0 417 0;
#X connect 414 0 413 0;
#X connect 414 0 421 0;
#X connect 415 0 418 0;
#X connect 416 0 415 0;
#X connect 416 0 423 0;
#X connect 417 0 415 1;
#X connect 419 0 420 1;
#X connect 420 0 424 0;
#X connect 421 0 420 0;
#X connect 421 0 428 0;
#X connect 422 0 425 0;
#X connect 423 0 422 0;
#X connect 423 0 430 0;
#X connect 424 0 422 1;
#X connect 426 0 427 1;
#X connect 427 0 431 0;
#X connect 428 0 427 0;
#X connect 428 0 302 0;
#X connect 429 0 432 0;
#X connect 430 0 429 0;
#X connect 430 0 304 0;
#X connect 431 0 429 1;
#X connect 433 0 434 1;
#X connect 434 0 438 0;
#X connect 435 0 434 0;
#X connect 435 0 442 0;
#X connect 436 0 439 0;
#X connect 437 0 436 0;
#X connect 437 0 444 0;
#X connect 438 0 436 1;
#X connect 440 0 441 1;
#X connect 441 0 445 0;
#X connect 442 0 441 0;
#X connect 442 0 337 0;
#X connect 443 0 446 0;
#X connect 444 0 443 0;
#X connect 444 0 339 0;
#X connect 445 0 443 1;
#X connect 447 0 448 1;
#X connect 448 0 452 0;
#X connect 449 0 448 0;
#X connect 449 0 456 0;
#X connect 450 0 453 0;
#X connect 451 0 450 0;
#X connect 451 0 458 0;
#X connect 452 0 450 1;
#X connect 454 0 455 1;
#X connect 455 0 459 0;
#X connect 456 0 455 0;
#X connect 456 0 463 0;
#X connect 457 0 460 0;
#X connect 458 0 457 0;
#X connect 458 0 465 0;
#X connect 459 0 457 1;
#X connect 461 0 462 1;
#X connect 462 0 466 0;
#X connect 463 0 462 0;
#X connect 463 0 470 0;
#X connect 464 0 467 0;
#X connect 465 0 464 0;
#X connect 465 0 472 0;
#X connect 466 0 464 1;
#X connect 468 0 469 1;
#X connect 469 0 473 0;
#X connect 470 0 469 0;
#X connect 470 0 477 0;
#X connect 471 0 474 0;
#X connect 472 0 471 0;
#X connect 472 0 479 0;
#X connect 473 0 471 1;
#X connect 475 0 476 1;
#X connect 476 0 480 0;
#X connect 477 0 476 0;
#X connect 477 0 582 0;
#X connect 478 0 481 0;
#X connect 479 0 478 0;
#X connect 479 0 584 0;
#X connect 480 0 478 1;
#X connect 482 0 483 1;
#X connect 483 0 487 0;
#X connect 484 0 483 0;
#X connect 484 0 491 0;
#X connect 485 0 488 0;
#X connect 486 0 485 0;
#X connect 486 0 493 0;
#X connect 487 0 485 1;
#X connect 489 0 490 1;
#X connect 490 0 494 0;
#X connect 491 0 490 0;
#X connect 491 0 498 0;
#X connect 492 0 495 0;
#X connect 493 0 492 0;
#X connect 493 0 500 0;
#X connect 494 0 492 1;
#X connect 496 0 497 1;
#X connect 497 0 501 0;
#X connect 498 0 497 0;
#X connect 498 0 505 0;
#X connect 499 0 502 0;
#X connect 500 0 499 0;
#X connect 500 0 507 0;
#X connect 501 0 499 1;
#X connect 503 0 504 1;
#X connect 504 0 508 0;
#X connect 505 0 504 0;
#X connect 505 0 512 0;
#X connect 506 0 509 0;
#X connect 507 0 506 0;
#X connect 507 0 514 0;
#X connect 508 0 506 1;
#X connect 510 0 511 1;
#X connect 511 0 515 0;
#X connect 512 0 511 0;
#X connect 512 0 519 0;
#X connect 513 0 516 0;
#X connect 514 0 513 0;
#X connect 514 0 521 0;
#X connect 515 0 513 1;
#X connect 517 0 518 1;
#X connect 518 0 522 0;
#X connect 519 0 518 0;
#X connect 519 0 526 0;
#X connect 520 0 523 0;
#X connect 521 0 520 0;
#X connect 521 0 528 0;
#X connect 522 0 520 1;
#X connect 524 0 525 1;
#X connect 525 0 529 0;
#X connect 526 0 525 0;
#X connect 526 0 533 0;
#X connect 527 0 530 0;
#X connect 528 0 527 0;
#X connect 528 0 535 0;
#X connect 529 0 527 1;
#X connect 531 0 532 1;
#X connect 532 0 536 0;
#X connect 533 0 532 0;
#X connect 533 0 540 0;
#X connect 534 0 537 0;
#X connect 535 0 534 0;
#X connect 535 0 542 0;
#X connect 536 0 534 1;
#X connect 538 0 539 1;
#X connect 539 0 543 0;
#X connect 540 0 539 0;
#X connect 540 0 547 0;
#X connect 541 0 544 0;
#X connect 542 0 541 0;
#X connect 542 0 549 0;
#X connect 543 0 541 1;
#X connect 545 0 546 1;
#X connect 546 0 550 0;
#X connect 547 0 546 0;
#X connect 547 0 554 0;
#X connect 548 0 551 0;
#X connect 549 0 548 0;
#X connect 549 0 556 0;
#X connect 550 0 548 1;
#X connect 552 0 553 1;
#X connect 553 0 557 0;
#X connect 554 0 553 0;
#X connect 555 0 558 0;
#X connect 556 0 555 0;
#X connect 557 0 555 1;
#X connect 559 0 560 1;
#X connect 560 0 564 0;
#X connect 561 0 560 0;
#X connect 561 0 568 0;
#X connect 562 0 565 0;
#X connect 563 0 562 0;
#X connect 563 0 570 0;
#X connect 564 0 562 1;
#X connect 566 0 567 1;
#X connect 567 0 571 0;
#X connect 568 0 567 0;
#X connect 568 0 575 0;
#X connect 569 0 572 0;
#X connect 570 0 569 0;
#X connect 570 0 577 0;
#X connect 571 0 569 1;
#X connect 573 0 574 1;
#X connect 574 0 578 0;
#X connect 575 0 574 0;
#X connect 575 0 449 0;
#X connect 576 0 579 0;
#X connect 577 0 576 0;
#X connect 577 0 451 0;
#X connect 578 0 576 1;
#X connect 580 0 581 1;
#X connect 581 0 585 0;
#X connect 582 0 581 0;
#X connect 582 0 589 0;
#X connect 583 0 586 0;
#X connect 584 0 583 0;
#X connect 584 0 591 0;
#X connect 585 0 583 1;
#X connect 587 0 588 1;
#X connect 588 0 592 0;
#X connect 589 0 588 0;
#X connect 589 0 484 0;
#X connect 590 0 593 0;
#X connect 591 0 590 0;
#X connect 591 0 486 0;
#X connect 592 0 590 1;
#X coords 0 -1 1 1 150 19 2 100 100;
