#N canvas -27 129 1680 887 10;
#X obj 102 102 hradio 15 1 0 4 empty empty empty -45 7 0 10 -262144
-1 -1 0;
#X obj 217 75 sel 0 1 2;
#X obj 181 102 hradio 15 1 0 4 empty empty empty -26 7 0 10 -262144
-1 -1 0;
#X obj 217 145 sel 0 1 2;
#X floatatom 1313 27 5 0 0 0 receive_TprogA TprogA -, f 5;
#X obj 1307 79 f;
#X obj 1274 58 bng 15 250 50 0 empty empty write -35 7 0 10 -262144
-1 -1;
#X obj 1290 148 f;
#X obj 1279 126 bng 15 250 50 0 empty empty send -30 7 0 10 -262144
-1 -1;
#X floatatom 1308 107 5 0 0 0 - - -, f 5;
#X floatatom 1292 174 5 0 0 0 send_TprogA - send_TprogA, f 5;
#X floatatom 1459 27 5 0 0 0 receive_T#stepA T#stepA -, f 5;
#X obj 1453 79 f;
#X obj 1430 58 bng 15 250 50 0 empty empty write -35 7 0 10 -262144
-1 -1;
#X obj 1436 148 f;
#X obj 1435 126 bng 15 250 50 0 empty empty send -30 7 0 10 -262144
-1 -1;
#X floatatom 1454 107 5 0 0 0 - - -, f 5;
#X floatatom 1438 174 5 0 0 0 send_T#stepA_ - send_T#stepA, f 5;
#X floatatom 1595 27 5 0 0 0 receive_T1A T1A -, f 5;
#X obj 1589 79 f;
#X obj 1566 58 bng 15 250 50 0 empty empty write -35 7 0 10 -262144
-1 -1;
#X obj 1572 148 f;
#X obj 1571 126 bng 15 250 50 0 empty empty send -30 7 0 10 -262144
-1 -1;
#X floatatom 1590 107 5 0 0 0 - - -, f 5;
#X floatatom 1574 174 5 0 0 0 send_T1A - send_T1A, f 5;
#X floatatom 1735 27 5 0 0 0 receive_T2A T2A -, f 5;
#X obj 1729 79 f;
#X obj 1706 58 bng 15 250 50 0 empty empty write -35 7 0 10 -262144
-1 -1;
#X obj 1712 148 f;
#X obj 1711 126 bng 15 250 50 0 empty empty send -30 7 0 10 -262144
-1 -1;
#X floatatom 1730 107 5 0 0 0 - - -, f 5;
#X floatatom 1714 174 5 0 0 0 send_T2A - send_T2A, f 5;
#X floatatom 1875 27 5 0 0 0 receive_T3A T3A -, f 5;
#X obj 1869 79 f;
#X obj 1846 58 bng 15 250 50 0 empty empty write -35 7 0 10 -262144
-1 -1;
#X obj 1852 148 f;
#X obj 1851 126 bng 15 250 50 0 empty empty send -30 7 0 10 -262144
-1 -1;
#X floatatom 1870 107 5 0 0 0 - - -, f 5;
#X floatatom 1854 174 5 0 0 0 send_T3A - send_T3A, f 5;
#X floatatom 2255 27 5 0 0 0 receive_T6A T6A -, f 5;
#X obj 2249 79 f;
#X obj 2226 58 bng 15 250 50 0 empty empty write -35 7 0 10 -262144
-1 -1;
#X obj 2232 148 f;
#X obj 2231 126 bng 15 250 50 0 empty empty send -30 7 0 10 -262144
-1 -1;
#X floatatom 2250 107 5 0 0 0 - - -, f 5;
#X floatatom 2234 174 5 0 0 0 send_T6A - send_T6A, f 5;
#X floatatom 2385 27 5 0 0 0 receive_T7A T7A -, f 5;
#X obj 2379 79 f;
#X obj 2356 58 bng 15 250 50 0 empty empty write -35 7 0 10 -262144
-1 -1;
#X obj 2362 148 f;
#X obj 2361 126 bng 15 250 50 0 empty empty send -30 7 0 10 -262144
-1 -1;
#X floatatom 2380 107 5 0 0 0 - - -, f 5;
#X floatatom 2364 174 5 0 0 0 send_T7A - send_T7A, f 5;
#X floatatom 2525 27 5 0 0 0 receive_T8A T8A -, f 5;
#X obj 2519 79 f;
#X obj 2496 58 bng 15 250 50 0 empty empty write -35 7 0 10 -262144
-1 -1;
#X obj 2502 148 f;
#X obj 2501 126 bng 15 250 50 0 empty empty send -30 7 0 10 -262144
-1 -1;
#X floatatom 2520 107 5 0 0 0 - - -, f 5;
#X floatatom 2504 174 5 0 0 0 send_T8A - send_T8A, f 5;
#X floatatom 2666 27 5 0 0 0 receive_T9A T9A -, f 5;
#X obj 2660 79 f;
#X obj 2637 58 bng 15 250 50 0 empty empty write -35 7 0 10 -262144
-1 -1;
#X obj 2643 148 f;
#X obj 2642 126 bng 15 250 50 0 empty empty send -30 7 0 10 -262144
-1 -1;
#X floatatom 2661 107 5 0 0 0 - - -, f 5;
#X floatatom 2644 174 5 0 0 0 send_T9A - send_T9A, f 5;
#X floatatom 2806 27 5 0 0 0 receive_T10A T10A -, f 5;
#X obj 2800 79 f;
#X obj 2777 58 bng 15 250 50 0 empty empty write -35 7 0 10 -262144
-1 -1;
#X obj 2783 148 f;
#X obj 2782 126 bng 15 250 50 0 empty empty send -30 7 0 10 -262144
-1 -1;
#X floatatom 2801 107 5 0 0 0 - - -, f 5;
#X floatatom 2786 174 5 0 0 0 send_T10A - send_T10A, f 5;
#X floatatom 2936 27 5 0 0 0 receive_T11A T11A -, f 5;
#X obj 2930 79 f;
#X obj 2907 58 bng 15 250 50 0 empty empty write -35 7 0 10 -262144
-1 -1;
#X obj 2913 148 f;
#X obj 2912 126 bng 15 250 50 0 empty empty send -30 7 0 10 -262144
-1 -1;
#X floatatom 2931 107 5 0 0 0 - - -, f 5;
#X floatatom 2915 174 5 0 0 0 send_T11A - send_T11A, f 5;
#X floatatom 3076 27 5 0 0 0 receive_T12A T12A -, f 5;
#X obj 3070 79 f;
#X obj 3047 58 bng 15 250 50 0 empty empty write -35 7 0 10 -262144
-1 -1;
#X obj 3053 148 f;
#X obj 3052 126 bng 15 250 50 0 empty empty send -30 7 0 10 -262144
-1 -1;
#X floatatom 3071 107 5 0 0 0 - - -, f 5;
#X floatatom 3055 174 5 0 0 0 send_T12A - send_T12A, f 5;
#X floatatom 3216 27 5 0 0 0 receive_T13A T13A -, f 5;
#X obj 3210 79 f;
#X obj 3187 58 bng 15 250 50 0 empty empty write -35 7 0 10 -262144
-1 -1;
#X obj 3193 148 f;
#X obj 3192 126 bng 15 250 50 0 empty empty send -30 7 0 10 -262144
-1 -1;
#X floatatom 3211 107 5 0 0 0 - - -, f 5;
#X floatatom 3195 174 5 0 0 0 send_T13A - send_T13A, f 5;
#X floatatom 3356 27 5 0 0 0 receive_T14A T14A -, f 5;
#X obj 3350 79 f;
#X obj 3327 58 bng 15 250 50 0 empty empty write -35 7 0 10 -262144
-1 -1;
#X obj 3333 148 f;
#X obj 3332 126 bng 15 250 50 0 empty empty send -30 7 0 10 -262144
-1 -1;
#X floatatom 3351 107 5 0 0 0 - - -, f 5;
#X floatatom 3334 174 5 0 0 0 send_T14A - send_T14A, f 5;
#X floatatom 3486 27 5 0 0 0 receive_T15A T15A -, f 5;
#X obj 3480 79 f;
#X obj 3457 58 bng 15 250 50 0 empty empty write -35 7 0 10 -262144
-1 -1;
#X obj 3463 148 f;
#X obj 3462 126 bng 15 250 50 0 empty empty send -30 7 0 10 -262144
-1 -1;
#X floatatom 3481 107 5 0 0 0 - - -, f 5;
#X floatatom 3465 174 5 0 0 0 send_T15A - send_T15A, f 5;
#X floatatom 3625 27 5 0 0 0 receive_T16A T16A -, f 5;
#X obj 3620 79 f;
#X obj 3597 58 bng 15 250 50 0 empty empty write -35 7 0 10 -262144
-1 -1;
#X obj 3603 148 f;
#X obj 3602 126 bng 15 250 50 0 empty empty send -30 7 0 10 -262144
-1 -1;
#X floatatom 3621 107 5 0 0 0 - - -, f 5;
#X floatatom 3605 174 5 0 0 0 send_T16A - send_T16A, f 5;
#X floatatom 884 26 5 0 0 0 receive_TXTA TXTA -, f 5;
#X obj 877 79 f;
#X obj 854 58 bng 15 250 50 0 empty empty write -35 7 0 10 -262144
-1 -1;
#X obj 860 148 f;
#X obj 859 126 bng 15 250 50 0 empty empty send -30 7 0 10 -262144
-1 -1;
#X floatatom 878 107 5 0 0 0 - - -, f 5;
#X floatatom 861 175 5 0 0 0 send_TXTA - send_TXTA, f 5;
#X floatatom 1033 27 5 0 0 0 receive_Trgr-tA Trgr-tA -, f 5;
#X obj 1027 79 f;
#X obj 1004 58 bng 15 250 50 0 empty empty write -35 7 0 10 -262144
-1 -1;
#X obj 1010 148 f;
#X obj 1009 126 bng 15 250 50 0 empty empty send -30 7 0 10 -262144
-1 -1;
#X floatatom 1028 107 5 0 0 0 - - -, f 5;
#X floatatom 1012 174 5 0 0 0 send_Trgr-tA - send_Trgr-tA, f 5;
#X floatatom 1173 27 5 0 0 0 receive_tA tA -, f 5;
#X obj 1167 79 f;
#X obj 1144 58 bng 15 250 50 0 empty empty write -35 7 0 10 -262144
-1 -1;
#X obj 1150 148 f;
#X obj 1149 126 bng 15 250 50 0 empty empty send -30 7 0 10 -262144
-1 -1;
#X floatatom 1168 107 5 0 0 0 - - -, f 5;
#X floatatom 1152 174 5 0 0 0 send_tA - send_tA, f 5;
#X obj 109 62 inlet;
#X obj 159 62 inlet;
#X floatatom 1994 27 5 0 0 0 receive_T4A T4A -, f 5;
#X obj 1988 79 f;
#X obj 1965 58 bng 15 250 50 0 empty empty write -35 7 0 10 -262144
-1 -1;
#X obj 1971 148 f;
#X obj 1970 126 bng 15 250 50 0 empty empty send -30 7 0 10 -262144
-1 -1;
#X floatatom 1989 107 5 0 0 0 - - -, f 5;
#X floatatom 1973 174 5 0 0 0 send_T4A - send_T4A, f 5;
#X floatatom 2134 27 5 0 0 0 receive_T5A T5A -, f 5;
#X obj 2128 79 f;
#X obj 2105 58 bng 15 250 50 0 empty empty write -35 7 0 10 -262144
-1 -1;
#X obj 2111 148 f;
#X obj 2110 126 bng 15 250 50 0 empty empty send -30 7 0 10 -262144
-1 -1;
#X floatatom 2129 107 5 0 0 0 - - -, f 5;
#X floatatom 2113 174 5 0 0 0 send_T5A - send_T5A, f 5;
#X floatatom 734 26 5 0 0 0 receive_IT≠T IT≠T -, f 5;
#X obj 727 79 f;
#X obj 704 58 bng 15 250 50 0 empty empty write -35 7 0 10 -262144
-1 -1;
#X obj 710 148 f;
#X obj 709 126 bng 15 250 50 0 empty empty send -30 7 0 10 -262144
-1 -1;
#X floatatom 728 107 5 0 0 0 - - -, f 5;
#X floatatom 711 175 5 0 0 0 send_T≠T - sendT≠T, f 5;
#X floatatom 574 26 5 0 0 0 receive_IT≠T1 IT≠T1 -, f 5;
#X obj 567 79 f;
#X obj 544 58 bng 15 250 50 0 empty empty write -35 7 0 10 -262144
-1 -1;
#X obj 550 148 f;
#X obj 549 126 bng 15 250 50 0 empty empty send -30 7 0 10 -262144
-1 -1;
#X floatatom 568 107 5 0 0 0 - - -, f 5;
#X floatatom 551 175 5 0 0 0 sendIT≠T - sendIT≠T, f 5;
#X floatatom 404 26 5 0 0 0 receive_ITA%ITA ITA%ITA -, f 5;
#X obj 397 79 f;
#X obj 374 58 bng 15 250 50 0 empty empty write -35 7 0 10 -262144
-1 -1;
#X obj 380 148 f;
#X obj 379 126 bng 15 250 50 0 empty empty send -30 7 0 10 -262144
-1 -1;
#X floatatom 398 107 5 0 0 0 - - -, f 5;
#X floatatom 381 175 5 0 0 0 sendITA%ITA - sendITA%ITA, f 5;
#X floatatom 1310 220 5 0 0 0 receive_TprogA TprogA -, f 5;
#X obj 1304 272 f;
#X obj 1271 251 bng 15 250 50 0 empty empty write -35 7 0 10 -262144
-1 -1;
#X obj 1287 341 f;
#X obj 1276 319 bng 15 250 50 0 empty empty send -30 7 0 10 -262144
-1 -1;
#X floatatom 1305 300 5 0 0 0 - - -, f 5;
#X floatatom 1289 367 5 0 0 0 send_TprogA - send_TprogA, f 5;
#X floatatom 1456 220 5 0 0 0 receive_T#stepA T#stepA -, f 5;
#X obj 1450 272 f;
#X obj 1427 251 bng 15 250 50 0 empty empty write -35 7 0 10 -262144
-1 -1;
#X obj 1433 341 f;
#X obj 1432 319 bng 15 250 50 0 empty empty send -30 7 0 10 -262144
-1 -1;
#X floatatom 1451 300 5 0 0 0 - - -, f 5;
#X floatatom 1435 367 5 0 0 0 send_T#stepA_ - send_T#stepA, f 5;
#X floatatom 1592 220 5 0 0 0 receive_T1A T1A -, f 5;
#X obj 1586 272 f;
#X obj 1563 251 bng 15 250 50 0 empty empty write -35 7 0 10 -262144
-1 -1;
#X obj 1569 341 f;
#X obj 1568 319 bng 15 250 50 0 empty empty send -30 7 0 10 -262144
-1 -1;
#X floatatom 1587 300 5 0 0 0 - - -, f 5;
#X floatatom 1571 367 5 0 0 0 send_T1A - send_T1A, f 5;
#X floatatom 1732 220 5 0 0 0 receive_T2A T2A -, f 5;
#X obj 1726 272 f;
#X obj 1703 251 bng 15 250 50 0 empty empty write -35 7 0 10 -262144
-1 -1;
#X obj 1709 341 f;
#X obj 1708 319 bng 15 250 50 0 empty empty send -30 7 0 10 -262144
-1 -1;
#X floatatom 1727 300 5 0 0 0 - - -, f 5;
#X floatatom 1711 367 5 0 0 0 send_T2A - send_T2A, f 5;
#X floatatom 1872 220 5 0 0 0 receive_T3A T3A -, f 5;
#X obj 1866 272 f;
#X obj 1843 251 bng 15 250 50 0 empty empty write -35 7 0 10 -262144
-1 -1;
#X obj 1849 341 f;
#X obj 1848 319 bng 15 250 50 0 empty empty send -30 7 0 10 -262144
-1 -1;
#X floatatom 1867 300 5 0 0 0 - - -, f 5;
#X floatatom 1851 367 5 0 0 0 send_T3A - send_T3A, f 5;
#X floatatom 2252 220 5 0 0 0 receive_T6A T6A -, f 5;
#X obj 2246 272 f;
#X obj 2223 251 bng 15 250 50 0 empty empty write -35 7 0 10 -262144
-1 -1;
#X obj 2229 341 f;
#X obj 2228 319 bng 15 250 50 0 empty empty send -30 7 0 10 -262144
-1 -1;
#X floatatom 2247 300 5 0 0 0 - - -, f 5;
#X floatatom 2231 367 5 0 0 0 send_T6A - send_T6A, f 5;
#X floatatom 2382 220 5 0 0 0 receive_T7A T7A -, f 5;
#X obj 2376 272 f;
#X obj 2353 251 bng 15 250 50 0 empty empty write -35 7 0 10 -262144
-1 -1;
#X obj 2359 341 f;
#X obj 2358 319 bng 15 250 50 0 empty empty send -30 7 0 10 -262144
-1 -1;
#X floatatom 2377 300 5 0 0 0 - - -, f 5;
#X floatatom 2361 367 5 0 0 0 send_T7A - send_T7A, f 5;
#X floatatom 2522 220 5 0 0 0 receive_T8A T8A -, f 5;
#X obj 2516 272 f;
#X obj 2493 251 bng 15 250 50 0 empty empty write -35 7 0 10 -262144
-1 -1;
#X obj 2499 341 f;
#X obj 2498 319 bng 15 250 50 0 empty empty send -30 7 0 10 -262144
-1 -1;
#X floatatom 2517 300 5 0 0 0 - - -, f 5;
#X floatatom 2501 367 5 0 0 0 send_T8A - send_T8A, f 5;
#X floatatom 2663 220 5 0 0 0 receive_T9A T9A -, f 5;
#X obj 2657 272 f;
#X obj 2634 251 bng 15 250 50 0 empty empty write -35 7 0 10 -262144
-1 -1;
#X obj 2640 341 f;
#X obj 2639 319 bng 15 250 50 0 empty empty send -30 7 0 10 -262144
-1 -1;
#X floatatom 2658 300 5 0 0 0 - - -, f 5;
#X floatatom 2641 367 5 0 0 0 send_T9A - send_T9A, f 5;
#X floatatom 2803 220 5 0 0 0 receive_T10A T10A -, f 5;
#X obj 2797 272 f;
#X obj 2774 251 bng 15 250 50 0 empty empty write -35 7 0 10 -262144
-1 -1;
#X obj 2780 341 f;
#X obj 2779 319 bng 15 250 50 0 empty empty send -30 7 0 10 -262144
-1 -1;
#X floatatom 2798 300 5 0 0 0 - - -, f 5;
#X floatatom 2783 367 5 0 0 0 send_T10A - send_T10A, f 5;
#X floatatom 2933 220 5 0 0 0 receive_T11A T11A -, f 5;
#X obj 2927 272 f;
#X obj 2904 251 bng 15 250 50 0 empty empty write -35 7 0 10 -262144
-1 -1;
#X obj 2910 341 f;
#X obj 2909 319 bng 15 250 50 0 empty empty send -30 7 0 10 -262144
-1 -1;
#X floatatom 2928 300 5 0 0 0 - - -, f 5;
#X floatatom 2912 367 5 0 0 0 send_T11A - send_T11A, f 5;
#X floatatom 3073 220 5 0 0 0 receive_T12A T12A -, f 5;
#X obj 3067 272 f;
#X obj 3044 251 bng 15 250 50 0 empty empty write -35 7 0 10 -262144
-1 -1;
#X obj 3050 341 f;
#X obj 3049 319 bng 15 250 50 0 empty empty send -30 7 0 10 -262144
-1 -1;
#X floatatom 3068 300 5 0 0 0 - - -, f 5;
#X floatatom 3052 367 5 0 0 0 send_T12A - send_T12A, f 5;
#X floatatom 3213 220 5 0 0 0 receive_T13A T13A -, f 5;
#X obj 3207 272 f;
#X obj 3184 251 bng 15 250 50 0 empty empty write -35 7 0 10 -262144
-1 -1;
#X obj 3190 341 f;
#X obj 3189 319 bng 15 250 50 0 empty empty send -30 7 0 10 -262144
-1 -1;
#X floatatom 3208 300 5 0 0 0 - - -, f 5;
#X floatatom 3192 367 5 0 0 0 send_T13A - send_T13A, f 5;
#X floatatom 3353 220 5 0 0 0 receive_T14A T14A -, f 5;
#X obj 3347 272 f;
#X obj 3324 251 bng 15 250 50 0 empty empty write -35 7 0 10 -262144
-1 -1;
#X obj 3330 341 f;
#X obj 3329 319 bng 15 250 50 0 empty empty send -30 7 0 10 -262144
-1 -1;
#X floatatom 3348 300 5 0 0 0 - - -, f 5;
#X floatatom 3331 367 5 0 0 0 send_T14A - send_T14A, f 5;
#X floatatom 3483 220 5 0 0 0 receive_T15A T15A -, f 5;
#X obj 3477 272 f;
#X obj 3454 251 bng 15 250 50 0 empty empty write -35 7 0 10 -262144
-1 -1;
#X obj 3460 341 f;
#X obj 3459 319 bng 15 250 50 0 empty empty send -30 7 0 10 -262144
-1 -1;
#X floatatom 3478 300 5 0 0 0 - - -, f 5;
#X floatatom 3462 367 5 0 0 0 send_T15A - send_T15A, f 5;
#X floatatom 3622 220 5 0 0 0 receive_T16A T16A -, f 5;
#X obj 3617 272 f;
#X obj 3594 251 bng 15 250 50 0 empty empty write -35 7 0 10 -262144
-1 -1;
#X obj 3600 341 f;
#X obj 3599 319 bng 15 250 50 0 empty empty send -30 7 0 10 -262144
-1 -1;
#X floatatom 3618 300 5 0 0 0 - - -, f 5;
#X floatatom 3602 367 5 0 0 0 send_T16A - send_T16A, f 5;
#X floatatom 881 219 5 0 0 0 receive_TXTA TXTA -, f 5;
#X obj 874 272 f;
#X obj 851 251 bng 15 250 50 0 empty empty write -35 7 0 10 -262144
-1 -1;
#X obj 857 341 f;
#X obj 856 319 bng 15 250 50 0 empty empty send -30 7 0 10 -262144
-1 -1;
#X floatatom 875 300 5 0 0 0 - - -, f 5;
#X floatatom 858 368 5 0 0 0 send_TXTA - send_TXTA, f 5;
#X floatatom 1030 220 5 0 0 0 receive_Trgr-tA Trgr-tA -, f 5;
#X obj 1024 272 f;
#X obj 1001 251 bng 15 250 50 0 empty empty write -35 7 0 10 -262144
-1 -1;
#X obj 1007 341 f;
#X obj 1006 319 bng 15 250 50 0 empty empty send -30 7 0 10 -262144
-1 -1;
#X floatatom 1025 300 5 0 0 0 - - -, f 5;
#X floatatom 1009 367 5 0 0 0 send_Trgr-tA - send_Trgr-tA, f 5;
#X floatatom 1170 220 5 0 0 0 receive_tA tA -, f 5;
#X obj 1164 272 f;
#X obj 1141 251 bng 15 250 50 0 empty empty write -35 7 0 10 -262144
-1 -1;
#X obj 1147 341 f;
#X obj 1146 319 bng 15 250 50 0 empty empty send -30 7 0 10 -262144
-1 -1;
#X floatatom 1165 300 5 0 0 0 - - -, f 5;
#X floatatom 1149 367 5 0 0 0 send_tA - send_tA, f 5;
#X floatatom 1991 220 5 0 0 0 receive_T4A T4A -, f 5;
#X obj 1985 272 f;
#X obj 1962 251 bng 15 250 50 0 empty empty write -35 7 0 10 -262144
-1 -1;
#X obj 1968 341 f;
#X obj 1967 319 bng 15 250 50 0 empty empty send -30 7 0 10 -262144
-1 -1;
#X floatatom 1986 300 5 0 0 0 - - -, f 5;
#X floatatom 1970 367 5 0 0 0 send_T4A - send_T4A, f 5;
#X floatatom 2131 220 5 0 0 0 receive_T5A T5A -, f 5;
#X obj 2125 272 f;
#X obj 2102 251 bng 15 250 50 0 empty empty write -35 7 0 10 -262144
-1 -1;
#X obj 2108 341 f;
#X obj 2107 319 bng 15 250 50 0 empty empty send -30 7 0 10 -262144
-1 -1;
#X floatatom 2126 300 5 0 0 0 - - -, f 5;
#X floatatom 2110 367 5 0 0 0 send_T5A - send_T5A, f 5;
#X floatatom 731 219 5 0 0 0 receive_IT≠T IT≠T -, f 5;
#X obj 724 272 f;
#X obj 701 251 bng 15 250 50 0 empty empty write -35 7 0 10 -262144
-1 -1;
#X obj 707 341 f;
#X obj 706 319 bng 15 250 50 0 empty empty send -30 7 0 10 -262144
-1 -1;
#X floatatom 725 300 5 0 0 0 - - -, f 5;
#X floatatom 708 368 5 0 0 0 send_T≠T - sendT≠T, f 5;
#X floatatom 571 219 5 0 0 0 receive_IT≠T1 IT≠T1 -, f 5;
#X obj 564 272 f;
#X obj 541 251 bng 15 250 50 0 empty empty write -35 7 0 10 -262144
-1 -1;
#X obj 547 341 f;
#X obj 546 319 bng 15 250 50 0 empty empty send -30 7 0 10 -262144
-1 -1;
#X floatatom 565 300 5 0 0 0 - - -, f 5;
#X floatatom 548 368 5 0 0 0 sendIT≠T - sendIT≠T, f 5;
#X floatatom 401 219 5 0 0 0 receive_ITA%ITA ITA%ITA -, f 5;
#X obj 394 272 f;
#X obj 371 251 bng 15 250 50 0 empty empty write -35 7 0 10 -262144
-1 -1;
#X obj 377 341 f;
#X obj 376 319 bng 15 250 50 0 empty empty send -30 7 0 10 -262144
-1 -1;
#X floatatom 395 300 5 0 0 0 - - -, f 5;
#X floatatom 378 368 5 0 0 0 sendITA%ITA - sendITA%ITA, f 5;
#X floatatom 1282 429 5 0 0 0 receive_TprogA TprogA -, f 5;
#X obj 1276 481 f;
#X obj 1243 460 bng 15 250 50 0 empty empty write -35 7 0 10 -262144
-1 -1;
#X obj 1259 550 f;
#X obj 1248 528 bng 15 250 50 0 empty empty send -30 7 0 10 -262144
-1 -1;
#X floatatom 1277 509 5 0 0 0 - - -, f 5;
#X floatatom 1261 576 5 0 0 0 send_TprogA - send_TprogA, f 5;
#X floatatom 1428 429 5 0 0 0 receive_T#stepA T#stepA -, f 5;
#X obj 1422 481 f;
#X obj 1399 460 bng 15 250 50 0 empty empty write -35 7 0 10 -262144
-1 -1;
#X obj 1405 550 f;
#X obj 1404 528 bng 15 250 50 0 empty empty send -30 7 0 10 -262144
-1 -1;
#X floatatom 1423 509 5 0 0 0 - - -, f 5;
#X floatatom 1407 576 5 0 0 0 send_T#stepA_ - send_T#stepA, f 5;
#X floatatom 1564 429 5 0 0 0 receive_T1A T1A -, f 5;
#X obj 1558 481 f;
#X obj 1535 460 bng 15 250 50 0 empty empty write -35 7 0 10 -262144
-1 -1;
#X obj 1541 550 f;
#X obj 1540 528 bng 15 250 50 0 empty empty send -30 7 0 10 -262144
-1 -1;
#X floatatom 1559 509 5 0 0 0 - - -, f 5;
#X floatatom 1543 576 5 0 0 0 send_T1A - send_T1A, f 5;
#X floatatom 1704 429 5 0 0 0 receive_T2A T2A -, f 5;
#X obj 1698 481 f;
#X obj 1675 460 bng 15 250 50 0 empty empty write -35 7 0 10 -262144
-1 -1;
#X obj 1681 550 f;
#X obj 1680 528 bng 15 250 50 0 empty empty send -30 7 0 10 -262144
-1 -1;
#X floatatom 1699 509 5 0 0 0 - - -, f 5;
#X floatatom 1683 576 5 0 0 0 send_T2A - send_T2A, f 5;
#X floatatom 1844 429 5 0 0 0 receive_T3A T3A -, f 5;
#X obj 1838 481 f;
#X obj 1815 460 bng 15 250 50 0 empty empty write -35 7 0 10 -262144
-1 -1;
#X obj 1821 550 f;
#X obj 1820 528 bng 15 250 50 0 empty empty send -30 7 0 10 -262144
-1 -1;
#X floatatom 1839 509 5 0 0 0 - - -, f 5;
#X floatatom 1823 576 5 0 0 0 send_T3A - send_T3A, f 5;
#X floatatom 2224 429 5 0 0 0 receive_T6A T6A -, f 5;
#X obj 2218 481 f;
#X obj 2195 460 bng 15 250 50 0 empty empty write -35 7 0 10 -262144
-1 -1;
#X obj 2201 550 f;
#X obj 2200 528 bng 15 250 50 0 empty empty send -30 7 0 10 -262144
-1 -1;
#X floatatom 2219 509 5 0 0 0 - - -, f 5;
#X floatatom 2203 576 5 0 0 0 send_T6A - send_T6A, f 5;
#X floatatom 2354 429 5 0 0 0 receive_T7A T7A -, f 5;
#X obj 2348 481 f;
#X obj 2325 460 bng 15 250 50 0 empty empty write -35 7 0 10 -262144
-1 -1;
#X obj 2331 550 f;
#X obj 2330 528 bng 15 250 50 0 empty empty send -30 7 0 10 -262144
-1 -1;
#X floatatom 2349 509 5 0 0 0 - - -, f 5;
#X floatatom 2333 576 5 0 0 0 send_T7A - send_T7A, f 5;
#X floatatom 2494 429 5 0 0 0 receive_T8A T8A -, f 5;
#X obj 2488 481 f;
#X obj 2465 460 bng 15 250 50 0 empty empty write -35 7 0 10 -262144
-1 -1;
#X obj 2471 550 f;
#X obj 2470 528 bng 15 250 50 0 empty empty send -30 7 0 10 -262144
-1 -1;
#X floatatom 2489 509 5 0 0 0 - - -, f 5;
#X floatatom 2473 576 5 0 0 0 send_T8A - send_T8A, f 5;
#X floatatom 2635 429 5 0 0 0 receive_T9A T9A -, f 5;
#X obj 2629 481 f;
#X obj 2606 460 bng 15 250 50 0 empty empty write -35 7 0 10 -262144
-1 -1;
#X obj 2612 550 f;
#X obj 2611 528 bng 15 250 50 0 empty empty send -30 7 0 10 -262144
-1 -1;
#X floatatom 2630 509 5 0 0 0 - - -, f 5;
#X floatatom 2613 576 5 0 0 0 send_T9A - send_T9A, f 5;
#X floatatom 2775 429 5 0 0 0 receive_T10A T10A -, f 5;
#X obj 2769 481 f;
#X obj 2746 460 bng 15 250 50 0 empty empty write -35 7 0 10 -262144
-1 -1;
#X obj 2752 550 f;
#X obj 2751 528 bng 15 250 50 0 empty empty send -30 7 0 10 -262144
-1 -1;
#X floatatom 2770 509 5 0 0 0 - - -, f 5;
#X floatatom 2755 576 5 0 0 0 send_T10A - send_T10A, f 5;
#X floatatom 2905 429 5 0 0 0 receive_T11A T11A -, f 5;
#X obj 2899 481 f;
#X obj 2876 460 bng 15 250 50 0 empty empty write -35 7 0 10 -262144
-1 -1;
#X obj 2882 550 f;
#X obj 2881 528 bng 15 250 50 0 empty empty send -30 7 0 10 -262144
-1 -1;
#X floatatom 2900 509 5 0 0 0 - - -, f 5;
#X floatatom 2884 576 5 0 0 0 send_T11A - send_T11A, f 5;
#X floatatom 3045 429 5 0 0 0 receive_T12A T12A -, f 5;
#X obj 3039 481 f;
#X obj 3016 460 bng 15 250 50 0 empty empty write -35 7 0 10 -262144
-1 -1;
#X obj 3022 550 f;
#X obj 3021 528 bng 15 250 50 0 empty empty send -30 7 0 10 -262144
-1 -1;
#X floatatom 3040 509 5 0 0 0 - - -, f 5;
#X floatatom 3024 576 5 0 0 0 send_T12A - send_T12A, f 5;
#X floatatom 3185 429 5 0 0 0 receive_T13A T13A -, f 5;
#X obj 3179 481 f;
#X obj 3156 460 bng 15 250 50 0 empty empty write -35 7 0 10 -262144
-1 -1;
#X obj 3162 550 f;
#X obj 3161 528 bng 15 250 50 0 empty empty send -30 7 0 10 -262144
-1 -1;
#X floatatom 3180 509 5 0 0 0 - - -, f 5;
#X floatatom 3164 576 5 0 0 0 send_T13A - send_T13A, f 5;
#X floatatom 3325 429 5 0 0 0 receive_T14A T14A -, f 5;
#X obj 3319 481 f;
#X obj 3296 460 bng 15 250 50 0 empty empty write -35 7 0 10 -262144
-1 -1;
#X obj 3302 550 f;
#X obj 3301 528 bng 15 250 50 0 empty empty send -30 7 0 10 -262144
-1 -1;
#X floatatom 3320 509 5 0 0 0 - - -, f 5;
#X floatatom 3303 576 5 0 0 0 send_T14A - send_T14A, f 5;
#X floatatom 3455 429 5 0 0 0 receive_T15A T15A -, f 5;
#X obj 3449 481 f;
#X obj 3426 460 bng 15 250 50 0 empty empty write -35 7 0 10 -262144
-1 -1;
#X obj 3432 550 f;
#X obj 3431 528 bng 15 250 50 0 empty empty send -30 7 0 10 -262144
-1 -1;
#X floatatom 3450 509 5 0 0 0 - - -, f 5;
#X floatatom 3434 576 5 0 0 0 send_T15A - send_T15A, f 5;
#X floatatom 3594 429 5 0 0 0 receive_T16A T16A -, f 5;
#X obj 3589 481 f;
#X obj 3566 460 bng 15 250 50 0 empty empty write -35 7 0 10 -262144
-1 -1;
#X obj 3572 550 f;
#X obj 3571 528 bng 15 250 50 0 empty empty send -30 7 0 10 -262144
-1 -1;
#X floatatom 3590 509 5 0 0 0 - - -, f 5;
#X floatatom 3574 576 5 0 0 0 send_T16A - send_T16A, f 5;
#X floatatom 853 428 5 0 0 0 receive_TXTA TXTA -, f 5;
#X obj 846 481 f;
#X obj 823 460 bng 15 250 50 0 empty empty write -35 7 0 10 -262144
-1 -1;
#X obj 829 550 f;
#X obj 828 528 bng 15 250 50 0 empty empty send -30 7 0 10 -262144
-1 -1;
#X floatatom 847 509 5 0 0 0 - - -, f 5;
#X floatatom 830 577 5 0 0 0 send_TXTA - send_TXTA, f 5;
#X floatatom 1002 429 5 0 0 0 receive_Trgr-tA Trgr-tA -, f 5;
#X obj 996 481 f;
#X obj 973 460 bng 15 250 50 0 empty empty write -35 7 0 10 -262144
-1 -1;
#X obj 979 550 f;
#X obj 978 528 bng 15 250 50 0 empty empty send -30 7 0 10 -262144
-1 -1;
#X floatatom 997 509 5 0 0 0 - - -, f 5;
#X floatatom 981 576 5 0 0 0 send_Trgr-tA - send_Trgr-tA, f 5;
#X floatatom 1142 429 5 0 0 0 receive_tA tA -, f 5;
#X obj 1136 481 f;
#X obj 1113 460 bng 15 250 50 0 empty empty write -35 7 0 10 -262144
-1 -1;
#X obj 1119 550 f;
#X obj 1118 528 bng 15 250 50 0 empty empty send -30 7 0 10 -262144
-1 -1;
#X floatatom 1137 509 5 0 0 0 - - -, f 5;
#X floatatom 1121 576 5 0 0 0 send_tA - send_tA, f 5;
#X floatatom 1963 429 5 0 0 0 receive_T4A T4A -, f 5;
#X obj 1957 481 f;
#X obj 1934 460 bng 15 250 50 0 empty empty write -35 7 0 10 -262144
-1 -1;
#X obj 1940 550 f;
#X obj 1939 528 bng 15 250 50 0 empty empty send -30 7 0 10 -262144
-1 -1;
#X floatatom 1958 509 5 0 0 0 - - -, f 5;
#X floatatom 1942 576 5 0 0 0 send_T4A - send_T4A, f 5;
#X floatatom 2103 429 5 0 0 0 receive_T5A T5A -, f 5;
#X obj 2097 481 f;
#X obj 2074 460 bng 15 250 50 0 empty empty write -35 7 0 10 -262144
-1 -1;
#X obj 2080 550 f;
#X obj 2079 528 bng 15 250 50 0 empty empty send -30 7 0 10 -262144
-1 -1;
#X floatatom 2098 509 5 0 0 0 - - -, f 5;
#X floatatom 2082 576 5 0 0 0 send_T5A - send_T5A, f 5;
#X floatatom 703 428 5 0 0 0 receive_IT≠T IT≠T -, f 5;
#X obj 696 481 f;
#X obj 673 460 bng 15 250 50 0 empty empty write -35 7 0 10 -262144
-1 -1;
#X obj 679 550 f;
#X obj 678 528 bng 15 250 50 0 empty empty send -30 7 0 10 -262144
-1 -1;
#X floatatom 697 509 5 0 0 0 - - -, f 5;
#X floatatom 680 577 5 0 0 0 send_T≠T - sendT≠T, f 5;
#X floatatom 543 428 5 0 0 0 receive_IT≠T1 IT≠T1 -, f 5;
#X obj 536 481 f;
#X obj 513 460 bng 15 250 50 0 empty empty write -35 7 0 10 -262144
-1 -1;
#X obj 519 550 f;
#X obj 518 528 bng 15 250 50 0 empty empty send -30 7 0 10 -262144
-1 -1;
#X floatatom 537 509 5 0 0 0 - - -, f 5;
#X floatatom 520 577 5 0 0 0 sendIT≠T - sendIT≠T, f 5;
#X floatatom 373 428 5 0 0 0 receive_ITA%ITA ITA%ITA -, f 5;
#X obj 366 481 f;
#X obj 343 460 bng 15 250 50 0 empty empty write -35 7 0 10 -262144
-1 -1;
#X obj 349 550 f;
#X obj 348 528 bng 15 250 50 0 empty empty send -30 7 0 10 -262144
-1 -1;
#X floatatom 367 509 5 0 0 0 - - -, f 5;
#X floatatom 350 577 5 0 0 0 sendITA%ITA - sendITA%ITA, f 5;
#X floatatom 1279 622 5 0 0 0 receive_TprogA TprogA -, f 5;
#X obj 1273 674 f;
#X obj 1240 653 bng 15 250 50 0 empty empty write -35 7 0 10 -262144
-1 -1;
#X obj 1256 743 f;
#X obj 1245 721 bng 15 250 50 0 empty empty send -30 7 0 10 -262144
-1 -1;
#X floatatom 1274 702 5 0 0 0 - - -, f 5;
#X floatatom 1258 769 5 0 0 0 send_TprogA - send_TprogA, f 5;
#X floatatom 1425 622 5 0 0 0 receive_T#stepA T#stepA -, f 5;
#X obj 1419 674 f;
#X obj 1396 653 bng 15 250 50 0 empty empty write -35 7 0 10 -262144
-1 -1;
#X obj 1402 743 f;
#X obj 1401 721 bng 15 250 50 0 empty empty send -30 7 0 10 -262144
-1 -1;
#X floatatom 1420 702 5 0 0 0 - - -, f 5;
#X floatatom 1404 769 5 0 0 0 send_T#stepA_ - send_T#stepA, f 5;
#X floatatom 1561 622 5 0 0 0 receive_T1A T1A -, f 5;
#X obj 1555 674 f;
#X obj 1532 653 bng 15 250 50 0 empty empty write -35 7 0 10 -262144
-1 -1;
#X obj 1538 743 f;
#X obj 1537 721 bng 15 250 50 0 empty empty send -30 7 0 10 -262144
-1 -1;
#X floatatom 1556 702 5 0 0 0 - - -, f 5;
#X floatatom 1540 769 5 0 0 0 send_T1A - send_T1A, f 5;
#X floatatom 1701 622 5 0 0 0 receive_T2A T2A -, f 5;
#X obj 1695 674 f;
#X obj 1672 653 bng 15 250 50 0 empty empty write -35 7 0 10 -262144
-1 -1;
#X obj 1678 743 f;
#X obj 1677 721 bng 15 250 50 0 empty empty send -30 7 0 10 -262144
-1 -1;
#X floatatom 1696 702 5 0 0 0 - - -, f 5;
#X floatatom 1680 769 5 0 0 0 send_T2A - send_T2A, f 5;
#X floatatom 1841 622 5 0 0 0 receive_T3A T3A -, f 5;
#X obj 1835 674 f;
#X obj 1812 653 bng 15 250 50 0 empty empty write -35 7 0 10 -262144
-1 -1;
#X obj 1818 743 f;
#X obj 1817 721 bng 15 250 50 0 empty empty send -30 7 0 10 -262144
-1 -1;
#X floatatom 1836 702 5 0 0 0 - - -, f 5;
#X floatatom 1820 769 5 0 0 0 send_T3A - send_T3A, f 5;
#X floatatom 2221 622 5 0 0 0 receive_T6A T6A -, f 5;
#X obj 2215 674 f;
#X obj 2192 653 bng 15 250 50 0 empty empty write -35 7 0 10 -262144
-1 -1;
#X obj 2198 743 f;
#X obj 2197 721 bng 15 250 50 0 empty empty send -30 7 0 10 -262144
-1 -1;
#X floatatom 2216 702 5 0 0 0 - - -, f 5;
#X floatatom 2200 769 5 0 0 0 send_T6A - send_T6A, f 5;
#X floatatom 2351 622 5 0 0 0 receive_T7A T7A -, f 5;
#X obj 2345 674 f;
#X obj 2322 653 bng 15 250 50 0 empty empty write -35 7 0 10 -262144
-1 -1;
#X obj 2328 743 f;
#X obj 2327 721 bng 15 250 50 0 empty empty send -30 7 0 10 -262144
-1 -1;
#X floatatom 2346 702 5 0 0 0 - - -, f 5;
#X floatatom 2330 769 5 0 0 0 send_T7A - send_T7A, f 5;
#X floatatom 2491 622 5 0 0 0 receive_T8A T8A -, f 5;
#X obj 2485 674 f;
#X obj 2462 653 bng 15 250 50 0 empty empty write -35 7 0 10 -262144
-1 -1;
#X obj 2468 743 f;
#X obj 2467 721 bng 15 250 50 0 empty empty send -30 7 0 10 -262144
-1 -1;
#X floatatom 2486 702 5 0 0 0 - - -, f 5;
#X floatatom 2470 769 5 0 0 0 send_T8A - send_T8A, f 5;
#X floatatom 2632 622 5 0 0 0 receive_T9A T9A -, f 5;
#X obj 2626 674 f;
#X obj 2603 653 bng 15 250 50 0 empty empty write -35 7 0 10 -262144
-1 -1;
#X obj 2609 743 f;
#X obj 2608 721 bng 15 250 50 0 empty empty send -30 7 0 10 -262144
-1 -1;
#X floatatom 2627 702 5 0 0 0 - - -, f 5;
#X floatatom 2610 769 5 0 0 0 send_T9A - send_T9A, f 5;
#X floatatom 2772 622 5 0 0 0 receive_T10A T10A -, f 5;
#X obj 2766 674 f;
#X obj 2743 653 bng 15 250 50 0 empty empty write -35 7 0 10 -262144
-1 -1;
#X obj 2749 743 f;
#X obj 2748 721 bng 15 250 50 0 empty empty send -30 7 0 10 -262144
-1 -1;
#X floatatom 2767 702 5 0 0 0 - - -, f 5;
#X floatatom 2752 769 5 0 0 0 send_T10A - send_T10A, f 5;
#X floatatom 2902 622 5 0 0 0 receive_T11A T11A -, f 5;
#X obj 2896 674 f;
#X obj 2873 653 bng 15 250 50 0 empty empty write -35 7 0 10 -262144
-1 -1;
#X obj 2879 743 f;
#X obj 2878 721 bng 15 250 50 0 empty empty send -30 7 0 10 -262144
-1 -1;
#X floatatom 2897 702 5 0 0 0 - - -, f 5;
#X floatatom 2881 769 5 0 0 0 send_T11A - send_T11A, f 5;
#X floatatom 3042 622 5 0 0 0 receive_T12A T12A -, f 5;
#X obj 3036 674 f;
#X obj 3013 653 bng 15 250 50 0 empty empty write -35 7 0 10 -262144
-1 -1;
#X obj 3019 743 f;
#X obj 3018 721 bng 15 250 50 0 empty empty send -30 7 0 10 -262144
-1 -1;
#X floatatom 3037 702 5 0 0 0 - - -, f 5;
#X floatatom 3021 769 5 0 0 0 send_T12A - send_T12A, f 5;
#X floatatom 3182 622 5 0 0 0 receive_T13A T13A -, f 5;
#X obj 3176 674 f;
#X obj 3153 653 bng 15 250 50 0 empty empty write -35 7 0 10 -262144
-1 -1;
#X obj 3159 743 f;
#X obj 3158 721 bng 15 250 50 0 empty empty send -30 7 0 10 -262144
-1 -1;
#X floatatom 3177 702 5 0 0 0 - - -, f 5;
#X floatatom 3161 769 5 0 0 0 send_T13A - send_T13A, f 5;
#X floatatom 3322 622 5 0 0 0 receive_T14A T14A -, f 5;
#X obj 3316 674 f;
#X obj 3293 653 bng 15 250 50 0 empty empty write -35 7 0 10 -262144
-1 -1;
#X obj 3299 743 f;
#X obj 3298 721 bng 15 250 50 0 empty empty send -30 7 0 10 -262144
-1 -1;
#X floatatom 3317 702 5 0 0 0 - - -, f 5;
#X floatatom 3300 769 5 0 0 0 send_T14A - send_T14A, f 5;
#X floatatom 3452 622 5 0 0 0 receive_T15A T15A -, f 5;
#X obj 3446 674 f;
#X obj 3423 653 bng 15 250 50 0 empty empty write -35 7 0 10 -262144
-1 -1;
#X obj 3429 743 f;
#X obj 3428 721 bng 15 250 50 0 empty empty send -30 7 0 10 -262144
-1 -1;
#X floatatom 3447 702 5 0 0 0 - - -, f 5;
#X floatatom 3431 769 5 0 0 0 send_T15A - send_T15A, f 5;
#X floatatom 3591 622 5 0 0 0 receive_T16A T16A -, f 5;
#X obj 3586 674 f;
#X obj 3563 653 bng 15 250 50 0 empty empty write -35 7 0 10 -262144
-1 -1;
#X obj 3569 743 f;
#X obj 3568 721 bng 15 250 50 0 empty empty send -30 7 0 10 -262144
-1 -1;
#X floatatom 3587 702 5 0 0 0 - - -, f 5;
#X floatatom 3571 769 5 0 0 0 send_T16A - send_T16A, f 5;
#X floatatom 850 621 5 0 0 0 receive_TXTA TXTA -, f 5;
#X obj 843 674 f;
#X obj 820 653 bng 15 250 50 0 empty empty write -35 7 0 10 -262144
-1 -1;
#X obj 826 743 f;
#X obj 825 721 bng 15 250 50 0 empty empty send -30 7 0 10 -262144
-1 -1;
#X floatatom 844 702 5 0 0 0 - - -, f 5;
#X floatatom 827 770 5 0 0 0 send_TXTA - send_TXTA, f 5;
#X floatatom 999 622 5 0 0 0 receive_Trgr-tA Trgr-tA -, f 5;
#X obj 993 674 f;
#X obj 970 653 bng 15 250 50 0 empty empty write -35 7 0 10 -262144
-1 -1;
#X obj 976 743 f;
#X obj 975 721 bng 15 250 50 0 empty empty send -30 7 0 10 -262144
-1 -1;
#X floatatom 994 702 5 0 0 0 - - -, f 5;
#X floatatom 978 769 5 0 0 0 send_Trgr-tA - send_Trgr-tA, f 5;
#X floatatom 1139 622 5 0 0 0 receive_tA tA -, f 5;
#X obj 1133 674 f;
#X obj 1110 653 bng 15 250 50 0 empty empty write -35 7 0 10 -262144
-1 -1;
#X obj 1116 743 f;
#X obj 1115 721 bng 15 250 50 0 empty empty send -30 7 0 10 -262144
-1 -1;
#X floatatom 1134 702 5 0 0 0 - - -, f 5;
#X floatatom 1118 769 5 0 0 0 send_tA - send_tA, f 5;
#X floatatom 1960 622 5 0 0 0 receive_T4A T4A -, f 5;
#X obj 1954 674 f;
#X obj 1931 653 bng 15 250 50 0 empty empty write -35 7 0 10 -262144
-1 -1;
#X obj 1937 743 f;
#X obj 1936 721 bng 15 250 50 0 empty empty send -30 7 0 10 -262144
-1 -1;
#X floatatom 1955 702 5 0 0 0 - - -, f 5;
#X floatatom 1939 769 5 0 0 0 send_T4A - send_T4A, f 5;
#X floatatom 2100 622 5 0 0 0 receive_T5A T5A -, f 5;
#X obj 2094 674 f;
#X obj 2071 653 bng 15 250 50 0 empty empty write -35 7 0 10 -262144
-1 -1;
#X obj 2077 743 f;
#X obj 2076 721 bng 15 250 50 0 empty empty send -30 7 0 10 -262144
-1 -1;
#X floatatom 2095 702 5 0 0 0 - - -, f 5;
#X floatatom 2079 769 5 0 0 0 send_T5A - send_T5A, f 5;
#X floatatom 700 621 5 0 0 0 receive_IT≠T IT≠T -, f 5;
#X obj 693 674 f;
#X obj 670 653 bng 15 250 50 0 empty empty write -35 7 0 10 -262144
-1 -1;
#X obj 676 743 f;
#X obj 675 721 bng 15 250 50 0 empty empty send -30 7 0 10 -262144
-1 -1;
#X floatatom 694 702 5 0 0 0 - - -, f 5;
#X floatatom 677 770 5 0 0 0 send_T≠T - sendT≠T, f 5;
#X floatatom 540 621 5 0 0 0 receive_IT≠T1 IT≠T1 -, f 5;
#X obj 533 674 f;
#X obj 510 653 bng 15 250 50 0 empty empty write -35 7 0 10 -262144
-1 -1;
#X obj 516 743 f;
#X obj 515 721 bng 15 250 50 0 empty empty send -30 7 0 10 -262144
-1 -1;
#X floatatom 534 702 5 0 0 0 - - -, f 5;
#X floatatom 517 770 5 0 0 0 sendIT≠T - sendIT≠T, f 5;
#X floatatom 370 621 5 0 0 0 receive_ITA%ITA ITA%ITA -, f 5;
#X obj 363 674 f;
#X obj 340 653 bng 15 250 50 0 empty empty write -35 7 0 10 -262144
-1 -1;
#X obj 346 743 f;
#X obj 345 721 bng 15 250 50 0 empty empty send -30 7 0 10 -262144
-1 -1;
#X floatatom 364 702 5 0 0 0 - - -, f 5;
#X floatatom 347 770 5 0 0 0 sendITA%ITA - sendITA%ITA, f 5;
#X connect 0 0 1 0;
#X connect 1 0 169 0;
#X connect 1 1 337 0;
#X connect 1 2 505 0;
#X connect 1 3 673 0;
#X connect 2 0 3 0;
#X connect 3 0 171 0;
#X connect 3 1 339 0;
#X connect 3 2 507 0;
#X connect 3 3 675 0;
#X connect 4 0 5 1;
#X connect 5 0 9 0;
#X connect 6 0 5 0;
#X connect 6 0 13 0;
#X connect 7 0 10 0;
#X connect 8 0 7 0;
#X connect 8 0 15 0;
#X connect 9 0 7 1;
#X connect 11 0 12 1;
#X connect 12 0 16 0;
#X connect 13 0 12 0;
#X connect 13 0 20 0;
#X connect 14 0 17 0;
#X connect 15 0 14 0;
#X connect 15 0 22 0;
#X connect 16 0 14 1;
#X connect 18 0 19 1;
#X connect 19 0 23 0;
#X connect 20 0 19 0;
#X connect 20 0 27 0;
#X connect 21 0 24 0;
#X connect 22 0 21 0;
#X connect 22 0 29 0;
#X connect 23 0 21 1;
#X connect 25 0 26 1;
#X connect 26 0 30 0;
#X connect 27 0 26 0;
#X connect 27 0 34 0;
#X connect 28 0 31 0;
#X connect 29 0 28 0;
#X connect 29 0 36 0;
#X connect 30 0 28 1;
#X connect 32 0 33 1;
#X connect 33 0 37 0;
#X connect 34 0 33 0;
#X connect 34 0 141 0;
#X connect 35 0 38 0;
#X connect 36 0 35 0;
#X connect 36 0 143 0;
#X connect 37 0 35 1;
#X connect 39 0 40 1;
#X connect 40 0 44 0;
#X connect 41 0 40 0;
#X connect 41 0 48 0;
#X connect 42 0 45 0;
#X connect 43 0 42 0;
#X connect 43 0 50 0;
#X connect 44 0 42 1;
#X connect 46 0 47 1;
#X connect 47 0 51 0;
#X connect 48 0 47 0;
#X connect 48 0 55 0;
#X connect 49 0 52 0;
#X connect 50 0 49 0;
#X connect 50 0 57 0;
#X connect 51 0 49 1;
#X connect 53 0 54 1;
#X connect 54 0 58 0;
#X connect 55 0 54 0;
#X connect 55 0 62 0;
#X connect 56 0 59 0;
#X connect 57 0 56 0;
#X connect 57 0 64 0;
#X connect 58 0 56 1;
#X connect 60 0 61 1;
#X connect 61 0 65 0;
#X connect 62 0 61 0;
#X connect 62 0 69 0;
#X connect 63 0 66 0;
#X connect 64 0 63 0;
#X connect 64 0 71 0;
#X connect 65 0 63 1;
#X connect 67 0 68 1;
#X connect 68 0 72 0;
#X connect 69 0 68 0;
#X connect 69 0 76 0;
#X connect 70 0 73 0;
#X connect 71 0 70 0;
#X connect 71 0 78 0;
#X connect 72 0 70 1;
#X connect 74 0 75 1;
#X connect 75 0 79 0;
#X connect 76 0 75 0;
#X connect 76 0 83 0;
#X connect 77 0 80 0;
#X connect 78 0 77 0;
#X connect 78 0 85 0;
#X connect 79 0 77 1;
#X connect 81 0 82 1;
#X connect 82 0 86 0;
#X connect 83 0 82 0;
#X connect 83 0 90 0;
#X connect 84 0 87 0;
#X connect 85 0 84 0;
#X connect 85 0 92 0;
#X connect 86 0 84 1;
#X connect 88 0 89 1;
#X connect 89 0 93 0;
#X connect 90 0 89 0;
#X connect 90 0 97 0;
#X connect 91 0 94 0;
#X connect 92 0 91 0;
#X connect 92 0 99 0;
#X connect 93 0 91 1;
#X connect 95 0 96 1;
#X connect 96 0 100 0;
#X connect 97 0 96 0;
#X connect 97 0 104 0;
#X connect 98 0 101 0;
#X connect 99 0 98 0;
#X connect 99 0 106 0;
#X connect 100 0 98 1;
#X connect 102 0 103 1;
#X connect 103 0 107 0;
#X connect 104 0 103 0;
#X connect 104 0 111 0;
#X connect 105 0 108 0;
#X connect 106 0 105 0;
#X connect 106 0 113 0;
#X connect 107 0 105 1;
#X connect 109 0 110 1;
#X connect 110 0 114 0;
#X connect 111 0 110 0;
#X connect 112 0 115 0;
#X connect 113 0 112 0;
#X connect 114 0 112 1;
#X connect 116 0 117 1;
#X connect 117 0 121 0;
#X connect 118 0 117 0;
#X connect 118 0 125 0;
#X connect 119 0 122 0;
#X connect 120 0 119 0;
#X connect 120 0 127 0;
#X connect 121 0 119 1;
#X connect 123 0 124 1;
#X connect 124 0 128 0;
#X connect 125 0 124 0;
#X connect 125 0 132 0;
#X connect 126 0 129 0;
#X connect 127 0 126 0;
#X connect 127 0 134 0;
#X connect 128 0 126 1;
#X connect 130 0 131 1;
#X connect 131 0 135 0;
#X connect 132 0 131 0;
#X connect 132 0 6 0;
#X connect 133 0 136 0;
#X connect 134 0 133 0;
#X connect 134 0 8 0;
#X connect 135 0 133 1;
#X connect 137 0 0 0;
#X connect 138 0 2 0;
#X connect 139 0 140 1;
#X connect 140 0 144 0;
#X connect 141 0 140 0;
#X connect 141 0 148 0;
#X connect 142 0 145 0;
#X connect 143 0 142 0;
#X connect 143 0 150 0;
#X connect 144 0 142 1;
#X connect 146 0 147 1;
#X connect 147 0 151 0;
#X connect 148 0 147 0;
#X connect 148 0 41 0;
#X connect 149 0 152 0;
#X connect 150 0 149 0;
#X connect 150 0 43 0;
#X connect 151 0 149 1;
#X connect 153 0 154 1;
#X connect 154 0 158 0;
#X connect 155 0 154 0;
#X connect 155 0 118 0;
#X connect 156 0 159 0;
#X connect 157 0 156 0;
#X connect 157 0 120 0;
#X connect 158 0 156 1;
#X connect 160 0 161 1;
#X connect 161 0 165 0;
#X connect 162 0 161 0;
#X connect 162 0 155 0;
#X connect 163 0 166 0;
#X connect 164 0 163 0;
#X connect 164 0 157 0;
#X connect 165 0 163 1;
#X connect 167 0 168 1;
#X connect 168 0 172 0;
#X connect 169 0 168 0;
#X connect 169 0 162 0;
#X connect 170 0 173 0;
#X connect 171 0 170 0;
#X connect 171 0 164 0;
#X connect 172 0 170 1;
#X connect 174 0 175 1;
#X connect 175 0 179 0;
#X connect 176 0 175 0;
#X connect 176 0 183 0;
#X connect 177 0 180 0;
#X connect 178 0 177 0;
#X connect 178 0 185 0;
#X connect 179 0 177 1;
#X connect 181 0 182 1;
#X connect 182 0 186 0;
#X connect 183 0 182 0;
#X connect 183 0 190 0;
#X connect 184 0 187 0;
#X connect 185 0 184 0;
#X connect 185 0 192 0;
#X connect 186 0 184 1;
#X connect 188 0 189 1;
#X connect 189 0 193 0;
#X connect 190 0 189 0;
#X connect 190 0 197 0;
#X connect 191 0 194 0;
#X connect 192 0 191 0;
#X connect 192 0 199 0;
#X connect 193 0 191 1;
#X connect 195 0 196 1;
#X connect 196 0 200 0;
#X connect 197 0 196 0;
#X connect 197 0 204 0;
#X connect 198 0 201 0;
#X connect 199 0 198 0;
#X connect 199 0 206 0;
#X connect 200 0 198 1;
#X connect 202 0 203 1;
#X connect 203 0 207 0;
#X connect 204 0 203 0;
#X connect 204 0 309 0;
#X connect 205 0 208 0;
#X connect 206 0 205 0;
#X connect 206 0 311 0;
#X connect 207 0 205 1;
#X connect 209 0 210 1;
#X connect 210 0 214 0;
#X connect 211 0 210 0;
#X connect 211 0 218 0;
#X connect 212 0 215 0;
#X connect 213 0 212 0;
#X connect 213 0 220 0;
#X connect 214 0 212 1;
#X connect 216 0 217 1;
#X connect 217 0 221 0;
#X connect 218 0 217 0;
#X connect 218 0 225 0;
#X connect 219 0 222 0;
#X connect 220 0 219 0;
#X connect 220 0 227 0;
#X connect 221 0 219 1;
#X connect 223 0 224 1;
#X connect 224 0 228 0;
#X connect 225 0 224 0;
#X connect 225 0 232 0;
#X connect 226 0 229 0;
#X connect 227 0 226 0;
#X connect 227 0 234 0;
#X connect 228 0 226 1;
#X connect 230 0 231 1;
#X connect 231 0 235 0;
#X connect 232 0 231 0;
#X connect 232 0 239 0;
#X connect 233 0 236 0;
#X connect 234 0 233 0;
#X connect 234 0 241 0;
#X connect 235 0 233 1;
#X connect 237 0 238 1;
#X connect 238 0 242 0;
#X connect 239 0 238 0;
#X connect 239 0 246 0;
#X connect 240 0 243 0;
#X connect 241 0 240 0;
#X connect 241 0 248 0;
#X connect 242 0 240 1;
#X connect 244 0 245 1;
#X connect 245 0 249 0;
#X connect 246 0 245 0;
#X connect 246 0 253 0;
#X connect 247 0 250 0;
#X connect 248 0 247 0;
#X connect 248 0 255 0;
#X connect 249 0 247 1;
#X connect 251 0 252 1;
#X connect 252 0 256 0;
#X connect 253 0 252 0;
#X connect 253 0 260 0;
#X connect 254 0 257 0;
#X connect 255 0 254 0;
#X connect 255 0 262 0;
#X connect 256 0 254 1;
#X connect 258 0 259 1;
#X connect 259 0 263 0;
#X connect 260 0 259 0;
#X connect 260 0 267 0;
#X connect 261 0 264 0;
#X connect 262 0 261 0;
#X connect 262 0 269 0;
#X connect 263 0 261 1;
#X connect 265 0 266 1;
#X connect 266 0 270 0;
#X connect 267 0 266 0;
#X connect 267 0 274 0;
#X connect 268 0 271 0;
#X connect 269 0 268 0;
#X connect 269 0 276 0;
#X connect 270 0 268 1;
#X connect 272 0 273 1;
#X connect 273 0 277 0;
#X connect 274 0 273 0;
#X connect 274 0 281 0;
#X connect 275 0 278 0;
#X connect 276 0 275 0;
#X connect 276 0 283 0;
#X connect 277 0 275 1;
#X connect 279 0 280 1;
#X connect 280 0 284 0;
#X connect 281 0 280 0;
#X connect 282 0 285 0;
#X connect 283 0 282 0;
#X connect 284 0 282 1;
#X connect 286 0 287 1;
#X connect 287 0 291 0;
#X connect 288 0 287 0;
#X connect 288 0 295 0;
#X connect 289 0 292 0;
#X connect 290 0 289 0;
#X connect 290 0 297 0;
#X connect 291 0 289 1;
#X connect 293 0 294 1;
#X connect 294 0 298 0;
#X connect 295 0 294 0;
#X connect 295 0 302 0;
#X connect 296 0 299 0;
#X connect 297 0 296 0;
#X connect 297 0 304 0;
#X connect 298 0 296 1;
#X connect 300 0 301 1;
#X connect 301 0 305 0;
#X connect 302 0 301 0;
#X connect 302 0 176 0;
#X connect 303 0 306 0;
#X connect 304 0 303 0;
#X connect 304 0 178 0;
#X connect 305 0 303 1;
#X connect 307 0 308 1;
#X connect 308 0 312 0;
#X connect 309 0 308 0;
#X connect 309 0 316 0;
#X connect 310 0 313 0;
#X connect 311 0 310 0;
#X connect 311 0 318 0;
#X connect 312 0 310 1;
#X connect 314 0 315 1;
#X connect 315 0 319 0;
#X connect 316 0 315 0;
#X connect 316 0 211 0;
#X connect 317 0 320 0;
#X connect 318 0 317 0;
#X connect 318 0 213 0;
#X connect 319 0 317 1;
#X connect 321 0 322 1;
#X connect 322 0 326 0;
#X connect 323 0 322 0;
#X connect 323 0 288 0;
#X connect 324 0 327 0;
#X connect 325 0 324 0;
#X connect 325 0 290 0;
#X connect 326 0 324 1;
#X connect 328 0 329 1;
#X connect 329 0 333 0;
#X connect 330 0 329 0;
#X connect 330 0 323 0;
#X connect 331 0 334 0;
#X connect 332 0 331 0;
#X connect 332 0 325 0;
#X connect 333 0 331 1;
#X connect 335 0 336 1;
#X connect 336 0 340 0;
#X connect 337 0 336 0;
#X connect 337 0 330 0;
#X connect 338 0 341 0;
#X connect 339 0 338 0;
#X connect 339 0 332 0;
#X connect 340 0 338 1;
#X connect 342 0 343 1;
#X connect 343 0 347 0;
#X connect 344 0 343 0;
#X connect 344 0 351 0;
#X connect 345 0 348 0;
#X connect 346 0 345 0;
#X connect 346 0 353 0;
#X connect 347 0 345 1;
#X connect 349 0 350 1;
#X connect 350 0 354 0;
#X connect 351 0 350 0;
#X connect 351 0 358 0;
#X connect 352 0 355 0;
#X connect 353 0 352 0;
#X connect 353 0 360 0;
#X connect 354 0 352 1;
#X connect 356 0 357 1;
#X connect 357 0 361 0;
#X connect 358 0 357 0;
#X connect 358 0 365 0;
#X connect 359 0 362 0;
#X connect 360 0 359 0;
#X connect 360 0 367 0;
#X connect 361 0 359 1;
#X connect 363 0 364 1;
#X connect 364 0 368 0;
#X connect 365 0 364 0;
#X connect 365 0 372 0;
#X connect 366 0 369 0;
#X connect 367 0 366 0;
#X connect 367 0 374 0;
#X connect 368 0 366 1;
#X connect 370 0 371 1;
#X connect 371 0 375 0;
#X connect 372 0 371 0;
#X connect 372 0 477 0;
#X connect 373 0 376 0;
#X connect 374 0 373 0;
#X connect 374 0 479 0;
#X connect 375 0 373 1;
#X connect 377 0 378 1;
#X connect 378 0 382 0;
#X connect 379 0 378 0;
#X connect 379 0 386 0;
#X connect 380 0 383 0;
#X connect 381 0 380 0;
#X connect 381 0 388 0;
#X connect 382 0 380 1;
#X connect 384 0 385 1;
#X connect 385 0 389 0;
#X connect 386 0 385 0;
#X connect 386 0 393 0;
#X connect 387 0 390 0;
#X connect 388 0 387 0;
#X connect 388 0 395 0;
#X connect 389 0 387 1;
#X connect 391 0 392 1;
#X connect 392 0 396 0;
#X connect 393 0 392 0;
#X connect 393 0 400 0;
#X connect 394 0 397 0;
#X connect 395 0 394 0;
#X connect 395 0 402 0;
#X connect 396 0 394 1;
#X connect 398 0 399 1;
#X connect 399 0 403 0;
#X connect 400 0 399 0;
#X connect 400 0 407 0;
#X connect 401 0 404 0;
#X connect 402 0 401 0;
#X connect 402 0 409 0;
#X connect 403 0 401 1;
#X connect 405 0 406 1;
#X connect 406 0 410 0;
#X connect 407 0 406 0;
#X connect 407 0 414 0;
#X connect 408 0 411 0;
#X connect 409 0 408 0;
#X connect 409 0 416 0;
#X connect 410 0 408 1;
#X connect 412 0 413 1;
#X connect 413 0 417 0;
#X connect 414 0 413 0;
#X connect 414 0 421 0;
#X connect 415 0 418 0;
#X connect 416 0 415 0;
#X connect 416 0 423 0;
#X connect 417 0 415 1;
#X connect 419 0 420 1;
#X connect 420 0 424 0;
#X connect 421 0 420 0;
#X connect 421 0 428 0;
#X connect 422 0 425 0;
#X connect 423 0 422 0;
#X connect 423 0 430 0;
#X connect 424 0 422 1;
#X connect 426 0 427 1;
#X connect 427 0 431 0;
#X connect 428 0 427 0;
#X connect 428 0 435 0;
#X connect 429 0 432 0;
#X connect 430 0 429 0;
#X connect 430 0 437 0;
#X connect 431 0 429 1;
#X connect 433 0 434 1;
#X connect 434 0 438 0;
#X connect 435 0 434 0;
#X connect 435 0 442 0;
#X connect 436 0 439 0;
#X connect 437 0 436 0;
#X connect 437 0 444 0;
#X connect 438 0 436 1;
#X connect 440 0 441 1;
#X connect 441 0 445 0;
#X connect 442 0 441 0;
#X connect 442 0 449 0;
#X connect 443 0 446 0;
#X connect 444 0 443 0;
#X connect 444 0 451 0;
#X connect 445 0 443 1;
#X connect 447 0 448 1;
#X connect 448 0 452 0;
#X connect 449 0 448 0;
#X connect 450 0 453 0;
#X connect 451 0 450 0;
#X connect 452 0 450 1;
#X connect 454 0 455 1;
#X connect 455 0 459 0;
#X connect 456 0 455 0;
#X connect 456 0 463 0;
#X connect 457 0 460 0;
#X connect 458 0 457 0;
#X connect 458 0 465 0;
#X connect 459 0 457 1;
#X connect 461 0 462 1;
#X connect 462 0 466 0;
#X connect 463 0 462 0;
#X connect 463 0 470 0;
#X connect 464 0 467 0;
#X connect 465 0 464 0;
#X connect 465 0 472 0;
#X connect 466 0 464 1;
#X connect 468 0 469 1;
#X connect 469 0 473 0;
#X connect 470 0 469 0;
#X connect 470 0 344 0;
#X connect 471 0 474 0;
#X connect 472 0 471 0;
#X connect 472 0 346 0;
#X connect 473 0 471 1;
#X connect 475 0 476 1;
#X connect 476 0 480 0;
#X connect 477 0 476 0;
#X connect 477 0 484 0;
#X connect 478 0 481 0;
#X connect 479 0 478 0;
#X connect 479 0 486 0;
#X connect 480 0 478 1;
#X connect 482 0 483 1;
#X connect 483 0 487 0;
#X connect 484 0 483 0;
#X connect 484 0 379 0;
#X connect 485 0 488 0;
#X connect 486 0 485 0;
#X connect 486 0 381 0;
#X connect 487 0 485 1;
#X connect 489 0 490 1;
#X connect 490 0 494 0;
#X connect 491 0 490 0;
#X connect 491 0 456 0;
#X connect 492 0 495 0;
#X connect 493 0 492 0;
#X connect 493 0 458 0;
#X connect 494 0 492 1;
#X connect 496 0 497 1;
#X connect 497 0 501 0;
#X connect 498 0 497 0;
#X connect 498 0 491 0;
#X connect 499 0 502 0;
#X connect 500 0 499 0;
#X connect 500 0 493 0;
#X connect 501 0 499 1;
#X connect 503 0 504 1;
#X connect 504 0 508 0;
#X connect 505 0 504 0;
#X connect 505 0 498 0;
#X connect 506 0 509 0;
#X connect 507 0 506 0;
#X connect 507 0 500 0;
#X connect 508 0 506 1;
#X connect 510 0 511 1;
#X connect 511 0 515 0;
#X connect 512 0 511 0;
#X connect 512 0 519 0;
#X connect 513 0 516 0;
#X connect 514 0 513 0;
#X connect 514 0 521 0;
#X connect 515 0 513 1;
#X connect 517 0 518 1;
#X connect 518 0 522 0;
#X connect 519 0 518 0;
#X connect 519 0 526 0;
#X connect 520 0 523 0;
#X connect 521 0 520 0;
#X connect 521 0 528 0;
#X connect 522 0 520 1;
#X connect 524 0 525 1;
#X connect 525 0 529 0;
#X connect 526 0 525 0;
#X connect 526 0 533 0;
#X connect 527 0 530 0;
#X connect 528 0 527 0;
#X connect 528 0 535 0;
#X connect 529 0 527 1;
#X connect 531 0 532 1;
#X connect 532 0 536 0;
#X connect 533 0 532 0;
#X connect 533 0 540 0;
#X connect 534 0 537 0;
#X connect 535 0 534 0;
#X connect 535 0 542 0;
#X connect 536 0 534 1;
#X connect 538 0 539 1;
#X connect 539 0 543 0;
#X connect 540 0 539 0;
#X connect 540 0 645 0;
#X connect 541 0 544 0;
#X connect 542 0 541 0;
#X connect 542 0 647 0;
#X connect 543 0 541 1;
#X connect 545 0 546 1;
#X connect 546 0 550 0;
#X connect 547 0 546 0;
#X connect 547 0 554 0;
#X connect 548 0 551 0;
#X connect 549 0 548 0;
#X connect 549 0 556 0;
#X connect 550 0 548 1;
#X connect 552 0 553 1;
#X connect 553 0 557 0;
#X connect 554 0 553 0;
#X connect 554 0 561 0;
#X connect 555 0 558 0;
#X connect 556 0 555 0;
#X connect 556 0 563 0;
#X connect 557 0 555 1;
#X connect 559 0 560 1;
#X connect 560 0 564 0;
#X connect 561 0 560 0;
#X connect 561 0 568 0;
#X connect 562 0 565 0;
#X connect 563 0 562 0;
#X connect 563 0 570 0;
#X connect 564 0 562 1;
#X connect 566 0 567 1;
#X connect 567 0 571 0;
#X connect 568 0 567 0;
#X connect 568 0 575 0;
#X connect 569 0 572 0;
#X connect 570 0 569 0;
#X connect 570 0 577 0;
#X connect 571 0 569 1;
#X connect 573 0 574 1;
#X connect 574 0 578 0;
#X connect 575 0 574 0;
#X connect 575 0 582 0;
#X connect 576 0 579 0;
#X connect 577 0 576 0;
#X connect 577 0 584 0;
#X connect 578 0 576 1;
#X connect 580 0 581 1;
#X connect 581 0 585 0;
#X connect 582 0 581 0;
#X connect 582 0 589 0;
#X connect 583 0 586 0;
#X connect 584 0 583 0;
#X connect 584 0 591 0;
#X connect 585 0 583 1;
#X connect 587 0 588 1;
#X connect 588 0 592 0;
#X connect 589 0 588 0;
#X connect 589 0 596 0;
#X connect 590 0 593 0;
#X connect 591 0 590 0;
#X connect 591 0 598 0;
#X connect 592 0 590 1;
#X connect 594 0 595 1;
#X connect 595 0 599 0;
#X connect 596 0 595 0;
#X connect 596 0 603 0;
#X connect 597 0 600 0;
#X connect 598 0 597 0;
#X connect 598 0 605 0;
#X connect 599 0 597 1;
#X connect 601 0 602 1;
#X connect 602 0 606 0;
#X connect 603 0 602 0;
#X connect 603 0 610 0;
#X connect 604 0 607 0;
#X connect 605 0 604 0;
#X connect 605 0 612 0;
#X connect 606 0 604 1;
#X connect 608 0 609 1;
#X connect 609 0 613 0;
#X connect 610 0 609 0;
#X connect 610 0 617 0;
#X connect 611 0 614 0;
#X connect 612 0 611 0;
#X connect 612 0 619 0;
#X connect 613 0 611 1;
#X connect 615 0 616 1;
#X connect 616 0 620 0;
#X connect 617 0 616 0;
#X connect 618 0 621 0;
#X connect 619 0 618 0;
#X connect 620 0 618 1;
#X connect 622 0 623 1;
#X connect 623 0 627 0;
#X connect 624 0 623 0;
#X connect 624 0 631 0;
#X connect 625 0 628 0;
#X connect 626 0 625 0;
#X connect 626 0 633 0;
#X connect 627 0 625 1;
#X connect 629 0 630 1;
#X connect 630 0 634 0;
#X connect 631 0 630 0;
#X connect 631 0 638 0;
#X connect 632 0 635 0;
#X connect 633 0 632 0;
#X connect 633 0 640 0;
#X connect 634 0 632 1;
#X connect 636 0 637 1;
#X connect 637 0 641 0;
#X connect 638 0 637 0;
#X connect 638 0 512 0;
#X connect 639 0 642 0;
#X connect 640 0 639 0;
#X connect 640 0 514 0;
#X connect 641 0 639 1;
#X connect 643 0 644 1;
#X connect 644 0 648 0;
#X connect 645 0 644 0;
#X connect 645 0 652 0;
#X connect 646 0 649 0;
#X connect 647 0 646 0;
#X connect 647 0 654 0;
#X connect 648 0 646 1;
#X connect 650 0 651 1;
#X connect 651 0 655 0;
#X connect 652 0 651 0;
#X connect 652 0 547 0;
#X connect 653 0 656 0;
#X connect 654 0 653 0;
#X connect 654 0 549 0;
#X connect 655 0 653 1;
#X connect 657 0 658 1;
#X connect 658 0 662 0;
#X connect 659 0 658 0;
#X connect 659 0 624 0;
#X connect 660 0 663 0;
#X connect 661 0 660 0;
#X connect 661 0 626 0;
#X connect 662 0 660 1;
#X connect 664 0 665 1;
#X connect 665 0 669 0;
#X connect 666 0 665 0;
#X connect 666 0 659 0;
#X connect 667 0 670 0;
#X connect 668 0 667 0;
#X connect 668 0 661 0;
#X connect 669 0 667 1;
#X connect 671 0 672 1;
#X connect 672 0 676 0;
#X connect 673 0 672 0;
#X connect 673 0 666 0;
#X connect 674 0 677 0;
#X connect 675 0 674 0;
#X connect 675 0 668 0;
#X connect 676 0 674 1;
#X coords 0 -1 1 1 150 19 2 100 100;
