#N canvas 0 22 1280 867 10;
#X obj 101 102 hradio 15 1 0 4 empty empty empty -50 7 0 10 -262144
-1 -1 2;
#X obj 216 75 sel 0 1 2;
#X obj 180 102 hradio 15 1 0 4 empty empty empty -26 7 0 10 -262144
-1 -1 0;
#X obj 221 147 sel 0 1 2;
#X floatatom 963 27 5 0 0 0 receive_progr_progr_B progr_progr_B -,
f 5;
#X obj 957 79 f;
#X obj 924 58 bng 15 250 50 0 empty empty write -35 7 0 10 -262144
-1 -1;
#X obj 940 148 f;
#X obj 929 126 bng 15 250 50 0 empty empty send -30 7 0 10 -262144
-1 -1;
#X floatatom 958 107 5 0 0 0 - - -, f 5;
#X floatatom 942 174 5 0 0 0 send_progr_progr_B - send_progr_progr_B
, f 5;
#X floatatom 1109 27 5 0 0 0 receive_T#stepB progrstepB -, f 5;
#X obj 1103 79 f;
#X obj 1080 58 bng 15 250 50 0 empty empty write -35 7 0 10 -262144
-1 -1;
#X obj 1086 148 f;
#X obj 1085 126 bng 15 250 50 0 empty empty send -30 7 0 10 -262144
-1 -1;
#X floatatom 1104 107 5 0 0 0 - - -, f 5;
#X floatatom 1088 174 5 0 0 0 send_progstepB - send_progrstepB, f
5;
#X floatatom 1253 27 5 0 0 0 receive_prog1B prog1B -, f 5;
#X obj 1247 79 f;
#X obj 1224 58 bng 15 250 50 0 empty empty write -35 7 0 10 -262144
-1 -1;
#X obj 1230 148 f;
#X obj 1229 126 bng 15 250 50 0 empty empty send -30 7 0 10 -262144
-1 -1;
#X floatatom 1248 107 5 0 0 0 - - -, f 5;
#X floatatom 1232 174 5 0 0 0 send_prog1B - send_prog1B, f 5;
#X floatatom 1393 27 5 0 0 0 receive_prog2B prog2B -, f 5;
#X obj 1387 79 f;
#X obj 1364 58 bng 15 250 50 0 empty empty write -35 7 0 10 -262144
-1 -1;
#X obj 1370 148 f;
#X obj 1369 126 bng 15 250 50 0 empty empty send -30 7 0 10 -262144
-1 -1;
#X floatatom 1388 107 5 0 0 0 - - -, f 5;
#X floatatom 1372 174 5 0 0 0 send_prog2B - send_prog2B, f 5;
#X floatatom 1533 27 5 0 0 0 receive_prog3B prog3B -, f 5;
#X obj 1527 79 f;
#X obj 1504 58 bng 15 250 50 0 empty empty write -35 7 0 10 -262144
-1 -1;
#X obj 1510 148 f;
#X obj 1509 126 bng 15 250 50 0 empty empty send -30 7 0 10 -262144
-1 -1;
#X floatatom 1528 107 5 0 0 0 - - -, f 5;
#X floatatom 1512 174 5 0 0 0 send_prog3B - send_prog3B, f 5;
#X floatatom 1913 27 5 0 0 0 receive_prog6B prog6B -, f 5;
#X obj 1907 79 f;
#X obj 1884 58 bng 15 250 50 0 empty empty write -35 7 0 10 -262144
-1 -1;
#X obj 1890 148 f;
#X obj 1889 126 bng 15 250 50 0 empty empty send -30 7 0 10 -262144
-1 -1;
#X floatatom 1908 107 5 0 0 0 - - -, f 5;
#X floatatom 1892 174 5 0 0 0 send_prog6B - send_prog6B, f 5;
#X floatatom 2043 27 5 0 0 0 receive_prog7B prog7B -, f 5;
#X obj 2037 79 f;
#X obj 2014 58 bng 15 250 50 0 empty empty write -35 7 0 10 -262144
-1 -1;
#X obj 2020 148 f;
#X obj 2019 126 bng 15 250 50 0 empty empty send -30 7 0 10 -262144
-1 -1;
#X floatatom 2038 107 5 0 0 0 - - -, f 5;
#X floatatom 2022 174 5 0 0 0 send_prog7B - send_prog7B, f 5;
#X floatatom 2183 27 5 0 0 0 receive_prog8B prog8B -, f 5;
#X obj 2177 79 f;
#X obj 2154 58 bng 15 250 50 0 empty empty write -35 7 0 10 -262144
-1 -1;
#X obj 2160 148 f;
#X obj 2159 126 bng 15 250 50 0 empty empty send -30 7 0 10 -262144
-1 -1;
#X floatatom 2178 107 5 0 0 0 - - -, f 5;
#X floatatom 2162 174 5 0 0 0 send_prog8B - send_prog8B, f 5;
#X floatatom 2324 27 5 0 0 0 receive_prog9B prog9B -, f 5;
#X obj 2318 79 f;
#X obj 2295 58 bng 15 250 50 0 empty empty write -35 7 0 10 -262144
-1 -1;
#X obj 2301 148 f;
#X obj 2300 126 bng 15 250 50 0 empty empty send -30 7 0 10 -262144
-1 -1;
#X floatatom 2319 107 5 0 0 0 - - -, f 5;
#X floatatom 2303 174 5 0 0 0 send_prog9B - send_prog9B, f 5;
#X floatatom 2464 27 5 0 0 0 receive_prog10B prog10B -, f 5;
#X obj 2458 79 f;
#X obj 2435 58 bng 15 250 50 0 empty empty write -35 7 0 10 -262144
-1 -1;
#X obj 2441 148 f;
#X obj 2440 126 bng 15 250 50 0 empty empty send -30 7 0 10 -262144
-1 -1;
#X floatatom 2459 107 5 0 0 0 - - -, f 5;
#X floatatom 2443 174 5 0 0 0 send_prog10B - send_prog10B, f 5;
#X floatatom 2594 27 5 0 0 0 receive_prog11B prog11B -, f 5;
#X obj 2588 79 f;
#X obj 2565 58 bng 15 250 50 0 empty empty write -35 7 0 10 -262144
-1 -1;
#X obj 2571 148 f;
#X obj 2570 126 bng 15 250 50 0 empty empty send -30 7 0 10 -262144
-1 -1;
#X floatatom 2589 107 5 0 0 0 - - -, f 5;
#X floatatom 2573 174 5 0 0 0 send_prog11B - send_prog11B, f 5;
#X floatatom 2734 27 5 0 0 0 receive_prog12B prog12B -, f 5;
#X obj 2728 79 f;
#X obj 2705 58 bng 15 250 50 0 empty empty write -35 7 0 10 -262144
-1 -1;
#X obj 2711 148 f;
#X obj 2710 126 bng 15 250 50 0 empty empty send -30 7 0 10 -262144
-1 -1;
#X floatatom 2729 107 5 0 0 0 - - -, f 5;
#X floatatom 2713 174 5 0 0 0 send_prog12B - send_prog12B, f 5;
#X floatatom 2874 27 5 0 0 0 receive_prog13B prog13B -, f 5;
#X obj 2868 79 f;
#X obj 2845 58 bng 15 250 50 0 empty empty write -35 7 0 10 -262144
-1 -1;
#X obj 2851 148 f;
#X obj 2850 126 bng 15 250 50 0 empty empty send -30 7 0 10 -262144
-1 -1;
#X floatatom 2869 107 5 0 0 0 - - -, f 5;
#X floatatom 2853 174 5 0 0 0 send_prog13B - send_prog13B, f 5;
#X floatatom 3014 27 5 0 0 0 receive_prog14B prog14B -, f 5;
#X obj 3008 79 f;
#X obj 2985 58 bng 15 250 50 0 empty empty write -35 7 0 10 -262144
-1 -1;
#X obj 2991 148 f;
#X obj 2990 126 bng 15 250 50 0 empty empty send -30 7 0 10 -262144
-1 -1;
#X floatatom 3009 107 5 0 0 0 - - -, f 5;
#X floatatom 2993 174 5 0 0 0 send_prog14B - send_prog14B, f 5;
#X floatatom 3144 27 5 0 0 0 receive_prog15B prog15B -, f 5;
#X obj 3138 79 f;
#X obj 3115 58 bng 15 250 50 0 empty empty write -35 7 0 10 -262144
-1 -1;
#X obj 3121 148 f;
#X obj 3120 126 bng 15 250 50 0 empty empty send -30 7 0 10 -262144
-1 -1;
#X floatatom 3139 107 5 0 0 0 - - -, f 5;
#X floatatom 3123 174 5 0 0 0 send_prog15B - send_prog15B, f 5;
#X floatatom 3284 27 5 0 0 0 receive_prog16B prog16B -, f 5;
#X obj 3278 79 f;
#X obj 3255 58 bng 15 250 50 0 empty empty write -35 7 0 10 -262144
-1 -1;
#X obj 3261 148 f;
#X obj 3260 126 bng 15 250 50 0 empty empty send -30 7 0 10 -262144
-1 -1;
#X floatatom 3279 107 5 0 0 0 - - -, f 5;
#X floatatom 3263 174 5 0 0 0 send_prog16B - send_prog16B, f 5;
#X floatatom 373 27 5 0 0 0 receive_progrXTB progrXTB -, f 5;
#X obj 367 79 f;
#X obj 344 58 bng 15 250 50 0 empty empty write -35 7 0 10 -262144
-1 -1;
#X obj 350 148 f;
#X obj 349 126 bng 15 250 50 0 empty empty send -30 7 0 10 -262144
-1 -1;
#X floatatom 368 107 5 0 0 0 - - -, f 5;
#X floatatom 352 174 5 0 0 0 send_progrXTB - send_progrXTB, f 5;
#X floatatom 563 27 5 0 0 0 receive_Trgr-progrB Trgr-progrB -, f 5
;
#X obj 557 79 f;
#X obj 534 58 bng 15 250 50 0 empty empty write -35 7 0 10 -262144
-1 -1;
#X obj 540 148 f;
#X obj 539 126 bng 15 250 50 0 empty empty send -30 7 0 10 -262144
-1 -1;
#X floatatom 558 107 5 0 0 0 - - -, f 5;
#X floatatom 542 174 5 0 0 0 send_Trgr-progrB - send_Trgr-progrB,
f 5;
#X floatatom 763 27 5 0 0 0 receive_send_progr-tB progr-tB -, f 5
;
#X obj 757 79 f;
#X obj 734 58 bng 15 250 50 0 empty empty write -35 7 0 10 -262144
-1 -1;
#X obj 740 148 f;
#X obj 739 126 bng 15 250 50 0 empty empty send -30 7 0 10 -262144
-1 -1;
#X floatatom 758 107 5 0 0 0 - - -, f 5;
#X floatatom 742 174 5 0 0 0 send_progr-tB - send_progr-tB, f 5;
#X obj 108 62 inlet;
#X obj 158 62 inlet;
#X floatatom 1652 27 5 0 0 0 receive_prog4B prog4B -, f 5;
#X obj 1646 79 f;
#X obj 1623 58 bng 15 250 50 0 empty empty write -35 7 0 10 -262144
-1 -1;
#X obj 1629 148 f;
#X obj 1628 126 bng 15 250 50 0 empty empty send -30 7 0 10 -262144
-1 -1;
#X floatatom 1647 107 5 0 0 0 - - -, f 5;
#X floatatom 1631 174 5 0 0 0 send_prog4B - send_prog4B, f 5;
#X floatatom 1792 27 5 0 0 0 receive_prog5B prog5B -, f 5;
#X obj 1786 79 f;
#X obj 1763 58 bng 15 250 50 0 empty empty write -35 7 0 10 -262144
-1 -1;
#X obj 1769 148 f;
#X obj 1768 126 bng 15 250 50 0 empty empty send -30 7 0 10 -262144
-1 -1;
#X floatatom 1787 107 5 0 0 0 - - -, f 5;
#X floatatom 1771 174 5 0 0 0 send_prog5B - send_prog5B, f 5;
#X floatatom 963 267 5 0 0 0 receive_progr_progr_B progr_progr_B -
, f 5;
#X obj 957 319 f;
#X obj 924 298 bng 15 250 50 0 empty empty write -35 7 0 10 -262144
-1 -1;
#X obj 940 388 f;
#X obj 929 366 bng 15 250 50 0 empty empty send -30 7 0 10 -262144
-1 -1;
#X floatatom 958 347 5 0 0 0 - - -, f 5;
#X floatatom 942 414 5 0 0 0 send_progr_progr_B - send_progr_progr_B
, f 5;
#X floatatom 1109 267 5 0 0 0 receive_T#stepB progrstepB -, f 5;
#X obj 1103 319 f;
#X obj 1080 298 bng 15 250 50 0 empty empty write -35 7 0 10 -262144
-1 -1;
#X obj 1086 388 f;
#X obj 1085 366 bng 15 250 50 0 empty empty send -30 7 0 10 -262144
-1 -1;
#X floatatom 1104 347 5 0 0 0 - - -, f 5;
#X floatatom 1088 414 5 0 0 0 send_progstepB - send_progrstepB, f
5;
#X floatatom 1253 267 5 0 0 0 receive_prog1B prog1B -, f 5;
#X obj 1247 319 f;
#X obj 1224 298 bng 15 250 50 0 empty empty write -35 7 0 10 -262144
-1 -1;
#X obj 1230 388 f;
#X obj 1229 366 bng 15 250 50 0 empty empty send -30 7 0 10 -262144
-1 -1;
#X floatatom 1248 347 5 0 0 0 - - -, f 5;
#X floatatom 1232 414 5 0 0 0 send_prog1B - send_prog1B, f 5;
#X floatatom 1393 267 5 0 0 0 receive_prog2B prog2B -, f 5;
#X obj 1387 319 f;
#X obj 1364 298 bng 15 250 50 0 empty empty write -35 7 0 10 -262144
-1 -1;
#X obj 1370 388 f;
#X obj 1369 366 bng 15 250 50 0 empty empty send -30 7 0 10 -262144
-1 -1;
#X floatatom 1388 347 5 0 0 0 - - -, f 5;
#X floatatom 1372 414 5 0 0 0 send_prog2B - send_prog2B, f 5;
#X floatatom 1533 267 5 0 0 0 receive_prog3B prog3B -, f 5;
#X obj 1527 319 f;
#X obj 1504 298 bng 15 250 50 0 empty empty write -35 7 0 10 -262144
-1 -1;
#X obj 1510 388 f;
#X obj 1509 366 bng 15 250 50 0 empty empty send -30 7 0 10 -262144
-1 -1;
#X floatatom 1528 347 5 0 0 0 - - -, f 5;
#X floatatom 1512 414 5 0 0 0 send_prog3B - send_prog3B, f 5;
#X floatatom 1913 267 5 0 0 0 receive_prog6B prog6B -, f 5;
#X obj 1907 319 f;
#X obj 1884 298 bng 15 250 50 0 empty empty write -35 7 0 10 -262144
-1 -1;
#X obj 1890 388 f;
#X obj 1889 366 bng 15 250 50 0 empty empty send -30 7 0 10 -262144
-1 -1;
#X floatatom 1908 347 5 0 0 0 - - -, f 5;
#X floatatom 1892 414 5 0 0 0 send_prog6B - send_prog6B, f 5;
#X floatatom 2043 267 5 0 0 0 receive_prog7B prog7B -, f 5;
#X obj 2037 319 f;
#X obj 2014 298 bng 15 250 50 0 empty empty write -35 7 0 10 -262144
-1 -1;
#X obj 2020 388 f;
#X obj 2019 366 bng 15 250 50 0 empty empty send -30 7 0 10 -262144
-1 -1;
#X floatatom 2038 347 5 0 0 0 - - -, f 5;
#X floatatom 2022 414 5 0 0 0 send_prog7B - send_prog7B, f 5;
#X floatatom 2183 267 5 0 0 0 receive_prog8B prog8B -, f 5;
#X obj 2177 319 f;
#X obj 2154 298 bng 15 250 50 0 empty empty write -35 7 0 10 -262144
-1 -1;
#X obj 2160 388 f;
#X obj 2159 366 bng 15 250 50 0 empty empty send -30 7 0 10 -262144
-1 -1;
#X floatatom 2178 347 5 0 0 0 - - -, f 5;
#X floatatom 2162 414 5 0 0 0 send_prog8B - send_prog8B, f 5;
#X floatatom 2324 267 5 0 0 0 receive_prog9B prog9B -, f 5;
#X obj 2318 319 f;
#X obj 2295 298 bng 15 250 50 0 empty empty write -35 7 0 10 -262144
-1 -1;
#X obj 2301 388 f;
#X obj 2300 366 bng 15 250 50 0 empty empty send -30 7 0 10 -262144
-1 -1;
#X floatatom 2319 347 5 0 0 0 - - -, f 5;
#X floatatom 2303 414 5 0 0 0 send_prog9B - send_prog9B, f 5;
#X floatatom 2464 267 5 0 0 0 receive_prog10B prog10B -, f 5;
#X obj 2458 319 f;
#X obj 2435 298 bng 15 250 50 0 empty empty write -35 7 0 10 -262144
-1 -1;
#X obj 2441 388 f;
#X obj 2440 366 bng 15 250 50 0 empty empty send -30 7 0 10 -262144
-1 -1;
#X floatatom 2459 347 5 0 0 0 - - -, f 5;
#X floatatom 2443 414 5 0 0 0 send_prog10B - send_prog10B, f 5;
#X floatatom 2594 267 5 0 0 0 receive_prog11B prog11B -, f 5;
#X obj 2588 319 f;
#X obj 2565 298 bng 15 250 50 0 empty empty write -35 7 0 10 -262144
-1 -1;
#X obj 2571 388 f;
#X obj 2570 366 bng 15 250 50 0 empty empty send -30 7 0 10 -262144
-1 -1;
#X floatatom 2589 347 5 0 0 0 - - -, f 5;
#X floatatom 2573 414 5 0 0 0 send_prog11B - send_prog11B, f 5;
#X floatatom 2734 267 5 0 0 0 receive_prog12B prog12B -, f 5;
#X obj 2728 319 f;
#X obj 2705 298 bng 15 250 50 0 empty empty write -35 7 0 10 -262144
-1 -1;
#X obj 2711 388 f;
#X obj 2710 366 bng 15 250 50 0 empty empty send -30 7 0 10 -262144
-1 -1;
#X floatatom 2729 347 5 0 0 0 - - -, f 5;
#X floatatom 2713 414 5 0 0 0 send_prog12B - send_prog12B, f 5;
#X floatatom 2874 267 5 0 0 0 receive_prog13B prog13B -, f 5;
#X obj 2868 319 f;
#X obj 2845 298 bng 15 250 50 0 empty empty write -35 7 0 10 -262144
-1 -1;
#X obj 2851 388 f;
#X obj 2850 366 bng 15 250 50 0 empty empty send -30 7 0 10 -262144
-1 -1;
#X floatatom 2869 347 5 0 0 0 - - -, f 5;
#X floatatom 2853 414 5 0 0 0 send_prog13B - send_prog13B, f 5;
#X floatatom 3014 267 5 0 0 0 receive_prog14B prog14B -, f 5;
#X obj 3008 319 f;
#X obj 2985 298 bng 15 250 50 0 empty empty write -35 7 0 10 -262144
-1 -1;
#X obj 2991 388 f;
#X obj 2990 366 bng 15 250 50 0 empty empty send -30 7 0 10 -262144
-1 -1;
#X floatatom 3009 347 5 0 0 0 - - -, f 5;
#X floatatom 2993 414 5 0 0 0 send_prog14B - send_prog14B, f 5;
#X floatatom 3144 267 5 0 0 0 receive_prog15B prog15B -, f 5;
#X obj 3138 319 f;
#X obj 3115 298 bng 15 250 50 0 empty empty write -35 7 0 10 -262144
-1 -1;
#X obj 3121 388 f;
#X obj 3120 366 bng 15 250 50 0 empty empty send -30 7 0 10 -262144
-1 -1;
#X floatatom 3139 347 5 0 0 0 - - -, f 5;
#X floatatom 3123 414 5 0 0 0 send_prog15B - send_prog15B, f 5;
#X floatatom 3284 267 5 0 0 0 receive_prog16B prog16B -, f 5;
#X obj 3278 319 f;
#X obj 3255 298 bng 15 250 50 0 empty empty write -35 7 0 10 -262144
-1 -1;
#X obj 3261 388 f;
#X obj 3260 366 bng 15 250 50 0 empty empty send -30 7 0 10 -262144
-1 -1;
#X floatatom 3279 347 5 0 0 0 - - -, f 5;
#X floatatom 3263 414 5 0 0 0 send_prog16B - send_prog16B, f 5;
#X floatatom 373 267 5 0 0 0 receive_progrXTB progrXTB -, f 5;
#X obj 367 319 f;
#X obj 344 298 bng 15 250 50 0 empty empty write -35 7 0 10 -262144
-1 -1;
#X obj 350 388 f;
#X obj 349 366 bng 15 250 50 0 empty empty send -30 7 0 10 -262144
-1 -1;
#X floatatom 368 347 5 0 0 0 - - -, f 5;
#X floatatom 352 414 5 0 0 0 send_progrXTB - send_progrXTB, f 5;
#X floatatom 563 267 5 0 0 0 receive_Trgr-progrB Trgr-progrB -, f
5;
#X obj 557 319 f;
#X obj 534 298 bng 15 250 50 0 empty empty write -35 7 0 10 -262144
-1 -1;
#X obj 540 388 f;
#X obj 539 366 bng 15 250 50 0 empty empty send -30 7 0 10 -262144
-1 -1;
#X floatatom 558 347 5 0 0 0 - - -, f 5;
#X floatatom 542 414 5 0 0 0 send_Trgr-progrB - send_Trgr-progrB,
f 5;
#X floatatom 763 267 5 0 0 0 receive_send_progr-tB progr-tB -, f 5
;
#X obj 757 319 f;
#X obj 734 298 bng 15 250 50 0 empty empty write -35 7 0 10 -262144
-1 -1;
#X obj 740 388 f;
#X obj 739 366 bng 15 250 50 0 empty empty send -30 7 0 10 -262144
-1 -1;
#X floatatom 758 347 5 0 0 0 - - -, f 5;
#X floatatom 742 414 5 0 0 0 send_progr-tB - send_progr-tB, f 5;
#X floatatom 1652 267 5 0 0 0 receive_prog4B prog4B -, f 5;
#X obj 1646 319 f;
#X obj 1623 298 bng 15 250 50 0 empty empty write -35 7 0 10 -262144
-1 -1;
#X obj 1629 388 f;
#X obj 1628 366 bng 15 250 50 0 empty empty send -30 7 0 10 -262144
-1 -1;
#X floatatom 1647 347 5 0 0 0 - - -, f 5;
#X floatatom 1631 414 5 0 0 0 send_prog4B - send_prog4B, f 5;
#X floatatom 1792 267 5 0 0 0 receive_prog5B prog5B -, f 5;
#X obj 1786 319 f;
#X obj 1763 298 bng 15 250 50 0 empty empty write -35 7 0 10 -262144
-1 -1;
#X obj 1769 388 f;
#X obj 1768 366 bng 15 250 50 0 empty empty send -30 7 0 10 -262144
-1 -1;
#X floatatom 1787 347 5 0 0 0 - - -, f 5;
#X floatatom 1771 414 5 0 0 0 send_prog5B - send_prog5B, f 5;
#X floatatom 963 457 5 0 0 0 receive_progr_progr_B progr_progr_B -
, f 5;
#X obj 957 509 f;
#X obj 924 488 bng 15 250 50 0 empty empty write -35 7 0 10 -262144
-1 -1;
#X obj 940 578 f;
#X obj 929 556 bng 15 250 50 0 empty empty send -30 7 0 10 -262144
-1 -1;
#X floatatom 958 537 5 0 0 0 - - -, f 5;
#X floatatom 942 604 5 0 0 0 send_progr_progr_B - send_progr_progr_B
, f 5;
#X floatatom 1109 457 5 0 0 0 receive_T#stepB progrstepB -, f 5;
#X obj 1103 509 f;
#X obj 1080 488 bng 15 250 50 0 empty empty write -35 7 0 10 -262144
-1 -1;
#X obj 1086 578 f;
#X obj 1085 556 bng 15 250 50 0 empty empty send -30 7 0 10 -262144
-1 -1;
#X floatatom 1104 537 5 0 0 0 - - -, f 5;
#X floatatom 1088 604 5 0 0 0 send_progstepB - send_progrstepB, f
5;
#X floatatom 1253 457 5 0 0 0 receive_prog1B prog1B -, f 5;
#X obj 1247 509 f;
#X obj 1224 488 bng 15 250 50 0 empty empty write -35 7 0 10 -262144
-1 -1;
#X obj 1230 578 f;
#X obj 1229 556 bng 15 250 50 0 empty empty send -30 7 0 10 -262144
-1 -1;
#X floatatom 1248 537 5 0 0 0 - - -, f 5;
#X floatatom 1232 604 5 0 0 0 send_prog1B - send_prog1B, f 5;
#X floatatom 1393 457 5 0 0 0 receive_prog2B prog2B -, f 5;
#X obj 1387 509 f;
#X obj 1364 488 bng 15 250 50 0 empty empty write -35 7 0 10 -262144
-1 -1;
#X obj 1370 578 f;
#X obj 1369 556 bng 15 250 50 0 empty empty send -30 7 0 10 -262144
-1 -1;
#X floatatom 1388 537 5 0 0 0 - - -, f 5;
#X floatatom 1372 604 5 0 0 0 send_prog2B - send_prog2B, f 5;
#X floatatom 1533 457 5 0 0 0 receive_prog3B prog3B -, f 5;
#X obj 1527 509 f;
#X obj 1504 488 bng 15 250 50 0 empty empty write -35 7 0 10 -262144
-1 -1;
#X obj 1510 578 f;
#X obj 1509 556 bng 15 250 50 0 empty empty send -30 7 0 10 -262144
-1 -1;
#X floatatom 1528 537 5 0 0 0 - - -, f 5;
#X floatatom 1512 604 5 0 0 0 send_prog3B - send_prog3B, f 5;
#X floatatom 1913 457 5 0 0 0 receive_prog6B prog6B -, f 5;
#X obj 1907 509 f;
#X obj 1884 488 bng 15 250 50 0 empty empty write -35 7 0 10 -262144
-1 -1;
#X obj 1890 578 f;
#X obj 1889 556 bng 15 250 50 0 empty empty send -30 7 0 10 -262144
-1 -1;
#X floatatom 1908 537 5 0 0 0 - - -, f 5;
#X floatatom 1892 604 5 0 0 0 send_prog6B - send_prog6B, f 5;
#X floatatom 2043 457 5 0 0 0 receive_prog7B prog7B -, f 5;
#X obj 2037 509 f;
#X obj 2014 488 bng 15 250 50 0 empty empty write -35 7 0 10 -262144
-1 -1;
#X obj 2020 578 f;
#X obj 2019 556 bng 15 250 50 0 empty empty send -30 7 0 10 -262144
-1 -1;
#X floatatom 2038 537 5 0 0 0 - - -, f 5;
#X floatatom 2022 604 5 0 0 0 send_prog7B - send_prog7B, f 5;
#X floatatom 2183 457 5 0 0 0 receive_prog8B prog8B -, f 5;
#X obj 2177 509 f;
#X obj 2154 488 bng 15 250 50 0 empty empty write -35 7 0 10 -262144
-1 -1;
#X obj 2160 578 f;
#X obj 2159 556 bng 15 250 50 0 empty empty send -30 7 0 10 -262144
-1 -1;
#X floatatom 2178 537 5 0 0 0 - - -, f 5;
#X floatatom 2162 604 5 0 0 0 send_prog8B - send_prog8B, f 5;
#X floatatom 2324 457 5 0 0 0 receive_prog9B prog9B -, f 5;
#X obj 2318 509 f;
#X obj 2295 488 bng 15 250 50 0 empty empty write -35 7 0 10 -262144
-1 -1;
#X obj 2301 578 f;
#X obj 2300 556 bng 15 250 50 0 empty empty send -30 7 0 10 -262144
-1 -1;
#X floatatom 2319 537 5 0 0 0 - - -, f 5;
#X floatatom 2303 604 5 0 0 0 send_prog9B - send_prog9B, f 5;
#X floatatom 2464 457 5 0 0 0 receive_prog10B prog10B -, f 5;
#X obj 2458 509 f;
#X obj 2435 488 bng 15 250 50 0 empty empty write -35 7 0 10 -262144
-1 -1;
#X obj 2441 578 f;
#X obj 2440 556 bng 15 250 50 0 empty empty send -30 7 0 10 -262144
-1 -1;
#X floatatom 2459 537 5 0 0 0 - - -, f 5;
#X floatatom 2443 604 5 0 0 0 send_prog10B - send_prog10B, f 5;
#X floatatom 2594 457 5 0 0 0 receive_prog11B prog11B -, f 5;
#X obj 2588 509 f;
#X obj 2565 488 bng 15 250 50 0 empty empty write -35 7 0 10 -262144
-1 -1;
#X obj 2571 578 f;
#X obj 2570 556 bng 15 250 50 0 empty empty send -30 7 0 10 -262144
-1 -1;
#X floatatom 2589 537 5 0 0 0 - - -, f 5;
#X floatatom 2573 604 5 0 0 0 send_prog11B - send_prog11B, f 5;
#X floatatom 2734 457 5 0 0 0 receive_prog12B prog12B -, f 5;
#X obj 2728 509 f;
#X obj 2705 488 bng 15 250 50 0 empty empty write -35 7 0 10 -262144
-1 -1;
#X obj 2711 578 f;
#X obj 2710 556 bng 15 250 50 0 empty empty send -30 7 0 10 -262144
-1 -1;
#X floatatom 2729 537 5 0 0 0 - - -, f 5;
#X floatatom 2713 604 5 0 0 0 send_prog12B - send_prog12B, f 5;
#X floatatom 2874 457 5 0 0 0 receive_prog13B prog13B -, f 5;
#X obj 2868 509 f;
#X obj 2845 488 bng 15 250 50 0 empty empty write -35 7 0 10 -262144
-1 -1;
#X obj 2851 578 f;
#X obj 2850 556 bng 15 250 50 0 empty empty send -30 7 0 10 -262144
-1 -1;
#X floatatom 2869 537 5 0 0 0 - - -, f 5;
#X floatatom 2853 604 5 0 0 0 send_prog13B - send_prog13B, f 5;
#X floatatom 3014 457 5 0 0 0 receive_prog14B prog14B -, f 5;
#X obj 3008 509 f;
#X obj 2985 488 bng 15 250 50 0 empty empty write -35 7 0 10 -262144
-1 -1;
#X obj 2991 578 f;
#X obj 2990 556 bng 15 250 50 0 empty empty send -30 7 0 10 -262144
-1 -1;
#X floatatom 3009 537 5 0 0 0 - - -, f 5;
#X floatatom 2993 604 5 0 0 0 send_prog14B - send_prog14B, f 5;
#X floatatom 3144 457 5 0 0 0 receive_prog15B prog15B -, f 5;
#X obj 3138 509 f;
#X obj 3115 488 bng 15 250 50 0 empty empty write -35 7 0 10 -262144
-1 -1;
#X obj 3121 578 f;
#X obj 3120 556 bng 15 250 50 0 empty empty send -30 7 0 10 -262144
-1 -1;
#X floatatom 3139 537 5 0 0 0 - - -, f 5;
#X floatatom 3123 604 5 0 0 0 send_prog15B - send_prog15B, f 5;
#X floatatom 3284 457 5 0 0 0 receive_prog16B prog16B -, f 5;
#X obj 3278 509 f;
#X obj 3255 488 bng 15 250 50 0 empty empty write -35 7 0 10 -262144
-1 -1;
#X obj 3261 578 f;
#X obj 3260 556 bng 15 250 50 0 empty empty send -30 7 0 10 -262144
-1 -1;
#X floatatom 3279 537 5 0 0 0 - - -, f 5;
#X floatatom 3263 604 5 0 0 0 send_prog16B - send_prog16B, f 5;
#X floatatom 373 457 5 0 0 0 receive_progrXTB progrXTB -, f 5;
#X obj 367 509 f;
#X obj 344 488 bng 15 250 50 0 empty empty write -35 7 0 10 -262144
-1 -1;
#X obj 350 578 f;
#X obj 349 556 bng 15 250 50 0 empty empty send -30 7 0 10 -262144
-1 -1;
#X floatatom 368 537 5 0 0 0 - - -, f 5;
#X floatatom 352 604 5 0 0 0 send_progrXTB - send_progrXTB, f 5;
#X floatatom 563 457 5 0 0 0 receive_Trgr-progrB Trgr-progrB -, f
5;
#X obj 557 509 f;
#X obj 534 488 bng 15 250 50 0 empty empty write -35 7 0 10 -262144
-1 -1;
#X obj 540 578 f;
#X obj 539 556 bng 15 250 50 0 empty empty send -30 7 0 10 -262144
-1 -1;
#X floatatom 558 537 5 0 0 0 - - -, f 5;
#X floatatom 542 604 5 0 0 0 send_Trgr-progrB - send_Trgr-progrB,
f 5;
#X floatatom 763 457 5 0 0 0 receive_send_progr-tB progr-tB -, f 5
;
#X obj 757 509 f;
#X obj 734 488 bng 15 250 50 0 empty empty write -35 7 0 10 -262144
-1 -1;
#X obj 740 578 f;
#X obj 739 556 bng 15 250 50 0 empty empty send -30 7 0 10 -262144
-1 -1;
#X floatatom 758 537 5 0 0 0 - - -, f 5;
#X floatatom 742 604 5 0 0 0 send_progr-tB - send_progr-tB, f 5;
#X floatatom 1652 457 5 0 0 0 receive_prog4B prog4B -, f 5;
#X obj 1646 509 f;
#X obj 1623 488 bng 15 250 50 0 empty empty write -35 7 0 10 -262144
-1 -1;
#X obj 1629 578 f;
#X obj 1628 556 bng 15 250 50 0 empty empty send -30 7 0 10 -262144
-1 -1;
#X floatatom 1647 537 5 0 0 0 - - -, f 5;
#X floatatom 1631 604 5 0 0 0 send_prog4B - send_prog4B, f 5;
#X floatatom 1792 457 5 0 0 0 receive_prog5B prog5B -, f 5;
#X obj 1786 509 f;
#X obj 1763 488 bng 15 250 50 0 empty empty write -35 7 0 10 -262144
-1 -1;
#X obj 1769 578 f;
#X obj 1768 556 bng 15 250 50 0 empty empty send -30 7 0 10 -262144
-1 -1;
#X floatatom 1787 537 5 0 0 0 - - -, f 5;
#X floatatom 1771 604 5 0 0 0 send_prog5B - send_prog5B, f 5;
#X floatatom 963 657 5 0 0 0 receive_progr_progr_B progr_progr_B -
, f 5;
#X obj 957 709 f;
#X obj 924 688 bng 15 250 50 0 empty empty write -35 7 0 10 -262144
-1 -1;
#X obj 940 778 f;
#X obj 929 756 bng 15 250 50 0 empty empty send -30 7 0 10 -262144
-1 -1;
#X floatatom 958 737 5 0 0 0 - - -, f 5;
#X floatatom 942 804 5 0 0 0 send_progr_progr_B - send_progr_progr_B
, f 5;
#X floatatom 1109 657 5 0 0 0 receive_T#stepB progrstepB -, f 5;
#X obj 1103 709 f;
#X obj 1080 688 bng 15 250 50 0 empty empty write -35 7 0 10 -262144
-1 -1;
#X obj 1086 778 f;
#X obj 1085 756 bng 15 250 50 0 empty empty send -30 7 0 10 -262144
-1 -1;
#X floatatom 1104 737 5 0 0 0 - - -, f 5;
#X floatatom 1088 804 5 0 0 0 send_progstepB - send_progrstepB, f
5;
#X floatatom 1253 657 5 0 0 0 receive_prog1B prog1B -, f 5;
#X obj 1247 709 f;
#X obj 1224 688 bng 15 250 50 0 empty empty write -35 7 0 10 -262144
-1 -1;
#X obj 1230 778 f;
#X obj 1229 756 bng 15 250 50 0 empty empty send -30 7 0 10 -262144
-1 -1;
#X floatatom 1248 737 5 0 0 0 - - -, f 5;
#X floatatom 1232 804 5 0 0 0 send_prog1B - send_prog1B, f 5;
#X floatatom 1393 657 5 0 0 0 receive_prog2B prog2B -, f 5;
#X obj 1387 709 f;
#X obj 1364 688 bng 15 250 50 0 empty empty write -35 7 0 10 -262144
-1 -1;
#X obj 1370 778 f;
#X obj 1369 756 bng 15 250 50 0 empty empty send -30 7 0 10 -262144
-1 -1;
#X floatatom 1388 737 5 0 0 0 - - -, f 5;
#X floatatom 1372 804 5 0 0 0 send_prog2B - send_prog2B, f 5;
#X floatatom 1533 657 5 0 0 0 receive_prog3B prog3B -, f 5;
#X obj 1527 709 f;
#X obj 1504 688 bng 15 250 50 0 empty empty write -35 7 0 10 -262144
-1 -1;
#X obj 1510 778 f;
#X obj 1509 756 bng 15 250 50 0 empty empty send -30 7 0 10 -262144
-1 -1;
#X floatatom 1528 737 5 0 0 0 - - -, f 5;
#X floatatom 1512 804 5 0 0 0 send_prog3B - send_prog3B, f 5;
#X floatatom 1913 657 5 0 0 0 receive_prog6B prog6B -, f 5;
#X obj 1907 709 f;
#X obj 1884 688 bng 15 250 50 0 empty empty write -35 7 0 10 -262144
-1 -1;
#X obj 1890 778 f;
#X obj 1889 756 bng 15 250 50 0 empty empty send -30 7 0 10 -262144
-1 -1;
#X floatatom 1908 737 5 0 0 0 - - -, f 5;
#X floatatom 1892 804 5 0 0 0 send_prog6B - send_prog6B, f 5;
#X floatatom 2043 657 5 0 0 0 receive_prog7B prog7B -, f 5;
#X obj 2037 709 f;
#X obj 2014 688 bng 15 250 50 0 empty empty write -35 7 0 10 -262144
-1 -1;
#X obj 2020 778 f;
#X obj 2019 756 bng 15 250 50 0 empty empty send -30 7 0 10 -262144
-1 -1;
#X floatatom 2038 737 5 0 0 0 - - -, f 5;
#X floatatom 2022 804 5 0 0 0 send_prog7B - send_prog7B, f 5;
#X floatatom 2183 657 5 0 0 0 receive_prog8B prog8B -, f 5;
#X obj 2177 709 f;
#X obj 2154 688 bng 15 250 50 0 empty empty write -35 7 0 10 -262144
-1 -1;
#X obj 2160 778 f;
#X obj 2159 756 bng 15 250 50 0 empty empty send -30 7 0 10 -262144
-1 -1;
#X floatatom 2178 737 5 0 0 0 - - -, f 5;
#X floatatom 2162 804 5 0 0 0 send_prog8B - send_prog8B, f 5;
#X floatatom 2324 657 5 0 0 0 receive_prog9B prog9B -, f 5;
#X obj 2318 709 f;
#X obj 2295 688 bng 15 250 50 0 empty empty write -35 7 0 10 -262144
-1 -1;
#X obj 2301 778 f;
#X obj 2300 756 bng 15 250 50 0 empty empty send -30 7 0 10 -262144
-1 -1;
#X floatatom 2319 737 5 0 0 0 - - -, f 5;
#X floatatom 2303 804 5 0 0 0 send_prog9B - send_prog9B, f 5;
#X floatatom 2464 657 5 0 0 0 receive_prog10B prog10B -, f 5;
#X obj 2458 709 f;
#X obj 2435 688 bng 15 250 50 0 empty empty write -35 7 0 10 -262144
-1 -1;
#X obj 2441 778 f;
#X obj 2440 756 bng 15 250 50 0 empty empty send -30 7 0 10 -262144
-1 -1;
#X floatatom 2459 737 5 0 0 0 - - -, f 5;
#X floatatom 2443 804 5 0 0 0 send_prog10B - send_prog10B, f 5;
#X floatatom 2594 657 5 0 0 0 receive_prog11B prog11B -, f 5;
#X obj 2588 709 f;
#X obj 2565 688 bng 15 250 50 0 empty empty write -35 7 0 10 -262144
-1 -1;
#X obj 2571 778 f;
#X obj 2570 756 bng 15 250 50 0 empty empty send -30 7 0 10 -262144
-1 -1;
#X floatatom 2589 737 5 0 0 0 - - -, f 5;
#X floatatom 2573 804 5 0 0 0 send_prog11B - send_prog11B, f 5;
#X floatatom 2734 657 5 0 0 0 receive_prog12B prog12B -, f 5;
#X obj 2728 709 f;
#X obj 2705 688 bng 15 250 50 0 empty empty write -35 7 0 10 -262144
-1 -1;
#X obj 2711 778 f;
#X obj 2710 756 bng 15 250 50 0 empty empty send -30 7 0 10 -262144
-1 -1;
#X floatatom 2729 737 5 0 0 0 - - -, f 5;
#X floatatom 2713 804 5 0 0 0 send_prog12B - send_prog12B, f 5;
#X floatatom 2874 657 5 0 0 0 receive_prog13B prog13B -, f 5;
#X obj 2868 709 f;
#X obj 2845 688 bng 15 250 50 0 empty empty write -35 7 0 10 -262144
-1 -1;
#X obj 2851 778 f;
#X obj 2850 756 bng 15 250 50 0 empty empty send -30 7 0 10 -262144
-1 -1;
#X floatatom 2869 737 5 0 0 0 - - -, f 5;
#X floatatom 2853 804 5 0 0 0 send_prog13B - send_prog13B, f 5;
#X floatatom 3014 657 5 0 0 0 receive_prog14B prog14B -, f 5;
#X obj 3008 709 f;
#X obj 2985 688 bng 15 250 50 0 empty empty write -35 7 0 10 -262144
-1 -1;
#X obj 2991 778 f;
#X obj 2990 756 bng 15 250 50 0 empty empty send -30 7 0 10 -262144
-1 -1;
#X floatatom 3009 737 5 0 0 0 - - -, f 5;
#X floatatom 2993 804 5 0 0 0 send_prog14B - send_prog14B, f 5;
#X floatatom 3144 657 5 0 0 0 receive_prog15B prog15B -, f 5;
#X obj 3138 709 f;
#X obj 3115 688 bng 15 250 50 0 empty empty write -35 7 0 10 -262144
-1 -1;
#X obj 3121 778 f;
#X obj 3120 756 bng 15 250 50 0 empty empty send -30 7 0 10 -262144
-1 -1;
#X floatatom 3139 737 5 0 0 0 - - -, f 5;
#X floatatom 3123 804 5 0 0 0 send_prog15B - send_prog15B, f 5;
#X floatatom 3284 657 5 0 0 0 receive_prog16B prog16B -, f 5;
#X obj 3278 709 f;
#X obj 3255 688 bng 15 250 50 0 empty empty write -35 7 0 10 -262144
-1 -1;
#X obj 3261 778 f;
#X obj 3260 756 bng 15 250 50 0 empty empty send -30 7 0 10 -262144
-1 -1;
#X floatatom 3279 737 5 0 0 0 - - -, f 5;
#X floatatom 3263 804 5 0 0 0 send_prog16B - send_prog16B, f 5;
#X floatatom 373 657 5 0 0 0 receive_progrXTB progrXTB -, f 5;
#X obj 367 709 f;
#X obj 344 688 bng 15 250 50 0 empty empty write -35 7 0 10 -262144
-1 -1;
#X obj 350 778 f;
#X obj 349 756 bng 15 250 50 0 empty empty send -30 7 0 10 -262144
-1 -1;
#X floatatom 368 737 5 0 0 0 - - -, f 5;
#X floatatom 352 804 5 0 0 0 send_progrXTB - send_progrXTB, f 5;
#X floatatom 563 657 5 0 0 0 receive_Trgr-progrB Trgr-progrB -, f
5;
#X obj 557 709 f;
#X obj 534 688 bng 15 250 50 0 empty empty write -35 7 0 10 -262144
-1 -1;
#X obj 540 778 f;
#X obj 539 756 bng 15 250 50 0 empty empty send -30 7 0 10 -262144
-1 -1;
#X floatatom 558 737 5 0 0 0 - - -, f 5;
#X floatatom 542 804 5 0 0 0 send_Trgr-progrB - send_Trgr-progrB,
f 5;
#X floatatom 763 657 5 0 0 0 receive_send_progr-tB progr-tB -, f 5
;
#X obj 757 709 f;
#X obj 734 688 bng 15 250 50 0 empty empty write -35 7 0 10 -262144
-1 -1;
#X obj 740 778 f;
#X obj 739 756 bng 15 250 50 0 empty empty send -30 7 0 10 -262144
-1 -1;
#X floatatom 758 737 5 0 0 0 - - -, f 5;
#X floatatom 742 804 5 0 0 0 send_progr-tB - send_progr-tB, f 5;
#X floatatom 1652 657 5 0 0 0 receive_prog4B prog4B -, f 5;
#X obj 1646 709 f;
#X obj 1623 688 bng 15 250 50 0 empty empty write -35 7 0 10 -262144
-1 -1;
#X obj 1629 778 f;
#X obj 1628 756 bng 15 250 50 0 empty empty send -30 7 0 10 -262144
-1 -1;
#X floatatom 1647 737 5 0 0 0 - - -, f 5;
#X floatatom 1631 804 5 0 0 0 send_prog4B - send_prog4B, f 5;
#X floatatom 1792 657 5 0 0 0 receive_prog5B prog5B -, f 5;
#X obj 1786 709 f;
#X obj 1763 688 bng 15 250 50 0 empty empty write -35 7 0 10 -262144
-1 -1;
#X obj 1769 778 f;
#X obj 1768 756 bng 15 250 50 0 empty empty send -30 7 0 10 -262144
-1 -1;
#X floatatom 1787 737 5 0 0 0 - - -, f 5;
#X floatatom 1771 804 5 0 0 0 send_prog5B - send_prog5B, f 5;
#X connect 0 0 1 0;
#X connect 1 0 118 0;
#X connect 1 1 267 0;
#X connect 1 2 414 0;
#X connect 1 3 561 0;
#X connect 2 0 3 0;
#X connect 3 0 120 0;
#X connect 3 1 269 0;
#X connect 3 2 416 0;
#X connect 3 3 563 0;
#X connect 4 0 5 1;
#X connect 5 0 9 0;
#X connect 6 0 5 0;
#X connect 6 0 13 0;
#X connect 7 0 10 0;
#X connect 8 0 7 0;
#X connect 8 0 15 0;
#X connect 9 0 7 1;
#X connect 11 0 12 1;
#X connect 12 0 16 0;
#X connect 13 0 12 0;
#X connect 13 0 20 0;
#X connect 14 0 17 0;
#X connect 15 0 14 0;
#X connect 15 0 22 0;
#X connect 16 0 14 1;
#X connect 18 0 19 1;
#X connect 19 0 23 0;
#X connect 20 0 19 0;
#X connect 20 0 27 0;
#X connect 21 0 24 0;
#X connect 22 0 21 0;
#X connect 22 0 29 0;
#X connect 23 0 21 1;
#X connect 25 0 26 1;
#X connect 26 0 30 0;
#X connect 27 0 26 0;
#X connect 27 0 34 0;
#X connect 28 0 31 0;
#X connect 29 0 28 0;
#X connect 29 0 36 0;
#X connect 30 0 28 1;
#X connect 32 0 33 1;
#X connect 33 0 37 0;
#X connect 34 0 33 0;
#X connect 34 0 141 0;
#X connect 35 0 38 0;
#X connect 36 0 35 0;
#X connect 36 0 143 0;
#X connect 37 0 35 1;
#X connect 39 0 40 1;
#X connect 40 0 44 0;
#X connect 41 0 40 0;
#X connect 41 0 48 0;
#X connect 42 0 45 0;
#X connect 43 0 42 0;
#X connect 43 0 50 0;
#X connect 44 0 42 1;
#X connect 46 0 47 1;
#X connect 47 0 51 0;
#X connect 48 0 47 0;
#X connect 48 0 55 0;
#X connect 49 0 52 0;
#X connect 50 0 49 0;
#X connect 50 0 57 0;
#X connect 51 0 49 1;
#X connect 53 0 54 1;
#X connect 54 0 58 0;
#X connect 55 0 54 0;
#X connect 55 0 62 0;
#X connect 56 0 59 0;
#X connect 57 0 56 0;
#X connect 57 0 64 0;
#X connect 58 0 56 1;
#X connect 60 0 61 1;
#X connect 61 0 65 0;
#X connect 62 0 61 0;
#X connect 62 0 69 0;
#X connect 63 0 66 0;
#X connect 64 0 63 0;
#X connect 64 0 71 0;
#X connect 65 0 63 1;
#X connect 67 0 68 1;
#X connect 68 0 72 0;
#X connect 69 0 68 0;
#X connect 69 0 76 0;
#X connect 70 0 73 0;
#X connect 71 0 70 0;
#X connect 71 0 78 0;
#X connect 72 0 70 1;
#X connect 74 0 75 1;
#X connect 75 0 79 0;
#X connect 76 0 75 0;
#X connect 76 0 83 0;
#X connect 77 0 80 0;
#X connect 78 0 77 0;
#X connect 78 0 85 0;
#X connect 79 0 77 1;
#X connect 81 0 82 1;
#X connect 82 0 86 0;
#X connect 83 0 82 0;
#X connect 83 0 90 0;
#X connect 84 0 87 0;
#X connect 85 0 84 0;
#X connect 85 0 92 0;
#X connect 86 0 84 1;
#X connect 88 0 89 1;
#X connect 89 0 93 0;
#X connect 90 0 89 0;
#X connect 90 0 97 0;
#X connect 91 0 94 0;
#X connect 92 0 91 0;
#X connect 92 0 99 0;
#X connect 93 0 91 1;
#X connect 95 0 96 1;
#X connect 96 0 100 0;
#X connect 97 0 96 0;
#X connect 97 0 104 0;
#X connect 98 0 101 0;
#X connect 99 0 98 0;
#X connect 99 0 106 0;
#X connect 100 0 98 1;
#X connect 102 0 103 1;
#X connect 103 0 107 0;
#X connect 104 0 103 0;
#X connect 104 0 111 0;
#X connect 105 0 108 0;
#X connect 106 0 105 0;
#X connect 106 0 113 0;
#X connect 107 0 105 1;
#X connect 109 0 110 1;
#X connect 110 0 114 0;
#X connect 111 0 110 0;
#X connect 112 0 115 0;
#X connect 113 0 112 0;
#X connect 114 0 112 1;
#X connect 116 0 117 1;
#X connect 117 0 121 0;
#X connect 118 0 117 0;
#X connect 118 0 125 0;
#X connect 119 0 122 0;
#X connect 120 0 119 0;
#X connect 120 0 127 0;
#X connect 121 0 119 1;
#X connect 123 0 124 1;
#X connect 124 0 128 0;
#X connect 125 0 124 0;
#X connect 125 0 132 0;
#X connect 126 0 129 0;
#X connect 127 0 126 0;
#X connect 127 0 134 0;
#X connect 128 0 126 1;
#X connect 130 0 131 1;
#X connect 131 0 135 0;
#X connect 132 0 131 0;
#X connect 132 0 6 0;
#X connect 133 0 136 0;
#X connect 134 0 133 0;
#X connect 134 0 8 0;
#X connect 135 0 133 1;
#X connect 137 0 0 0;
#X connect 138 0 2 0;
#X connect 139 0 140 1;
#X connect 140 0 144 0;
#X connect 141 0 140 0;
#X connect 141 0 148 0;
#X connect 142 0 145 0;
#X connect 143 0 142 0;
#X connect 143 0 150 0;
#X connect 144 0 142 1;
#X connect 146 0 147 1;
#X connect 147 0 151 0;
#X connect 148 0 147 0;
#X connect 148 0 41 0;
#X connect 149 0 152 0;
#X connect 150 0 149 0;
#X connect 150 0 43 0;
#X connect 151 0 149 1;
#X connect 153 0 154 1;
#X connect 154 0 158 0;
#X connect 155 0 154 0;
#X connect 155 0 162 0;
#X connect 156 0 159 0;
#X connect 157 0 156 0;
#X connect 157 0 164 0;
#X connect 158 0 156 1;
#X connect 160 0 161 1;
#X connect 161 0 165 0;
#X connect 162 0 161 0;
#X connect 162 0 169 0;
#X connect 163 0 166 0;
#X connect 164 0 163 0;
#X connect 164 0 171 0;
#X connect 165 0 163 1;
#X connect 167 0 168 1;
#X connect 168 0 172 0;
#X connect 169 0 168 0;
#X connect 169 0 176 0;
#X connect 170 0 173 0;
#X connect 171 0 170 0;
#X connect 171 0 178 0;
#X connect 172 0 170 1;
#X connect 174 0 175 1;
#X connect 175 0 179 0;
#X connect 176 0 175 0;
#X connect 176 0 183 0;
#X connect 177 0 180 0;
#X connect 178 0 177 0;
#X connect 178 0 185 0;
#X connect 179 0 177 1;
#X connect 181 0 182 1;
#X connect 182 0 186 0;
#X connect 183 0 182 0;
#X connect 183 0 288 0;
#X connect 184 0 187 0;
#X connect 185 0 184 0;
#X connect 185 0 290 0;
#X connect 186 0 184 1;
#X connect 188 0 189 1;
#X connect 189 0 193 0;
#X connect 190 0 189 0;
#X connect 190 0 197 0;
#X connect 191 0 194 0;
#X connect 192 0 191 0;
#X connect 192 0 199 0;
#X connect 193 0 191 1;
#X connect 195 0 196 1;
#X connect 196 0 200 0;
#X connect 197 0 196 0;
#X connect 197 0 204 0;
#X connect 198 0 201 0;
#X connect 199 0 198 0;
#X connect 199 0 206 0;
#X connect 200 0 198 1;
#X connect 202 0 203 1;
#X connect 203 0 207 0;
#X connect 204 0 203 0;
#X connect 204 0 211 0;
#X connect 205 0 208 0;
#X connect 206 0 205 0;
#X connect 206 0 213 0;
#X connect 207 0 205 1;
#X connect 209 0 210 1;
#X connect 210 0 214 0;
#X connect 211 0 210 0;
#X connect 211 0 218 0;
#X connect 212 0 215 0;
#X connect 213 0 212 0;
#X connect 213 0 220 0;
#X connect 214 0 212 1;
#X connect 216 0 217 1;
#X connect 217 0 221 0;
#X connect 218 0 217 0;
#X connect 218 0 225 0;
#X connect 219 0 222 0;
#X connect 220 0 219 0;
#X connect 220 0 227 0;
#X connect 221 0 219 1;
#X connect 223 0 224 1;
#X connect 224 0 228 0;
#X connect 225 0 224 0;
#X connect 225 0 232 0;
#X connect 226 0 229 0;
#X connect 227 0 226 0;
#X connect 227 0 234 0;
#X connect 228 0 226 1;
#X connect 230 0 231 1;
#X connect 231 0 235 0;
#X connect 232 0 231 0;
#X connect 232 0 239 0;
#X connect 233 0 236 0;
#X connect 234 0 233 0;
#X connect 234 0 241 0;
#X connect 235 0 233 1;
#X connect 237 0 238 1;
#X connect 238 0 242 0;
#X connect 239 0 238 0;
#X connect 239 0 246 0;
#X connect 240 0 243 0;
#X connect 241 0 240 0;
#X connect 241 0 248 0;
#X connect 242 0 240 1;
#X connect 244 0 245 1;
#X connect 245 0 249 0;
#X connect 246 0 245 0;
#X connect 246 0 253 0;
#X connect 247 0 250 0;
#X connect 248 0 247 0;
#X connect 248 0 255 0;
#X connect 249 0 247 1;
#X connect 251 0 252 1;
#X connect 252 0 256 0;
#X connect 253 0 252 0;
#X connect 253 0 260 0;
#X connect 254 0 257 0;
#X connect 255 0 254 0;
#X connect 255 0 262 0;
#X connect 256 0 254 1;
#X connect 258 0 259 1;
#X connect 259 0 263 0;
#X connect 260 0 259 0;
#X connect 261 0 264 0;
#X connect 262 0 261 0;
#X connect 263 0 261 1;
#X connect 265 0 266 1;
#X connect 266 0 270 0;
#X connect 267 0 266 0;
#X connect 267 0 274 0;
#X connect 268 0 271 0;
#X connect 269 0 268 0;
#X connect 269 0 276 0;
#X connect 270 0 268 1;
#X connect 272 0 273 1;
#X connect 273 0 277 0;
#X connect 274 0 273 0;
#X connect 274 0 281 0;
#X connect 275 0 278 0;
#X connect 276 0 275 0;
#X connect 276 0 283 0;
#X connect 277 0 275 1;
#X connect 279 0 280 1;
#X connect 280 0 284 0;
#X connect 281 0 280 0;
#X connect 281 0 155 0;
#X connect 282 0 285 0;
#X connect 283 0 282 0;
#X connect 283 0 157 0;
#X connect 284 0 282 1;
#X connect 286 0 287 1;
#X connect 287 0 291 0;
#X connect 288 0 287 0;
#X connect 288 0 295 0;
#X connect 289 0 292 0;
#X connect 290 0 289 0;
#X connect 290 0 297 0;
#X connect 291 0 289 1;
#X connect 293 0 294 1;
#X connect 294 0 298 0;
#X connect 295 0 294 0;
#X connect 295 0 190 0;
#X connect 296 0 299 0;
#X connect 297 0 296 0;
#X connect 297 0 192 0;
#X connect 298 0 296 1;
#X connect 300 0 301 1;
#X connect 301 0 305 0;
#X connect 302 0 301 0;
#X connect 302 0 309 0;
#X connect 303 0 306 0;
#X connect 304 0 303 0;
#X connect 304 0 311 0;
#X connect 305 0 303 1;
#X connect 307 0 308 1;
#X connect 308 0 312 0;
#X connect 309 0 308 0;
#X connect 309 0 316 0;
#X connect 310 0 313 0;
#X connect 311 0 310 0;
#X connect 311 0 318 0;
#X connect 312 0 310 1;
#X connect 314 0 315 1;
#X connect 315 0 319 0;
#X connect 316 0 315 0;
#X connect 316 0 323 0;
#X connect 317 0 320 0;
#X connect 318 0 317 0;
#X connect 318 0 325 0;
#X connect 319 0 317 1;
#X connect 321 0 322 1;
#X connect 322 0 326 0;
#X connect 323 0 322 0;
#X connect 323 0 330 0;
#X connect 324 0 327 0;
#X connect 325 0 324 0;
#X connect 325 0 332 0;
#X connect 326 0 324 1;
#X connect 328 0 329 1;
#X connect 329 0 333 0;
#X connect 330 0 329 0;
#X connect 330 0 435 0;
#X connect 331 0 334 0;
#X connect 332 0 331 0;
#X connect 332 0 437 0;
#X connect 333 0 331 1;
#X connect 335 0 336 1;
#X connect 336 0 340 0;
#X connect 337 0 336 0;
#X connect 337 0 344 0;
#X connect 338 0 341 0;
#X connect 339 0 338 0;
#X connect 339 0 346 0;
#X connect 340 0 338 1;
#X connect 342 0 343 1;
#X connect 343 0 347 0;
#X connect 344 0 343 0;
#X connect 344 0 351 0;
#X connect 345 0 348 0;
#X connect 346 0 345 0;
#X connect 346 0 353 0;
#X connect 347 0 345 1;
#X connect 349 0 350 1;
#X connect 350 0 354 0;
#X connect 351 0 350 0;
#X connect 351 0 358 0;
#X connect 352 0 355 0;
#X connect 353 0 352 0;
#X connect 353 0 360 0;
#X connect 354 0 352 1;
#X connect 356 0 357 1;
#X connect 357 0 361 0;
#X connect 358 0 357 0;
#X connect 358 0 365 0;
#X connect 359 0 362 0;
#X connect 360 0 359 0;
#X connect 360 0 367 0;
#X connect 361 0 359 1;
#X connect 363 0 364 1;
#X connect 364 0 368 0;
#X connect 365 0 364 0;
#X connect 365 0 372 0;
#X connect 366 0 369 0;
#X connect 367 0 366 0;
#X connect 367 0 374 0;
#X connect 368 0 366 1;
#X connect 370 0 371 1;
#X connect 371 0 375 0;
#X connect 372 0 371 0;
#X connect 372 0 379 0;
#X connect 373 0 376 0;
#X connect 374 0 373 0;
#X connect 374 0 381 0;
#X connect 375 0 373 1;
#X connect 377 0 378 1;
#X connect 378 0 382 0;
#X connect 379 0 378 0;
#X connect 379 0 386 0;
#X connect 380 0 383 0;
#X connect 381 0 380 0;
#X connect 381 0 388 0;
#X connect 382 0 380 1;
#X connect 384 0 385 1;
#X connect 385 0 389 0;
#X connect 386 0 385 0;
#X connect 386 0 393 0;
#X connect 387 0 390 0;
#X connect 388 0 387 0;
#X connect 388 0 395 0;
#X connect 389 0 387 1;
#X connect 391 0 392 1;
#X connect 392 0 396 0;
#X connect 393 0 392 0;
#X connect 393 0 400 0;
#X connect 394 0 397 0;
#X connect 395 0 394 0;
#X connect 395 0 402 0;
#X connect 396 0 394 1;
#X connect 398 0 399 1;
#X connect 399 0 403 0;
#X connect 400 0 399 0;
#X connect 400 0 407 0;
#X connect 401 0 404 0;
#X connect 402 0 401 0;
#X connect 402 0 409 0;
#X connect 403 0 401 1;
#X connect 405 0 406 1;
#X connect 406 0 410 0;
#X connect 407 0 406 0;
#X connect 408 0 411 0;
#X connect 409 0 408 0;
#X connect 410 0 408 1;
#X connect 412 0 413 1;
#X connect 413 0 417 0;
#X connect 414 0 413 0;
#X connect 414 0 421 0;
#X connect 415 0 418 0;
#X connect 416 0 415 0;
#X connect 416 0 423 0;
#X connect 417 0 415 1;
#X connect 419 0 420 1;
#X connect 420 0 424 0;
#X connect 421 0 420 0;
#X connect 421 0 428 0;
#X connect 422 0 425 0;
#X connect 423 0 422 0;
#X connect 423 0 430 0;
#X connect 424 0 422 1;
#X connect 426 0 427 1;
#X connect 427 0 431 0;
#X connect 428 0 427 0;
#X connect 428 0 302 0;
#X connect 429 0 432 0;
#X connect 430 0 429 0;
#X connect 430 0 304 0;
#X connect 431 0 429 1;
#X connect 433 0 434 1;
#X connect 434 0 438 0;
#X connect 435 0 434 0;
#X connect 435 0 442 0;
#X connect 436 0 439 0;
#X connect 437 0 436 0;
#X connect 437 0 444 0;
#X connect 438 0 436 1;
#X connect 440 0 441 1;
#X connect 441 0 445 0;
#X connect 442 0 441 0;
#X connect 442 0 337 0;
#X connect 443 0 446 0;
#X connect 444 0 443 0;
#X connect 444 0 339 0;
#X connect 445 0 443 1;
#X connect 447 0 448 1;
#X connect 448 0 452 0;
#X connect 449 0 448 0;
#X connect 449 0 456 0;
#X connect 450 0 453 0;
#X connect 451 0 450 0;
#X connect 451 0 458 0;
#X connect 452 0 450 1;
#X connect 454 0 455 1;
#X connect 455 0 459 0;
#X connect 456 0 455 0;
#X connect 456 0 463 0;
#X connect 457 0 460 0;
#X connect 458 0 457 0;
#X connect 458 0 465 0;
#X connect 459 0 457 1;
#X connect 461 0 462 1;
#X connect 462 0 466 0;
#X connect 463 0 462 0;
#X connect 463 0 470 0;
#X connect 464 0 467 0;
#X connect 465 0 464 0;
#X connect 465 0 472 0;
#X connect 466 0 464 1;
#X connect 468 0 469 1;
#X connect 469 0 473 0;
#X connect 470 0 469 0;
#X connect 470 0 477 0;
#X connect 471 0 474 0;
#X connect 472 0 471 0;
#X connect 472 0 479 0;
#X connect 473 0 471 1;
#X connect 475 0 476 1;
#X connect 476 0 480 0;
#X connect 477 0 476 0;
#X connect 477 0 582 0;
#X connect 478 0 481 0;
#X connect 479 0 478 0;
#X connect 479 0 584 0;
#X connect 480 0 478 1;
#X connect 482 0 483 1;
#X connect 483 0 487 0;
#X connect 484 0 483 0;
#X connect 484 0 491 0;
#X connect 485 0 488 0;
#X connect 486 0 485 0;
#X connect 486 0 493 0;
#X connect 487 0 485 1;
#X connect 489 0 490 1;
#X connect 490 0 494 0;
#X connect 491 0 490 0;
#X connect 491 0 498 0;
#X connect 492 0 495 0;
#X connect 493 0 492 0;
#X connect 493 0 500 0;
#X connect 494 0 492 1;
#X connect 496 0 497 1;
#X connect 497 0 501 0;
#X connect 498 0 497 0;
#X connect 498 0 505 0;
#X connect 499 0 502 0;
#X connect 500 0 499 0;
#X connect 500 0 507 0;
#X connect 501 0 499 1;
#X connect 503 0 504 1;
#X connect 504 0 508 0;
#X connect 505 0 504 0;
#X connect 505 0 512 0;
#X connect 506 0 509 0;
#X connect 507 0 506 0;
#X connect 507 0 514 0;
#X connect 508 0 506 1;
#X connect 510 0 511 1;
#X connect 511 0 515 0;
#X connect 512 0 511 0;
#X connect 512 0 519 0;
#X connect 513 0 516 0;
#X connect 514 0 513 0;
#X connect 514 0 521 0;
#X connect 515 0 513 1;
#X connect 517 0 518 1;
#X connect 518 0 522 0;
#X connect 519 0 518 0;
#X connect 519 0 526 0;
#X connect 520 0 523 0;
#X connect 521 0 520 0;
#X connect 521 0 528 0;
#X connect 522 0 520 1;
#X connect 524 0 525 1;
#X connect 525 0 529 0;
#X connect 526 0 525 0;
#X connect 526 0 533 0;
#X connect 527 0 530 0;
#X connect 528 0 527 0;
#X connect 528 0 535 0;
#X connect 529 0 527 1;
#X connect 531 0 532 1;
#X connect 532 0 536 0;
#X connect 533 0 532 0;
#X connect 533 0 540 0;
#X connect 534 0 537 0;
#X connect 535 0 534 0;
#X connect 535 0 542 0;
#X connect 536 0 534 1;
#X connect 538 0 539 1;
#X connect 539 0 543 0;
#X connect 540 0 539 0;
#X connect 540 0 547 0;
#X connect 541 0 544 0;
#X connect 542 0 541 0;
#X connect 542 0 549 0;
#X connect 543 0 541 1;
#X connect 545 0 546 1;
#X connect 546 0 550 0;
#X connect 547 0 546 0;
#X connect 547 0 554 0;
#X connect 548 0 551 0;
#X connect 549 0 548 0;
#X connect 549 0 556 0;
#X connect 550 0 548 1;
#X connect 552 0 553 1;
#X connect 553 0 557 0;
#X connect 554 0 553 0;
#X connect 555 0 558 0;
#X connect 556 0 555 0;
#X connect 557 0 555 1;
#X connect 559 0 560 1;
#X connect 560 0 564 0;
#X connect 561 0 560 0;
#X connect 561 0 568 0;
#X connect 562 0 565 0;
#X connect 563 0 562 0;
#X connect 563 0 570 0;
#X connect 564 0 562 1;
#X connect 566 0 567 1;
#X connect 567 0 571 0;
#X connect 568 0 567 0;
#X connect 568 0 575 0;
#X connect 569 0 572 0;
#X connect 570 0 569 0;
#X connect 570 0 577 0;
#X connect 571 0 569 1;
#X connect 573 0 574 1;
#X connect 574 0 578 0;
#X connect 575 0 574 0;
#X connect 575 0 449 0;
#X connect 576 0 579 0;
#X connect 577 0 576 0;
#X connect 577 0 451 0;
#X connect 578 0 576 1;
#X connect 580 0 581 1;
#X connect 581 0 585 0;
#X connect 582 0 581 0;
#X connect 582 0 589 0;
#X connect 583 0 586 0;
#X connect 584 0 583 0;
#X connect 584 0 591 0;
#X connect 585 0 583 1;
#X connect 587 0 588 1;
#X connect 588 0 592 0;
#X connect 589 0 588 0;
#X connect 589 0 484 0;
#X connect 590 0 593 0;
#X connect 591 0 590 0;
#X connect 591 0 486 0;
#X connect 592 0 590 1;
#X coords 0 -1 1 1 150 19 2 100 100;
