#N canvas -62 322 1440 878 10;
#X obj 103 102 hradio 15 1 0 4 empty empty empty -48 8 0 10 -262144
-1 -1 0;
#X obj 289 64 sel 0 1 2;
#X obj 182 102 hradio 15 1 0 4 empty empty empty -12 8 0 10 -262144
-1 -1 1;
#X obj 289 134 sel 0 1 2;
#X obj 100 38 inlet;
#X obj 160 38 inlet;
#X floatatom 940 479 5 0 0 0 receive_#1-out #1-out -, f 5;
#X obj 934 531 f;
#X obj 911 510 bng 15 250 50 0 empty empty write -35 7 0 10 -262144
-1 -1;
#X obj 917 600 f;
#X obj 916 578 bng 15 250 50 0 empty empty send -30 7 0 10 -262144
-1 -1;
#X floatatom 935 559 5 0 0 0 - - -, f 5;
#X floatatom 917 623 5 0 0 0 send_#1 - send_#1, f 5;
#X obj 992 518 r of16;
#X floatatom 997 578 5 0 0 0 - - -, f 5;
#X obj 997 558 tgl 15 0 empty empty empty 17 7 0 10 -262144 -1 -1 1
1;
#X obj 984 601 f;
#X obj 968 666 f;
#X obj 966 648 bng 15 250 50 0 empty empty send -30 7 0 10 -262144
-1 -1;
#X floatatom 985 630 5 0 0 0 - - -, f 5;
#X floatatom 1150 479 5 0 0 0 receive_#2-out #2-out -, f 5;
#X obj 1144 531 f;
#X obj 1121 510 bng 15 250 50 0 empty empty write -35 7 0 10 -262144
-1 -1;
#X obj 1127 600 f;
#X obj 1126 578 bng 15 250 50 0 empty empty send -30 7 0 10 -262144
-1 -1;
#X floatatom 1145 559 5 0 0 0 - - -, f 5;
#X floatatom 1127 623 5 0 0 0 send_#2 - send_#2, f 5;
#X floatatom 1207 578 5 0 0 0 - - -, f 5;
#X obj 1207 558 tgl 15 0 empty empty empty 17 7 0 10 -262144 -1 -1
0 1;
#X obj 1194 601 f;
#X obj 1178 666 f;
#X obj 1176 648 bng 15 250 50 0 empty empty send -30 7 0 10 -262144
-1 -1;
#X floatatom 1195 630 5 0 0 0 - - -, f 5;
#X floatatom 1360 479 3 0 0 0 receive_#3-out #3-out -, f 3;
#X obj 1354 531 f;
#X obj 1331 510 bng 15 250 50 0 empty empty write -35 7 0 10 -262144
-1 -1;
#X obj 1337 600 f;
#X obj 1336 578 bng 15 250 50 0 empty empty send -30 7 0 10 -262144
-1 -1;
#X floatatom 1355 559 5 0 0 0 - - -, f 5;
#X floatatom 1337 623 5 0 0 0 send_#3 - send_#3, f 5;
#X floatatom 1417 578 5 0 0 0 - - -, f 5;
#X obj 1417 558 tgl 15 0 empty empty empty 17 7 0 10 -262144 -1 -1
0 1;
#X obj 1404 601 f;
#X obj 1388 666 f;
#X obj 1386 648 bng 15 250 50 0 empty empty send -30 7 0 10 -262144
-1 -1;
#X floatatom 1405 630 5 0 0 0 - - -, f 5;
#X floatatom 1570 479 5 0 0 0 receive_#4-out #4-out -, f 5;
#X obj 1564 531 f;
#X obj 1541 510 bng 15 250 50 0 empty empty write -35 7 0 10 -262144
-1 -1;
#X obj 1547 600 f;
#X obj 1546 578 bng 15 250 50 0 empty empty send -30 7 0 10 -262144
-1 -1;
#X floatatom 1565 559 5 0 0 0 - - -, f 5;
#X floatatom 1547 623 5 0 0 0 send_#4 - send_#4, f 5;
#X floatatom 1627 578 5 0 0 0 - - -, f 5;
#X obj 1627 558 tgl 15 0 empty empty empty 17 7 0 10 -262144 -1 -1
1 1;
#X obj 1614 601 f;
#X obj 1598 666 f;
#X obj 1596 648 bng 15 250 50 0 empty empty send -30 7 0 10 -262144
-1 -1;
#X floatatom 1615 630 5 0 0 0 - - -, f 5;
#X floatatom 1770 479 5 0 0 0 receive_#5-out #5-out -, f 5;
#X obj 1764 531 f;
#X obj 1741 510 bng 15 250 50 0 empty empty write -35 7 0 10 -262144
-1 -1;
#X obj 1747 600 f;
#X obj 1746 578 bng 15 250 50 0 empty empty send -30 7 0 10 -262144
-1 -1;
#X floatatom 1765 559 5 0 0 0 - - -, f 5;
#X floatatom 1747 623 5 0 0 0 send_#5 - send_#5, f 5;
#X floatatom 1827 578 5 0 0 0 - - -, f 5;
#X obj 1827 558 tgl 15 0 empty empty empty 17 7 0 10 -262144 -1 -1
0 1;
#X obj 1814 601 f;
#X obj 1798 666 f;
#X obj 1796 648 bng 15 250 50 0 empty empty send -30 7 0 10 -262144
-1 -1;
#X floatatom 1815 630 5 0 0 0 - - -, f 5;
#X floatatom 1980 479 5 0 0 0 receive_#6-out #6-out -, f 5;
#X obj 1974 531 f;
#X obj 1951 510 bng 15 250 50 0 empty empty write -35 7 0 10 -262144
-1 -1;
#X obj 1957 600 f;
#X obj 1956 578 bng 15 250 50 0 empty empty send -30 7 0 10 -262144
-1 -1;
#X floatatom 1975 559 5 0 0 0 - - -, f 5;
#X floatatom 1957 623 5 0 0 0 send_#6 - send_#6, f 5;
#X floatatom 2037 578 5 0 0 0 - - -, f 5;
#X obj 2037 558 tgl 15 0 empty empty empty 17 7 0 10 -262144 -1 -1
21 1;
#X obj 2024 601 f;
#X obj 2008 666 f;
#X obj 2006 648 bng 15 250 50 0 empty empty send -30 7 0 10 -262144
-1 -1;
#X floatatom 2025 630 5 0 0 0 - - -, f 5;
#X floatatom 2190 479 5 0 0 0 receive_#7-out #7-out -, f 5;
#X obj 2184 531 f;
#X obj 2161 510 bng 15 250 50 0 empty empty write -35 7 0 10 -262144
-1 -1;
#X obj 2167 600 f;
#X obj 2166 578 bng 15 250 50 0 empty empty send -30 7 0 10 -262144
-1 -1;
#X floatatom 2185 559 5 0 0 0 - - -, f 5;
#X floatatom 2167 623 5 0 0 0 send_#7 - send_#7, f 5;
#X floatatom 2247 578 5 0 0 0 - - -, f 5;
#X obj 2247 558 tgl 15 0 empty empty empty 17 7 0 10 -262144 -1 -1
1 1;
#X obj 2234 601 f;
#X obj 2218 666 f;
#X obj 2216 648 bng 15 250 50 0 empty empty send -30 7 0 10 -262144
-1 -1;
#X floatatom 2235 630 5 0 0 0 - - -, f 5;
#X floatatom 2413 480 5 0 0 0 receive_#8-out #8-out -, f 5;
#X obj 2407 532 f;
#X obj 2384 511 bng 15 250 50 0 empty empty write -35 7 0 10 -262144
-1 -1;
#X obj 2390 601 f;
#X obj 2389 579 bng 15 250 50 0 empty empty send -30 7 0 10 -262144
-1 -1;
#X floatatom 2408 560 5 0 0 0 - - -, f 5;
#X floatatom 2390 624 5 0 0 0 send_#8 - send_#8, f 5;
#X floatatom 2470 579 5 0 0 0 - - -, f 5;
#X obj 2470 559 tgl 15 0 empty empty empty 17 7 0 10 -262144 -1 -1
1 1;
#X obj 2457 602 f;
#X obj 2441 667 f;
#X obj 2439 649 bng 15 250 50 0 empty empty send -30 7 0 10 -262144
-1 -1;
#X floatatom 2458 631 5 0 0 0 - - -, f 5;
#X floatatom 2623 480 5 0 0 0 receive_#9-out #9-out -, f 5;
#X obj 2617 532 f;
#X obj 2594 511 bng 15 250 50 0 empty empty write -35 7 0 10 -262144
-1 -1;
#X obj 2600 601 f;
#X obj 2599 579 bng 15 250 50 0 empty empty send -30 7 0 10 -262144
-1 -1;
#X floatatom 2618 560 5 0 0 0 - - -, f 5;
#X floatatom 2600 624 5 0 0 0 send_#9 - send_#9, f 5;
#X floatatom 2680 579 5 0 0 0 - - -, f 5;
#X obj 2680 559 tgl 15 0 empty empty empty 17 7 0 10 -262144 -1 -1
1 1;
#X obj 2667 602 f;
#X obj 2651 667 f;
#X obj 2649 649 bng 15 250 50 0 empty empty send -30 7 0 10 -262144
-1 -1;
#X floatatom 2668 631 5 0 0 0 - - -, f 5;
#X floatatom 2833 480 5 0 0 0 receive_#10-out #10-out -, f 5;
#X obj 2827 532 f;
#X obj 2804 511 bng 15 250 50 0 empty empty write -35 7 0 10 -262144
-1 -1;
#X obj 2810 601 f;
#X obj 2809 579 bng 15 250 50 0 empty empty send -30 7 0 10 -262144
-1 -1;
#X floatatom 2828 560 5 0 0 0 - - -, f 5;
#X floatatom 2810 624 5 0 0 0 send_#10 - send_#10, f 5;
#X floatatom 2890 579 5 0 0 0 - - -, f 5;
#X obj 2890 559 tgl 15 0 empty empty empty 17 7 0 10 -262144 -1 -1
1 1;
#X obj 2877 602 f;
#X obj 2861 667 f;
#X obj 2859 649 bng 15 250 50 0 empty empty send -30 7 0 10 -262144
-1 -1;
#X floatatom 2878 631 5 0 0 0 - - -, f 5;
#X floatatom 3255 480 5 0 0 0 receive_#12-out #12-out -, f 5;
#X obj 3037 532 f;
#X obj 3014 511 bng 15 250 50 0 empty empty write -35 7 0 10 -262144
-1 -1;
#X obj 3020 601 f;
#X obj 3019 579 bng 15 250 50 0 empty empty send -30 7 0 10 -262144
-1 -1;
#X floatatom 3038 560 5 0 0 0 - - -, f 5;
#X floatatom 3020 624 5 0 0 0 send_#11 - send_#11, f 5;
#X floatatom 3100 579 5 0 0 0 - - -, f 5;
#X obj 3100 559 tgl 15 0 empty empty empty 17 7 0 10 -262144 -1 -1
1 1;
#X obj 3087 602 f;
#X obj 3071 667 f;
#X obj 3069 649 bng 15 250 50 0 empty empty send -30 7 0 10 -262144
-1 -1;
#X floatatom 3088 631 5 0 0 0 - - -, f 5;
#X floatatom 3464 480 5 0 0 0 receive_#13-out #13-out -, f 5;
#X obj 3237 532 f;
#X obj 3214 511 bng 15 250 50 0 empty empty write -35 7 0 10 -262144
-1 -1;
#X obj 3220 601 f;
#X obj 3219 579 bng 15 250 50 0 empty empty send -30 7 0 10 -262144
-1 -1;
#X floatatom 3238 560 5 0 0 0 - - -, f 5;
#X floatatom 3220 624 5 0 0 0 send_#12 - send_#12, f 5;
#X floatatom 3300 579 5 0 0 0 - - -, f 5;
#X obj 3300 559 tgl 15 0 empty empty empty 17 7 0 10 -262144 -1 -1
1 1;
#X obj 3287 602 f;
#X obj 3271 667 f;
#X obj 3269 647 bng 15 250 50 0 empty empty send -30 7 0 10 -262144
-1 -1;
#X floatatom 3288 631 5 0 0 0 - - -, f 5;
#X floatatom 3676 480 5 0 0 0 receive_#14-out #14-out -, f 5;
#X obj 3447 532 f;
#X obj 3424 511 bng 15 250 50 0 empty empty write -35 7 0 10 -262144
-1 -1;
#X obj 3430 601 f;
#X obj 3429 579 bng 15 250 50 0 empty empty send -30 7 0 10 -262144
-1 -1;
#X floatatom 3448 560 5 0 0 0 - - -, f 5;
#X floatatom 3430 624 5 0 0 0 send_#13 - send_#13, f 5;
#X floatatom 3510 579 5 0 0 0 - - -, f 5;
#X obj 3510 559 tgl 15 0 empty empty empty 17 7 0 10 -262144 -1 -1
1 1;
#X obj 3497 602 f;
#X obj 3481 667 f;
#X obj 3479 649 bng 15 250 50 0 empty empty send -30 7 0 10 -262144
-1 -1;
#X floatatom 3498 631 5 0 0 0 - - -, f 5;
#X obj 3657 532 f;
#X obj 3634 511 bng 15 250 50 0 empty empty write -35 7 0 10 -262144
-1 -1;
#X obj 3640 601 f;
#X obj 3639 579 bng 15 250 50 0 empty empty send -30 7 0 10 -262144
-1 -1;
#X floatatom 3658 560 5 0 0 0 - - -, f 5;
#X floatatom 3640 624 5 0 0 0 send_#14 - send_#14, f 5;
#X floatatom 3720 579 5 0 0 0 - - -, f 5;
#X obj 3720 559 tgl 15 0 empty empty empty 17 7 0 10 -262144 -1 -1
1 1;
#X obj 3707 602 f;
#X obj 3691 667 f;
#X obj 3689 649 bng 15 250 50 0 empty empty send -30 7 0 10 -262144
-1 -1;
#X floatatom 3708 631 5 0 0 0 - - -, f 5;
#X floatatom 3881 480 5 0 0 0 receive_#15-out #15-out -, f 5;
#X obj 3867 532 f;
#X obj 3844 511 bng 15 250 50 0 empty empty write -35 7 0 10 -262144
-1 -1;
#X obj 3850 601 f;
#X obj 3849 579 bng 15 250 50 0 empty empty send -30 7 0 10 -262144
-1 -1;
#X floatatom 3868 560 5 0 0 0 - - -, f 5;
#X floatatom 3850 624 5 0 0 0 send_#15 - send_#15, f 5;
#X floatatom 3930 579 5 0 0 0 - - -, f 5;
#X obj 3930 559 tgl 15 0 empty empty empty 17 7 0 10 -262144 -1 -1
1 1;
#X obj 3917 602 f;
#X obj 3901 667 f;
#X obj 3899 649 bng 15 250 50 0 empty empty send -30 7 0 10 -262144
-1 -1;
#X floatatom 3918 631 5 0 0 0 - - -, f 5;
#X obj 1205 537 r of17;
#X obj 1415 537 r of18;
#X obj 1625 537 r of19;
#X obj 1825 537 r of20;
#X obj 2035 537 r of21;
#X obj 2245 537 r of22;
#X obj 2468 538 r of23;
#X obj 2678 538 r of24;
#X obj 2888 538 r of25;
#X obj 3098 538 r of26;
#X obj 3298 538 r of27;
#X obj 3508 538 r of28;
#X obj 3718 538 r of29;
#X obj 3928 538 r of30;
#X floatatom 4086 480 5 0 0 0 receive_#16-out #16-out -, f 5;
#X obj 4067 532 f;
#X obj 4044 511 bng 15 250 50 0 empty empty write -35 7 0 10 -262144
-1 -1;
#X obj 4050 601 f;
#X obj 4049 579 bng 15 250 50 0 empty empty send -30 7 0 10 -262144
-1 -1;
#X floatatom 4068 560 5 0 0 0 - - -, f 5;
#X floatatom 4050 624 5 0 0 0 send_#16 - send_#15, f 5;
#X floatatom 4130 579 5 0 0 0 - - -, f 5;
#X obj 4130 559 tgl 15 0 empty empty empty 17 7 0 10 -262144 -1 -1
1 1;
#X obj 4117 602 f;
#X obj 4101 667 f;
#X obj 4099 649 bng 15 250 50 0 empty empty send -30 7 0 10 -262144
-1 -1;
#X floatatom 4118 631 5 0 0 0 - - -, f 5;
#X obj 4128 538 r of31;
#X floatatom 3053 480 5 0 0 0 receive_#11-out #11-out -, f 5;
#X floatatom 810 479 5 0 0 0 receive_stpA stpA -, f 5;
#X obj 804 531 f;
#X obj 781 510 bng 15 250 50 0 empty empty write -35 7 0 10 -262144
-1 -1;
#X obj 787 600 f;
#X obj 786 578 bng 15 250 50 0 empty empty send -30 7 0 10 -262144
-1 -1;
#X floatatom 805 559 5 0 0 0 - - -, f 5;
#X floatatom 789 626 5 0 0 0 send_stpA - send_stpA, f 5;
#X obj 1419 486 onoff18;
#X obj 2253 484 onoff22;
#X obj 969 689 s of16;
#X obj 1179 689 s of17;
#X obj 1389 689 s of18;
#X obj 1599 689 s of19;
#X obj 1799 689 s of20;
#X obj 2009 689 s of21;
#X obj 2219 689 s of22;
#X obj 3902 690 s of30;
#X obj 3692 690 s of29;
#X obj 3482 690 s of28;
#X obj 3272 690 s of27;
#X obj 3072 689 s of26;
#X obj 2862 690 s of25;
#X obj 2652 690 s of24;
#X obj 2442 690 s of23;
#X obj 4102 690 s of31;
#X obj 3572 543 r lo;
#X floatatom 940 839 5 0 0 0 receive_#1-out #1-out -, f 5;
#X obj 934 891 f;
#X obj 911 870 bng 15 250 50 0 empty empty write -35 7 0 10 -262144
-1 -1;
#X obj 917 960 f;
#X obj 916 938 bng 15 250 50 0 empty empty send -30 7 0 10 -262144
-1 -1;
#X floatatom 935 919 5 0 0 0 - - -, f 5;
#X floatatom 917 983 5 0 0 0 send_#1 - send_#1, f 5;
#X obj 992 878 r of16;
#X floatatom 997 938 5 0 0 0 - - -, f 5;
#X obj 997 918 tgl 15 0 empty empty empty 17 7 0 10 -262144 -1 -1 1
1;
#X obj 984 961 f;
#X obj 968 1026 f;
#X obj 966 1008 bng 15 250 50 0 empty empty send -30 7 0 10 -262144
-1 -1;
#X floatatom 985 990 5 0 0 0 - - -, f 5;
#X floatatom 1150 839 5 0 0 0 receive_#2-out #2-out -, f 5;
#X obj 1144 891 f;
#X obj 1121 870 bng 15 250 50 0 empty empty write -35 7 0 10 -262144
-1 -1;
#X obj 1127 960 f;
#X obj 1126 938 bng 15 250 50 0 empty empty send -30 7 0 10 -262144
-1 -1;
#X floatatom 1145 919 5 0 0 0 - - -, f 5;
#X floatatom 1127 983 5 0 0 0 send_#2 - send_#2, f 5;
#X floatatom 1207 938 5 0 0 0 - - -, f 5;
#X obj 1207 918 tgl 15 0 empty empty empty 17 7 0 10 -262144 -1 -1
0 1;
#X obj 1194 961 f;
#X obj 1178 1026 f;
#X obj 1176 1008 bng 15 250 50 0 empty empty send -30 7 0 10 -262144
-1 -1;
#X floatatom 1195 990 5 0 0 0 - - -, f 5;
#X floatatom 1360 839 3 0 0 0 receive_#3-out #3-out -, f 3;
#X obj 1354 891 f;
#X obj 1331 870 bng 15 250 50 0 empty empty write -35 7 0 10 -262144
-1 -1;
#X obj 1337 960 f;
#X obj 1336 938 bng 15 250 50 0 empty empty send -30 7 0 10 -262144
-1 -1;
#X floatatom 1355 919 5 0 0 0 - - -, f 5;
#X floatatom 1337 983 5 0 0 0 send_#3 - send_#3, f 5;
#X floatatom 1417 938 5 0 0 0 - - -, f 5;
#X obj 1417 918 tgl 15 0 empty empty empty 17 7 0 10 -262144 -1 -1
0 1;
#X obj 1404 961 f;
#X obj 1388 1026 f;
#X obj 1386 1008 bng 15 250 50 0 empty empty send -30 7 0 10 -262144
-1 -1;
#X floatatom 1405 990 5 0 0 0 - - -, f 5;
#X floatatom 1570 839 5 0 0 0 receive_#4-out #4-out -, f 5;
#X obj 1564 891 f;
#X obj 1541 870 bng 15 250 50 0 empty empty write -35 7 0 10 -262144
-1 -1;
#X obj 1547 960 f;
#X obj 1546 938 bng 15 250 50 0 empty empty send -30 7 0 10 -262144
-1 -1;
#X floatatom 1565 919 5 0 0 0 - - -, f 5;
#X floatatom 1547 983 5 0 0 0 send_#4 - send_#4, f 5;
#X floatatom 1627 938 5 0 0 0 - - -, f 5;
#X obj 1627 918 tgl 15 0 empty empty empty 17 7 0 10 -262144 -1 -1
1 1;
#X obj 1614 961 f;
#X obj 1598 1026 f;
#X obj 1596 1008 bng 15 250 50 0 empty empty send -30 7 0 10 -262144
-1 -1;
#X floatatom 1615 990 5 0 0 0 - - -, f 5;
#X floatatom 1770 839 5 0 0 0 receive_#5-out #5-out -, f 5;
#X obj 1764 891 f;
#X obj 1741 870 bng 15 250 50 0 empty empty write -35 7 0 10 -262144
-1 -1;
#X obj 1747 960 f;
#X obj 1746 938 bng 15 250 50 0 empty empty send -30 7 0 10 -262144
-1 -1;
#X floatatom 1765 919 5 0 0 0 - - -, f 5;
#X floatatom 1747 983 5 0 0 0 send_#5 - send_#5, f 5;
#X floatatom 1827 938 5 0 0 0 - - -, f 5;
#X obj 1827 918 tgl 15 0 empty empty empty 17 7 0 10 -262144 -1 -1
0 1;
#X obj 1814 961 f;
#X obj 1798 1026 f;
#X obj 1796 1008 bng 15 250 50 0 empty empty send -30 7 0 10 -262144
-1 -1;
#X floatatom 1815 990 5 0 0 0 - - -, f 5;
#X floatatom 1980 839 5 0 0 0 receive_#6-out #6-out -, f 5;
#X obj 1974 891 f;
#X obj 1951 870 bng 15 250 50 0 empty empty write -35 7 0 10 -262144
-1 -1;
#X obj 1957 960 f;
#X obj 1956 938 bng 15 250 50 0 empty empty send -30 7 0 10 -262144
-1 -1;
#X floatatom 1975 919 5 0 0 0 - - -, f 5;
#X floatatom 1957 983 5 0 0 0 send_#6 - send_#6, f 5;
#X floatatom 2037 938 5 0 0 0 - - -, f 5;
#X obj 2037 918 tgl 15 0 empty empty empty 17 7 0 10 -262144 -1 -1
21 1;
#X obj 2024 961 f;
#X obj 2008 1026 f;
#X obj 2006 1008 bng 15 250 50 0 empty empty send -30 7 0 10 -262144
-1 -1;
#X floatatom 2025 990 5 0 0 0 - - -, f 5;
#X floatatom 2190 839 5 0 0 0 receive_#7-out #7-out -, f 5;
#X obj 2184 891 f;
#X obj 2161 870 bng 15 250 50 0 empty empty write -35 7 0 10 -262144
-1 -1;
#X obj 2167 960 f;
#X obj 2166 938 bng 15 250 50 0 empty empty send -30 7 0 10 -262144
-1 -1;
#X floatatom 2185 919 5 0 0 0 - - -, f 5;
#X floatatom 2167 983 5 0 0 0 send_#7 - send_#7, f 5;
#X floatatom 2247 938 5 0 0 0 - - -, f 5;
#X obj 2247 918 tgl 15 0 empty empty empty 17 7 0 10 -262144 -1 -1
1 1;
#X obj 2234 961 f;
#X obj 2218 1026 f;
#X obj 2216 1008 bng 15 250 50 0 empty empty send -30 7 0 10 -262144
-1 -1;
#X floatatom 2235 990 5 0 0 0 - - -, f 5;
#X floatatom 2413 840 5 0 0 0 receive_#8-out #8-out -, f 5;
#X obj 2407 892 f;
#X obj 2384 871 bng 15 250 50 0 empty empty write -35 7 0 10 -262144
-1 -1;
#X obj 2390 961 f;
#X obj 2389 939 bng 15 250 50 0 empty empty send -30 7 0 10 -262144
-1 -1;
#X floatatom 2408 920 5 0 0 0 - - -, f 5;
#X floatatom 2390 984 5 0 0 0 send_#8 - send_#8, f 5;
#X floatatom 2470 939 5 0 0 0 - - -, f 5;
#X obj 2470 919 tgl 15 0 empty empty empty 17 7 0 10 -262144 -1 -1
1 1;
#X obj 2457 962 f;
#X obj 2441 1027 f;
#X obj 2439 1009 bng 15 250 50 0 empty empty send -30 7 0 10 -262144
-1 -1;
#X floatatom 2458 991 5 0 0 0 - - -, f 5;
#X floatatom 2623 840 5 0 0 0 receive_#9-out #9-out -, f 5;
#X obj 2617 892 f;
#X obj 2594 871 bng 15 250 50 0 empty empty write -35 7 0 10 -262144
-1 -1;
#X obj 2600 961 f;
#X obj 2599 939 bng 15 250 50 0 empty empty send -30 7 0 10 -262144
-1 -1;
#X floatatom 2618 920 5 0 0 0 - - -, f 5;
#X floatatom 2600 984 5 0 0 0 send_#9 - send_#9, f 5;
#X floatatom 2680 939 5 0 0 0 - - -, f 5;
#X obj 2680 919 tgl 15 0 empty empty empty 17 7 0 10 -262144 -1 -1
1 1;
#X obj 2667 962 f;
#X obj 2651 1027 f;
#X obj 2649 1009 bng 15 250 50 0 empty empty send -30 7 0 10 -262144
-1 -1;
#X floatatom 2668 991 5 0 0 0 - - -, f 5;
#X floatatom 2833 840 5 0 0 0 receive_#10-out #10-out -, f 5;
#X obj 2827 892 f;
#X obj 2804 871 bng 15 250 50 0 empty empty write -35 7 0 10 -262144
-1 -1;
#X obj 2810 961 f;
#X obj 2809 939 bng 15 250 50 0 empty empty send -30 7 0 10 -262144
-1 -1;
#X floatatom 2828 920 5 0 0 0 - - -, f 5;
#X floatatom 2810 984 5 0 0 0 send_#10 - send_#10, f 5;
#X floatatom 2890 939 5 0 0 0 - - -, f 5;
#X obj 2890 919 tgl 15 0 empty empty empty 17 7 0 10 -262144 -1 -1
1 1;
#X obj 2877 962 f;
#X obj 2861 1027 f;
#X obj 2859 1009 bng 15 250 50 0 empty empty send -30 7 0 10 -262144
-1 -1;
#X floatatom 2878 991 5 0 0 0 - - -, f 5;
#X floatatom 3255 840 5 0 0 0 receive_#12-out #12-out -, f 5;
#X obj 3037 892 f;
#X obj 3014 871 bng 15 250 50 0 empty empty write -35 7 0 10 -262144
-1 -1;
#X obj 3020 961 f;
#X obj 3019 939 bng 15 250 50 0 empty empty send -30 7 0 10 -262144
-1 -1;
#X floatatom 3038 920 5 0 0 0 - - -, f 5;
#X floatatom 3020 984 5 0 0 0 send_#11 - send_#11, f 5;
#X floatatom 3100 939 5 0 0 0 - - -, f 5;
#X obj 3100 919 tgl 15 0 empty empty empty 17 7 0 10 -262144 -1 -1
1 1;
#X obj 3087 962 f;
#X obj 3071 1027 f;
#X obj 3069 1009 bng 15 250 50 0 empty empty send -30 7 0 10 -262144
-1 -1;
#X floatatom 3088 991 5 0 0 0 - - -, f 5;
#X floatatom 3464 840 5 0 0 0 receive_#13-out #13-out -, f 5;
#X obj 3237 892 f;
#X obj 3214 871 bng 15 250 50 0 empty empty write -35 7 0 10 -262144
-1 -1;
#X obj 3220 961 f;
#X obj 3219 939 bng 15 250 50 0 empty empty send -30 7 0 10 -262144
-1 -1;
#X floatatom 3238 920 5 0 0 0 - - -, f 5;
#X floatatom 3220 984 5 0 0 0 send_#12 - send_#12, f 5;
#X floatatom 3300 939 5 0 0 0 - - -, f 5;
#X obj 3300 919 tgl 15 0 empty empty empty 17 7 0 10 -262144 -1 -1
1 1;
#X obj 3287 962 f;
#X obj 3271 1027 f;
#X obj 3269 1007 bng 15 250 50 0 empty empty send -30 7 0 10 -262144
-1 -1;
#X floatatom 3288 991 5 0 0 0 - - -, f 5;
#X floatatom 3676 840 5 0 0 0 receive_#14-out #14-out -, f 5;
#X obj 3447 892 f;
#X obj 3424 871 bng 15 250 50 0 empty empty write -35 7 0 10 -262144
-1 -1;
#X obj 3430 961 f;
#X obj 3429 939 bng 15 250 50 0 empty empty send -30 7 0 10 -262144
-1 -1;
#X floatatom 3448 920 5 0 0 0 - - -, f 5;
#X floatatom 3430 984 5 0 0 0 send_#13 - send_#13, f 5;
#X floatatom 3510 939 5 0 0 0 - - -, f 5;
#X obj 3510 919 tgl 15 0 empty empty empty 17 7 0 10 -262144 -1 -1
1 1;
#X obj 3497 962 f;
#X obj 3481 1027 f;
#X obj 3479 1009 bng 15 250 50 0 empty empty send -30 7 0 10 -262144
-1 -1;
#X floatatom 3498 991 5 0 0 0 - - -, f 5;
#X obj 3657 892 f;
#X obj 3634 871 bng 15 250 50 0 empty empty write -35 7 0 10 -262144
-1 -1;
#X obj 3640 961 f;
#X obj 3639 939 bng 15 250 50 0 empty empty send -30 7 0 10 -262144
-1 -1;
#X floatatom 3658 920 5 0 0 0 - - -, f 5;
#X floatatom 3640 984 5 0 0 0 send_#14 - send_#14, f 5;
#X floatatom 3720 939 5 0 0 0 - - -, f 5;
#X obj 3720 919 tgl 15 0 empty empty empty 17 7 0 10 -262144 -1 -1
1 1;
#X obj 3707 962 f;
#X obj 3691 1027 f;
#X obj 3689 1009 bng 15 250 50 0 empty empty send -30 7 0 10 -262144
-1 -1;
#X floatatom 3708 991 5 0 0 0 - - -, f 5;
#X floatatom 3881 840 5 0 0 0 receive_#15-out #15-out -, f 5;
#X obj 3867 892 f;
#X obj 3844 871 bng 15 250 50 0 empty empty write -35 7 0 10 -262144
-1 -1;
#X obj 3850 961 f;
#X obj 3849 939 bng 15 250 50 0 empty empty send -30 7 0 10 -262144
-1 -1;
#X floatatom 3868 920 5 0 0 0 - - -, f 5;
#X floatatom 3850 984 5 0 0 0 send_#15 - send_#15, f 5;
#X floatatom 3930 939 5 0 0 0 - - -, f 5;
#X obj 3930 919 tgl 15 0 empty empty empty 17 7 0 10 -262144 -1 -1
1 1;
#X obj 3917 962 f;
#X obj 3901 1027 f;
#X obj 3899 1009 bng 15 250 50 0 empty empty send -30 7 0 10 -262144
-1 -1;
#X floatatom 3918 991 5 0 0 0 - - -, f 5;
#X obj 1205 897 r of17;
#X obj 1415 897 r of18;
#X obj 1625 897 r of19;
#X obj 1825 897 r of20;
#X obj 2035 897 r of21;
#X obj 2245 897 r of22;
#X obj 2468 898 r of23;
#X obj 2678 898 r of24;
#X obj 2888 898 r of25;
#X obj 3098 898 r of26;
#X obj 3298 898 r of27;
#X obj 3508 898 r of28;
#X obj 3718 898 r of29;
#X obj 3928 898 r of30;
#X floatatom 4086 840 5 0 0 0 receive_#16-out #16-out -, f 5;
#X obj 4067 892 f;
#X obj 4044 871 bng 15 250 50 0 empty empty write -35 7 0 10 -262144
-1 -1;
#X obj 4050 961 f;
#X obj 4049 939 bng 15 250 50 0 empty empty send -30 7 0 10 -262144
-1 -1;
#X floatatom 4068 920 5 0 0 0 - - -, f 5;
#X floatatom 4050 984 5 0 0 0 send_#16 - send_#15, f 5;
#X floatatom 4130 939 5 0 0 0 - - -, f 5;
#X obj 4130 919 tgl 15 0 empty empty empty 17 7 0 10 -262144 -1 -1
1 1;
#X obj 4117 962 f;
#X obj 4101 1027 f;
#X obj 4099 1009 bng 15 250 50 0 empty empty send -30 7 0 10 -262144
-1 -1;
#X floatatom 4118 991 5 0 0 0 - - -, f 5;
#X obj 4128 898 r of31;
#X floatatom 3053 840 5 0 0 0 receive_#11-out #11-out -, f 5;
#X floatatom 810 839 5 0 0 0 receive_stpA stpA -, f 5;
#X obj 804 891 f;
#X obj 781 870 bng 15 250 50 0 empty empty write -35 7 0 10 -262144
-1 -1;
#X obj 787 960 f;
#X obj 786 938 bng 15 250 50 0 empty empty send -30 7 0 10 -262144
-1 -1;
#X floatatom 805 919 5 0 0 0 - - -, f 5;
#X floatatom 789 986 5 0 0 0 send_stpA - send_stpA, f 5;
#X obj 1419 846 onoff18;
#X obj 2253 844 onoff22;
#X obj 859 1049 s of16;
#X obj 1069 1049 s of17;
#X obj 1279 1049 s of18;
#X obj 1489 1049 s of19;
#X obj 1689 1049 s of20;
#X obj 1899 1049 s of21;
#X obj 2109 1049 s of22;
#X obj 3792 1050 s of30;
#X obj 3582 1050 s of29;
#X obj 3372 1050 s of28;
#X obj 3162 1050 s of27;
#X obj 2962 1049 s of26;
#X obj 2752 1050 s of25;
#X obj 2542 1050 s of24;
#X obj 2332 1050 s of23;
#X obj 3992 1050 s of31;
#X obj 3572 903 r lo;
#X floatatom 331 463 5 0 0 0 receive_reposetoiX#A reposetoiX#A -,
f 5;
#X obj 354 515 f;
#X obj 331 494 bng 15 250 50 0 empty empty write -35 7 0 10 -262144
-1 -1;
#X obj 337 584 f;
#X obj 336 562 bng 15 250 50 0 empty empty send -30 7 0 10 -262144
-1 -1;
#X floatatom 355 543 5 0 0 0 - - -, f 5;
#X floatatom 339 610 5 0 0 0 send_reposetoiX#A - send_reposetoiX#A
, f 5;
#X floatatom 420 530 5 0 0 0 - - -, f 5;
#X obj 420 510 tgl 15 0 empty empty empty 17 7 0 10 -262144 -1 -1 1
1;
#X obj 407 553 f;
#X obj 391 618 f;
#X floatatom 408 582 5 0 0 0 - - -, f 5;
#X obj 416 484 r reposetoinoffA;
#X obj 392 641 s send_reposetoinoffA;
#X floatatom 349 837 5 0 0 0 receive_reposetoiX#A reposetoiX#A -,
f 5;
#X obj 372 889 f;
#X obj 349 868 bng 15 250 50 0 empty empty write -35 7 0 10 -262144
-1 -1;
#X obj 355 958 f;
#X obj 354 936 bng 15 250 50 0 empty empty send -30 7 0 10 -262144
-1 -1;
#X floatatom 373 917 5 0 0 0 - - -, f 5;
#X floatatom 357 984 5 0 0 0 send_reposetoiX#A - send_reposetoiX#A
, f 5;
#X floatatom 438 904 5 0 0 0 - - -, f 5;
#X obj 438 884 tgl 15 0 empty empty empty 17 7 0 10 -262144 -1 -1 1
1;
#X obj 425 927 f;
#X obj 409 992 f;
#X floatatom 426 956 5 0 0 0 - - -, f 5;
#X obj 434 858 r reposetoinoffA;
#X obj 410 1015 s send_reposetoinoffA;
#X floatatom 685 455 5 0 0 0 receives_ITDETonoff ITDETonoff -, f 5
;
#X obj 679 507 f;
#X obj 656 486 bng 15 250 50 0 empty empty write -35 7 0 10 -262144
-1 -1;
#X obj 662 576 f;
#X obj 661 554 bng 15 250 50 0 empty empty send -30 7 0 10 -262144
-1 -1;
#X floatatom 680 535 5 0 0 0 - - -, f 5;
#X floatatom 664 602 5 0 0 0 send__ITDETonoffload - ITDETonoffload
, f 5;
#X floatatom 695 861 5 0 0 0 receives_ITDETonoff ITDETonoff -, f 5
;
#X obj 689 913 f;
#X obj 666 892 bng 15 250 50 0 empty empty write -35 7 0 10 -262144
-1 -1;
#X obj 672 982 f;
#X obj 671 960 bng 15 250 50 0 empty empty send -30 7 0 10 -262144
-1 -1;
#X floatatom 690 941 5 0 0 0 - - -, f 5;
#X floatatom 674 1008 5 0 0 0 send__ITDETonoffload - ITDETonoffload
, f 5;
#X floatatom 887 -545 5 0 0 0 receive_#1-out #1-out -, f 5;
#X obj 881 -493 f;
#X obj 858 -514 bng 15 250 50 0 empty empty write -35 7 0 10 -262144
-1 -1;
#X obj 864 -424 f;
#X obj 863 -446 bng 15 250 50 0 empty empty send -30 7 0 10 -262144
-1 -1;
#X floatatom 882 -465 5 0 0 0 - - -, f 5;
#X floatatom 864 -401 5 0 0 0 send_#1 - send_#1, f 5;
#X obj 939 -506 r of16;
#X floatatom 944 -446 5 0 0 0 - - -, f 5;
#X obj 944 -466 tgl 15 0 empty empty empty 17 7 0 10 -262144 -1 -1
1 1;
#X obj 931 -423 f;
#X obj 915 -358 f;
#X obj 913 -376 bng 15 250 50 0 empty empty send -30 7 0 10 -262144
-1 -1;
#X floatatom 932 -394 5 0 0 0 - - -, f 5;
#X floatatom 1097 -545 5 0 0 0 receive_#2-out #2-out -, f 5;
#X obj 1091 -493 f;
#X obj 1068 -514 bng 15 250 50 0 empty empty write -35 7 0 10 -262144
-1 -1;
#X obj 1074 -424 f;
#X obj 1073 -446 bng 15 250 50 0 empty empty send -30 7 0 10 -262144
-1 -1;
#X floatatom 1092 -465 5 0 0 0 - - -, f 5;
#X floatatom 1074 -401 5 0 0 0 send_#2 - send_#2, f 5;
#X floatatom 1154 -446 5 0 0 0 - - -, f 5;
#X obj 1154 -466 tgl 15 0 empty empty empty 17 7 0 10 -262144 -1 -1
0 1;
#X obj 1141 -423 f;
#X obj 1125 -358 f;
#X obj 1123 -376 bng 15 250 50 0 empty empty send -30 7 0 10 -262144
-1 -1;
#X floatatom 1142 -394 5 0 0 0 - - -, f 5;
#X floatatom 1307 -545 3 0 0 0 receive_#3-out #3-out -, f 3;
#X obj 1301 -493 f;
#X obj 1278 -514 bng 15 250 50 0 empty empty write -35 7 0 10 -262144
-1 -1;
#X obj 1284 -424 f;
#X obj 1283 -446 bng 15 250 50 0 empty empty send -30 7 0 10 -262144
-1 -1;
#X floatatom 1302 -465 5 0 0 0 - - -, f 5;
#X floatatom 1284 -401 5 0 0 0 send_#3 - send_#3, f 5;
#X floatatom 1364 -446 5 0 0 0 - - -, f 5;
#X obj 1364 -466 tgl 15 0 empty empty empty 17 7 0 10 -262144 -1 -1
0 1;
#X obj 1351 -423 f;
#X obj 1335 -358 f;
#X obj 1333 -376 bng 15 250 50 0 empty empty send -30 7 0 10 -262144
-1 -1;
#X floatatom 1352 -394 5 0 0 0 - - -, f 5;
#X floatatom 1517 -545 5 0 0 0 receive_#4-out #4-out -, f 5;
#X obj 1511 -493 f;
#X obj 1488 -514 bng 15 250 50 0 empty empty write -35 7 0 10 -262144
-1 -1;
#X obj 1494 -424 f;
#X obj 1493 -446 bng 15 250 50 0 empty empty send -30 7 0 10 -262144
-1 -1;
#X floatatom 1512 -465 5 0 0 0 - - -, f 5;
#X floatatom 1494 -401 5 0 0 0 send_#4 - send_#4, f 5;
#X floatatom 1574 -446 5 0 0 0 - - -, f 5;
#X obj 1574 -466 tgl 15 0 empty empty empty 17 7 0 10 -262144 -1 -1
1 1;
#X obj 1561 -423 f;
#X obj 1545 -358 f;
#X obj 1543 -376 bng 15 250 50 0 empty empty send -30 7 0 10 -262144
-1 -1;
#X floatatom 1562 -394 5 0 0 0 - - -, f 5;
#X floatatom 1717 -545 5 0 0 0 receive_#5-out #5-out -, f 5;
#X obj 1711 -493 f;
#X obj 1688 -514 bng 15 250 50 0 empty empty write -35 7 0 10 -262144
-1 -1;
#X obj 1694 -424 f;
#X obj 1693 -446 bng 15 250 50 0 empty empty send -30 7 0 10 -262144
-1 -1;
#X floatatom 1712 -465 5 0 0 0 - - -, f 5;
#X floatatom 1694 -401 5 0 0 0 send_#5 - send_#5, f 5;
#X floatatom 1774 -446 5 0 0 0 - - -, f 5;
#X obj 1774 -466 tgl 15 0 empty empty empty 17 7 0 10 -262144 -1 -1
0 1;
#X obj 1761 -423 f;
#X obj 1745 -358 f;
#X obj 1743 -376 bng 15 250 50 0 empty empty send -30 7 0 10 -262144
-1 -1;
#X floatatom 1762 -394 5 0 0 0 - - -, f 5;
#X floatatom 1927 -545 5 0 0 0 receive_#6-out #6-out -, f 5;
#X obj 1921 -493 f;
#X obj 1898 -514 bng 15 250 50 0 empty empty write -35 7 0 10 -262144
-1 -1;
#X obj 1904 -424 f;
#X obj 1903 -446 bng 15 250 50 0 empty empty send -30 7 0 10 -262144
-1 -1;
#X floatatom 1922 -465 5 0 0 0 - - -, f 5;
#X floatatom 1904 -401 5 0 0 0 send_#6 - send_#6, f 5;
#X floatatom 1984 -446 5 0 0 0 - - -, f 5;
#X obj 1984 -466 tgl 15 0 empty empty empty 17 7 0 10 -262144 -1 -1
21 1;
#X obj 1971 -423 f;
#X obj 1955 -358 f;
#X obj 1953 -376 bng 15 250 50 0 empty empty send -30 7 0 10 -262144
-1 -1;
#X floatatom 1972 -394 5 0 0 0 - - -, f 5;
#X floatatom 2137 -545 5 0 0 0 receive_#7-out #7-out -, f 5;
#X obj 2131 -493 f;
#X obj 2108 -514 bng 15 250 50 0 empty empty write -35 7 0 10 -262144
-1 -1;
#X obj 2114 -424 f;
#X obj 2113 -446 bng 15 250 50 0 empty empty send -30 7 0 10 -262144
-1 -1;
#X floatatom 2132 -465 5 0 0 0 - - -, f 5;
#X floatatom 2114 -401 5 0 0 0 send_#7 - send_#7, f 5;
#X floatatom 2194 -446 5 0 0 0 - - -, f 5;
#X obj 2194 -466 tgl 15 0 empty empty empty 17 7 0 10 -262144 -1 -1
1 1;
#X obj 2181 -423 f;
#X obj 2165 -358 f;
#X obj 2163 -376 bng 15 250 50 0 empty empty send -30 7 0 10 -262144
-1 -1;
#X floatatom 2182 -394 5 0 0 0 - - -, f 5;
#X floatatom 2360 -544 5 0 0 0 receive_#8-out #8-out -, f 5;
#X obj 2354 -492 f;
#X obj 2331 -513 bng 15 250 50 0 empty empty write -35 7 0 10 -262144
-1 -1;
#X obj 2337 -423 f;
#X obj 2336 -445 bng 15 250 50 0 empty empty send -30 7 0 10 -262144
-1 -1;
#X floatatom 2355 -464 5 0 0 0 - - -, f 5;
#X floatatom 2337 -400 5 0 0 0 send_#8 - send_#8, f 5;
#X floatatom 2417 -445 5 0 0 0 - - -, f 5;
#X obj 2417 -465 tgl 15 0 empty empty empty 17 7 0 10 -262144 -1 -1
1 1;
#X obj 2404 -422 f;
#X obj 2388 -357 f;
#X obj 2386 -375 bng 15 250 50 0 empty empty send -30 7 0 10 -262144
-1 -1;
#X floatatom 2405 -393 5 0 0 0 - - -, f 5;
#X floatatom 2570 -544 5 0 0 0 receive_#9-out #9-out -, f 5;
#X obj 2564 -492 f;
#X obj 2541 -513 bng 15 250 50 0 empty empty write -35 7 0 10 -262144
-1 -1;
#X obj 2547 -423 f;
#X obj 2546 -445 bng 15 250 50 0 empty empty send -30 7 0 10 -262144
-1 -1;
#X floatatom 2565 -464 5 0 0 0 - - -, f 5;
#X floatatom 2547 -400 5 0 0 0 send_#9 - send_#9, f 5;
#X floatatom 2627 -445 5 0 0 0 - - -, f 5;
#X obj 2627 -465 tgl 15 0 empty empty empty 17 7 0 10 -262144 -1 -1
1 1;
#X obj 2614 -422 f;
#X obj 2598 -357 f;
#X obj 2596 -375 bng 15 250 50 0 empty empty send -30 7 0 10 -262144
-1 -1;
#X floatatom 2615 -393 5 0 0 0 - - -, f 5;
#X floatatom 2780 -544 5 0 0 0 receive_#10-out #10-out -, f 5;
#X obj 2774 -492 f;
#X obj 2751 -513 bng 15 250 50 0 empty empty write -35 7 0 10 -262144
-1 -1;
#X obj 2757 -423 f;
#X obj 2756 -445 bng 15 250 50 0 empty empty send -30 7 0 10 -262144
-1 -1;
#X floatatom 2775 -464 5 0 0 0 - - -, f 5;
#X floatatom 2757 -400 5 0 0 0 send_#10 - send_#10, f 5;
#X floatatom 2837 -445 5 0 0 0 - - -, f 5;
#X obj 2837 -465 tgl 15 0 empty empty empty 17 7 0 10 -262144 -1 -1
1 1;
#X obj 2824 -422 f;
#X obj 2808 -357 f;
#X obj 2806 -375 bng 15 250 50 0 empty empty send -30 7 0 10 -262144
-1 -1;
#X floatatom 2825 -393 5 0 0 0 - - -, f 5;
#X floatatom 3202 -544 5 0 0 0 receive_#12-out #12-out -, f 5;
#X obj 2984 -492 f;
#X obj 2961 -513 bng 15 250 50 0 empty empty write -35 7 0 10 -262144
-1 -1;
#X obj 2967 -423 f;
#X obj 2966 -445 bng 15 250 50 0 empty empty send -30 7 0 10 -262144
-1 -1;
#X floatatom 2985 -464 5 0 0 0 - - -, f 5;
#X floatatom 2967 -400 5 0 0 0 send_#11 - send_#11, f 5;
#X floatatom 3047 -445 5 0 0 0 - - -, f 5;
#X obj 3047 -465 tgl 15 0 empty empty empty 17 7 0 10 -262144 -1 -1
1 1;
#X obj 3034 -422 f;
#X obj 3018 -357 f;
#X obj 3016 -375 bng 15 250 50 0 empty empty send -30 7 0 10 -262144
-1 -1;
#X floatatom 3035 -393 5 0 0 0 - - -, f 5;
#X floatatom 3411 -544 5 0 0 0 receive_#13-out #13-out -, f 5;
#X obj 3184 -492 f;
#X obj 3161 -513 bng 15 250 50 0 empty empty write -35 7 0 10 -262144
-1 -1;
#X obj 3167 -423 f;
#X obj 3166 -445 bng 15 250 50 0 empty empty send -30 7 0 10 -262144
-1 -1;
#X floatatom 3185 -464 5 0 0 0 - - -, f 5;
#X floatatom 3167 -400 5 0 0 0 send_#12 - send_#12, f 5;
#X floatatom 3247 -445 5 0 0 0 - - -, f 5;
#X obj 3247 -465 tgl 15 0 empty empty empty 17 7 0 10 -262144 -1 -1
1 1;
#X obj 3234 -422 f;
#X obj 3218 -357 f;
#X obj 3216 -377 bng 15 250 50 0 empty empty send -30 7 0 10 -262144
-1 -1;
#X floatatom 3235 -393 5 0 0 0 - - -, f 5;
#X floatatom 3623 -544 5 0 0 0 receive_#14-out #14-out -, f 5;
#X obj 3394 -492 f;
#X obj 3371 -513 bng 15 250 50 0 empty empty write -35 7 0 10 -262144
-1 -1;
#X obj 3377 -423 f;
#X obj 3376 -445 bng 15 250 50 0 empty empty send -30 7 0 10 -262144
-1 -1;
#X floatatom 3395 -464 5 0 0 0 - - -, f 5;
#X floatatom 3377 -400 5 0 0 0 send_#13 - send_#13, f 5;
#X floatatom 3457 -445 5 0 0 0 - - -, f 5;
#X obj 3457 -465 tgl 15 0 empty empty empty 17 7 0 10 -262144 -1 -1
1 1;
#X obj 3444 -422 f;
#X obj 3428 -357 f;
#X obj 3426 -375 bng 15 250 50 0 empty empty send -30 7 0 10 -262144
-1 -1;
#X floatatom 3445 -393 5 0 0 0 - - -, f 5;
#X obj 3604 -492 f;
#X obj 3581 -513 bng 15 250 50 0 empty empty write -35 7 0 10 -262144
-1 -1;
#X obj 3587 -423 f;
#X obj 3586 -445 bng 15 250 50 0 empty empty send -30 7 0 10 -262144
-1 -1;
#X floatatom 3605 -464 5 0 0 0 - - -, f 5;
#X floatatom 3587 -400 5 0 0 0 send_#14 - send_#14, f 5;
#X floatatom 3667 -445 5 0 0 0 - - -, f 5;
#X obj 3667 -465 tgl 15 0 empty empty empty 17 7 0 10 -262144 -1 -1
1 1;
#X obj 3654 -422 f;
#X obj 3638 -357 f;
#X obj 3636 -375 bng 15 250 50 0 empty empty send -30 7 0 10 -262144
-1 -1;
#X floatatom 3655 -393 5 0 0 0 - - -, f 5;
#X floatatom 3828 -544 5 0 0 0 receive_#15-out #15-out -, f 5;
#X obj 3814 -492 f;
#X obj 3791 -513 bng 15 250 50 0 empty empty write -35 7 0 10 -262144
-1 -1;
#X obj 3797 -423 f;
#X obj 3796 -445 bng 15 250 50 0 empty empty send -30 7 0 10 -262144
-1 -1;
#X floatatom 3815 -464 5 0 0 0 - - -, f 5;
#X floatatom 3797 -400 5 0 0 0 send_#15 - send_#15, f 5;
#X floatatom 3877 -445 5 0 0 0 - - -, f 5;
#X obj 3877 -465 tgl 15 0 empty empty empty 17 7 0 10 -262144 -1 -1
1 1;
#X obj 3864 -422 f;
#X obj 3848 -357 f;
#X obj 3846 -375 bng 15 250 50 0 empty empty send -30 7 0 10 -262144
-1 -1;
#X floatatom 3865 -393 5 0 0 0 - - -, f 5;
#X obj 1152 -487 r of17;
#X obj 1362 -487 r of18;
#X obj 1572 -487 r of19;
#X obj 1772 -487 r of20;
#X obj 1982 -487 r of21;
#X obj 2192 -487 r of22;
#X obj 2415 -486 r of23;
#X obj 2625 -486 r of24;
#X obj 2835 -486 r of25;
#X obj 3045 -486 r of26;
#X obj 3245 -486 r of27;
#X obj 3455 -486 r of28;
#X obj 3665 -486 r of29;
#X obj 3875 -486 r of30;
#X floatatom 4033 -544 5 0 0 0 receive_#16-out #16-out -, f 5;
#X obj 4014 -492 f;
#X obj 3991 -513 bng 15 250 50 0 empty empty write -35 7 0 10 -262144
-1 -1;
#X obj 3997 -423 f;
#X obj 3996 -445 bng 15 250 50 0 empty empty send -30 7 0 10 -262144
-1 -1;
#X floatatom 4015 -464 5 0 0 0 - - -, f 5;
#X floatatom 3997 -400 5 0 0 0 send_#16 - send_#15, f 5;
#X floatatom 4077 -445 5 0 0 0 - - -, f 5;
#X obj 4077 -465 tgl 15 0 empty empty empty 17 7 0 10 -262144 -1 -1
1 1;
#X obj 4064 -422 f;
#X obj 4048 -357 f;
#X obj 4046 -375 bng 15 250 50 0 empty empty send -30 7 0 10 -262144
-1 -1;
#X floatatom 4065 -393 5 0 0 0 - - -, f 5;
#X obj 4075 -486 r of31;
#X floatatom 3000 -544 5 0 0 0 receive_#11-out #11-out -, f 5;
#X floatatom 757 -545 5 0 0 0 receive_stpA stpA -, f 5;
#X obj 751 -493 f;
#X obj 728 -514 bng 15 250 50 0 empty empty write -35 7 0 10 -262144
-1 -1;
#X obj 734 -424 f;
#X obj 733 -446 bng 15 250 50 0 empty empty send -30 7 0 10 -262144
-1 -1;
#X floatatom 752 -465 5 0 0 0 - - -, f 5;
#X floatatom 736 -398 5 0 0 0 send_stpA - send_stpA, f 5;
#X obj 1366 -538 onoff18;
#X obj 2200 -540 onoff22;
#X obj 916 -335 s of16;
#X obj 1126 -335 s of17;
#X obj 1336 -335 s of18;
#X obj 1546 -335 s of19;
#X obj 1746 -335 s of20;
#X obj 1956 -335 s of21;
#X obj 2166 -335 s of22;
#X obj 3849 -334 s of30;
#X obj 3639 -334 s of29;
#X obj 3429 -334 s of28;
#X obj 3219 -334 s of27;
#X obj 3019 -335 s of26;
#X obj 2809 -334 s of25;
#X obj 2599 -334 s of24;
#X obj 2389 -334 s of23;
#X obj 4049 -334 s of31;
#X obj 3519 -481 r lo;
#X floatatom 887 -185 5 0 0 0 receive_#1-out #1-out -, f 5;
#X obj 881 -133 f;
#X obj 858 -154 bng 15 250 50 0 empty empty write -35 7 0 10 -262144
-1 -1;
#X obj 864 -64 f;
#X obj 863 -86 bng 15 250 50 0 empty empty send -30 7 0 10 -262144
-1 -1;
#X floatatom 882 -105 5 0 0 0 - - -, f 5;
#X floatatom 864 -41 5 0 0 0 send_#1 - send_#1, f 5;
#X obj 939 -146 r of16;
#X floatatom 944 -86 5 0 0 0 - - -, f 5;
#X obj 944 -106 tgl 15 0 empty empty empty 17 7 0 10 -262144 -1 -1
1 1;
#X obj 931 -63 f;
#X obj 915 2 f;
#X obj 913 -16 bng 15 250 50 0 empty empty send -30 7 0 10 -262144
-1 -1;
#X floatatom 932 -34 5 0 0 0 - - -, f 5;
#X floatatom 1097 -185 5 0 0 0 receive_#2-out #2-out -, f 5;
#X obj 1091 -133 f;
#X obj 1068 -154 bng 15 250 50 0 empty empty write -35 7 0 10 -262144
-1 -1;
#X obj 1074 -64 f;
#X obj 1073 -86 bng 15 250 50 0 empty empty send -30 7 0 10 -262144
-1 -1;
#X floatatom 1092 -105 5 0 0 0 - - -, f 5;
#X floatatom 1074 -41 5 0 0 0 send_#2 - send_#2, f 5;
#X floatatom 1154 -86 5 0 0 0 - - -, f 5;
#X obj 1154 -106 tgl 15 0 empty empty empty 17 7 0 10 -262144 -1 -1
0 1;
#X obj 1141 -63 f;
#X obj 1125 2 f;
#X obj 1123 -16 bng 15 250 50 0 empty empty send -30 7 0 10 -262144
-1 -1;
#X floatatom 1142 -34 5 0 0 0 - - -, f 5;
#X floatatom 1307 -185 3 0 0 0 receive_#3-out #3-out -, f 3;
#X obj 1301 -133 f;
#X obj 1278 -154 bng 15 250 50 0 empty empty write -35 7 0 10 -262144
-1 -1;
#X obj 1284 -64 f;
#X obj 1283 -86 bng 15 250 50 0 empty empty send -30 7 0 10 -262144
-1 -1;
#X floatatom 1302 -105 5 0 0 0 - - -, f 5;
#X floatatom 1284 -41 5 0 0 0 send_#3 - send_#3, f 5;
#X floatatom 1364 -86 5 0 0 0 - - -, f 5;
#X obj 1364 -106 tgl 15 0 empty empty empty 17 7 0 10 -262144 -1 -1
0 1;
#X obj 1351 -63 f;
#X obj 1335 2 f;
#X obj 1333 -16 bng 15 250 50 0 empty empty send -30 7 0 10 -262144
-1 -1;
#X floatatom 1352 -34 5 0 0 0 - - -, f 5;
#X floatatom 1517 -185 5 0 0 0 receive_#4-out #4-out -, f 5;
#X obj 1511 -133 f;
#X obj 1488 -154 bng 15 250 50 0 empty empty write -35 7 0 10 -262144
-1 -1;
#X obj 1494 -64 f;
#X obj 1493 -86 bng 15 250 50 0 empty empty send -30 7 0 10 -262144
-1 -1;
#X floatatom 1512 -105 5 0 0 0 - - -, f 5;
#X floatatom 1494 -41 5 0 0 0 send_#4 - send_#4, f 5;
#X floatatom 1574 -86 5 0 0 0 - - -, f 5;
#X obj 1574 -106 tgl 15 0 empty empty empty 17 7 0 10 -262144 -1 -1
1 1;
#X obj 1561 -63 f;
#X obj 1545 2 f;
#X obj 1543 -16 bng 15 250 50 0 empty empty send -30 7 0 10 -262144
-1 -1;
#X floatatom 1562 -34 5 0 0 0 - - -, f 5;
#X floatatom 1717 -185 5 0 0 0 receive_#5-out #5-out -, f 5;
#X obj 1711 -133 f;
#X obj 1688 -154 bng 15 250 50 0 empty empty write -35 7 0 10 -262144
-1 -1;
#X obj 1694 -64 f;
#X obj 1693 -86 bng 15 250 50 0 empty empty send -30 7 0 10 -262144
-1 -1;
#X floatatom 1712 -105 5 0 0 0 - - -, f 5;
#X floatatom 1694 -41 5 0 0 0 send_#5 - send_#5, f 5;
#X floatatom 1774 -86 5 0 0 0 - - -, f 5;
#X obj 1774 -106 tgl 15 0 empty empty empty 17 7 0 10 -262144 -1 -1
0 1;
#X obj 1761 -63 f;
#X obj 1745 2 f;
#X obj 1743 -16 bng 15 250 50 0 empty empty send -30 7 0 10 -262144
-1 -1;
#X floatatom 1762 -34 5 0 0 0 - - -, f 5;
#X floatatom 1927 -185 5 0 0 0 receive_#6-out #6-out -, f 5;
#X obj 1921 -133 f;
#X obj 1898 -154 bng 15 250 50 0 empty empty write -35 7 0 10 -262144
-1 -1;
#X obj 1904 -64 f;
#X obj 1903 -86 bng 15 250 50 0 empty empty send -30 7 0 10 -262144
-1 -1;
#X floatatom 1922 -105 5 0 0 0 - - -, f 5;
#X floatatom 1904 -41 5 0 0 0 send_#6 - send_#6, f 5;
#X floatatom 1984 -86 5 0 0 0 - - -, f 5;
#X obj 1984 -106 tgl 15 0 empty empty empty 17 7 0 10 -262144 -1 -1
21 1;
#X obj 1971 -63 f;
#X obj 1955 2 f;
#X obj 1953 -16 bng 15 250 50 0 empty empty send -30 7 0 10 -262144
-1 -1;
#X floatatom 1972 -34 5 0 0 0 - - -, f 5;
#X floatatom 2137 -185 5 0 0 0 receive_#7-out #7-out -, f 5;
#X obj 2131 -133 f;
#X obj 2108 -154 bng 15 250 50 0 empty empty write -35 7 0 10 -262144
-1 -1;
#X obj 2114 -64 f;
#X obj 2113 -86 bng 15 250 50 0 empty empty send -30 7 0 10 -262144
-1 -1;
#X floatatom 2132 -105 5 0 0 0 - - -, f 5;
#X floatatom 2114 -41 5 0 0 0 send_#7 - send_#7, f 5;
#X floatatom 2194 -86 5 0 0 0 - - -, f 5;
#X obj 2194 -106 tgl 15 0 empty empty empty 17 7 0 10 -262144 -1 -1
1 1;
#X obj 2181 -63 f;
#X obj 2165 2 f;
#X obj 2163 -16 bng 15 250 50 0 empty empty send -30 7 0 10 -262144
-1 -1;
#X floatatom 2182 -34 5 0 0 0 - - -, f 5;
#X floatatom 2360 -184 5 0 0 0 receive_#8-out #8-out -, f 5;
#X obj 2354 -132 f;
#X obj 2331 -153 bng 15 250 50 0 empty empty write -35 7 0 10 -262144
-1 -1;
#X obj 2337 -63 f;
#X obj 2336 -85 bng 15 250 50 0 empty empty send -30 7 0 10 -262144
-1 -1;
#X floatatom 2355 -104 5 0 0 0 - - -, f 5;
#X floatatom 2337 -40 5 0 0 0 send_#8 - send_#8, f 5;
#X floatatom 2417 -85 5 0 0 0 - - -, f 5;
#X obj 2417 -105 tgl 15 0 empty empty empty 17 7 0 10 -262144 -1 -1
1 1;
#X obj 2404 -62 f;
#X obj 2388 3 f;
#X obj 2386 -15 bng 15 250 50 0 empty empty send -30 7 0 10 -262144
-1 -1;
#X floatatom 2405 -33 5 0 0 0 - - -, f 5;
#X floatatom 2570 -184 5 0 0 0 receive_#9-out #9-out -, f 5;
#X obj 2564 -132 f;
#X obj 2541 -153 bng 15 250 50 0 empty empty write -35 7 0 10 -262144
-1 -1;
#X obj 2547 -63 f;
#X obj 2546 -85 bng 15 250 50 0 empty empty send -30 7 0 10 -262144
-1 -1;
#X floatatom 2565 -104 5 0 0 0 - - -, f 5;
#X floatatom 2547 -40 5 0 0 0 send_#9 - send_#9, f 5;
#X floatatom 2627 -85 5 0 0 0 - - -, f 5;
#X obj 2627 -105 tgl 15 0 empty empty empty 17 7 0 10 -262144 -1 -1
1 1;
#X obj 2614 -62 f;
#X obj 2598 3 f;
#X obj 2596 -15 bng 15 250 50 0 empty empty send -30 7 0 10 -262144
-1 -1;
#X floatatom 2615 -33 5 0 0 0 - - -, f 5;
#X floatatom 2780 -184 5 0 0 0 receive_#10-out #10-out -, f 5;
#X obj 2774 -132 f;
#X obj 2751 -153 bng 15 250 50 0 empty empty write -35 7 0 10 -262144
-1 -1;
#X obj 2757 -63 f;
#X obj 2756 -85 bng 15 250 50 0 empty empty send -30 7 0 10 -262144
-1 -1;
#X floatatom 2775 -104 5 0 0 0 - - -, f 5;
#X floatatom 2757 -40 5 0 0 0 send_#10 - send_#10, f 5;
#X floatatom 2837 -85 5 0 0 0 - - -, f 5;
#X obj 2837 -105 tgl 15 0 empty empty empty 17 7 0 10 -262144 -1 -1
1 1;
#X obj 2824 -62 f;
#X obj 2808 3 f;
#X obj 2806 -15 bng 15 250 50 0 empty empty send -30 7 0 10 -262144
-1 -1;
#X floatatom 2825 -33 5 0 0 0 - - -, f 5;
#X floatatom 3202 -184 5 0 0 0 receive_#12-out #12-out -, f 5;
#X obj 2984 -132 f;
#X obj 2961 -153 bng 15 250 50 0 empty empty write -35 7 0 10 -262144
-1 -1;
#X obj 2967 -63 f;
#X obj 2966 -85 bng 15 250 50 0 empty empty send -30 7 0 10 -262144
-1 -1;
#X floatatom 2985 -104 5 0 0 0 - - -, f 5;
#X floatatom 2967 -40 5 0 0 0 send_#11 - send_#11, f 5;
#X floatatom 3047 -85 5 0 0 0 - - -, f 5;
#X obj 3047 -105 tgl 15 0 empty empty empty 17 7 0 10 -262144 -1 -1
1 1;
#X obj 3034 -62 f;
#X obj 3018 3 f;
#X obj 3016 -15 bng 15 250 50 0 empty empty send -30 7 0 10 -262144
-1 -1;
#X floatatom 3035 -33 5 0 0 0 - - -, f 5;
#X floatatom 3411 -184 5 0 0 0 receive_#13-out #13-out -, f 5;
#X obj 3184 -132 f;
#X obj 3161 -153 bng 15 250 50 0 empty empty write -35 7 0 10 -262144
-1 -1;
#X obj 3167 -63 f;
#X obj 3166 -85 bng 15 250 50 0 empty empty send -30 7 0 10 -262144
-1 -1;
#X floatatom 3185 -104 5 0 0 0 - - -, f 5;
#X floatatom 3167 -40 5 0 0 0 send_#12 - send_#12, f 5;
#X floatatom 3247 -85 5 0 0 0 - - -, f 5;
#X obj 3247 -105 tgl 15 0 empty empty empty 17 7 0 10 -262144 -1 -1
1 1;
#X obj 3234 -62 f;
#X obj 3218 3 f;
#X obj 3216 -17 bng 15 250 50 0 empty empty send -30 7 0 10 -262144
-1 -1;
#X floatatom 3235 -33 5 0 0 0 - - -, f 5;
#X floatatom 3623 -184 5 0 0 0 receive_#14-out #14-out -, f 5;
#X obj 3394 -132 f;
#X obj 3371 -153 bng 15 250 50 0 empty empty write -35 7 0 10 -262144
-1 -1;
#X obj 3377 -63 f;
#X obj 3376 -85 bng 15 250 50 0 empty empty send -30 7 0 10 -262144
-1 -1;
#X floatatom 3395 -104 5 0 0 0 - - -, f 5;
#X floatatom 3377 -40 5 0 0 0 send_#13 - send_#13, f 5;
#X floatatom 3457 -85 5 0 0 0 - - -, f 5;
#X obj 3457 -105 tgl 15 0 empty empty empty 17 7 0 10 -262144 -1 -1
1 1;
#X obj 3444 -62 f;
#X obj 3428 3 f;
#X obj 3426 -15 bng 15 250 50 0 empty empty send -30 7 0 10 -262144
-1 -1;
#X floatatom 3445 -33 5 0 0 0 - - -, f 5;
#X obj 3604 -132 f;
#X obj 3581 -153 bng 15 250 50 0 empty empty write -35 7 0 10 -262144
-1 -1;
#X obj 3587 -63 f;
#X obj 3586 -85 bng 15 250 50 0 empty empty send -30 7 0 10 -262144
-1 -1;
#X floatatom 3605 -104 5 0 0 0 - - -, f 5;
#X floatatom 3587 -40 5 0 0 0 send_#14 - send_#14, f 5;
#X floatatom 3667 -85 5 0 0 0 - - -, f 5;
#X obj 3667 -105 tgl 15 0 empty empty empty 17 7 0 10 -262144 -1 -1
1 1;
#X obj 3654 -62 f;
#X obj 3638 3 f;
#X obj 3636 -15 bng 15 250 50 0 empty empty send -30 7 0 10 -262144
-1 -1;
#X floatatom 3655 -33 5 0 0 0 - - -, f 5;
#X floatatom 3828 -184 5 0 0 0 receive_#15-out #15-out -, f 5;
#X obj 3814 -132 f;
#X obj 3791 -153 bng 15 250 50 0 empty empty write -35 7 0 10 -262144
-1 -1;
#X obj 3797 -63 f;
#X obj 3796 -85 bng 15 250 50 0 empty empty send -30 7 0 10 -262144
-1 -1;
#X floatatom 3815 -104 5 0 0 0 - - -, f 5;
#X floatatom 3797 -40 5 0 0 0 send_#15 - send_#15, f 5;
#X floatatom 3877 -85 5 0 0 0 - - -, f 5;
#X obj 3877 -105 tgl 15 0 empty empty empty 17 7 0 10 -262144 -1 -1
1 1;
#X obj 3864 -62 f;
#X obj 3848 3 f;
#X obj 3846 -15 bng 15 250 50 0 empty empty send -30 7 0 10 -262144
-1 -1;
#X floatatom 3865 -33 5 0 0 0 - - -, f 5;
#X obj 1152 -127 r of17;
#X obj 1362 -127 r of18;
#X obj 1572 -127 r of19;
#X obj 1772 -127 r of20;
#X obj 1982 -127 r of21;
#X obj 2192 -127 r of22;
#X obj 2415 -126 r of23;
#X obj 2625 -126 r of24;
#X obj 2835 -126 r of25;
#X obj 3045 -126 r of26;
#X obj 3245 -126 r of27;
#X obj 3455 -126 r of28;
#X obj 3665 -126 r of29;
#X obj 3875 -126 r of30;
#X floatatom 4033 -184 5 0 0 0 receive_#16-out #16-out -, f 5;
#X obj 4014 -132 f;
#X obj 3991 -153 bng 15 250 50 0 empty empty write -35 7 0 10 -262144
-1 -1;
#X obj 3997 -63 f;
#X obj 3996 -85 bng 15 250 50 0 empty empty send -30 7 0 10 -262144
-1 -1;
#X floatatom 4015 -104 5 0 0 0 - - -, f 5;
#X floatatom 3997 -40 5 0 0 0 send_#16 - send_#15, f 5;
#X floatatom 4077 -85 5 0 0 0 - - -, f 5;
#X obj 4077 -105 tgl 15 0 empty empty empty 17 7 0 10 -262144 -1 -1
1 1;
#X obj 4064 -62 f;
#X obj 4048 3 f;
#X obj 4046 -15 bng 15 250 50 0 empty empty send -30 7 0 10 -262144
-1 -1;
#X floatatom 4065 -33 5 0 0 0 - - -, f 5;
#X obj 4075 -126 r of31;
#X floatatom 3000 -184 5 0 0 0 receive_#11-out #11-out -, f 5;
#X floatatom 757 -185 5 0 0 0 receive_stpA stpA -, f 5;
#X obj 751 -133 f;
#X obj 728 -154 bng 15 250 50 0 empty empty write -35 7 0 10 -262144
-1 -1;
#X obj 734 -64 f;
#X obj 733 -86 bng 15 250 50 0 empty empty send -30 7 0 10 -262144
-1 -1;
#X floatatom 752 -105 5 0 0 0 - - -, f 5;
#X floatatom 736 -38 5 0 0 0 send_stpA - send_stpA, f 5;
#X obj 1366 -178 onoff18;
#X obj 2200 -180 onoff22;
#X obj 806 25 s of16;
#X obj 1016 25 s of17;
#X obj 1226 25 s of18;
#X obj 1436 25 s of19;
#X obj 1636 25 s of20;
#X obj 1846 25 s of21;
#X obj 2056 25 s of22;
#X obj 3739 26 s of30;
#X obj 3529 26 s of29;
#X obj 3319 26 s of28;
#X obj 3109 26 s of27;
#X obj 2909 25 s of26;
#X obj 2699 26 s of25;
#X obj 2489 26 s of24;
#X obj 2279 26 s of23;
#X obj 3939 26 s of31;
#X obj 3519 -121 r lo;
#X floatatom 278 -561 5 0 0 0 receive_reposetoiX#A reposetoiX#A -,
f 5;
#X obj 301 -509 f;
#X obj 278 -530 bng 15 250 50 0 empty empty write -35 7 0 10 -262144
-1 -1;
#X obj 284 -440 f;
#X obj 283 -462 bng 15 250 50 0 empty empty send -30 7 0 10 -262144
-1 -1;
#X floatatom 302 -481 5 0 0 0 - - -, f 5;
#X floatatom 286 -414 5 0 0 0 send_reposetoiX#A - send_reposetoiX#A
, f 5;
#X floatatom 367 -494 5 0 0 0 - - -, f 5;
#X obj 367 -514 tgl 15 0 empty empty empty 17 7 0 10 -262144 -1 -1
1 1;
#X obj 354 -471 f;
#X obj 338 -406 f;
#X floatatom 355 -442 5 0 0 0 - - -, f 5;
#X obj 363 -540 r reposetoinoffA;
#X obj 339 -383 s send_reposetoinoffA;
#X floatatom 296 -187 5 0 0 0 receive_reposetoiX#A reposetoiX#A -,
f 5;
#X obj 319 -135 f;
#X obj 296 -156 bng 15 250 50 0 empty empty write -35 7 0 10 -262144
-1 -1;
#X obj 302 -66 f;
#X obj 301 -88 bng 15 250 50 0 empty empty send -30 7 0 10 -262144
-1 -1;
#X floatatom 320 -107 5 0 0 0 - - -, f 5;
#X floatatom 304 -40 5 0 0 0 send_reposetoiX#A - send_reposetoiX#A
, f 5;
#X floatatom 385 -120 5 0 0 0 - - -, f 5;
#X obj 385 -140 tgl 15 0 empty empty empty 17 7 0 10 -262144 -1 -1
1 1;
#X obj 372 -97 f;
#X obj 356 -32 f;
#X floatatom 373 -68 5 0 0 0 - - -, f 5;
#X obj 381 -166 r reposetoinoffA;
#X obj 357 -9 s send_reposetoinoffA;
#X floatatom 632 -569 5 0 0 0 receives_ITDETonoff ITDETonoff -, f
5;
#X obj 626 -517 f;
#X obj 603 -538 bng 15 250 50 0 empty empty write -35 7 0 10 -262144
-1 -1;
#X obj 609 -448 f;
#X obj 608 -470 bng 15 250 50 0 empty empty send -30 7 0 10 -262144
-1 -1;
#X floatatom 627 -489 5 0 0 0 - - -, f 5;
#X floatatom 611 -422 5 0 0 0 send__ITDETonoffload - ITDETonoffload
, f 5;
#X floatatom 642 -163 5 0 0 0 receives_ITDETonoff ITDETonoff -, f
5;
#X obj 636 -111 f;
#X obj 613 -132 bng 15 250 50 0 empty empty write -35 7 0 10 -262144
-1 -1;
#X obj 619 -42 f;
#X obj 618 -64 bng 15 250 50 0 empty empty send -30 7 0 10 -262144
-1 -1;
#X floatatom 637 -83 5 0 0 0 - - -, f 5;
#X floatatom 621 -16 5 0 0 0 send__ITDETonoffload - ITDETonoffload
, f 5;
#X obj 3519 487 onoff28;
#X obj 3519 847 onoff28;
#X obj 3466 -537 onoff28;
#X obj 3466 -177 onoff28;
#X obj 3944 489 onoff30;
#X obj 3944 849 onoff30;
#X obj 3891 -535 onoff30;
#X obj 3891 -175 onoff30;
#X obj 4139 495 onoff31;
#X obj 4139 855 onoff31;
#X obj 4086 -529 onoff31;
#X obj 4086 -169 onoff31;
#X obj 3731 487 onoff29;
#X obj 3731 847 onoff29;
#X obj 3678 -537 onoff29;
#X obj 3678 -177 onoff29;
#X obj 3318 482 onoff27;
#X obj 3318 842 onoff27;
#X obj 3265 -542 onoff27;
#X obj 3265 -182 onoff27;
#X obj 989 483 onoff16;
#X obj 989 843 onoff16;
#X obj 936 -541 onoff16;
#X obj 936 -181 onoff16;
#X obj 1208 484 onoff17;
#X obj 1208 844 onoff17;
#X obj 1155 -540 onoff17;
#X obj 1155 -180 onoff17;
#X obj 1636 493 onoff19;
#X obj 1636 853 onoff19;
#X obj 1583 -531 onoff19;
#X obj 1583 -171 onoff19;
#X obj 1831 486 onoff20;
#X obj 1831 846 onoff20;
#X obj 1778 -538 onoff20;
#X obj 1778 -178 onoff20;
#X obj 2039 489 onoff21;
#X obj 2039 849 onoff21;
#X obj 1986 -535 onoff21;
#X obj 1986 -175 onoff21;
#X obj 2470 487 onoff23;
#X obj 2470 847 onoff23;
#X obj 2417 -537 onoff23;
#X obj 2417 -177 onoff23;
#X obj 2698 484 onoff24;
#X obj 2698 844 onoff24;
#X obj 2645 -540 onoff24;
#X obj 2645 -180 onoff24;
#X obj 2887 481 onoff25;
#X obj 2887 841 onoff25;
#X obj 2834 -543 onoff25;
#X obj 2834 -183 onoff25;
#X obj 3104 483 onoff26;
#X obj 3104 843 onoff26;
#X obj 3051 -541 onoff26;
#X obj 3051 -181 onoff26;
#X obj 113 163 bng 15 250 50 0 empty empty empty 17 7 0 10 -262144
-1 -1;
#X obj 45 152 bng 15 250 50 0 empty empty empty 17 7 0 10 -262144 -1
-1;
#X obj 115 198 t b b;
#X obj 157 226 bng 15 250 50 0 empty empty empty 17 7 0 10 -262144
-1 -1;
#X obj 111 223 bng 15 250 50 0 empty empty empty 17 7 0 10 -262144
-1 -1;
#X connect 0 0 1 0;
#X connect 0 0 1146 0;
#X connect 1 0 1050 0;
#X connect 1 1 1064 0;
#X connect 1 2 508 0;
#X connect 1 3 522 0;
#X connect 2 0 3 0;
#X connect 3 0 1052 0;
#X connect 3 1 1066 0;
#X connect 3 2 510 0;
#X connect 3 3 524 0;
#X connect 4 0 0 0;
#X connect 5 0 2 0;
#X connect 6 0 7 1;
#X connect 7 0 11 0;
#X connect 8 0 7 0;
#X connect 8 0 16 0;
#X connect 8 0 22 0;
#X connect 9 0 12 0;
#X connect 10 0 9 0;
#X connect 10 0 18 0;
#X connect 10 0 24 0;
#X connect 11 0 9 1;
#X connect 13 0 15 0;
#X connect 14 0 16 1;
#X connect 15 0 14 0;
#X connect 16 0 19 0;
#X connect 17 0 239 0;
#X connect 18 0 17 0;
#X connect 19 0 17 1;
#X connect 20 0 21 1;
#X connect 21 0 25 0;
#X connect 22 0 21 0;
#X connect 22 0 29 0;
#X connect 22 0 35 0;
#X connect 23 0 26 0;
#X connect 24 0 23 0;
#X connect 24 0 31 0;
#X connect 24 0 37 0;
#X connect 25 0 23 1;
#X connect 27 0 29 1;
#X connect 28 0 27 0;
#X connect 29 0 32 0;
#X connect 30 0 240 0;
#X connect 31 0 30 0;
#X connect 32 0 30 1;
#X connect 33 0 34 1;
#X connect 34 0 38 0;
#X connect 35 0 34 0;
#X connect 35 0 42 0;
#X connect 35 0 48 0;
#X connect 36 0 39 0;
#X connect 37 0 36 0;
#X connect 37 0 44 0;
#X connect 37 0 50 0;
#X connect 38 0 36 1;
#X connect 40 0 42 1;
#X connect 41 0 40 0;
#X connect 42 0 45 0;
#X connect 43 0 241 0;
#X connect 44 0 43 0;
#X connect 45 0 43 1;
#X connect 46 0 47 1;
#X connect 47 0 51 0;
#X connect 48 0 47 0;
#X connect 48 0 55 0;
#X connect 48 0 61 0;
#X connect 49 0 52 0;
#X connect 50 0 49 0;
#X connect 50 0 57 0;
#X connect 50 0 63 0;
#X connect 51 0 49 1;
#X connect 53 0 55 1;
#X connect 54 0 53 0;
#X connect 55 0 58 0;
#X connect 56 0 242 0;
#X connect 57 0 56 0;
#X connect 58 0 56 1;
#X connect 59 0 60 1;
#X connect 60 0 64 0;
#X connect 61 0 60 0;
#X connect 61 0 68 0;
#X connect 61 0 74 0;
#X connect 62 0 65 0;
#X connect 63 0 62 0;
#X connect 63 0 70 0;
#X connect 63 0 76 0;
#X connect 64 0 62 1;
#X connect 66 0 68 1;
#X connect 67 0 66 0;
#X connect 68 0 71 0;
#X connect 69 0 243 0;
#X connect 70 0 69 0;
#X connect 71 0 69 1;
#X connect 72 0 73 1;
#X connect 73 0 77 0;
#X connect 74 0 73 0;
#X connect 74 0 81 0;
#X connect 74 0 87 0;
#X connect 75 0 78 0;
#X connect 76 0 75 0;
#X connect 76 0 83 0;
#X connect 76 0 89 0;
#X connect 77 0 75 1;
#X connect 79 0 81 1;
#X connect 80 0 79 0;
#X connect 81 0 84 0;
#X connect 82 0 244 0;
#X connect 83 0 82 0;
#X connect 84 0 82 1;
#X connect 85 0 86 1;
#X connect 86 0 90 0;
#X connect 87 0 86 0;
#X connect 87 0 94 0;
#X connect 87 0 100 0;
#X connect 88 0 91 0;
#X connect 89 0 88 0;
#X connect 89 0 96 0;
#X connect 89 0 102 0;
#X connect 90 0 88 1;
#X connect 92 0 94 1;
#X connect 93 0 92 0;
#X connect 94 0 97 0;
#X connect 95 0 245 0;
#X connect 96 0 95 0;
#X connect 97 0 95 1;
#X connect 98 0 99 1;
#X connect 99 0 103 0;
#X connect 100 0 99 0;
#X connect 100 0 107 0;
#X connect 100 0 113 0;
#X connect 101 0 104 0;
#X connect 102 0 101 0;
#X connect 102 0 109 0;
#X connect 102 0 115 0;
#X connect 103 0 101 1;
#X connect 105 0 107 1;
#X connect 106 0 105 0;
#X connect 107 0 110 0;
#X connect 108 0 253 0;
#X connect 109 0 108 0;
#X connect 110 0 108 1;
#X connect 111 0 112 1;
#X connect 112 0 116 0;
#X connect 113 0 112 0;
#X connect 113 0 120 0;
#X connect 113 0 126 0;
#X connect 114 0 117 0;
#X connect 115 0 114 0;
#X connect 115 0 122 0;
#X connect 115 0 128 0;
#X connect 116 0 114 1;
#X connect 118 0 120 1;
#X connect 119 0 118 0;
#X connect 120 0 123 0;
#X connect 121 0 252 0;
#X connect 122 0 121 0;
#X connect 123 0 121 1;
#X connect 124 0 125 1;
#X connect 125 0 129 0;
#X connect 126 0 125 0;
#X connect 126 0 133 0;
#X connect 126 0 139 0;
#X connect 127 0 130 0;
#X connect 128 0 127 0;
#X connect 128 0 135 0;
#X connect 128 0 141 0;
#X connect 129 0 127 1;
#X connect 131 0 133 1;
#X connect 132 0 131 0;
#X connect 133 0 136 0;
#X connect 134 0 251 0;
#X connect 135 0 134 0;
#X connect 136 0 134 1;
#X connect 137 0 151 1;
#X connect 138 0 142 0;
#X connect 139 0 138 0;
#X connect 139 0 146 0;
#X connect 139 0 152 0;
#X connect 140 0 143 0;
#X connect 141 0 140 0;
#X connect 141 0 148 0;
#X connect 141 0 154 0;
#X connect 142 0 140 1;
#X connect 144 0 146 1;
#X connect 145 0 144 0;
#X connect 146 0 149 0;
#X connect 147 0 250 0;
#X connect 148 0 147 0;
#X connect 149 0 147 1;
#X connect 150 0 164 1;
#X connect 151 0 155 0;
#X connect 152 0 151 0;
#X connect 152 0 159 0;
#X connect 152 0 165 0;
#X connect 153 0 156 0;
#X connect 154 0 153 0;
#X connect 154 0 161 0;
#X connect 154 0 167 0;
#X connect 155 0 153 1;
#X connect 157 0 159 1;
#X connect 158 0 157 0;
#X connect 159 0 162 0;
#X connect 160 0 249 0;
#X connect 161 0 160 0;
#X connect 162 0 160 1;
#X connect 163 0 176 1;
#X connect 164 0 168 0;
#X connect 165 0 164 0;
#X connect 165 0 172 0;
#X connect 165 0 177 0;
#X connect 166 0 169 0;
#X connect 167 0 166 0;
#X connect 167 0 174 0;
#X connect 167 0 179 0;
#X connect 168 0 166 1;
#X connect 170 0 172 1;
#X connect 171 0 170 0;
#X connect 172 0 175 0;
#X connect 173 0 248 0;
#X connect 174 0 173 0;
#X connect 175 0 173 1;
#X connect 176 0 180 0;
#X connect 177 0 176 0;
#X connect 177 0 184 0;
#X connect 177 0 190 0;
#X connect 178 0 181 0;
#X connect 179 0 178 0;
#X connect 179 0 186 0;
#X connect 179 0 192 0;
#X connect 180 0 178 1;
#X connect 182 0 184 1;
#X connect 183 0 182 0;
#X connect 184 0 187 0;
#X connect 185 0 247 0;
#X connect 186 0 185 0;
#X connect 187 0 185 1;
#X connect 188 0 189 1;
#X connect 189 0 193 0;
#X connect 190 0 189 0;
#X connect 190 0 197 0;
#X connect 190 0 217 0;
#X connect 191 0 194 0;
#X connect 192 0 191 0;
#X connect 192 0 199 0;
#X connect 192 0 219 0;
#X connect 193 0 191 1;
#X connect 195 0 197 1;
#X connect 196 0 195 0;
#X connect 197 0 200 0;
#X connect 198 0 246 0;
#X connect 199 0 198 0;
#X connect 200 0 198 1;
#X connect 201 0 28 0;
#X connect 202 0 41 0;
#X connect 203 0 54 0;
#X connect 204 0 67 0;
#X connect 205 0 80 0;
#X connect 206 0 93 0;
#X connect 207 0 106 0;
#X connect 208 0 119 0;
#X connect 209 0 132 0;
#X connect 210 0 145 0;
#X connect 211 0 158 0;
#X connect 212 0 171 0;
#X connect 213 0 183 0;
#X connect 214 0 196 0;
#X connect 215 0 216 1;
#X connect 216 0 220 0;
#X connect 217 0 216 0;
#X connect 217 0 224 0;
#X connect 218 0 221 0;
#X connect 219 0 218 0;
#X connect 219 0 226 0;
#X connect 220 0 218 1;
#X connect 222 0 224 1;
#X connect 223 0 222 0;
#X connect 224 0 227 0;
#X connect 225 0 254 0;
#X connect 226 0 225 0;
#X connect 227 0 225 1;
#X connect 228 0 223 0;
#X connect 229 0 138 1;
#X connect 230 0 231 1;
#X connect 231 0 235 0;
#X connect 232 0 231 0;
#X connect 232 0 8 0;
#X connect 233 0 236 0;
#X connect 234 0 233 0;
#X connect 234 0 10 0;
#X connect 235 0 233 1;
#X connect 237 0 41 0;
#X connect 238 0 93 0;
#X connect 255 0 15 0;
#X connect 255 0 28 0;
#X connect 255 0 41 0;
#X connect 255 0 54 0;
#X connect 255 0 67 0;
#X connect 255 0 93 0;
#X connect 255 0 106 0;
#X connect 255 0 119 0;
#X connect 255 0 132 0;
#X connect 255 0 145 0;
#X connect 255 0 158 0;
#X connect 255 0 171 0;
#X connect 255 0 183 0;
#X connect 255 0 196 0;
#X connect 255 0 223 0;
#X connect 256 0 257 1;
#X connect 257 0 261 0;
#X connect 258 0 257 0;
#X connect 258 0 266 0;
#X connect 258 0 272 0;
#X connect 259 0 262 0;
#X connect 260 0 259 0;
#X connect 260 0 268 0;
#X connect 260 0 274 0;
#X connect 261 0 259 1;
#X connect 263 0 265 0;
#X connect 264 0 266 1;
#X connect 265 0 264 0;
#X connect 266 0 269 0;
#X connect 267 0 489 0;
#X connect 268 0 267 0;
#X connect 269 0 267 1;
#X connect 270 0 271 1;
#X connect 271 0 275 0;
#X connect 272 0 271 0;
#X connect 272 0 279 0;
#X connect 272 0 285 0;
#X connect 273 0 276 0;
#X connect 274 0 273 0;
#X connect 274 0 281 0;
#X connect 274 0 287 0;
#X connect 275 0 273 1;
#X connect 277 0 279 1;
#X connect 278 0 277 0;
#X connect 279 0 282 0;
#X connect 280 0 490 0;
#X connect 281 0 280 0;
#X connect 282 0 280 1;
#X connect 283 0 284 1;
#X connect 284 0 288 0;
#X connect 285 0 284 0;
#X connect 285 0 292 0;
#X connect 285 0 298 0;
#X connect 286 0 289 0;
#X connect 287 0 286 0;
#X connect 287 0 294 0;
#X connect 287 0 300 0;
#X connect 288 0 286 1;
#X connect 290 0 292 1;
#X connect 291 0 290 0;
#X connect 292 0 295 0;
#X connect 293 0 491 0;
#X connect 294 0 293 0;
#X connect 295 0 293 1;
#X connect 296 0 297 1;
#X connect 297 0 301 0;
#X connect 298 0 297 0;
#X connect 298 0 305 0;
#X connect 298 0 311 0;
#X connect 299 0 302 0;
#X connect 300 0 299 0;
#X connect 300 0 307 0;
#X connect 300 0 313 0;
#X connect 301 0 299 1;
#X connect 303 0 305 1;
#X connect 304 0 303 0;
#X connect 305 0 308 0;
#X connect 306 0 492 0;
#X connect 307 0 306 0;
#X connect 308 0 306 1;
#X connect 309 0 310 1;
#X connect 310 0 314 0;
#X connect 311 0 310 0;
#X connect 311 0 318 0;
#X connect 311 0 324 0;
#X connect 312 0 315 0;
#X connect 313 0 312 0;
#X connect 313 0 320 0;
#X connect 313 0 326 0;
#X connect 314 0 312 1;
#X connect 316 0 318 1;
#X connect 317 0 316 0;
#X connect 318 0 321 0;
#X connect 319 0 493 0;
#X connect 320 0 319 0;
#X connect 321 0 319 1;
#X connect 322 0 323 1;
#X connect 323 0 327 0;
#X connect 324 0 323 0;
#X connect 324 0 331 0;
#X connect 324 0 337 0;
#X connect 325 0 328 0;
#X connect 326 0 325 0;
#X connect 326 0 333 0;
#X connect 326 0 339 0;
#X connect 327 0 325 1;
#X connect 329 0 331 1;
#X connect 330 0 329 0;
#X connect 331 0 334 0;
#X connect 332 0 494 0;
#X connect 333 0 332 0;
#X connect 334 0 332 1;
#X connect 335 0 336 1;
#X connect 336 0 340 0;
#X connect 337 0 336 0;
#X connect 337 0 344 0;
#X connect 337 0 350 0;
#X connect 338 0 341 0;
#X connect 339 0 338 0;
#X connect 339 0 346 0;
#X connect 339 0 352 0;
#X connect 340 0 338 1;
#X connect 342 0 344 1;
#X connect 343 0 342 0;
#X connect 344 0 347 0;
#X connect 345 0 495 0;
#X connect 346 0 345 0;
#X connect 347 0 345 1;
#X connect 348 0 349 1;
#X connect 349 0 353 0;
#X connect 350 0 349 0;
#X connect 350 0 357 0;
#X connect 350 0 363 0;
#X connect 351 0 354 0;
#X connect 352 0 351 0;
#X connect 352 0 359 0;
#X connect 352 0 365 0;
#X connect 353 0 351 1;
#X connect 355 0 357 1;
#X connect 356 0 355 0;
#X connect 357 0 360 0;
#X connect 358 0 503 0;
#X connect 359 0 358 0;
#X connect 360 0 358 1;
#X connect 361 0 362 1;
#X connect 362 0 366 0;
#X connect 363 0 362 0;
#X connect 363 0 370 0;
#X connect 363 0 376 0;
#X connect 364 0 367 0;
#X connect 365 0 364 0;
#X connect 365 0 372 0;
#X connect 365 0 378 0;
#X connect 366 0 364 1;
#X connect 368 0 370 1;
#X connect 369 0 368 0;
#X connect 370 0 373 0;
#X connect 371 0 502 0;
#X connect 372 0 371 0;
#X connect 373 0 371 1;
#X connect 374 0 375 1;
#X connect 375 0 379 0;
#X connect 376 0 375 0;
#X connect 376 0 383 0;
#X connect 376 0 389 0;
#X connect 377 0 380 0;
#X connect 378 0 377 0;
#X connect 378 0 385 0;
#X connect 378 0 391 0;
#X connect 379 0 377 1;
#X connect 381 0 383 1;
#X connect 382 0 381 0;
#X connect 383 0 386 0;
#X connect 384 0 501 0;
#X connect 385 0 384 0;
#X connect 386 0 384 1;
#X connect 387 0 401 1;
#X connect 388 0 392 0;
#X connect 389 0 388 0;
#X connect 389 0 396 0;
#X connect 389 0 402 0;
#X connect 390 0 393 0;
#X connect 391 0 390 0;
#X connect 391 0 398 0;
#X connect 391 0 404 0;
#X connect 392 0 390 1;
#X connect 394 0 396 1;
#X connect 395 0 394 0;
#X connect 396 0 399 0;
#X connect 397 0 500 0;
#X connect 398 0 397 0;
#X connect 399 0 397 1;
#X connect 400 0 414 1;
#X connect 401 0 405 0;
#X connect 402 0 401 0;
#X connect 402 0 409 0;
#X connect 402 0 415 0;
#X connect 403 0 406 0;
#X connect 404 0 403 0;
#X connect 404 0 411 0;
#X connect 404 0 417 0;
#X connect 405 0 403 1;
#X connect 407 0 409 1;
#X connect 408 0 407 0;
#X connect 409 0 412 0;
#X connect 410 0 499 0;
#X connect 411 0 410 0;
#X connect 412 0 410 1;
#X connect 413 0 426 1;
#X connect 414 0 418 0;
#X connect 415 0 414 0;
#X connect 415 0 422 0;
#X connect 415 0 427 0;
#X connect 416 0 419 0;
#X connect 417 0 416 0;
#X connect 417 0 424 0;
#X connect 417 0 429 0;
#X connect 418 0 416 1;
#X connect 420 0 422 1;
#X connect 421 0 420 0;
#X connect 422 0 425 0;
#X connect 423 0 498 0;
#X connect 424 0 423 0;
#X connect 425 0 423 1;
#X connect 426 0 430 0;
#X connect 427 0 426 0;
#X connect 427 0 434 0;
#X connect 427 0 440 0;
#X connect 428 0 431 0;
#X connect 429 0 428 0;
#X connect 429 0 436 0;
#X connect 429 0 442 0;
#X connect 430 0 428 1;
#X connect 432 0 434 1;
#X connect 433 0 432 0;
#X connect 434 0 437 0;
#X connect 435 0 497 0;
#X connect 436 0 435 0;
#X connect 437 0 435 1;
#X connect 438 0 439 1;
#X connect 439 0 443 0;
#X connect 440 0 439 0;
#X connect 440 0 447 0;
#X connect 440 0 467 0;
#X connect 441 0 444 0;
#X connect 442 0 441 0;
#X connect 442 0 449 0;
#X connect 442 0 469 0;
#X connect 443 0 441 1;
#X connect 445 0 447 1;
#X connect 446 0 445 0;
#X connect 447 0 450 0;
#X connect 448 0 496 0;
#X connect 449 0 448 0;
#X connect 450 0 448 1;
#X connect 451 0 278 0;
#X connect 452 0 291 0;
#X connect 453 0 304 0;
#X connect 454 0 317 0;
#X connect 455 0 330 0;
#X connect 456 0 343 0;
#X connect 457 0 356 0;
#X connect 458 0 369 0;
#X connect 459 0 382 0;
#X connect 460 0 395 0;
#X connect 461 0 408 0;
#X connect 462 0 421 0;
#X connect 463 0 433 0;
#X connect 464 0 446 0;
#X connect 465 0 466 1;
#X connect 466 0 470 0;
#X connect 467 0 466 0;
#X connect 467 0 474 0;
#X connect 468 0 471 0;
#X connect 469 0 468 0;
#X connect 469 0 476 0;
#X connect 470 0 468 1;
#X connect 472 0 474 1;
#X connect 473 0 472 0;
#X connect 474 0 477 0;
#X connect 475 0 504 0;
#X connect 476 0 475 0;
#X connect 477 0 475 1;
#X connect 478 0 473 0;
#X connect 479 0 388 1;
#X connect 480 0 481 1;
#X connect 481 0 485 0;
#X connect 482 0 481 0;
#X connect 482 0 258 0;
#X connect 483 0 486 0;
#X connect 484 0 483 0;
#X connect 484 0 260 0;
#X connect 485 0 483 1;
#X connect 487 0 291 0;
#X connect 488 0 343 0;
#X connect 505 0 265 0;
#X connect 505 0 278 0;
#X connect 505 0 291 0;
#X connect 505 0 304 0;
#X connect 505 0 317 0;
#X connect 505 0 343 0;
#X connect 505 0 356 0;
#X connect 505 0 369 0;
#X connect 505 0 382 0;
#X connect 505 0 395 0;
#X connect 505 0 408 0;
#X connect 505 0 421 0;
#X connect 505 0 433 0;
#X connect 505 0 446 0;
#X connect 505 0 473 0;
#X connect 506 0 507 1;
#X connect 507 0 511 0;
#X connect 508 0 507 0;
#X connect 508 0 515 0;
#X connect 508 0 536 0;
#X connect 509 0 512 0;
#X connect 510 0 509 0;
#X connect 510 0 516 0;
#X connect 510 0 538 0;
#X connect 511 0 509 1;
#X connect 513 0 515 1;
#X connect 514 0 513 0;
#X connect 515 0 517 0;
#X connect 516 0 519 0;
#X connect 517 0 516 1;
#X connect 518 0 514 0;
#X connect 520 0 521 1;
#X connect 521 0 525 0;
#X connect 522 0 521 0;
#X connect 522 0 529 0;
#X connect 522 0 543 0;
#X connect 523 0 526 0;
#X connect 524 0 523 0;
#X connect 524 0 530 0;
#X connect 524 0 545 0;
#X connect 525 0 523 1;
#X connect 527 0 529 1;
#X connect 528 0 527 0;
#X connect 529 0 531 0;
#X connect 530 0 533 0;
#X connect 531 0 530 1;
#X connect 532 0 528 0;
#X connect 534 0 535 1;
#X connect 535 0 539 0;
#X connect 536 0 535 0;
#X connect 536 0 232 0;
#X connect 537 0 540 0;
#X connect 538 0 537 0;
#X connect 538 0 234 0;
#X connect 539 0 537 1;
#X connect 541 0 542 1;
#X connect 542 0 546 0;
#X connect 543 0 542 0;
#X connect 543 0 482 0;
#X connect 544 0 547 0;
#X connect 545 0 544 0;
#X connect 545 0 484 0;
#X connect 546 0 544 1;
#X connect 548 0 549 1;
#X connect 549 0 553 0;
#X connect 550 0 549 0;
#X connect 550 0 558 0;
#X connect 550 0 564 0;
#X connect 551 0 554 0;
#X connect 552 0 551 0;
#X connect 552 0 560 0;
#X connect 552 0 566 0;
#X connect 553 0 551 1;
#X connect 555 0 557 0;
#X connect 556 0 558 1;
#X connect 557 0 556 0;
#X connect 558 0 561 0;
#X connect 559 0 781 0;
#X connect 560 0 559 0;
#X connect 561 0 559 1;
#X connect 562 0 563 1;
#X connect 563 0 567 0;
#X connect 564 0 563 0;
#X connect 564 0 571 0;
#X connect 564 0 577 0;
#X connect 565 0 568 0;
#X connect 566 0 565 0;
#X connect 566 0 573 0;
#X connect 566 0 579 0;
#X connect 567 0 565 1;
#X connect 569 0 571 1;
#X connect 570 0 569 0;
#X connect 571 0 574 0;
#X connect 572 0 782 0;
#X connect 573 0 572 0;
#X connect 574 0 572 1;
#X connect 575 0 576 1;
#X connect 576 0 580 0;
#X connect 577 0 576 0;
#X connect 577 0 584 0;
#X connect 577 0 590 0;
#X connect 578 0 581 0;
#X connect 579 0 578 0;
#X connect 579 0 586 0;
#X connect 579 0 592 0;
#X connect 580 0 578 1;
#X connect 582 0 584 1;
#X connect 583 0 582 0;
#X connect 584 0 587 0;
#X connect 585 0 783 0;
#X connect 586 0 585 0;
#X connect 587 0 585 1;
#X connect 588 0 589 1;
#X connect 589 0 593 0;
#X connect 590 0 589 0;
#X connect 590 0 597 0;
#X connect 590 0 603 0;
#X connect 591 0 594 0;
#X connect 592 0 591 0;
#X connect 592 0 599 0;
#X connect 592 0 605 0;
#X connect 593 0 591 1;
#X connect 595 0 597 1;
#X connect 596 0 595 0;
#X connect 597 0 600 0;
#X connect 598 0 784 0;
#X connect 599 0 598 0;
#X connect 600 0 598 1;
#X connect 601 0 602 1;
#X connect 602 0 606 0;
#X connect 603 0 602 0;
#X connect 603 0 610 0;
#X connect 603 0 616 0;
#X connect 604 0 607 0;
#X connect 605 0 604 0;
#X connect 605 0 612 0;
#X connect 605 0 618 0;
#X connect 606 0 604 1;
#X connect 608 0 610 1;
#X connect 609 0 608 0;
#X connect 610 0 613 0;
#X connect 611 0 785 0;
#X connect 612 0 611 0;
#X connect 613 0 611 1;
#X connect 614 0 615 1;
#X connect 615 0 619 0;
#X connect 616 0 615 0;
#X connect 616 0 623 0;
#X connect 616 0 629 0;
#X connect 617 0 620 0;
#X connect 618 0 617 0;
#X connect 618 0 625 0;
#X connect 618 0 631 0;
#X connect 619 0 617 1;
#X connect 621 0 623 1;
#X connect 622 0 621 0;
#X connect 623 0 626 0;
#X connect 624 0 786 0;
#X connect 625 0 624 0;
#X connect 626 0 624 1;
#X connect 627 0 628 1;
#X connect 628 0 632 0;
#X connect 629 0 628 0;
#X connect 629 0 636 0;
#X connect 629 0 642 0;
#X connect 630 0 633 0;
#X connect 631 0 630 0;
#X connect 631 0 638 0;
#X connect 631 0 644 0;
#X connect 632 0 630 1;
#X connect 634 0 636 1;
#X connect 635 0 634 0;
#X connect 636 0 639 0;
#X connect 637 0 787 0;
#X connect 638 0 637 0;
#X connect 639 0 637 1;
#X connect 640 0 641 1;
#X connect 641 0 645 0;
#X connect 642 0 641 0;
#X connect 642 0 649 0;
#X connect 642 0 655 0;
#X connect 643 0 646 0;
#X connect 644 0 643 0;
#X connect 644 0 651 0;
#X connect 644 0 657 0;
#X connect 645 0 643 1;
#X connect 647 0 649 1;
#X connect 648 0 647 0;
#X connect 649 0 652 0;
#X connect 650 0 795 0;
#X connect 651 0 650 0;
#X connect 652 0 650 1;
#X connect 653 0 654 1;
#X connect 654 0 658 0;
#X connect 655 0 654 0;
#X connect 655 0 662 0;
#X connect 655 0 668 0;
#X connect 656 0 659 0;
#X connect 657 0 656 0;
#X connect 657 0 664 0;
#X connect 657 0 670 0;
#X connect 658 0 656 1;
#X connect 660 0 662 1;
#X connect 661 0 660 0;
#X connect 662 0 665 0;
#X connect 663 0 794 0;
#X connect 664 0 663 0;
#X connect 665 0 663 1;
#X connect 666 0 667 1;
#X connect 667 0 671 0;
#X connect 668 0 667 0;
#X connect 668 0 675 0;
#X connect 668 0 681 0;
#X connect 669 0 672 0;
#X connect 670 0 669 0;
#X connect 670 0 677 0;
#X connect 670 0 683 0;
#X connect 671 0 669 1;
#X connect 673 0 675 1;
#X connect 674 0 673 0;
#X connect 675 0 678 0;
#X connect 676 0 793 0;
#X connect 677 0 676 0;
#X connect 678 0 676 1;
#X connect 679 0 693 1;
#X connect 680 0 684 0;
#X connect 681 0 680 0;
#X connect 681 0 688 0;
#X connect 681 0 694 0;
#X connect 682 0 685 0;
#X connect 683 0 682 0;
#X connect 683 0 690 0;
#X connect 683 0 696 0;
#X connect 684 0 682 1;
#X connect 686 0 688 1;
#X connect 687 0 686 0;
#X connect 688 0 691 0;
#X connect 689 0 792 0;
#X connect 690 0 689 0;
#X connect 691 0 689 1;
#X connect 692 0 706 1;
#X connect 693 0 697 0;
#X connect 694 0 693 0;
#X connect 694 0 701 0;
#X connect 694 0 707 0;
#X connect 695 0 698 0;
#X connect 696 0 695 0;
#X connect 696 0 703 0;
#X connect 696 0 709 0;
#X connect 697 0 695 1;
#X connect 699 0 701 1;
#X connect 700 0 699 0;
#X connect 701 0 704 0;
#X connect 702 0 791 0;
#X connect 703 0 702 0;
#X connect 704 0 702 1;
#X connect 705 0 718 1;
#X connect 706 0 710 0;
#X connect 707 0 706 0;
#X connect 707 0 714 0;
#X connect 707 0 719 0;
#X connect 708 0 711 0;
#X connect 709 0 708 0;
#X connect 709 0 716 0;
#X connect 709 0 721 0;
#X connect 710 0 708 1;
#X connect 712 0 714 1;
#X connect 713 0 712 0;
#X connect 714 0 717 0;
#X connect 715 0 790 0;
#X connect 716 0 715 0;
#X connect 717 0 715 1;
#X connect 718 0 722 0;
#X connect 719 0 718 0;
#X connect 719 0 726 0;
#X connect 719 0 732 0;
#X connect 720 0 723 0;
#X connect 721 0 720 0;
#X connect 721 0 728 0;
#X connect 721 0 734 0;
#X connect 722 0 720 1;
#X connect 724 0 726 1;
#X connect 725 0 724 0;
#X connect 726 0 729 0;
#X connect 727 0 789 0;
#X connect 728 0 727 0;
#X connect 729 0 727 1;
#X connect 730 0 731 1;
#X connect 731 0 735 0;
#X connect 732 0 731 0;
#X connect 732 0 739 0;
#X connect 732 0 759 0;
#X connect 733 0 736 0;
#X connect 734 0 733 0;
#X connect 734 0 741 0;
#X connect 734 0 761 0;
#X connect 735 0 733 1;
#X connect 737 0 739 1;
#X connect 738 0 737 0;
#X connect 739 0 742 0;
#X connect 740 0 788 0;
#X connect 741 0 740 0;
#X connect 742 0 740 1;
#X connect 743 0 570 0;
#X connect 744 0 583 0;
#X connect 745 0 596 0;
#X connect 746 0 609 0;
#X connect 747 0 622 0;
#X connect 748 0 635 0;
#X connect 749 0 648 0;
#X connect 750 0 661 0;
#X connect 751 0 674 0;
#X connect 752 0 687 0;
#X connect 753 0 700 0;
#X connect 754 0 713 0;
#X connect 755 0 725 0;
#X connect 756 0 738 0;
#X connect 757 0 758 1;
#X connect 758 0 762 0;
#X connect 759 0 758 0;
#X connect 759 0 766 0;
#X connect 760 0 763 0;
#X connect 761 0 760 0;
#X connect 761 0 768 0;
#X connect 762 0 760 1;
#X connect 764 0 766 1;
#X connect 765 0 764 0;
#X connect 766 0 769 0;
#X connect 767 0 796 0;
#X connect 768 0 767 0;
#X connect 769 0 767 1;
#X connect 770 0 765 0;
#X connect 771 0 680 1;
#X connect 772 0 773 1;
#X connect 773 0 777 0;
#X connect 774 0 773 0;
#X connect 774 0 550 0;
#X connect 775 0 778 0;
#X connect 776 0 775 0;
#X connect 776 0 552 0;
#X connect 777 0 775 1;
#X connect 779 0 583 0;
#X connect 780 0 635 0;
#X connect 797 0 557 0;
#X connect 797 0 570 0;
#X connect 797 0 583 0;
#X connect 797 0 596 0;
#X connect 797 0 609 0;
#X connect 797 0 635 0;
#X connect 797 0 648 0;
#X connect 797 0 661 0;
#X connect 797 0 674 0;
#X connect 797 0 687 0;
#X connect 797 0 700 0;
#X connect 797 0 713 0;
#X connect 797 0 725 0;
#X connect 797 0 738 0;
#X connect 797 0 765 0;
#X connect 798 0 799 1;
#X connect 799 0 803 0;
#X connect 800 0 799 0;
#X connect 800 0 808 0;
#X connect 800 0 814 0;
#X connect 801 0 804 0;
#X connect 802 0 801 0;
#X connect 802 0 810 0;
#X connect 802 0 816 0;
#X connect 803 0 801 1;
#X connect 805 0 807 0;
#X connect 806 0 808 1;
#X connect 807 0 806 0;
#X connect 808 0 811 0;
#X connect 809 0 1031 0;
#X connect 810 0 809 0;
#X connect 811 0 809 1;
#X connect 812 0 813 1;
#X connect 813 0 817 0;
#X connect 814 0 813 0;
#X connect 814 0 821 0;
#X connect 814 0 827 0;
#X connect 815 0 818 0;
#X connect 816 0 815 0;
#X connect 816 0 823 0;
#X connect 816 0 829 0;
#X connect 817 0 815 1;
#X connect 819 0 821 1;
#X connect 820 0 819 0;
#X connect 821 0 824 0;
#X connect 822 0 1032 0;
#X connect 823 0 822 0;
#X connect 824 0 822 1;
#X connect 825 0 826 1;
#X connect 826 0 830 0;
#X connect 827 0 826 0;
#X connect 827 0 834 0;
#X connect 827 0 840 0;
#X connect 828 0 831 0;
#X connect 829 0 828 0;
#X connect 829 0 836 0;
#X connect 829 0 842 0;
#X connect 830 0 828 1;
#X connect 832 0 834 1;
#X connect 833 0 832 0;
#X connect 834 0 837 0;
#X connect 835 0 1033 0;
#X connect 836 0 835 0;
#X connect 837 0 835 1;
#X connect 838 0 839 1;
#X connect 839 0 843 0;
#X connect 840 0 839 0;
#X connect 840 0 847 0;
#X connect 840 0 853 0;
#X connect 841 0 844 0;
#X connect 842 0 841 0;
#X connect 842 0 849 0;
#X connect 842 0 855 0;
#X connect 843 0 841 1;
#X connect 845 0 847 1;
#X connect 846 0 845 0;
#X connect 847 0 850 0;
#X connect 848 0 1034 0;
#X connect 849 0 848 0;
#X connect 850 0 848 1;
#X connect 851 0 852 1;
#X connect 852 0 856 0;
#X connect 853 0 852 0;
#X connect 853 0 860 0;
#X connect 853 0 866 0;
#X connect 854 0 857 0;
#X connect 855 0 854 0;
#X connect 855 0 862 0;
#X connect 855 0 868 0;
#X connect 856 0 854 1;
#X connect 858 0 860 1;
#X connect 859 0 858 0;
#X connect 860 0 863 0;
#X connect 861 0 1035 0;
#X connect 862 0 861 0;
#X connect 863 0 861 1;
#X connect 864 0 865 1;
#X connect 865 0 869 0;
#X connect 866 0 865 0;
#X connect 866 0 873 0;
#X connect 866 0 879 0;
#X connect 867 0 870 0;
#X connect 868 0 867 0;
#X connect 868 0 875 0;
#X connect 868 0 881 0;
#X connect 869 0 867 1;
#X connect 871 0 873 1;
#X connect 872 0 871 0;
#X connect 873 0 876 0;
#X connect 874 0 1036 0;
#X connect 875 0 874 0;
#X connect 876 0 874 1;
#X connect 877 0 878 1;
#X connect 878 0 882 0;
#X connect 879 0 878 0;
#X connect 879 0 886 0;
#X connect 879 0 892 0;
#X connect 880 0 883 0;
#X connect 881 0 880 0;
#X connect 881 0 888 0;
#X connect 881 0 894 0;
#X connect 882 0 880 1;
#X connect 884 0 886 1;
#X connect 885 0 884 0;
#X connect 886 0 889 0;
#X connect 887 0 1037 0;
#X connect 888 0 887 0;
#X connect 889 0 887 1;
#X connect 890 0 891 1;
#X connect 891 0 895 0;
#X connect 892 0 891 0;
#X connect 892 0 899 0;
#X connect 892 0 905 0;
#X connect 893 0 896 0;
#X connect 894 0 893 0;
#X connect 894 0 901 0;
#X connect 894 0 907 0;
#X connect 895 0 893 1;
#X connect 897 0 899 1;
#X connect 898 0 897 0;
#X connect 899 0 902 0;
#X connect 900 0 1045 0;
#X connect 901 0 900 0;
#X connect 902 0 900 1;
#X connect 903 0 904 1;
#X connect 904 0 908 0;
#X connect 905 0 904 0;
#X connect 905 0 912 0;
#X connect 905 0 918 0;
#X connect 906 0 909 0;
#X connect 907 0 906 0;
#X connect 907 0 914 0;
#X connect 907 0 920 0;
#X connect 908 0 906 1;
#X connect 910 0 912 1;
#X connect 911 0 910 0;
#X connect 912 0 915 0;
#X connect 913 0 1044 0;
#X connect 914 0 913 0;
#X connect 915 0 913 1;
#X connect 916 0 917 1;
#X connect 917 0 921 0;
#X connect 918 0 917 0;
#X connect 918 0 925 0;
#X connect 918 0 931 0;
#X connect 919 0 922 0;
#X connect 920 0 919 0;
#X connect 920 0 927 0;
#X connect 920 0 933 0;
#X connect 921 0 919 1;
#X connect 923 0 925 1;
#X connect 924 0 923 0;
#X connect 925 0 928 0;
#X connect 926 0 1043 0;
#X connect 927 0 926 0;
#X connect 928 0 926 1;
#X connect 929 0 943 1;
#X connect 930 0 934 0;
#X connect 931 0 930 0;
#X connect 931 0 938 0;
#X connect 931 0 944 0;
#X connect 932 0 935 0;
#X connect 933 0 932 0;
#X connect 933 0 940 0;
#X connect 933 0 946 0;
#X connect 934 0 932 1;
#X connect 936 0 938 1;
#X connect 937 0 936 0;
#X connect 938 0 941 0;
#X connect 939 0 1042 0;
#X connect 940 0 939 0;
#X connect 941 0 939 1;
#X connect 942 0 956 1;
#X connect 943 0 947 0;
#X connect 944 0 943 0;
#X connect 944 0 951 0;
#X connect 944 0 957 0;
#X connect 945 0 948 0;
#X connect 946 0 945 0;
#X connect 946 0 953 0;
#X connect 946 0 959 0;
#X connect 947 0 945 1;
#X connect 949 0 951 1;
#X connect 950 0 949 0;
#X connect 951 0 954 0;
#X connect 952 0 1041 0;
#X connect 953 0 952 0;
#X connect 954 0 952 1;
#X connect 955 0 968 1;
#X connect 956 0 960 0;
#X connect 957 0 956 0;
#X connect 957 0 964 0;
#X connect 957 0 969 0;
#X connect 958 0 961 0;
#X connect 959 0 958 0;
#X connect 959 0 966 0;
#X connect 959 0 971 0;
#X connect 960 0 958 1;
#X connect 962 0 964 1;
#X connect 963 0 962 0;
#X connect 964 0 967 0;
#X connect 965 0 1040 0;
#X connect 966 0 965 0;
#X connect 967 0 965 1;
#X connect 968 0 972 0;
#X connect 969 0 968 0;
#X connect 969 0 976 0;
#X connect 969 0 982 0;
#X connect 970 0 973 0;
#X connect 971 0 970 0;
#X connect 971 0 978 0;
#X connect 971 0 984 0;
#X connect 972 0 970 1;
#X connect 974 0 976 1;
#X connect 975 0 974 0;
#X connect 976 0 979 0;
#X connect 977 0 1039 0;
#X connect 978 0 977 0;
#X connect 979 0 977 1;
#X connect 980 0 981 1;
#X connect 981 0 985 0;
#X connect 982 0 981 0;
#X connect 982 0 989 0;
#X connect 982 0 1009 0;
#X connect 983 0 986 0;
#X connect 984 0 983 0;
#X connect 984 0 991 0;
#X connect 984 0 1011 0;
#X connect 985 0 983 1;
#X connect 987 0 989 1;
#X connect 988 0 987 0;
#X connect 989 0 992 0;
#X connect 990 0 1038 0;
#X connect 991 0 990 0;
#X connect 992 0 990 1;
#X connect 993 0 820 0;
#X connect 994 0 833 0;
#X connect 995 0 846 0;
#X connect 996 0 859 0;
#X connect 997 0 872 0;
#X connect 998 0 885 0;
#X connect 999 0 898 0;
#X connect 1000 0 911 0;
#X connect 1001 0 924 0;
#X connect 1002 0 937 0;
#X connect 1003 0 950 0;
#X connect 1004 0 963 0;
#X connect 1005 0 975 0;
#X connect 1006 0 988 0;
#X connect 1007 0 1008 1;
#X connect 1008 0 1012 0;
#X connect 1009 0 1008 0;
#X connect 1009 0 1016 0;
#X connect 1010 0 1013 0;
#X connect 1011 0 1010 0;
#X connect 1011 0 1018 0;
#X connect 1012 0 1010 1;
#X connect 1014 0 1016 1;
#X connect 1015 0 1014 0;
#X connect 1016 0 1019 0;
#X connect 1017 0 1046 0;
#X connect 1018 0 1017 0;
#X connect 1019 0 1017 1;
#X connect 1020 0 1015 0;
#X connect 1021 0 930 1;
#X connect 1022 0 1023 1;
#X connect 1023 0 1027 0;
#X connect 1024 0 1023 0;
#X connect 1024 0 800 0;
#X connect 1025 0 1028 0;
#X connect 1026 0 1025 0;
#X connect 1026 0 802 0;
#X connect 1027 0 1025 1;
#X connect 1029 0 833 0;
#X connect 1030 0 885 0;
#X connect 1047 0 807 0;
#X connect 1047 0 820 0;
#X connect 1047 0 833 0;
#X connect 1047 0 846 0;
#X connect 1047 0 859 0;
#X connect 1047 0 885 0;
#X connect 1047 0 898 0;
#X connect 1047 0 911 0;
#X connect 1047 0 924 0;
#X connect 1047 0 937 0;
#X connect 1047 0 950 0;
#X connect 1047 0 963 0;
#X connect 1047 0 975 0;
#X connect 1047 0 988 0;
#X connect 1047 0 1015 0;
#X connect 1048 0 1049 1;
#X connect 1049 0 1053 0;
#X connect 1050 0 1049 0;
#X connect 1050 0 1057 0;
#X connect 1050 0 1078 0;
#X connect 1051 0 1054 0;
#X connect 1052 0 1051 0;
#X connect 1052 0 1058 0;
#X connect 1052 0 1080 0;
#X connect 1053 0 1051 1;
#X connect 1055 0 1057 1;
#X connect 1056 0 1055 0;
#X connect 1057 0 1059 0;
#X connect 1058 0 1061 0;
#X connect 1059 0 1058 1;
#X connect 1060 0 1056 0;
#X connect 1062 0 1063 1;
#X connect 1063 0 1067 0;
#X connect 1064 0 1063 0;
#X connect 1064 0 1071 0;
#X connect 1064 0 1085 0;
#X connect 1065 0 1068 0;
#X connect 1066 0 1065 0;
#X connect 1066 0 1072 0;
#X connect 1066 0 1087 0;
#X connect 1067 0 1065 1;
#X connect 1069 0 1071 1;
#X connect 1070 0 1069 0;
#X connect 1071 0 1073 0;
#X connect 1072 0 1075 0;
#X connect 1073 0 1072 1;
#X connect 1074 0 1070 0;
#X connect 1076 0 1077 1;
#X connect 1077 0 1081 0;
#X connect 1078 0 1077 0;
#X connect 1078 0 774 0;
#X connect 1079 0 1082 0;
#X connect 1080 0 1079 0;
#X connect 1080 0 776 0;
#X connect 1081 0 1079 1;
#X connect 1083 0 1084 1;
#X connect 1084 0 1088 0;
#X connect 1085 0 1084 0;
#X connect 1085 0 1024 0;
#X connect 1086 0 1089 0;
#X connect 1087 0 1086 0;
#X connect 1087 0 1026 0;
#X connect 1088 0 1086 1;
#X connect 1090 0 171 0;
#X connect 1091 0 421 0;
#X connect 1092 0 713 0;
#X connect 1093 0 963 0;
#X connect 1094 0 196 0;
#X connect 1095 0 446 0;
#X connect 1096 0 738 0;
#X connect 1097 0 988 0;
#X connect 1098 0 223 0;
#X connect 1099 0 473 0;
#X connect 1100 0 765 0;
#X connect 1101 0 1015 0;
#X connect 1102 0 183 0;
#X connect 1103 0 433 0;
#X connect 1104 0 725 0;
#X connect 1105 0 975 0;
#X connect 1106 0 158 0;
#X connect 1107 0 408 0;
#X connect 1108 0 700 0;
#X connect 1109 0 950 0;
#X connect 1110 0 15 0;
#X connect 1111 0 265 0;
#X connect 1112 0 557 0;
#X connect 1113 0 807 0;
#X connect 1114 0 28 0;
#X connect 1115 0 278 0;
#X connect 1116 0 570 0;
#X connect 1117 0 820 0;
#X connect 1118 0 54 0;
#X connect 1119 0 304 0;
#X connect 1120 0 596 0;
#X connect 1121 0 846 0;
#X connect 1122 0 67 0;
#X connect 1123 0 317 0;
#X connect 1124 0 609 0;
#X connect 1125 0 859 0;
#X connect 1126 0 80 0;
#X connect 1127 0 330 0;
#X connect 1128 0 622 0;
#X connect 1129 0 872 0;
#X connect 1130 0 106 0;
#X connect 1131 0 356 0;
#X connect 1132 0 648 0;
#X connect 1133 0 898 0;
#X connect 1134 0 119 0;
#X connect 1135 0 369 0;
#X connect 1136 0 661 0;
#X connect 1137 0 911 0;
#X connect 1138 0 132 0;
#X connect 1139 0 382 0;
#X connect 1140 0 674 0;
#X connect 1141 0 924 0;
#X connect 1142 0 145 0;
#X connect 1143 0 395 0;
#X connect 1144 0 687 0;
#X connect 1145 0 937 0;
#X connect 1146 0 1148 0;
#X connect 1148 0 1150 0;
#X connect 1148 1 1149 0;
#X coords 0 -1 1 1 150 19 2 100 100;
