#N canvas 15 236 450 300 10;
#X obj 100 102 tgl 15 0 \$0_ \$0--_ empty 17 7 0 10 -260097 -1 -1 0
1;
#X obj 100 71 inlet control;
#X obj 43 116 spigot~;
#X obj 43 165 outlet~;
#X obj 43 68 inlet~;
#X obj 159 157 dac~;
#X connect 0 0 2 1;
#X connect 1 0 0 0;
#X connect 2 0 3 0;
#X connect 4 0 2 0;
#X coords 0 -1 1 1 15 19 2 100 100;
