#N canvas 184 429 879 573 10;
#X text 198 -67 vertical;
#X floatatom 388 109 5 0 0 0 - - -, f 5;
#X obj 1 1 cnv 13 1 18 empty NBRcolorbar2 empty 20 12 0 14 -241291
-4034 0;
#X text 653 238 label-color;
#X msg 559 355 color \$1 \$2;
#X obj 562 300 t f f;
#X obj 559 329 pack f f;
#X obj 412 148 t f f f;
#X msg 396 294 pos 1 \$1;
#X floatatom 404 266 5 0 0 0 - - -, f 5;
#X floatatom 464 266 5 0 0 0 - - -, f 5;
#X msg 456 294 pos \$1 1;
#X floatatom 561 279 5 0 0 0 - - -, f 5;
#X obj 398 62 inlet;
#X floatatom 348 99 5 0 0 0 - - -, f 5;
#X obj 434 93 * 42.8;
#X obj 373 415 s NBRcolorbar2;
#X msg 374 195 vis_size \$1 18;
#X connect 1 0 7 0;
#X connect 4 0 16 0;
#X connect 5 0 6 0;
#X connect 5 1 6 1;
#X connect 6 0 4 0;
#X connect 7 0 17 0;
#X connect 8 0 16 0;
#X connect 9 0 8 0;
#X connect 10 0 11 0;
#X connect 11 0 16 0;
#X connect 12 0 5 0;
#X connect 13 0 15 0;
#X connect 14 0 15 0;
#X connect 15 0 1 0;
#X connect 17 0 16 0;
#X coords 0 0 1 1 686 15 2 0 0;
