#N canvas 505 69 1083 833 10;
#X obj -981 296 pix_invert;
#X obj -985 491 pix_gain;
#X obj -880 526 * 5;
#X obj -986 568 pix_contrast;
#X obj -985 599 pix_motionblur;
#X obj -876 599 * 0.99;
#X obj -852 247 loadbang;
#X floatatom -845 526 5 0 0 0 - - -, f 5;
#X floatatom -883 495 5 0 0 0 - - -, f 5;
#X floatatom -844 559 5 0 0 0 - - -, f 5;
#X floatatom -828 599 5 0 0 0 - - -, f 5;
#X obj -781 599 r $A-motionBlur;
#X obj -803 559 r $A-saturation;
#X obj -803 526 r $A-contrast;
#X obj -834 495 r $A-gain;
#X obj -979 262 r $A-colorInv;
#X obj -981 -23 cnv 15 170 250 empty empty empty 20 12 0 14 -228992
-66577 0;
#X text -977 -21 Example:;
#X obj -167 48 cnv 15 100 60 empty empty empty 20 12 0 14 -195568 -66577
0;
#N canvas 0 22 450 300 gemwin 0;
#X obj 132 136 gemwin;
#X obj 67 89 outlet;
#X obj 67 10 inlet;
#X obj 67 41 route create;
#X msg 67 70 set destroy;
#X msg 142 68 set create;
#X msg 132 112 create \, 1;
#X msg 198 112 destroy;
#X connect 2 0 3 0;
#X connect 3 0 4 0;
#X connect 3 0 6 0;
#X connect 3 1 5 0;
#X connect 3 1 7 0;
#X connect 4 0 1 0;
#X connect 5 0 1 0;
#X connect 6 0 0 0;
#X connect 7 0 0 0;
#X restore -162 87 pd gemwin;
#X msg -162 68 destroy;
#X text -166 47 Create window:;
#X obj -920 4 bng 15 250 50 0 empty empty pix_load 20 8 0 8 -262144
-1 -1;
#N canvas 5 49 587 366 image 0;
#X obj 77 48 inlet;
#X obj 77 344 outlet;
#X obj 223 55 inlet;
#X msg 223 123 open \$1;
#X obj 223 100 openpanel;
#X obj 77 205 pix_image examples/data/fractal.JPG;
#X connect 0 0 5 0;
#X connect 2 0 4 0;
#X connect 3 0 5 0;
#X connect 4 0 3 0;
#X connect 5 0 1 0;
#X restore -979 29 pd image;
#X text -914 24 open an image;
#X text -921 37 (JPEG \, TIFF \, ..);
#X obj -879 559 * 10;
#X obj -983 634 pix_texture;
#X msg -852 278 1;
#X msg -822 278 0;
#X obj -911 493 * 1;
#X floatatom -906 330 5 0 0 2 R - -, f 5;
#X floatatom -866 330 5 0 0 2 G - -, f 5;
#X floatatom -826 330 5 0 0 2 B - -, f 5;
#X obj -875 355 bondo 3;
#X obj -875 381 pack f f f;
#X obj -984 419 pix_texture;
#X obj -982 388 pix_threshold;
#X msg -958 360 0;
#X floatatom -965 327 5 0 0 0 - - -, f 5;
#X obj -699 776 rectangle 4 3;
#X floatatom -879 419 5 0 0 2 R - -, f 5;
#X floatatom -839 419 5 0 0 2 G - -, f 5;
#X floatatom -799 419 5 0 0 2 B - -, f 5;
#X obj -848 444 bondo 3;
#X obj -858 470 pack f f f;
#X obj -611 296 pix_invert;
#X obj -615 491 pix_gain;
#X obj -510 526 * 5;
#X obj -616 568 pix_contrast;
#X obj -615 599 pix_motionblur;
#X obj -506 599 * 0.99;
#X obj -482 247 loadbang;
#X floatatom -475 526 5 0 0 0 - - -, f 5;
#X floatatom -513 495 5 0 0 0 - - -, f 5;
#X floatatom -474 559 5 0 0 0 - - -, f 5;
#X floatatom -458 599 5 0 0 0 - - -, f 5;
#X obj -411 599 r $A-motionBlur;
#X obj -433 559 r $A-saturation;
#X obj -433 526 r $A-contrast;
#X obj -464 495 r $A-gain;
#X obj -609 262 r $A-colorInv;
#X obj -611 -23 cnv 15 170 250 empty empty empty 20 12 0 14 -228992
-66577 0;
#X text -607 -21 Example:;
#X obj -550 4 bng 15 250 50 0 empty empty pix_load 20 8 0 8 -262144
-1 -1;
#N canvas 5 49 587 366 image 0;
#X obj 77 48 inlet;
#X obj 77 344 outlet;
#X obj 223 55 inlet;
#X msg 223 123 open \$1;
#X obj 223 100 openpanel;
#X obj 77 205 pix_image examples/data/fractal.JPG;
#X connect 0 0 5 0;
#X connect 2 0 4 0;
#X connect 3 0 5 0;
#X connect 4 0 3 0;
#X connect 5 0 1 0;
#X restore -609 29 pd image;
#X text -544 24 open an image;
#X text -551 37 (JPEG \, TIFF \, ..);
#X obj -509 559 * 10;
#X obj -613 634 pix_texture;
#X msg -482 278 1;
#X msg -452 278 0;
#X obj -541 493 * 1;
#X floatatom -536 330 5 0 0 2 R - -, f 5;
#X floatatom -496 330 5 0 0 2 G - -, f 5;
#X floatatom -456 330 5 0 0 2 B - -, f 5;
#X obj -505 355 bondo 3;
#X obj -505 381 pack f f f;
#X obj -614 419 pix_texture;
#X obj -612 388 pix_threshold;
#X msg -588 360 0;
#X floatatom -595 327 5 0 0 0 - - -, f 5;
#X obj -529 671 rectangle 4 3;
#X floatatom -509 419 5 0 0 2 R - -, f 5;
#X floatatom -469 419 5 0 0 2 G - -, f 5;
#X floatatom -429 419 5 0 0 2 B - -, f 5;
#X obj -478 444 bondo 3;
#X obj -488 470 pack f f f;
#X obj -76 351 spigot-toggle_red;
#X obj -110 350 spigot-toggle_red;
#X obj -179 573 pix_alpha;
#X obj -112 415 loadbang;
#X floatatom -253 477 5 0 1 1 pass - -, f 5;
#X floatatom -148 477 5 0 1 1 other - -, f 5;
#X msg -197 444 1 0;
#X msg -237 444 0 1;
#X obj -179 354 tgl 15 0 empty empty empty 17 7 0 10 -262144 -1 -1
0 1;
#X obj -173 383 metro 100;
#X obj -176 407 sel;
#X obj -203 520 unpack f f;
#X msg -137 444 1 1 1;
#X floatatom -295 623 5 0 255 0 - - -, f 5;
#X floatatom -285 675 5 0 255 0 - - -, f 5;
#X obj -282 661 hsl 128 12 0 1 0 0 empty empty empty -2 -8 0 10 -262144
-1 -1 6500 1;
#X msg -295 640 value \$1 \$1 \$1;
#X msg -285 693 range \$1 \$1 \$1;
#X obj -282 601 hsl 128 12 0 1 0 0 empty empty empty -2 -8 0 10 -262144
-1 -1 3800 1;
#X obj -682 751 pix_texture;
#X msg -273 744 direction \$1;
#X obj -273 724 tgl 15 1 empty empty empty 0 -6 0 8 -262144 -1 -1 0
1;
#X obj -895 730 pix_chroma_key;
#X floatatom -80 476 5 0 0 2 R - -, f 5;
#X floatatom -40 476 5 0 0 2 G - -, f 5;
#X floatatom 0 476 5 0 0 2 B - -, f 5;
#X obj -49 501 bondo 3;
#X obj -59 527 pack f f f;
#X obj -609 3 gemhead;
#X obj -979 3 gemhead 3;
#X connect 0 0 37 0;
#X connect 1 0 3 0;
#X connect 2 0 3 1;
#X connect 3 0 4 0;
#X connect 4 0 27 0;
#X connect 5 0 4 1;
#X connect 6 0 28 0;
#X connect 7 0 2 0;
#X connect 8 0 30 0;
#X connect 9 0 26 0;
#X connect 10 0 5 0;
#X connect 11 0 10 0;
#X connect 12 0 9 0;
#X connect 13 0 7 0;
#X connect 14 0 8 0;
#X connect 15 0 0 0;
#X connect 19 0 20 0;
#X connect 20 0 19 0;
#X connect 22 0 23 1;
#X connect 23 0 0 0;
#X connect 26 0 3 2;
#X connect 27 0 90 0;
#X connect 27 0 110 0;
#X connect 28 0 0 0;
#X connect 29 0 0 0;
#X connect 30 0 1 1;
#X connect 31 0 34 0;
#X connect 32 0 34 1;
#X connect 33 0 34 2;
#X connect 34 0 35 0;
#X connect 34 1 35 1;
#X connect 34 2 35 2;
#X connect 35 0 37 2;
#X connect 36 0 1 0;
#X connect 37 0 36 0;
#X connect 38 0 37 1;
#X connect 39 0 37 1;
#X connect 41 0 44 0;
#X connect 42 0 44 1;
#X connect 43 0 44 2;
#X connect 44 0 45 0;
#X connect 44 1 45 1;
#X connect 44 2 45 2;
#X connect 45 0 1 2;
#X connect 46 0 79 0;
#X connect 47 0 49 0;
#X connect 48 0 49 1;
#X connect 49 0 50 0;
#X connect 50 0 69 0;
#X connect 51 0 50 1;
#X connect 52 0 70 0;
#X connect 53 0 48 0;
#X connect 54 0 72 0;
#X connect 55 0 68 0;
#X connect 56 0 51 0;
#X connect 57 0 56 0;
#X connect 58 0 55 0;
#X connect 59 0 53 0;
#X connect 60 0 54 0;
#X connect 61 0 46 0;
#X connect 64 0 65 1;
#X connect 65 0 46 0;
#X connect 68 0 49 2;
#X connect 69 0 110 1;
#X connect 70 0 46 0;
#X connect 71 0 46 0;
#X connect 72 0 47 1;
#X connect 73 0 76 0;
#X connect 74 0 76 1;
#X connect 75 0 76 2;
#X connect 76 0 77 0;
#X connect 76 1 77 1;
#X connect 76 2 77 2;
#X connect 77 0 79 2;
#X connect 78 0 47 0;
#X connect 79 0 78 0;
#X connect 80 0 79 1;
#X connect 81 0 79 1;
#X connect 83 0 86 0;
#X connect 84 0 86 1;
#X connect 85 0 86 2;
#X connect 86 0 87 0;
#X connect 86 1 87 1;
#X connect 86 2 87 2;
#X connect 87 0 47 2;
#X connect 91 0 100 0;
#X connect 92 0 90 1;
#X connect 93 0 90 2;
#X connect 94 0 99 0;
#X connect 95 0 99 0;
#X connect 96 0 97 0;
#X connect 97 0 98 0;
#X connect 98 0 95 0;
#X connect 98 1 94 0;
#X connect 99 0 90 1;
#X connect 99 1 90 2;
#X connect 100 0 90 3;
#X connect 101 0 104 0;
#X connect 102 0 105 0;
#X connect 103 0 102 0;
#X connect 104 0 110 0;
#X connect 105 0 110 0;
#X connect 106 0 101 0;
#X connect 107 0 40 0;
#X connect 108 0 110 0;
#X connect 109 0 108 0;
#X connect 110 0 107 0;
#X connect 111 0 114 0;
#X connect 112 0 114 1;
#X connect 113 0 114 2;
#X connect 114 0 115 0;
#X connect 114 1 115 1;
#X connect 114 2 115 2;
#X connect 115 0 90 3;
#X connect 116 0 65 0;
#X connect 117 0 23 0;
