#N canvas 760 33 838 601 10;
#X obj 57 64 cnv 15 170 340 empty empty empty 20 12 0 14 -228992 -66577
0;
#X obj 948 24 cnv 15 100 60 empty empty empty 20 12 0 14 -195568 -66577
0;
#N canvas 0 22 450 300 gemwin 0;
#X obj 132 136 gemwin;
#X obj 67 89 outlet;
#X obj 67 10 inlet;
#X obj 67 41 route create;
#X msg 67 70 set destroy;
#X msg 142 68 set create;
#X msg 132 112 create \, 1;
#X msg 198 112 destroy;
#X connect 2 0 3 0;
#X connect 3 0 4 0;
#X connect 3 0 6 0;
#X connect 3 1 5 0;
#X connect 3 1 7 0;
#X connect 4 0 1 0;
#X connect 5 0 1 0;
#X connect 6 0 0 0;
#X connect 7 0 0 0;
#X restore 954 63 pd gemwin;
#X msg 954 44 destroy;
#X text 950 23 Create window:;
#X obj 58 215 cnv 15 160 60 empty empty empty 20 12 0 14 -24198 -66577
0;
#X obj 59 243 rotate 45 0 0 1;
#X floatatom 76 219 5 0 0 0 - - -, f 5;
#X msg 172 235 1 0 0;
#X msg 172 256 0 1 1;
#X msg 172 214 0 0 0;
#X floatatom 170 286 5 0 0 0 - - -, f 5;
#X floatatom 68 288 5 0 0 0 - - -, f 5;
#X floatatom 118 288 5 0 0 0 - - -, f 5;
#X obj 57 324 translateXYZ;
#X floatatom 146 98 5 0 0 0 - - -, f 5;
#X floatatom 67 97 5 0 0 0 - - -, f 5;
#X floatatom 106 97 5 0 0 0 - - -, f 5;
#X obj 61 118 translateXYZ;
#X obj 80 196 line;
#X obj 158 136 bng 15 250 50 0 empty empty empty 17 7 0 10 -262144
-1 -1;
#X obj 78 174 pack \$1 \$2;
#X obj 158 154 f;
#X obj 188 155 + 1;
#X obj 495 59 cnv 15 170 340 empty empty empty 20 12 0 14 -228992 -66577
0;
#X obj 496 210 cnv 15 160 60 empty empty empty 20 12 0 14 -24198 -66577
0;
#X msg 610 230 1 0 0;
#X msg 610 251 0 1 1;
#X msg 610 209 0 0 0;
#X floatatom 621 91 5 0 0 0 - - -, f 5;
#X floatatom 519 91 5 0 0 0 - - -, f 5;
#X floatatom 569 91 5 0 0 0 - - -, f 5;
#X obj 499 113 translateXYZ;
#X obj 157 173 r T$;
#X floatatom 79 137 5 0 0 0 - - -, f 5;
#X obj 501 357 color;
#X msg 239 322 draw line;
#X msg 239 343 draw fill;
#X msg 239 365 draw point;
#X floatatom 277 418 5 0 0 2 size - -, f 5;
#X floatatom 170 306 5 0 0 0 - - -, f 5;
#X obj 64 360 color;
#X floatatom 157 325 5 0 0 0 - - -, f 5;
#X obj 238 147 color;
#X obj 315 59 cnv 15 170 340 empty empty empty 20 12 0 14 -228992 -66577
0;
#X obj 316 210 cnv 15 160 60 empty empty empty 20 12 0 14 -24198 -66577
0;
#X floatatom 344 219 5 0 0 0 - - -, f 5;
#X msg 430 230 1 0 0;
#X msg 430 251 0 1 1;
#X msg 430 209 0 0 0;
#X floatatom 441 91 5 0 0 0 - - -, f 5;
#X floatatom 339 91 5 0 0 0 - - -, f 5;
#X floatatom 389 91 5 0 0 0 - - -, f 5;
#X obj 319 113 translateXYZ;
#X obj 317 296 color;
#X obj 437 29 bng 15 250 50 0 empty empty empty 17 7 0 10 -262144 -1
-1;
#X obj 348 174 pack \$1 \$2;
#X obj 437 47 f;
#X obj 467 48 + 1;
#X obj 440 134 r T$;
#X floatatom 349 136 5 0 0 0 - - -, f 5;
#X obj 438 5 r ITA;
#X floatatom 438 178 5 0 0 0 - - -, f 5;
#X obj 438 157 / 1;
#X obj 317 238 rotate 45 0 0 1;
#X obj 304 169 * 360;
#X floatatom 493 9 5 0 0 0 - - -, f 5;
#X obj 345 196 line;
#X obj 605 115 r STPA;
#X msg 116 357 0 1 0;
#X floatatom 626 339 5 0 0 0 - - -, f 5;
#X msg -77 334 draw line;
#X msg -77 355 draw fill;
#X msg -77 377 draw point;
#X floatatom 14 369 5 0 0 2 size - -, f 5;
#X obj 237 119 gemhead 3;
#X obj -2 37 gemhead 4;
#X obj -17 297 gemhead 5;
#X obj 237 70 gemhead 6;
#X obj -76 411 circle 0.7;
#X obj 595 495 r lo;
#X obj 599 543 bng 15 250 50 0 empty empty empty 17 7 0 10 -262144
-1 -1;
#X obj 715 59 cnv 15 170 340 empty empty empty 20 12 0 14 -228992 -66577
0;
#X obj 716 210 cnv 15 160 60 empty empty empty 20 12 0 14 -24198 -66577
0;
#X floatatom 1119 158 5 0 0 0 - - -, f 5;
#X msg 830 230 1 0 0;
#X msg 830 251 0 1 1;
#X msg 830 209 0 0 0;
#X floatatom 840 69 5 0 0 0 - - -, f 5;
#X floatatom 739 91 5 0 0 0 - - -, f 5;
#X floatatom 789 91 5 0 0 0 - - -, f 5;
#X obj 719 113 translateXYZ;
#X obj 717 369 color;
#X msg 929 327 draw line;
#X msg 929 348 draw fill;
#X msg 929 370 draw point;
#X floatatom 967 423 5 0 0 2 size - -, f 5;
#X obj 950 250 color;
#X obj 939 454 circle 1.01;
#X obj 611 30 gemhead 3;
#X obj 716 30 gemhead 1;
#X obj 927 124 gemhead 2;
#X obj 1165 157 * 1;
#X obj 1165 137 * -1;
#X obj 16 153 * -1;
#X obj 19 173 * 360;
#X obj 304 148 * -1;
#X floatatom 828 363 5 0 0 0 - - -, f 5;
#X floatatom 744 49 5 0 0 0 - - -, f 5;
#X floatatom 586 339 5 0 0 0 - - -, f 5;
#X msg 685 263 - 0.2;
#X msg 685 223 1.12;
#X obj 717 238 rotate 45 0 0 1;
#X floatatom 858 283 5 0 0 0 - - -, f 5;
#X floatatom 756 283 5 0 0 0 - - -, f 5;
#X floatatom 806 283 5 0 0 0 - - -, f 5;
#X obj 736 305 translateXYZ;
#X floatatom 630 285 5 0 0 0 - - -, f 5;
#X floatatom 528 285 5 0 0 0 - - -, f 5;
#X floatatom 584 285 5 0 0 0 - - -, f 5;
#X obj 508 307 translateXYZ;
#X obj 249 449 circle 1;
#X obj 1118 134 * 360;
#X msg 988 218 1 1 1;
#X msg 256 188 0 0 0;
#X floatatom 879 363 5 0 0 0 - - -, f 5;
#X msg 352 271 0 0 0;
#X floatatom 376 319 5 0 0 0 - - -, f 5;
#X floatatom 446 319 5 0 0 0 - - -, f 5;
#X msg 610 190 0 0 1;
#X obj 950 510 color;
#X msg 988 478 1 1 1;
#X floatatom 992 559 5 0 0 0 - - -, f 5;
#X floatatom 890 559 5 0 0 0 - - -, f 5;
#X floatatom 940 559 5 0 0 0 - - -, f 5;
#X obj 870 581 translateXYZ;
#X obj 735 585 rectangle 0.9 0.9;
#X msg 536 332 1 1 1;
#X obj 833 169 - 2.3;
#X obj 1062 401 color;
#X obj 1061 62 gemhead 1;
#X floatatom 1203 315 5 0 0 0 - - -, f 5;
#X floatatom 1101 315 5 0 0 0 - - -, f 5;
#X floatatom 1151 315 5 0 0 0 - - -, f 5;
#X obj 1081 337 translateXYZ;
#X floatatom 1224 395 5 0 0 0 - - -, f 5;
#X msg 1097 376 10 0 0;
#X msg 752 344 1 1 1;
#X obj 803 29 r posvisu;
#X obj 741 67 * 6;
#X obj 772 68 - 3;
#X floatatom 1173 395 5 0 0 0 - - -, f 5;
#X obj 1064 425 rectangle 3 0.009;
#X floatatom 554 219 5 0 0 0 - - -, f 5;
#X obj 558 174 pack \$1 \$2;
#X obj 555 196 line;
#X obj 514 148 * -1;
#X obj 497 238 rotate 45 0 0 1;
#X obj 514 169 * 360;
#X msg 262 271 0.22;
#X obj 157 115 r BB;
#X obj 719 393 rectangle 0.03 0.2;
#X obj 503 383 rectangle 0.22 1;
#X msg 555 263 -0.07;
#X obj 65 384 rectangle 0.22 0.73;
#X obj 582 146 * -22.5;
#X obj 322 336 rectangle 0.22 0.7;
#X connect 2 0 3 0;
#X connect 3 0 2 0;
#X connect 6 0 14 0;
#X connect 7 0 6 1;
#X connect 8 0 6 2;
#X connect 9 0 6 2;
#X connect 10 0 6 2;
#X connect 11 0 14 3;
#X connect 12 0 14 1;
#X connect 13 0 14 2;
#X connect 14 0 41 0;
#X connect 15 0 18 3;
#X connect 16 0 18 1;
#X connect 17 0 18 2;
#X connect 18 0 6 0;
#X connect 19 0 7 0;
#X connect 20 0 22 0;
#X connect 21 0 19 0;
#X connect 22 0 23 0;
#X connect 22 0 34 0;
#X connect 23 0 22 1;
#X connect 26 0 157 2;
#X connect 27 0 157 2;
#X connect 28 0 157 2;
#X connect 29 0 32 3;
#X connect 30 0 32 1;
#X connect 31 0 32 2;
#X connect 32 0 157 0;
#X connect 33 0 21 1;
#X connect 34 0 104 0;
#X connect 35 0 162 0;
#X connect 36 0 121 0;
#X connect 37 0 121 0;
#X connect 38 0 121 0;
#X connect 39 0 121 1;
#X connect 40 0 164 2;
#X connect 41 0 164 0;
#X connect 42 0 164 1;
#X connect 43 0 121 0;
#X connect 46 0 64 1;
#X connect 47 0 64 2;
#X connect 48 0 64 2;
#X connect 49 0 64 2;
#X connect 50 0 53 3;
#X connect 51 0 53 1;
#X connect 52 0 53 2;
#X connect 53 0 64 0;
#X connect 54 0 166 0;
#X connect 55 0 57 0;
#X connect 56 0 67 0;
#X connect 57 0 58 0;
#X connect 57 0 60 0;
#X connect 58 0 57 1;
#X connect 59 0 63 0;
#X connect 60 0 106 0;
#X connect 61 0 55 0;
#X connect 61 0 66 0;
#X connect 62 0 56 1;
#X connect 63 0 62 0;
#X connect 64 0 54 0;
#X connect 65 0 56 0;
#X connect 67 0 46 0;
#X connect 68 0 165 0;
#X connect 69 0 41 1;
#X connect 70 0 162 2;
#X connect 71 0 79 0;
#X connect 72 0 79 0;
#X connect 73 0 79 0;
#X connect 74 0 79 1;
#X connect 75 0 43 0;
#X connect 76 0 18 0;
#X connect 77 0 79 0;
#X connect 78 0 53 0;
#X connect 80 0 81 0;
#X connect 81 0 137 0;
#X connect 81 0 69 0;
#X connect 81 0 163 0;
#X connect 81 0 94 0;
#X connect 81 0 110 0;
#X connect 81 0 126 0;
#X connect 81 0 159 0;
#X connect 85 0 112 2;
#X connect 86 0 112 2;
#X connect 87 0 112 2;
#X connect 88 0 91 3;
#X connect 89 0 91 1;
#X connect 90 0 91 2;
#X connect 91 0 112 0;
#X connect 92 0 161 0;
#X connect 93 0 98 0;
#X connect 94 0 98 0;
#X connect 95 0 98 0;
#X connect 96 0 98 1;
#X connect 97 0 98 0;
#X connect 99 0 32 0;
#X connect 100 0 91 0;
#X connect 101 0 97 0;
#X connect 102 0 122 0;
#X connect 103 0 102 0;
#X connect 104 0 105 0;
#X connect 105 0 21 0;
#X connect 106 0 65 0;
#X connect 107 0 161 1;
#X connect 108 0 149 0;
#X connect 109 0 162 1;
#X connect 110 0 111 0;
#X connect 112 0 116 0;
#X connect 113 0 116 3;
#X connect 114 0 116 1;
#X connect 115 0 116 2;
#X connect 116 0 92 0;
#X connect 117 0 120 3;
#X connect 118 0 120 1;
#X connect 119 0 120 2;
#X connect 120 0 35 0;
#X connect 122 0 84 0;
#X connect 123 0 97 1;
#X connect 124 0 43 1;
#X connect 125 0 161 2;
#X connect 126 0 54 1;
#X connect 127 0 166 1;
#X connect 128 0 166 2;
#X connect 129 0 157 2;
#X connect 131 0 130 1;
#X connect 132 0 135 3;
#X connect 133 0 135 1;
#X connect 134 0 135 2;
#X connect 135 0 136 0;
#X connect 137 0 35 1;
#X connect 139 0 152 0;
#X connect 140 0 144 0;
#X connect 141 0 144 3;
#X connect 142 0 144 1;
#X connect 143 0 144 2;
#X connect 144 0 139 0;
#X connect 145 0 152 2;
#X connect 146 0 139 1;
#X connect 147 0 92 1;
#X connect 148 0 108 0;
#X connect 149 0 150 0;
#X connect 150 0 89 0;
#X connect 151 0 152 1;
#X connect 153 0 157 1;
#X connect 154 0 155 0;
#X connect 155 0 153 0;
#X connect 156 0 158 0;
#X connect 157 0 120 0;
#X connect 158 0 154 0;
#X connect 159 0 13 0;
#X connect 159 0 42 0;
#X connect 160 0 20 0;
#X connect 163 0 119 0;
#X connect 165 0 153 0;
