#N canvas 451 181 429 407 10;
#X obj 35 424 s \$0canvas;
#X obj 100 54 cnv 10 15 75 empty \$0canvas empty 0 0 0 8 -260818 -24198
0;
#X text 313 268 label-color;
#X msg 150 268 16;
#X floatatom 149 239 5 0 0 0 - - -, f 5;
#X msg 201 267 15;
#X msg 246 267 14;
#X msg 285 267 13;
#X msg 150 364 color \$1 \$2;
#X obj 150 200 moses 50;
#X obj 201 222 moses 70;
#X obj 246 244 moses 100;
#X obj 150 309 t f f;
#X obj 150 338 pack f f;
#X msg 35 204 vis_size 15 \$1;
#X text 198 -68 vertical;
#X obj 85 232 * -1;
#X obj 73 157 t f f f;
#X obj 63 268 + 130;
#X msg 57 303 pos 100 \$1;
#X floatatom 66 -23 5 0 0 0 - - -, f 5;
#X obj 194 31 inlet;
#X connect 3 0 12 0;
#X connect 4 0 3 0;
#X connect 5 0 12 0;
#X connect 6 0 12 0;
#X connect 7 0 12 0;
#X connect 8 0 0 0;
#X connect 9 0 4 0;
#X connect 9 1 10 0;
#X connect 10 0 5 0;
#X connect 10 1 11 0;
#X connect 11 0 6 0;
#X connect 11 1 7 0;
#X connect 12 0 13 0;
#X connect 12 1 13 1;
#X connect 13 0 8 0;
#X connect 14 0 0 0;
#X connect 16 0 18 0;
#X connect 17 0 14 0;
#X connect 17 1 16 0;
#X connect 17 2 9 0;
#X connect 18 0 19 0;
#X connect 19 0 0 0;
#X connect 20 0 17 0;
#X connect 21 0 20 0;
#X coords 0 0 1 1 17 130 2 99 0;
